<?xml version="1.0" standalone="no"?><!-- Generator: Gravit.io --><svg xmlns="http://www.w3.org/2000/svg" xmlns:xlink="http://www.w3.org/1999/xlink" style="isolation:isolate" viewBox="0 0 999 332.966" width="999" height="332.966"><defs><clipPath id="_clipPath_mWgHMVtTVccdjfgbSmL8dzl9zeFM1Mns"><rect width="999" height="332.966"/></clipPath></defs><g clip-path="url(#_clipPath_mWgHMVtTVccdjfgbSmL8dzl9zeFM1Mns)"><path d=" M 163.962 274.968 L 179.042 274.968 L 179.042 289.164 C 177.267 289.827 175.493 290.491 173.499 290.715 C 171.502 290.938 169.284 291.155 167.065 291.155 C 163.294 291.155 159.967 290.491 156.863 289.38 C 153.76 288.276 151.318 286.502 149.324 284.281 C 147.326 282.066 145.773 279.621 144.664 276.519 C 143.555 273.411 143.111 270.085 143.111 266.536 C 143.111 262.987 143.778 259.662 144.888 256.777 C 145.994 253.675 147.771 251.236 149.765 249.015 C 151.763 246.8 154.201 245.243 157.084 243.915 C 159.746 242.805 162.853 242.141 166.18 242.141 C 169.949 242.141 173.275 242.805 176.382 244.139 C 179.485 245.466 181.927 247.241 183.701 249.462 L 195.677 235.707 C 192.35 232.605 187.914 230.167 182.592 228.169 C 177.267 226.171 171.502 225.284 165.292 225.284 C 159.302 225.284 153.536 226.171 148.435 228.169 C 143.335 229.943 138.675 232.822 134.906 236.371 C 130.914 239.919 128.031 244.356 125.81 249.462 C 123.595 254.562 122.486 260.326 122.486 266.536 C 122.486 272.747 123.595 278.293 125.81 283.393 C 127.808 288.493 130.914 292.929 134.683 296.478 C 138.454 300.027 142.89 302.912 148.212 304.91 C 153.536 306.902 159.302 307.789 165.513 307.789 C 171.722 307.789 177.267 307.348 182.371 306.014 C 187.472 304.687 192.129 303.136 196.342 301.361 L 196.342 259.662 L 163.962 259.662 L 163.962 274.968" fill="rgb(35,31,32)"/><path d=" M 240.259 281.842 L 239.814 281.842 L 239.814 283.617 C 239.814 286.942 238.927 289.827 236.931 291.825 C 234.934 293.817 232.275 294.927 228.503 294.927 C 227.839 294.927 226.73 294.927 225.841 294.704 C 224.953 294.487 224.067 294.264 223.403 293.817 C 222.738 293.376 222.07 292.713 221.626 292.042 C 221.185 291.378 220.961 290.491 220.961 289.38 C 220.961 287.606 221.405 286.502 222.514 285.391 C 223.623 284.504 224.732 283.84 226.506 283.17 C 228.28 282.506 230.057 282.283 232.052 282.066 C 234.049 281.842 236.043 281.842 238.041 281.842 L 240.259 281.842 L 240.259 281.842 Z  M 251.126 256.113 C 249.131 253.675 246.689 251.9 243.363 250.79 C 240.259 249.679 236.267 249.015 231.607 249.015 C 226.95 249.015 222.514 249.679 218.302 251.236 C 214.086 252.787 210.315 255.226 206.991 258.334 L 215.86 268.311 C 217.634 266.76 219.631 265.425 222.07 264.321 C 224.509 262.987 226.95 262.547 229.613 262.547 C 232.495 262.547 234.713 263.211 236.709 264.545 C 238.706 265.872 239.594 267.87 239.594 270.532 L 239.594 271.196 C 235.823 271.196 231.607 271.419 227.395 271.859 C 223.179 272.306 219.41 273.194 215.86 274.521 C 212.313 275.855 209.65 277.847 207.432 280.291 C 205.214 282.73 204.105 285.832 204.105 289.827 C 204.105 293.153 204.77 295.815 206.102 298.036 C 207.432 300.251 208.985 302.025 210.98 303.353 C 212.977 304.687 214.974 305.574 217.413 306.238 C 219.852 306.902 222.07 307.125 224.288 307.125 C 227.615 307.125 230.721 306.685 233.605 305.351 C 236.488 304.023 238.706 302.249 240.035 300.027 L 240.259 300.027 L 240.259 306.014 L 256.892 306.014 L 256.892 278.293 C 256.892 273.194 256.45 268.757 255.562 265.209 C 254.674 261.66 253.123 258.551 251.126 256.113" fill="rgb(35,31,32)"/><path d=" M 352.042 256.56 C 350.489 254.338 348.494 252.564 345.832 251.236 C 343.17 249.902 340.066 249.239 336.295 249.239 C 332.082 249.239 328.532 250.126 325.649 251.9 C 322.766 253.675 320.324 255.889 318.553 258.775 C 317 255.889 315.002 253.451 312.12 251.9 C 309.237 250.349 305.91 249.462 301.917 249.462 C 299.699 249.462 297.926 249.902 296.149 250.349 C 294.375 250.79 292.822 251.453 291.492 252.341 C 290.163 253.228 288.83 254.115 287.945 255.226 C 287.056 256.336 286.17 257.447 285.506 258.551 L 285.282 258.551 L 285.282 250.79 L 267.761 250.79 L 267.761 306.014 L 285.947 306.014 L 285.947 276.296 C 285.947 272.97 286.835 270.085 288.388 267.87 C 289.939 265.425 292.157 264.321 295.04 264.321 C 297.702 264.321 299.699 265.209 301.03 266.983 C 302.359 268.757 303.027 271.419 303.027 274.521 L 303.027 306.014 L 321.213 306.014 L 321.213 276.296 C 321.213 274.745 321.213 273.411 321.657 271.859 C 322.101 270.532 322.542 269.198 323.431 268.094 C 324.095 266.983 325.205 266.096 326.313 265.425 C 327.423 264.762 328.752 264.321 330.306 264.321 C 332.082 264.321 333.188 264.545 334.3 265.209 C 335.407 265.872 336.074 266.536 336.739 267.647 C 337.404 268.757 337.848 269.862 338.069 271.419 C 338.292 272.747 338.292 274.298 338.292 275.855 L 338.292 306.014 L 356.478 306.014 L 356.478 271.859 C 356.478 269.198 356.034 266.536 355.369 263.874 C 354.705 261.213 353.595 258.775 352.042 256.56" fill="rgb(35,31,32)"/><path d=" M 383.98 226.171 C 383.095 225.06 381.983 224.396 380.654 223.956 C 379.324 223.286 377.991 223.069 376.662 223.069 C 375.108 223.069 373.779 223.509 372.449 223.956 C 371.116 224.62 370.008 225.284 369.122 226.171 C 368.234 227.058 367.348 228.169 366.904 229.273 C 366.459 230.383 366.236 231.718 366.236 233.045 C 366.236 235.93 367.124 238.145 369.122 240.143 C 371.34 242.141 373.779 243.028 376.662 243.028 C 377.991 243.028 379.324 242.805 380.654 242.364 C 381.983 241.694 383.095 241.03 383.98 240.143 C 384.869 239.256 385.534 238.368 386.198 237.041 C 386.863 235.707 387.087 234.379 387.087 233.045 C 387.087 231.718 386.643 230.383 386.198 229.273 C 385.755 228.169 384.869 227.058 383.98 226.171 Z " fill="rgb(35,31,32)"/><path d=" M 861.047 226.171 C 860.159 225.06 859.049 224.396 857.715 223.956 C 856.387 223.286 855.053 223.069 853.725 223.069 C 852.174 223.069 850.84 223.509 849.513 223.956 C 848.179 224.62 847.068 225.284 846.181 226.171 C 845.294 227.058 844.406 228.169 843.966 229.273 C 843.519 230.383 843.302 231.718 843.302 233.045 C 843.302 235.93 844.189 238.145 846.181 240.143 C 848.402 242.141 850.84 243.028 853.725 243.028 C 855.053 243.028 856.387 242.805 857.715 242.364 C 859.049 241.694 860.159 241.03 861.047 240.143 C 861.927 239.256 862.598 238.368 863.261 237.041 C 863.925 235.707 864.149 234.379 864.149 233.045 C 864.149 231.718 863.702 230.383 863.261 229.273 C 862.815 228.169 861.927 227.058 861.047 226.171" fill="rgb(35,31,32)"/><path d=" M 367.569 306.014 L 385.755 306.014 L 385.755 250.79 L 367.569 250.79 L 367.569 306.014 Z " fill="rgb(35,31,32)"/><path d=" M 447.416 256.336 C 445.863 254.338 443.866 252.564 441.204 251.236 C 438.765 249.902 435.658 249.239 431.89 249.239 C 429.892 249.239 428.119 249.679 426.344 250.126 C 424.791 250.566 423.017 251.236 421.685 252.124 C 420.355 252.787 419.026 253.898 417.916 255.002 C 416.808 256.113 415.919 257.447 415.254 258.551 L 415.033 258.551 L 415.033 250.79 L 397.509 250.79 L 397.509 306.014 L 415.698 306.014 L 415.698 276.072 C 415.698 274.521 415.919 273.194 416.363 271.636 C 416.808 270.308 417.251 268.974 418.137 267.87 C 419.026 266.76 420.134 265.872 421.244 265.209 C 422.352 264.545 423.903 264.321 425.456 264.321 C 427.009 264.321 428.339 264.545 429.448 265.209 C 430.558 265.649 431.222 266.536 431.89 267.647 C 432.555 268.757 432.998 270.085 433.219 271.419 C 433.44 272.747 433.663 274.298 433.663 275.855 L 433.663 306.014 L 451.85 306.014 L 451.85 271.859 C 451.85 269.198 451.405 266.313 450.741 263.658 C 450.076 260.772 448.966 258.551 447.416 256.336" fill="rgb(35,31,32)"/><path d=" M 503.307 283.393 C 502.641 285.168 501.754 286.502 500.644 287.829 C 499.536 289.164 498.205 290.268 496.432 290.938 C 494.879 291.602 492.884 292.042 490.886 292.042 C 488.668 292.042 486.894 291.825 485.341 290.938 C 483.788 290.051 482.458 289.164 481.349 287.829 C 480.24 286.502 479.352 285.168 478.687 283.393 C 478.022 281.619 477.799 279.844 477.799 278.07 C 477.799 276.296 478.022 274.521 478.687 272.747 C 479.352 270.972 480.24 269.645 481.349 268.311 C 482.458 266.983 483.788 265.872 485.341 265.209 C 486.894 264.545 488.889 264.098 490.886 264.098 C 492.884 264.098 494.879 264.545 496.432 265.209 C 497.982 266.096 499.536 266.983 500.644 268.311 C 501.754 269.645 502.641 270.972 503.307 272.747 C 503.972 274.521 504.194 276.296 504.194 278.07 C 504.194 279.844 503.972 281.619 503.307 283.393 Z  M 504.636 258.334 L 504.415 258.334 C 502.418 255.226 499.758 253.011 496.652 251.677 C 493.548 250.126 490.222 249.462 486.671 249.462 C 482.458 249.462 478.911 250.349 475.583 251.9 C 472.477 253.451 469.594 255.673 467.376 258.334 C 465.158 260.996 463.384 264.098 462.275 267.647 C 461.166 271.196 460.498 274.968 460.498 278.734 C 460.498 282.506 461.166 286.055 462.275 289.604 C 463.384 293.153 465.158 296.038 467.376 298.7 C 469.594 301.361 472.256 303.353 475.583 304.91 C 478.911 306.461 482.679 307.125 486.894 307.125 C 490.442 307.125 493.769 306.461 496.652 305.127 C 499.536 303.8 501.754 302.025 503.527 299.804 L 503.751 299.804 L 503.751 303.136 C 503.751 307.572 502.641 311.338 499.979 314.223 C 497.54 317.108 493.548 318.435 488.224 318.435 C 485.12 318.435 481.794 317.772 478.687 316.661 C 475.36 315.557 472.477 313.782 469.815 311.338 L 460.722 324.206 C 464.493 327.091 468.929 329.082 474.03 330.64 C 479.131 332.191 484.232 332.854 489.112 332.854 C 493.993 332.854 498.426 332.191 502.418 330.856 C 506.412 329.529 509.74 327.531 512.623 324.869 C 515.283 322.208 517.501 318.882 519.054 314.887 C 520.607 310.897 521.495 306.014 521.495 300.697 L 521.937 300.697 L 521.937 251.236 L 504.636 251.236 L 504.636 258.334" fill="rgb(35,31,32)"/><path d=" M 844.63 306.126 L 862.815 306.126 L 862.815 250.901 L 844.63 250.901 L 844.63 306.126 Z " fill="rgb(35,31,32)"/><path d=" M 924.48 256.448 C 922.922 254.45 920.931 252.676 918.269 251.342 C 915.824 250.014 912.722 249.35 908.95 249.35 C 906.952 249.35 905.178 249.791 903.403 250.238 C 901.852 250.678 900.078 251.342 898.75 252.229 C 897.416 252.899 896.089 254.003 894.978 255.114 C 893.867 256.225 892.98 257.552 892.316 258.663 L 892.093 258.663 L 892.093 250.901 L 874.572 250.901 L 874.572 306.126 L 892.763 306.126 L 892.763 276.184 C 892.763 274.633 892.98 273.305 893.427 271.748 C 893.867 270.42 894.314 269.086 895.201 267.982 C 896.089 266.871 897.199 265.984 898.303 265.32 C 899.414 264.65 900.965 264.433 902.516 264.433 C 904.074 264.433 905.401 264.65 906.512 265.32 C 907.623 265.761 908.286 266.648 908.95 267.759 C 909.614 268.869 910.061 270.197 910.284 271.531 C 910.501 272.858 910.725 274.409 910.725 275.967 L 910.725 306.126 L 928.909 306.126 L 928.909 271.971 C 928.909 269.309 928.469 266.424 927.805 263.763 C 927.141 260.884 926.031 258.663 924.48 256.448" fill="rgb(35,31,32)"/><path d=" M 782.018 256.448 C 780.467 254.45 778.469 252.676 775.808 251.342 C 773.369 250.014 770.267 249.35 766.495 249.35 C 764.497 249.35 762.723 249.791 760.948 250.238 C 759.397 250.678 757.623 251.342 756.289 252.229 C 754.961 252.899 753.627 254.003 752.523 255.114 C 751.412 256.225 750.525 257.552 749.861 258.663 L 749.638 258.663 L 749.638 250.901 L 732.117 250.901 L 732.117 306.126 L 750.302 306.126 L 750.302 276.184 C 750.302 274.633 750.525 273.305 750.972 271.748 C 751.412 270.42 751.859 269.086 752.746 267.982 C 753.627 266.871 754.738 265.984 755.848 265.32 C 756.959 264.65 758.51 264.433 760.061 264.433 C 761.612 264.433 762.946 264.65 764.057 265.32 C 765.161 265.761 765.831 266.648 766.495 267.759 C 767.159 268.869 767.606 270.197 767.823 271.531 C 768.046 272.858 768.269 274.409 768.269 275.967 L 768.269 306.126 L 786.454 306.126 L 786.454 271.971 C 786.454 269.309 786.014 266.424 785.35 263.763 C 784.68 260.884 783.576 258.663 782.018 256.448" fill="rgb(35,31,32)"/><path d=" M 980.368 283.505 C 979.705 285.28 978.817 286.607 977.707 287.941 C 976.596 289.269 975.268 290.379 973.494 291.043 C 971.943 291.714 969.945 292.154 967.947 292.154 C 965.732 292.154 963.958 291.93 962.4 291.043 C 960.849 290.156 959.522 289.269 958.411 287.941 C 957.3 286.607 956.413 285.28 955.749 283.505 C 955.086 281.731 954.862 279.956 954.862 278.182 C 954.862 276.407 955.086 274.633 955.749 272.858 C 956.413 271.084 957.3 269.756 958.411 268.422 C 959.522 267.095 960.849 265.984 962.4 265.32 C 963.958 264.65 965.949 264.21 967.947 264.21 C 969.945 264.21 971.943 264.65 973.494 265.32 C 975.045 266.208 976.596 267.095 977.707 268.422 C 978.817 269.756 979.705 271.084 980.368 272.858 C 981.032 274.633 981.256 276.407 981.256 278.182 C 981.256 279.956 981.032 281.731 980.368 283.505 Z  M 981.702 251.342 L 981.702 258.439 L 981.479 258.439 C 979.481 255.337 976.819 253.116 973.717 251.789 C 970.609 250.238 967.283 249.574 963.735 249.574 C 959.522 249.574 955.973 250.454 952.648 252.012 C 949.539 253.563 946.654 255.778 944.439 258.439 C 942.218 261.101 940.443 264.21 939.339 267.759 C 938.228 271.307 937.565 275.08 937.565 278.846 C 937.565 282.618 938.228 286.167 939.339 289.716 C 940.443 293.265 942.218 296.15 944.439 298.811 C 946.654 301.473 949.315 303.464 952.648 305.022 C 955.973 306.573 959.745 307.237 963.958 307.237 C 967.507 307.237 970.832 306.573 973.717 305.239 C 976.596 303.911 978.817 302.137 980.592 299.915 L 980.815 299.915 L 980.815 303.247 C 980.815 307.684 979.705 311.449 977.043 314.334 C 974.605 317.22 970.609 318.547 965.285 318.547 C 962.184 318.547 958.858 317.883 955.749 316.773 C 952.424 315.669 949.539 313.888 946.877 311.449 L 937.782 324.317 C 941.554 327.196 945.99 329.194 951.09 330.745 C 956.196 332.302 961.296 332.966 966.173 332.966 C 971.056 332.966 975.492 332.302 979.481 330.968 C 983.477 329.641 986.802 327.643 989.687 324.981 C 992.349 322.319 994.564 318.994 996.115 314.998 C 997.666 311.009 998.553 306.126 998.553 300.803 L 999 300.803 L 999 251.342 L 981.702 251.342" fill="rgb(35,31,32)"/><path d=" M 634.713 268.278 C 635.776 267.003 637.052 266.155 638.541 265.307 C 640.03 264.67 641.732 264.242 643.855 264.242 C 645.77 264.242 647.683 264.453 649.172 265.307 C 650.874 265.945 652.15 267.003 653.213 268.278 C 653.377 268.475 653.509 268.672 653.653 268.869 L 664.438 256.98 C 661.684 254.654 658.72 252.755 655.126 251.486 C 651.511 250.205 647.683 249.574 643.645 249.574 C 639.817 249.574 635.99 250.205 632.375 251.486 C 628.761 252.761 625.572 254.674 623.02 257.013 C 620.255 259.563 618.13 262.54 616.64 265.945 C 615.151 269.342 614.302 273.384 614.302 277.636 C 614.302 281.888 615.151 285.93 616.64 289.328 C 618.343 292.943 620.255 295.709 623.02 298.259 C 625.782 300.816 628.761 302.728 632.375 304.003 C 635.99 305.489 639.604 306.126 643.645 306.126 C 647.683 306.126 651.511 305.278 655.126 304.003 C 658.214 302.735 660.823 301.269 663.242 299.291 L 652.843 287.829 C 651.891 288.736 650.746 289.525 649.598 290.182 C 647.896 290.82 645.984 291.247 644.068 291.247 C 642.156 291.247 640.243 291.03 638.755 290.182 C 637.052 289.328 635.776 288.27 634.713 286.995 C 633.651 285.713 632.801 284.228 632.375 282.526 C 631.738 281.041 631.525 279.338 631.525 277.636 C 631.525 275.724 631.951 274.232 632.375 272.536 C 632.801 271.045 633.651 269.559 634.713 268.278 Z " fill="rgb(35,31,32)"/><path d=" M 585.808 306.126 L 603.997 306.126 L 603.997 250.901 L 585.808 250.901 L 585.808 306.126 Z " fill="rgb(35,31,32)"/><path d=" M 602.223 226.282 C 601.335 225.172 600.226 224.508 598.896 224.061 C 597.564 223.397 596.234 223.174 594.904 223.174 C 593.351 223.174 592.018 223.621 590.689 224.061 C 589.359 224.731 588.25 225.395 587.361 226.282 C 586.476 227.17 585.588 228.28 585.143 229.384 C 584.7 230.495 584.479 231.829 584.479 233.157 C 584.479 236.042 585.364 238.257 587.361 240.255 C 589.579 242.253 592.018 243.14 594.904 243.14 C 596.234 243.14 597.564 242.916 598.896 242.476 C 600.226 241.806 601.335 241.142 602.223 240.255 C 603.109 239.367 603.776 238.48 604.441 237.153 C 605.106 235.818 605.327 234.491 605.327 233.157 C 605.327 231.829 604.882 230.495 604.441 229.384 C 603.997 228.28 603.109 227.17 602.223 226.282 Z " fill="rgb(35,31,32)"/><path d=" M 550.194 228.964 L 532.008 228.964 L 532.008 306.126 L 580.874 306.126 L 580.874 291.247 L 550.194 291.247 L 550.194 228.964 Z " fill="rgb(35,31,32)"/><path d=" M 686.014 268.718 C 687.079 267.443 688.354 266.595 689.846 265.741 C 691.331 265.103 693.033 264.683 695.156 264.683 C 697.075 264.683 698.987 264.893 700.472 265.741 C 702.175 266.378 703.45 267.443 704.514 268.718 C 705.579 269.993 706.216 271.275 706.854 272.97 C 706.979 273.312 707.025 273.654 707.117 273.995 L 683.438 273.995 C 683.517 273.654 683.589 273.325 683.674 272.97 C 684.102 271.485 684.949 269.993 686.014 268.718 L 686.014 268.718 Z  M 715.785 257.454 C 713.018 255.114 710.041 253.202 706.427 251.92 C 702.812 250.645 698.987 250.007 694.945 250.007 C 691.12 250.007 687.289 250.645 683.674 251.92 C 680.06 253.202 676.872 255.114 674.322 257.454 C 671.556 260.004 669.433 262.981 667.941 266.378 C 666.456 269.783 665.601 273.825 665.601 278.077 C 665.601 282.329 666.456 286.371 667.941 289.768 C 669.643 293.383 671.556 296.15 674.322 298.7 C 677.083 301.25 680.06 303.162 683.674 304.444 C 687.289 305.929 690.904 306.566 694.945 306.566 C 698.987 306.566 702.812 305.719 706.427 304.444 C 710.041 302.952 713.018 301.25 715.785 298.7 C 716.725 297.826 717.566 296.912 718.362 295.966 C 717.809 295.69 707.616 289.17 704.922 287.448 C 703.864 288.717 702.378 289.775 700.9 290.623 C 699.197 291.26 697.285 291.681 695.373 291.681 C 693.46 291.681 691.541 291.47 690.056 290.623 C 688.354 289.768 687.079 288.704 686.014 287.429 C 685.061 286.285 684.325 284.944 683.872 283.459 L 707.117 283.459 L 710.817 283.459 L 724.007 283.459 C 724.309 281.724 724.5 279.93 724.5 278.077 C 724.5 273.825 723.652 269.783 722.16 266.378 C 720.675 262.764 718.546 259.793 715.785 257.454" fill="rgb(35,31,32)"/><path d=" M 813.071 261.141 C 813.781 260.713 814.431 260.47 815.181 260.345 C 816.022 260.207 816.731 260.207 817.632 260.207 C 819.36 260.207 820.878 260.562 822.469 261.357 C 824.053 262.015 825.492 263.106 826.524 264.427 L 827.214 265.314 L 837.171 255.173 L 836.388 254.483 C 833.681 252.124 830.815 250.448 827.608 249.383 C 820.911 247.149 815.345 247.267 810.028 248.595 C 807.544 249.212 805.092 250.323 802.911 251.841 C 800.748 253.504 799.158 255.298 797.916 257.473 C 796.595 259.616 795.931 262.369 795.931 265.662 C 795.931 268.153 796.385 270.466 797.278 272.425 C 798.106 273.949 799.099 275.559 800.67 276.946 C 801.852 278.136 803.403 279.154 805.408 280.068 C 807.163 280.863 808.957 281.514 810.62 282.112 C 811.868 282.454 813.117 282.881 814.234 283.262 L 815.325 283.63 C 816.725 284.097 817.822 284.517 818.618 285.05 C 819.314 285.516 820.07 286.081 820.464 286.732 C 820.846 287.363 821.095 287.961 821.095 288.835 C 821.095 289.834 820.944 290.55 820.616 291.089 C 820.208 291.779 819.86 292.246 819.268 292.594 C 818.565 293.015 817.914 293.265 817.159 293.389 C 816.285 293.534 815.266 293.679 814.412 293.679 C 812.499 293.679 810.534 293.159 808.398 292.095 C 806.453 291.122 804.849 289.854 803.509 288.211 L 802.812 287.363 L 792.783 297.569 L 793.434 298.259 C 795.957 300.941 798.954 302.873 802.858 304.338 C 806.505 305.699 810.442 306.395 814.556 306.395 C 817.468 306.395 820.149 306.021 822.515 305.278 C 825.236 304.476 827.49 303.353 829.619 301.716 C 831.887 299.83 833.477 297.865 834.483 295.696 C 835.646 293.205 836.264 290.241 836.264 287.146 C 836.264 284.235 835.698 281.796 834.594 279.897 C 833.346 277.761 831.992 276.204 830.336 274.994 C 828.706 273.811 826.826 272.819 824.579 271.958 C 823.041 271.367 821.509 270.861 820.037 270.381 L 818.71 269.94 C 818.125 269.75 817.599 269.559 817.106 269.375 C 816.409 269.119 815.779 268.889 815.181 268.711 C 814.228 268.403 813.34 267.923 812.631 267.509 C 812.118 267.305 811.77 266.845 811.362 266.306 C 811.073 265.918 810.942 265.386 810.942 264.591 C 810.942 263.789 811.152 263.06 811.513 262.567 C 811.954 261.982 812.493 261.482 813.071 261.141" fill="rgb(35,31,32)"/><clipPath id="_clipPath_1tFGgNicUyLHRr4S3OMtxSNA3MOUs6gY"><path d=" M 50.399 268.225 C 50.923 260.891 53.998 253.543 59.279 247.182 C 54.373 254.529 51.4 261.555 50.399 268.225 Z  M 58.304 162.895 C 59.731 163.401 61.869 164.21 64.395 165.334 C 32.883 171.327 4.457 203.898 4.662 236.285 C 4.672 237.054 4.713 237.816 4.749 238.585 C 4.513 236.318 4.387 234.031 4.387 231.718 C 4.387 201.927 29.569 171.662 58.304 162.895 Z  M 74.567 160.378 C 78.256 160.378 81.688 160.378 84.933 160.372 C 86.738 161.436 88.512 162.6 90.216 163.875 C 85.118 164.026 79.547 164.19 73.18 164.361 C 72.944 164.361 72.711 164.387 72.477 164.4 C 70.128 163.106 67.869 162.021 65.851 161.134 C 68.749 160.654 71.661 160.378 74.567 160.378 L 74.567 160.378 Z  M 109.014 160.247 C 109.658 161.219 110.228 162.225 110.754 163.25 C 109.24 163.296 107.714 163.342 106.167 163.388 C 103.17 163.48 100.072 163.579 96.817 163.677 C 96.149 163.047 95.459 162.429 94.727 161.831 C 94.1 161.318 93.464 160.825 92.819 160.345 C 98.711 160.319 103.985 160.286 109.014 160.247 Z  M 115.38 160.201 C 118.553 160.175 121.696 160.155 124.889 160.129 C 125.079 161.016 125.233 161.91 125.356 162.817 C 122.011 162.909 118.787 163.001 115.598 163.099 C 115.167 162.113 114.69 161.154 114.163 160.207 C 114.571 160.207 114.977 160.207 115.38 160.201 Z  M 137.24 160.063 C 137.199 160.819 137.171 161.568 137.091 162.33 C 137.083 162.389 137.07 162.442 137.065 162.501 C 134.518 162.567 132.118 162.626 129.78 162.692 C 129.674 161.824 129.551 160.957 129.392 160.102 C 131.92 160.089 134.529 160.076 137.24 160.063 Z  M 146.621 162.133 C 145.221 162.251 143.812 162.343 142.387 162.376 C 142.074 162.383 141.789 162.389 141.478 162.396 C 141.555 161.607 141.596 160.832 141.635 160.05 C 143.447 160.05 145.321 160.043 147.259 160.043 C 147.062 160.746 146.849 161.443 146.621 162.133 L 146.621 162.133 Z  M 155.333 159.767 C 155.136 160.161 154.953 160.562 154.748 160.95 C 153.634 161.187 152.512 161.384 151.377 161.561 C 151.529 161.035 151.698 160.51 151.832 159.977 C 153.007 159.931 154.173 159.866 155.333 159.767 L 155.333 159.767 Z  M 162.205 158.88 C 162.182 158.913 162.157 158.946 162.134 158.978 C 161.538 159.176 160.932 159.353 160.329 159.537 C 160.38 159.419 160.426 159.3 160.478 159.189 C 161.058 159.097 161.63 158.985 162.205 158.88 L 162.205 158.88 Z  M 46.007 268.449 C 45.655 255.889 52.584 242.686 63.795 235.299 C 65.622 234.097 67.415 232.94 69.23 231.79 C 65.987 234.465 62.902 237.218 59.739 240.255 C 51.382 248.279 46.574 258.347 46.007 268.449 L 46.007 268.449 Z  M 76.939 172.425 C 75.273 172.523 73.568 172.622 71.779 172.727 C 39.81 174.587 8.875 208.321 9.324 240.853 C 9.329 241.083 9.352 241.313 9.36 241.549 C 9.188 239.795 9.072 238.027 9.049 236.246 C 8.841 203.714 39.414 170.966 71.355 168.856 C 73.204 169.914 75.091 171.104 76.939 172.425 L 76.939 172.425 Z  M 113.331 170.282 C 109.784 170.486 106.3 170.69 102.703 170.9 C 102.09 169.888 101.399 168.909 100.665 167.949 C 102.583 167.89 104.464 167.831 106.303 167.778 C 108.423 167.713 110.502 167.647 112.574 167.581 C 112.869 168.468 113.118 169.369 113.331 170.282 Z  M 125.662 169.605 C 122.933 169.75 120.333 169.895 117.809 170.033 C 117.626 169.159 117.413 168.291 117.167 167.443 C 119.955 167.358 122.789 167.272 125.716 167.193 C 125.728 167.989 125.698 168.797 125.662 169.605 Z  M 135.807 169.08 C 135.733 169.086 135.661 169.093 135.589 169.093 C 133.666 169.191 131.834 169.283 130.054 169.375 C 130.082 168.606 130.118 167.831 130.106 167.075 C 132.106 167.016 134.164 166.963 136.313 166.911 C 136.154 167.634 136.002 168.363 135.807 169.08 Z  M 151.542 166.234 C 150.882 166.438 150.217 166.635 149.55 166.825 C 149.629 166.628 149.709 166.425 149.786 166.227 C 150.446 166.148 151.097 166.043 151.749 165.945 C 151.683 166.043 151.608 166.135 151.542 166.234 Z  M 94.473 209.55 C 94.067 209.708 93.7 209.852 93.305 210.004 C 93.343 209.912 93.377 209.813 93.417 209.721 C 93.964 209.55 94.509 209.386 95.068 209.215 C 95.043 209.254 95.02 209.294 94.991 209.333 C 94.817 209.399 94.647 209.484 94.473 209.55 L 94.473 209.55 Z  M 41.599 266.74 C 40.349 251 50.181 234.103 64.868 227.084 C 71.224 224.048 76.387 221.689 81.755 219.408 C 73.686 223.765 67.751 227.439 61.382 231.639 C 49.293 239.604 41.838 253.123 41.599 266.74 L 41.599 266.74 Z  M 101.268 178.188 C 97.731 178.51 94.119 178.846 90.239 179.207 C 89.477 178.156 88.661 177.143 87.801 176.177 C 89.495 176.079 91.141 175.98 92.732 175.882 C 95.304 175.731 97.748 175.586 100.128 175.448 C 100.557 176.342 100.94 177.255 101.268 178.188 Z  M 114.173 177.045 C 111.298 177.295 108.536 177.538 105.789 177.781 C 105.515 176.9 105.212 176.026 104.857 175.165 C 107.938 174.988 110.962 174.81 114.04 174.64 C 114.112 175.435 114.158 176.237 114.173 177.045 Z  M 124.832 176.145 C 122.648 176.322 120.581 176.499 118.571 176.67 C 118.551 175.901 118.502 175.146 118.438 174.396 C 120.622 174.271 122.874 174.153 125.21 174.028 C 125.099 174.732 124.987 175.441 124.832 176.145 Z  M 133.594 175.231 C 132.198 175.448 130.786 175.632 129.359 175.757 C 129.472 175.126 129.602 174.502 129.69 173.871 C 129.692 173.844 129.695 173.818 129.698 173.792 C 131.174 173.713 132.709 173.634 134.28 173.555 C 134.056 174.114 133.838 174.679 133.594 175.231 L 133.594 175.231 Z  M 141.137 173.529 C 140.351 173.759 139.558 173.976 138.757 174.173 C 138.872 173.864 138.973 173.549 139.083 173.24 C 139.889 173.161 140.687 173.056 141.486 172.944 C 141.365 173.135 141.26 173.338 141.137 173.529 Z  M 115.167 193.968 C 115.208 193.882 115.249 193.79 115.288 193.698 C 115.472 193.666 115.647 193.639 115.835 193.606 C 116.037 193.574 116.232 193.521 116.435 193.482 C 116.422 193.501 116.407 193.521 116.391 193.534 C 115.991 193.692 115.575 193.823 115.167 193.968 L 115.167 193.968 Z  M 95.389 203.418 C 96.609 203.136 97.867 202.847 99.148 202.551 C 98.975 202.906 98.765 203.248 98.583 203.596 C 97.386 203.944 96.236 204.286 95.112 204.628 C 95.215 204.22 95.3 203.819 95.389 203.418 L 95.389 203.418 Z  M 64.516 214.676 C 46.397 221.11 32.678 240.945 32.521 260.155 C 32.46 259.708 32.398 259.268 32.352 258.821 C 31.071 238.329 47.329 215.748 67.145 210.496 C 76.384 208.052 83.298 206.284 90.599 204.542 C 90.445 205.075 90.258 205.614 90.073 206.152 C 81.537 208.775 74.336 211.187 64.516 214.676 L 64.516 214.676 Z  M 37.011 263.316 C 35.484 244.993 48.479 225.027 65.987 218.81 C 74.351 215.84 80.802 213.651 87.819 211.443 C 87.664 211.752 87.503 212.054 87.338 212.363 C 78.936 215.734 72.049 218.79 62.973 223.128 C 47.704 230.423 37.176 247.405 37.117 264.006 C 37.083 263.776 37.039 263.546 37.011 263.316 L 37.011 263.316 Z  M 89.526 186.634 C 83.501 187.442 77.001 188.342 68.939 189.473 C 42.092 193.238 18.445 221.281 18.643 248.779 C 18.52 247.622 18.42 246.459 18.373 245.289 C 17.737 217.174 43.206 188.099 70.78 185.464 C 77.344 184.839 82.949 184.307 88.04 183.827 C 88.592 184.728 89.082 185.667 89.526 186.634 Z  M 102.698 184.912 C 99.784 185.286 96.94 185.654 94.054 186.035 C 93.688 185.122 93.274 184.235 92.825 183.374 C 96.147 183.065 99.299 182.776 102.397 182.493 C 102.536 183.288 102.629 184.097 102.698 184.912 L 102.698 184.912 Z  M 113.699 183.545 C 111.393 183.827 109.198 184.097 107.08 184.366 C 107.014 183.597 106.918 182.848 106.801 182.099 C 109.16 181.889 111.537 181.678 113.989 181.468 C 113.917 182.151 113.812 182.848 113.699 183.545 Z  M 122.902 182.395 C 122.583 182.434 122.278 182.506 121.96 182.546 C 120.671 182.697 119.424 182.848 118.209 182.999 C 118.294 182.355 118.363 181.718 118.419 181.087 C 120.068 180.949 121.778 180.804 123.536 180.653 C 123.336 181.238 123.13 181.816 122.902 182.395 Z  M 117.372 187.521 C 118.445 187.389 119.552 187.258 120.681 187.12 C 120.476 187.494 120.25 187.856 120.032 188.23 C 119.033 188.487 118.009 188.684 116.987 188.888 C 117.118 188.434 117.259 187.981 117.372 187.521 L 117.372 187.521 Z  M 96.144 196.938 C 97.931 196.623 99.743 196.308 101.6 195.992 C 101.453 196.531 101.284 197.07 101.109 197.609 C 99.361 198.003 97.682 198.384 96.059 198.759 C 96.1 198.148 96.139 197.543 96.144 196.938 L 96.144 196.938 Z  M 27.695 254.319 C 26.635 231.389 46.004 206.527 68.333 202.163 C 77.681 200.336 84.792 198.982 91.734 197.727 C 91.705 198.417 91.659 199.107 91.575 199.804 C 83.477 201.71 76.14 203.576 66.021 206.258 C 44.782 211.877 27.89 234.537 27.949 256.652 C 27.844 255.87 27.754 255.094 27.695 254.319 L 27.695 254.319 Z  M 102.544 191.378 C 100.233 191.766 98.018 192.154 95.833 192.542 C 95.72 191.779 95.569 191.03 95.394 190.281 C 97.841 189.959 100.267 189.65 102.737 189.335 C 102.696 190.012 102.631 190.688 102.544 191.378 L 102.544 191.378 Z  M 112.651 188.092 C 112.482 188.658 112.302 189.216 112.107 189.775 C 110.346 190.064 108.674 190.347 107.05 190.616 C 107.108 189.998 107.162 189.381 107.188 188.769 C 108.952 188.553 110.767 188.329 112.651 188.092 L 112.651 188.092 Z  M 91.038 190.859 C 91.243 191.668 91.392 192.483 91.51 193.311 C 84.374 194.592 77.114 195.979 67.491 197.858 C 43.863 202.479 23.29 228.188 23.277 252.59 C 23.172 251.664 23.087 250.737 23.033 249.81 C 22.191 224.501 44.798 197.293 69.548 193.817 C 78.015 192.627 84.759 191.701 91.038 190.859 Z  M 108.272 196.018 C 107.504 196.189 106.77 196.347 106.033 196.511 C 106.066 196.38 106.11 196.242 106.144 196.11 C 106.218 195.801 106.266 195.493 106.333 195.184 C 107.537 194.98 108.782 194.776 110.053 194.566 C 109.861 194.947 109.671 195.328 109.462 195.703 C 109.062 195.801 108.674 195.926 108.272 196.018 L 108.272 196.018 Z  M 129.138 180.193 C 129.803 180.14 130.463 180.061 131.122 179.989 C 130.956 180.265 130.789 180.548 130.616 180.83 C 129.721 181.074 128.82 181.31 127.903 181.514 C 128.039 181.093 128.195 180.679 128.319 180.259 C 128.596 180.239 128.855 180.213 129.138 180.193 L 129.138 180.193 Z  M 104.28 201.815 C 104.341 201.664 104.4 201.513 104.459 201.355 C 104.98 201.243 105.494 201.125 106.028 201.007 C 105.977 201.079 105.923 201.145 105.869 201.217 C 105.342 201.421 104.813 201.624 104.28 201.815 Z  M 13.711 240.767 C 13.29 210.378 42.182 178.846 72.035 177.104 C 75.599 176.9 78.87 176.703 81.973 176.526 C 83.046 177.525 84.068 178.589 85.023 179.7 C 80.623 180.121 75.837 180.574 70.367 181.1 C 40.847 183.919 13.578 214.873 13.989 244.987 C 13.853 243.587 13.747 242.187 13.711 240.767 L 13.711 240.767 Z  M 142.489 166.76 C 143.298 166.747 144.1 166.694 144.9 166.648 C 144.684 167.134 144.428 167.594 144.197 168.074 C 142.947 168.311 141.681 168.501 140.405 168.659 C 140.554 168.041 140.716 167.424 140.839 166.799 C 141.396 166.786 141.92 166.773 142.489 166.76 L 142.489 166.76 Z  M 95.06 168.12 C 95.992 169.106 96.838 170.138 97.604 171.202 C 95.938 171.301 94.236 171.4 92.47 171.505 C 89.68 171.669 86.725 171.846 83.59 172.03 C 82.168 170.795 80.692 169.645 79.193 168.587 C 85.062 168.422 90.267 168.265 95.06 168.12 Z  M 115.059 201.644 C 118.766 199.508 122.178 196.984 125.243 194.139 C 129.076 191.97 132.614 189.394 135.8 186.469 C 139.25 184.491 142.472 182.191 145.426 179.601 C 149.567 177.328 153.403 174.607 156.863 171.498 C 160.565 169.336 164.018 166.812 167.188 163.993 C 170.47 162.034 173.578 159.82 176.469 157.362 C 180.607 154.996 184.473 152.222 188.022 149.101 C 209.429 135.983 223.747 112.37 223.747 85.477 C 223.747 48.384 196.221 17.22 153.626 6.067 C 80.168 -13.149 14.112 19.395 13.45 19.724 L 15.421 23.647 C 16.066 23.319 80.636 -8.496 152.517 10.319 C 183.349 18.383 219.356 42.91 219.356 85.477 C 219.356 102.466 213.288 118.061 203.204 130.219 C 208.71 120.23 211.883 108.762 211.991 96.505 C 212.297 61.778 187.054 32.382 147.681 21.61 C 79.878 2.919 17.976 32 17.357 32.296 L 19.257 36.252 C 19.855 35.97 80.279 7.579 146.52 25.842 C 183.917 36.069 207.894 63.789 207.604 96.472 C 207.458 113.066 201.325 128.129 191.238 139.67 C 196.76 130.147 200.016 119.191 200.238 107.539 C 200.85 75.257 177.886 47.629 141.735 37.153 C 79.56 19.139 21.852 44.606 21.277 44.862 L 23.077 48.864 C 23.641 48.614 79.938 23.805 140.513 41.366 C 174.703 51.276 196.424 77.223 195.849 107.46 C 195.566 122.366 189.978 136.062 180.882 146.754 C 185.462 138.309 188.17 128.741 188.484 118.58 C 189.413 88.244 169.227 63.001 135.797 52.696 C 79.272 35.273 25.734 57.204 25.202 57.428 L 26.896 61.476 C 27.415 61.259 79.478 39.933 134.503 56.889 C 172.105 68.475 184.776 96.288 184.096 118.442 C 183.714 130.824 179.508 142.259 172.58 151.631 C 172.138 151.782 171.692 151.933 171.247 152.078 C 174.443 145.19 176.369 137.613 176.726 129.621 C 177.971 101.736 160.016 78.221 129.867 68.245 C 78.99 51.408 29.631 69.803 29.138 69.993 L 30.701 74.094 C 31.181 73.91 79.134 56.08 128.488 72.412 C 156.692 81.737 173.496 103.589 172.341 129.424 C 171.95 138.204 169.51 146.446 165.482 153.721 C 164.426 153.977 163.366 154.201 162.296 154.404 C 163.751 150.008 164.681 145.407 164.968 140.669 C 166.521 115.242 150.802 93.449 123.944 83.795 C 78.715 67.542 34.934 81.935 33.091 82.552 L 34.493 86.712 C 34.932 86.561 78.718 72.208 122.463 87.928 C 147.409 96.893 162.018 116.996 160.588 140.406 C 160.278 145.539 159.13 150.481 157.351 155.167 C 155.823 155.344 154.288 155.489 152.733 155.568 C 152.936 154.293 153.108 153.018 153.213 151.73 C 155.072 128.76 141.594 108.689 118.037 99.357 C 78.461 83.676 38.739 94.632 37.065 95.112 L 38.267 99.331 C 38.659 99.219 78.215 88.29 116.422 103.432 C 138.112 112.034 150.536 130.403 148.839 151.375 C 148.72 152.814 148.525 154.24 148.273 155.653 C 145.981 155.653 143.791 155.66 141.673 155.666 C 140.954 137.948 130.308 123.029 112.15 114.926 C 78.233 99.791 42.572 107.335 41.07 107.671 L 42.007 111.956 C 42.361 111.877 77.802 104.404 110.364 118.929 C 126.84 126.283 136.544 139.729 137.283 155.679 C 134.164 155.686 131.184 155.706 128.293 155.719 C 125.035 145.19 117.459 136.292 106.292 130.515 C 78.045 115.899 46.438 120.039 45.111 120.223 L 45.709 124.567 C 46.022 124.528 77.252 120.434 104.274 134.412 C 113.868 139.374 120.538 146.866 123.677 155.752 C 120.887 155.771 118.13 155.791 115.347 155.811 C 114.007 155.824 112.662 155.837 111.303 155.844 C 108.472 152.15 104.847 148.877 100.475 146.137 C 77.917 131.987 50.363 132.736 49.205 132.795 L 49.357 137.179 C 49.616 137.179 76.715 136.417 98.144 149.85 C 100.968 151.624 103.422 153.655 105.524 155.883 C 99.671 155.922 93.394 155.962 86.13 155.982 C 70.86 147.3 54.211 145.48 53.377 145.394 L 52.928 149.758 C 53.087 149.778 64.118 150.98 76.138 155.995 C 75.614 155.995 75.101 155.995 74.567 155.995 C 69.104 155.995 63.659 156.803 58.337 158.275 C 57.978 158.157 57.729 158.085 57.636 158.058 L 57.51 158.492 C 26.519 167.476 0 199.337 0 231.718 C 0 271.551 34.023 305.324 74.295 305.462 L 74.305 303.274 L 75.134 301.243 C 74.965 301.171 58.075 294.112 54.917 278.484 C 52.302 265.531 59.595 250.33 76.598 233.301 C 78.474 231.422 80.207 229.555 81.814 227.709 C 82.225 227.419 82.623 227.13 83.046 226.828 C 86.869 224.147 90.298 221.229 93.289 218.14 C 97.32 215.708 100.971 212.889 104.159 209.76 C 108.189 207.454 111.843 204.726 115.059 201.644 L 115.059 201.644 Z " fill="rgb(255,255,255)"/></clipPath><g clip-path="url(#_clipPath_1tFGgNicUyLHRr4S3OMtxSNA3MOUs6gY)"><g id="g156"><linearGradient id="_lgradient_0" x1="-9.461313268468412%" y1="39.131491769947814%" x2="103.47757089404016%" y2="69.24131148745757%"><stop offset="0%" stop-opacity="1" style="stop-color:rgb(236,7,114)"/><stop offset="100%" stop-opacity="1" style="stop-color:rgb(37,39,117)"/></linearGradient><path d=" M 50.399 268.225 C 50.923 260.891 53.998 253.543 59.279 247.182 C 54.373 254.529 51.4 261.555 50.399 268.225 Z  M 58.304 162.895 C 59.731 163.401 61.869 164.21 64.395 165.334 C 32.883 171.327 4.457 203.898 4.662 236.285 C 4.672 237.054 4.713 237.816 4.749 238.585 C 4.513 236.318 4.387 234.031 4.387 231.718 C 4.387 201.927 29.569 171.662 58.304 162.895 Z  M 74.567 160.378 C 78.256 160.378 81.688 160.378 84.933 160.372 C 86.738 161.436 88.512 162.6 90.216 163.875 C 85.118 164.026 79.547 164.19 73.18 164.361 C 72.944 164.361 72.711 164.387 72.477 164.4 C 70.128 163.106 67.869 162.021 65.851 161.134 C 68.749 160.654 71.661 160.378 74.567 160.378 L 74.567 160.378 Z  M 109.014 160.247 C 109.658 161.219 110.228 162.225 110.754 163.25 C 109.24 163.296 107.714 163.342 106.167 163.388 C 103.17 163.48 100.072 163.579 96.817 163.677 C 96.149 163.047 95.459 162.429 94.727 161.831 C 94.1 161.318 93.464 160.825 92.819 160.345 C 98.711 160.319 103.985 160.286 109.014 160.247 Z  M 115.38 160.201 C 118.553 160.175 121.696 160.155 124.889 160.129 C 125.079 161.016 125.233 161.91 125.356 162.817 C 122.011 162.909 118.787 163.001 115.598 163.099 C 115.167 162.113 114.69 161.154 114.163 160.207 C 114.571 160.207 114.977 160.207 115.38 160.201 Z  M 137.24 160.063 C 137.199 160.819 137.171 161.568 137.091 162.33 C 137.083 162.389 137.07 162.442 137.065 162.501 C 134.518 162.567 132.118 162.626 129.78 162.692 C 129.674 161.824 129.551 160.957 129.392 160.102 C 131.92 160.089 134.529 160.076 137.24 160.063 Z  M 146.621 162.133 C 145.221 162.251 143.812 162.343 142.387 162.376 C 142.074 162.383 141.789 162.389 141.478 162.396 C 141.555 161.607 141.596 160.832 141.635 160.05 C 143.447 160.05 145.321 160.043 147.259 160.043 C 147.062 160.746 146.849 161.443 146.621 162.133 L 146.621 162.133 Z  M 155.333 159.767 C 155.136 160.161 154.953 160.562 154.748 160.95 C 153.634 161.187 152.512 161.384 151.377 161.561 C 151.529 161.035 151.698 160.51 151.832 159.977 C 153.007 159.931 154.173 159.866 155.333 159.767 L 155.333 159.767 Z  M 162.205 158.88 C 162.182 158.913 162.157 158.946 162.134 158.978 C 161.538 159.176 160.932 159.353 160.329 159.537 C 160.38 159.419 160.426 159.3 160.478 159.189 C 161.058 159.097 161.63 158.985 162.205 158.88 L 162.205 158.88 Z  M 46.007 268.449 C 45.655 255.889 52.584 242.686 63.795 235.299 C 65.622 234.097 67.415 232.94 69.23 231.79 C 65.987 234.465 62.902 237.218 59.739 240.255 C 51.382 248.279 46.574 258.347 46.007 268.449 L 46.007 268.449 Z  M 76.939 172.425 C 75.273 172.523 73.568 172.622 71.779 172.727 C 39.81 174.587 8.875 208.321 9.324 240.853 C 9.329 241.083 9.352 241.313 9.36 241.549 C 9.188 239.795 9.072 238.027 9.049 236.246 C 8.841 203.714 39.414 170.966 71.355 168.856 C 73.204 169.914 75.091 171.104 76.939 172.425 L 76.939 172.425 Z  M 113.331 170.282 C 109.784 170.486 106.3 170.69 102.703 170.9 C 102.09 169.888 101.399 168.909 100.665 167.949 C 102.583 167.89 104.464 167.831 106.303 167.778 C 108.423 167.713 110.502 167.647 112.574 167.581 C 112.869 168.468 113.118 169.369 113.331 170.282 Z  M 125.662 169.605 C 122.933 169.75 120.333 169.895 117.809 170.033 C 117.626 169.159 117.413 168.291 117.167 167.443 C 119.955 167.358 122.789 167.272 125.716 167.193 C 125.728 167.989 125.698 168.797 125.662 169.605 Z  M 135.807 169.08 C 135.733 169.086 135.661 169.093 135.589 169.093 C 133.666 169.191 131.834 169.283 130.054 169.375 C 130.082 168.606 130.118 167.831 130.106 167.075 C 132.106 167.016 134.164 166.963 136.313 166.911 C 136.154 167.634 136.002 168.363 135.807 169.08 Z  M 151.542 166.234 C 150.882 166.438 150.217 166.635 149.55 166.825 C 149.629 166.628 149.709 166.425 149.786 166.227 C 150.446 166.148 151.097 166.043 151.749 165.945 C 151.683 166.043 151.608 166.135 151.542 166.234 Z  M 94.473 209.55 C 94.067 209.708 93.7 209.852 93.305 210.004 C 93.343 209.912 93.377 209.813 93.417 209.721 C 93.964 209.55 94.509 209.386 95.068 209.215 C 95.043 209.254 95.02 209.294 94.991 209.333 C 94.817 209.399 94.647 209.484 94.473 209.55 L 94.473 209.55 Z  M 41.599 266.74 C 40.349 251 50.181 234.103 64.868 227.084 C 71.224 224.048 76.387 221.689 81.755 219.408 C 73.686 223.765 67.751 227.439 61.382 231.639 C 49.293 239.604 41.838 253.123 41.599 266.74 L 41.599 266.74 Z  M 101.268 178.188 C 97.731 178.51 94.119 178.846 90.239 179.207 C 89.477 178.156 88.661 177.143 87.801 176.177 C 89.495 176.079 91.141 175.98 92.732 175.882 C 95.304 175.731 97.748 175.586 100.128 175.448 C 100.557 176.342 100.94 177.255 101.268 178.188 Z  M 114.173 177.045 C 111.298 177.295 108.536 177.538 105.789 177.781 C 105.515 176.9 105.212 176.026 104.857 175.165 C 107.938 174.988 110.962 174.81 114.04 174.64 C 114.112 175.435 114.158 176.237 114.173 177.045 Z  M 124.832 176.145 C 122.648 176.322 120.581 176.499 118.571 176.67 C 118.551 175.901 118.502 175.146 118.438 174.396 C 120.622 174.271 122.874 174.153 125.21 174.028 C 125.099 174.732 124.987 175.441 124.832 176.145 Z  M 133.594 175.231 C 132.198 175.448 130.786 175.632 129.359 175.757 C 129.472 175.126 129.602 174.502 129.69 173.871 C 129.692 173.844 129.695 173.818 129.698 173.792 C 131.174 173.713 132.709 173.634 134.28 173.555 C 134.056 174.114 133.838 174.679 133.594 175.231 L 133.594 175.231 Z  M 141.137 173.529 C 140.351 173.759 139.558 173.976 138.757 174.173 C 138.872 173.864 138.973 173.549 139.083 173.24 C 139.889 173.161 140.687 173.056 141.486 172.944 C 141.365 173.135 141.26 173.338 141.137 173.529 Z  M 115.167 193.968 C 115.208 193.882 115.249 193.79 115.288 193.698 C 115.472 193.666 115.647 193.639 115.835 193.606 C 116.037 193.574 116.232 193.521 116.435 193.482 C 116.422 193.501 116.407 193.521 116.391 193.534 C 115.991 193.692 115.575 193.823 115.167 193.968 L 115.167 193.968 Z  M 95.389 203.418 C 96.609 203.136 97.867 202.847 99.148 202.551 C 98.975 202.906 98.765 203.248 98.583 203.596 C 97.386 203.944 96.236 204.286 95.112 204.628 C 95.215 204.22 95.3 203.819 95.389 203.418 L 95.389 203.418 Z  M 64.516 214.676 C 46.397 221.11 32.678 240.945 32.521 260.155 C 32.46 259.708 32.398 259.268 32.352 258.821 C 31.071 238.329 47.329 215.748 67.145 210.496 C 76.384 208.052 83.298 206.284 90.599 204.542 C 90.445 205.075 90.258 205.614 90.073 206.152 C 81.537 208.775 74.336 211.187 64.516 214.676 L 64.516 214.676 Z  M 37.011 263.316 C 35.484 244.993 48.479 225.027 65.987 218.81 C 74.351 215.84 80.802 213.651 87.819 211.443 C 87.664 211.752 87.503 212.054 87.338 212.363 C 78.936 215.734 72.049 218.79 62.973 223.128 C 47.704 230.423 37.176 247.405 37.117 264.006 C 37.083 263.776 37.039 263.546 37.011 263.316 L 37.011 263.316 Z  M 89.526 186.634 C 83.501 187.442 77.001 188.342 68.939 189.473 C 42.092 193.238 18.445 221.281 18.643 248.779 C 18.52 247.622 18.42 246.459 18.373 245.289 C 17.737 217.174 43.206 188.099 70.78 185.464 C 77.344 184.839 82.949 184.307 88.04 183.827 C 88.592 184.728 89.082 185.667 89.526 186.634 Z  M 102.698 184.912 C 99.784 185.286 96.94 185.654 94.054 186.035 C 93.688 185.122 93.274 184.235 92.825 183.374 C 96.147 183.065 99.299 182.776 102.397 182.493 C 102.536 183.288 102.629 184.097 102.698 184.912 L 102.698 184.912 Z  M 113.699 183.545 C 111.393 183.827 109.198 184.097 107.08 184.366 C 107.014 183.597 106.918 182.848 106.801 182.099 C 109.16 181.889 111.537 181.678 113.989 181.468 C 113.917 182.151 113.812 182.848 113.699 183.545 Z  M 122.902 182.395 C 122.583 182.434 122.278 182.506 121.96 182.546 C 120.671 182.697 119.424 182.848 118.209 182.999 C 118.294 182.355 118.363 181.718 118.419 181.087 C 120.068 180.949 121.778 180.804 123.536 180.653 C 123.336 181.238 123.13 181.816 122.902 182.395 Z  M 117.372 187.521 C 118.445 187.389 119.552 187.258 120.681 187.12 C 120.476 187.494 120.25 187.856 120.032 188.23 C 119.033 188.487 118.009 188.684 116.987 188.888 C 117.118 188.434 117.259 187.981 117.372 187.521 L 117.372 187.521 Z  M 96.144 196.938 C 97.931 196.623 99.743 196.308 101.6 195.992 C 101.453 196.531 101.284 197.07 101.109 197.609 C 99.361 198.003 97.682 198.384 96.059 198.759 C 96.1 198.148 96.139 197.543 96.144 196.938 L 96.144 196.938 Z  M 27.695 254.319 C 26.635 231.389 46.004 206.527 68.333 202.163 C 77.681 200.336 84.792 198.982 91.734 197.727 C 91.705 198.417 91.659 199.107 91.575 199.804 C 83.477 201.71 76.14 203.576 66.021 206.258 C 44.782 211.877 27.89 234.537 27.949 256.652 C 27.844 255.87 27.754 255.094 27.695 254.319 L 27.695 254.319 Z  M 102.544 191.378 C 100.233 191.766 98.018 192.154 95.833 192.542 C 95.72 191.779 95.569 191.03 95.394 190.281 C 97.841 189.959 100.267 189.65 102.737 189.335 C 102.696 190.012 102.631 190.688 102.544 191.378 L 102.544 191.378 Z  M 112.651 188.092 C 112.482 188.658 112.302 189.216 112.107 189.775 C 110.346 190.064 108.674 190.347 107.05 190.616 C 107.108 189.998 107.162 189.381 107.188 188.769 C 108.952 188.553 110.767 188.329 112.651 188.092 L 112.651 188.092 Z  M 91.038 190.859 C 91.243 191.668 91.392 192.483 91.51 193.311 C 84.374 194.592 77.114 195.979 67.491 197.858 C 43.863 202.479 23.29 228.188 23.277 252.59 C 23.172 251.664 23.087 250.737 23.033 249.81 C 22.191 224.501 44.798 197.293 69.548 193.817 C 78.015 192.627 84.759 191.701 91.038 190.859 Z  M 108.272 196.018 C 107.504 196.189 106.77 196.347 106.033 196.511 C 106.066 196.38 106.11 196.242 106.144 196.11 C 106.218 195.801 106.266 195.493 106.333 195.184 C 107.537 194.98 108.782 194.776 110.053 194.566 C 109.861 194.947 109.671 195.328 109.462 195.703 C 109.062 195.801 108.674 195.926 108.272 196.018 L 108.272 196.018 Z  M 129.138 180.193 C 129.803 180.14 130.463 180.061 131.122 179.989 C 130.956 180.265 130.789 180.548 130.616 180.83 C 129.721 181.074 128.82 181.31 127.903 181.514 C 128.039 181.093 128.195 180.679 128.319 180.259 C 128.596 180.239 128.855 180.213 129.138 180.193 L 129.138 180.193 Z  M 104.28 201.815 C 104.341 201.664 104.4 201.513 104.459 201.355 C 104.98 201.243 105.494 201.125 106.028 201.007 C 105.977 201.079 105.923 201.145 105.869 201.217 C 105.342 201.421 104.813 201.624 104.28 201.815 Z  M 13.711 240.767 C 13.29 210.378 42.182 178.846 72.035 177.104 C 75.599 176.9 78.87 176.703 81.973 176.526 C 83.046 177.525 84.068 178.589 85.023 179.7 C 80.623 180.121 75.837 180.574 70.367 181.1 C 40.847 183.919 13.578 214.873 13.989 244.987 C 13.853 243.587 13.747 242.187 13.711 240.767 L 13.711 240.767 Z  M 142.489 166.76 C 143.298 166.747 144.1 166.694 144.9 166.648 C 144.684 167.134 144.428 167.594 144.197 168.074 C 142.947 168.311 141.681 168.501 140.405 168.659 C 140.554 168.041 140.716 167.424 140.839 166.799 C 141.396 166.786 141.92 166.773 142.489 166.76 L 142.489 166.76 Z  M 95.06 168.12 C 95.992 169.106 96.838 170.138 97.604 171.202 C 95.938 171.301 94.236 171.4 92.47 171.505 C 89.68 171.669 86.725 171.846 83.59 172.03 C 82.168 170.795 80.692 169.645 79.193 168.587 C 85.062 168.422 90.267 168.265 95.06 168.12 Z  M 115.059 201.644 C 118.766 199.508 122.178 196.984 125.243 194.139 C 129.076 191.97 132.614 189.394 135.8 186.469 C 139.25 184.491 142.472 182.191 145.426 179.601 C 149.567 177.328 153.403 174.607 156.863 171.498 C 160.565 169.336 164.018 166.812 167.188 163.993 C 170.47 162.034 173.578 159.82 176.469 157.362 C 180.607 154.996 184.473 152.222 188.022 149.101 C 209.429 135.983 223.747 112.37 223.747 85.477 C 223.747 48.384 196.221 17.22 153.626 6.067 C 80.168 -13.149 14.112 19.395 13.45 19.724 L 15.421 23.647 C 16.066 23.319 80.636 -8.496 152.517 10.319 C 183.349 18.383 219.356 42.91 219.356 85.477 C 219.356 102.466 213.288 118.061 203.204 130.219 C 208.71 120.23 211.883 108.762 211.991 96.505 C 212.297 61.778 187.054 32.382 147.681 21.61 C 79.878 2.919 17.976 32 17.357 32.296 L 19.257 36.252 C 19.855 35.97 80.279 7.579 146.52 25.842 C 183.917 36.069 207.894 63.789 207.604 96.472 C 207.458 113.066 201.325 128.129 191.238 139.67 C 196.76 130.147 200.016 119.191 200.238 107.539 C 200.85 75.257 177.886 47.629 141.735 37.153 C 79.56 19.139 21.852 44.606 21.277 44.862 L 23.077 48.864 C 23.641 48.614 79.938 23.805 140.513 41.366 C 174.703 51.276 196.424 77.223 195.849 107.46 C 195.566 122.366 189.978 136.062 180.882 146.754 C 185.462 138.309 188.17 128.741 188.484 118.58 C 189.413 88.244 169.227 63.001 135.797 52.696 C 79.272 35.273 25.734 57.204 25.202 57.428 L 26.896 61.476 C 27.415 61.259 79.478 39.933 134.503 56.889 C 172.105 68.475 184.776 96.288 184.096 118.442 C 183.714 130.824 179.508 142.259 172.58 151.631 C 172.138 151.782 171.692 151.933 171.247 152.078 C 174.443 145.19 176.369 137.613 176.726 129.621 C 177.971 101.736 160.016 78.221 129.867 68.245 C 78.99 51.408 29.631 69.803 29.138 69.993 L 30.701 74.094 C 31.181 73.91 79.134 56.08 128.488 72.412 C 156.692 81.737 173.496 103.589 172.341 129.424 C 171.95 138.204 169.51 146.446 165.482 153.721 C 164.426 153.977 163.366 154.201 162.296 154.404 C 163.751 150.008 164.681 145.407 164.968 140.669 C 166.521 115.242 150.802 93.449 123.944 83.795 C 78.715 67.542 34.934 81.935 33.091 82.552 L 34.493 86.712 C 34.932 86.561 78.718 72.208 122.463 87.928 C 147.409 96.893 162.018 116.996 160.588 140.406 C 160.278 145.539 159.13 150.481 157.351 155.167 C 155.823 155.344 154.288 155.489 152.733 155.568 C 152.936 154.293 153.108 153.018 153.213 151.73 C 155.072 128.76 141.594 108.689 118.037 99.357 C 78.461 83.676 38.739 94.632 37.065 95.112 L 38.267 99.331 C 38.659 99.219 78.215 88.29 116.422 103.432 C 138.112 112.034 150.536 130.403 148.839 151.375 C 148.72 152.814 148.525 154.24 148.273 155.653 C 145.981 155.653 143.791 155.66 141.673 155.666 C 140.954 137.948 130.308 123.029 112.15 114.926 C 78.233 99.791 42.572 107.335 41.07 107.671 L 42.007 111.956 C 42.361 111.877 77.802 104.404 110.364 118.929 C 126.84 126.283 136.544 139.729 137.283 155.679 C 134.164 155.686 131.184 155.706 128.293 155.719 C 125.035 145.19 117.459 136.292 106.292 130.515 C 78.045 115.899 46.438 120.039 45.111 120.223 L 45.709 124.567 C 46.022 124.528 77.252 120.434 104.274 134.412 C 113.868 139.374 120.538 146.866 123.677 155.752 C 120.887 155.771 118.13 155.791 115.347 155.811 C 114.007 155.824 112.662 155.837 111.303 155.844 C 108.472 152.15 104.847 148.877 100.475 146.137 C 77.917 131.987 50.363 132.736 49.205 132.795 L 49.357 137.179 C 49.616 137.179 76.715 136.417 98.144 149.85 C 100.968 151.624 103.422 153.655 105.524 155.883 C 99.671 155.922 93.394 155.962 86.13 155.982 C 70.86 147.3 54.211 145.48 53.377 145.394 L 52.928 149.758 C 53.087 149.778 64.118 150.98 76.138 155.995 C 75.614 155.995 75.101 155.995 74.567 155.995 C 69.104 155.995 63.659 156.803 58.337 158.275 C 57.978 158.157 57.729 158.085 57.636 158.058 L 57.51 158.492 C 26.519 167.476 0 199.337 0 231.718 C 0 271.551 34.023 305.324 74.295 305.462 L 74.305 303.274 L 75.134 301.243 C 74.965 301.171 58.075 294.112 54.917 278.484 C 52.302 265.531 59.595 250.33 76.598 233.301 C 78.474 231.422 80.207 229.555 81.814 227.709 C 82.225 227.419 82.623 227.13 83.046 226.828 C 86.869 224.147 90.298 221.229 93.289 218.14 C 97.32 215.708 100.971 212.889 104.159 209.76 C 108.189 207.454 111.843 204.726 115.059 201.644" fill="url(#_lgradient_0)"/></g></g></g></svg>