<?xml version="1.0" encoding="utf-8"?>
<!-- Generator: Adobe Illustrator 16.0.0, SVG Export Plug-In . SVG Version: 6.00 Build 0)  -->
<!DOCTYPE svg PUBLIC "-//W3C//DTD SVG 1.1//EN" "http://www.w3.org/Graphics/SVG/1.1/DTD/svg11.dtd">
<svg version="1.1" id="Layer_1" xmlns="http://www.w3.org/2000/svg" xmlns:xlink="http://www.w3.org/1999/xlink" x="0px" y="0px"
	 width="272px" height="120px" viewBox="0 0 272 120" style="enable-background:new 0 0 272 120;" xml:space="preserve">
<style type="text/css">
<![CDATA[
	.st0{opacity:9.999999e-002;fill-rule:evenodd;clip-rule:evenodd;}
	.st1{opacity:0;fill-rule:evenodd;clip-rule:evenodd;fill:#FFFFFF;}
]]>
</style>
<g>
	<path class="st1" d="M217.7,120c-72.6,0-145.1,0-217.7,0C0,80,0,40,0,0c90.7,0,181.3,0,272,0c0,1.5,0,2.9,0,4.4
		c-2.6,5.8-5.4,11.6-7.6,17.5c-5.8,15.7-11.2,31.5-17,47.2c-4.5,12.2-9.8,24.2-17.3,34.9C226.2,109.5,221.8,114.7,217.7,120z"/>
	<path class="st0" d="M217.7,120c4.1-5.3,8.5-10.5,12.4-16c7.6-10.8,12.8-22.7,17.3-34.9c5.8-15.7,11.2-31.5,17-47.2
		c2.2-6,5.1-11.7,7.6-17.5c0,38.5,0,77.1,0,115.6C253.9,120,235.8,120,217.7,120z"/>
</g>
</svg>
