<?xml version="1.0" encoding="utf-8"?>
<!-- Generator: Adobe Illustrator 16.0.0, SVG Export Plug-In . SVG Version: 6.00 Build 0)  -->
<!DOCTYPE svg PUBLIC "-//W3C//DTD SVG 1.1//EN" "http://www.w3.org/Graphics/SVG/1.1/DTD/svg11.dtd">
<svg version="1.1" id="Layer_1" xmlns="http://www.w3.org/2000/svg" xmlns:xlink="http://www.w3.org/1999/xlink" x="0px" y="0px"
	 width="272px" height="120px" viewBox="0 0 272 120" style="enable-background:new 0 0 272 120;" xml:space="preserve">
<style type="text/css">
<![CDATA[
	.st0{opacity:9.999999e-002;fill-rule:evenodd;clip-rule:evenodd;}
	.st1{opacity:0;fill-rule:evenodd;clip-rule:evenodd;fill:#FFFFFF;}
]]>
</style>
<g>
	<path class="st1" d="M181.3,120c-60.4,0-120.9,0-181.3,0C0,80,0,40,0,0c90.7,0,181.3,0,272,0c0,6.5,0,13,0,19.5
		c-1.3,2.4-2.8,4.8-4,7.3c-6.8,14.9-13.5,29.7-20.2,44.6c-7.2,16.1-16,31.1-29.1,43.4c-1,0.9-2.3,1.6-3.6,1.9
		c-9.1,2.2-18.4,2.6-27.7,2.9C185.4,119.7,183.4,119.9,181.3,120z"/>
	<path class="st0" d="M181.3,120c2-0.1,4.1-0.3,6.1-0.4c9.3-0.3,18.6-0.6,27.7-2.9c1.3-0.3,2.6-1,3.6-1.9
		c13.1-12.3,21.9-27.3,29.1-43.4c6.7-14.9,13.4-29.8,20.2-44.6c1.2-2.5,2.7-4.9,4-7.3c0,33.5,0,67,0,100.5
		C241.8,120,211.6,120,181.3,120z"/>
</g>
</svg>
