<?xml version="1.0" encoding="utf-8"?>
<!DOCTYPE svg PUBLIC "-//W3C//DTD SVG 1.1//EN" "http://www.w3.org/Graphics/SVG/1.1/DTD/svg11.dtd">
<svg version="1.1" id="Layer_1" xmlns="http://www.w3.org/2000/svg" x="0" y="0"
	 width="272" height="120" viewBox="0 0 272 120">
	<path opacity="0" d="M0,108.9C0,72.6,0,36.3,0,0c90.7,0,181.3,0,272,0c0,0.5,0,1,0,1.6c-0.4,0.5-0.9,1-1.2,1.5
		c-7.6,13.8-15.2,27.6-22.8,41.5c-8,14.7-17.3,28.3-30,39.6c-7.2,6.4-15.6,10-25.2,11.2c-7.3,0.9-14.6,1.5-21.9,2.3
		c-10.1,1.1-20.2,2.9-30.4,3.5c-20.5,1.1-41.1,1.4-61.6,2.3c-17.3,0.8-34.5,1.9-51.7,3C18.1,107,9.1,108,0,108.9z"/>
	<path opacity="0.1" d="M0,108.9c9.1-0.8,18.1-1.8,27.2-2.5c17.2-1.2,34.5-2.3,51.7-3c20.5-0.9,41.1-1.2,61.6-2.3
		c10.2-0.5,20.2-2.3,30.4-3.5c7.3-0.8,14.6-1.4,21.9-2.3c9.6-1.2,18-4.7,25.2-11.2c12.7-11.3,22-25,30-39.6
		c7.5-13.9,15.2-27.7,22.8-41.5c0.3-0.6,0.8-1,1.2-1.5c0,39.5,0,79,0,118.4c-90.7,0-181.3,0-272,0C0,116.3,0,112.6,0,108.9z"/>
</svg>
