<?xml version="1.0" encoding="utf-8"?>
<!-- Generator: Adobe Illustrator 16.0.0, SVG Export Plug-In . SVG Version: 6.00 Build 0)  -->
<!DOCTYPE svg PUBLIC "-//W3C//DTD SVG 1.1//EN" "http://www.w3.org/Graphics/SVG/1.1/DTD/svg11.dtd">
<svg version="1.1" id="Layer_1" xmlns="http://www.w3.org/2000/svg" xmlns:xlink="http://www.w3.org/1999/xlink" x="0px" y="0px"
	 width="272px" height="120px" viewBox="0 0 272 120" style="enable-background:new 0 0 272 120;" xml:space="preserve">
<style type="text/css">
<![CDATA[
	.st0{opacity:9.999999e-002;fill-rule:evenodd;clip-rule:evenodd;}
	.st1{opacity:0;fill-rule:evenodd;clip-rule:evenodd;fill:#FFFFFF;}
]]>
</style>
<g>
	<path class="st1" d="M0,112.5C0,75,0,37.5,0,0c90.7,0,181.3,0,272,0c0,2.9,0,5.8,0,8.7c-2.2,0.3-4.3,0.5-6.5,0.8
		c-10.1,1.1-20.2,1.9-30.2,3.5c-14.7,2.4-29.2,5.5-43.9,8c-15.9,2.8-29,10.3-39.8,21.7c-7,7.4-12.3,15.9-17.7,24.4
		c-5.7,9-11.6,17.7-19.6,25c-9.4,8.5-20,14.6-32.8,16.6c-8.7,1.3-17.5,2.1-26.3,3.2c-12.2,1.5-24.4,2-36.7,1.1
		C12.4,112.6,6.2,112.6,0,112.5z"/>
	<path class="st0" d="M0,112.5c6.2,0.2,12.4,0.1,18.5,0.6c12.3,0.9,24.5,0.4,36.7-1.1c8.8-1.1,17.6-1.9,26.3-3.2
		c12.8-1.9,23.4-8,32.8-16.6c8-7.3,13.9-16,19.6-25c5.4-8.5,10.7-17.1,17.7-24.4c10.9-11.4,23.9-18.9,39.8-21.7
		c14.6-2.5,29.2-5.6,43.9-8c10-1.6,20.1-2.3,30.2-3.5c2.2-0.2,4.3-0.5,6.5-0.8c0,37.1,0,74.2,0,111.3c-90.7,0-181.3,0-272,0
		C0,117.5,0,115,0,112.5z"/>
</g>
</svg>
