<?xml version="1.0" encoding="utf-8"?>
<!DOCTYPE svg PUBLIC "-//W3C//DTD SVG 1.1//EN" "http://www.w3.org/Graphics/SVG/1.1/DTD/svg11.dtd">
<svg version="1.1" id="Layer_1" xmlns="http://www.w3.org/2000/svg" xmlns:xlink="http://www.w3.org/1999/xlink" x="0px" y="0px"
	 width="445.7px" height="218.3px" viewBox="0 0 445.7 218.3" enable-background="new 0 0 445.7 218.3" xml:space="preserve">
<g fill="hsl(14, 25%, 29%)" opacity="0.5">
	<path d="M163.6,101.2c3.4,0.8,6.8,1.5,10.2,2.3c2.2,0.5,4.5,1.2,6.6,2.1
		c2,0.9,4.1,1.5,6.3,1.2c1-0.1,2,0,3,0c2.1-0.1,4,0.5,5.7,1.8c0.7,0.5,1.4,1,2.2,1.5c1.7,0.9,2.6,2.3,2.4,4.3c0,0.6,0,1.1,0,1.9
		c2.8,2,5.7,3.9,8.5,6c2.2,1.7,4.5,3.3,6.3,5.3c5.1,5.6,9.8,11.5,13.6,18c1.3,2.3,2.1,4.8,3.2,7.1c3.4,7.5,4.8,15.4,5.9,23.5
		c0.2,1.9,0.5,3.7,0.8,5.6c0.3,1.6,0.2,3.2-1,4.4c-3.2,0-6.4-0.1-9.5-0.1c-2.3,0-4.5,0.5-6.8,1.4c-5.1,2-10.4,3.6-15.6,5.5
		c-2.2,0.8-4.3,1.7-6.3,2.9c-3.9,2.4-7.7,5.1-11.6,7.7c-0.4,0.2-0.8,0.4-1.2,0.6c-2.4-0.2-3.5-2.4-5.5-3.3c-1.8-0.8-3.6-1.8-5.5-2.7
		c0.1-2.6,0.2-5.2,0.4-7.8c0.2-3.8-0.2-7.4-1.7-11c-1.7-4.3-3.3-8.7-5.6-12.7c-0.8-1.4-1.6-2.8-2.7-3.9c-4.4-4.6-8.9-9.2-14.1-12.9
		c-0.2-0.1-0.5-0.1-1.1-0.1c0,0.7-0.1,1.3-0.1,2c0,3.2-0.2,6.4-0.8,9.5c-0.5,2.4-1.6,4.4-3.7,5.6c-2.4,1.3-4.9,2.7-7.5,3.5
		c-5.5,1.7-11.1,3.1-17,3.4c-2,0.1-4,0.8-6,1.1c-3.6,0.7-7.1,1.3-10.7,2c-2,0.3-4,0.6-6.2,0.9c-1,1.9-1.9,3.9-2.3,6.1
		c-0.2,1.3-0.5,2.6-0.9,3.8c-2.1,6.8-2.6,13.9-3.6,21c-0.1,0.4,0,0.8,0,1.4c1.7,1.4,3.8,2.1,6,2.4c3,0.5,6,0.7,9.1,1
		c0.7,0.1,1.5,0,2.2,0.1c5.1,0.9,10.1,0,15.2-0.3c5.5-0.3,11-0.6,16.5-0.5c7.1,0.1,14.2,0.3,21.3,1c5.5,0.5,11,0.1,16.5,0.4
		c14.9,0.8,29.9-0.1,44.8,0.3c10.9,0.2,21.8-0.2,32.6-0.2c8.7-0.1,17.4-0.1,26.1-0.1c3.2,0,6.4,0.1,9.5,0.1c8,0,16,0.1,23.9,0
		c7.2-0.1,14.5-0.4,21.7-0.6c2.6-0.1,5.2,0,7.8-0.1c1.7-0.1,3.4-0.4,5.2-0.6c0.6-0.1,1.1-0.3,1.7-0.3c4.8-0.2,9.6-0.4,14.3-0.4
		c7.3,0,14.5,0.3,21.8,0.4c8.1,0.1,16.3,0.1,24.4,0.2c4.2,0.1,8.4,0.5,12.6,0.6c5.7,0.1,11.3-0.1,17-0.1c1,0,2,0.1,3,0.3
		c0.3,0.1,0.7,0.6,0.7,0.9c0,0.3-0.3,0.9-0.6,1c-1.1,0.2-2.3,0.4-3.4,0.4c-6.1,0.1-12.2,0.2-18.2,0.2c-1.4,0-2.9-0.2-4.3-0.3
		c-1-0.1-2-0.2-3-0.1c-9,0.6-18,0.7-27,0.4c-3.8-0.1-7.5,0-11.3,0c-5.5,0-11,0-16.5-0.1c-0.9,0-1.7-0.2-2.6-0.3
		c-4.1-0.6-8.1-0.4-12.2,0c-9.8,0.9-19.7,1.5-29.5,1c-5.5-0.2-11-0.1-16.5-0.2c-5.8-0.2-11.6-0.3-17.4,0.2
		c-8.3,0.8-16.5,0.3-24.8,0.5c-4.9,0.1-9.8,0.2-14.8,0.2c-8.8,0-17.7-0.2-26.5-0.2c-4.9,0-9.9,0-14.8,0c-6.1,0-12.2,0.3-18.3-0.1
		c-6.1-0.4-12.1-0.4-18.2-0.4c-3.2,0-6.4-0.4-9.6-0.6c-4.9-0.3-9.8-0.5-14.8-0.8c-0.4,0-0.9,0-1.3-0.1c-2.6-0.4-4.9,1.1-7.7,0.4
		c-2.6-0.7-5.5-0.2-8.2-0.1c-2.6,0.1-5.2,0.3-7.8,0.3c-5.1,0.1-10.1,0-15.2,0.1c-5.5,0.1-11-0.1-16.5,1.1c-4.6,0.9-9.1,0.7-13.7,0.8
		c-5.9,0.1-11.9,0.4-17.8,0.7c-2.6,0.1-5.2,0.2-7.8,0.3c-0.2,0-0.4-0.3-0.6-0.4c1.4-1.1,1.4-1.1,6.9-1.4c2.6-0.2,5.2-0.5,7.8-0.7
		c2.4-0.3,4.9-0.6,7.5-0.9c0.8-2.4,0.4-4.9,0.2-7.2c-0.6-6.1-1.4-12.1-2.1-18.2c-0.2-1.9-0.6-3.7-0.9-5.3c-1.7-1.2-3.3-1.2-4.9-1.1
		c-7.8,0.6-15.6-0.7-23.5-0.5c-0.6,0-1.2,0-1.7-0.2c-5.4-1.7-11.2-1.8-16.6-3.3c-3.1-0.9-6-2.2-8.6-4.1c-1.8-1.4-3.8-2.6-5.5-4.3
		c-1.9-1.8-2.9-4-3.1-6.5c-0.9-9.2,0.3-18.2,3.6-26.9c4.7-12.2,9.4-24.4,13.7-36.7c3.8-10.8,8.9-21.1,13.7-31.5
		c0.7-1.6,1.9-2.9,2.7-4.4c0.9-1.6,2-3.2,2.6-5c1.8-4.7,1.7-4.7-0.6-9.4c-1.5-3.1-2.9-6.3-4.4-9.5c-0.2-0.5-0.5-1.1-0.5-1.6
		c-0.4-3.8-0.6-7.6,0.4-11.2c1.1-3.8,2.6-7.4,5-10.5c1.5-1.9,3-4,4.5-5.9c1.9-2.4,4.3-4.3,7-5.7C53.9,3,59.8,0.6,66.3,0.1
		c2.4-0.2,4.9,0.1,7.4,0.4c3.4,0.4,6.9,1.1,10.3,1.7c2.9,0.5,5.5,1.5,8.2,2.7c4,1.8,7.7,4,11.3,6.4c2.4,1.6,4.9,3,7.4,4.5
		c4,2.3,7.6,5.4,9.1,10.1c0.8,2.3,1.9,4.5,2.7,6.9c2.1,6.5,0.8,12.6-2,18.6c-1.2,2.6-2.3,5.3-3.5,8c-0.5,1.1-0.5,2.2-0.1,3.4
		c1.4,3.7,2.7,7.3,4.1,11c0.8,2,1.6,4,2.3,6.1c0.8,2.2,1.9,4.2,3.5,5.9c0.8,0.8,1.5,1.8,2.3,2.6c1.1,1.1,2.2,2.4,3.5,3.1
		c5.2,2.9,10.3,6,15.7,8.5c3.5,1.6,7.3,2.7,11.4,1.8c1.2-0.3,2.4-1.1,3.8-0.4c-0.5,0.4-1.1,1-1.7,1.2c-2.9,1-5.8,1.6-8.8,2.2
		c-8.4,1.7-16.3,5.1-24,8.8c-4.2,2-8.1,4.4-12.3,6.6c-6.2,3.2-12.2,6.8-18,10.5c-2.3,1.5-4.4,3.2-6.2,5.7c0.8,0.4,1.5,0.8,2.1,0.9
		c6,1,11.9,2.4,18,2.6c4.6,0.1,8.9-0.3,12.5-3.6c1.6-1.4,3.7-2.1,6-1.2c0,1.4,0,2.6,0,3.9c3.2,1.5,6.6,1.7,9.8,2.6
		c3.4,1,6.6,2.1,9.7,3.6c2.5,1.2,4.7,2.9,7.1,4.2c4,2.2,7.2,5.3,10.8,8.1c1.6,1.2,2.9,2.8,4.2,4.4c1.7,2,3.2,4.1,4.8,6.2
		c2.7,3.3,4.6,7,5.8,11.1c1.7,6,3.4,12,5.1,18c0.2,0.8,0.7,1.4,1.1,2.3c2.8-1.7,5.4-3.3,8-4.9c5.8-3.7,12-6.4,18.7-8.1
		c5.6-1.5,11.3-2.7,17-3.5c0.8-0.1,1.6-0.4,2.5-0.7c-0.1-1.1,0-1.9-0.1-2.8c-0.8-4.9-1.6-9.7-2.7-14.5c-1.1-5.2-2.9-10-5-14.8
		c-3.4-8-9.3-14.3-14.7-20.9c-0.4-0.6-1.1-0.9-1.7-1.4c-2.6-2.1-5.2-4.2-7.8-6.2c-3-2.2-6-4.5-9.2-6.5c-1.7-1.1-3.7-1.7-5.6-2.4
		c-0.8-0.3-1.7-0.1-2.5,0.1c-1.4,0.2-2.8,0.6-4.3,0.8c-0.7,0.1-1.6,0-1.8-0.8c-0.1-0.4,0.2-1.2,0.5-1.5c0.7-0.7,1.6-1.2,2.6-2
		c-3.8-2-7.2-3.1-10.7-4.1C169.9,104,166.4,103.3,163.6,101.2z M44.1,58.2c-1.7,0.2-2.7,1-3.5,2.1c-2.3,3.1-4.8,6.2-6.8,9.5
		c-5.6,9-9.5,18.9-13.4,28.8c-3.7,9.4-7,19-10.5,28.6c-1.4,3.9-2.9,7.9-4.3,11.9c-2.5,7.1-2.9,14.5-3.5,21.8
		c-0.4,4.4,1.4,7.9,5,10.5c2.1,1.5,15,6.9,17.6,7.2c8.4,0.9,16.7,1.9,25.1,2.4c4.5,0.3,9,0,13.4-0.7c3.1-0.4,6.2-1.3,9.4-1.5
		c1.9-0.1,3.7-0.6,5.6-0.9c1.7-0.2,3.4-0.4,5.2-0.6c1.9-0.2,3.8-0.2,5.6-0.4c3-0.4,6-0.9,9-1.4c6-1,12-1.8,18-3
		c5.7-1.1,11.4-2.1,17.1-3.1c3.3-0.6,6.5-1.7,9.5-3c2.8-1.2,5-3.5,5.6-6.7c0.5-2.6,0.7-5.2,0.8-7.8c0.1-1.4,0-2.9-0.9-4.1
		c-3.2-2.2-6.8-2.4-10.3-3.1c-0.4-0.1-1.1,0.2-1.5,0.6c-0.8,0.7-1.6,0.6-2.4,0.1c-0.9-0.5-1.7-1.2-2.5-1.8c-1.2,0.3-2.5,0.9-3.7-0.2
		c-1.5-1.2-3.2-1.1-5-1c-4.1,0.3-7.8,2-11.6,3.4c-1,0.4-2,1-2.5,1.3c-0.9,4.5-1.6,8.5-2.4,12.5c-0.1,0.5-0.9,0.9-1.6,1.4
		c-0.9-1.9-1.4-3.6-1.8-5.2c-0.4-1.6-0.7-3.3-1.1-5.1c-3.9,2.5-7.5,4.8-11,7.3c-3.7,2.5-7.3,5.1-11.4,8c-1-3.6-2.5-6.7-2.6-10.3
		c0-2.4,0.5-4.5,2-6.5c2.2-2.8,3.9-6.1,6.6-8.6c0.3-0.3,0.3-0.8,0.6-1.3c-1.2-0.4-2.2-0.8-3.3-1.1c-2.1-0.4-4.3-0.8-6.4-0.9
		c-2-0.1-3.5-0.9-4.8-2.5c-1.6-2-3.4-4-5.1-5.9c-3.5-3.8-7.2-7.6-10.7-11.5c-1.6-1.7-2.9-3.6-4.4-5.4c-1.5-1.8-3-3.5-4.5-5.3
		c-0.5-0.6-1-1.4-1.5-2.1c2.6-1.9,5-3.7,8.2-4.2c0.5,0.7,0.9,1.2,1.3,1.8c1.9,2.9,3.7,5.9,5.8,8.7c3.1,4,5.8,8.3,8.3,12.7
		c1,1.8,2.1,3.5,3.4,5.1c0.8,1,1.9,1.8,2.9,2.6c3.4,2.9,7.5,3.5,11.7,4.2c2.3,0.4,4.3,0,5.8-2c0.6-0.8,1.4-1.5,2.2-2.1
		c1.2-0.9,1.5-2.1,1.4-3.4c-0.2-4-1.3-7.7-2.5-11.5c-0.2-0.8-0.9-1.5-1.4-2.1c-2.3-2.8-4.6-5.6-7.6-7.7c-2.2-1.5-2.9-3.5-2.5-6
		c0.3-1.4,0.7-2.8,1.3-4.1c1.5-2.8,3.1-5.5,4.7-8.4c1.1-2,2.3-4,2.9-6.3c-0.5-0.9-1.2-1.7-1.6-2.6c-0.4-0.9-0.7-1.9-1.6-2.5
		c-1.3-0.8-1.9-2.1-2.5-3.5c-0.9-2.1-2-4.1-3.5-6.1c-6.7,0.5-13.4,0.8-19.9-1.2C55.8,64.1,49.3,62.3,44.1,58.2z M54.4,14.3
		c-0.6,2.3-1.3,4.7-2.1,7.4c-0.8-0.2-1.6-0.3-2.2-0.6c-4.1-1.7-7.6-1.3-10.6,2.2c-0.4,0.4-0.9,0.8-1.2,1.2c-1.3,1.5-1.9,3.2-1.6,5.2
		c0.3,2.1,0.4,4.3,0.6,6.2c-0.3,0.4-0.4,0.6-0.5,0.7c-3.9,2.1-3.6,2.3-2.2,6c0.2,0.5,0.5,1.1,0.7,1.6c1.6,4.3,4.2,7.9,8,10.6
		c3.8,2.7,7.4,5.6,12,6.8c7.1,3.8,14.8,3.5,22.5,3.8c3.5,0.1,6.9-0.2,10.4-0.4c1.7-0.1,3.5,0,5.2-0.4c6.8-1.3,13-4.1,18.8-7.7
		c1.8-1.1,3.2-2.9,4.4-4.7c1.4-2,2.3-4.3,3.4-6.6c2-4.1,2.2-8.4,0.8-12.7c-0.8-2.5-1.8-4.9-3-7.2c-1.6-3.2-3.4-6.4-6.7-8.4
		c-0.5,0.6-0.9,1.1-1.2,1.4c-2.4-1-4.6-2-6.9-2.9c-1.7-0.7-2.7-0.3-3.7,1.2c-1.2,1.8-2.1,3.7-3.2,5.5c-1.6-3.8-4.3-6.5-8.1-8.1
		c-3.2-1.3-5-0.8-7.2,1.9c-1.5,1.9-1.6,4.2-2,7.2c-1-1.6-1.9-2.6-2.4-3.7c-1-2.4-2.8-4-5-5.3c-2.2-1.3-4.5-2-6.9-2.5
		C60.8,11.3,57.5,11.5,54.4,14.3z M108.6,108.6c-1.6,7.8-2.2,9.6-0.4,14.3c7.7-4,15.4-8.1,22.8-12c0.1-0.5,0.2-0.6,0.1-0.8
		c-1.7-7.3-2.9-14.8-6.4-21.6c-0.4-0.8-0.7-1.6-1-2.4c-2.2-6-4.4-12-6.8-17.9c-1.2-3.1-2.9-5.9-5-8.7c-2.2,1.1-4.5,1.5-5.9,3.2
		c0.6,2.8,0.9,5.4,1.6,7.9c0.6,2.4,0.4,4.3-2.1,5.4c-0.2,0.1-0.4,0.4-0.6,0.6c-0.8,1-0.8,2.1,0,3.2c0.7,0.9,1.5,1.7,2.4,2.5
		c0.9,0.9,1.9,1.7,2.9,2.7c3.1,3,3.4,6.6,2.1,10.4c-0.4,1.2-1.1,2.4-1.5,3.6c-0.4,1.1-0.6,2.2-0.9,3.1c1.2,1.6,2.9,2.4,3.4,4.3
		c-0.6,0.9-1.1,1.9-1.6,2.8C110.5,109,109.6,108.8,108.6,108.6z M96.9,78.1c-1.5,2.6-2.8,4.9-4.2,7.1c-2.6,4.3-5.3,8.6-7.9,13
		c-1.1,1.9-0.9,2.5,0.8,4.1c1.8,1.7,3.7,3.2,5.5,5c2.5,2.5,4.4,5.4,5.1,8.9c0.6,3,1.2,5.9,1.8,8.9c0.2,1.1,0.3,2.3,1.4,3.2
		c2.2-1.3,4.4-2.6,6.5-3.9c-0.8-3.5-1.1-6.8-0.3-10.1c0.6-2.2,0.6-4.6,0.9-7.1c-2-2-4-4-6.2-6.2c0-1.2,0.1-2.6,1.4-3.7
		c1.6,0.2,2.5,1.5,3.6,2.4c0.7,0.6,1.6,0.9,2.6,1.5c0.7-1.5,1.2-2.7,1.8-3.8c3.4-7,1.5-8.4-2.1-12.3c-2.2-2.3-4.4-4.6-6.7-6.9
		c-0.2-0.2-0.5-0.3-0.9-0.5C99.1,77.7,98,77.9,96.9,78.1z M72.5,181.4c-3.3,9.8-3.7,19.1-1.9,28.8c1.8,1.6,4.4,2,6.5,3.1
		c3.7,1.9,7.5,1.2,11.4,0.5c0.5-9.2,1-18.1,1.5-27.1c0.1-2.5-0.5-4.8-1.4-7.4C83.1,179.5,77.6,179.2,72.5,181.4z M184.4,200.3
		c0.1-1.8,0.2-3.5,0.3-5.2c0.1-5-1.5-9.7-2.8-14.4c-1.1-4.1-3.1-7.8-5.6-11.2c-1.6-2.2-3.5-4.3-5.1-6.5c-3-4-7-6.8-11-9.7
		c-0.1,0-0.2,0.1-0.5,0.2c0.2,0.3,0.3,0.7,0.5,1c1.8,1.9,3.7,3.7,5.4,5.6c1.5,1.7,3.1,3.5,4.2,5.5c1.7,3.2,3.1,6.5,4.5,9.9
		c2.5,6.3,4,12.7,2.3,19.5c-0.1,0.5,0,1.1,0.1,1.5C179.3,197.7,181.7,198.9,184.4,200.3z M113.4,143c0-0.2,0-0.5,0-0.7
		c-0.5-0.1-1-0.3-1.5-0.3c-7.6,1.1-14.9,3.1-22,6.2c-0.5,0.2-1.1,0.4-1.6,0.7c-1.3,0.7-1.4,1.1-0.6,3.3c-1.4,0.7-2.8,1.4-4.1,2.1
		c-2.4,1.2-3.6,3.3-3.6,6c0,0.7,0.6,1.4,1,2.2c4-2.7,7.7-5.2,11.3-7.8c4.1-3,8.3-5.7,12.9-7.9C107.9,145.6,110.6,144.3,113.4,143z
		 M86.5,67.2c0.8,2.2,0.9,4.3,1.9,6.2c0.8,1.7,2.3,2.7,4.1,2.8c2.6,0.1,5.2,0.2,7.8-0.2c2.2-0.4,4.5-1.1,6.3-2.9
		c-0.8-3-0.4-6.3-2.6-9.1c-3,0-5.5,1.8-8.4,2.2C92.7,66.5,89.9,66.8,86.5,67.2z M135.3,108.9c2.5-0.5,4.7-1.5,6.9-2.5
		c2.1-1,4.6-0.9,6.6-2.6c-8.1-3.7-13.3-5.2-17.6-5C131.7,102.5,133.1,105.7,135.3,108.9z M99.6,141.9c-3.7-1.6-7.3-1.6-11-2.2
		c-3,3-6.4,5.6-7.1,10.6C87.7,147.5,93.5,144.8,99.6,141.9z M107.6,148.2c-2,0.4-3.4,0.8-4.3,2c0.8,3.9,0.8,3.9,2.2,5.8
		C106.2,153.4,106.8,151,107.6,148.2z"/>
	<path d="M16.9,131.9c-1.2,1-1.1,2.6-1.5,3.9c-1.7,4.8-3.1,9.6-4,14.6
		c-0.2,1.4-0.3,2.9-0.5,4.3c-0.1,0.8-0.4,1.6-0.8,3c-0.5-0.9-0.7-1.2-0.7-1.4c0.2-4.2,4.2-19.4,6.3-24.2
		C16,131.9,16.5,131.9,16.9,131.9L16.9,131.9z"/>
	<path d="M23,132.2c-0.6,4.1-2.2,7-3.2,10.1c-0.9,3-1.6,6-2.4,9.3
		c-0.6-1.8-0.8-2.1-0.5-3.2C18.5,143.1,19.3,137.5,23,132.2z"/>
	<path d="M25.2,149.1c0.3-2.5,1-4.6,2.5-6.3
		C27.9,145.1,27.1,147.2,25.2,149.1z"/>
	<path d="M18.4,123c1-2,2.1-4.1,3.5-6.9c-0.5,3-1.6,5.5-2.8,6.9
		C19,123,18.6,122.9,18.4,123L18.4,123z"/>
	<path d="M16.9,131.9c-1-2.7-0.9-3.4,1.1-5.8c0,0-0.1-0.1-0.1-0.1
		c-0.1,0.8-0.3,1.7-0.5,2.5C17.3,129.6,17.1,130.8,16.9,131.9C16.9,131.9,16.9,131.9,16.9,131.9z"/>
	<path d="M18.3,122.9c0.6,1.1,0.8,2.2-0.3,3.2c0,0,0.1,0.1,0.1,0.1
		c0.1-1,0.3-2.1,0.4-3.1C18.4,123,18.3,122.9,18.3,122.9z"/>
	<path d="M89.8,51c-1.4,0.1-2.4-1-2.4-2.6c0-1.3,0.9-2.5,1.9-2.5
		c1.2,0,2.3,1.3,2.5,2.7C92,49.8,91,50.9,89.8,51z"/>
	<path d="M87.9,99.4c0.3-2,2-5.4,3.7-7.4C91,96.3,90.5,97.2,87.9,99.4z"/>
	<path d="M93.7,95.5c0.4,2.2-1,3.7-2,5.7C91.4,98.7,91.7,98,93.7,95.5
		L93.7,95.5z"/>
	<path d="M93.8,95.6c0.1-0.3,0.1-0.5,0.2-0.8c0.1,0.1,0.3,0.2,0.4,0.4
		C94.1,95.2,93.9,95.3,93.8,95.6C93.7,95.5,93.8,95.6,93.8,95.6z"/>
	<path d="M103,68.1c1,2.7,1,2.7-0.2,4.7C102.1,71,102.4,69.5,103,68.1z"/>
	<path d="M100.2,67.3c1.5,1.9,1.4,2.7,0,4C100.2,69.9,100.2,69,100.2,67.3z
		"/>
	<path d="M107.3,47.5c-1.4,0.1-2.4-1-2.4-2.6c0-1.3,0.9-2.5,1.9-2.5
		c1.2,0,2.3,1.3,2.5,2.7C109.4,46.3,108.5,47.4,107.3,47.5z"/>
</g>
</svg>
