<?xml version="1.0" encoding="utf-8"?>
<!DOCTYPE svg PUBLIC "-//W3C//DTD SVG 1.1//EN" "http://www.w3.org/Graphics/SVG/1.1/DTD/svg11.dtd">
<svg version="1.1" id="Layer_1" xmlns="http://www.w3.org/2000/svg" xmlns:xlink="http://www.w3.org/1999/xlink" x="0px" y="0px"
	 width="499px" height="335.5px" viewBox="0 0 499 335.5" enable-background="new 0 0 499 335.5" xml:space="preserve">
<g fill="hsl(14, 25%, 29%)">
	<path   d="M172.7,57.9c-1.9-0.4-3.5-0.8-5.3-0.9c-2.6-0.2-5.2-0.8-7.7-1.6
		c-0.9-0.3-1.9-0.5-2.9-0.6c-1.7-0.2-3.1-1.3-4.6-2c-2.5-1.3-4.9-2.7-7.3-4c-1.1-0.6-2-1.4-2.9-2.1c-1.2-1-2.4-2.1-3.6-3
		c-0.7-0.5-1.3-1-1.4-1.8c-1.9-0.6-3.3,0.6-4.9,1.1c-0.3,0.1-0.6,0.5-0.9,0.4c-2.1-0.3-3.5,1.2-5,2.3c-0.3,0.2-0.9,0.3-0.9,1
		c0,0.2-0.2,0.5-0.4,0.6c-1.6,0.1-2.4,1.5-3.6,2.2c-2.3,1.2-4.2,3-5.9,4.9c-0.9,1-2.1,1.4-3.1,2.3c-2.6,2.4-5.1,4.9-7.6,7.4
		c-1.6,1.5-3.2,3-4.5,4.8c-0.9,1.2-2.2,2.1-3.3,3.1c-1.3,1.2-2.3,2.7-3.6,4c-0.5,0.5-0.9,1.2-1.6,1.5c-2.2,1.2-3.6,3.4-5.3,5.1
		c-1.1,1.2-2.2,2.5-3.2,3.8c-1.3,1.7-3.2,3-4.3,4.7c-1.5,2.5-4.1,4.1-5.3,6.8c-0.3,0.6-1,1-1.4,1.6c-2.6,3.6-5.5,7-8.1,10.6
		c-1.3,1.9-2.4,4-3.8,5.9c-1.6,2.2-3,4.5-4.6,6.7c-0.5,0.7-0.7,1.6-1.1,2.3c-0.9,1.7-2.2,3-3.2,4.7c-0.7,1.2-1.6,2.2-2.3,3.4
		c-1.1,2.1-2.5,4.2-3.4,6.5c-0.4,1.1-1.1,2-1.7,3c-1,1.6-2.1,3.1-3.1,4.6c-1,1.4-1.3,3.1-1.7,4.8c-0.3,1.2-1.1,2.2-1.6,3.3
		c-1,2.2-1.8,4.6-2.8,6.8c-0.9,1.9-2,3.7-2.9,5.6c-0.8,1.6-2,3-2.8,4.6c-0.9,1.9-2,3.7-2.7,5.7c-1.1,2.7-2.3,5.4-3.9,7.8
		c-0.5,0.8-1.1,1.6-1.4,2.6c-1.1,3-2.6,5.7-4,8.6c-0.9,1.9-2.2,3.6-2.5,5.7c-0.2,1.5-1,2.6-1.4,3.9c-0.8,2.6-2.3,5-3.1,7.7
		c-1.6,1.1-1.5,3-2.3,4.5c-0.7,1.3-1.1,3-1.4,4.5c-0.3,1.5-1.4,2.7-1.6,4.1c-0.3,2-0.7,4-1.6,5.9c-0.2,0.4,0,0.8,0.1,1.2
		c0.4,1.8-0.5,2.7-2.4,2.6c-1.3-1.5-0.4-3.2-0.1-4.7c0.3-1.7,1.1-3.5,1.4-5.1c0.4-2.3,1.7-4.2,2-6.4c0.3-2.1,1.5-4,1.8-6.1
		c0.1-0.6,0.6-1.2,0.8-1.7c1.2-3,2.2-5.9,3.5-8.9c0.4-0.9,0.5-2.3,2-2.4c0.2-1,0-2.1,0.9-2.9c0.7-0.6,0-1.5,0.4-2.4
		c0.5-1.2,1-2.3,1.5-3.5c0.2-0.5,0.5-0.9,0.5-1.5c0-0.5,0.2-1,0.5-1.2c2.2-1.4,2.4-3.8,3.4-5.9c1.1-2.2,1.9-4.5,3-6.7
		c1.2-2.4,2.3-4.9,3.5-7.3c1.4-2.7,2.5-5.5,4-8.2c1.3-2.3,2.2-4.8,2.8-7.3c0.2-0.8,0.6-1.5,1-2.2c2.2-3.4,4.5-6.7,6.5-10.2
		c1.9-3.4,3.8-6.8,5.8-10.1c1.3-2.2,2.5-4.5,4.3-6.3c0.6-0.6,0.6-1.5,1.1-2.2c2.7-4,5.5-7.9,8.3-11.9c1.4-2,2.8-4,4.2-6
		c0.2-0.3,0.3-0.6,0.4-1c0.1-1,0.6-1.8,1.4-2.5c0.7-0.6,1.2-1.3,1.5-2.2c1,0.1,1.4-0.6,2-1.2c2.1-2.4,3.4-5.4,5.8-7.4
		c2-1.6,3.1-3.8,4.8-5.5c1.2-1.2,2.1-2.6,3.2-3.8c3.1-3.7,6.5-7,10.2-10c1.9-1.5,3.4-3.5,5.1-5.3c1.5-1.7,2.8-3.6,4.8-4.9
		c0.9-0.6,1.6-1.7,2.4-2.6c1-1,1.8-2.3,3.3-2.7c0.1,0,0.1,0,0.1-0.1c2.2-3.4,6.3-5.1,8.6-8.4c0.4-0.5,0.9-0.9,1.5-1.2
		c1.4-0.7,2.4-1.8,3.5-2.9c1.1-1.3,2.6-2.1,4.2-2.7c1.8-0.7,3.2-2.1,4.6-3.4c0.5-0.5,0.3-1.1,0-1.6c-0.5-0.9-0.9-1.9-0.4-3
		c0.2-0.4,0-0.9-0.1-1.4c-0.6-2.6-0.4-5.2,0-7.9c0.2-1.3,0.2-2.7,0.7-4c0.6-1.4,1.1-2.8,2.3-3.8c0.3-0.3,0.8-0.6,0.9-1
		c0.7-2.2,2.5-3.4,3.9-5c2-2.4,4.4-4.2,7.1-5.5c3.2-1.5,6.5-3.3,10.1-3.5c0.6,0,0.9-0.6,1.4-0.7c1.3-0.2,2.6-0.6,4-0.2
		c0.8,0.3,1.8,0.2,2.6,0.1c4.8-0.2,9.6,0.6,14.4,0.5c1,0,2.1-0.1,3.1-0.1c3.7-0.1,7.4,0.6,10.1,3.4c1.8,1.8,3.7,3.5,5.7,5.1
		c1.3,1,1.4,2.5,1.9,3.8c0.1,0.3,0.1,0.7,0.4,0.9c1.8,1.4,2,3.7,2.8,5.6c0.3,0.7,0.3,1.6,1.2,2c0.4,0.2,0.4,0.6,0.4,0.9
		c0.3,2.3,1.1,4.6,0.4,7c-0.1,0.4,0.2,0.7,0.2,1.2c0,2-0.1,3.9-0.7,5.8c-0.6,1.8-1.3,3.6-1.9,5.5c-0.4,1.2-1.3,2.4-2.3,3.2
		c-2.7,2.3-5.3,4.8-8.4,6.7c-2.1,1.3-4.4,2.4-6.6,3.6c-1.5,0.8-2.8,1.9-4.5,2.3c-0.4,0.1-0.8,0.6-1,1c-0.8,1.5-2.1,2.4-3,3.8
		c-0.6,0.9-1.2,1.8-1.5,2.9c-0.4,1.6-0.9,3.1-1.9,4.5c-0.3,0.4-0.4,0.8-0.6,1.3c-0.4,1.1-0.7,2.3-1.6,3.3c-1,1.1-1.4,2.6-1.8,4
		c-0.2,0.8-0.6,1.5-1.1,2.2c-2.5,3.4-4.7,6.9-6.3,10.8c-1.1,2.6-2.6,5.2-3.1,8c-0.1,0.7-0.7,1.3-1,2c-0.9,1.8-0.9,3.9-1.8,5.8
		c-0.6,1.3-1.1,2.7-1.6,4c-0.4,0.9-0.4,1.9-1,2.9c2.9-0.4,5.6-0.7,8.3-1c0.8-0.1,1.6-0.3,2.2-0.9c0.3-0.3,0.7-0.5,1.1-0.5
		c3.4-0.2,6.6-1.6,9.6-3c1.6-0.7,3.4-1.2,4.9-2.1c2.1-1.2,4.5-1.5,6.5-2.9c2.4-1.6,3.7-3.8,4.9-6.3c0.8-1.6,1.5-3.5,3.4-4.2
		c0.5-0.2,0.5-0.6,0.8-0.9c0.4-0.3,0.7-1,1.2-0.9c1.1,0.1,1.3-0.7,1.7-1.5c1.4-3.4,1.2-7,0.7-10.5c-0.1-0.3-0.3-0.5-0.5-0.7
		c-1.2-1.2-2.4-2.4-4.1-3c-0.2-0.1-0.4-0.1-0.4-0.2c-1-1.6-2.5-2.7-3.4-4.4c-0.8-1.5-0.5-3.1,0-4.4c0.4-1.1,0.9-2.3,1.3-3.4
		c0.8-2,2.6-2.6,4-3.6c0.6-0.4,1.2-0.6,1.8-1.1c1.9-1.8,4.4-2.7,6.6-3.9c1.5-0.7,2.6-2,4.1-2.5c1.6-0.6,3.1-1.9,5.1-1.3
		c0.1,0.4,0,0.7-0.2,1.1c-1.3,2.6-2.8,5.1-4.6,7.1c-2,2.2-2,4.6-1.9,7.1c0,1,0.9,1.7,1.4,2.5c0.9,1.5,1.5,3.1,2.6,4.4
		c0.3,0.1,0.4,0.2,0.6,0.1c1.9-0.7,3.8-1.1,5.8-1.1c0.8,0,1.6-0.4,2.4-0.4c0.6,0,1.3-0.6,1.3-1.2c-0.2-1.9,1.4-3,1.9-4.6
		c0.7-1.8,1.9-3.4,3.1-4.9c0.7-0.9,1.2-1.9,1.2-2.9c0.2-0.4,0.5-0.4,0.8-0.5c1.4-0.5,1.5-0.4,2.2,0.8c0.8,1.4,1,2.9,1.2,4.3
		c0.6,3.5,1,7,1.8,10.5c0.1,0.5,0.5,0.8,0.7,1.2c1.6,2.6,1.5,4.5-1.2,6.8c-2.6,2.3-5.8,3.6-8.7,5.3c-0.6,0.4-0.9,1-1.5,1.5
		c-1.2,1-2.7,1.3-4.1,1.5c-0.7,0.1-1.1,0.4-1.4,0.8c-0.6,0.8-1.5,1.3-2.2,2c-1.3,1.3-2.6,2.6-3.6,4.1c-0.5,0.7,0.1,1.7-0.7,2.4
		c-0.5-0.1-1.4,0.6-1.7-0.4c-0.3-1-0.5-2,0.1-2.9c1.9-2.9,4.1-5.4,6.6-7.7c0.1-0.1,0.2-0.2,0.3-0.2c2.4-0.3,4-2.5,6.5-2.8
		c0.2,0,0.4,0,0.5-0.1c1.8-2,4.6-2.7,6.2-4.5c0.7-2.2,0.3-4.4,0.9-6.4c0.1-0.4,0-0.8-0.1-1.2c-0.9-3-1.1-6.2-2-9.2
		c-0.1-0.2,0-0.5,0-0.8c-1.5,1.1-1.8,2.9-2.6,4.3c-0.3,0.4-0.7,0.8-0.9,1.4c-0.5,1.2-1.1,2.4-1.2,3.8c-0.1,1.3-1.1,2.1-2.4,2.1
		c-1.9-0.1-3.6,0.2-5.3,0.8c-1.3,0.4-2.6,0.2-3.9,0.9c-0.8,0.5-1.9,0.1-2.5-1c-1.1-1.9-2.3-3.6-3.3-5.6c-0.5-1-1.3-2.2-2.6-2.7
		c-1.3-0.6-1.5-1.5-0.7-2.7c0.8-1.2,1.6-2.3,2.1-3.7c0.1-0.4,0.5-0.6,0.8-0.9c0.8-0.9,1.6-1.8,2.1-3.1c-0.9,0.1-1.5,0.5-2.1,0.9
		c-3,2-6.1,3.9-9.1,5.8c-0.9,0.6-1.5,2-1.1,3.1c0.1,0.4,0.2,0.8,0.1,1.2c-0.2,0.3-0.5,0.3-0.8,0.3c-0.3,0-0.6-0.1-0.8,0.2
		c-0.1,0.4-0.2,1,0,1.4c1.2,2,2.4,4.1,4.3,5.5c1.6,1.2,3.5,2,4.8,3.6c0.2,0.2,0.6,0.3,0.9,0.5c0.3,0.8-0.2,1.8,0.4,2.6
		c0.1,0.2,0,0.4-0.1,0.7c-1.8,2.8-2.2,6.1-3.7,9.1c2.6,0.8,4.7,2.4,7.7,2.7c-0.8,0.8,0,1.2,0.2,1.8c-1.3,0.6-2.7,0.7-4.1,1.1
		c-2.1,0.6-4.3,1.1-6.2,2.4c-0.9,0.7-1.6,1.4-2,2.4c-0.7,1.7-2.1,2.6-3.3,3.7c-0.4,0.4-0.9,0.7-1.1,1.3c-0.3,1.2-1.1,2-2.1,2.4
		c-2.2,1-4.2,2.3-6.5,3c-1.6,0.5-3,1.2-4.3,2.2c-0.8,0.6-1.8,0.9-2.7,1.1c-2.2,0.5-4.1,2.1-6.4,2.2c-2.8,2-6.3,2.9-8.9,5.3
		c-0.1,0.1-0.3,0.2-0.4,0.3c-1.8,0.4-3,1.8-4.6,2.6c-1.7,0.9-2.9,2.2-4.3,3.4c-0.1,0.1-0.2,0.3-0.4,0.4c-0.8,0.6-1.5,1.5-1.7,2.3
		c-1.3,4.7-2,9.5-2.6,14.4c-0.1,1.1-0.3,2.2-0.8,3.2c-0.6,1.3,0.1,2.8-0.2,4.1c-0.2,0.8,0,1.7-0.4,2.6c-0.4,1-0.4,2.2-0.4,3.3
		c0.1,1.7-0.5,3.5-0.3,5.2c0.2,1.9-0.1,3.8-0.1,5.8c0.1,2.2-0.3,4.4-0.6,6.6c-0.2,1.5,0,3.1-0.1,4.6c-0.3,4,0.4,8,0.6,12
		c0.1,1.7,0.8,3.4,0.1,5.2c1.1,1.4,0.3,3,0.6,4.5c0.2,1.7,0.8,3.5,0.7,5.2c0,1.7,0.4,3.3,0.6,4.9c0.3,1.8,0.4,3.7,0.7,5.5
		c0.1,0.6,0.7,1,0.8,1.6c-0.2,0.5-0.9,1.2,0.1,1.6c-0.1,1.5,0.5,2.9,0.7,4.3c0.3,2,0.7,4,1.5,6c0.4,1,0.9,2.1,1,3.3
		c0.2,1.7,0.6,3.3,1.1,4.9c0.4,1.1,0.3,2.2,0.6,3.4c0.6,2.1,1.7,4.1,1.8,6.4c0.1,0.9,0.8,1.5,1.2,2.3c0.5,1.2,1.1,2.4,1.6,3.6
		c0.7,1.7,1.4,3.4,1.9,5.2c1.1,3.8,2.1,7.7,4.7,10.8c0.7,0.8,0.8,1.9,1.2,2.9c0.6,1.4,2,2.4,2,4.2c0,0.4,1,0.9,1.3,1.6
		c1,2.6,2.8,4.6,5.1,6.1c1.1,0.7,1.8,1.7,2.5,2.7c1.9,2.4,4,4.5,6.6,6.2c0.3,0.2,0.8,0.4,1,0.8c1.1,1.9,3,2.7,4.8,3.6
		c1.1,0.5,1.8,1.4,2.8,2.1c2.7,2,5.8,3.4,8.8,4.9c3.3,1.6,6.6,3.2,9.9,4.9c2.9,1.5,6.1,2,9.3,2.8c0.7,0.2,1.3,0.5,1.9,0.8
		c2.7,1.3,5.7,1.9,8.5,2.6c4.2,1,8.4,2.2,12.8,2.5c1.7,1,3.6,0.4,5.3,0.7c0.7,0.1,1.7,0.2,2.6-0.1c0.8-0.3,1.7,0.1,2.6,0.2
		c4.1,0.6,8.1,1.3,12.2,1.5c1.9,0.1,3.8,0.3,5.6,0.5c2.2,0.3,4.4-0.2,6.7-0.4c2.9-0.3,5.9-1.1,8.8-1.1c1.7,0,3.1-0.6,4.7-0.9
		c3.2-0.6,6.4-1.2,9.5-2.5c0.9-0.4,2-0.4,3-0.6c2.6-0.5,5.1-1.2,7.5-2c3.2-1,6.4-2.2,9.3-4c0.2-0.1,0.3-0.2,0.5-0.3
		c3.3-0.7,5.7-3.3,9-3.8c2.3-1.8,5.2-2.4,7.7-4.1c2.4-1.7,5-3.1,7.6-4.5c1.8-1,3.3-2.4,5-3.6c1.1-0.8,2.2-1.8,3.5-2.3
		c1.8-0.8,2.9-2.5,4.4-3.6c1.4-1,2.9-1.8,4.2-2.9c1.6-1.3,3.1-3,5.2-3.7c0.9-0.3,1.5-1.7,2.5-2.4c2.3-1.5,4.3-3.2,6.3-5.1
		c1.1-1.1,2.4-2.2,3.8-3c1.7-1.1,2.7-2.9,4.2-4.2c2.1-1.9,4.2-3.7,6.3-5.6c0.4-0.4,0.8-0.8,1.2-1.3c0.6-0.8,1.3-1.4,2.2-1.9
		c1.8-1,3.3-2.4,4.5-4c1.5-1.8,3.1-3.4,4.6-5.2c1.2-1.4,2.7-2.5,4.1-3.7c1.1-0.9,1.7-2.1,2.7-3c2.7-2.7,5.6-5.4,8.2-8.2
		c2.2-2.4,4.5-4.7,6.8-7c1.6-1.6,3.6-2.7,5.3-4.2c2.5-2.1,5.1-4.1,7.7-6.1c0.2-0.1,0.4-0.3,0.6-0.4c3.3-1.2,6-3.5,9.2-5.1
		c1.4-0.7,3-1.5,4.3-2.5c0.1-0.1,0.2-0.2,0.3-0.2c3.2-1,5.9-3.2,9.1-4.1c1.6-0.5,3-1.3,4.4-2.1c1.5-0.8,3.2-1.6,4.7-2
		c3.8-1,7.4-2.5,11.3-3.1c3.1-0.5,6.1-1.2,9.1-1.7c1.6-0.3,1.7-0.4,3.1,0.5c1.2-1.2,2.9-0.7,4.4-1.5c0.6,1.5,1,3,1.6,4.4
		c0.9,2.1,0.6,4.3,0.2,6.3c-0.3,2-0.5,4-0.9,6c-0.2,1.1-0.8,1.8-1.8,2.2c-0.9,0.4-1.5,0.7-2.7,0.2c-1.6-0.7-3.5-0.6-5.3-0.2
		c-1,0.2-2.1,0-3.1,0.3c-0.8,0.2-1.8-0.3-2.2,0.9c-0.1,0.2-0.7,0.2-1,0.2c-3.5-0.2-7,0.6-10.4,1.2c-1.9,0.3-4,0.6-5.9,1.2
		c-0.7,0.2-1.4,0.5-2,1.1c-0.6,0.6-1.6,0.9-2.5,1.1c-2.4,0.4-4.3,1.8-6.4,2.7c-2,0.8-3.5,2.4-5.6,3c-0.4,0.1-0.7,0.3-0.8,0.6
		c-0.4,0.9-1.2,1.4-2,1.9c-1.8,1-3.2,2.5-4.8,3.8c-0.1,0.1-0.2,0.3-0.4,0.4c-2.6,1-4.2,3.3-6.2,5.1c-2.2,2-4.8,3.7-7,5.8
		c-2.1,2-4.4,3.8-6.5,5.9c-0.1,0.1-0.2,0.3-0.4,0.4c-1.7,0.7-2.7,2.2-3.9,3.3c-1.3,1.2-2.8,2-4.1,3.3c-1.7,1.8-3.2,3.8-5.6,4.9
		c-0.5,0.2-0.9,0.5-1.5,0.8c-0.1,0.3-0.1,0.7-0.2,1.1c-0.2,0-0.4,0.1-0.5,0.1c-0.7,0.3-1.6,0.3-1.7,1.4c0,0.3-0.5,0.6-0.9,0.8
		c-3.1,1.7-4.9,4.6-7.3,7c-0.4,0.5-0.9,1-1.6,1.1c-0.6-0.1-0.6-0.9-1.2-1c-0.8,1.4-2.2,2.2-3.5,3.1c-1.5,1.1-3,2-4.1,3.7
		c-1.1,1.7-3,2.7-4.8,3.7c-0.8,0.5-1.7,1-2.1,1.7c-1.3,2-3.1,3-5.1,3.9c-1.8,0.8-3.3,2.1-4.7,3.5c-1.6,1.6-3.5,2.7-5.7,3.6
		c-0.8,0.3-2.3,0.5-2.4,1.9c0,0.4-0.3,0.5-0.6,0.5c-1.7,0.5-2.9,1.9-4.5,2.6c-2,0.9-3.5,2.4-5.2,3.6c-0.8,0.6-1.5,0.8-2.5,0.9
		c0.8,1.4-0.4,1.9-1.2,2.3c-3.2,1.6-6.5,3.1-9.6,4.9c-1.7,0.9-3.4,1.8-5.2,2.7c-1.7,0.8-3.4,1.7-5.2,2.3c-1.4,0.5-2.3,1.7-3.8,2
		c-1.8,0.4-3,1.9-4.9,2.2c-2.5,2.3-5.9,2.4-8.8,3.7c-2.1,1-4.6,1.2-7,1.8c-1.1,0.3-2.5,0.1-3.4,1.1c-0.2,0.2-0.5,0.4-0.8,0.3
		c-1.9-0.2-3.5,1.1-5.4,1.2c-1.4,0.1-2.7,1-4.2,1.2c-0.5,0.1-1,0.1-1.6,0.2c-1.3,0-2.6,0-3.7,0.7c-1.4,0.9-3.1,0.6-4.7,1
		c-2.1,0.6-4.3,0-6.4,1c-1.1,0.5-2.6,0.2-3.9,0.2c-2.5,0-4.9-0.1-7.4,0.2c-3,0.4-6.1-0.4-9.1-0.8c-1.2-0.2-2.3-0.5-3.5-0.3
		c-1.1,0.2-2.3,0.2-3.4-0.4c-0.8-0.5-1.7,0-2.7-0.2c-3.1-0.8-6.2-1.5-9.2-2.6c-1.5-0.5-2.8-1.7-4.4-1.7c-1.3,0-2.4-0.4-3.6-0.6
		c-0.8-0.2-0.7-1.4-1.7-0.9c-0.7,0.3-1.4-0.5-2.3-0.4c-0.5,0.1-1.3-0.6-2-0.9c-3.5-1.8-7.4-2.7-10.9-4.5c-0.9-0.5-1.9-0.5-2.8-0.9
		c-0.9-0.4-1.7-0.8-2.2-1.8c-0.3-0.7-1.2-0.8-1.9-0.9c-0.3,0-0.6,0.1-0.7-0.2c-0.9-1.5-2.6-2.2-3.7-3.6c-0.3-0.3-0.6-0.6-1-0.6
		c-1,0-1.7-0.3-1.9-1.4c0-0.2-0.3-0.4-0.5-0.4c-1.2-0.1-1.5-0.9-1.5-1.9c-1.7-0.9-3.5-1.2-4.6-3.1c-0.6-1.1-1.2-2.6-2.9-2.8
		c-0.2,0-0.4-0.1-0.4-0.2c-0.5-2.3-2.8-2.7-4.2-4c-0.8-0.7-1.7-1.3-2.4-2.2c-0.8-0.9-1.7-1.9-3-2.4c-1.3-0.5-2.1-1.8-3.1-2.8
		c-0.9-0.8-1.6-1.9-2.6-2.5c-0.7-0.4-1-1.2-1.5-1.7c-1.2-1.3-2-3-3.2-4.4c-0.2-0.2-0.3-0.5-0.3-0.8c-0.3-2.3-1.5-4.1-2.7-6
		c-1.7-3-3-6.2-4-9.6c-0.5-1.7-0.2-3.6-1.5-5.1c-0.3-0.3-0.3-0.7-0.1-1c0.7-0.9,0.3-1.5-0.2-2.3c-0.4-0.7-0.6-1.5-0.8-2.3
		c-0.4-1.6-1-3.1-1.9-4.6c-0.8-1.3-0.9-3-1.5-4.4c-0.6-1.4-1.2-2.9-1.4-4.4c-0.2-1.9-0.9-3.7-1.2-5.6c-0.2-1.6-0.7-3.2-1.3-4.7
		c-0.7-1.8-1.2-3.6-1.4-5.5c-0.1-0.9-0.2-1.9-0.5-2.8c-0.6-2-0.8-4.1-1.3-6.2c-0.6-2.7-0.7-5.6-1.1-8.3c-0.3-2-0.6-4-0.6-5.9
		c0.1-4.8-0.8-9.4-1.2-14.1c-0.1-1.9,0-3.7-0.7-5.5c-0.1-0.3,0-0.7,0.1-1c0.3-1.2,0.3-2.4,0.4-3.5c0.2-2.2-0.2-4.6,0.6-6.7
		c0.2-0.6-0.1-1,0-1.5c0.3-2.4,0.2-4.8-0.1-7.2c-0.2-1.6,0-3.1,0.4-4.6c0.2-0.8,0.1-1.8,0-2.7c0-0.4-0.2-0.8,0-1.2
		c1.3-3.1,0.7-6.5,1.3-9.8c0.5-3.2,1.2-6.4,1.6-9.7c0.4-3.1,1.3-6.2,1.4-9.4c0-1.5,0.9-3,1.3-4.5c0.5-2.1,1-4.2,1.4-6.3
		c0.2-1.1,0.4-2.2,1-3.1c1.1-1.7,1.3-3.8,2.9-5.1c0-1.4,0.8-2.5,1.1-3.8c0.7-2.3,1-4.7,2.4-6.8c0.3-0.5,0.2-1.3,0.2-1.9
		c0.1-1.8,1.4-3.3,2-4.9c0.5-1.3,0.9-2.6,1.4-3.9c1.1-3,2.6-5.8,4.2-8.6c0.9-1.7,1.2-3.6,2-5.4c0.9-2,2.1-3.8,2.9-5.8
		c0.7-1.8,1.7-3.4,2.2-5.3C170.5,60.9,171.6,59.6,172.7,57.9z M198.4,42.2c0.1-0.3,0.2-0.6,0.3-0.8c1.2-2.5,2.1-5.2,2.5-8
		c0.2-1.1-0.2-2.1,0.1-3.2c0.4-1.5,0.1-3.2-0.6-4.6c-0.9-1.9-1.5-3.9-2.2-5.9c-0.3-1-0.7-2-1.3-2.8c-0.4-0.5-0.9-1-1.1-1.5
		c-0.4-0.7-0.6-1.5-1.2-2.1c-0.5-0.5-0.6-1.7-1.1-2.5c-0.2-0.3-0.3-0.6-0.6-0.8c-2-1.3-4.1-2.3-6-3.8c-0.8-0.6-1.9-1.3-3-1.4
		c-2.3-0.3-4.6-0.9-7-0.8c-2.9,0.1-5.9,0.3-8.8-0.1c-2.9-0.4-5.8-0.6-8.6-0.6c-0.6,0-1.2,0.1-1.7,0.2c-2.1,0.4-4.1,1.2-6.2,1.8
		c-5.2,1.4-9.3,4.4-12.8,8.2c-1.5,1.6-2.8,3.3-3.9,5.2c-1.4,2.2-2.1,4.6-2.1,7.1c0.1,2.7,0.8,5.4,2.2,7.8c0.9,1.5,2.1,2.9,2.9,4.5
		c1.8,3.4,4.7,5.5,7.7,7.6c1.1,0.8,2.5,1,3.6,1.8c1.3,1,2.8,1.6,4.1,2.5c3,1.9,6.5,2.1,9.6,3.2c1.8,0.6,3.8,0.6,5.7,1
		c2.1,0.4,4.1,0.7,6.2,0.6c2.5-0.1,4.9-0.2,6.8-2.2c0.5-0.6,1.5-1.2,2.1-1.1c1,0.3,1.7-0.2,2.4-0.6c2.6-1,4.7-2.8,7-4.3
		c1-0.7,1.8-1.6,2.5-2.6C196.5,43,197.3,42.5,198.4,42.2z"/>
	<path   d="M329.3,159.5c0.1-3.1-0.9-5.5-2.8-7.8c-1.7-2.1-3.6-3.9-4.8-6.4
		c-0.6-1.2-2-1.9-3.1-2.8c-0.3-0.2-0.6-0.2-1,0c-1.3,0.6-2.8,0.7-4.1,0.5c-0.9-0.1-1.5,0.6-2.5,0.5c-1.4,0-2.9-0.5-4.3-0.1
		c-1.5,0.4-2.9,0.2-4.3,0.3c-1,0.1-1.2-0.5-1.7-1.2c-1.2-2-1.3-4.2-1.5-6.4c0-0.4,0.1-0.7-0.3-1c-0.8-0.6-0.9-1.4-0.9-2.3
		c0.2-2.9-0.2-5.9,0.2-8.8c0.1-0.9-0.1-2-0.2-3c-0.1-1.1,0.3-2.1,0.5-3.1c0.1-0.8,0.7-1.3,1.7-1.2c0.9,0,1.8,0.1,2.6,0.4
		c3.6,1.4,7.4,1.3,11.1,0.8c1.8-0.2,3.5,0.4,5.3,0.3c1.2-1.7,2.1-3.8,2.9-5.7c0.7-1.6,0.6-3.3-0.2-4.8c-0.8-1.6-1.3-3.3-2-4.9
		c-0.3-0.8-0.8-1.3-1.5-1.9c-1.4-1.1-2.9-1.8-4.4-2.6c-1.4-0.8-3.1-1-4.4-2.1c-0.6-0.5-1-1-1-1.6c0-1.6,0.3-3.2,1.1-4.7
		c2.2-3.9,5.3-7.1,7.6-10.9c0.8-1.4,2.2-2.3,2.8-4c0.6-1.7,2.6-1.9,4.2-2.1c3.1-0.4,5.1,1.4,6.9,3.6c1.9,2.3,4.4,3.9,7,5.3
		c1,0.5,2.7,0.1,3.5-0.8c1.1-1.4,2.3-2.7,3.7-3.9c0.2-0.2,0.3-0.4,0.5-0.5c2.3-0.4,2.7-2.5,3.7-4.1c1.6-2.5,1.6-5.3,1.9-8.2
		c0.1-1.8-0.1-3.8,0.8-5.5c0.3-0.7,0.1-1.4,0.2-2.1c0.1-0.6-0.2-1.3,0.4-1.9c1.2,0.1,2.1-0.5,2.7-1.5c1-1.7,2.7-2.2,4.4-2.4
		c3.3-0.3,6.6-0.8,9.8-1.6c1.5-0.3,2.9-0.2,4.4-0.3c0.9,0,1.8-0.5,2.7,0c0.3,0.1,0.6,0.2,0.7,0.5c0.3,1.4,1.2,2.6,1.6,4
		c1.1,3.2,0.5,6.4,0.6,9.6c0,1.6,0.2,3.2,0.4,4.7c0.1,0.9,1.5,1.7,2.6,1.3c0.7-0.2,1.1-0.1,1.6,0.2c0.9,0.5,1.8,0.4,2.1-0.9
		c1.3,1,2.5,0.9,3.8,0.4c0.8-0.3,1.7-0.5,2.5-0.7c0.7-0.1,1.4-0.3,1.9-1.1c0.6-1,2.1-0.7,2.8-1.7c0.3-0.4,0.6-0.7,0.9-1.2
		c1.8-2.9,3-6.1,5.5-8.6c0.9-0.9,2.1-0.9,3.1-0.9c0.8,0,1.6,0.2,2.4,0.3c1.7,0.3,3.2,1,4.6,2.1c2.4,1.9,5.3,3.1,7.7,4.9
		c1.2,0.8,2.5,1.5,3.3,2.9c0.5,0.8,1.4,1,2.1,1.5c2.2,1.7,2.6,3.2,1.4,5.7c-1.1,2.4-2.7,4.3-4.9,5.6c-0.4,0.2-0.8,0.6-1,1
		c-1.2,1.8-2.5,3.6-3.6,5.4c-0.8,1.4-0.1,2.7,0.4,4c0.4,1,0.9,1.9,1.4,2.8c0.9,1.6,1.8,3.4,3.9,4c0.8,0.2,1,1.2,1.8,1.4
		c1.4,0.4,2.7,0.5,4-0.2c1.6-0.9,3.3-0.8,5.1-0.5c3.3,0.4,4.2,2.7,5,5.2c0.4,1.3,0.7,2.7,1,4.1c0.1,0.6-0.1,0.9-0.6,1.3
		c2.5,1.3,1.8,3.7,2.1,5.7c0.2,1.2,0.2,2.4,0.6,3.6c1,3-1.2,5.8-3.9,6c-0.6,0.1-1.1,0.1-1.6,0.4c-1.7,0.8-3.7,1.1-5.5,1.4
		c-1.6,0.3-3.2,0.7-4.8,0.9c-1.4,0.2-2.1,1.4-2.4,2.7c-0.8,3.3,0.2,6.6,0.4,9.8c0,0.6,0.5,1.2,0.9,1.7c1.2,1.3,2.2,2.7,3.7,3.6
		c1.3,0.8,2.3,1.8,3.5,2.8c1.7,1.4,3.3,2.9,5,4.4c1.6,1.5,1.6,3,0.1,4.7c-0.9,1-1.8,1.9-2.8,2.9c-0.9,0.9-1.3,2.2-2.4,2.9
		c-0.2,0.1-0.2,0.5-0.2,0.9c-1.8-0.5-2.5,0.8-3.2,1.9c-0.7,1.1-1.5,2.1-2.2,3.2c-0.5,0.7-1,1.4-1.8,1.8c-0.6,0.3-1,0.9-1.4,1.6
		c-1,1.8-2.7,2.5-4.4,1.5c-1.2-0.7-2.4-1.3-3.7-1.8c-2.5-0.8-4.3-2.6-6.2-4.2c-0.9-0.7-1.8-1.4-2.6-2.1c-1-0.9-2.4-0.9-3.5-0.8
		c-1.6,0.2-2.5,0.4-4.2,0.1c-0.5,1.4-1.9,2-3.1,2.6c-2.8,1.2-3.6,3.5-2.2,6.2c1.3,2.6,2.5,5.4,3.8,8c0.7,1.5,1.4,2.9,1.8,4.5
		c0.6,2.1-0.2,3.7-2.3,4.2c-1.3,0.3-2.4,1-3.7,1.2c-1,0.2-1.9,0.6-2.9,0.5c-3-0.1-5.9,0.5-8.8,0.9c-1.8,0.3-3.6,0.3-5.3,0.8
		c-0.6,0.2-1.1,0.2-1.6,0.6c-0.2,0.1-0.4,0.1-0.7,0.2c-1.7,0.8-2.9-0.7-4.4-1c-1.6-0.3-2.1-0.6-2.5-2.9c-0.1-0.5-0.2-1.1-0.4-1.5
		c-1-2.1-0.8-4.5-1.4-6.7c-0.4-1.6-1-3.1-1.4-4.7c-0.2-0.9-0.9-1.3-1.7-1.2c-3.1,0.3-5.8-0.9-8.6-1.9c-1.3-0.4-2.2-0.2-3.3,0.4
		c-2.5,1.4-3.6,3.9-5.2,6.1c-0.9,1.3-1.4,3.1-3.1,3.2c-0.4,0.9-0.4,1.6-1,2.1c-1.2,1-2.7,0.7-4,1.1c-0.1,0-0.3,0-0.3-0.1
		c-1.3-1.7-3.4-1.6-5.1-2.5c-1.5-0.8-2.9-1.7-4.4-2.4c-0.6-0.3-1.1-0.5-1.7-0.6c-1.2-0.3-2.1-1.3-3.4-1.4c-1.6-0.1-1.9-1.5-2.5-2.4
		c-0.6-0.9,0-2.2,0.4-3.2c0.4-1.2,1-2.4,1.6-3.5c0.8-1.6,2-2.7,3.4-3.8c0.7-0.5,1.1-1.3,0.9-2.4c-1,0.2-1.6,0.9-2.2,1.6
		c-2,2.3-3.9,4.7-6.1,6.7c-0.9,0.8-1.9,1.5-2.7,2.5c-0.8,0.9-1.3,2-1,3.2c1.1,1,1.9,2.1,2.6,3.5c1,2,1.9,4.1,2.8,6.2
		c0.3,0.7,1,1,1.6,1.3c2.1,1.2,4.3,1.2,6.6,0.7c4.6-1.1,9.2-0.7,13.9-0.8c0.7,0,0.7,0,2,1c-0.5,0.8-0.3,1.6,0.1,2.4
		c0.3,0.6,0.2,1.2,0.2,1.7c0,3.6,0,7.2,0,10.8c0,0.8,0,1.7,0.5,2.4c0.3,0.5,0.2,1,0.2,1.5c0.1,0.6,0,1.3,0.2,1.9
		c0.8,2.9-0.4,5.1-3.2,6c-3.6,1.2-7.2,0.9-10.9,0.7c-3.1-0.2-6.4-0.1-8.9,2.4c-1.1,1.1-1.9,5.3-1.2,6.8c0.2,0.4,0.6,0.7,0.9,1
		c2.4,2,5.2,3.5,8.2,4.7c0.9,0.3,1.5,1,2.4,1.4c1.3,0.5,2.6,1.2,4,1.5c1.3,0.3,1.9,1.1,1.7,2.5c-0.2,1.7-0.4,3.4-1.7,4.7
		c-0.8,0.8-1.3,1.7-1.5,2.7c0,0.1,0,0.1-0.1,0.2c-1.3,1.3-1.7,3.2-2.7,4.7c-1.7,2.6-3.6,5.1-5.4,7.7c-0.9,1.2-1.8,2.5-2.7,3.7
		c-0.7,1-1.5,1.4-2.6,1.3c-0.6-0.1-1.3-0.1-1.8,0.3c-2.1-1.3-3.4-3.4-5.2-4.9c-0.8-0.7-1.7-1.4-2.6-1.9c-1.3-0.8-2.4-1.8-3.8-2.3
		c-0.6-0.2-0.3-0.8-0.6-0.9c-0.7-0.3-1.5-0.6-2.3-0.2c-1.8,0.9-3.9,1-5.7,1.8c-1.1,0.5-2.3,0.7-3.1,1.7c-0.8,1-1.1,1.5-0.3,2.5
		c0.4,0.5,0.4,1.1,0.4,1.5c-0.2,1.7,0.5,3.1,1.2,4.6c1.1,2.3,2,4.8,3.1,7.1c0.4,0.9,1,1.7,1.4,2.7c0.4,1,0.7,2.1-0.1,3.1
		c-0.4,0.5,0.1,0.7,0,1.1c-0.4,3.1-2.5,4.6-5.1,5.5c-2.1,0.7-4.1,1.4-5.7,2.8c-1.5,1.4-3.5,1.6-5.2,2.2c-1.3,0.5-2.7,0.9-4.1,1.2
		c-1.1,0.3-2,0.4-3.1,0.1c-1-0.3-2.2-0.4-3.2-0.8c-1.8-0.8-2.7-2.5-3.3-4.2c-0.7-2-1.8-3.7-2.7-5.5c-0.9-1.8-2.3-3.2-3.2-4.9
		c-1.2-2.3-3.4-3.3-5.3-4.6c-2.2-1.5-4.6-0.7-6.9-0.6c-1,0-2.1,0.3-3.1,0.2c-1.6-0.1-2.9,0.7-4.2,1.3c-0.5,0.2-0.8,1-0.9,1.6
		c-0.7,4-1.5,8-1,12c0.3,2.2-0.1,4.3,0.2,6.4c0.1,0.9,0.1,1.8-0.3,2.8c-0.5,1.2-1.1,1.7-2.3,1.4c-0.4-0.1-0.8-0.2-1.2-0.2
		c-3.1,0.3-6.2-0.6-9.2-1c-1.1-0.1-2.2,0.3-3.4,0c-1.5-0.3-3-0.2-4.5-1c-1.7-0.9-3.7-1.7-5.6-1.8c-1.7,0-3.3-0.4-5-0.2
		c-1.6,0.2-2.8-0.5-3.9-1.5c-0.5-0.4-0.9-1-1.5-1.7c-0.1-1.4,0.6-2.9,1.4-4.4c1-2.1,1.8-4.3,3.6-5.9c0.2-0.2,0.4-0.5,0.3-0.8
		c-0.6-1.8,0.5-3.4,0.9-5c0.4-1.5,0-2.9-0.2-4.3c-0.1-0.4-0.5-0.5-0.7-0.7c-1.7-1.8-4-2.5-6.1-3.7c-1.3-0.8-2.3-1.8-3.3-2.8
		c-1.3-1.3-2.5-2.5-4.4-3c-1.3-0.3-2.3,0-3.3,0.6c-0.3,0.2-0.6,0.6-1,0.7c-2.2,0.7-3.8,2.4-5.8,3.4c-1.2,0.6-2.1,1.6-3,2.6
		c-1.6,1.6-3.5,2.8-5.6,3.3c-1.5,0.4-2.9,0-4.3-1.1c-1.8-1.4-2.7-3.3-4.1-4.9c-1-1.2-1.1-2.8-1.8-4.2c-1.3-2.3-1.7-5-3-7.3
		c-0.1-0.2-0.1-0.5-0.1-0.7c-0.3-2.2-1.1-4.3-2-6.4c-1-2.1-1.9-4.3-2.5-6.6c-0.3-1.2-0.3-2.5,0-3.9c0.3-2,1.5-2.8,3-3.6
		c2.8-1.5,5.5-3.3,8.5-4.2c0.7-0.2,0.9-0.9,1.3-1.3c1.3-1.1,2.9-1.5,4.5-1.9c2.6-0.7,4.8-1.9,6.7-3.9c0.6-0.7,0.7-1.5,0.4-2.1
		c-0.3-0.8-0.1-1.7-0.6-2.6c-0.2-0.4-0.2-1.1,0-1.6c0.9-2.5,0.1-5.1,0.2-7.6c0-0.6-0.2-1.2-0.5-1.4c-1-0.7-1.9-1.6-3-2
		c-0.7-0.3-1.2-0.8-1.8-1.2c-1-0.5-2.1-0.5-3.1-0.4c-3.1,0.3-6.2-0.4-9.3-0.4c-0.8,0-1.4-0.5-1.9-1.1c-2.9-2.9-3.3-6.4-2.1-10
		c0.6-1.7,1.1-3.4,1.5-5.1c0.3-1.2,0.4-2.4,0.7-3.6c0.3-1.4,1-2.6,1.6-3.8c1.2-2.1,2-4.5,3.2-6.6c0.8-1.5,1.5-3.1,2.5-4.4
		c0.5-0.7,1.2-1.7,2.5-1.4c0.2,0,0.4-0.2,0.6-0.3c2.2-1.1,4.5-0.8,6.7-0.1c0.3,0.1,0.7,0.3,1,0.3c1.9,0,3.3,1.1,4.6,2.2
		c0.3,0.2,0.5,0.7,1,0.7c2.3-0.2,4,1.1,6,1.8c2.2,0.8,4.2,0.8,6.2-0.1c3-1.4,5.7-3.3,8.2-5.5c1.3-1.1,2.3-2.6,4-3.4
		c0.6-0.3,1.1-1.1,1.5-1.7c0.6-0.9,1.3-1.6,2.3-2.3c-1-2.6-2-5.2-3-8c-1.8-1.1-2.8-3.1-4-5.1c-1.2-2.2-1.4-4.5-1.7-6.8
		c-0.2-1.3,1.1-1.9,1.9-2.4c3-1.8,6.1-3.4,9.1-5.2c1.3-0.8,2.6-1.5,4-2c2.5-0.9,4.9-1.9,7.5-2.3c0.6-0.1,1.2-0.5,1.9-0.4
		c1.3,0.2,2.2,1.2,2.4,3c0.4,2.7,1,5.3,2.5,7.6c0.6,0.9,0.7,2,0.9,3c0.4,2.3,1.8,3.9,3.8,4.8c1.3,0.6,2.2,1.7,3.5,2.3
		c0.4,0.2,0.7,0.5,1.1,0.4c2.5-0.8,5.4,0,7.8-1.7c0.1-0.1,0.2-0.2,0.3-0.2c3.3-0.7,3.6-3.4,3.9-6c0.2-1.3,0.5-2.6,0.8-3.9
		c0.6-2,1.3-4,1.3-6.1c0.1-2.2,1.8-3.6,3.9-3.8c2.4-0.2,4.7,0.3,7.1,0.4c0.9,0,1.8,0.2,2.6,0.2c2.5,0.1,4.6,1.1,6.9,1.8
		c1.5,0.5,2.9,1.1,4.4,1.6c1.4,0.5,2.4,1.7,3.8,2.2c1,0.4,1.3,2.8,0.8,4.2c-0.9,2.4-2,4.8-2.8,7.2c-1.2,3.3-0.9,6.7,0.3,9.9
		c0.4,1.1,1,2.3,2.2,3.1c0.7,0.5,1.3,1.2,1.7,2c0.6,1.2,1.9,1.7,3,2.2c0.7,0.3,1.5,0,1.9-0.6c1.1-1.7,3.2-2.2,4.4-3.6
		c1.1-1.2,2.5-2.1,3.9-3c2.2-1.6,4.5-3.4,7.6-3.1c0.6,0.1,1.1,0.2,1.6,0.7c1.9,2,3.9,3.9,6,5.7c0.7,0.6,1,1.7,1.8,2.3
		c1.4,1.1,2.2,2.6,3.2,4C328.9,157.7,328.4,158.8,329.3,159.5z M213.7,285.6c2.1,0.7,4.2,0.7,6.1,0.2c1.4-0.4,2.7-0.6,4.1-0.2
		c1.4,0.4,2.8,1,4.3,1.1c1.3,0,2.6,0,3.8,1c0.4,0.4,1.3,0.6,2,0.9c1.6,0.6,3.3,0.6,4.8,1.5c1.3,0.8,2.1,0.1,2.1-1.4
		c0-0.7-0.6-1.2-0.4-1.9c0.6-1.6,0.3-3.2,0.3-4.7c0-0.8-0.2-1.8,0.1-2.5c1.2-2.9,1.2-6.2,2.2-9.2c0.9-2.7,2.4-4,5-4.7
		c1.8-0.5,3.6-0.6,5.3-1c2.6-0.6,5.2-1.2,7.9-0.4c1.2,0.4,2.6,0.3,3.7-0.3c1.4,1.3,2.5,2.5,3.5,4c0.6,0.8,1,1.7,1.7,2.5
		c1.9,2.2,3.2,4.7,3.6,7.6c0.1,0.6,0.4,1,0.7,1.4c0.7,1.1,1.2,2.4,1.6,3.6c0.8,2.7,2.6,3.5,5.3,2.6c0.8-0.3,1.4-0.8,2.2-1.1
		c3.4-1.3,6.8-2.6,9.9-4.4c1.1-0.6,2-1.6,3.2-2.1c0.8-0.3,1.8-0.1,2.1-0.6c0.8-2.2,0.6-4.1-0.4-5.7c-1.5-2.3-1.9-5.1-3.3-7.5
		c-1.6-2.7-1.7-5.9-2.3-8.9c-0.2-1,0-2.3,0.7-3c1.4-1.3,2.8-2.7,4.6-3.5c1.2-0.6,2.7-1,3.7-1.9c1.4-1.1,3.1-1.5,4.6-2.5
		c0.5,0.5,0.9,0.9,1.2,1.3c0.6,0.9,1.6,1.8,2.4,2.1c1.5,0.6,2.5,1.5,3.7,2.4c1,0.8,1.7,1.9,2.7,2.8c1.5,1.2,2.7,2.7,4.4,3.7
		c1.2,0.8,1.9,0.9,2.4-0.5c0.3-0.7,0.3-1.6,0.8-2.1c2.4-2.4,3.6-5.5,5.6-8.1c1.8-2.4,3.6-5.1,4.8-8.1c-1.6-2.3-3.7-4.3-6.3-5
		c-2-0.5-3.5-1.6-5-2.6c-2.4-1.6-4.6-3.6-5.5-6.7c-0.2-0.9-0.2-1.7-0.2-2.6c0.1-1.5,0.9-2.6,1.6-3.8c1-1.6,1.6-3.4,2.3-5.2
		c0.3-0.8,1-1.5,2.1-1c0.7,1.6,1.3,2,2.6,1.6c1.2-0.4,2.4-0.3,3.7-0.3c2.8-0.1,5.6,0.6,8.4,0c1.6-0.4,3.4-0.2,4.7-1.6
		c-0.5-2.5-1-5-1-7.5c0-1.9-0.1-3.8,0-5.7c0.2-2.7-0.5-5.3-1.4-7.9c-2.9-0.6-5.9,0.2-8.8,0.4c-1.7,0.1-3.5,0.5-5.2,0.8
		c-2.6,0.5-5.4,0.4-7.7-1.4c-0.3-0.3-0.7-0.5-1.1-0.5c-2-0.3-2.9-2-3.9-3.5c-1.4-2.3-1.9-4.8-2.8-7.3c-0.8-2.5,0.2-5,2.4-6.6
		c0.7-0.5,1.4-1.2,2.1-1.8c1.4-1.5,2.6-3.3,4.2-4.6c1.7-1.4,3-3,2.6-5.4c0-0.2,0.2-0.4,0.2-0.7c0.6-2.2,0.4-4.3-1.5-5.9
		c-0.7-0.6-1.6-1.1-1.9-1.9c-0.6-1.4-2.6-1.2-2.9-2.8c0-0.1-0.6-0.2-0.8-0.2c-1.6,0.4-3.3,0.7-4.8,1.2c-2.3,0.8-4,2.5-5.9,3.9
		c-1.7,1.3-3,2.9-5,3.8c-0.5,0.2-1,0.6-1.5,0.5c-2.7-0.3-5.1-1.1-6.9-3.3c-1.2-1.5-2.3-3.1-4-4.1c-1.6-0.9-3-1.9-2.8-4
		c-1-0.9,0.4-1,0.5-1.5c0.4-1.3,0.7-2.6,1.2-3.8c0.8-1.6,1.4-3.3,1.8-5c0.1-0.6,0.2-1.3,0.5-1.6c1-0.8,1-2,1.2-3
		c0.2-0.8,0.5-1.4,0.8-2.1c-0.3-0.5-0.4-1-1-1.2c-2.3-1-4.2-2.7-7-2.4c-0.3,0-0.5-0.2-0.8-0.3c-3.7-1.5-7.6-2.9-11.7-2.9
		c-1.1,0-2.3-0.4-3.4,0.3c0.3,1.1,0.2,2.2-0.1,3.2c-0.6,1.7-0.8,3.5-0.9,5.3c0,0.5,0.1,1-0.3,1.4c-0.6,0.6-0.5,1.4-0.6,2.1
		c-0.2,1.2,0.2,2.5-0.2,3.5c-0.6,1.4-1.6,2.8-2.7,3.9c-1,1-2.5,1.3-4,1.2c-1.3-0.1-2.7-0.3-3.9,0c-2,0.5-3.9,0.5-5.9,0.6
		c-0.8,0-1.6-0.6-2.4-0.4c-1.2,0.3-2.4,0.4-3.6,0.8c-1.1,0.4-1.9,0.1-2.7-0.5c-1.3-1.1-1.8-2.4-1.7-4.1c0-0.4-0.1-0.9-0.3-1.2
		c-0.8-0.8-0.7-1.6-0.6-2.6c0.1-0.6,0.1-1.3-0.6-1.8c-0.9-0.7-1.1-1.9-0.9-2.9c0.3-1.1,0-2-0.5-3c-0.3-0.7-0.6-1.4-0.6-2.2
		c-0.1-0.8-0.3-1.5-0.8-2.1c-1.7-0.6-3.1,0.1-4.3,1c-1.4,1-2.8,1.9-4.6,2.3c-0.7,0.1-1.5,0.4-2.1,0.8c-2.2,1.6-4.9,2.3-7,4.2
		c-1.2,1-1.3,1.1-0.7,2.6c0.7,1.5,2.3,2.6,2.2,4.5c0,0.3,0.4,0.8,0.8,0.9c0.5,0.1,0.6,0.4,0.9,0.8c2,2.8,3.1,6,4.4,9.2
		c0.9,2.1,0.3,4.3-1.5,5.3c-2.7,1.5-4.5,3.9-6.8,5.8c-1.4,1.1-2.6,2.5-4.1,3.5c-1.4,0.9-2.5,2.1-3.7,3.3c-1.2,1.2-2.3,2.5-3.8,3.4
		c-2.3,1.3-5.8,0.5-7.8-1.3c-2.1-1.9-4.6-3.5-7.3-4.4c-2-0.7-3.8-1.8-5.9-2.3c-0.1,0-0.3,0-0.3-0.1c-1.6-1.3-3-0.4-4.5,0.2
		c-0.4,0.2-0.9,0.3-1,0.9c-0.3,2.2-1.7,3.9-2.3,6c-0.4,1.3-1.1,2.5-1.9,3.7c-1.1,1.6-1.6,3.4-1.8,5.3c-0.2,1.7-0.5,3.4-1.2,4.9
		c-0.8,1.7-1,3.3-1,5.1c0,2.4,1.6,3.9,4.1,3.9c0.9,0,1.8-0.2,2.6,0.1c0.9,0.4,2,0.4,2.8,0.1c2.8-0.9,5.3,0.3,7.8,0.9
		c0.7,0.2,1.5,0.5,2,1.3c0.5,0.8,1.3,1.6,2.5,1.4c0.1,0.3,0.2,0.6,0.2,0.8c-0.3,2.4,0.9,4.7,0.9,7.2c0,1-0.2,2.2,0.2,3.2
		c0.4,0.8,0.5,1.7,0.3,2.6c-0.3,1.4,1,2.5,0.5,3.8c1.1,0.8,0.4,1.7,0.2,2.6c-0.2,1-0.7,1.9-1.6,2.5c-0.6,0.4-1.1,0.9-1.4,1.5
		c-0.8,1.3-2.1,2-3.5,2.4c-1.3,0.4-2.6,0.7-3.8,1.1c-2.1,0.7-4.4,0.5-6.4,1.7c-1.4,0.9-3.3,0.5-4.8,1.4c-1,0.6-2.1,1.2-3.2,1.6
		c-0.7,0.2-1.1,1.2-1,2c0.2,2.7,1,5.3,2.1,7.9c0.5,1.3,1.2,2.5,1.7,3.8c0.8,2.2,1.4,4.4,2.4,6.5c0.5,1,1,2.1,1,3.3
		c1.7-0.5,1.7-0.4,2.6,1.1c0.7,1.2,1.2,2.5,1.7,3.8c0.4,1.1,0.7,2.1,1.2,3.1c0.5,0.9,1.4,1.3,2.2,0.9c0.9-0.5,1.9-1,2.8-1.7
		c1.5-1.2,2.5-2.7,3.7-4.2c1.2-1.5,2.6-3,4.3-3.8c1.9-1,4-1.4,5.9-2.2c0.4,0.2,0.3,0.7,0.7,0.6c2.3-1.1,3.2-0.8,5.2,0.7
		c1.3,1,1.9,2.4,3.3,3.4c2.2,1.6,4.2,3.6,6.5,5.1c1,0.7,2.3,0.9,3.1,1.9c1.2,1.5,2.3,3.1,3.3,4.7c1,1.7,1,2.6-0.3,4.1
		c-0.4,0.5-0.8,1-1.1,1.5c-0.9,1.7-1.9,3.4-2.8,5.2c-0.6,1.3-1.2,2.7-1.5,4.2C214,283.3,214.1,284.3,213.7,285.6z M356.2,56.7
		c-0.2,1-0.6,2.1-0.7,3.2c-0.2,1.2-0.7,2.4-0.1,3.6c0.7,1.4,1,3,1.4,4.5c0.1,0.3,0.4,0.6,0.3,1c-0.3,1-0.3,2.1-0.3,3.2
		c0,1.3-0.3,2.3-1.4,3c-1,0.6-1.8,1.5-2.7,2c-2.3,1.2-4.2,3-6.4,4.3c-1,0.6-2,1.2-2.9,1.9c-2,1.7-4.4,1.8-6.6,1
		c-2.8-1-5.3-3-7.3-5.3c-1.7-1.9-3.6-2.7-6.1-2.6c-0.8,0-1.2,0.3-1.7,1c-1.7,2.4-3.5,4.8-5.3,7.2c-0.9,1.1-1.1,2.7-2.6,3.4
		c0,1.5-1.5,2.2-1.8,3.7c-0.3,1.7-0.6,1.6,0.8,2.6c1.2,0.9,2.6,1.2,3.9,1.8c2.9,1.4,5.3,3.6,8.5,4.6c1.1,0.3,2.7,3,2.3,3.9
		c-0.5,1.4-0.7,2.8-1.3,4.2c-0.9,2-2,4-2.3,6.2c-0.3,2.1-1.9,3-3.4,4.1c-2,1.5-4.6,1.2-6.9,1.8c-2.4,0.5-4.9,0.1-7.4,0.3
		c-2.5,0.2-4.2,1.2-4.7,3.6c-0.6,3.1-1,6.2-0.4,9.6c0.9-0.2,1.2,0.5,1.4,1.3c0.4,1.3,1.6,1.7,2.5,2.4c0.8,0.6,1.9,0.5,2.9,0.2
		c1.2-0.4,2.3-0.3,2.9,0.9c1.9,0,3.8,0.1,5.5-0.7c0.3-0.1,0.7,0,1,0.2c1,0.9,2.3,0.8,3.5,0.8c1.4,0.1,2.9,0.7,3.3,1.9
		c0.6,1.5,1.7,2.7,2.2,4.2c0.1,0.4,0.1,0.8,0.4,1.1c1.5,1.5,2.5,3.5,4,5c0.2,0.2,0.4,0.6,0.6,0.9c0.7,1.6,1.6,3.1,1.9,4.8
		c0.3,1.2,0.6,2.4-0.4,3.6c-0.9,1.1-1.8,2.4-2.1,3.8c-0.6,2.8-2.5,5-3.2,7.7c-0.4,1.5-0.6,2,0.7,3c2.3,1.9,4.8,3.4,7.7,4.2
		c0.5,0.1,1,0.3,1.4,0.7c0.9,1,0.9,1,1.6,0c0.6-1,1.3-2,1.9-2.9c1-1.5,2.2-3.1,3.7-4.1c1.9-1.2,3.3-2.5,4.1-4.7
		c0.6-1.6,1.6-2.2,3.2-1.8c1.4,0.4,2.9,0.5,4.1,1.2c1.6,0.9,3.6-0.1,4.9,1.4c1.8-0.3,3.5,0.4,5.2,0.2c1-0.1,1.9,0.1,2.7,0.9
		c0.4,2.2,0.6,4.4,1.2,6.6c0.3,1.3,0.2,2.7,0.6,4c0.2,0.7,0.7,1.2,0.8,2c0.2,1.7,0.7,3.3,1.2,4.9c0.1,0.4,0.4,0.7,0.8,0.8
		c3.9-2.2,8.2-3.1,12.6-3.1c0.6,0,1.3,0.1,1.9-0.1c0.8-0.3,1.5-0.3,2.2,0c1.6,0.5,3.1,0.1,4.7-0.2c0.8-0.2,1.5-1,2.3-1.5
		c-0.1-1.8-0.9-3.3-1.7-4.8c-0.6-1-1.2-2.1-1.5-3.2c-0.5-1.7-1.6-3.1-2.1-4.7c-0.6-1.7-0.6-3.4-1.3-5c-0.3-0.6-0.1-1,0.4-1.5
		c1-1,2.4-1.6,3.3-2.8c0.3-0.4,0.7-0.4,1.1-0.4c1,0,1.6-0.7,2.3-1.2c0.5-0.4,0.9-0.9,1.5-1.2c2.3-0.9,4.3-2.2,6.6-3.1
		c1.5-0.6,2.6-0.4,3.9,0.4c1.9,1.1,3.6,2.4,5,4c1.1,1.3,2.4,2.2,3.8,3.1c1.4,1,2.7,2.2,3.9,3.3c1.1-1.1,1.8-2.6,2.8-3.7
		c1.6-1.9,2.9-3.9,4.6-5.7c1.7-1.7,3-3.7,5.4-4.5c0.8-0.2,0.8-0.9,1.1-1.4c-0.1-0.2-0.2-0.3-0.3-0.5c-3.4-3.1-7-5.9-10.3-9.1
		c-0.6-0.6-1.2-1.5-2.3-1.5c-1.2,0-1.8-0.7-2.2-1.7c-0.1-0.4-0.4-0.7-0.7-1c-1.6-1.6-1.7-2.7-0.4-4.5c0.5-0.7,1.1-1.4,1.4-2.2
		c0.7-1.6,0.9-3.3,1.2-5c0.2-1.6,0.8-3.2,2.3-4.1c1.1-0.7,2.4-1.3,3.6-1.7c0.7-0.2,1-0.9,1.9-0.8c2.7,0.4,5.2-0.6,7.8-1
		c0.7-0.1,1.4-0.2,2.1-0.5c0-0.3,0.1-0.5,0-0.6c-0.7-1.8-1-3.7-1.6-5.5c-0.3-1-0.7-2.2-0.5-3.3c0.4-1.5-0.1-3-0.1-4.5
		c0-1.3-0.5-2.6-0.8-3.9c-0.2-0.8-0.8-1.6-1.5-1.4c-1.4,0.3-2.9,0.5-4.2,1.1c-1.6,0.8-3.2,1.4-4.8,1.8c-0.5,0.1-1.1,0-1.5,0.5
		c-0.7,0.9-1.5,0.7-2.3,0.3c-0.8-0.3-1.5-0.9-2.2-1.4c0.1-1.2,0-2.4-0.7-3.4c-1.3-2-1.3-4.5-2.9-6.4c-0.2-0.2-0.3-0.6-0.2-0.8
		c0.3-1.6-0.7-2.4-1.9-3c0-0.7,0.1-1.4,0-2c-0.3-1.5,0.6-2.7,1.5-3.5c1-0.8,1.7-1.7,2.1-2.7c0.9-2,2-3.6,3.4-5.2
		c0.9-1,1.7-2.7,0.8-3.6c-1.1-1.2-1.8-2.7-3.3-3.6c-0.9-0.5-1.7-1.3-2.4-2.1c-1.2-1.4-2.3-2.9-4.1-3.6c-0.2-0.1-0.3-0.2-0.4-0.3
		c-1.6-2.1-4-2.6-6-2.9c-2.3,1.8-2.5,4.6-4.4,6.5c-1,1-1.7,2.8-2.4,4.2c-0.8,1.5-1.6,3.1-2.6,4.5c-0.7,1-1.8,1.3-2.6,0.9
		c-0.5-0.3-1.1-0.3-1.5-0.3c-2,0-3.7-0.9-5.5-1.4c-0.7-0.2-1.4-0.3-2.1-0.2c-2.5,0.4-4.7-0.8-6.9-1.7c-0.9-0.4-1.4-1.2-1.4-2.3
		c0.1-2.6-0.5-5.1-0.4-7.8c0-1,0-1.9,0.1-2.9c0.2-1.9-0.8-3.5-1.3-5.2c-2.6-0.3-5.1,0.1-7.6,0.2c-2.6,0.2-4.9,1.2-7.5,1.2
		c-0.5,0.2-0.3,1.1-0.8,1.1C358.6,55.2,357.5,56.1,356.2,56.7z M328.6,161.1c0.1-0.2-0.1-0.3-0.2-0.3c-0.2,0-0.3,0.1-0.3,0.2
		c0,0.2,0.1,0.3,0.3,0.3C328.5,161.5,328.6,161.3,328.6,161.1z"/>
	<path   d="M131.8,134.4c0.3,1.3,2.9,1.1,1.8,3.1c-1.6,1.7-3.9,1.5-6,1.9
		c1.2,1.1,2.7,1.1,4,1.8c0.5,0.3,1.2,0.4,1.7,0.7c0.6,0.3,1.2,0.6,2.1-0.1c0.8-0.6,1.9-1.1,2.9-0.7c0.7,2.2-0.7,3.5-2,4.9
		c-0.3,0.3-0.8,0.6-1.2,0.6c-1.3-0.1-2.6-0.1-3.8-0.6c-1-0.5-2.2-0.8-3-1.8c-0.5-0.6-1.2-0.4-1.9-0.3c0.2,1.3,1.4,2.4,1,3.6
		c0.7,1.6,2.4,1.8,3.4,3c1,1.3,2.8,1.6,4.4,2.1c-0.2,1.1-0.3,2-1.2,2.5c-1.2-0.6-2.3-1.1-3.5,0.2c-0.6,0.7-1.7,0.2-2.2-0.4
		c-0.4-0.4-0.8-0.7-1.1-1c-0.9-1.3-2.3-2.3-3.2-3.7c-0.5-0.7-0.3-1.6-0.6-2.4c-1.6-3.6-3.5-7-5.4-10.5c-0.5-1-1.3-1.7-2-2.5
		c-1-1.1-1.6-2.6-2.4-3.9c-2.6-4.4-4.9-9-7-13.7c-0.2-0.4-0.4-0.8-0.7-1.2c-2.2-3.5-4.1-7.1-5.4-11c-0.2-0.7-0.7-1.4-1-2.1
		c-1-1.9-1.4-4.1-2.5-5.9c-0.2-0.4-0.4-0.9-0.1-1.2c0.8-0.7,1-1.8,1.6-2.4c1.1-0.9,1.8-2.3,3.1-3c0.9-0.5,1.4-1,1.3-2
		c1.2-0.5,1.8,0.5,2.5,0.8c0.2,0.8-0.5,1.2-0.4,1.8c1,1.5,1,3.4,1.5,5.1c0.7,2.2,1.3,4.5,2.1,6.6c0.6,1.6,0.6,3.2,1,4.8
		c0.5,2,1.2,4,1.8,6.1c0.3,1.3,1.1,2.2,1.7,3.3c1.4,2.7,2.5,5.5,3.8,8.3c1,2.1,2.1,4.3,3.8,5.9c1,1,1.9,2.1,2.8,3.2
		c1.2,1.4,2.6,1.8,4.2,1.4C129,135.5,130.4,135.2,131.8,134.4z M108.4,111.8c0.1,0.7-0.1,1.5,0.7,2
		C109.4,112.9,108.9,112.3,108.4,111.8z"/>
	<path   d="M195.6,157.8c-0.5-1-0.5-2.1-1.2-2.8c-0.3-0.3-0.2-0.8-0.1-1.2
		c0.6-2.1,0.8-4.3,1-6.6c0.1-1.4,0.2-2.7-0.4-4.1c-0.2-0.4,0-0.9,0.1-1.4c0.4-2,0.3-3.9-1-5.5c-0.4-0.5-0.6-1-0.6-1.6
		c0.1-1.1-0.5-1.6-1.3-2.1c-0.6-0.3-1.3-0.5-1.6-1.4c-0.3-1-3.3-1.4-4.2-0.8c-1.7,1.2-3.1,2.8-4.2,4.6c-0.4,0.6-0.9,1.1-1.2,1.8
		c-0.5,1.1-0.3,2.3,0.1,3.2c0.9,2.1,0.6,4.1,0.2,6.1c-0.3,1.5,0.1,2.6,0.5,3.9c0.1,0.4,0.6,0.7,0.2,1.2c-1.6,0.7-1.7,0.7-2.7-0.6
		c-1.1-1.5-2.7-2.6-4.2-3.8c-0.7-0.6-1.1-1.8-2-2.2c-2.4-1.2-4.4-3.2-7-4.1c-1.2-0.4-2.1-1.4-2.9-2.3c-0.5-0.5-0.8-1.4-0.4-2.4
		c1-2,2-3.9,3-5.8c0.6-1.2,1.6-2.6,3.1-3.2c0.1,0,0.2-0.1,0.3-0.2c2.7-3,6-5.4,9-8.1c0.2-0.2,0.3-0.4,0.5-0.5
		c3.6-0.9,5.1-4.2,7.1-6.7c0.9-1.1,1.8-1.7,3-2c0.5,0.3,0.7,0.7,0.6,1.3c-0.4,2-0.8,3.9-1.2,5.8c-0.2,0.9-0.7,1.5-1.5,2
		c-1.7,1.1-3.4,2.1-5.3,2.8c-1.8,0.7-3.2,2.1-4.9,3c-3.1,1.5-5.2,4.1-7.3,6.6c-0.7,0.8-0.8,1.7-0.8,2.6c0,2.1,1.2,3.6,2.6,4.9
		c1.9,1.7,3.8,3.3,5.3,5.4c0.6,0.8,1.5,1.1,2.3,1.6c0.6-0.8,0.5-1.7,0.3-2.7c-0.3-1.4-0.7-2.6-0.3-4.1c0.4-1.3-0.1-2.7-0.4-4
		c-0.3-1.3-0.3-2.7,0-4c0.2-0.9,0.9-1.6,1.8-1.7c1.5-0.1,3-0.6,4.5-0.8c0.9-0.1,1.8-0.6,2.7-0.8c0.4-0.1,0.7-0.2,1.1,0
		c0.4,0.2,0.8,0.3,1.1-0.2c0.4-0.7,1-0.3,1.7-0.3c0.2,1.8,1.2,3.1,2.7,4.1c1.3,0.9,1.8,2.5,3.1,3.4c0.5,0.3,0.9,0.8,1.2,1.2
		c0.7,0.8,1.3,1.6,1,2.8c-0.1,0.5,0,0.9,0.3,1.3c-1.3,0.6-1.6,1.8-1.7,2.9c-0.3,2.3-0.3,4.7,0.1,7.1c0.5-0.5,1-1.1,1.3-1.8
		c0.5-1.2,1.3-2,2.5-2.3c0.5-0.2,0.8-0.4,1-0.8c1.1-2.5,2.2-5.1,2.1-7.8c0-1.6-0.7-3.1-2.3-4c-1.2-0.7-1.8-2-2.7-3
		c-0.6-0.6-1-1.5-1.6-2.1c-1.1-1,0.1-2.1,0-3.1c0-0.3,0.3-0.6,0.2-1c-0.4-3.1,1.3-5.6,2.6-8.1c0.3-0.5,0.8-1,1.3-1.4
		c0.4-0.4,0.9-0.6,1.4-0.2c0.5,0.4,0.5,0.8,0.2,1.4c-0.8,1.7-1.4,3.4-2,5.1c-0.2,0.6-0.2,1,0.1,1.5c0.4,0.7,0.6,1.6,0.4,2.4
		c-0.5,2.4,1,4.1,1.8,6c0.1,0.1,0.3,0.2,0.4,0.3c2.1,1.2,3,3,3.5,5.3c0.4,1.9-0.2,3.5-0.7,5.2c-0.7,2.4-2.2,4.3-3.3,6.4
		c-0.8,1.6-2.4,2.5-3.2,4.2c-0.2,0.4-0.3,0.8-0.5,1.2C199.4,155.3,198.2,157.2,195.6,157.8z"/>
	<path   d="M49.8,184.3c-0.4,0.4-0.8,0.6-1.3,0.7c-1.1,0.1-1.6-0.2-1.4-1.2
		c0.4-2.5,0-5.2,1-7.6c0.7-1.6,1.1-3.2,1.1-4.9c0-1,0.5-1.9,0.8-2.9c0.7-2.4,1.5-4.7,2.2-7.1c0.6-2.4,1.7-4.7,2.7-7
		c0.4-1,0.6-2.1,1.3-3c1.6-2,2.2-4.6,3.9-6.6c0.5-0.7,0.6-1.6,1-2.4c0.9-2.4,2.2-4.6,3.2-7c1.3-3.2,2.6-6.5,4.5-9.5
		c0.2-0.3,0.1-0.6,0.1-0.9c0.1-0.6,0.1-1.3,0.7-1.7c0.3-0.3,0.6-0.6,1.1-0.4c0.5,0.2,0.6,0.6,0.7,1.1c0.1,0.8-0.6,1.3-0.8,1.9
		c-0.5,1.5-1,3-1.9,4.4c-1.4,2.4-2.4,5-3.4,7.6c-1.5,3.8-3.2,7.5-5.1,11c-1.6,2.8-2.5,5.8-3.9,8.7c-1,2.1-2,4.3-2.5,6.5
		c-0.7,3.2-1.8,6.4-2.4,9.6c-0.1,0.3-0.1,0.6-0.3,0.8c-1.5,1.2-1,2.9-1.2,4.5c-0.1,0.7-0.1,1.5-0.2,2.2
		C49.2,182.3,49.4,183.2,49.8,184.3z"/>
	<path   d="M36,173.9c0.6-2.5,0.8-4.9,1.7-7.1c0.7-1.8,1-3.8,2.3-5.4
		c0.5-0.7,0.5-1.8,0.8-2.6c0.6-1.7,1.3-3.2,2.2-4.7c1.1-1.8,1.9-3.8,2.8-5.8c0.4-1,1-1.8,1.5-2.7c1.3-2.1,2.6-4.1,3.7-6.4
		c1.2-2.3,2.4-4.7,4.1-6.8c0.5-0.6,1-1.3,1-2.2c0.1-0.7,0.6-1.1,1.3-1.2c0.4-0.5-0.5-1.5,0.7-1.9c0.3,0.2,0.7,0.6,1.2,1
		c-0.5,2.3-1.6,4.3-3.1,6.1c-0.6,0.7-0.9,1.7-1.4,2.6c-1.1,2-2.5,3.8-3.5,5.8c-1.2,2.4-2.3,4.9-3.5,7.3c-0.2,0.4-0.2,0.8-0.4,1.1
		c-2.1,3.8-4.1,7.7-5.7,11.8c-1.4,3.5-3.4,7-3.1,11c0,0.5-0.1,1-0.6,1.1c-0.4,0.1-0.9,0.2-1.3-0.3C36.6,174.4,36.3,174.2,36,173.9z"
		/>
	<path   d="M207.9,100.3c0.8,0.7,1.5,1.2,2.4,1.1c1,0,1.7,0.5,2,1.4
		c0.3,1,0.1,2-0.9,2.6c-1.1,0.7-2.2,1.2-3.3,1.9c-0.5,0.3-1,0.1-1.2-0.3c-0.7-1.2-2-1.3-3.1-1.7c-0.6-0.2-1.2-0.4-1.8-0.7
		c-1-0.4-1.4-1.1-1.3-2.2c0.1-1.1,1-1.1,1.6-1.3c1.5-0.7,3.1-0.5,4.7-0.4C207.2,100.7,207.6,100.8,207.9,100.3z"/>
	<path   d="M199.2,110.5c0.2-0.5,0.5-1,0.6-1.5c0.1-0.8,0.7-1.2,1.3-1.1
		c2.3,0.2,4.6-0.1,6.7,1.1c1.2,0.7,1.4,1.8,0.4,2.7c-2.4,1.9-1.5,1.9-4.8,0.5c-0.7-0.3-1.4-0.6-2.1-0.8
		C200.6,111.3,199.9,111.1,199.2,110.5z"/>
	<path   d="M490.5,188c0,0.6,0.1,1.1,0.1,1.6c0,1.1-0.6,1.9-1.6,2.1
		c-1.1,0.2-2.3,0.3-3.3,0.8c-0.3,0.2-0.8,0-1.4,0c0-1-0.6-1.5-1.7-1.8c0.8-0.9,0.1-2,1-2.7c0.7,0,1.2,0.5,1.9,0.6
		c0.8-0.3,1.1-1.7,2.3-1.4C488.7,187.3,489.6,187.7,490.5,188z"/>
	<path   d="M485.9,170.7c0.1,2.2-0.3,3.1-1.5,3.3c-1.3,0.2-2.5-0.2-3.7-0.7
		c-0.1-1,0-2.1-0.4-3.2C482.3,168.4,484,169.6,485.9,170.7z"/>
	<path   d="M458,175.5c0.5-0.5-0.4-1,0-1.6c0.8-1.3,1.1-1.4,2.8-0.6
		c2,0.9,2.5,2.2,1.5,3.9c-0.6,1-1.6,1.6-2.4,1.2c-0.8-0.4-2.1-0.6-1.7-2.1C458.2,176,458.1,175.7,458,175.5z"/>
	<path   d="M441.3,199.7c0.4,1.4,1.9,1.2,2.7,2.2c-0.6,0.8-0.6,1.9-1.7,2.5
		c-1.4,0.7-2.9,0.4-3.6-1c-0.2-0.5-0.5-1-0.5-1.5c-0.1-1.1,0.6-1.9,1.9-2C440.4,199.9,440.8,200,441.3,199.7z"/>
	<path   d="M305.6,266.7c-0.4-0.5-0.5-1.2-1.2-1.7c-0.8-0.6-0.7-1.9-0.2-2.8
		c0.3-0.5,0.8-0.9,1.3-0.6c0.8,0.4,1.8,0.1,2.6,0.4c0.7,1.2,1.2,2.5,0.4,3.7C307.8,266.7,306.8,267.1,305.6,266.7z"/>
	<path   d="M426.8,220.2c-1.7-2.3-2.9-2.3-1-5.3c0.7,0.8,2.1,0.2,2.7,1.3
		c0,0,0.1,0.1,0.1,0.1c1-0.5,1.5-0.3,1.4,1c-0.2,2.3-0.3,2.5-1.8,2.8C427.7,220.1,427.3,220.2,426.8,220.2z"/>
	<path   d="M482.3,181.2c-0.6,0.8-0.7,1.9-1.7,2.5c-1.2,0.8-1.8,0.8-2.7-0.3
		c-0.3-0.3-0.5-0.7-0.7-1c-0.2-0.3-0.7-0.2-0.8-0.6c0-0.1,0-0.1,0-0.2c0.5-0.7,0.1-2,1.3-2.3c1.4-0.3,2.6,0.2,3.6,1
		C481.5,180.6,482,180.6,482.3,181.2z"/>
	<path   d="M183.8,275.1c1.3,0,2.3,0.7,3.3,1.8c0.2,1.4-0.8,2.2-1.8,3.1
		c-0.8,0.6-1.7,0.4-2.5,0.4C180.9,278.1,182.8,276.7,183.8,275.1z"/>
	<path   d="M373.3,206.5c-0.7-0.1-1.3-0.2-1.9-0.2c-0.9,0.1-2,0-2.5-1.2
		c-0.9-2.2-0.8-2.5,0.6-3.8c1.3,0.3,2.3,1.2,3.4,1.9C374,204,374,205.3,373.3,206.5z"/>
	<path   d="M477.9,193.6c-0.2,1-1,0.6-1.6,0.6c-0.6-0.6-0.5-1.5-1-2
		c-0.9-0.9-0.9-2.1-0.2-2.8c0.7-0.6,2.2-0.5,3,0.4c0.5,0.5,0.8,1.2,1.7,1c-0.3,1.3-0.1,2.4-0.9,3.3
		C478.3,194.2,478.6,193.4,477.9,193.6z"/>
	<path   d="M179.9,93.2c0.9-0.9,0.9-0.9,0.9-2.3c2-0.4,2-0.4,4.5,1.1
		c-0.1,1-0.7,1.8-1.4,2.5c-0.8,0.8-1.6,1.4-2.8,1.1C179.9,95.4,180,94.3,179.9,93.2z"/>
	<path   d="M212.5,303.5c0.7-0.2,1.3-0.5,2-0.6c0.6,0.4,0.9,1.2,1.8,1.3
		c0.4,0,0.7,0.4,0.7,0.9c0,0.6,0,1.2,0,1.8c0,1.4-1.2,2.2-2.3,1.4c-0.8-0.6-1.9-1.2-1.9-2.5C212.7,305,212.1,304.4,212.5,303.5z"/>
	<path   d="M271.1,87.4c-0.7,0.2-1.2,0.3-1.2,1.1c0,0.4-0.3,0.7-0.6,1.1
		c-0.8,1-1.8,1.2-2.8,0.6c-0.8-0.5-1-1.7-0.4-2.7c0.4-0.6,0.8-1.3,1.2-1.9c0.7-0.9,1.4-1,2.1,0c0.2,0.3,0.3,0.7,0.7,1
		C270.5,86.5,270.7,86.9,271.1,87.4z"/>
	<path   d="M60.4,57.7c-0.6-0.5-1-0.9-1.5-1.4c0.2-1,1.1-1.8,1.4-2.8
		c0.3-1,2.1-1.3,3-0.6c0.2,0.1,0.3,0.4,0.6,0.5c1.1,0.5,1.2,1,0.3,1.7c-0.2,0.1-0.5,0.1-0.6,0.4C63.3,57.2,61.7,57.2,60.4,57.7z"/>
	<path   d="M251.7,128.6c0.8,0.6,1.4,1.3,2.5,1.2c0,2.1-1.2,3.2-2.6,4.2
		c-0.1,0-0.2,0-0.3-0.1c-0.8-0.3-2-0.2-2.2-1.4c-0.2-1.3,0.5-2.2,1.4-3C250.8,129.3,251.2,129,251.7,128.6z"/>
	<path   d="M185.3,152.8c1.7-2.3,3.5-1.5,5.3-0.6c0,1.9-1.3,2.9-2.6,3.8
		c-0.8,0.6-2.1-0.2-2.3-1.3C185.6,154,185.7,153.3,185.3,152.8z"/>
	<path   d="M251,114.4c-1.2-1.3-1.2-1.3,0.1-3.2c0.3-0.4,0.4-0.9,0.9-1.2
		c1-0.4,2,0.7,3.2,0.1c0.3,1.3,0.5,2.5-0.5,3.3C253.7,114.1,252.6,115,251,114.4z"/>
	<path   d="M147,163.9c0.4-1.3,0.8-2.5,1.6-3.5c0.9-1.2,1.6-1.4,2.6-0.2
		c0.3,0.4,0.7,0.8,1,1.2c-0.2,0.9-1,1.5-1.3,2.4C150.6,165,148.4,165,147,163.9z"/>
	<path   d="M172.7,276.4c0.7,0.1,0.5,0.7,1,0.7c0.9,0,1.6,0.3,1.7,1.3
		c0.2,1.2-0.4,2-1.3,2.6c-1.1,0.7-2.6,0.9-3.1,0.3c-0.9-1-0.3-1.8,0.1-2.9C171.4,277.6,172.4,277.4,172.7,276.4z"/>
	<path   d="M156.9,227.5c-0.6,0.9-1.2,1.6-1.9,2.1c-0.9,0.6-2.2,0.6-2.8,0
		c-0.5-0.5-0.5-2.3,0.1-3c0.3-0.4,0.6-0.7,1-1c1.2-0.9,1.6-0.9,2.4,0.4C156,226.5,156.3,227,156.9,227.5z"/>
	<path   d="M158.5,217.6c-0.7,0-1.4,0.5-1.9,1c-0.5,0.5-1.1,0.6-1.7,0.6
		c-0.8,0-1.2-0.3-1.2-1.1c0-0.6,0-1.3,0-2c0.7-0.4,1.3-0.9,1.9-1.4c0.8-0.7,1.6-0.5,2.2,0.3C158.7,216,158.7,216,158.5,217.6z"/>
	<path   d="M473.7,34.2c-1.7-0.5-2.4-1.9-3.3-3.3c-0.3-0.4-0.7-0.9-0.2-1.4
		c0.5-0.5,1.1-0.9,1.9-0.6c0.8,0.3,1.6,0.6,2.3,1.3c1.3,1.2,1.3,2,0.1,3.2C474.2,33.7,474,33.9,473.7,34.2z"/>
	<path   d="M153.2,141.6c0.4,0.2,0.9,0.4,1.3,0.7c1,0.5,1.3,1.5,0.6,2.4
		c-0.9,1.2-2,2.2-3.7,1.8c-0.9-0.2-1.3-0.9-1.1-1.8C150.6,143,152.1,142.5,153.2,141.6z"/>
	<path   d="M245.8,120.1c1.9-0.9,2.9,0.2,3.9,1.5c-0.4,1.3-1,2.5-2.3,3.1
		c-0.7,0.3-1.4,0.4-2-0.1c-0.6-0.5-0.7-1.1-0.3-1.9c0.2-0.4,0.2-1,0.5-1.5C245.7,120.9,245.7,120.5,245.8,120.1z"/>
	<path   d="M427.9,202.6c1-0.9,2.5-1,3.4-0.4c0.1,0.1,0.2,0.2,0.2,0.3
		c-0.3,1.3,1,1.8,1.3,2.7c0.3,0.9-0.1,1.5-1,1.6c-2.3,0.3-3.1-0.3-3.5-2.7C428.2,203.5,428,203.1,427.9,202.6z"/>
	<path   d="M285.1,85.1c0.4-0.8,1-1.1,1.3-1.8c0.4-1.2,1.6-1.4,2.7-0.7
		c0.4,0.2,0.8,0.2,1.1,0.4c0,2.6-1.2,3.9-4,4.5c-0.3-0.1-0.4-0.4-0.5-0.7C285.3,86.3,285.3,85.7,285.1,85.1z"/>
	<path   d="M392.1,214c-1.2,0.9-2.5,0.6-3.6,0.7c-0.8,0-1.3-1-1.4-1.9
		c-0.1-0.8-0.1-1.6,0.5-2.4c1.1-0.3,2.1,0,3.3,0.4C391.2,211.7,391.6,212.8,392.1,214z"/>
	<path   d="M74.6,77.8c-1.4-1.9,1-3.1,0.8-4.7c2.2-0.6,3.8,0.8,3.4,2.9
		c-0.2,0.9-1.3,1-1.9,1.5C76.3,78,75.5,78,74.6,77.8z"/>
	<path   d="M161.5,245.9c1.3,1.1,0.7,2.4,0.2,3.2c-0.5,0.9-1.9,1.2-3,1.5
		c-0.7,0.2-1.1-0.6-1.4-1.2c-0.4-0.9,0.3-2.4,1.3-3C159.5,246,160.2,245.8,161.5,245.9z"/>
	<path   d="M453.6,187.9c1.4-0.5,3.2-0.2,3.6,0.8c0.3,0.9,1.3,1.6,0.6,2.9
		c-0.5,0.9-1.1,0.9-1.9,0.8c-0.7-0.1-1.6,0.2-1.8-1c-0.1-0.7-0.3-1.3-0.8-1.9C452.9,189,453.7,188.6,453.6,187.9z"/>
	<path   d="M209.4,119.5c1.5,1,1.8,2.2,1.5,3.7c-1.4,0.7-2.2,3-4.5,1.9
		C206,122.4,207.9,121.1,209.4,119.5z"/>
	<path   d="M307.6,104.5c-0.8,0-1.6-1.2-1.3-2.1c0.3-0.8,0.6-1.5,0.8-2.3
		c0.1-0.8,0.8-1.1,1.6-0.9c1,0.3,2.2,1.4,2.2,2.2c0,0.9-1.1,2.4-2.2,2.7C308.4,104.3,307.9,104.1,307.6,104.5z"/>
	<path   d="M73.8,48.7c-0.6,0.5-1.4,0.6-2.1,1.3c-0.6,0.6-1.8,0.4-2.7,0
		c-0.6-0.3-0.5-0.9-0.3-1.4c0.3-1.3,1.4-1.9,2.1-2.8c0.3-0.5,1.2-0.3,1.6,0C73.4,46.4,74.5,47.1,73.8,48.7z"/>
	<path   d="M423.8,195.1c2-0.2,2.7,0.4,3.8,2.8c-0.1,0.3-0.3,0.6-0.4,1
		c-0.1,0.3-0.2,0.7-0.3,1c-0.5,0.4-0.8-0.4-1.3-0.1c-0.8,0.5-1.8,0.4-2.2-0.3c-0.4-0.7-0.7-1.8-0.1-2.6
		C423.6,196.2,423.6,195.6,423.8,195.1z"/>
	<path   d="M170.9,80.8c0.9-0.2,1.8-0.1,2.7,0.3c0.6,0.3,1.3,0.6,1.1,1.3
		c-0.1,0.7-0.3,1.7-1.2,1.8c-0.8,0.1-1.2,0.7-1.7,1.1C169.7,85.1,168.8,84.7,170.9,80.8z"/>
	<path   d="M158.7,107.3c0.3-1.6,1.6-2.1,2.3-3c2.2,0,2.8,0.5,2.6,2.2
		c-0.2,1-2.5,2.8-3.6,2.7C159.5,109.1,159.1,108.5,158.7,107.3z"/>
	<path   d="M163.4,202.1c1.4,0.4,2.7,0.9,2.7,2.7c-0.3,0.6-1.2,0.7-1.4,1.7
		c-0.2,1-1.4,0.5-2.2,0.7c-0.6,0.1-1.2-0.2-1.2-0.9c0-0.5-0.5-0.7-0.4-1.1C161.8,204.3,162.6,203.2,163.4,202.1z"/>
	<path   d="M169.6,261.7c0.2,0.8-1,1.2-0.2,2.1c-0.8,0.1-1.3,0.4-1.7,0.9
		c-0.3,0.4-0.8,0.6-1.4,0.7c-1.3,0.1-1.8-0.4-1.5-1.7c0.2-0.8,0.5-1.5,0.7-2.3c0.2-0.5,0.6-0.6,1.1-0.7
		C167.6,260.6,168.1,260.7,169.6,261.7z"/>
	<path   d="M209.5,150.8c1.1,0.2,1.9-0.1,2.5-0.7c0.7,0.3,0.9,1,1.4,1.4
		c0.7,0.5,0.5,1.5-0.4,2.4c-1.5,1.5-2.4,1.9-3.1,1.2c-0.7-0.5-1-1.9-0.5-2.5C210,152,209.6,151.6,209.5,150.8z"/>
	<path   d="M156.9,181.6c0.6-0.2,1.1-0.1,1.6-0.5c0.6-0.5,1.1-0.2,1,0.6
		c-0.1,0.7,0.9,0.8,0.8,1.7c-0.7,2.2-1.5,2.7-4.2,2.6c-0.9-0.6-0.4-1.4-0.2-2.2C156.1,183.1,156.9,182.5,156.9,181.6z"/>
	<path   d="M435.6,57.3c0.9,0.2,1.7,0.5,2.6,0.7c1.5,0.4,2,2,1,3.1
		c-0.6,0.7-1.2,1.6-2.5,1c-0.4-0.3-0.1-1.2-1.2-1.5C434.6,60.4,434.7,58.5,435.6,57.3z"/>
	<path   d="M257.2,61c0.1,1.2-0.8,1.6-1.6,1.9c-1,0.4-2.4-0.2-2.9-1
		c-0.1-0.2-0.1-0.4-0.3-0.6c-0.5-0.7-0.5-1.4,0-2.1c0.5-0.6,1.2-0.4,1.8-0.3c0.8,0.1,1.5,0.5,2.2,0.8
		C256.9,59.8,257.3,60.3,257.2,61z"/>
	<path   d="M414.7,189.7c0.1,1.4-0.7,2.2-1.6,2.8c-0.9,0.5-1.6,0.3-1.8-0.7
		c-0.2-0.9-0.7-1.8-0.9-2.7c-0.3-1,0-1.5,0.8-1.8c0.7-0.3,1.4-0.2,1.8,0.8C413.1,188.8,413.8,189.5,414.7,189.7z"/>
	<path   d="M166.8,155c-1.1,0.2-1.8,0.9-2.2,1.8c-0.9,0-1.5-0.4-2.3-0.8
		c0.3-1.1-1-2.5,0.4-3.5c1.1-0.8,2.4-0.3,3.5,0.1C166.8,152.8,166.8,153.1,166.8,155z"/>
	<path   d="M155.1,131.1c0.3-0.2,0.8-0.4,0.9-0.6c0.3-0.7,0.6-1.4,1.4-1.3
		c1.1,0.2,2.1,0.5,2.9,1.4c0.1,0.1,0.2,0.5,0.1,0.7c-0.6,1-1.3,2.1-2.5,2.5c-0.9,0.3-1.8,0-2.2-1
		C155.5,132.3,155.4,131.8,155.1,131.1z"/>
	<path   d="M197.2,280.6c-0.6-2.2,1.2-3.1,2.1-4.4c0.3-0.4,1-0.4,1.3-0.1
		c0.4,0.5,1.2,0.8,1.1,1.8C201.5,280.3,199.5,281.6,197.2,280.6z"/>
	<path   d="M224,117.1c-1.1,2.7-1.8,3.3-4.7,3c-0.6-1.6,0.4-2.8,0.7-4.2
		C221.5,115.7,223,115.4,224,117.1z"/>
	<path   d="M61.5,32c1-0.3,1.6-1.4,2.7-0.9c0.9,0.4,0.6,1.7,1.6,2.1
		c0,0.8-1.1,1.3-0.5,2.2c-0.9,0.5-1.7,0.3-2.5,0.6c-1.2,0.4-1.8-0.3-1.5-1.5c0.1-0.4,0.3-0.7,0.3-1.2C61.5,32.8,61.5,32.4,61.5,32z"
		/>
	<path   d="M465.9,196.2c0.2,0.8,0.1,1.3,0.1,1.9c-0.4,0.5-0.9,0.6-1.3,0.9
		c-1.3,0.9-2.5,0.5-2.8-1.1c-0.1-0.6-0.2-1.1-0.4-1.7c-0.3-0.9,0.4-1.8,1.3-1.6c0.6,0.1,1.4,0,1.7,0.9
		C464.6,196.3,465.3,196.1,465.9,196.2z"/>
	<path   d="M281.3,71.7c-1.6,1.2-3.2,1.1-4.8,0.3c-0.8-0.4-0.9-1.4-0.7-2.4
		c1.7-1.2,3.5-0.1,5.4-0.3C280.8,70.3,281.5,70.8,281.3,71.7z"/>
	<path   d="M167.5,214.5c0-1.4,1.4-3.1,2.7-3.2c0.6-0.1,1.1,0.2,1.3,0.7
		c0.3,0.7,0.7,1.5,0.3,2.3c-0.4,0.7-1,1.4-1.8,1.8C168.8,216.7,167.5,216,167.5,214.5z"/>
	<path   d="M445,64.4c2.5-1.3,4.6-0.9,5.7,1.3c-0.9,1-1.6,2.7-3.4,1.7
		C446.1,66.8,444.6,66.3,445,64.4z"/>
	<path   d="M368.2,245.3c-0.6,0.2-1.1,0.6-1.2,1.2c-2,0.3-2.8-1.1-3.7-2.3
		c-0.4-0.6,0-1.2,0.5-1.7c0.5-0.6,1.1-0.8,1.7-0.5C366.8,242.6,368.2,243.2,368.2,245.3z"/>
	<path   d="M237.8,309.5c0.2,0.4-0.2,0.6-0.1,1c0.1,1.3-0.4,1.9-1.6,2.2
		c-0.8,0.2-2-0.4-2.3-1.3c-0.2-0.6-0.8-0.9-0.8-1.7c0.1-1.2,0.9-1.9,2-1.5C235.9,308.5,236.9,309,237.8,309.5z"/>
	<path   d="M80.3,59.8c-1.3,0-1.9-0.9-1.4-1.9c0.4-0.7,0.7-1.4,1-2.2
		c0.3-0.7,0.9-0.9,1.6-0.8c0.7,0.1,1.2,0.5,1.2,1.3c0,0.2,0,0.3,0.2,0.5c0.9,1,0.9,1.6-0.3,2C81.7,58.9,81.2,60,80.3,59.8z"/>
	<path   d="M259,279.1c0,0.5,0,1.1,0,1.6c-0.1,1.4-1,2-2.3,1.4
		c-0.5-0.2-1.3,0.5-1.4-0.4c-0.2-1-0.5-2.1-0.4-3.1c0-0.8,1.7-1.3,2.5-0.8c0.3,0.2,0.5,0.5,0.8,0.7
		C258.3,278.7,258.6,278.8,259,279.1z"/>
	<path   d="M436.4,209.2c0.8,1.8,2.8,3.2,1.3,5.5c0,0-0.1-0.1-0.2-0.1
		c-2,0.4-2.6-1.2-3.4-2.5c-0.5-0.8-0.1-2,0.8-2.4C435.3,209.5,435.8,209.4,436.4,209.2z"/>
	<path   d="M105,43.6c-0.6-1.7,0.3-3,1.4-4c0.4-0.4,0.9-1.2,1.6-0.6
		c0.6,0.5,1.2,1.1,1.2,2.1C109.2,43.1,107.1,44.4,105,43.6z"/>
	<path   d="M443.8,187.6c1.8-0.3,2.6,1.2,3.5,2.3c0.9,1.2,0.2,2.5-1.4,3
		c-0.4,0.1-0.8,0.4-1.4,0.2C444.4,191.3,442.9,189.6,443.8,187.6z"/>
	<path   d="M198.2,264.4c0.6,0.6,0.8,1.5,1.6,2c-0.4,1.4-1.3,2.3-2.7,2.8
		c-0.8,0.3-1.4,0.3-1.9-0.4c-0.6-1-0.6-2,0.2-2.5c0.4-0.3,0.7-0.5,0.9-1C196.8,264.5,197.4,264.2,198.2,264.4z"/>
	<path   d="M237.6,52.6c1.4-1.5,2.9-1.1,4.4-0.5c0.2,0.6,0.4,1.2,0.6,1.8
		c-0.4,1.4-1.9,1.3-2.8,1.9c-0.6,0.4-2-1-2.2-2C237.6,53.4,237.6,52.9,237.6,52.6z"/>
	<path   d="M249.4,312.4c-0.9,0.4-1.1,1.5-2.1,1.7c-0.5,0.1-1,0.1-1.7-0.1
		c0-0.9-0.6-1.6-0.9-2.3c-0.3-0.6-0.4-1.2,0.1-1.8c0.5-0.5,1.2-0.6,1.8-0.3C247.8,310.2,248.9,310.8,249.4,312.4z"/>
	<path   d="M472.1,152.3c1.7,0,2.9,2,2.7,3.7c-0.2,1.4-1.2,0.9-1.8,1.2
		c-0.7,0.3-1-0.3-1.3-1c-0.4-0.8-0.8-1.5-0.9-2.3C470.5,152.6,470.9,152.2,472.1,152.3z"/>
	<path   d="M301.2,290.3c1.3-1.1,2.2-0.9,3.2,0c1.3,1.1,2,2.4,0.8,4.4
		c-0.1,0.1-0.7-0.1-1,0.3C302.4,293.7,301.7,292,301.2,290.3z"/>
	<path   d="M120.8,35.1c0.2,2-1.4,3.8-3.4,3.7c-1-0.1-1.3-0.7-1.2-1.7
		c0.1-0.9,0.7-1.5,1.1-2.1c0.6-0.9,1.3-0.9,2.6-0.2C120.2,34.9,120.6,34.8,120.8,35.1z"/>
	<path   d="M378.2,261.1c-0.4,0.8-0.9,1-1.3,1.5c-0.8,1-2.1,1-2.8-0.1
		c-0.6-0.9-1.4-1.7-1.5-2.9c1.2-1,1.8-1.1,2.9-0.4C376.3,259.9,377.5,260.2,378.2,261.1z"/>
	<path   d="M100.3,53.8c-0.9,3.2-1.7,3.9-4.2,3.4c-0.2-0.8-0.5-1.7-1.4-2.5
		c1.4-0.2,2.5-0.4,2.5-1.9C98.6,52.4,99.3,53.5,100.3,53.8z"/>
	<path   d="M290.4,95.4c1.5-0.1,1,1.8,2.1,2.3c-0.9,0.9-1.8,1.7-2.5,2.8
		c-0.7-0.2-1.5-0.3-2.1-0.8C287.4,97.7,287.7,95.9,290.4,95.4z"/>
	<path   d="M261.1,96.5c-1.1,1.2-1.9,2.8-4.1,2.7c-0.4-0.7-1.5-1.4-0.8-2.3
		c0.7-0.9,1.2-2.4,2.6-2.4C260.4,94.5,260.7,94.9,261.1,96.5z"/>
	<path   d="M309,111.9c-0.4,0.2-0.8,0.6-1.2,0.4c-0.5-0.3-0.7,0-1,0.3
		c-0.7,0.6-1.4,0.8-2.2,0.1c-0.8-0.6-0.4-1.3,0-1.8c0.4-0.6,0.1-1.3,0.5-1.9c1,0.3,2-0.8,3.1,0.4C308.9,110.1,309.3,110.8,309,111.9
		z"/>
	<path   d="M458.4,48c-0.7-1.2-3-1.5-2.3-3.7c1.3-0.9,2.7-0.2,4-0.1
		c1.1,0.1,1.4,1.1,0.7,2C460.3,47,460,48,458.4,48z"/>
	<path   d="M146.8,182.5c0.4-0.9,0.7-1.8,0.8-2.6c0.1-0.8,0.6-1,1.3-0.8
		c1,0.3,2.1,0.1,3,1.3c0.2,1.6-1.5,2.1-2.5,3C148.5,184,147.7,183.3,146.8,182.5z"/>
	<path   d="M278.1,98.6c-0.3,1.2-0.8,2.1-1.4,3c-1,1.4-1.4,1.5-2.9,0.5
		c-0.7-1.1,0.8-2.2,0-3.3C275.4,97.8,276.4,97.7,278.1,98.6z"/>
	<path   d="M472.1,188.1c-1,1.5-1.8,1.9-3,1.3c-0.9-0.4-2.1-2.4-1.8-3.3
		c0.2-0.7,0.5-1.3,1.4-1.2c1.2,0.1,2.4,0.9,2.5,2.1C471.3,187.8,471.9,187.7,472.1,188.1z"/>
	<path   d="M390.3,59.1c-0.5,0.5-0.3,1.3-0.4,1.9c-0.6,0.5-1.5-0.1-1.9,0.7
		c0,0.1-0.8,0-0.8-0.1c-0.3-1.5-2.7-1.7-2.1-3.8C386.9,57.4,388.7,57.3,390.3,59.1z"/>
	<path   d="M313.9,296.4c1.2,0.6,2.5,0.6,3.7,1.7c0.2,0.3-0.2,1.2,0.9,1.7
		c-1.3,0.6-2.2,1.1-3.3,1.6c-0.3-1.2-1.4-1.6-1.9-2.7C312.8,297.7,313,297.1,313.9,296.4z"/>
	<path   d="M452.1,200.3c1.5,0.6,2.9,1.1,3.5,2.5c-0.4,1.5-1.3,2.4-3.1,2.1
		C450.4,202.8,450.3,201.8,452.1,200.3z"/>
	<path   d="M473.8,165.5c-0.3,1.6-1.3,2.5-2.5,2.8c-1.1,0.3-1.2-0.9-1.9-1.3
		c-0.6-0.3,0-2.7,0.6-3.5C471.6,163.5,472.3,165.2,473.8,165.5z"/>
	<path   d="M91.8,40.5c1-1,1-2.7,2.8-3.1c0.3,1.1,2.6,0.5,2.2,2.4
		c-0.2,0.8-2.3,2.5-3.1,2.4C92.7,42.2,92,41.8,91.8,40.5z"/>
	<path   d="M401,221.3c-0.4-0.1-0.8-0.3-1.3-0.4c-0.8-0.1-1.3-0.6-1.2-1.4
		c0-0.8-0.2-1.5-0.6-2c0.2-0.8,0.8-0.9,1.4-1.1c1,0.5,2.1,1,3,1.7c0.6,0.5,0.8,0.9,0.1,1.5C401.8,220,401.9,220.9,401,221.3z"/>
	<path   d="M88.6,62.3c0.3,0,0.6,0,1,0c0.9,0,1.8,0.1,2.1,1.1
		c0.2,0.6-0.5,2.2-1.3,2.4c-0.7,0.2-0.8,1-1.5,1.1c-0.6,0.1-1-0.6-1.7-0.4C87.2,64.9,87.4,63.5,88.6,62.3z"/>
	<path   d="M264.6,310.9c-0.3,0.4-0.6-0.1-0.9,0.1c-0.3,0.4,0.1,1-0.2,1.4
		c-1.9,0.5-2.7,0.1-3.5-1.6c-0.3-0.5-1-0.8-1-1.6c0.7-1,1.7-1.2,2.9-0.5C262.9,309.4,264,309.9,264.6,310.9z"/>
	<path   d="M274.4,310.7c-0.2,0.7-0.3,1.3-0.5,2c-0.9-0.5-1.9-0.2-2.8-0.4
		c-0.9-0.9-1.5-2-1.7-3.2c-0.1-0.8,0.2-1.1,1-0.9C272.5,308.5,272.5,308.5,274.4,310.7z"/>
	<path   d="M241.4,83.9c-0.3-0.2-0.2-0.6-0.3-0.8c-0.1-0.2-0.2-0.4-0.4-0.7
		c1.1-0.9,1.5-2.4,3-2.7c0.8,0.2,1.1,1,1.8,1.4c0.4,0.2,0.3,0.6,0.2,1c-0.3,1.2-2.1,2.3-3.4,2C242.1,84,241.7,84.2,241.4,83.9z"/>
	<path   d="M300.6,88.5c0.7-1.2,1.5-2.3,1.5-3.7c1.3-0.5,1.5,1.3,2.6,0.9
		c0.7,1.9-0.5,3-1.4,4.2c-0.4,0.5-1.8,0.3-2.2-0.3C300.9,89.2,300.7,88.8,300.6,88.5z"/>
	<path   d="M274.3,298.3c1.6-1,1.7-1,2.8,0.6c0.3,0.5,0.9,0.4,1.2,0.7
		c0.4,0.7-0.2,1.3,0.1,2c0.1,0.3-0.2,0.6-0.4,0.7c-1.5,0.8-3.3-0.1-3.5-1.6C274.5,299.9,274.1,299.1,274.3,298.3z"/>
	<path   d="M362.4,261.9c-0.3-0.5-0.1-1-0.3-1.5c-0.2-0.5-0.4-1-0.6-1.5
		c1.7-1.3,3.7-0.8,4.5,1.2c0.5,1.2-0.3,2.3-1.6,2.4C363.6,262.6,362.9,262.2,362.4,261.9z"/>
	<path   d="M489.5,182.7c-0.9-1-0.8-2.4-1.9-3.1c0.5-0.5,0.9-0.9,1.2-1.3
		c0.6-0.2,0.9,0.2,1.3,0.3c1.6,0.3,2.7,1.4,2.6,2.4C492.5,182.3,491.4,182.9,489.5,182.7z"/>
	<path   d="M251.1,296.7c2.9,1.5,3.1,2.8,1.7,4.9c-0.6,0.2-1.2,0.2-1.9,0.1
		c-0.8-1.2-1.4-2.6-1.6-4.1C249.8,296.9,250.7,297.2,251.1,296.7z"/>
	<path   d="M382.8,227.4c0.6-0.3,0.6-1,0.8-1.4c1.8,0.1,3.4,0.4,4,2.5
		c-0.3,0.9-0.8,1.9-1.9,2C383.8,230.7,383.7,228.7,382.8,227.4z"/>
	<path   d="M162.5,164c-0.6,0.9-1.3,1.5-2.1,2.1c-0.7,0.5-2,0.5-2.5-0.1
		c-0.5-0.6-0.2-1.2,0.1-2c0.4-1.4,1.2-1.8,2.5-1.7C161.6,162.3,162.1,162.9,162.5,164z"/>
	<path   d="M466.6,147c-0.6,0.8,0.2,1.8-0.8,2.5c-0.7,0.5-1.4,0.8-2.3,0.6
		c-1-0.9-1.7-2-1.4-3.5c0.1-0.5,0.1-1,0.7-1.1c0.5-0.1,0.9-0.1,1.2,0.3C464.6,146.6,465.4,147,466.6,147z"/>
	<path   d="M151.4,202.7c-1.4-0.7-1.7-1.7-0.9-3.2c0.6-1.2,2.4-1.7,3.6-0.9
		c1.3,0.8,1.2,1.1,0.1,2.2c-0.4,0.4-0.9,0.9-1.4,0.9C152,201.6,151.9,202.3,151.4,202.7z"/>
	<path   d="M185.8,137.2c0.5-0.3,1-0.2,1.3-0.6c0.7-0.8,1.8-0.7,2.6-0.1
		c0.8,0.6,0.7,2.1-0.3,2.6c-0.3,0.1-0.7,0-0.9,0.4c-0.5,1.2-1.5,1-2.4,0.6c-0.7-0.4-1-1.2-0.5-2.1
		C185.7,137.7,185.7,137.5,185.8,137.2z"/>
	<path   d="M450.3,38.4c-2.6,0-4.8,0.1-5.9-2.5c0.8-1.6,1.5-1.9,3.2-1
		C448.8,35.6,449.5,36.8,450.3,38.4z"/>
	<path   d="M292.4,295.3c-0.4,0.7-0.9,0.8-1.3,1.1c-0.7,0.6-1.7,1.2-2.3,0.7
		c-0.9-0.6-1.6-1.6-1.7-2.9c0-0.9,0.3-1.2,1.3-1.2C290.2,293.1,291.1,294.5,292.4,295.3z"/>
	<path   d="M293,113.6c0.3-1.6,0.9-3.1,2.1-4.3c0.7,0.1,0.3,1.3,1.4,1
		c0.5-0.2,0.9,0.8,0.8,1.3c-0.1,1.1-0.8,2-1.6,2.6C295.2,114.6,293.8,114.2,293,113.6z"/>
	<path   d="M88.1,44.3c0.5,1.2,0.2,2.1-1,2.7c-0.2,0.1-0.5,0.2-0.5,0.4
		c-0.4,1-1.3,0.8-1.9,0.5c-0.7-0.3-1-1-0.6-1.8c0.3-0.6,0.2-1.4,0.8-1.9C86,43,87,43.6,88.1,44.3z"/>
	<path   d="M403.3,244.3c-1.9,0.6-2.8-0.7-3.7-1.6c-0.4-0.4-0.6-1.1-0.1-1.8
		c0.5-0.7,1-0.9,1.8-0.8c1.1,0.2,2.7,1.6,2.8,2.6C404.1,243.4,403.4,243.7,403.3,244.3z"/>
	<path   d="M467.8,176.4c0.7,0.9,1.3,1.7,2.1,2.3c0.6,0.4,0.5,0.9,0,1.5
		c-1.3,1.3-2,1.3-3.5,0c-0.4-0.4-0.8-0.7-1.1-1.3C465.5,177.5,466.7,177.1,467.8,176.4z"/>
	<path   d="M283.8,111.6c-0.8,1-2.1,1-3,1.8c-0.5,0.4-1.5,0.1-1.9-0.8
		c0.1-0.5,0.4-1,0.3-1.6c-0.1-1.2,0.9-1.6,1.7-2c0.4-0.2,1.9,0.9,2.1,1.6C283.3,110.9,283.6,111.2,283.8,111.6z"/>
	<path   d="M306.2,56.1c-1.5-0.2-0.5,1.2-1.4,1.6c-0.8,0.3-1.5-0.4-2.3,0.2
		c0.2-1.2-0.8-0.9-1.3-1.3c-0.7-0.6-0.6-1.2-0.5-1.9C302.9,53.6,304.4,54,306.2,56.1z"/>
	<path   d="M395.3,201.5c1-1.6,1-1.6,3.6-1c0.4,0.3,0.2,0.9,0.4,1.3
		c0.6,1.1,0.5,2-0.2,2.4c-1,0.5-2.3,0.2-2.9-0.7C395.9,202.8,395.6,202.1,395.3,201.5z"/>
	<path   d="M383,204.9c-0.3-0.3-0.6-0.7-0.9-0.7c-1.8,0-1.7-1.5-2.1-2.5
		c-0.2-0.7,0.6-1.5,1.4-1.4c1.3,0.1,2,1.2,3,1.9c0.3,0.2,0.2,0.8,0.1,1.2C384.3,204,383.9,204.4,383,204.9z"/>
	<path   d="M177.6,208.1c0.3-1.6,0.9-3,2.8-3.2c1.3-0.1,1.7,0.8,2.1,1.9
		c-0.6,0.6-1.2,1.3-1.9,2C179.8,209.4,179.2,209.3,177.6,208.1z"/>
	<path   d="M312.9,54.1c1.1,1.3,2.9,1.9,2.9,4.1c-0.2,0.4-1,0.3-1.4,0.9
		c-0.5-0.3-1.3,0-1.4-0.9c0-0.3-0.4-0.6-0.8-0.6c-0.6,0-1.2-0.1-1.3-0.9c-0.1-0.7,0.2-1.3,0.8-1.6C312.1,54.9,312.3,54.4,312.9,54.1
		z"/>
	<path   d="M373,226.7c-1.7-0.2-2.1-1.8-2.7-3.3c0.4-0.5,0.7-1.1,1.1-1.6
		c1.9-0.1,2.3,1.7,3.4,2.5C375.2,225.6,373.6,225.7,373,226.7z"/>
	<path   d="M63.9,91.4c-3.9,0.2-3.9,0.2-3.8-2.2c0.7-0.5,1.5-1.1,2.2-1.6
		c1.2,0.1,1.8,1.2,2.7,1.6C65.2,90.3,64,90.5,63.9,91.4z"/>
	<path   d="M397.1,231.3c-0.2,0.3-0.4,0.5-0.6,0.7c-1,1.3-2.3,1.6-3-0.3
		c-0.2-0.6-0.8-0.6-1.1-1.1c0-1.9,0.1-2.3,1.2-2.2c0.9,0.1,1.9,0.3,2.4,1.3C396.2,230.3,396.7,230.6,397.1,231.3z"/>
	<path   d="M461.3,54.6c0,0.6,0.3,1,0.7,1.4c-0.2,0.2-0.4,0.3-0.6,0.4
		c-0.6,0.4-0.8,1.6-1.7,1.1c-0.9-0.5-1.9-0.5-2.7-1.3c-0.3-0.3-0.7-0.7-0.5-1.2c0.2-0.6,0.6-1,1.3-1C458.9,54,460.1,54,461.3,54.6z"
		/>
	<path   d="M414.5,211.3c0.9,1.6-0.5,2.3-0.7,3.4c-0.4,0.3-1,0.3-1.2,0.1
		c-0.6-0.6-1.2-1.3-1.6-2c-0.4-0.7,0.2-2.2,1.2-3.3C412.8,210.3,413.6,211,414.5,211.3z"/>
	<path   d="M351.2,278.7c0.4-0.3,0.9-0.6,1.3-0.8c1.5,0.7,3.7,0.6,2.9,2.9
		c-0.1,0.6-0.4,0.7-0.6,0.8c-0.6,0.7-1.3,1.2-2.3,0.7c-0.8-0.4-1.4-1.9-1.1-2.8C351.7,279,351.5,278.9,351.2,278.7z"/>
	<path   d="M256.1,75.1c-0.3,0.4-0.6,0.2-0.9,0.4c0,0.5,0.4,0.6,0.9,0.4
		c-0.1,0.3-0.2,0.5-0.2,0.5c-0.8,0-1.6,0.1-2.5,0.1c-1.3,0-2-0.9-2.6-1.9c-0.4-0.8,0.4-1.7,1.4-1.6
		C253.8,73.1,255.4,73.4,256.1,75.1z"/>
	<path   d="M357.2,188.3c0.2-0.6,0.2-1.3-0.1-1.9c-0.3-0.8-0.1-1.2,0.7-1.2
		c1.9-0.2,3.6,0.7,3.6,2.6c0,0.9-0.4,1.3-1.3,1.3C359.2,188.9,358.2,188.6,357.2,188.3z"/>
	<path   d="M453,158.2c0.7,0.8,1.8,0.8,2.6,1.5c0.9,0.8,1.1,1.3,0,2
		c-0.7,0.4-1.5,1.2-2.5,0.7c-0.2-0.1-0.5,0.4-0.9,0.1C452.4,161.1,450.8,159.4,453,158.2z"/>
	<path   d="M170.6,98.8c-0.5-0.5-1.6-0.8-1.3-1.9c0.3-0.9,0.7-1.7,1.7-2.1
		c1.2-0.4,1.8-0.3,2.4,0.7c0.7,1.2,0.6,1.4-0.7,2.3c-0.4,0.3-0.7,0.6-1.2,0.8C171.3,98.7,171.2,98.9,170.6,98.8z"/>
	<path   d="M384.9,241.7c0-1,0.8-1.4,1-2c2.6,0.3,2.9,0.5,3.3,2.3
		c0.4,1.6-0.3,2.3-1.9,1.9c-0.3-0.1-0.7-0.1-1.2-0.2C386.2,242.7,385.6,242.1,384.9,241.7z"/>
	<path   d="M333.3,59.5c0.1-0.5,0.6-0.6,0.9-0.9c0.7-0.9,3.1-0.6,3.6,0.3
		c0.5,0.9,0.2,1.8-0.8,2.4c-1.9,1.1-2.6,0.8-3.2-1.1C333.7,59.9,333.5,59.7,333.3,59.5z"/>
	<path   d="M472,46.7c-1-0.4-1.9-0.7-2.8-1.4c-0.2-0.9-0.2-1.8,0.7-2.4
		c0.8-0.5,1.8,0.1,2.6-0.6C473.8,44.4,473.8,44.9,472,46.7z"/>
	<path   d="M223.4,296.5c1-0.5,2-1,3.2-0.4c-0.1,0.4-0.2,0.7-0.2,1
		c0.5,0.4,1.1,0.1,1.5,0.4c0.3,2.1,0.2,2.2-1.6,2.7c-0.6,0.1-1,0-1.4-0.5C224.2,298.8,223.6,297.8,223.4,296.5z"/>
	<path   d="M430.4,83.6c0.6,0.2,1.2,0.4,1.9,0.6c-0.5,0.8-0.7,1.6,0,2.3
		c0.4,0.4,0.4,1,0,1.4c-0.5,0.5-1.1,0.5-1.6,0c-0.6-0.6-1.2-0.9-2-1.1c-0.7-0.2-0.6-0.8-0.7-1.3c0-0.4,0.2-1,0.9-0.9
		C429.8,84.8,429.9,84,430.4,83.6z"/>
	<path   d="M388.1,249.8c2.5-0.4,3.1,1.5,4.1,2.8c-0.8,2.1-2.4,1.3-3.9,1
		C387.9,252.5,388.2,251.2,388.1,249.8z"/>
	<path   d="M313.6,79.4c-0.7,0-1.2,0-1.7-0.1c-0.9-0.3-1.3-0.8-1.1-1.8
		c0.2-1.1,1.2-1.6,1.9-2.3c0.6-0.5,1.1,0.3,1.7,0.6c1,0.6,1,1.2,0.3,2.1C314.4,78.3,313.8,78.6,313.6,79.4z"/>
	<path   d="M461.8,33.1c-0.1,0.6-0.6,1.2-0.4,1.9c-0.6,0.3-1.3,0.1-1.7,0.5
		c-1.1-0.8-2.1-1.6-2.7-2.9c0.6-0.4,0.4-1.6,1.5-2C459,32.2,460.9,31.8,461.8,33.1z"/>
	<path   d="M266,110c1.2,0.1,1.8-1.1,3-0.6c0.9,0.4,0.8,1.7,2.2,1.9
		c-1.4,0.9-2.4,1.6-3.5,2.2c-0.9,0.4-1.5-0.1-1.5-1.2C266,111.6,266.7,110.9,266,110z"/>
	<path   d="M331.9,258.7c1.6-0.6,4,0.3,4.5,1.7c0.3,0.8,0,1.5-0.8,1.9
		c-1.4,0.7-2.6,0-3.1-1.5C332.3,260.1,332.2,259.4,331.9,258.7z"/>
	<path   d="M304.1,314.2c-1.4,0.9-1.9,0.8-3.1,0c-1.1-0.8-0.6-2-1.1-2.9
		c1.6-1.5,2.8-1.3,3.5,0.7C303.7,312.7,304.4,313.3,304.1,314.2z M302.4,313.5c-0.2-0.1-0.3,0.1-0.3,0.3c-0.1,0.2,0.1,0.3,0.3,0.4
		c0.2,0,0.3-0.1,0.4-0.3C302.7,313.6,302.6,313.5,302.4,313.5z"/>
	<path   d="M240.2,101.9c-0.5-1.1,0.1-2.3,0.3-3.4c0.2-0.7,1-1.1,1.8-1.1
		c0.8,0,1.4,0.4,1.6,1.1c0.2,0.8,0.2,2.1-0.4,2.2C242.3,100.9,241.6,102.2,240.2,101.9z"/>
	<path   d="M416.7,227.4c-0.2,0.5-0.4,1.1-0.6,1.4c-1.4,0.5-2.4,0.1-3.4-1
		c-1.1-1.4,0.1-2.2,0.4-3.4C414.7,225,415.9,225.8,416.7,227.4z"/>
	<path   d="M327.6,295.2c0.1-1.3-0.3-2.6,0.3-3.8c0.8,0.2,1.6,0.4,2.3,0.7
		c1.3,0.5,1.7,2.1,0.8,3.2c-0.4,0.6-0.9,0.9-1.6,0.4C329,295.3,328.3,295.2,327.6,295.2z"/>
	<path   d="M438.2,77.1c-0.3,0.2-0.5,0.3-0.7,0.4c-0.2,0.1-0.4,0.3-0.6,0.4
		c-1.2,0.1-3.5-1.4-4-2.7c0.5-0.5,1.1-1,1.7-1.5C438.1,75.8,438.1,75.8,438.2,77.1z"/>
	<path   d="M204.9,299.2c-0.4,1.2-1.8,0.9-2.4,1.9c-0.7-1-1.3-1.8-1.8-2.6
		c-0.4-0.7-0.7-1.4,0.1-2c0.7-0.5,1.7-0.3,2.3,0.4c0.4,0.4,0.7,0.9,0.9,1.5C204.2,298.7,204.7,298.7,204.9,299.2z"/>
	<path   d="M261.1,291.8c1-0.1,1.8-0.1,2.8,0c0,1.2,0,2.2,1.4,2.3
		c0.1,0.8-0.3,1.2-0.6,1.7C261.8,295.9,261.1,295.8,261.1,291.8z"/>
	<path   d="M443.4,170.2c1.1,1.1,3.2,1,3,3.2c-1.5,1.5-2.8,1.8-3.2,0.9
		c-0.4-0.8-1.3-1.2-1.2-2.2C442,171.2,442.9,170.9,443.4,170.2z"/>
	<path   d="M227.3,107.3c1.7-0.7,1.8-3.2,4-2.2c1.1,2-0.4,3.1-1.4,4.4
		c-0.7,0.3-1.1-0.5-1.7-0.3C227.8,108.6,228.3,107.9,227.3,107.3z"/>
	<path   d="M282.4,61c1.1-1.6,3.1-2,4.6-1.2c0.6,0.4,0.9,1.7,0.6,2.4
		c-0.4,0.8-0.9,0.8-2,0.3C284.6,61.9,283.5,61.5,282.4,61z"/>
	<path   d="M225.8,95.3c-0.8-0.5-1.3-1-0.7-2.1c0.3-0.5,0.8-1.3,0-1.9
		c1-0.4,1.8-1.3,2.9-0.7c0.9,0.5,0.9,1.4,0.7,2.4C227.2,93,227.2,94.9,225.8,95.3z"/>
	<path   d="M290.1,309c-1.2-0.2-2,0.9-3.2,0.1c-0.6-0.7-1.1-1.7-1.3-2.8
		C287.8,304.8,289.5,305.8,290.1,309z"/>
	<path   d="M442.7,42.1c0,2-0.1,2.1-1.8,2.4c-0.4,0.1-0.8,0.2-1.2,0.4
		c-1-0.5-1.4-1.7-2.3-2.5C439.2,41,440.9,41.8,442.7,42.1z"/>
	<path   d="M450.5,56.9c-1.2-0.4-1.9-1.6-3.1-2c0.7-1.9,1.9-2.4,3.3-1.3
		c0.5,0.4,1.2,0.1,1.6,1.1c0.1,0.2-0.3,0.7-0.2,1.3C451.5,56.3,451.1,56.8,450.5,56.9z"/>
	<path   d="M456.9,141.2c-1.8,0.2-2.3-1.2-2.9-2.4c-0.2-0.4,0-0.8,0.4-1.1
		c0.6-0.4,1.3-0.6,2-0.3c0.7,0.3,1.2,1,2,1.3c0.4,0.2,0.4,0.9,0,1C457.5,140,457.6,140.9,456.9,141.2z"/>
	<path   d="M185.8,85.2c-0.4-1.4,0.5-2.3,1.1-3.4c1.1,0.4,2.8-0.4,3.1,1.7
		C188.7,84.5,188.1,86.7,185.8,85.2z"/>
	<path   d="M310.5,286c0.4-1.2-0.4-2.5,0.8-3.3c1.8,0.4,2.6,1.8,3.5,3.2
		c-0.6,0.5-1.4,0.8-1.7,1.7C312.2,286.9,311.7,286.1,310.5,286z"/>
	<path   d="M448.4,150.8c-0.2-1.6-1.2-3-0.3-4.5c2.1-0.4,2.4,1.8,3.8,2.6
		C450.9,150,449.8,150.4,448.4,150.8z"/>
	<path   d="M405.1,223.4c1.2,0.2,2,1.2,3,1.8c0.5,0.4,0.3,1.6-0.2,2
		c-0.9,0.7-2.1,0.6-2.7-0.1C404.2,225.9,404.2,224.7,405.1,223.4z"/>
	<path   d="M365,214.1c-3.5,1-4.4,0.4-4.2-2.5
		C362.9,210.3,364.1,211,365,214.1z"/>
	<path   d="M451.8,129.2c-0.1-1-0.3-2,0.6-2.9c1.3-0.1,2.3,0.7,3.1,1.6
		c0.7,0.8-0.4,1.4-0.8,2.1C453.7,130.5,452.8,130.1,451.8,129.2z"/>
	<path   d="M448.4,203.2c0.7,0.2,1.5,0.2,1.9,1.1c0.3,0.7,0.7,1.3,1.3,1.7
		c-0.1,0.7-0.8,0.6-1,1.1c-0.5,1-1,1-1.8,0.1C447.6,206,447.5,204.9,448.4,203.2z"/>
	<path   d="M190.6,290.3c-0.7-0.6-1.4-1-1.8-1.9c-0.3-0.8-0.3-1.3,0.5-1.7
		c0.7-0.3,1.3-0.8,1.8,0.4c0.3,0.8,1.3,0.6,2,0.8C193,289.4,192.8,289.5,190.6,290.3z"/>
	<path   d="M447.6,26.9c-0.1-1.3-1-2.1-1.6-3.1c1.3-1.3,3-0.8,4.5,1.2
		C450.1,26.2,449.5,27.3,447.6,26.9z"/>
	<path   d="M379.4,252.4c1.4-0.5,2.5,0,3.5,0.9c0.5,0.5,0.8,1.1,0.5,1.7
		c-0.3,0.7-0.9,0.8-1.6,0.5c-0.5-0.2-1.1,0.1-1.6-0.2C379.2,254.6,379,254,379.4,252.4z"/>
	<path   d="M439.8,135.8c0-1-0.5-1.9-0.7-2.8c-0.2-1,0.3-1.6,1.2-1.3
		c0.7,0.2,1.6,0.4,2,1.2c0.6,1.4,0.3,2.3-1.2,2.7C440.7,135.7,440.4,136,439.8,135.8z"/>
	<path   d="M431.4,182.3c-0.3,1.2,0.8,1.6,1.5,2.2c-0.7,1.3-1.7,1.7-3.1,1.9
		c0-1.2-1.6-1.9-0.6-3.3C429.7,182.4,430.2,181.8,431.4,182.3z"/>
	<path   d="M300,67.7c-0.2,0.7-0.9,0.9-0.9,1.6c-1.5,0-2.5-0.8-3.4-1.6
		c-0.7-0.6-0.5-1.2,0.4-1.6c1-0.4,2-0.6,2.8,0.5C299.1,67.1,299.7,67.1,300,67.7z"/>
	<path   d="M346.9,226.3c0.6-0.8,1.4-1.2,2.4-1.4c0.7,0.3,1,1.5,2.1,1.4
		c0,1.1-0.6,2-1.6,2.3c-1,0.3-1.5-0.2-1.7-1C347.9,226.9,347.1,227,346.9,226.3z"/>
	<path   d="M284.5,52.1c-1.1,0.8-1.3,2-2.8,2.4c-0.4-0.5-0.8-1-1.3-1.5
		c-0.4-0.5-0.9-1.2-0.3-1.7c0.6-0.5,1.4-1,2.2-0.4C282.9,51.3,283.6,51.6,284.5,52.1z"/>
	<path   d="M229.6,49c0.8,0.9,1.7,0.6,2.5,0.2c0.8,1.3,0.5,2.3-1,3.8
		c-0.5-0.5-0.6-1.3-1.5-1.6C228.1,50.9,228.2,50.4,229.6,49z"/>
	<path   d="M348.6,247.5c-1.5,1-1.5,1-2.5-0.1c-0.3-0.3-0.7,0-0.9-0.5
		c0-0.6-0.1-1.3,0.1-2.1c1.3-0.4,2.3,0.3,3.2,0.9C348.8,246.5,348.3,247,348.6,247.5z"/>
	<path   d="M338.8,72.8c-0.7-0.5-1.5-0.9-2.3-1c-1-0.1-1.2-0.6-1-1.4
		c1.5-1.2,3-1.1,4.4,0.5C339.9,71.6,339.6,72.3,338.8,72.8z"/>
	<path   d="M359.9,200.4c-2.1,1-1.9,1.4-3.8-0.2c0.3-0.8,0.1-1.7,0.8-2.4
		C358.4,198.2,359.8,198.6,359.9,200.4z"/>
	<path   d="M346.9,260.1c1.8-1.1,2.3-0.9,4.6,1.2c-0.1,0.7-0.8,1-1.3,1.5
		C349,262.2,347.3,262,346.9,260.1z"/>
	<path   d="M403.3,173.9c-0.6-0.9-1.1-1.4-1.7-1.7c-0.2-0.9,0.4-1.4,1.1-1.9
		c0.8,0.6,2-0.1,2.6,0.9c0.3,0.5,0.3,1.1,0,1.7C404.8,173.5,403.8,172.9,403.3,173.9z"/>
	<path   d="M366.2,272.7c0-1.3-2.4-1.5-1.3-3.2c1.4-0.5,2.5,0.4,3.6,1
		C367.9,272.6,367.9,272.6,366.2,272.7z"/>
	<path   d="M291.6,50.2c1.5-1.2,3.5-0.9,4.4,0.4c0.3,0.4,0.6,0.9,0.1,1.4
		c-0.7,0.6-1.5,0.5-2.1,0.1C293.1,51.7,292.4,50.9,291.6,50.2z"/>
	<path   d="M266.8,68.2c-1.1-0.7-1.6-1.8-2.9-2c0.4-0.6,0.7-1.1,1.2-1.1
		c0.7,0,1.5-0.2,2.1,0.1c0.9,0.5,1.3,1.4,1,2.6C267.7,67.9,267.3,68.1,266.8,68.2z"/>
	<path   d="M412,173.1c1.2-0.7,1.9-0.8,2.8,0c0.7,0.6,0.9,1.4,0.6,2.2
		c-0.2,0.8-1,1-1.6,0.7c-0.4-0.2-0.4-0.6-0.5-1c0-0.6-0.9,0-1-0.7C412.2,173.9,411.8,173.6,412,173.1z"/>
	<path   d="M274,52.1c1.1-1.1,2.3-0.9,3.5-0.8c0.6,0,1,0.5,0.8,1.3
		c-0.2,0.5-0.3,1.1-0.8,1.6C275.9,54.2,275.1,53,274,52.1z"/>
	<path   d="M334.1,222.3c-0.7-0.2-1-0.8-1.5-1.3c-0.4-0.4-0.4-0.9-0.2-1.3
		c0.2-0.5,0.6-0.7,1.2-0.5c0.6,0.3,1.1-0.2,1.8,0c0.6,0.5,0.8,1.6,0.2,1.9C334.9,221.5,334.9,222.3,334.1,222.3z"/>
	<path   d="M344.3,273.6c-0.9-1.3-0.5-2.6-0.7-3.9c1.7,0.3,3.2,1.4,2.9,2.3
		C346.3,273.1,345.4,273.5,344.3,273.6z"/>
	<path   d="M322.3,274.7c-1.8-1.5-1.8-1.6-0.9-3.2c2.1,0.5,2.1,0.5,2.6,2.1
		C323.4,273.9,322.9,274.3,322.3,274.7z"/>
	<path   d="M331.5,280.3c1-0.9,1.9-0.3,2.8-0.1c0.4,0.1,0.8,0.5,0.7,1.1
		c-0.1,0.5-0.4,0.9-1,0.8c-0.4,0-0.7,0.2-1.1,0.3C332.5,281.8,331.8,281.3,331.5,280.3z"/>
	<path   d="M432.2,132.3c0,0.9-0.5,1.4-1,1.9c-0.5-0.7-1.7-1.2-1.1-2.2
		C430.7,131.1,431.5,131.9,432.2,132.3z"/>
	<path   d="M495.2,188.7c-1.9-1.5-2-1.9-1.2-2.9
		C494.9,186.6,494.9,187.8,495.2,188.7z"/>
	<path   d="M184.3,36.9c0.9-0.8,0.9-2,1.4-3c0.7-1.7,2.1-2.2,3.5-1
		c0.6,0.5,1.3,1,1.8,1.6c0.8,1.2,0.4,2.5-0.7,3.5C188.2,39.9,185.5,39.4,184.3,36.9z"/>
	<path   d="M175.1,25.6c2.3-0.1,3.4,0.5,3.8,2.2c0.3,1.2-0.2,2.1-1.5,2.6
		c-0.7,0.3-1.5,0.4-2.2,0.5c-1.7,0.4-3.3-0.9-3.4-2.4c-0.1-1.7,1-2.9,2.9-3C174.8,25.5,175,25.6,175.1,25.6z"/>
	<path   d="M200.3,211c-0.3-4,1-7.8,2-11.6c0.4-1.6,0.6-3.4,1.2-5
		c0.4-1.1,0.3-2.6,1.5-3.4c0.2-0.2,0.2-0.4,0.2-0.6c-0.2-1.7,0.7-3,1.7-4.3c1.3-1.5,2.3-3.2,3.3-5c1.1-2,2.6-3.7,4.3-5.3
		c1.4-1.4,2.6-3,4-4.4c3.4-3.4,6.8-6.7,11.1-9c1.4-0.8,2.9-1.8,4.2-2.9c0.3-0.2,0.7-0.4,1.1-0.5c3.1-0.5,6-1.7,9-2.6
		c3-0.9,5.9-2,9-2c2.9-0.1,5.8,0,8.6-0.4c1.9-0.3,3.6,0,5.4,0.6c2.2,0.7,4.6,0.9,6.8,1.6c1.9,0.5,3.8,1.2,5.5,2.1
		c1.7,0.9,3.6,1.3,5.2,2.4c1.7,1.3,3.8,2.1,5.4,3.7c1.2,1.1,2.4,2.3,3.6,3.4c1.6,1.7,3.6,3.1,4.6,5.4c0.4,1,0.9,2.3,2,2.9
		c0.5,0.3,0.4,1,0.7,1.6c1.2,2.6,2.4,5.2,2.2,8.2c-0.1,1.6,1.2,2.8,1.2,4.4c0,2,0.8,3.8,0.6,5.8c-0.1,0.8,0.7,1.5,0.6,2.3
		c-0.2,1.9-0.2,3.8-0.7,5.7c-0.5,1.9-0.9,3.9-1.3,5.8c-0.3,1.2-0.6,2.5-1.3,3.3c-0.5,0.6-0.6,1.2-0.8,1.8c-0.3,1.4-0.6,2.8-1.3,4.1
		c-0.5,0.8,0,1.7-0.5,2.5c-1.4,2-2.1,4.3-3.4,6.4c-1.1,1.8-2.3,3.7-3.5,5.4c-1.7,2.4-3.3,4.9-5.5,6.9c-2,1.9-4.3,3.5-6.5,5.2
		c-3,2.2-6.2,4-9.3,5.9c-0.3,0.2-0.6,0.4-0.9,0.5c-4.2,0.7-8.5,1.6-12.7,2.4c-2.6,0.5-5.1,1.3-7.8,1.2c-1.1,0-2.2-0.2-3.3-0.5
		c-1.5-0.5-3.2-0.5-4.8-0.6c-3.8-0.2-7.4-1.5-10.9-2.8c-3.1-1.2-6.3-2.5-9.3-3.8c-2.1-0.9-4.3-2.1-5.8-4c-1.6-2.1-3.7-3.6-5.1-5.8
		c-1.9-2.8-3.9-5.5-5.2-8.7c-0.5-1.2-1.8-2-1.8-3.3c0.1-2.2-1.3-3.9-1.8-5.9C200.8,217.3,200.1,214.2,200.3,211z M280.7,240.2
		c0.6-0.1,1.2,0.1,1.6-0.3c1.6-1.5,3.4-2.9,4.7-4.6c2-2.7,3.9-5.5,5.7-8.4c1.8-2.8,3.2-5.8,4.2-8.9c1.5-4.9,2.6-9.9,2.3-15.1
		c-0.1-1.6,0.1-3.3,0.3-4.9c0.2-2.1-0.1-4.3,0.1-6.4c0-0.5,0-0.9-0.1-1.4c-0.3-1.3-0.7-2.6-0.3-4.1c0.2-0.7,0-1.5-0.2-2.3
		c-0.3-1.1-0.8-2.2-1.2-3.3c-0.6-1.6-1.4-3.2-2.5-4.6c-1.1-1.4-1.7-3.3-3.5-4c-0.3-1.4-1.7-1.9-2.5-3c-1.2-1.4-2.6-2.7-4.2-3.5
		c-2.3-1.1-4.6-2.4-6.9-3.5c-1.8-0.9-3.9-1.4-5.8-2.1c-2.4-0.9-5.1-0.6-7.4-1.9c0,0-0.1,0-0.2,0c-1.8-0.9-3.6,0.1-5.5-0.2
		c-1.2-0.2-2.7,0.2-4,0.2c-1.9-0.1-3.8,0.1-5.6,0.5c-3,0.6-6.1,1.2-8.9,2.5c-0.6,0.3-1.3,0.4-1.9,0.6c-1.7,0.6-3.6,1.1-5.1,2.1
		c-1.4,0.9-3,1.8-4.4,2.7c-3.6,2.3-6.5,5.3-9.5,8.2c-1.4,1.4-2.8,3-4,4.6c-1.6,2-2.8,4.3-4,6.5c-1,1.7-2.4,3.3-2.8,5.4
		c-2.6,2.9-3,6.7-4.1,10.2c-0.2,0.6-0.8,1.4-0.6,1.8c0.7,1.5,0,3,0.1,4.4c0.4,4.2,0.8,8.4,1.6,12.5c0.3,1.4,0.3,3,0.9,4.2
		c0.9,1.8,1.1,3.9,2.2,5.6c0.9,1.5,1.6,3.1,2.7,4.5c2.8,3.4,5.6,6.7,9.3,9.2c1.9,1.3,4,2.3,6.2,3c2.3,0.7,4.6,1.4,6.9,2.1
		c2.2,0.6,4.5,1.2,6.7,1.6c2.3,0.4,4.7,1,7.1,0.5c0.4-0.1,0.7,0.2,1,0.3c1.7,0.7,3.6,0.7,5.3,0.1c1.4-0.5,2.9,0.1,4.1-0.8
		c2.5,0.5,4.9-0.5,7.2-1c5-1.1,9.5-3.2,13.3-6.6C279.7,242.1,280.7,241.5,280.7,240.2z"/>
	<path   d="M285.8,278c-0.4,0.2-0.7,0.3-0.8,0c0-0.1,0.1-0.4,0.2-0.4
		C285.5,277.4,285.7,277.6,285.8,278z"/>
	<path   d="M302.2,216.3c-0.1,0.1-0.1,0.2-0.2,0.2c-0.2,0.1-0.3-0.1-0.3-0.3
		c0-0.1,0.1-0.2,0.1-0.2C302.1,216,302.1,216.2,302.2,216.3z"/>
	<path   d="M409.1,109.9c0.1,1.6,0,2.9,0.3,4.2c0.2,1-0.2,2.2-0.4,3.3
		c-0.2,1.2-0.3,2.5-0.2,3.7c0,1.1,0.2,2.2-0.6,3.2c-0.3,0.4-0.1,1-0.2,1.6c-0.4,2.3-1.4,4.3-2.4,6.3c-0.8,1.5-1.8,2.8-2.6,4.3
		c-0.7,1.3-1.8,2.5-2.9,3.5c-2,1.8-3.5,3.9-4.9,6.1c-0.9,1.4-1.7,2.8-3.3,3.5c-0.9,0.4-0.6,1.8-1.6,2.1c-0.2,0.1-0.2,0.5-0.4,0.6
		c-1.6,0.6-2.7,2-4.3,2.4c-2.5,0.6-4.9,1.8-7.3,2.6c-2.6,0.9-5.2,1.8-8.1,1.4c-0.2,0-0.4-0.1-0.5,0c-2.3,0.2-4.5-0.4-6.7-0.8
		c-3.2-0.6-6.2-2-9.3-3.1c-0.1,0-0.3,0-0.3-0.1c-1.3-2.1-4.1-2.3-5.5-4.2c-1.9-2.4-4.9-3.8-5.7-7.1c-0.3-1.2-1.2-2.2-1.8-3.4
		c-0.8-1.4-1.3-2.9-1.7-4.4c-0.8-2.5-1.8-5.1-1.4-7.9c0.2-1-0.3-1.8-0.4-2.8c-0.1-3.1,0.5-6.1,1.1-9c0.7-3.5,2.3-6.7,3.5-10
		c0.9-2.6,2.8-4.6,4-7c1.1-2,2.9-3.5,4.2-5.4c1.9-2.9,4.8-4.3,7.6-6c2.5-1.5,4.9-3.1,7.4-4.5c2.1-1.2,4.6-1.6,7-2
		c2.7-0.5,5.4-0.2,7.9,0.6c1.8,0.5,3.8,0.9,5.5,1.9c0.3,0.2,0.4,0.4,0.8,0.4c2.5-0.1,4.3,1.1,6.4,2.3c1.3,0.7,2.4,2,4.1,2.3
		c0.5,0.1,2.2,0.4,1.5,2c0.9-0.3,1.1,0.6,1.5,1c1.8,1.3,3.5,2.8,4.8,4.8c1.2,1.9,2.2,3.8,3.3,5.7c0.5,0.9,0.9,1.9,1,3
		C408.6,106.8,409.5,108.5,409.1,109.9z M365.9,153.7c0.7,0,1.4,0.2,2.1,0c2.7-0.8,5.5-0.8,8.3-1.4c2.1-0.5,4.2-0.9,5.7-2.4
		c1.4-1.4,3-2.5,4.7-3.5c1.4-0.9,3-1.7,3.8-2.9c0.9-1.3,1.9-2.4,3-3.4c2.4-2.4,4.4-4.9,6-7.9c0.6-1.1,0.6-2.2,1-3.3
		c1.3-3.6,2.9-7,3.4-10.8c0.4-2.9,0.2-5.6-0.6-8.4c-0.7-2.4-1.8-4.6-2.9-6.8c-1.4-2.7-3.4-4.8-5.3-7.1c-1.5-1.9-3.6-3-5.1-4.9
		c-1.3-1.7-3.4-2.1-5.1-3.2c-1-0.7-2.2-1.4-3.4-1.7c-3-0.8-6-1.7-9.2-1.2c-1.2,0.2-2.4-0.1-3.6-0.1c-1.9,0.1-3.4,1.4-5,2.2
		c-3.1,1.7-5.9,4-9,5.7c-0.3,0.1-0.5,0.3-0.7,0.5c-0.8,1.5-2.1,2.6-3.3,3.8c-2.9,3.1-5.1,6.8-6.8,10.7c-1.8,4.1-3.2,8.4-3.6,13
		c-0.1,1.2-0.4,2.5-0.3,3.7c0.4,3,0.6,6,1.2,9c0.5,2.5,1.8,4.6,2.5,7c1.4,0.9,1.7,2.6,2.6,3.8c0.7,0.9,1.6,1.7,2.3,2.4
		c1.3,1.2,2.5,2.7,4.4,3.2c1.3,0.3,2.5,1,3.7,1.6C359.7,152.6,362.7,153.7,365.9,153.7z"/>
	<path   d="M255.2,192.8c0.9,0.6,1.2,1.4,1.8,2.1c0.6,0.8,1.3,1.6,2.2,2.3
		c1,0.7,1.9,1.7,2.5,2.6c1.8,2.4,2.7,5.1,2.1,8.3c-0.6,3.4-2.8,5-5.5,6.4c-0.9,0.5-1.9,0.7-2.3,1.9c-0.3,0.9-1.7,1.1-2.5,1.2
		c-1.5,0.2-2.9,0.7-4.5,0.9c-3.4,0.5-6.6,0.1-9-2.3c-2.1-2.1-4.4-4.1-5-7.4c-0.8-4.2-0.5-8,2.2-11.4c1.2-1.5,2.7-2.6,4.7-2.5
		c0.3,0,0.7,0,1-0.2c2.2-1.3,4.7-1.3,7.1-1.5c0.7-0.1,1.4-0.3,2-0.5c0.7-0.3,1.5-0.2,1.8,0.1C254.4,193.5,254.8,192.8,255.2,192.8z
		 M258.1,198.8c-1.2-0.8-2.5-1.1-3.3-2.1c-0.3-0.4-0.5-0.6-1-0.7c-0.9-0.2-1.7-0.3-2.7-0.2c-0.9,0.1-1.7,0.5-2.6,0.5
		c-2.7-0.1-4.3,1.4-5.3,3.6c-0.3,0.7-0.9,1-1.1,1.6c-0.1,2,0.6,3.8,1.2,5.6c0.7,2.6,2.7,3.9,4.5,5.4c0.7,0.6,1.8,1.1,3,0.9
		c2.3-0.4,4.5-1,6.8-1.3c0.2,0,0.4-0.2,0.6-0.4c1.4-1.2,2.7-2.4,3.1-4.5c0.3-2,0.3-4-1.3-5.3C258.9,201.1,258.4,200,258.1,198.8z"/>
	<path   d="M214,198.3c-0.7-0.1-1.3-0.2-2-0.3c-0.6-1.3-0.2-2.7,0.1-4
		c0.6-2.7,1.5-5.4,2.9-7.8c1.1-1.7,2.4-3.4,3.8-4.9c1.5-1.7,3.1-3.2,4.8-4.6c1.3-1,2.3-2.5,4.1-2.8c0.1,0,0.2-0.1,0.3-0.2
		c1.2-1.4,2.6-2.3,4.4-2.6c0.1,0.4,0.2,0.7-0.4,1.2c-3.3,2.8-6.5,5.7-9.7,8.7c-1.8,1.7-3,3.7-4.7,5.4c-0.1,0.1-0.2,0.1-0.3,0.2
		c-1.3,3.3-3,6.6-2.9,10.3C214.5,197.4,214.3,197.8,214,198.3z"/>
	<path   d="M279.6,228.3c0.9-0.6,1.4-1.7,2.3-2.2c0.2-0.1,0.5-0.2,0.5-0.4
		c-0.1-1.1,0.7-1.5,1.3-2.2c1.8-2.3,3.4-4.9,4.3-7.7c0.2-0.8,0.1-1.5,0.2-2.3c0.6-3.1,0.9-6.4,1.5-9.5c0.5-2.7-0.3-5.2-0.1-8
		c0.5-0.8,1.3-0.5,2-0.1c0.7,3.4,0.5,6.7,0.4,10.1c-0.1,1.3-0.6,2.5-0.9,3.7c-0.3,1.7,0.2,3.4-0.4,5.1c-0.5,1.3-1.1,2.6-1.8,3.9
		c-0.5,1-1,2-1.5,3.1c-0.3,0.6-0.3,1.3-1.4,1.4c-0.7,0.1-1.4,1.1-1.7,1.8c-0.7,1.5-2.1,2.3-3.1,3.6
		C280.8,229.2,280.3,229.1,279.6,228.3z"/>
	<path   d="M232.4,180.1c-2.9,1.3-4.9,3.5-6.7,5.8c-1.2,1.6-2.6,3-3.8,4.5
		c-0.6,0.7-0.8,2-1.3,3c-0.2,0.4-0.5,0.6-0.8,1c-0.5-0.1-1-0.3-1.1-0.4c-0.4-0.7,0-0.9,0-1.1c0.9-3.7,3.3-6.4,5.8-9.1
		c1.4-1.5,3.1-2.4,4.5-3.8c0.7-0.8,2-0.5,3.1-0.6C232.1,179.5,232.2,179.8,232.4,180.1z"/>
	<path   d="M283.8,204.1c1.6-0.8,2-0.6,2.1,0.9c0.3,2.9-0.2,5.8-0.4,8.6
		c-0.2,1.8-1,3.6-2.3,4.7c-0.9,0.7-1.7,2.6-3.7,1.7c0.5-0.8,1.2-1.6,1.6-2.4c1.5-2.9,2.6-5.8,2.4-9.1
		C283.5,207,284,205.6,283.8,204.1z"/>
	<path   d="M227.2,193.4c-1.1-1.2-1.2-2.4-0.4-3c1.1-0.7,1.6-1.8,2.6-2.5
		c0.7-0.5,1.7-0.5,2.2-1.2c0,0,0.4,0.2,0.8,0.5C230.7,189.4,228.6,191,227.2,193.4z"/>
	<path   d="M278.2,210.9c1.4,2.3,0.2,4,0.2,5.8c-0.6,0.4-1.1,0.4-1.6,0.2
		C276.6,214.8,276.9,213,278.2,210.9z"/>
	<path   d="M386.7,121.1c-0.4,1.1-0.9,2.3-1.4,3.5c-0.4,0.9-1.3,1.2-2.1,1.4
		c-1.7,0.4-3,1.4-4.5,2.1c-1,0.5-2,1-3.2,0.7c-1-0.3-2.2,0.2-3.3,0.4c-1.6,0.3-3-0.1-4.2-0.7c-1.7-0.8-3.2-2-4.6-3.2
		c-0.6-0.5-1.2-1.4-1.2-2.4c0-0.1,0.1-0.3,0-0.3c-2-1.3-0.3-3-0.4-4.6c0-0.3,0.1-0.7,0.1-1c0.1-2.2,1.4-3.8,2.5-5.6
		c0.7-1,1.9-1.1,2.7-1.3c2.4-0.8,4.9-1.8,7.5-1.5c1.4,0.1,2.8-0.1,4,0.4c2.4,0.9,4,2.8,5.3,5.1c0.2,0.4,0.3,0.7,0.6,1
		C386.1,116.6,386.2,118.8,386.7,121.1z M384,121.9c-0.2-2.3-0.6-4.4-2-6.4c-0.9-1.3-1.7-2.4-2.8-3.5c-1.1-1.1-2.4-1.2-3.8-1.4
		c-1.3-0.2-2.1,0.7-3.3,0.9c-2.6,0.4-3.7,2.6-4.7,4.6c-0.7,1.5-0.7,3.3,0.2,5c0.7,1.2,1.8,2.3,2.8,2.9c1.7,1,3.7,1.6,6,1.4
		c2.6-0.2,4.8-0.8,6.6-2.8C383.4,122.3,383.7,122.1,384,121.9z"/>
	<path   d="M387.7,137.1c-0.3-0.5-0.4-0.7-0.5-1c0.1-0.1,0.2-0.3,0.3-0.4
		c2.4-1.1,3.6-3.4,5.1-5.4c1.6-2.1,2.3-4.7,3.1-7.2c0.6-1.9,0.9-3.8,1.1-5.7c0.1-0.6,0.5-1.2,0.8-1.7c0.6-0.2,1.1-0.2,1.8,0
		c-0.1,2.3-0.6,4.5-0.9,6.7c-0.5,3.2-1.7,6.2-3.5,8.8c-1.3,1.9-3,3.8-5.4,4.7C388.8,136.3,388.3,136.6,387.7,137.1z"/>
	<path   d="M364.2,93.2c-2.4,2.1-5.1,3.4-7.2,5.5c-2.2,2.2-3.9,4.7-5.6,7.2
		c-1.7,2.5-2.9,5.2-3.5,8.2c-0.8-1.6-1.6-3.1,0-4.9c0.6-0.6,0.7-1.9,1.1-2.8c1.3-2.5,2.4-5,4.3-7c1.1-1.1,2-2.6,3.7-3.1
		c0.4-0.1,0.7-0.4,0.9-0.8c0.6-1.5,2.2-1.9,3.3-2.7C361.9,92.1,363,92.2,364.2,93.2z"/>
	<path   d="M362.3,99.2c0.5,0.8,0,1.3-0.4,1.7c-2.2,2-4.3,4.1-5.7,6.7
		c-0.5,0.9-1.2,1.8-2.3,2.3c-0.2-0.7-0.3-1.4,0-1.9c1.1-1.8,1.9-3.8,3.4-5.1c1.2-1.1,2.3-2,3.3-3.3C360.9,99,361.7,99.2,362.3,99.2z
		"/>
	<path   d="M387.9,128.9c-0.6-2.1,0.6-3.8,1-5.7c1.3-0.5,0.3-2.8,2.1-3
		c1.2,1.5,0.3,3,0,4.4c-0.3,1.3-1.1,2.6-1.2,4C389.3,129,388.7,129.4,387.9,128.9z"/>
	<path   d="M361.2,108.8c-0.7,0-1.4,0.2-1.8-0.5c0.9-1.9,0.8-2.3,2.6-1.9
		C362.5,107.6,361.5,108.1,361.2,108.8z"/>
</g>
</svg>
