<?xml version="1.0" encoding="utf-8"?>
<!DOCTYPE svg PUBLIC "-//W3C//DTD SVG 1.1//EN" "http://www.w3.org/Graphics/SVG/1.1/DTD/svg11.dtd">
<svg version="1.1" id="Layer_1" xmlns="http://www.w3.org/2000/svg" xmlns:xlink="http://www.w3.org/1999/xlink" x="0px" y="0px"
	 width="499px" height="465.3px" viewBox="0 0 499 465.3" enable-background="new 0 0 499 465.3" xml:space="preserve">
<g fill="hsl(14, 25%, 29%)">
	<path  d="M128.2,338.2c-2.8-0.3-5.4,0.5-8,0.5c-2.4,0-4.9,1.3-7.4,0.3
		c-0.2-0.1-0.4,0-0.6,0.1c-3.1,1.5-6.6,1.2-9.8,1.9c-1.8,0.4-3.8,1.1-5.7,1c-2.1,0-4,0.4-6.1,0.5c-2.5,0.1-4.9,0.8-7.4,1.1
		c-1.4,0.2-2.8,0.2-4.2,0.3c-1.5,0.1-2.9-0.1-4.4,0.4c-1.2,0.4-2.5,0.3-3.8,0.1c-1.6-0.2-3.2,0.4-4.9,0.5c-2.9,0.2-5.7-0.1-8.6-0.4
		c-1.4-0.2-2.9-0.1-4.3-0.1c-1.9,0.1-3.8-0.4-5.6-1c-0.9-0.3-2.2-0.7-3.1,0.3c-0.6,0.6-0.9-0.3-1.4-0.1c-1.5,0.5-3.2,0.1-4.6-0.2
		c-3.1-0.7-6.3-1.2-9.5-1.6c-0.7-0.1-1-0.7-1.6-1.1c-1.2-0.7-2.4-1.5-3.9-0.7c-1.6,0.8-2.6-0.9-3.6-1.6c-1.6-1.2-2.9-2.4-5-2.7
		c-2.5-0.4-4.4-2.2-6-4.1c-1.1-1.4-2.9-1.4-4.1-2.5c-1.2-1-2.2-1.8-2.7-3.3c-0.9-2.6-1.8-5.2-1.9-8c-0.1-5,0.6-10,0.9-15
		c0.3-4.4,1.4-8.7,2.3-13c0.5-2.6,1.1-5.3,1.5-7.9c0.3-1.8,1.3-3.3,1.6-5.1c0.2-1.3,0.3-2.7,0.4-4c0.9-6.3,3-12.4,4.6-18.6
		c1.1-4.3,2.9-8.4,4.4-12.6c0.4-0.9,0.7-1.9,0.6-2.8c0-1,0.2-1.9,0.6-2.7c2-3.7,3.3-7.8,5-11.6c2.4-5.3,4.4-10.9,6.4-16.3
		c0.8-2.1,1.7-4.2,2.7-6.2c1.3-2.7,2.1-5.5,3.3-8.2c1.9-4.2,3.1-8.8,5.5-12.8c1.3-2.1,2.1-4.5,3-6.8c1.7-4.2,3.4-8.2,6.1-11.9
		c2-2.8,3.5-5.8,5.4-8.6c1.8-2.6,2.9-5.7,5.2-8.1c0.5-0.5,0.4-1.6,0.8-2.4c1.6-2.6,3.6-4.9,5.5-7.4c1-1.3,2-2.4,0.9-4.2
		c-0.3-0.5-0.2-1.3-0.3-1.9c-0.3-2.1-1.2-3.9-2.3-5.7c-1.2-2-2.2-4.1-3.2-6.3c-1.4-3-3.1-5.9-4.7-8.9c-0.7-1.3-1.3-2.5-1.7-3.9
		c-0.9-2.6-2.4-4.9-3.6-7.5c-1.8-4-3.9-7.9-5-12.2c-0.8-3.1-1.4-6.2-1.7-9.4c-0.2-1.9-0.3-3.8-0.4-5.8c0-2,0.6-3.9-0.2-5.9
		c1.1-3,0.4-6.2,0.9-9.3c0.7-4.8,0.9-9.6,0.4-14.4c-0.2-2.2-0.6-4.6-1.9-6.6c-0.4-0.7-0.7-1.4-0.9-2.2c-0.3-1.5-0.8-2.5-2.5-2.6
		c-1-0.1-1.4-1.4-1.5-2.4c-0.1-1.4-0.1-2.7,0-4.1c0.1-1.3,1.5-2,3-1.6c0.6,0.2,1.2,0.5,1.7,0.8c1.5-0.8,0.3-3.4,2.7-3.6
		c0.4,0.8,0.8,1.8,2,1.8c1-1.1,0.7-2.7,0.9-4c0.4-2.6,1.6-4.9,2.4-7.3c0.4-1.3,0.5-2.6,1.1-3.9c0.4-0.9,0.8-1.8,1.1-2.8
		c0.6-1.4,1.5-2,3-1.9c0.6,0,1.2,0,1.7-0.4c1,0.7,1,1.5,1,2.8c-0.1,2.7-1,5.3-2.1,7.5c-0.9,1.8-0.8,3.8-1.6,5.5
		c-0.8,1.8-1,3.7-1.3,5.5c-0.5,2.3-0.8,4.8-1.8,7c-1.1,2.5-1.2,5-1.2,7.5c0,2.9-0.5,5.8-0.4,8.6c0.1,3-1.5,5.9-0.4,8.9
		c-0.7,0.8-1.2,0-1.7,0c0,5.6,1,11,0.9,16.5c0,0.9,0.3,1.7,0.5,2.5c0.4,2.3,0,4.8,0.8,7.1c0.1,0.3,0,0.9,0.2,1
		c1.4,1.1,1.1,2.6,1.1,4c-0.1,2,0.7,3.8,1.2,5.6c0.4,1.5,0.9,3,0.9,4.6c0,0.6,0.2,1.2,0.5,1.6c1.5,1.9,2.7,4,4.2,5.9
		c1.2,1.4,2,3.1,3,4.7c1.6,2.5,3.8,4.3,6,6.1c1.3,1.1,2.4,2.5,3.5,3.7c0.9,1,1.7,1.8,2.9,2.3c1,0.4,1.9,1,2.9,1.4
		c1.2,0.5,2.3,0.3,3.3-0.8c3.6-4.1,7.7-7.7,11.7-11.4c0.1-0.1,0.2-0.2,0.3-0.3c2.1-0.9,3.7-2.4,5.5-4.1c0.2-0.5-0.2-1.1-0.5-1.8
		c-2-4.1-3.4-8.4-4.2-12.8c-0.3-1.8-0.5-3.7-0.5-5.5c0-1-0.6-1.7-0.5-2.7c0.1-2.8,0.6-5.5,1.4-8.1c0.4-1.3,1-2.5,1.1-3.9
		c0.5-4,2.4-7.5,3.9-11.2c1.2-2.9,3.2-5.4,4.5-8.1c1.9-3.9,5.4-6.4,7.5-10.1c0.9-1.6,2.8-2.3,4.1-3.6c4.2-3.8,8.8-7.1,13.6-10
		c0.3-0.2,0.5-0.5,0.9-0.6c2.1-0.6,4.1-1.6,6.1-2.6c1-0.5,1.9-0.8,3-0.9c1.4-0.1,2.6-0.7,3.6-1.7c0.4-0.4,0.8-1,1.4-0.9
		c2.2,0.5,3.9-1,5.9-1.4c0.3-0.1,0.7-0.3,1-0.3c2.6,0.3,5.1-0.7,7.7-0.5c0.7,0.1,1.5,0.3,2.1-0.6c0.3-0.5,1-0.3,1.4-0.2
		c2.4,0.4,4.8,0.7,7.1,1.3c1.9,0.5,3.9,0.3,5.8,0.5c1.5,0.1,3,0.2,4.5,0.7c1.9,0.6,3.9,0.9,5.6,1.9c0.6,0.3,1.2,0.5,1.6,0.2
		c1.2-0.6,2-0.2,2.9,0.5c1.4,1.1,3.1,2,4.6,2.5c2.3,0.8,3.8,2.6,5.7,3.6c3.4,1.7,5.4,4.9,8.6,6.8c0.8,0.5,1.3,1.5,1.8,2.3
		c1.6,2.5,4,4.4,6.1,6.5c1.5,1.6,2.8,3.4,4,5.2c0.1,0.2,0.3,0.3,0.4,0.5c2.3,2.2,3.7,5,5.5,7.5c0.4,0.6,1.3,0.6,1.7,1.3
		c0.6,1,1.4,1.9,1.6,3.2c0.3,1.5,1.6,2.7,2.5,4.1c0.6,0.9,0.8,1.8,0.8,2.9c0,1.1-0.3,2.4,1.1,3c0,2,1,3.8,1.1,5.8
		c0,0.6-0.8,0.6-0.8,1.2c0.6,1.4,1,2.8,1,4.5c-0.1,3.9,1,7.8,0.3,11.7c1,3.1,0.1,6.4,0.7,9.6c0.4,2,0.2,4.2-0.8,6.2
		c-0.5,1,0.1,1.9-0.1,2.9c-0.5,3-1.6,5.8-2.5,8.7c-0.8,2.5-2.6,4.5-3,7.1c-0.5,3.3-2,6.5-2.6,9.8c-0.1,0.7-0.1,1.2,0.1,1.8
		c0.5,1.4,0.6,2.8,0.5,4.2c-0.3,2.6,0.6,5.1,0.4,7.7c-0.1,2.3-0.5,4.5-0.4,6.8c0.3,4.5,0.2,9.1,0.5,13.6c0.2,2.5,0.6,5,1.3,7.3
		c1.2,4,1.4,8.1,1.7,12.2c0.2,2.2,0.6,4.3,1.2,6.4c0.6,2.6,0.8,5.3,1.2,8c0.4,3.6,0.5,7.3,1.1,11c0.3,1.8,0.4,3.7,0.4,5.5
		c0,3.4,0.7,6.7,0.5,10.1c0,0.9,0.1,1.7,0.3,2.6c1.3,6.3,2.1,12.6,2.4,19.1c0.2,2.6,0.1,5.2,0.7,7.7c0.2,1-0.5,1.8-0.4,2.7
		c0.2,1.9,0.4,3.9,0.6,5.8c0.2,1.2,0.3,2.4,0.3,3.6c-0.1,2.1,0.4,4.1,0.7,6.2c0.2,1.8,0,3.7,0.4,5.5c0.3,0.3,0.7,0.3,1,0
		c3.1-2.9,6.4-5.6,9.8-8.1c1.8-1.4,3.9-2.6,5-4.8c0.2-0.4,0.8-0.6,1.2-0.9c1.3-1,2.3-2.5,3.4-3.7c1.6-1.7,3.3-3.4,5-5
		c1.9-1.8,3.7-3.7,5.7-5.3c0.4-0.3,0.8-0.8,1-1.4c0.5-1.4,1.5-2.3,2.7-3.2c2.2-1.6,4.1-3.5,5.7-5.7c0.2-0.2,0.3-0.5,0.6-0.6
		c3.2-2.3,5.6-5.4,8.4-8.1c1.4-1.3,2-2.9,3-4.3c1.6-2.1,3.6-3.8,4.8-6.1c1.1-1.9,2.7-3.5,3.4-5.6c0.2-0.7,0.7-1.3,1.3-1.7
		c1.1-0.8,1.8-0.7,2.3,0.6c0.1,0.3,0.1,0.6,0.4,0.7c1.1,0.3,0.7,1,0.6,1.8c-0.2,2.4-1.4,4.6-1.1,7.1c0.2,2.1,0.6,4,1.5,6
		c0.9,2.2,2.5,3.9,3.7,5.8c1,1.6,2.7,2.9,4.1,4.3c3.1,3.3,7.1,4.5,11.4,4.8c0.7,0,1.4,0.4,2.1,0.5c3.2,0.6,6.1-0.2,9.1-0.9
		c4.2-1,8.3-2.2,12-4.4c0.8-0.5,1.2-1.5,1.9-1.9c3.3-2,4.9-5.6,7.7-8.1c1.6-1.4,2.5-3.3,3.4-5.3c0.7-1.7,1.9-3.4,3.7-4.3
		c0.8-0.4,1.4-1.8,2.7-1c0.7,1.1-0.1,2.2,0,3.3c0.4,2.9-1,5.4-1.7,8.1c-1.1,4-2.3,8-2.7,12.1c-0.2,1.7-0.9,3.4-0.9,5.2
		c0.1,4.1-1.8,7.9-1.8,12.1c0,2.5-0.2,5.1-0.3,7.7c0,1.5-0.6,2.9-0.9,4.3c-0.4,2.5-0.1,5.1-0.9,7.6c-0.4,1.1-0.4,2.3-0.4,3.4
		c0,0.5,0.2,1.1-0.1,1.5c-1,1.5-0.5,3.2-0.7,4.8c-0.2,1.9-0.4,3.9-0.4,5.7c0.1,2.4,0,4.9,0.4,7.2c0.5,2.8,1.3,5.5,1.2,8.4
		c0,0.9,0.7,1.4,1,2.2c1,2.9,1.3,6,3.4,8.5c1.4,1.8,3.2,3.3,4.5,5.2c1.7,2.3,3.4,4.5,5.1,6.7c2.8,0.6,5.6,0.8,8.4,0.6
		c3.8-0.2,7.5-0.4,11.2-1.5c3.2-1,6.3-1.8,9.4-3c1.4-0.5,3-0.5,4.4-1.2c2.4-1.2,4.9-2.1,7.3-3.3c1-0.5,2.1-0.6,3.1-0.8
		c2.7-0.6,5-2.4,7.8-2.6c2.1-0.2,4.3-0.6,6.4-0.8c2.5-0.3,5.1-0.4,7.6-0.9c1.5-0.3,2.9-0.3,4.3-0.1c2.9,0.5,5.8,0.5,8.8,0
		c0.1,0,0.3-0.1,0.4-0.1c3.3,1.1,7,0.6,10.2,2.1c1,0.4,1.6,1.5,2.5,2.2c1,0.8,2.1,1.5,3.3,2c0.9,0.5,1.4,0.9,1.9,1.8
		c0.8,1.7,1.6,3.5,1.9,5.4c0.4,2.1,2,3.8,2.2,6.1c0.4,3.6,1.2,7.3,0.5,10.8c-0.5,2.5-0.7,5.2-1.6,7.6c-0.1,0.3-0.3,0.5-0.3,0.8
		c0,3.7-2.3,6.3-4.5,8.9c-1.1,1.3-1.8,2.6-2.1,4.2c0.5,0.9,1.3,0.8,1.9,0.7c3.3-0.2,6.6,0.3,9.8-0.4c1-0.2,2.2,0.1,3.2,0.3
		c2,0.5,4.1,0.2,6,0.8c0.7,0.2,0.9-0.5,1.5-0.5c1.6,0,3.2-0.8,4.9-0.3c0.8,0.3,1.7-0.2,2.6-0.6c0.6,1.6,2,1.7,3.2,2
		c0.5,1.4-1.3,1.8-0.7,3c-2.9,0.1-5.5-0.3-8.1,0.3c-1,0.2-2.2,0-3.3,0.1c-4.5,0.1-9,0.5-13.5,1c-2.5,0.3-5.1-0.1-7.7,0.6
		c-1.4,0.4-3.2-0.3-4.7,0.6c-0.4,0.2-0.7,0.2-1,0.7c-1.7,2.5-3.8,4.6-6,6.6c-0.3,0.3-0.8,0.5-0.8,1c0,2.6-1.5,4.7-2.2,7.1
		c-0.8,2.7-0.3,5.5-0.3,8.3c0,2.9,1.1,5.5,1.6,8.3c0.1,0.7,0.8,1,1.1,1.5c1.6,2.9,3.5,5.7,5.6,8.2c0.8,1,1.8,1.6,2.9,2
		c3.6,1.2,7.2,1.9,10.9,2.7c1.8,0.4,3.1,1.5,4.2,2.8c1.9,2.5,2.9,5.4,3.5,8.5c0.4,2.4-0.2,4.8,0,7.2c0.1,0.8-0.5,1.2-0.9,1.6
		c-1.6,1.5-3.2,3.2-4.1,5.2c-0.5,1-1.5,1.6-2.3,1.8c-2,0.5-3.7,1.5-5.6,2.1c-3.4,1.1-6.8,2.2-10.4,2c-1.8-0.1-3.6-0.1-5.3,0.4
		c-0.7,0.2-1.5,0.1-2.3-0.2c-1.5-0.5-3.1-0.8-4.7-1.2c-3.1-0.7-5.9-2.3-8.5-4.1c-1.9-1.3-4-2.4-6-3.6c-0.8-0.4-1.5-0.9-2-1.6
		c-0.8-1.3-2-2.2-3-3.3c-1.9-2.2-3.8-4.3-5.6-6.6c-0.7-0.8-1.1-1.9-1.7-2.8c-0.6-0.9-1-2.1-1-3.4c0-3.5,0.1-6.9-0.4-10.4
		c-0.1-0.7-0.2-1.6,0.4-2.7c0.1-0.3,0.9,0.7,1.2,0c0-1.2-1-0.4-1.6-0.8c-0.3-1.6,0.4-3.1,0.6-4.6c0.2-1.8,0.7-3.5,0.3-5.3
		c-0.1-0.4,0.1-1.2,0.4-1.4c1-0.7,0.9-1.8,0.9-2.7c0-3.9,2.4-6.8,4-10.1c0.4-0.8,0.9-1.7,1.5-2.4c1.4-2.1,2.9-4.2,4.2-6.4
		c0.7-1.2,1.3-2.6,1.5-4.2c-3.9-0.4-7.7-0.1-11.4-0.1c-1.2,0-2.6-0.3-3.7,0c-3.1,1-6.3,0.2-9.5,1c-3.8,1-7.9,0.9-11.9,1.2
		c-1.8,0.1-3.8-0.1-5.4,0.4c-2,0.7-4.1,0.6-6.1,1.3c-0.8,0.3-1.7,0.9-2.6,0.1c-0.1-0.1-0.4-0.1-0.6,0c-3.3,1.5-7,0.8-10.3,2.4
		c-0.2,0.1-0.5,0.2-0.6,0.1c-1.5-0.7-2.7,0.5-4.1,0.7c-2.5,0.3-4.9,0.7-7.4,1.1c-0.3,0-0.6-0.1-0.9,0.1c-3,1.5-6.4,1.3-9.6,1.9
		c-2,0.4-4.3-0.4-6.2,1c-0.6,0.4-1.2-0.2-2-0.1c-1.4,0.3-2.7,0.8-4.1,1.2c-2.4,0.7-4.8,0.6-7.2,0.9c-2.6,0.3-5.2,0.9-7.8,0.9
		c-3.5,0.1-6.9,1.3-10.5,0.4c-1.2-0.3-2.6,0.4-3.9,0.6c-1.4,0.2-2.9,0.7-4.1-0.8c-1.1,1.4-2.5,1.8-4.2,1.5c-2.4-0.4-4.6,0.8-6.9,1.1
		c-1,0.1-2.2,0-2.5,1.4c-1-0.6-1.8-0.8-2.9-0.4c-2.4,0.8-5.1,0.2-7.5,1.3c-0.6,0.3-1.5-0.3-2.2-0.2c-2.3,0.2-4.7,0.2-7,0.5
		c-0.8,0.1-1.7,0.3-2.5,0.3c-3.5-0.1-7,0.4-10.4,0.8c-1.8,0.2-3.6-0.1-5.4-0.3c-1.7-0.3-3.3-0.6-5,0c-0.5,0.2-0.8-0.3-1.2-0.3
		c-0.9,0-1.6-0.4-2.7,0.1c-1.3,0.6-3.2,0.5-4.8,0.2c-1.5-0.3-2.9-0.4-4.4-0.1c-2.2,0.5-4.6-0.7-6.7,0.6c-1.3-0.6-2.7,0.4-4.2-0.7
		c-0.9-0.6-2.6-0.2-4,0.1c-1.7,0.3-3.4,0.5-5.2,0.4c-1.1,0-2.3,0.2-3.3,0.4c-2.1,0.5-4.2,0.5-6.3,0c-0.5-0.1-1.2-0.1-1.7,0
		c-3.8,0.3-7.6-0.7-11.4-0.4c-0.9,0.1-1.6-0.9-2.6-0.4c-1.1,0.5-4.2,0.8-5.1,0.6c-1.6-0.3-3.2-0.2-4.8-0.3
		c-3.6-0.2-7.2-0.1-10.7-0.6c-1.1-0.2-2.3-0.1-3.5-0.1c-3.1,0.1-6.1-0.2-9.2-0.3c-2.4-0.1-4.9,0-7.3,0.2c-1.3,0.1-2.5,0.1-3.8-0.2
		c-1.3-0.3-2.8-0.4-4.2,0.2c-0.4,0.2-0.9,0.3-1.4,0.2c-2.3-0.6-4.6-0.3-6.9,0.4c-2.1,0.7-4.4,0.3-6.6,0.8c-0.8,0.2-1.7,0.2-2.5,0.5
		c-1.4,0.6-2.9,0.1-4.3,0.3c-1.2,0.2-2.4-0.1-3.6,0.4c-0.4,0.2-1,0-1.5,0c-3.8-0.6-7.7-0.4-11.5-0.8c-3-0.3-6-0.1-9,0
		c-1.4,0.1-2.9-0.3-4.4-0.4c-5.4-0.3-10.7-0.9-16.1-0.7c-1.1,0-2.3-0.4-3.5-0.6c-2.7-0.5-5.3,0.2-8-0.2c-1.1-0.2-2.5,0.3-3.8,0.3
		c-1.9,0-3.8-0.3-5.7-0.4c-1.9-0.2-3.8-0.1-5.6-0.7c-0.7-0.3-1,0.9-1.9,0.8c-3.3-0.6-6.7,0.5-10-0.3c-1.2-0.3-2.4-0.2-3.6,0.2
		c-1.1,0.4-1.9,0.1-2.7-0.7c-1.2-1.3-2.5-2.6-3.8-3.8c-0.4-0.4-0.8-0.9-0.6-1.5c0.3-0.6,0.8-0.7,1.5-0.7c3.3,0,6.6,0,9.9,0
		c3.5,0,7.1-0.2,10.6-0.3c2.9-0.1,6,0,8.9,0.6c1.1,0.2,2.1-0.4,3.2-0.3c2.5,0.1,5.1-0.5,7.5,0.6c0.4,0.2,1.1-0.2,1.6-0.2
		c3.2-0.1,6.3,0.4,9.5,0.8c1.6,0.2,3.2,0,4.8,0.1c1.8,0.1,3.6,0.1,5.5,0.5c1.6,0.4,3.6,0,5.4,0.2c2.2,0.3,4.5,0,6.8,0.1
		c4.4,0.4,8.9,0.4,13.3,0.7c3.7,0.2,7.5,0.3,11.2-0.6c2.2-0.5,4.7-0.4,6.9-1.1c1.7-0.5,3.4-0.9,5.1-1.5c1.6-0.5,3.3-0.2,4.9-0.4
		c1.7-0.2,3.3-0.9,4.7-1.6c1-0.5,1.6-1.7,1.2-3.5c-0.7-3-0.7-6.2-1.5-9.2c-0.6-2-1-4.1-1.3-6.2c-0.1-0.9-0.7-1.8-0.9-2.7
		c-1-3.1-1.4-6.3-1.7-9.6c-0.2-2.8-1-5.6-2.4-8.1c-0.5-0.9-0.7-1.9-0.9-2.8c-0.8-3.5-2.2-6.7-3.2-10.1
		C129.3,343,129.2,340.6,128.2,338.2z M220.3,337.2c-0.2-1.4,0.4-2.2,0.5-3.1c0.2-4.8,2.2-9.1,3.6-13.6c1.1-3.8,3.3-7.3,4.7-11.1
		c1.9-5.3,4.5-10.3,6.3-15.6c0.3-0.8,0.5-1.5,0.4-2.3c-0.4-3.7-0.1-7.5-1.2-11.1c-0.2-0.5-0.2-1.2,0.1-1.7c0.4-0.8,0.3-1.5,0.3-2.3
		c0-2.8,0-5.7,0-8.5c0-1.5,0-3-1-4.3c-0.2-0.2-0.4-0.5-0.2-0.8c0.9-1.9,0-3.7-0.3-5.5c-0.4-2.5-0.9-4.9-0.4-7.4
		c0.1-0.3,0.1-0.7,0-1.1c-0.6-2.2,0.1-4.6-0.7-6.8c-0.2-0.7-0.2-1.6,0.3-2.3c0.2-0.3,0.2-0.7,0-1c-1.3-2.6-0.9-5.5-1.3-8.2
		c-0.5-3.4-0.6-7-0.4-10.6c0.2-3.4-0.4-6.7-0.5-10.1c0-0.4-0.2-0.9-0.2-1.3c0-1.5-1.3-2.5-1.1-4.1c0.2-1.7-0.3-3.3-0.4-5
		c-0.3-3.4-1-6.8-1.9-10.2c-0.5-1.6-0.3-3.3-0.5-4.8c-0.3-2.1-0.8-4.2-1.2-6.2c-0.4-2.2-0.4-4.4-0.6-6.5c-0.2-1.8-0.8-3.5-0.7-5.4
		c0.1-1.8,0.3-3.7-0.3-5.6c-0.3-1-0.6-2-0.5-3.1c0.1-3.2,0-6.5,0-9.7c0-0.6,0.1-1.1-0.5-1.6c-1.5-1.2-1.5-3-1.7-4.7
		c-0.1-0.6-0.2-1.2-0.4-1.9c-0.7-2.2-1-2.3-2.8-1.1c-2.4,1.6-4.9,3-7.7,3.8c-1.2,0.4-2.4,0.3-3.6,0.5c-3.9,0.7-7.8,2-12,1.5
		c-1.1-0.1-2.4-0.2-3.7,0.3c-1.9,0.7-3.9,0.9-5.9,1c-5.4,0.1-10.9,0-16.2-1.3c-1.7-0.4-3.6-0.5-5.2-1c-1.4-0.4-2.8-0.9-4.1-0.9
		c-2.6,0-4.7-1.3-7.2-1.6c-0.9,1.7-0.7,3.8-1.9,5.5c-0.2,0.3-0.1,0.9,0,1.3c0.5,1.7,0.9,3.4,1.2,5.2c0.3,1.9,0.4,4-0.2,5.8
		c-0.7,2.1-2.2,4-4,5.5c-0.9,0.7-1.8,2.1-3,1.7c-0.9-0.3-1.3,0.1-1.7,0.5c-0.4,0.4-1,0.5-1.4,0.5c-2,0.1-3.6,1.3-5.3,2.2
		c-1.4,0.7-2,1.8-2.6,3.2c-1.3,3.1-1.1,6.3-1.2,9.6c-0.2,3.8,0.6,7.5,2.4,10.9c0.6,1.1,1.2,2.2,1.4,3.3c0.5,2.7,1.4,5.2,2.4,7.7
		c1,2.4,1.3,5.1,2.5,7.6c-0.9,0.5-0.5,1.7-1.5,2.1c-1.1,0.4-1.6,1.5-2.4,2.2c-2.9,3-4.8,6.7-7.8,9.7c-0.8,0.8-0.7,1.7,0,2.5
		c0.4,0.5,0.8,0.8,1.2,1.3c0.9,1.2,0.7,2.2-0.5,3.1c-0.8,0.5-1.4,1.2-2.1,1.9c-2.2,2.5-2.2,2.5-5.2,1c-0.3,0.2-0.6,0.5-0.8,1
		c-1,2.3-2.3,4.5-3.7,6.6c-2.1,3.1-3.6,6.5-5.2,9.8c-1.5,3.1-2.5,6.6-3.5,10c-1.1,3.9-2.7,7.8-3,11.9c-0.1,1.9-1.1,3.5-1,5.4
		c0.2,2.9-0.9,5.6-1.1,8.5c0,1.2,0,2.4-0.2,3.6c-0.7,3.2-0.5,6.3,0.8,9.4c0.2,0.5,0.3,1.5,0,1.9c-1.3,1.5-0.5,2.7,0,4.1
		c0.3,0.9,0.4,1.8-0.8,2.4c-1.3,0.6-2.3,0.6-3.1-0.4c-0.8-1-1.9-1.9-1.9-3.3c0-0.5-0.3-1.2-0.7-1.3c-1.3-0.4-1.2-1.5-1.5-2.4
		c-0.8-2.1-1.6-4.1-1.8-6.3c-0.1-1.8-0.9-3.4-1.4-5.1c-0.3-0.9-0.9-1.6-1.1-2.5c-0.7-2.9-2.6-5.4-3.6-8.2c-0.2-0.6-0.5-1.1-0.5-1.8
		c0.1-1.8-0.6-3.5-0.9-5.3c-0.4-2.4-1.2-4.8-1.7-7.2c-0.7-4-1.4-7.9-2.5-11.8c-0.5-1.9-1.3-3.9-1.4-5.7c-0.2-2.6-0.9-5-1.4-7.5
		c-0.3-1.4-0.9-2.7-1.2-4c-0.8-4.1-2-8.1-2.5-12.3c-0.4-2.9-1.4-5.6-1.4-8.5c0-1.7,0.3-3.6-0.1-5.2c-0.5-1.8,0-3.3,0.5-4.9
		c0.2-0.6,0.4-1.2,0.5-1.8c0.6-4.4,3.2-7.7,6-10.9c0.5-0.5,1.1-0.6,1.6-1c1.9-1.6,4.7-1.9,6.1-4.2c0-0.1,0.1-0.1,0.2-0.2
		c2.8-1.6,5.5-3.4,7.9-5.6c1.7-1.5,3.8-2.6,5.3-4.3c2.1-2.5,4.7-4.6,5.9-8c-0.4-0.8-1.3-1.5-0.8-2.5c0.6-1.2,0.5-2.5,0.3-3.6
		c-0.4-1.5,0.5-3.5-1.5-4.5c0.4-0.9-1.1-1.4-0.6-2.1c1.3-1.8,0.3-3.5-0.3-5c-0.9-2.4-0.9-4.7-0.6-7.1c0.2-1.7,0.5-3.6,2.9-3.9
		c0.5,0,0.8-0.5,1.3-0.7c1.6-0.8,3-1.8,4.7-2.4c2.8-0.9,5.6-1.6,8.2-3c0.8-0.4,1-1.5,1.8-1.7c1.7-0.3,1.8-1.6,2.2-2.8
		c0.2-0.6,0.2-1.2,0.3-1.9c-0.1-0.1-0.2-0.2-0.3-0.3c-2.6-1.8-5.7-2.6-8.4-4.3c-0.2-0.1-0.4-0.2-0.6-0.2c-1.2,0-2-0.6-2.6-1.5
		c-0.3-0.3-0.5-0.7-1-0.7c-1.8-0.1-3.2-1.4-4.3-2.4c-2.6-2.3-4.6-5.2-6.7-8.1c-1.1-1.6-2-3.4-3.4-4.7c-0.6,0.2-1,0.7-1.3,1.1
		c-1,1.2-1.8,2.9-3.1,3.6c-1.9,1-2.7,2.8-3.9,4.2c-3.1,3.7-6.7,7-10,10.5c-0.4,0.4-0.9,0.5-1.3,1.1c-1.2,2-2.4,4-4.1,5.6
		c-0.6,0.6-1.5,0.9-2,1.6c-1.9,2.6-4.5,4.7-6.5,7.3c-1,1.4-2.6,2.2-3.6,3.6c-0.7,0.9-0.8,2.1-1.6,3c-1.8,2-3.4,4.2-4.4,6.7
		c-0.4,1-1.5,1.3-2,2.1c-1.6,2.9-3.1,5.9-5,8.7c-2.7,4.1-3.6,9-6.2,13.1c-1.1,1.7-1.1,3.9-2.1,5.7c-1.4,2.5-1.8,5.3-3.3,7.8
		c-1.2,2-1.9,4.4-3.3,6.3c-0.2,0.2-0.4,0.4-0.3,0.7c0.2,1.6-0.6,3-1.1,4.3c-1.1,2.8-2.4,5.4-3.4,8.2c-0.6,1.8-1.2,3.6-2.2,5
		c-1.3,1.8-1.6,3.8-2.3,5.6c-1.1,2.9-2.2,5.8-3.4,8.7c-0.9,2.1-2.2,4.1-2.4,6.5c-0.1,1.1-0.1,2.4-0.6,3.5c-1.1,2.2-1.8,4.5-2.7,6.8
		c-1.4,3.6-2.6,7.3-3.7,11c-0.9,3.3-1.5,6.7-2,10.1c-0.1,0.9,0.2,1.9,0,2.7c-0.9,3.9-0.8,8.1-2.3,11.9c-0.4,1-0.6,2.3-0.6,3.6
		c-0.1,3.2-0.4,6.4-0.6,9.6c-0.1,1.6-0.8,3.3-0.5,4.8c0.6,2.9-0.5,5.8,0.3,8.7c0.1,0.2,0,0.4,0,0.6c-0.7,2.9-0.7,5.9,0,8.8
		c0.5,2.2,1.6,4.2,2.5,6.2c0.7,1.5,2.4,2.7,3.6,3.9c2.7,2.7,6.2,4.4,9.9,5.6c0.6,0.2,1.3-0.1,1.7,0.3c1.7,1.9,3.8,2.5,6.2,2.8
		c1.9,0.3,3.7,1,5.5,1.4c2.5,0.5,5.1,0.7,7.6,0.9c2.6,0.2,5.2,0.9,7.9,0.7c2.7-0.2,5.3-0.2,7.9,0c3.6,0.3,7.1-0.4,10.7-0.5
		c1.6,0,3.2,0.1,4.8-0.3c0.8-0.2,1.6-0.6,2.5-0.5c3.6,0.3,7.1-0.7,10.7-0.9c3.6-0.2,7.2-1.2,10.9-1.3c0.9,0,1.9,0.1,2.6-0.2
		c2-0.8,4-0.7,6-1.1c2-0.5,4-0.1,6-0.5c4.1-0.9,8.4-0.9,12.5-1.7c1.5-0.3,3.1,0,4.4-0.6c1.4-0.7,2.9-0.6,4.4-0.7
		c1.3,0,2.6,0.2,3.9-0.1c2.3-0.6,4.7-0.2,7-0.2c2.1,0,4.3,0.1,6.4-0.1c0.9-0.1,1.8-0.4,2.7-0.3c2.8,0.3,5.5,0.2,8.3,0.2
		c3.6,0,7.2,0.1,10.7,0.5c3.7,0.5,7.5,0.5,11.2,0.9c1.8,0.2,3.7,0.2,5.5,0.4c3,0.4,6.1,0.4,9.1,1.2c0.1,0,0.3,0,0.4,0
		c2,0,4,0.2,6-0.1c2.1-0.2,3.9,1.4,6,0.5c0.1-0.1,0.4,0.1,0.6,0.2C216.3,337.4,218.2,336.8,220.3,337.2z M356.7,267.5
		c0.2,0,0.3,0,0.5,0c1.2-8.7,2.3-17.4,3.5-26.4c-0.4,0.2-0.7,0.3-0.8,0.4c-2.3,3.4-5.7,5.6-8.5,8.4c-1.1,1.1-2.2,2.3-3.8,2.5
		c-2.5,0.4-4.7,1.6-7.1,2.3c-3.6,1-7.3,1.6-11,2.1c-2.8,0.4-5.5-1.2-8.4-0.5c-0.1,0-0.3-0.1-0.4-0.1c-1.2-0.6-2.5-0.6-3.8-0.7
		c-0.5,0-0.9-0.2-1.4-0.4c-2-0.9-3.4-2.4-4.9-3.8c-3.3-3.1-5.9-6.7-7.4-10.8c-0.1-0.3-0.2-0.5-0.4-0.8c-1.5-1.9-1.8-4.2-2.1-6.5
		c-0.1-0.6-0.1-1.1-0.9-1.3c-1.6,2.5-3.7,4.5-5.4,6.9c-1.8,2.6-3.8,5.2-6.2,7.2c-3.5,2.9-6.1,6.6-9.3,9.8c-2.2,2.3-4.4,4.7-6.4,7.2
		c-0.5,0.6-1.6,0.1-1.5,0.8c0.2,0.9-0.5,1.1-0.9,1.4c-2.8,2.3-5.3,4.9-7.8,7.5c-0.7,0.7-1.7,0.7-2.2,1.5c-1.7,2.7-3.9,4.9-6.1,7.1
		c-1.3,1.3-2.6,2.6-4,3.9c-1.9,1.9-3.1,4.3-4.7,6.3c-0.5,0.7-1.1,1.3-1.6,2c-2,3.7-4.1,7.4-6.4,10.9c-1.1,1.7-2.1,3.6-2.7,5.5
		c-1.4,4.7-3.2,9.2-5,13.7c-1,2.4-1.6,4.8-2.3,7.2c-0.2,0.6-0.2,1.3-0.7,1.8c-0.7,0.6-0.7,1.4-0.7,2.2c0,0.8-0.1,1.5-0.3,2.3
		c-0.5,2.8-1.4,5.5-1.4,8.4c-0.1,3.3-1.4,6.6-0.9,9.9c0,0.1-0.1,0.3-0.1,0.4c-0.3,2-0.8,4-0.3,6c0.7,2.8,0.9,5.6,0.1,8.4
		c-0.1,0.4,0.1,0.8,0.2,1.2c0.9,3.4,2.4,6.7,2.5,10.3c0,0.9,0.4,2,1.1,2.9c0.6,0.7,0.9,1.7,1,2.8c0.4,2.4,0.7,4.9,2.2,7.1
		c1.2,1.8,2.3,3.6,3.1,5.6c0.2,0.5,0.6,0.8,1.1,1c1.6,0.5,3.1,1,4.9,1.1c2,0,3.8-0.6,5.8-0.5c3.5,0.1,7-0.7,10.5-0.5
		c1.2,0.1,2.5,0.4,3.6,0.3c2.7-0.2,5.4-0.7,8.2-0.5c3.3,0.2,6.7-0.7,10.1-1.2c1.4-0.2,2.5-1.2,2.2-2.4c-0.3-1.1,0.2-1.6,0.5-2.4
		c1.2-2.9,2.8-5.4,5.3-7.3c2.3-1.8,4.2-4.2,7.2-4.9c1.1-0.3,2.2-0.6,3.2-1.1c1.4-0.7,2.7-0.8,4.2-0.4c1.2,0.3,2.3,1.3,3.8,0.8
		c0.5-0.2,1.2,0.4,1.6,1c0.6,0.7,1.4,1.2,2.2,1.6c1.4,0.6,2.6,1.4,3.8,2.3c1.7,1.2,3.3,2.5,5.2,3.4c0.4,0.2,1.1,0.5,1,1
		c-0.1,1.4,0.9,1.7,1.7,1.4c1.7-0.6,2.5,0.3,3.4,1.5c0.7-0.3,1.4-0.5,1.9-0.9c2.3-1.9,3.2-4.7,4.9-7.1c-0.4-0.4-1.1-0.3-1.3-1.1
		c0.5-2.5,2.4-4.3,4-6.2c0.9-1.1,2.3-1.9,3.4-2c3.5-0.4,7.2-0.3,10.4,1.3c1.2,0.6,2.5,1.1,3.7,1.7c2.8,1.5,5.5,2.9,7.2,5.9
		c0.6,1.1,1.5,2.4,2.6,2.8c8.7-1.3,17.1-3.1,25.4-5.2c0-0.4,0.1-0.6,0-0.7c-2.6-3-3.5-7.2-6.7-9.7c-0.3-0.2-0.4-0.7-0.6-1.1
		c-0.7-2.2-1.9-4.1-3-6c-1.6-2.9-3.3-5.8-5.1-8.6c-0.4-0.7-1.3-1.8-1.3-2c0.6-1.9-1.6-2.8-1.3-4.5c-2.9-3.9-3.7-8.6-5.5-13
		c-1.3-3.1-1.6-6.5-2.9-9.6c-1.8-4.3-2.9-8.8-3.5-13.5c-0.3-2.2-0.8-4.4-0.9-6.5c-0.3-3.5,0-7,0-10.5c0-1.6,0-3.2,0.1-4.7
		c0.1-1.6,0-3-0.9-4.3c-0.6,0.1-0.7,0.5-0.9,0.7c-1.4,1.1-2.1,2.8-3.7,3.9c-3,2.1-6.3,3-9.7,2.9c-2.6-0.1-5.2-0.7-7.8-1.1
		c-2.8-0.4-4.9-2.2-7.3-3.3c-0.9-0.4-2.1-0.6-2.5-1.4c-0.8-1.5-2.2-2.1-3.2-3.3c-4.1,2.1-8.2,3.8-12.7,4.3c-2.4,0.3-4.8,0.1-7.1,0
		c-2.5-0.1-4.8-1-7.2-1.8c-1-0.3-2-0.4-2.9-1c-1.4-1.1-2.9-2.1-4.6-2.7c-0.8-0.3-1.3-0.8-1.8-1.4c-1.9-2.4-3.1-5.2-4.2-7.9
		c-1.5-3.6-0.7-7.5,1.1-10.9c1.2-2.1,3.3-3.9,5.2-5.3c2.3-1.7,5.3-2.9,8.3-3.5c3.1-0.6,6.1-1.6,9.3-2c5.6-0.6,10.7,1.2,15.8,3.1
		c2.7,1,5,3.1,8.2,2c0.3-0.1,0.7,0,1.1,0c1.1,0.1,2.2-0.1,3-0.8c1.4-1.4,3.4-1.4,5-2.1c2-0.9,4.2-0.5,6.4-0.5
		c2.2,0.1,4.6-0.1,6.6,0.7C351.9,259.3,355.8,262.1,356.7,267.5z M172.3,44.6c-0.4-2.5,0.3-4.7,1.4-6.7c0.8-1.4,1.3-2.8,1.8-4.3
		c0.8-2.5-0.2-5-2.5-6.1c-4.3-2.1-8.7-2.3-13.3-1c-4.3,1.2-7.7,3.9-11.3,6.3c-1.7,1.1-2.4,1.1-3.7-1c2.9-1.9,4.6-4.7,5.2-8.1
		c-0.6-0.7-1.4-0.6-2.1-0.7c-1.4-0.1-2.8,0.2-4.2,0.4c-2.3,0.4-4.7,0.7-6.7,1.8c-2.1,1.1-4.2,2-6.3,3.1c-1.4,0.8-3,1.4-4.3,2.4
		c-2.2,1.7-4.2,3.6-6.6,5c-1.1,0.6-2,1.5-2.9,2.4c-0.3,0.3-0.4,0.7-0.8,0.9c-1.7,0.9-3.3,1.9-4.1,3.9c-0.6,1.5-2,2.5-3,3.7
		c-3.9,4.8-6.9,10-8.9,15.8c-0.3,0.8-0.8,1.4-1,2.3c-0.7,3.1-1.4,6.2-2.5,9.2c-0.9,2.5-1.4,5-0.9,7.7c0.2,1.2,0.6,2.3,0.5,3.6
		c-0.1,1.7,0.4,3.4,0.7,5.1c0.6,3,1.6,6,2.8,8.8c0.2,0.5,0.5,0.9,1.1,0.9c1.5,0,1.7,0.9,1.5,2.1c-0.2,0.9,0.1,1.7,0.6,2.5
		c1,1.6,2.1,3.3,3.2,4.8c1.2,1.6,2.3,3.2,3.7,4.7c1.2,1.4,3,2.1,3.9,3.8c0.1,0.1,0.4,0.2,0.6,0.3c1,0.3,1.9,1,2.8,1.5
		c2.3,1.3,4.6,2.7,7.3,3.4c1.1,0.3,2.3,0.9,3.3,1.5c3.8,2.3,7.5,4.6,11.4,6.5c2.8,1.4,5.3,3.3,8.4,4c0.9,0.2,1.9,0.3,2.9,0.8
		c1.9,0.9,3.8,1.9,5.8,2.4c2.9,0.7,5.6,1.7,8.6,1.9c1.7,0.1,3.6,0.2,5.2,1.3c0.2,0.2,0.5,0.3,0.8,0.3c2.3,0,4.6,0.7,6.9,0.6
		c0.6,0,1.2,0.6,1.9,0.3c2.1-0.8,4.3-0.2,6.5-0.7c2.5-0.6,5.3-0.2,7.9-0.8c0.3-0.1,0.6,0,0.8,0c1.8-0.1,3.7,0.1,5.5-0.2
		c2-0.4,4-0.4,5.9-0.8c2.2-0.5,4.4-1,6.5-2.1c2.2-1.2,4.3-2.7,6.5-3.9c1.6-0.9,2.7-2,3.9-3.5c0.8-1,1.2-2.5,2.9-3
		c-0.6-1.3,0.1-2.4,0.9-3.3c0.6-0.8,0.9-1.6,1.1-2.5c1.2-3.8,2.3-7.7,4.1-11.3c1.5-3.1,1.8-6.3,1.4-9.4c-0.4-2.8,0.3-5.5-0.2-8.3
		c-0.2-1.3,0.6-2.7,0.3-4c-0.3-1.3-0.2-2.6-0.4-3.8c-0.3-1.8,0-3.7-0.7-5.3c-0.8-2.1-1.6-4.3-2.2-6.5c-0.5-1.8-1.2-3-2.6-4
		c-2.2,0.5-3.5,1.9-3.7,4.2c-0.2,1.3-0.6,2.6-0.9,3.9c-0.6,0.2-1.2,0.4-1.9,0.5c-0.7,0.1-1.5-0.2-1.3-1c0.4-1.9-1-3.8-0.1-5.7
		c0.6-1.1,0.4-2.2,0.1-3.3c-0.2-0.8-0.1-1.7,0.1-2.5c0.5-2.6,0.4-5.4-0.5-7.8c-1.2-3.3-3.5-6.1-6.4-8.1c-3.1-2.1-6.4-4-9.2-6.4
		c-2.1-1.7-4.5-2.7-6.8-4c-2.2-1.3-4.8-0.9-7.3-1.3c-0.8-0.1-1.7-0.5-2.7-0.1c-1.1,0.5-2.3,0.6-3.5,0.9c-3.3,0.8-6.4,1.8-8,5.3
		C174.5,45.4,174.1,45.3,172.3,44.6z M388.5,380c0.6-1.6,0.6-3.3,1.8-4.6c1-1,1.6-2.3,2.2-3.6c0.9-1.8,2.7-2.9,3.4-4.8
		c0.1-0.2,0.4-0.4,0.7-0.5c0.8-0.4,1.3-1.1,1.8-1.8c0.5-0.8,1.1-1.6,1.9-2c2-1.2,3.5-3.1,5.4-4.4c1.4-0.9,2.7-2.3,4.4-2.3
		c1.1-0.1,2.2-0.3,3.1-0.7c1.2-0.6,2.5-0.7,3.8-0.6c3.5,0,6.4,2,9.6,3.1c1.3,0.4,1.6,2,2.8,2.4c1.4,0.6,2,1.6,2.6,2.9
		c0.6,1.1,0.7,2.4,1.3,3.5c0.7,1.3,1.4,2.6,1.3,4.2c0,0.7,0.2,1.8,0.5,2c1.4,0.9,1,2.2,1.3,3.4c0.8,3.9,0.5,7.7-1,11.4
		c-0.4,1.2-0.9,2.5-2.2,3c-1.1,0.4-1.4,1.3-1.9,2.1c-0.3,0.5-0.1,1.1-0.6,1.6c-2.6,2.5-4,5.8-5.7,8.9c-1.1,1.9-2.4,3.8-3,6
		c-0.8,3.1-0.8,6.3-1.3,9.5c-0.4,3-0.7,6.1-1,9.1c-0.1,0.9,0.5,1.4,0.4,2.1c-0.1,2.8,0.4,5.7,0.2,8.5c-0.1,1.2,0.3,2.2,0.9,3.2
		c1.6,2.5,4,4.3,5.9,6.7c0.9,1.2,2.2,2.1,3.2,3.2c2,2.5,4.6,4.3,7.4,5.6c2.8,1.4,5.5,3.4,8.8,3.7c0.4,0,3.9,1.1,4.2,1.1
		c2.7,0.2,5.4-0.5,8.2-0.4c3.5,0.1,6.7-1.3,10-2c2.7-0.6,5.3-2,6.4-5c0.2-0.6,0.9-0.9,1.4-1.3c0.9-0.9,1.6-1.9,1.4-3.3
		c-0.2-1.1-0.3-2.4,0.1-3.4c0.4-1.2,0-2.1-0.7-2.9c-1-1.1-1.6-2.3-2.4-3.5c-1.6-2.6-4-3.7-6.8-3.6c-1.6,0.1-3.2,0-4.8,0
		c-2.2,0-4.4-0.6-6.6-0.7c-2.2-0.1-4.1-1.5-5.8-2.8c-1.1-0.8-2.4-1.2-3.1-2.5c-0.9-1.6-1.3-3.5-2.8-4.8c-0.3-0.2-0.3-0.8-0.3-1.2
		c0-4.5-0.1-9,0-13.5c0-1.3-0.3-2.6,0.2-3.8c0.9-2.3,1.8-4.6,2.8-6.8c1.5-3.7,3.8-7,6.4-10.1c0.2-0.2,0.4-0.3,0.6-0.5
		c1.3-0.6,2-1.7,2.8-2.7c1.5-1.9,2.6-4,3.8-6.2c0.4-0.8,1.3-1.2,1.5-2.3c0.2-1.3,1-2.5,1.8-3.6c1.7-2.4,3.9-4.5,4.5-7.4
		c1-4.6,1.7-9.3,1.5-14.1c0-0.4-0.2-0.7-0.2-1c-1.1-5.2-3.9-9.5-7.2-13.5c-0.9-1-1.8-2.2-3.5-2.6c-1.3-0.3-2.8-1.3-4-2.4
		c-1.4-1.2-3.3-1.9-5-2.1c-3.2-0.2-6.5-0.3-9.8,0.3c-2.8,0.5-5.6,0.9-8.4,1.5c-0.9,0.2-1.8-0.5-2.7,0c-1.6,0.9-3.5,0.7-5.2,1.2
		c-2.3,0.7-4.8,0.5-7.1,1.3c-2.2,0.7-4.4,1.6-6.7,2c-1.7,0.4-2.9,1.6-4.6,2c-2.4,0.6-5,0.8-7.3,1.8c-4.3,1.9-8.9,2.9-13.5,3.4
		c-1.7,0.2-3.5,0.7-5.2,0.6c-1.9,0-3.8-0.6-5.7-1c-0.5-0.1-0.9-0.3-1.4,0c-0.7,0.4-1.3,0.1-1.9-0.3c-1.2-0.8-2.6-1-4.5-0.9
		c2,1.8,2.8,3.9,3.6,5.9c1.3,3.4,2.6,6.7,4.5,9.9c1.3,2.1,2.8,4.2,3.6,6.6c0.5,1.5,1.1,3.3,2.5,4.5c1.2,1,1.9,2.2,2.5,3.6
		c0.9,2,2.3,3.8,3.9,5.4C387.4,380,387.8,380.2,388.5,380z M112,175.3c-0.9-0.3-1.5,0-1.9,0.9c-0.2,0.5-0.4,1-0.8,1.2
		c-3,1.3-4.3,4.5-7.1,6c-1.7,0.9-3.1,2.3-4.4,3.7c-1.2,1.2-2.4,2.4-4.3,2.4c-0.7,0-1.4,0.6-1.9,1.2c-0.7,0.9-1.5,2.2-2.5,2.4
		c-2.8,0.8-4,3.2-5.5,5.1c-0.9,1.2-2.4,2.2-2.6,3.8c-0.5,3.6-1.9,7.2-0.8,10.9c0.2,0.6,0.3,1.1,0.1,1.7c-0.7,1.8-0.1,3.5,0.4,5.2
		c0.2,0.7,0.5,1.3,0.6,2c0.5,1.9,0.5,4,1,5.8c0.7,2.5,0.7,5.1,1.4,7.6c0.4,1.2,1,2.4,1,3.7c0,4.4,1,8.6,1.9,12.9
		c0.9,4.4,2.4,8.7,3.2,13.2c0.7,4.1,1.8,8.2,3.2,12.2c0.4,1,0.8,2,0.9,3c0.3,2.4,1.7,4.5,2.2,6.8c0.6,2.6,2.1,4.8,2.6,7.4
		c0.2,0.8,0.2,1.9,1.5,2.2c0.4-1.7,0-3.3,0.2-4.9c0.3-2.7,1-5.4,0.7-8.3c-0.1-0.8-0.2-1.8,0.2-2.5c1.4-2.7,1.2-5.8,1.9-8.6
		c0.9-3.9,2-7.6,3-11.5c1.1-4.3,3.1-8.3,4.6-12.5c1-2.9,2.6-5.5,3.9-8.3c0.7-1.4,1.2-3.2,2.3-4.2c1.1-1,1.7-2.4,2.6-3.3
		c-0.3-1.7-1.6-2.5-2.6-3.5c-1.3-1.5-1.8-3.5-3-5.1c-1.7-2.4-3.7-4.5-4.9-7.2c-0.2-0.5-0.4-1.1-1.1-1.3c-1.3-0.3-1.6-1.4-2-2.6
		c-0.3-1-0.3-2.1-1.1-2.9c-0.2-0.2-0.2-0.8,0.2-1.2c0.5-0.2,1.3,0.1,1.8-0.3c0.2-1.2,0.7-2.1,2.1-1.9c1.4,0.1,1.8,0.8,2,3.2
		c1.4,1.3,2.9,2.5,4.1,3.9c2.8,3.4,6.2,6,9.5,8.8c0.8,0.7,1.7,0.7,2.2-0.2c1.9-3.4,4.6-6.3,7.4-9c1.9-1.8,1.9-4.2,0.9-5.8
		c-1-1.7-0.9-3.6-2.1-5.2c-0.4-0.6-1-1.6-0.2-2.6c0.3-0.3,0.2-0.9,0-1.2c-1.1-1.3-1-3-1.7-4.5c-1-2.1-1.8-4.3-2.4-6.4
		c-0.8-3-1.4-6.1-2-9.2c-0.3-1.3,0-2.9-0.9-4.1c-0.7-0.3-1.1,0.3-1.5,0.2c-1.7-2.1-3.9-3.1-6.3-3C115.6,171.7,113.4,173,112,175.3z
		 M219.4,342c-0.6-0.8-1.6-0.6-2.1-1.4c-0.7-1.2-1.5,0.3-2.3,0.3c-0.2,0-0.4-0.3-0.6-0.3c-4.3-0.1-8.4-1.3-12.7-0.9
		c-0.3,0-0.7-0.1-1-0.2c-3.5-0.5-6.8,0-9.2,3c-2.6,3.1-5.9,5.8-6.2,10.3c-2.4,4.9-2.2,10.5-4.5,15.4c-0.4,0.9,0.1,2.2-0.2,3.2
		c-0.9,3.8-1.7,7.6-2.3,11.4c-0.4,2.9-0.5,5.8-0.6,8.6c-0.1,1.3-0.6,2.9,0.8,4c0.2,0.2,0.2,0.8,0,1c-0.9,1.4-0.1,2.5,0.6,3.5
		c0.6,0.9,0.7,1.9,0.9,2.7c2,0.7,4.1,0.2,6,0.5c1.8,0.3,3.6,1.5,5.5,0.1c0.1-0.1,0.3,0,0.4,0.1c2.4,1.6,5.2-0.2,7.6,1.1
		c0.1,0,0.1,0,0.2,0c1.7-0.1,3.6,0.3,5.1-0.9c0.5-0.4,1.2-0.3,1.9-0.4c1.3-0.2,2.6,0.1,3.9-0.3c1.2-0.4,2.5-0.7,3.7,0
		c0.6,0.3,1.1,0.3,1.7,0.2c1.5-0.2,2.7-1.4,4.3-1.4c0.3,0,0.8-0.6,1-1.1c0.4-0.8,0.6-1.6,0.9-2.4c0.8-2.7,0-5.4,0.4-8.1
		c0.1-0.9-0.6-1.2-1.2-1.6c0.6-0.6,1-1.2,0.7-2.1c-0.6-1.6-0.2-3.4-0.6-5.1c-0.4-1.5-0.6-3.2-1.3-4.7c-0.4-0.8-0.6-1.6-0.6-2.5
		c0-1.4-0.4-2.7-0.5-4c-0.4-3.4-1.2-6.7-1.2-10.1C217.8,354.1,217.7,348,219.4,342z M173.7,395.3c-0.9-3.1-1-6.3-1.3-9.5
		c-0.1-1.2-0.7-2.4-0.5-3.6c0.7-3.1-0.2-6.1-0.3-9.1c-0.1-2.2,0.3-4.5,0-6.7c-0.3-2.1,0.5-4.3,0.5-6.6c0-3,0.5-6,0.5-9
		c0-4.6-1.3-8.8-2.5-13.1c-0.2-0.5-0.5-0.7-1.1-0.9c-1.4-0.5-2.9,0.1-4.3-0.1c-1.1-0.2-2.2-0.3-3.2-0.1c-2.8,0.5-5.5,0.1-8.3,0.4
		c-2.1,0.2-4.1,0.7-6.2,1.2c-0.2,0.1-0.5,0.3-0.6,0.6c-0.5,1.1-1.2,2.2-1.3,3.3c-0.1,1.5-0.5,3-1,4.3c-0.6,1.6,0,3.2-0.7,4.7
		c-1.7,3.3-0.8,7-1.2,10.4c-0.1,1.4-0.5,3.2,0.7,4.6c0.2,0.2,0.1,0.9,0,1.3c-0.7,3.1-0.1,6,0.3,9c0.6,4.6,1.6,9.3,1.5,14
		c0,1.1,0.2,2,0.6,3.1c0.7,1.7,1.5,3.5,1.2,5.6c-0.1,0.7-0.2,1.4,0.3,2.1c1.1,0,2.3,0,3.2,0.8c1.5-1,3.2,0.3,4.8-0.1
		c0.9-0.3,2.1-0.1,3.1,0.3c2.1,0.9,4.1,0.1,5.9-0.8c0.9-0.5,1.9-1,2.8-1.5C169,398.6,171.9,398,173.7,395.3z M297.2,288.1
		c0.5-0.2,1-0.5,1.3-0.4c1.9,0.5,3.8,0.5,5.8,0.5c3,0,5.6-1.1,8.1-2.3c1.3-0.6,2.8-1.3,3.5-2.7c2,0,3.1-1.6,4.4-2.7
		c2.1-1.6,3-4,4.4-6.1c0.9-1.3,0.8-2.7,0.2-4c-0.7-1.4-1.2-2.9-1.9-4.3c-0.7-1.5-1.7-3.3-3.2-3.9c-2.7-1.1-5.1-2.7-8-3.6
		c-2.7-0.9-5.4-1-8.1-1.2c-1.1-0.1-2.4-0.1-3.5,0.5c-1.6,0.9-3.5,1.1-5.2,1.7c-3,1-6.4,1.4-8.7,3.9c-1.2,1.3-3.1,2.4-3.4,4.2
		c-0.8,4.6-1.5,9.1,1.5,13.5c1.7,2.5,4,3.4,6.5,4.3C293.1,286.3,295.3,286.7,297.2,288.1z M145.7,138.2c-1-0.7-2.2-0.1-3-0.6
		c-2.8-1.8-6-3-8.9-4.5c-0.9-0.4-1.3-0.6-2,0.1c-1.3,1.1-2.8,2.2-4.2,2.7c-2.9,0.9-5.4,3.3-8.8,2.8c-3.3,1.4-6.4,3.2-9.3,5.4
		c-0.3,0.3-0.6,0.9-0.6,1.3c0,1.2-0.1,2.4,0.1,3.6c0.4,2.7,1.7,5.2,2.2,7.9c0.2,1.2,0.2,2.7,2,2.8c0.2,0,0.5,0.3,0.6,0.6
		c0.9,1.6,2.3,2.7,3.8,3.7c1.1,0.8,2.3,1.5,3.4,2.4c1.4,1.2,2.9,1.7,4.7,1.6c3.4-0.2,6.7-0.6,9.7-2.5c1.1-0.7,2.4-1.3,3.6-1
		c2.5,0.6,3.7-1.9,5.9-1.9c2.2-2.5,3.9-5.3,3.5-8.8c-0.3-2.9-1.3-5.6-2-8.4C145.6,143.1,145.3,140.8,145.7,138.2z M329.6,265
		c0.2,3.8,0.6,7.7-1.6,11c-2.1,3.1-3.8,6.6-7.1,8.8c0.6,0.8,0.8,1.7,1.6,2c2.5,0.8,4.7,2.4,7.2,3.3c1.4,0.5,1.8,1.1,1.8,2.2
		c1.8,0.4,3.6-0.2,5.3,0.3c3.8,1.1,7.1,0.1,10.3-1.9c1.1-0.6,1.4-1.8,2-2.6c1.7-2.4,3.7-4.5,4.3-7.6c0.8-4.2,1-8.1-0.3-12.2
		c-0.6-1.9-1.2-3.4-2.7-4.8c-1.6-1.4-3.1-2.4-5.2-2.8c-2-0.4-3.8,0.2-5.7,0.3c-1.8,0.1-3.4,0.8-5.1,1.4
		C332.8,262.8,331.4,263.9,329.6,265z M392.3,382.7c1.1,0.4,2.1,0.1,3.1-0.2c0.9-0.3,1.9-0.4,2.7,0c0.6,0.3,1,0.1,1.6-0.1
		c3-1,6.2-0.4,9.3-1c0.7-0.1,1.1,0.7,1.8,0.2c0.8-0.6,1.8-0.5,2.8-0.5c2-0.1,4-0.1,6-0.4c2.2-0.3,4.5-0.9,6.5,0.8
		c1.5-1,2.1-3.5,4.6-2.1c-0.2-2.3,0.8-4.5-1-6.3c1.1-1.9,0.7-3.8-0.7-5.4c-1.1-1.2-2.5-1.5-3.8-2.1c-2.6-1.3-5.3-2.9-8.5-2.2
		c-2.5,0.6-5,0.8-7.5,1.5c-3.4,0.9-6.2,2.6-8.6,4.9c-1,1-1.7,0.7-2.9,0.2c0.6,1.5-0.3,2.4-1.2,3.2c-0.3,0.3-0.7,0.5-0.8,1
		c-0.2,1.9-1.6,3.3-2.5,4.8C392.4,380,392,381.1,392.3,382.7z M282.5,399c1.3-0.2,2.6-0.2,3.8-0.7c0.8-0.4,1.7-0.4,2.5,0
		c0.5,0.2,1,0.3,1.5,0.2c2.9-0.4,5.7-0.3,8.6-0.5c0.5,0,1.1,0.1,1.5-0.1c1.8-0.9,3.7-0.8,5.7-0.8c1.9,0,3.9,0,5.8,0
		c0.2-0.7-0.1-1.2-0.5-1.5c-1-0.8-1.8-2-2.9-2.7c-1.3-0.9-2.4-2.1-3.2-3.5c-0.8-1.4-1.2-2.7-2.8-3.7c-1.3-0.8-2.7-1.6-4-1.4
		c-2.2,0.2-4.5,0.6-6.4,2c-3.4,2.6-6.3,5.7-8.7,9.3C282.8,396.4,281.9,397.5,282.5,399z M330.4,394.4c1.9-0.4,3.5-0.6,5-1.1
		c2.1-0.7,4.1-1.6,6.4-0.7c0.2,0.1,0.5-0.1,0.8-0.1c2.2,0,3.9-1.4,6.1-1.8c0.2-0.7,0.3-1.4-0.1-2c-0.8-1.1-1.3-2.4-2.5-3.4
		c-0.9-0.7-2.1-1.4-2.1-2.8c0-0.3-0.3-0.4-0.5-0.6c-1.7-1.2-3.8-1.7-5.7-1c-0.9,0.3-1.4-0.1-2.1-0.2c-0.7,0.6-1.2,1.4-2,1.6
		c-1.7,0.5-1.9,1.7-1.7,3.2c0.1,0.4,0.1,0.7,0,1C331.5,389,331,391.6,330.4,394.4z M356.2,283.6c-1,1.5-1.8,3-2.7,4.5
		c0.8-0.4,2.2,0.3,2.4-0.9C356.1,286.2,356.5,285,356.2,283.6z M52.9,15.5c-0.8,0.7-0.7,1.3-0.5,2C53.1,17,53.4,16.5,52.9,15.5z
		 M173.8,406.4c-0.6-0.4-1.1-0.5-1.4,0.1C172.9,407,173.3,406.9,173.8,406.4z"/>
	<path  d="M201.5,190.7c0.7-0.4,1.4-0.7,2-1.2c1.1-1,2.3-0.7,3.3-0.1
		c1.4,0.9,2.9,1.8,4.1,3c1,0.9,1.1,1.8,0.8,3.1c-1.2,4.9-3.3,9.6-4.5,14.6c-0.9,3.7-2.4,7.3-3.7,10.9c-1.1,2.9-2.7,5.4-4,8.1
		c-1.4,2.9-2.4,5.9-3.7,8.9c-0.6,1.3-1.3,2.7-2.2,3.8c-0.9,1-1.3,2.2-1.5,3.4c-0.2,1-0.7,1.8-1.4,2.3c-2.6,1.6-3.7,4.2-5.1,6.6
		c-1.1,1.8-1.9,3.8-3.1,5.6c-1,1.5-0.8,3.3-1.4,5c-0.7,1.9-2.1,3.4-2.3,5.5c-0.1,0.6-0.3,1.2,0,1.7c0.9,1.6,1.1,3.4,1.7,5
		c0.5,1.4,0.4,2.6-0.4,4c-0.8,0.1-1.6,0.2-2.6,0.3c-1.3-3.5-2-7.2-3-10.9c-1.5,0.1-2.5,0.9-3.3,2.4c-0.8,1.6-1,3.4-1.5,5.1
		c-0.4,1.4-1.1,2.4-2.1,3.3c-0.7-0.2-1.4-0.4-2.2-0.6c-1.1-3.4,0.3-6.2,2.2-9.1c-3-0.6-5.5,0.1-7.4,2.2c-0.5,0.6-1,1-1.7,1.1
		c-1.3,0.4-2.4,0.9-2.9,2.4c-0.3,0.8-1.1,0.7-1.9,0.4c-0.4-1.4-0.1-2.5,0.7-3.7c2.3-3.2,5.2-5.6,8.4-7.7c1.3-0.9,3-0.8,4.6-0.5
		c0.5,0.1,0.9,0.3,1.4,0.1c2.3-1.3,4.6-2.3,6.1-4.9c1.5-2.5,2.7-5.3,4.9-7.4c0.5-0.5,0.8-1.3,1.2-2c0.6-1.1,1.1-2.3,2-3.2
		c1.8-1.7,2.5-4,3.4-6.3c0.6-1.7,1.2-3.5,2.5-5.1c1-1.2,1.9-2.8,2.2-4.5c0.3-1.6,1.2-3.2,1.8-4.8c0.6-1.4,1.2-2.7,1.2-4.3
		c0-1.4,1.2-2.4,1.4-3.9c0.3-2.1,0.6-4.3,1.6-6.1c1.6-2.9,1.3-6.2,2.7-9.1c0.9-2,0.8-4.4,1-6.7C201.2,195.2,201.3,193,201.5,190.7z"
		/>
	<path  d="M18.1,307.7c-0.3,1.5-1.5,1.9-2.3,1.7c-0.9-0.2-2-0.7-2.3-1.9
		c-1.3-4.5-0.8-8.9,0.4-13.3c0.4-1.4,0-2.7,0.3-4.1c0.8-3.3,1.4-6.6,2.3-9.9c0.7-2.7,1.8-5.5,1.9-8.3c0.1-1.6,1.4-2.6,1.1-4.1
		c-0.2-1.5,0.3-2.8,0.9-4.1c1.1-2.6,1.6-5.3,2.3-8.1c0.9-3.3,1.8-6.7,3.2-9.9c1.1-2.5,2.1-5,2.3-7.8c0.2-2,1.5-3.8,2.2-5.7
		c0.2-0.6,0.8-1,0.7-1.7c-0.1-1.4,0.9-1.4,1.9-1.4c1.4,0.1,2.1,1.1,1.4,2.3c-1.8,3.1-3,6.4-4,9.8c-0.1,0.4-0.2,0.7-0.6,0.8
		c-0.8,0.2-0.8,0.9-1,1.5c-0.7,2.5-1.7,4.8-2.7,7.2c-1.2,3-1.9,6.2-2.7,9.4c-0.3,1.2-0.6,2.3-1.1,3.4c-0.6,1.5-0.8,3.2-1.1,4.9
		c-0.1,0.3,0.1,0.8-0.1,1.1c-1.5,2.5-1.7,5.4-2.4,8.1c-0.6,2.2-1,4.4-1.4,6.6c-0.4,2.2-0.6,4.3-1.5,6.4c-0.2,0.4-0.2,0.8-0.2,1.2
		c0.1,3.2-0.3,6.3-0.8,9.4c-0.3,1.5,0.2,2.9,0.8,4.4C16,306.9,16.6,307.7,18.1,307.7z"/>
	<path  d="M26.8,289.5c-1.5-0.6-1.8-1.4-1.7-2.5c0.1-2.2-0.1-4.4,0.7-6.4
		c0.8-2.3,0.6-4.8,1.1-7.2c0.7-3.6,1.5-7.1,2.8-10.6c0.9-2.5,1.3-5.4,1.9-8c0.4-1.5,0.8-3,1.9-4.2c0.9,0,1.1,0.6,1.5,1.1
		c-0.4,2.7-1.4,5.3-2.4,7.7c-1.1,2.7-1.4,5.3-1.9,8c-0.2,0.9-0.7,1.6-1,2.3c-1.4,3.6-1.2,7.6-2.1,11.2
		C26.9,283.6,26.8,286.4,26.8,289.5z"/>
	<path  d="M284.4,318.8c0.4-0.7,0.9-1.1,1.8-1.3c1.8-0.4,3.7-0.7,5.1-2.2
		c0.7-0.8,1.9-1.2,2.8-1.4c2-0.4,3.6-1.3,5.3-2.4c3.3-2,6.9-1.9,10.6-1.7c2.5,0.1,4.9,0,5.7-3.1c0.1-0.3,0.5-0.5,0.5-1.1
		c-1.3-0.3-2.6-0.7-3.8-1.4c-1.7-1-2.3-2.9-1.4-4.7c0.7-1.4,2.2-1.6,3.2-1.7c1.8-0.2,3.6-0.4,5.4-0.4c2,0,3.9,0.5,5.6,1.6
		c0.2,0.1,0.3,0.4,0.5,0.4c1.6,0.6,2.7,1.4,2.3,3.4c-0.4,2.1-1.8,3.6-3.8,4c-1.1,0.2-2.2-0.4-3.3,0c-0.6,0.5,0.5,0.8,0.2,1.3
		c-1.6,0.4-2.3,2-1.6,3.7c1.7,0,3.4-0.2,5,0.9c0.8,0.5,2.1,0.4,3.1,0.5c3,0.4,5.6,1.3,8,3.4c1.1,0.9,2.6,1.7,3.7,2.7
		c1.4,1.1,2.6,2.5,3.8,3.8c0.6,0.7,0.5,0.7-0.4,2.2c-0.9,0.3-1.6-0.2-2.2-0.6c-2.7-1.8-5.2-4-7.7-6.1c-1.9-1.5-3.9-2.1-6.2-2.3
		c-2.4-0.2-4.8-0.4-7.2-0.9c-1.5-0.3-2.6-1.7-4.2-2.1c-0.8,0.2-1.7,0.7-2.7,1.1c-1.2,0.4-2.2,0.7-3.5,0.3c-0.5-0.2-1.2-0.1-1.7,0
		c-1.8,0.4-3.8,0.2-5.5,0.6c-3,0.6-6.2,1.1-8.7,3.1c-1.2,1-2.6,1-3.9,1.4c-0.6,0.2-0.5-1.3-1.4-0.7c-0.5,0.3-1,0.9-1.6,1.1
		C285.3,320.4,284.6,319.9,284.4,318.8z"/>
	<path  d="M238.6,365.5c0.3-0.2,0.4-0.3,0.6-0.4c0.1,0.1,0.2,0.2,0.2,0.3
		c0.4,2.3,0.7,4.6,1.9,6.7c1.1,2.1,1.7,4.5,2.8,6.6c0.5,0.9,1.3,1.4,1.6,2.5c0.2,0.6,0.4,1.1-0.2,1.6c-0.5,0.4-1,0.2-1.5-0.2
		c-1.3-1.1-2.1-2.6-2.8-4.2c-0.1-0.3,0-0.7-0.3-1c-2.5-3.5-2.8-7.9-4.3-11.9c-0.7-1.8-0.5-4-0.6-6c-0.1-1.5,0.1-2.9,0.2-4.4
		c0.2-2.1-0.3-4.3-0.5-6.7c0.4-0.7,1.1-0.6,1.5-0.3C237.7,354.1,237.1,359.8,238.6,365.5z"/>
	<path  d="M229.9,370.8c-1.9-9-1.4-18-0.5-27.4c0.8,2.2,0.4,2.3,0.7,4.7
		c0.2,2.1-0.3,4.1-0.1,6.1c0,0.3,0.1,0.6,0.1,0.8c-0.6,3,0.4,5.8,0.4,8.7c0,1.8,0.3,3.5,0.3,5.3
		C230.8,369.8,230.8,370.4,229.9,370.8z"/>
	<path  d="M240.1,391.9c-2.4,0-2.8-0.3-2.7-2.7c-0.9-0.2-1.5-0.6-1.4-1.7
		c0-0.3,0.1-0.7-0.2-1c-3.3-3.5-4.1-8-5.4-12.4c-0.3-1-0.2-1.9,0.6-2.7c1,1.2,0.6,2.7,1.1,3.9c0.6,1.5,1.4,2.8,2,4.3
		c0.5,1.2,0.5,2.6,0.8,4c1.7,0.8,3.5,4.7,3.6,6.8C238.9,391,239.7,391.3,240.1,391.9z"/>
	<path  d="M350.4,303.4c0.3,0.7,1,1.4,1.8,2c-2.1,1.7-4.3,2.8-7.1,1.7
		c0-0.5,0.2-1.3,0.4-2.1c0.6-1.8,0.5-1.9,2.4-1.5C348.8,303.6,349.4,302.8,350.4,303.4z"/>
	<path  d="M341.9,306.8c-2.4,0.2-3.6,2.4-5.7,1.4c-1.3-2.5-1.3-2.6,0.7-4.4
		C338.4,304.6,340.1,305.2,341.9,306.8z"/>
	<path  d="M295.8,304.8c0,1.7-1,2.9-2.7,3.5c-0.8,0.3-1.7,0.3-2.3-0.5
		c-0.7-0.8-0.4-1.8-0.3-2.6c0-0.2,0.4-0.5,0.6-0.5C292.7,304.7,294.3,303.4,295.8,304.8z"/>
	<path  d="M298.8,297.2c1.8,0,2.8,0.6,2.7,1.5c-0.1,1.1-0.7,1.9-1.9,2.1
		c-0.9,0.2-1.7,0.6-2.4-0.1c-0.6-0.6-0.6-1.4-0.4-2.3C297.1,297.1,298.2,297.3,298.8,297.2z"/>
	<path  d="M342.7,315.1c-0.4-0.8-0.8-1.6-1.3-2.5c1-0.5,1.3-2.4,3.1-1.4
		c1.3,0.7,1.9,1.7,1.6,2.7C345.9,314.9,344.9,315.3,342.7,315.1z"/>
	<path  d="M285.3,298.7c1.1-0.4,3.5-0.3,4.8,0.2c-0.9,1.7-2.4,2.9-3.5,2.5
		C285.1,301.1,284.9,300,285.3,298.7z"/>
	<path  d="M145,68.6c-3.5,0.6-5.6-1.6-6-4.6c-0.4-2.8,2.4-6.1,5.1-6.2
		c1.5,0,3.1-0.5,4.4,1c1.1,1.2,2.5,2.3,2.6,4c0.1,1.7-0.8,3-2,4.1C147.9,68,146.6,68.9,145,68.6z"/>
	<path  d="M125.1,47.8c0-1.1-0.1-2.2,0.2-3.3c1.1-3.6,5.4-4.7,8.1-2.2
		c1.2,1.1,2.1,2.4,1.4,3.8c-0.7,1.5-1.8,2.6-3.8,3C128.7,49.7,127.1,48.7,125.1,47.8z"/>
	<path  d="M463.3,350.3c-0.6-0.2-0.7-0.5-0.6-0.9c0.2-1-0.6-1.5-1-2.2
		c-1.1-2-2.7-3-4.7-3.8c-0.4-0.2-0.7-0.6-1.3-0.7c-0.4,0-0.8-0.3-0.7-0.6c0.4-1.4-0.7-1.3-1.5-1.5c-1.9-0.4-3.8-1-5.6-1.8
		c-1.2-0.6-2.9-0.6-4.3-0.1c-0.7,0.3-1.3,0.3-1.6-0.4c-0.4-0.8,0.2-1.2,0.9-1.6c1-0.6,2-0.5,2.9-0.3c2.1,0.6,4.3,0.9,6.3,2
		c0.7,0.4,1.6,0.7,2.4,0.9c0.6,0.2,1.3,0.4,1.4,0.9c0.7,1.9,2.4,2.2,3.9,2.6c0.8,0.2,1.2,0.7,1.7,1.3c0.6,0.7,1.1,1.4,1.8,1.9
		c1.1,0.8,0.6,2.1,1,3.1C464.5,349.7,463.8,350.1,463.3,350.3z"/>
	<path  d="M459,455.2c-2,1.8-4.3,1.3-6.5,0.7c-0.8-0.2-1.5,0-2.3,0
		c-0.6-1-0.3-1.4,0.8-1.5c1-0.1,2.1-0.1,2.9,0.1c2.9,0.8,5-0.7,7.5-1.5c2.4-0.8,4.3-2,6-3.8c0.4-0.4,0.8-0.6,1.4-0.4
		c0.6,0.2,0.6,0.7,0.6,1.3c0.2,1.7-1.1,2.8-2.2,3.3c-2,0.9-3.8,2.3-6.1,2.6C460.1,456.1,459.6,455.8,459,455.2z"/>
	<path  d="M445.4,342.8c1.5-0.8,3-0.4,4.2,0.3c2.8,1.4,5.3,3.4,7.8,5.3
		c0.9,0.7,1.1,1.5,0.7,2.6c-1.2-0.3-6.5-4.3-7.3-5.5c-1.1,0.4-2.1-0.4-2.9-1C447.2,343.8,446.5,343.1,445.4,342.8z"/>
	<path  d="M448.3,448.1c3-1.3,5.9,0.3,8.7-0.2c0.3,0.8,0.2,1.2-0.5,1.3
		c-1.3,0.1-2.5,0.4-3.8,0.1c-1.1-0.3-2.1-0.8-3.3-0.3C448.8,449.2,448.7,448.5,448.3,448.1z"/>
	<path  d="M309.6,268.9c-0.4-0.3-0.2-1-0.9-1.3c-1.2-0.6-0.9-1.9-0.5-2.8
		c1-2,4.6-2.4,6.2-0.8c1.4,1.4,1.3,2.9-0.4,3.9C312.7,268.8,311.2,269.3,309.6,268.9z"/>
	<path  d="M120.5,146.9c0.4,1.3-0.9,2.2-0.7,3.7c0.1,0.9-1.3,0.7-2.2,0.6
		c-0.3-1.4-0.4-2.6,0.9-3.8c0.8-0.7,1.3-2,2-2.9c1.3-1.6,2.8-3.1,4.9-3.9c0.4-0.2,0.8-0.1,1.2,0.2c0.4,0.4,0.3,0.7,0.1,1.2
		c-0.2,0.3-0.2,0.8-0.4,0.9C124.2,143.9,122.7,145.8,120.5,146.9z"/>
	<path  d="M129.1,147c-2.3,1.8-4.4,3.5-5,6.4c-0.8-0.1-1.4,0.4-2.1,0.8
		c-0.2-3.3,2.3-7.2,5.1-8.1C128,145.9,128.5,146.4,129.1,147z"/>
	<path  d="M342.5,265.7c0.1,2.3-1.1,4.5-2.8,5.3c-0.9,0.4-3.6-0.8-4-1.7
		c-0.8-1.6-0.3-3.5,1.2-4.2C338.8,264.1,340.7,264.6,342.5,265.7z"/>
</g>
</svg>
