<?xml version="1.0" standalone="no"?><!-- Generator: Gravit.io --><svg xmlns="http://www.w3.org/2000/svg" xmlns:xlink="http://www.w3.org/1999/xlink" style="isolation:isolate" viewBox="0 0 1000 600" width="1000" height="600"><defs><clipPath id="_clipPath_eQVvCE6e8Gj1jK8k0cJGAY3tZP33eoFh"><rect width="1000" height="600"/></clipPath></defs><g clip-path="url(#_clipPath_eQVvCE6e8Gj1jK8k0cJGAY3tZP33eoFh)"><g style="isolation:isolate" id="Layer 2"><rect x="225" y="4" width="216" height="216" transform="matrix(1,0,0,1,0,0)" fill="rgb(0,0,0)"/><rect x="397" y="389" width="120" height="120" transform="matrix(1,0,0,1,0,0)" fill="rgb(0,0,0)"/><rect x="75" y="176" width="130" height="130" transform="matrix(1,0,0,1,0,0)" fill="rgb(0,0,0)"/><rect x="655" y="84" width="136" height="136" transform="matrix(1,0,0,1,0,0)" fill="rgb(0,0,0)"/><rect x="742" y="233" width="203" height="203" transform="matrix(1,0,0,1,0,0)" fill="rgb(0,0,0)"/><rect x="510" y="261.5" width="73" height="73" transform="matrix(1,0,0,1,0,0)" fill="rgb(0,0,0)"/><rect x="120" y="424" width="85" height="85" transform="matrix(1,0,0,1,0,0)" fill="rgb(0,0,0)"/><rect x="818" y="4" width="80" height="80" transform="matrix(1,0,0,1,0,0)" fill="rgb(0,0,0)"/><rect x="583" y="494" width="50" height="50" transform="matrix(1,0,0,1,0,0)" fill="rgb(0,0,0)"/><rect x="500" y="33" width="59" height="59" transform="matrix(1,0,0,1,0,0)" fill="rgb(0,0,0)"/><rect x="213" y="349" width="40" height="40" transform="matrix(1,0,0,1,0,0)" fill="rgb(0,0,0)"/></g></g></svg>