<?xml version="1.0" standalone="no"?><!-- Generator: Gravit.io --><svg xmlns="http://www.w3.org/2000/svg" xmlns:xlink="http://www.w3.org/1999/xlink" style="isolation:isolate" viewBox="0 0 1000 600" width="1000" height="600"><defs><clipPath id="_clipPath_d9hZ4IWtc0nfunrKrHtgyv2XadqhE2iw"><rect width="1000" height="600"/></clipPath></defs><g clip-path="url(#_clipPath_d9hZ4IWtc0nfunrKrHtgyv2XadqhE2iw)"><g style="isolation:isolate" id="Layer 0"><rect x="56" y="41" width="156" height="156" transform="matrix(1,0,0,1,0,0)" fill="rgb(0,0,0)"/><rect x="168" y="288" width="254" height="254" transform="matrix(1,0,0,1,0,0)" fill="rgb(0,0,0)"/><rect x="619" y="193" width="99" height="99" transform="matrix(1,0,0,1,0,0)" fill="rgb(0,0,0)"/><rect x="863" y="41" width="103" height="103" transform="matrix(1,0,0,1,0,0)" fill="rgb(0,0,0)"/><rect x="688" y="323" width="194" height="194" transform="matrix(1,0,0,1,0,0)" fill="rgb(0,0,0)"/><rect x="583.5" y="415" width="71" height="71" transform="matrix(1,0,0,1,0,0)" fill="rgb(0,0,0)"/><rect x="391" y="149" width="96" height="96" transform="matrix(1,0,0,1,0,0)" fill="rgb(0,0,0)"/><rect x="519" y="20" width="112" height="112" transform="matrix(1,0,0,1,0,0)" fill="rgb(0,0,0)"/></g></g></svg>