<?xml version="1.0" encoding="utf-8"?>
<!-- Generator: Adobe Illustrator 16.0.0, SVG Export Plug-In . SVG Version: 6.00 Build 0)  -->
<!DOCTYPE svg PUBLIC "-//W3C//DTD SVG 1.1//EN" "http://www.w3.org/Graphics/SVG/1.1/DTD/svg11.dtd">
<svg version="1.1" id="telecons--ready" xmlns="http://www.w3.org/2000/svg" xmlns:xlink="http://www.w3.org/1999/xlink" x="0px"
	 y="0px" width="99px" height="75.6px" viewBox="-0.1 75.8 99 75.6" style="enable-background:new -0.1 75.8 99 75.6;"
	 xml:space="preserve">
<style type="text/css">
<![CDATA[
	.st0{fill:#FFFFFF;}
	.st1{fill:#00B4CB;}
	.st2{fill:#025F6B;}
]]>
</style>
<path d="M18.8,95.5c1.7,0,1.7-0.6,2.4-2.1c0.5-1.1,1.7-2.2,2.5-3.1c1.2-1.2,1.7-1.4,1.1-3.2c-0.6-1.8-2.5-1.4-3.8-0.5
	c-0.9,0.6-2.2,1.8-2.3,3c-0.1,0.5-0.3,2.9-0.9,2.9c-1.2-0.1-1.8-1.1-2.5-1.8c-1.2-1.1-2.7-1.8-3.8-3.1c-3.7-4.3,9.5-7.1,11.8-6.8
	c3,0.5,4.1,3.3,3.6,6c-0.2,1.4,0.5,0.9,1.5,0.5c1.4-0.5,3-0.4,4.3-1.1c1.5-0.3,3-0.3,4.5-0.4c1.4-0.1,2.5,0.2,3.8,0.2
	c1.7-0.1,3.3,0.1,5,0.4c1.6,0.3,3.4,1,5,0.5c1.9-0.5,4.6-2.1,5.3-4c0.8-2.2,2-5.4,4.6-5.8c2.4-0.4,6.3-0.1,8.6,0.8
	c3.2,1.1,1.7,4,0.9,6.3c-0.7,2-1.7,6.2-4,6.9c-1.2,0.4-2-1.5-2.5-2.2c-0.9-1.2-2.1-2.3-3.5-2.7c-2.3-0.6-6-1.2-7.5,1.2
	c-0.6,1,0.6,1.3,1.3,1.8c1.3,1,2.7,2.1,3.3,3.6c0.6,1.4,0.4,2.7,0.3,4.1c-0.1,1.1-0.8,2.1,0.7,2.2c2.8,0.2,5.7,1.4,6.7,4.2
	c0.3,1,0.1,2.2,1.4,1.8c1.1-0.4,2-0.8,3.1-1.4c1.9-1,0.3-0.7,0-1.9c-0.3-1.3,1.3-3.1,1.8-4.3c1.9-5.3,2.5-11.1,4.7-16.3
	c0.8-1.9,2-5.1,4.5-5.4c2.3-0.4,5.9,1.3,8,2.1c2.2,0.9,4.5,1.9,6.6,3.2c1.2,0.7,2.8,1.3,3.8,2.2c0.5,0.4-2,2.1-2.3,2.4
	c-2,2.1-2.7,5.2-3.9,7.9c-1.4,3.2-2.4,6.5-3.4,9.9c-0.4,1.2-0.6,2.4-1,3.6c-0.4,0.9-2.6-0.3-3.1-0.5c-2.5-0.7-4.9-1-7.4-1.5
	c-0.7-0.1-3-0.9-3.4-0.1c-0.8,1.2-1.5,2.4-2.4,3.6c-0.7,0.9-1.3,2.1-2.2,2.8c-1.3,1.2,0.4,1.4,1,2.6c1,2,1.5,3.9,1.3,6.3
	c-0.1,1.4-0.7,2.9-1.3,4.1c-0.3,0.5-0.5,1.1-0.9,1.6c-0.6,0.8-0.2,1.8-0.2,2.7c0,1.2-0.4,2.2-0.7,3.2c-0.5,1.2-1.9,2.4-2.1,3.6
	c-0.2,1,0.3,2.6,0.6,3.6c0.3,1.6,0.9,3.2,1.6,4.7c0.3,0.7,1.7,2.6,1.3,3.4c-0.5,1-1.9-1-2.3-1.3c-2.1-1.8-3.8-4.2-6.1-5.8
	c-0.8-0.5-2.3,0.3-3.1,0.7c-1.2,0.5-2.5,1-3.8,1.2c-1.4,0.3-2.6,0.1-4-0.1c-2.1-0.3-2.7-0.3-4.4,0.8c-5.1,3.3-12.1,4.6-18,3.5
	c-1.4-0.3-2.7-0.6-4-0.9c-0.8-0.2-2.5-2.1-3.3-1.8c-1.2,0.4-2.4,0.1-3.5,0.8c-1.4,0.9-2.7,1.7-3.9,2.8c-1.1,0.9-2.4,1.8-3.4,2.9
	c-0.2,0.2-1.7,2.3-1.9,1.2c-0.2-0.9,0.8-2.5,1.2-3.3c0.7-1.6,1.3-3.2,1.9-4.9c0.2-0.6-5.1-2.4-5.9-2.9c-2.4-1.6-4.8-3.6-5.1-6.6
	c-0.1-1.1,0-2.8,0.4-3.9c0.2-0.7,1.4-2.3,0.8-3c-1.9-2.3-2-5.3-1.4-8.1c0.6-2.7,2.3-4.7,3.9-6.8c0.8-1,1.6-1.8,2.6-2.6
	c0.6-0.5,2.3-1,2.3-2C8.3,101.1,12.9,95.8,18.8,95.5C19.2,95.5,18,95.5,18.8,95.5z"/>
<path class="st0" d="M38.3,112.4c2.7-0.2,5.2-0.6,7.8-1.3c2.6-0.8,6.1-2.2,7.9-4.4c0.9-1.1,1.5-2.6,2.1-4c0.4-0.9,0.6-2.7,1.8-2.9
	c2.9-0.7,5.9,1.4,6.7,4.1c0.4,1.3,0.3,2.5,0.3,3.9c0,1.8-0.4,2-2,1.9c-0.3,0-0.6,0.4-0.4,0.6c0.2,0.3,0.9,0.2,1.1,0.2
	c1.7,0.2,3.4,1.3,4.8,2.1c2.1,1.2,3.4,4.2,2.6,6.6c-0.5,1.4-0.7,2.3-1.7,3.5c-1.3,1.6-0.8,0-2.2,0c-1,0,0.4,1.5,0.6,1.7
	c0.9,1.2,1.3,2.6,1.2,4c-0.1,2.2-1,4-2.3,5.8c-1.7,2.3-4.2,4-6.9,5c-2.3,0.9-5.8,2.6-8.2,0.8c-0.9-0.7-1.1-1.4-0.5-2.4
	c0.2-0.3-0.2-0.6-0.5-0.5c-0.6,0.3-1,1.1-1.4,1.6c-1.6,1.8-4.2,4.2-6.6,4.7c-2.6,0.5-4.9,1.6-7.6,1.7c-2.9,0.2-5.7,0.2-8.5-0.6
	c-1.6-0.4-3-1.1-4.3-2c-0.7-0.5-1.1-2.3-2-2.3c-0.6,0,0.2,1.1-0.1,1.4c-1,0.8-2.5,1.3-3.7,0.9c-2.7-0.9-5.5-1.2-8-2.5
	c-1.9-1-5.3-2.6-6.1-4.8c-1.5-3.9-0.1-9.8,3.2-12.5c0.6-0.6-1,0-1,0c-0.3,0.2-0.8,1.1-1.2,1.1c-0.6,0-1.4-1.5-1.6-2
	c-1-2.5-0.4-5.1,1.1-7.2c1.6-2.4,3.6-4.7,6.1-6.2c1.2-0.7,2.6-1.2,4-1.7c2.5-0.8-0.4-0.6-0.8-0.9c-2.6-1.8-1.5-4.6,0.3-6.5
	c2-2.1,4.5-3.6,7.5-3.1c0.2,0-0.2,5.1-0.1,5.7c0.3,2.6,1.6,4.3,3.7,5.8c1.6,1.2,4,2.2,5.8,3c1.3,0.5,2.6,0.9,4,1.2
	C34.8,112.4,36.6,112.1,38.3,112.4C39.3,112.4,38,112.4,38.3,112.4z"/>
<path class="st1" d="M95.9,82.5c0.5,0,1.2,0.5,1.6,0.8c0.4,0.3-1.1,1.4-1.3,1.6c-1.4,1.4-2.2,3.1-3,4.9c-1.7,4.2-3,8.4-4.5,12.7
	c-0.3,1-0.6,2-0.9,3c-0.2,1.3-1.3,0.5-2.2,0.2c-2.4-0.8-4.9-1.2-7.3-1.5c-1.4-0.2-4.5,0.1-2.7-1.9c0.3-0.3,1.1-1.5,0.7-1.9
	c-0.7-0.7-2.2,0.6-2.7,1c-1.3,0.8-3.4,1.5-2.7-0.8c0.6-2.1,1.4-4,2-6.1c1.1-3.9,2.1-7.8,3.4-11.6c0.6-1.9,1.4-4,2.8-5.5
	c1.7-1.7,4.6-0.2,6.5,0.5c1.6,0.6,3.4,1,4.9,1.8C92.3,80.5,94.5,81.8,95.9,82.5z"/>
<path class="st0" d="M20.3,100c0.2-2.7,0.8-5.5,2.7-7.7c1.6-1.8,4-4.5,6.6-4.6c2.9-0.2,6.6-1.4,9.3,0.5c2.5,1.9,4,3.8,4.3,7
	C44,107.1,20.3,114.5,20.3,100C20.3,99.7,20.3,100.1,20.3,100z"/>
<path class="st0" d="M46.6,109.2c-2.9,0-4.6-0.8-6.8-2.5c-1.6-1.2-0.9-1.1,0.3-2.3c1.3-1.2,2.1-2.7,2.8-4.2c1.1-2.6,1.6-5.3,0.5-8
	c-0.5-1.2-1.4-1.9,0-2.6c1.3-0.8,2.7-1.2,4.2-1.5c2.9-0.5,5.3,0.9,7.4,2.7c2.4,2,2.4,4.9,1.8,7.9C55.4,103.9,52.5,108.9,46.6,109.2
	C45.1,109.2,46.9,109.2,46.6,109.2z"/>
<path d="M24.8,124.9c0.9-0.6,1.3-0.8,1.3-1.9c0-0.9,0-2.1,1.1-2.5c1.4-0.5,2.8-0.4,4.2-0.6c1.5-0.2,2,0.2,0.6,1.2
	c-1.3,0.8-1.7,1.9-1.4,3.3c0.2,1,2.6-0.5,3-0.7c0.6-0.4,2.1-1.6,1.9,0.1c-0.1,1.4-1.3,2.7-1.5,4c-0.4,2.4-4.6,0.3-5.9,0.6
	c-2.6,0.7-4.8,3.5-6.1,5.7c-0.7,1.1-1,2.3-1.8,3.3c-0.7,0.7-2.5,0.5-3.5,0.5c-0.7,0-3.8,0.7-4.1,0c-0.3-0.7,0.7-1.4,1.2-1.5
	c0.8-0.1,2.1-0.6,2.4-1.4c0.3-0.8-1.1-1.5-1.8-1.3c-1,0.3-2,1.5-2.5,2.4c-0.6,1.2-1.8-0.5-1.8-1.1c0-1.3-0.3-2.5,0.3-3.7
	c0.6-1.2,1.5-1.5,2.7-2c1.7-0.7,1.8-0.4,3.5,0c0.2,0.1,2.6,0.3,2.2-0.6c-0.4-0.8-2-2-2.7-2.7c-0.5-0.6-2-2.8-1.9-3.5
	c0.3-1.1,4.9-4.1,5.9-3.9c0.9,0.2,0.7,2.5,0.8,3.1c0.2,1.4,0.5,2.9,0.9,4.3c0.3,0.9,1.2,0.3,1.8-0.1C24,125.7,25.3,125,24.8,124.9z"
	/>
<path d="M4.7,114.6c0.3,0.8-0.9,2.4-0.9,3.3c0,0.3,0.6,2.5,0.2,2.6C2.5,120.8,4.1,115.1,4.7,114.6z"/>
<path d="M3.3,132.1c-0.2,0.9-0.1,1.7,0.4,2.5c0.1,0.2,1.4,1.6,1.4,1.6c-0.7,0.4-1.6-1.2-1.8-1.7c-0.1-0.3-0.5-3.4,0-3
	C3.4,131.7,3.3,131.8,3.3,132.1C3.1,133.1,3.2,132.2,3.3,132.1z"/>
<path d="M63.6,135.6c-0.4,0.8-1.8,1.4-2.6,1.8c-0.2,0.1-3.5,1.3-3.3,0.9c0.3-0.5,2.2-0.7,2.7-0.9C61.5,136.9,62.8,135.8,63.6,135.6z
	"/>
<path d="M61.4,102c-0.8-0.2-1.7-0.4-2.5-0.5c-0.4,0-0.7-0.1-1-0.2c-0.2-0.1-0.2-0.5,0.1-0.4c1.2,0,2.7,1.1,3.8,1.1
	C61.6,102,61.5,102,61.4,102C61.1,101.9,61.5,102,61.4,102z"/>
<path d="M6.4,114.9c0.1,0.3-1.2,3.9-1,3.9C4.1,118.7,6.3,115.1,6.4,114.9z"/>
<path d="M24.4,142.1c-1.1,0.4-2.2-2.5-2.2-2.5C22.7,139.8,24,141.7,24.4,142.1z"/>
<path d="M27.3,142.2c-0.5,0.5-3.1-1.2-2.9-2C24.4,140.3,27.1,142,27.3,142.2C27.3,142.2,27.2,142.2,27.3,142.2z"/>
<path d="M14.4,99.4c0-1.1,3.3-1.8,3.1-1.2C17.5,98.4,14.7,99.2,14.4,99.4z"/>
<path d="M62.8,134.8c-0.2,0.4-3.2,1.8-3.2,1.4C59.6,136,62.5,134.8,62.8,134.8z"/>
<path d="M61.3,103.4c-0.5,0-2.7-0.1-3-0.6C58.2,102.4,61,103.1,61.3,103.4z"/>
<path d="M14.9,100.8c-0.2-1.2,2.4-1.3,2.3-1.2C17.3,99.7,15.1,100.6,14.9,100.8z"/>
<path d="M68.2,114.3c-0.4,0.1-2.1-0.9-2.3-1.2c-0.4-0.5,1.2,0.2,1,0.1C67.4,113.5,67.9,114,68.2,114.3z"/>
<path d="M67.7,116.2c0,0.1,0.4,0.5,0.2,0.6c-0.1,0.1-1.4-1.8-1.1-2C67.2,114.6,67.6,116,67.7,116.2
	C67.7,116.2,67.5,115.7,67.7,116.2z"/>
<path d="M5.5,135.1c-1.3,0-0.9-2.5-0.9-2.5C4.9,132.7,5.4,134.8,5.5,135.1z"/>
<path d="M69.2,116.2c-0.4-0.2-1.1-1.3-1-1.9C68.6,114.8,69.2,115.5,69.2,116.2z"/>
<path d="M24.3,142.2c0.6,0,1.5,0.8,1.8,1C25.4,143.2,24.7,142.7,24.3,142.2z"/>
<path d="M6.5,114.8C6.6,114.9,6.5,114.9,6.5,114.8C6.6,115,6.5,114.8,6.5,114.8z"/>
<path d="M61.2,103.4C61.4,103.4,61.3,103.4,61.2,103.4C61.3,103.4,61.2,103.4,61.2,103.4z"/>
<path d="M14.9,100.7C14.9,100.9,14.9,100.8,14.9,100.7L14.9,100.7z"/>
<path d="M5.5,135.1C5.6,135.1,5.5,135.1,5.5,135.1L5.5,135.1z"/>
<path d="M81.5,87.4c-0.3,0.7-0.9,1.2-1.5,1.8c-0.8,0.8-1.3,1.8-2.1,2.7c-0.2,0.3-1.3-3.1-1.5-3.5c-0.2-0.5,0.6-0.3,0.8-0.1
	c0.2,0.2,0.7,1.8,1.1,1.3C78.8,89.1,80.7,86.3,81.5,87.4C81.5,87.5,81.5,87.3,81.5,87.4z"/>
<path d="M79.2,85.5c-0.6-0.2-1.4-3.3-0.7-3.2c0.5,0,0.4,0.8,0.7,1.1c0.4,0.4,1.2-0.6,1.5-0.8c0.7-0.5,1.4-0.9,2.1-1.3
	c-0.2,0.1,1.5-0.5,0.8,0.1C82.2,82.6,80.8,84.5,79.2,85.5C79.2,85.5,79.3,85.4,79.2,85.5z"/>
<path d="M78.6,94.2c-0.3,1-1.4,1.8-2,2.7c-1.1,1.8-1.7-1.1-1.9-1.9c-0.2-1.1,1.5,0.6,1.2,0.5C75.9,95.6,78.6,93.2,78.6,94.2
	C78.5,94.3,78.6,94.1,78.6,94.2z"/>
<path d="M90.4,84.8c-0.1,1.1-2.6,0.2-3.1,0.1c-0.4-0.1-4-0.6-3.4-1.3c0.4-0.4,2.2,0.3,2.7,0.3C87.4,84,90,84.1,90.4,84.8
	C90.4,85.1,90.3,84.8,90.4,84.8z"/>
<path d="M85.3,97.5c-0.1,0.7-5.7-0.4-5.6-0.8C79.8,96.2,85.5,96.7,85.3,97.5C85.3,97.7,85.3,97.4,85.3,97.5z"/>
<path d="M87.1,91.4c0,0.7-5.1,0-5.3-0.8C81.7,90.2,86.6,90.8,87.1,91.4C87.1,91.6,87,91.4,87.1,91.4z"/>
<path d="M84.7,99.1c-1,0-2.1-0.1-3-0.3c-0.7-0.1-2.2-0.9-0.9-0.6c1.3,0.4,2.8,0.5,4.2,0.5C86.3,98.9,85.5,99.1,84.7,99.1z"/>
<path d="M81.5,91.5c0.5-0.2,5.6,1.1,5.6,1.1C86.9,93.1,81.8,92.2,81.5,91.5C81.6,91.5,81.6,91.6,81.5,91.5z"/>
<path d="M88.5,86.4c-0.4,0-4.2-0.6-4.2-0.6c0.4-0.5,5.3,0.3,5.7,0.6C89.6,86.5,89,86.4,88.5,86.4C88,86.4,89,86.4,88.5,86.4z"/>
<path d="M85.8,93.9c-0.8-0.1-3-0.1-3.4-0.9c0.4-0.2,3.7,0.3,3.9,0.6C86.2,93.8,86.1,93.9,85.8,93.9C85.3,93.8,85.9,93.9,85.8,93.9z"
	/>
<path d="M87.9,87.4c-0.6-0.1-2.6,0-2.9-0.5c0,0,3.9-0.2,4,0.4C89,87.5,87.9,87.4,87.9,87.4C87.8,87.4,88.4,87.4,87.9,87.4z"/>
<path d="M83.7,100.3c-0.2,0-2.1,0-2-0.4c0.2-0.4,3,0.1,3.1,0.3C84.4,100.4,84.2,100.3,83.7,100.3C83,100.2,83.9,100.3,83.7,100.3z"
	/>
<path d="M95.9,82.5C95.8,82.4,96,82.6,95.9,82.5L95.9,82.5z"/>
<path d="M32.9,98.6c-3.2,0-2.1-4.5,0.6-4.3C36.9,94.5,35.6,98.6,32.9,98.6z"/>
<path d="M50,93.6c3.2,0,1.9,4.6-1.2,4.4C45.8,97.8,47.6,93.6,50,93.6z"/>
<path class="st2" d="M19.6,129.1c0.8,0.1,3,1.2,3.6,0c0.2-0.5-0.3-1-0.5-1.4c-0.3-0.4,1.3-1.1,1.5-1.2c1.6-0.9,2.8-1.4,2.8-3.3
	c0-1.2,0-1.8,1.2-2.2c0.2-0.1,2.4-0.6,2.4-0.1c0.2,0.7-2.2,1.1-1.7,2.6c0.7,1.7,1.8,2.5,3.4,1.6c1.8-1,0.2,1.4-0.1,1.9
	c-1.1,1.8-2.7,0.1-4.5,0.2c-1.1,0-2.7,1.3-3.5,1.9c-0.9,0.7-3,1.8-3.4,3.1c-0.2,1-0.1,4-1.4,4.4c-1,0.3-3.4,0.9-4.4,0.4
	c0.1,0,1.6-1.2,1.8-1.5c0.6-0.9,0.1-1.6-0.5-2.3c-0.8-0.9-1.7-1-2.7-0.7c-0.6,0.2-2.2,1.6-2.6,1.5c-0.8-0.2-0.2-2,0-2.4
	c0.6-1.3,2.3-1.6,3.5-2.2c0.8-0.3,1.5,1.4,2.2,1.5C17.5,131.1,18.9,129.6,19.6,129.1C19.7,129.2,18.9,129.6,19.6,129.1z"/>
<path class="st0" d="M24.8,124.9C24.9,124.9,24.9,124.9,24.8,124.9L24.8,124.9z"/>
<path d="M19.4,135c0-0.4,0.1-1.9,0.7-1.9c0.3,0-0.3,2.3-0.5,2.2C19.4,135.2,19.4,135.1,19.4,135C19.4,134.5,19.4,135,19.4,135z"/>
<path d="M25.5,126.4c0.2-0.2,0.4-0.2,0.6-0.1c-0.1-0.1-2,1.7-2.3,1.1C23.7,127.1,25.4,126.4,25.5,126.4
	C25.7,126.3,25.5,126.4,25.5,126.4z"/>
<path d="M14.2,130.5c-0.1,0.3-1.7,1.4-1.8,1.1C12.3,131.3,14,130.2,14.2,130.5C14.2,130.6,14.2,130.4,14.2,130.5z"/>
<path d="M30.5,127.2c-0.2,0-1.4-0.1-1.3-0.5c0.1-0.6,1.7,0.1,1.7,0.4C30.8,127.2,30.7,127.3,30.5,127.2z"/>
</svg>
