<?xml version="1.0" encoding="UTF-8"?>
<!DOCTYPE svg PUBLIC "-//W3C//DTD SVG 1.1//EN" "http://www.w3.org/Graphics/SVG/1.1/DTD/svg11.dtd">
<!-- Creator: CorelDRAW 2017 -->
<svg xmlns="http://www.w3.org/2000/svg" xml:space="preserve" width="45mm" height="37.113mm" version="1.1" style="shape-rendering:geometricPrecision; text-rendering:geometricPrecision; image-rendering:optimizeQuality; fill-rule:evenodd; clip-rule:evenodd"
viewBox="0 0 4500 3711.3"
 xmlns:xlink="http://www.w3.org/1999/xlink">
 <defs>
  <style type="text/css">
   <![CDATA[
    .fil0 {fill:#004A84}
   ]]>
  </style>
 </defs>
 <g id="Слой_x0020_1">
  <metadata id="CorelCorpID_0Corel-Layer"/>
  <path class="fil0" d="M3776.58 3711.3l723.42 -3711.3 -3776.53 0 -723.47 3711.3 3776.58 0zm-2066.85 -2468.06c362.17,-129.05 703.63,-146.66 1061.51,1.26l44.66 18.46 -7.8 47.66c-56.33,341.82 -228.96,555.05 -548.75,680.49l-23.92 9.31 -23.39 -10.63c-300.98,-136.57 -477.54,-347.75 -541.6,-677.53l-9.93 -51.4 49.22 -17.62zm45.26 72.21c60.77,287.23 214.83,470.88 481.52,594.27 282.22,-113.15 431.39,-297.33 484.78,-594.86 -326.94,-130.38 -637.3,-113.22 -966.3,0.59zm483.23 331.39l0 0zm-154.59 -16.13c-61.9,-59.23 -108.69,-129.06 -142.15,-213.52 43.21,-11.12 86.25,-20.07 129.01,-26.9l-35.5 -71.03c-63.16,11.15 -126.6,26.81 -190.84,46.44 47.26,166.15 132.82,288.77 263.17,382.99l1.2 2.03 129.78 -259.35 131.12 262.13 0.54 -0.99 0 2.32c136.73,-91.74 219.84,-216.8 262.41,-391.62 -64.36,-22.05 -128.06,-38.05 -191.46,-48.53l-35.64 71.36c44.29,6.31 88.69,15.49 133.39,27.82 -31.14,91.03 -77.32,164.11 -142.27,224.04l-158.17 -316.18 -154.59 308.99zm1296.35 612.97c-45.78,-2.61 -58.28,-2.34 -96.27,0.58 -9.46,28.53 -23.16,75.44 -31.77,105.55 30.83,-0.53 34.63,-0.47 65.41,0.19l5.36 0.06c-3.63,11.79 -14.83,49.83 -19.59,63.92 -22.44,1.25 -44.99,1.61 -68.98,0.61 -6.98,26.42 -15.55,59.33 -22.45,87.43 18.7,0.61 36.97,0.77 55.7,0.65 28,0 27.18,-0.39 55.15,-1.48 6.55,-19.28 9.82,-33.09 14.4,-52.2l0.53 -2.2 72.62 0 -0.9 3.55c-11.06,43.96 -18.34,70.73 -32.68,113.82l-0.66 1.81 -1.89 0.11c-51.02,3.46 -73.94,4.04 -125.13,3.75 -41.84,-0.29 -83.87,-1.37 -125.73,-3.75l-3.27 -0.17c8.22,-37.39 16.01,-69.89 24.77,-104.77 11.17,-44.88 23.68,-89.78 36.66,-134.19 14.58,-48.33 32.61,-106.66 45.48,-142.68l0.65 -1.67 1.8 -0.17c85.65,-5.73 149.53,-5.85 235.03,5.65l3.19 0.41 -0.82 3.17c-7.27,28.86 -14.16,56.84 -22.55,85.53l-2.34 -0.13c-23.57,-1.23 -46.18,-4.04 -69.99,-3.93 2.96,-10.64 5.22,-19.2 8.27,-29.45zm-1976.82 175.78c56.26,-77.04 96.03,-153.35 140.03,-235.86l2.83 -5.42 31.81 78.94 -0.42 1.08c-28.69,68.87 -69.64,136.39 -111.86,197.67 -26.19,38.17 -53.98,75.32 -83.05,111.22l-2.96 3.62 -1.84 -4.29c-34.24,-74.33 -60.85,-131.48 -90.67,-211.61 -50.97,78.35 -100.71,139.65 -159.71,211.98l-3.28 4 -1.62 -5c-16.54,-51.2 -32.77,-102.62 -47.49,-154.36 -16.13,-56.74 -30.25,-113.88 -41.97,-171.73l-0.36 -1.68 67.98 -59.6 0.91 4.95c8.85,51.72 27.44,118.99 41.61,170.62 5.93,21.66 12.43,43.44 20.05,64.64 48.53,-64.95 97.69,-124.96 148.82,-210.84l3.21 -6.2 2.08 6.66c8.04,22.87 11.67,28.94 26.86,68.58 15.12,39.6 38,95.25 59.04,142.63zm373.38 -182.05c-8.64,40.09 -21.55,98.11 -31.5,137.94 -16.73,66.61 -33.88,124.18 -52.62,189.54l-1.91 6.48 -60.19 -51.08 0.29 -1.12c11.74,-46.19 31.44,-124.94 44.35,-170.84 16.14,-57.63 32.04,-109.6 52.15,-165.9l2.16 -6.03 47.43 59.96 -0.16 1.05zm708.38 13.65c-7.22,17.91 -21.67,67.99 -34.35,112.38 -12.62,44.35 -21.09,70 -34.78,138.58 46.37,1.5 78.34,1.44 124.79,-0.83 2.67,-5.71 4.92,-12.5 6.89,-18.39 3.4,-10.01 6.37,-20.23 9.01,-30.48 1.83,-7.31 3.55,-14.76 4.81,-22.16 -16.44,0.18 -17.4,-0.04 -33.88,0.56l-3.87 0.12 1.07 -3.75 15.42 -56.75 0.61 -2.06 12.49 -0.07c39.59,-1.13 53.03,-1.79 92.58,-1.02l3.61 0.12 -2.13 7.92c-5.96,30.73 -13.77,61.75 -21.56,92.03 -4.83,18.92 -9.88,37.86 -15.35,56.6 -3.82,13.42 -7.98,27.56 -13.1,40.43l-0.64 1.62 -1.79 0.12c-51.08,3.42 -91.33,4.56 -142.04,4.62 -41.84,-0.29 -85.12,-2.32 -126.93,-4.68l-3.31 -0.18 0.7 -3.23c7.2,-36.01 16.37,-71.84 25.25,-107.51 10.77,-43.21 22.37,-86.26 35,-129.03 13.97,-47.75 29.2,-95.42 46.74,-141.92l0.63 -1.67 1.8 -0.19c82.51,-5.47 131.91,-8.1 213.28,1.68l1.62 0.18 31.18 70.53 -4.94 -0.59c-50.35,-5.84 -142.93,-9.36 -188.81,-2.98zm358.34 253.83c46.57,2.01 82.21,2.27 128.84,-0.85 6.83,-20.42 12.12,-42.01 17.49,-62.78l1.73 -6.94 48.8 87.35 -0.41 1.19c-4.33,13.82 -9.11,27.5 -13.69,41.18l-0.6 1.8 -1.9 0.13c-51.02,3.44 -91.32,4.04 -142.44,3.75 -41.91,-0.31 -83.95,-1.39 -125.79,-3.75l-3.23 -0.18 0.61 -3.23c17.08,-79.22 38.75,-159.64 60.66,-236.39 15.89,-49.69 30.24,-98.63 47.74,-147.8l47.99 88.22c-13.17,41.08 -24.66,82.1 -36.33,122.02 -9.92,39.24 -20.94,79 -29.47,116.28zm-717.54 -60.07c12.55,-44.05 23.71,-85.19 33.87,-125.71 11.15,-44.18 21.19,-87.7 30.95,-133.49l1.42 -7.84 45.13 92.52c-9.16,51.65 -22.09,107.02 -35.11,157.49 -12.45,47.92 -27.38,95.49 -41.08,140.08l-46.49 0.23c-48.53,-68.16 -75.36,-110.97 -126.44,-200.72 -15.16,52.33 -21.72,79.69 -34.65,132.26 -4.75,20.42 -11.07,45.89 -15.24,66.33l-73.33 -0.06c19.53,-90.61 43.64,-179.79 70.18,-268.84 11.18,-37.27 23.99,-74.4 36.01,-111.36l2.22 -6.56 3.02 6.2c42.52,80.12 69,138.21 149.54,259.47z"/>
 </g>
</svg>
