<?xml version="1.0" standalone="no"?>
<svg xmlns="http://www.w3.org/2000/svg" style="isolation:isolate" viewBox="0 0 1000 860">
  <g style="opacity:0.1">
    <path d="M20.9 0v.6h-.6l-1.9 1.2v1.3l-3.7 1.8L15 8l-.6 2-.9 1.7-1.2-.6v1.3H11l-.7 4.3H9.1l-.6 3.7-3 1.9-1.3 3H2.4v1.3h-.7l-.6 1.8H0l1.8 3.1h.7v.6h.6l3.7 5.6 4.3 1.9 1.2 1.6 2.2 3.3.3 3.7 1 1.2 1.1 1.3 4.7 6.8.4 4 .3.8-.3.7h-1.7l-1.8 3.5-4 4.6-.7 4.3 5.6 7.4 4 12.4 3.6 1.2-1.3 2.9-2.3 2.4-1.9.3.7 1.8h-1.3l.3 1.3-2.4 3.7 3 9.9 1.9 1.8 1 2-1 1.7-3 1.9v13l3.4 8 3 1.2v3.7h2.5v2.5l-2.5.6.6 4.3h-1.2l-.6 19.2 2.9-1 .3.6-3 2.3 1.3 6.2 4.3 6 1.3 6.9 2.1 5 5.5 1.2.1 2.9-.3.3-5.9-.1v1.2h-1.2l.6 4-4.3.3-1.2 2.2-3.7 1.6-2.5 4-1.2.3-3 5.8-1.3.4v1.8l-1.9-.6v.6h.7v1.2l-.6 1.3h1.2l-.6 1.8h.6v.6h.6l1 4.4 2.4 2.5 2.8 5.5 1.8.6v1.3l1.8.6 2.8 11.7 1.8 1.9-.2 1.2h1.2v1.3l8 .9 3 1.5-.6 1.9h1.2v1.2H45l.6 1.9h1.2v1.2H48l6.8 17.9 8.6 4.6 16.5-1 .7-.5.7-1.7.9-1.6 1.2-2.6 1-1.1 1.7-.5 1.7-.6-.7-2-1.3-.7v-1.6l1.5-4.1-2.7-.3-2.3-.4-.3-1.2-.1-1.1 2-1.3 1.4-4.2.4-4.7 3.5 1.9-1.5 1.4 1 3.5 1.5 5 1.3-.4 1.6-1.8.2-2 1.7-4.7 4.5 1 1.4 2.6 2.5.5h3.4l-1.5 6-4.3-1.7-3 .4-2.2 2.8-.2 1-1.4-.7-2 .9.4 1.8.2 1v1.3l-1.4.4 1 1v1l.3 1.6-.4 1.4H91l-1.6 1-1.4.4h-.7l-2.8 1.2L83 296h-1l-1 .6v.9l2 2.8 1.8.6 2 3 2 7.5 2 3.7 3 1.3v1.2l6.9-.6 1.9 4.3h1.2l2.5 3.7 3 1.2.7 1.9 4.3 3v1.3l3 1.2 1.9 3.2 1.8.6.6 1.8 6.8 3 1.8 3.8H129l-.6 1.9 3 1.8 1.9 3h1.2l2.8 3-.6 4.5-.3 1.8-1.6 6.8 2.8 8.4 14-.4v.7h.7v.6l3 1.2 1.3 3.7h1.3l1.5 3.8-.3.6v3.7l3.7 1.2 1.8 1.8 1 1 2 4h-1.1l-1.6 3.7.3 6.8 6.8 1.2v1.9l7.3 2.4.5 1.3.6.8.5 3.5-1.6 3.7h-.6v.6h.6l-1.2 5.6 3 .5v1.3l2-.6-2.2 3.7-1 16 3.7 2.5v1.4l7.4 1 4 5 3.7 7.4.9 5.6 7.4 3v1.3l8 2.5v1.2l6 3.7v1.2l9.9 1.9v1.2l8.6 1.9-.6 1.2h.6l5.5-2h.6v-.5l3-1.2h.7l1.8-1.8v-.7h.7l1.2-3h1.2l5-8v-.7h.5v-.6l2.5-2.5V470h.6l.6-2.4h.6v-.7h-.6V465h.6v.6h.8l-.1-2.5h.6v.7h3v-.7l11-4 7.4.7 20.3 8 4 3.4-.3 1.2 4.3-.3 4.3 1.5.6 2.5 3 .6 1.3 3.7 9.2 6.8 3.7 6.8h-1.3v.7l2 .6v3l-2.6.6v.6h.6v.6h1.3l-.7-1.3h1.9l-1.2 3.2 1.2-.7-.6 3.2h-1.3l-.3 1.8-1.5.6v1.2h1.2v.7h-1.2l.6 1.8h2.5v.6l3.7 1.2v1.3h.6v.6h.6v.6l1.3 6.2h.5v.6h.6l4.6 12.3 1.9 2 .3 2.4 4.3 2.5v1.8l4.3 1.8v1.3l3.7 2.5v1.2l4.3 3v1.3h1.8l5 21 4.2 2 2.8 4.2 2 10.3-1.4.8.3 2H382l.6 1.7h-1.2l.6 2.5h1.2v2.5l1.5.8 2.2 3.5 1 .7.8 1.1 1 .4.9 2.7h1.2l2.4 3.7 4.3 1.6 1.9-1.3 6 1.6v1.2l10.6 2v3h1.3l-.3 3.1 2 3.8 8.7 1.8.6 1.8 5.5 3.4 1.3-.3v1.3l12.2 4.3 1.9 3.7 2.4 1.2 1-3.7-1-4.6-3-1v-8h1.2l-1-8.6-1.5-2.2-2.4-.3.6-3 4.3.6-1.3-2.8-3-.3v-1.9l2.4-.9 1.9 1.5-.6-4.3 3.6-.3 3 1.5v5l2-.3 1.8 1-1.2 3.6 1.8.6v-2.4l3-.3 2 1 1.2 3-1.3.3-1.8 2.7-1.3.4-3.7 6-3 2.2-1.8 5h1.2l.9 1.8-1 4.6-1.6 1.3-.8 2.7 2.7 2 .2.2.2.2-1.2.8v1.8h-1.3l-.6 2.5 3 1.2 2 3.1 2.5-.2.5 2.3 2.7 1 1.7.2 1 1h2.6v1.3h1.2v1.2l-2.5-1.2v1.2l3.7 2v1.1l2.5 1.2v1.3l4.9 1.8v1.3l4.3 1.8v1.2l6 2v1.8h2l.6 1.2h.6v-.6l9.8.6v1.2h4.2l.6 2 3 .2 7.8 3-.4 2.8 1.4.5 1-2.3.8.3 6 .6.6-.6 1.3.3 1.2-2.5 1.7-.9.4-.6 2.1 2-1.9 1.7.7 3.4 30.1 8v1.3h2.5v1.2l1.8-.3 4.3 1v.7h1.2v1.3l5.5 1.8v1.2l10.4 5.8 1.3-.3.5 2 7.4 3 .6 2 3.7 1.1 1.8 3 9.3 5.3 3 .3v1.3l2.5 1.2-.6 1.2.8-.4 2.8 2.6 8 1.5v.6h1.2v.6h2l.5 1.3h1.2l.6 2 2.5-.8v3.1l2.4 1.3v.6l1.3-.3 1.7.8 3.8 2.8 3.7.4v1.8l7 3.7.3 1.3h1.3v1.2h1.2l-.6-1.8h3.6l1 5 2.4 1.1 1 2.5 2.4.6v1.3l5 1.2v1.2l5 1 3.5-5.9h1.2l1.2-3h1.3v-.7l5-8.7 3.3 1.7 6.7 6.5.7 3.1v2l1.8 1.6.6 2 .4 3.8-1 .4 1.2 1.8v3.7l3 2 2.2 6.7h1.2v1.2l6.7 1.5 5.3-2 .6-2.4v-10.6l1.8-1-.2-3.6-.8-5.6-2-1.2-3-.4-1.7-1-3 .7-1.2 3.5-.7 4-2.4-.8-.8-3.6v-4.7l-1.9-3-2.6-2-5.4-4.8-5.4-4.5-.5-2.4-1-3.7 3-.4 1.1 4 3.1-2.6-.2-3.4 2.4-.3.3-.5.8-.8 2-1.8 1.4.3 1.3 5.7-2.4 3.6 3.4 3.8 4.2.5 1.3-2.5v-1.3l.7-5-1.2-3.7h1.7l.7 3.4-.2 4.3.8 3.1 1.1 2.2 2 2.5 1.5.6h1.7l.1-3-1.3-2.5-2.2-4.9-1-2.9.8-2.5.5.2 1.1 4.6 3 3.1 2.8-1-.6-2-2.6-3.7V737l2 .2 1.2 3.1 2.2 3.7-1 3-.4 4.5h3.5l1-1.6 2 1.7 2.3-1.2-1.4-3-1.3-2.8.4-6.2-.5-3.7.2-7 5.4-.7 1.8 3.4 1 3.4 2-2-.2-3.6 2.4-1.2 2 1.2 1 1 1 1 1.2 3.2 2.1 3.8 1.4 2.3-.5.5 6.1 8.6-4.2 7-2.8 7.2-2.5 3.2.2 3.8-5 .6-4.8-3-6.4-11-3.2 1-2.7 5.5v5.6l.3 3.8-1 2.4h-1l-1.7 4.3-.3 5 2 .6v-1.9h1.1l1 4.8-1 1.4h1.8l-.4-1 1-.5 3.7 2.1v.6H734v.6h1.2l1.2 2.5h1.3v.6l4.2.7v1.8l8.6 3-.6 1.3 3.7 2.2 4.3 8.3 3.7 2 .6 1.7 7.7 4.6.2 1 4.3 1.2v1.3h.7l.3-1.3-5-2.6-5.2-4.2H764v-1.2l-1.2-.3-.6-1.5-2.5-1-4.3-7.7-4.2-5 16 2 2.6 5.5-.6 5 1 1.8 4.3 3 .6 2.5 3.6 1.3v1.2l4.3 2.5-.2 1-4-.4v.6l12.2 3.7v2l3.7 1.7.6 3.1 2.4 1.2h1.3v.7h3.7v-.7l12.8 2.5.7 2 12.2 2.7 8.6 5.8v1.3l3 .6v.6h1.3v.6h3.1v-.6l9.1 1.3v1.2h2l1.4.5 2 1.3 2.2.5 3 .7h2l2 .8 1.3 1 3.2-.3 2.1-.6 1.4-.9 2.4-1.8 1.7-1.4 2.3-2.4 1.1-2.5 2.2-3.2 2-1.8 2.7-2.2 3.6-1.7 3.1-2 3-1 3.8-1.2 3.1-1 3.8-.6 3.6.2 2.8.3 3.4 1 2.5 1.2 1.5.4 2.3-.2 3.1-.6 1.4-.5 9.2.6v1.2h4.3v1.4h1.9l1.2 1.8h1.2v.6h4.3v.6h8.6v.6h1.2v-.6l6.8 1.2.6 1.3h2.4v-.6l10.5-1.2v.6h.6v-.6h2.4v-.7l5-1.2.6-1.2-21.5 2.7-3.4-1.5 2.2-4.3 2.4-1.3V834l6.8-2 9.8 1.4v1.2l4.3.7v1.8l3.2.4 3.4.2.3-1 .2-3.5-2.8-2.9-1-1.2-2.7-3.7-5.5-3-.6-2-2.5-.6-1.2-2.5h-2.5l-1.2-3-3-1.3v-1.8l-3.7-1.9V808l-4.3-2.5v-1.2l-4.3-1.9-1.2-2.5-2.5-.6v-1.2l-11-5.6v-.6h-.7l-.5-2-1.3-.2-1.2-2-3-2.9-1.3-.3.3-1.3-12.9-16.6-.3-3-1.2-.4-4.3-6.5h-.6l-1.8-3.7-3-.6.2-1.9-1.5-2.5h-.6v-.6l-3.7-5-3.7-5.5-6-3.7-1.3-2.5-3-1.8-2.6-4.3h-1.2v-1.9l-2.4-.6.3-1.3-4.6-3.6-.6-2h-.6v-.5h-.7l-.6-1.3-.6-1.2-1.8-1.8h-.6l-11-16.4-1.3-.3-.6-3.7-1.2-.3-3-6.5h-1.3l-9.7-18h-1.4l-3.7-4.9h-1.3l.4-1.2-3.7-6.8-.3-3h-.6v-.7h-.6v-1.9h.6v-1.2h-.6l-3.7-11.2-6.2 2v1.1h-1.2v1.3H831l-1.9 4-2.4 1-.6 1.5h-1.3l-.6 1.5h1.3l1.2 10h1.8l-.6 2.4 2.4.6 1.6 3-.3 3.2 3.6 2.4h1.3l.3 2-4 1.1v-1.2l-11 1.8-1.9-4-1.8-.3v1.2l-3.7-3.7h1.8l-.6-2.5h-1.2l-.6 2.5-2.5.3-1.5-1-.3-3.6-3 .6v2.5h-2v1.2l-3.6 3.1v1.2l-2.5-1.2v-1.2h-3l-.6-2.5 3.6-.6-1.2-2.5-2.4-1.5-6.2.6-.9 1 .3 1.1-4.3-.6-.3-6.2 1-3.7 1.8-.6.6 2 8.6.5v-2.5h5v-3l-1 .5h-1.2l-1.4.1-.9-.8-1.6-3.4-1.7-.9-1-.7h-.3l-.4-.2-1-.8-1-3.2.3-2.2.7-2 3.6 1.2.7-3.7 3-1.3v1.3h.7v-1.9l2.4-.6-1.2 2.5 4.3 1.8v.7h-1.3v.6l6.2 3.7-.6 1.2h1.8l-2.4-5h1.2l.8-.5h3.5v1.2l4.3 2.5 1.8 2.7 6.8-2 2.4-3.8h1.2l.7-1.9 1.8.6v-1.2h1.2l1-1.2 1-1.9 1.1.7v-4.4H834l.4-2.4-2.5-3-.3-3.2-1.5-1.9-2.8-8.3-1.2-.3 1-2.5-3.8-8-2.7-5-3.4-2.4-1-2.5-1-.3-.8-1.6-2.4.4-.3-2.8-2.8-1.3-.3-1.8-5.2-3V575h-1.2v-1.3H801l-.6-1.5-1.8-.3v-.7l-9.8-4.9v-.6h-1.2v.6l-5-4-1.8 1-.6-2-4-3-.3-1.3-8.3-6.2-.3-1.2-7.3-3.7v-1.9l-8-3v-1.3l-4.3-1.2v-1.2l-3.7-1-.6-1.5-3-1-5-4v-1.2l-4.3-1.5-.6-1.6-7.3-3.7V520l-14.2-.3-1.8.7-1.2-2.2-7.4.6v.6h1.8l-3 2.5v-1.3l-3.7.3-1.2-2h-11.7l-.5.6-3.8-.7v1.2l-2.4-1.5-5-.3v-.7h-4.2v-.6h-3l-.7-.9-33.8-2v-1.4l-11.6 1.5-8.6-.3v-1.2l-28.9-7.2-.6-1.4-3-.6-.3-1.3-7.4-5-.3-1.2-16-5.8-11-1.2-24.6 4v-.6h-1.8v-.7H509v-.6h-3.7v-.6H503v-.6h-2v-.6h-3l-1.3-1.2H493v-1.3h-1.2v-.6h-1.2v.6l-3-1.2v-.6H485v-1.3H482v-.7l-2-1.1h-1.7v-.7H477l-1.2-1.2h-5v-1.2h-3v-.6h-2.5v-.7h-1.2v-.6h-.6v.6h-.7v-.6h-.5v.6H461v-.6h-1.2v-.6h-4.3v-.7h-1.2v-.5h-2.5v-.7h-.6v-.6h-3.1v-.6l-3.7-1-2.4-2h-1.2v-.7h-1.2v-.6h-2l.2-.7-4.7-2.4-5.2-4-7.4-9.6h-1.2l-1.2-2.2-1.3-.3-.6-1.5-1.2-.3-1.2-3.1-1.3-.3-.6-1.5h-1.2v-1.3l-18.4-12.3.6-1.3-8-3.7v-1.8l-4.3-1.3V420l-1.2-.3-6.1-7.7-2.2-1.3-.3-1.8H369l-4.3-5.3-2.8-1.5-.3-1.3-6.7-3.3-5.6-6v-.5h-1.2v-.7h-.6v-.6h-1.2l-.6-1.8h-1.3l-.3-1.3-1.5-.6v-.6l-1.3-1.2h-1.2v-.6l-2.4-2.5h-1.3v-.7l-2.4-.6v-1.3h-1.2v-.5h-.7v-.6h-1.8V376l-2-1h-1.1v-.8h-1.2v-1.3l-1.2.2v-.7h-.6v-.6h-2v-1.2l-3.2-2-.4-1.1-2.7-1.2-2.5-5.6-6.1-12.3.3-2.5-1.2-.3-2.8-4.7-4-2.4-2.5-4.4H296l-1-3-3.2-5-1.6-.6-2.5-4.3.6-2.5L283 307H282l-4.3-9-1.2-.3-9.2-13.3-1.3-1.2-.7-.3h-.7l-.5.4h-.8l-.5.2-1.1.7-.4.2-.2.5-.4.5-.5.2-.5.3h-.7l-.5-.1h-.6l-.6.3-.5.6-.8.2-.3.4-.8.5-.5-.3v.4l-1.4.2h-1.2l-.5-.2-.6-.1-1 .3-.2-.1-.2-.3-.1-.5-.1-.4.2-.3h2.4l2-.4 1.3-.3.5-1 1-1 1-.5 1.4-.1 2-.5 1-.5.6-.3.7-.2v-.4h.5l.2-.3 1.3-.5.6-.8.2-1v-2h-.6v-1.2h-.6v-.7h-.6v-1.2h.6v-.6h-.6l-3-11.1h-.7v-1.3h.6v-.6h-.6l-.6-2v-.5h-.6v-.6h.6v-.6h-.6l.6-2.5h-2.5v-.6l2.5-.6v-1.2h-2v.6h-.6v-2h-.6v-1h1.3v-.6h1.8l-.6-5.6h-.6l-.6-5.6h-1.3v-5.5h1.2l-.6-10v-1.8h-.6v-4.2l-1.2-1.3h1.2l-1.2-6.8h-1.2v-.6l1.8-.7.6-10.5.6-3h-.6v-1.3H255v-.6l-4.3-1.2-.3 1.2-1.6.6v-1.2l-1.8.3-.6 2H245l.5 2.4-4-2.4 1.7-6 11 .9 1.9-1 1.6-1.2-.7-8.6-4.6-11.4-1.2-.4.3-.6-4.3-9.2-3.4-2.5-1.2-4.4h-1.2v-3h-5.6l1.9-.6.6-2 1.8-.5v-.6h-.6V140L228 121l.3-1.3h-1.2l-11.6-18h-1.3l-1.2-3.6-2.5-1.2-.6-2-2.4-1.1v-1.3h-1.2v-1.1H205l-3.7-3.4-3-1v-1.2l-3.7-1.5-17.8-2.2h-3v-.6h-2L156 79l.6 1.9h-3v-.6h.6v-.6h-.6v-3.1l-1.3.6-.6-1.8-10.4-5.3-3.7-.3v-1.3L116 58.7v-1.3l-6-1.3-1.4-2.4-3.7-2.1-7.4-2.2h-.8l-1.6-.8-.3.3-.6-.4.4-.7-5-4v-1.2l-1.3.6-1.2-2.4H86v-1.3l-4.3-1.8v-1.3L78 35.2v-1.9l-4.3-1.8v-1.2l-7.4-5v-1.2l-11.6-5.9-8.7-5.8V11l-3.6-1.8V8l-3.7-1.2-.6-1.9-7.4-3V.6L20.9 0z"/>
  </g>
</svg>
