<?xml version="1.0" encoding="utf-8"?>
<!DOCTYPE svg PUBLIC "-//W3C//DTD SVG 1.1//EN" "http://www.w3.org/Graphics/SVG/1.1/DTD/svg11.dtd">
<svg version="1.1" id="wwwSheepToday" xmlns="http://www.w3.org/2000/svg" xmlns:xlink="http://www.w3.org/1999/xlink" x="0px" y="0px"
	 width="999px" height="168px" viewBox="0 0 999 168" enable-background="new 0 0 999 168" xml:space="preserve">
<g>
	<path id="XMLID_2383_" fill-rule="evenodd" fill="#FFFFFF" clip-rule="evenodd" d="M568.5,120.1c1,10.7,1.6,19.5,2.6,28.2
		c1.5,13.3,0.5,14.5-14.7,14.9c-0.4-4.3-1.4-8.7-1.2-13c1.3-23.1,3.2-46.1,4.2-69.1c0.3-7.2,3.4-10.4,9-14.3
		c12.1-8.3,24.2-8.4,37.1-3.4c16.3,6.3,21.5,22.8,12.2,37.9c-7.7,12.5-19.3,17.5-32.8,19C580.7,120.6,576.4,120.2,568.5,120.1z
		 M569.5,114.5c12.1-2.3,20.8-2.9,28.7-5.8c8.1-3,14.2-16.6,12.3-23.6c-2.4-8.6-13.9-17.5-22.8-15.5c-5.7,1.3-13.8,5.4-15.2,10
		C569.6,89.3,570.4,100.2,569.5,114.5z"/>
	<path id="XMLID_2380_" fill-rule="evenodd" fill="#FFFFFF" clip-rule="evenodd" d="M840.4,131.1c-15.5,5-29.5,11.4-44.9,3.4
		c-8-4.2-10.1-7.3-6.2-15.5c6.6-13.8,17.5-23.1,31.7-27c7.3-2,9.5-5.5,10-12.7c1.2-16.3,2.9-32.6,4.9-48.8
		c1.8-14.9,6.1-19.1,20.3-19.8C845.3,49.9,836.3,89.1,840.4,131.1z M827.7,97.9c-9.9,2.3-17.4,6.3-21.9,14.3
		c-5.5,9.9-1.2,17.7,9.7,17.9c4.1,0.1,8.2-0.9,13.3-1.4C828.4,118.4,828.1,109.1,827.7,97.9z"/>
	<path id="XMLID_1907_" fill-rule="evenodd" fill="#FFFFFF" clip-rule="evenodd" d="M699.2,66.4c-8.9,4.5-15,7.6-21.8,11.1
		c-3.1-8.3-3.3-13.9,6-15.6c2.1-0.4,4.1-1.5,6.3-1.9c8-1.4,11.8-5.2,12.3-14.6c0.8-13.4,4-26.6,6.4-39.8c0.8-4.5,3.3-7.1,9.4-3.4
		c-2.7,15.1-5.4,30.8-8.3,47.3c10,0.5,17.8,0.8,27.1,1.2c-3.5,9.3-10.9,8.9-16.4,9.7c-9.2,1.4-12.1,6-11.1,14.9
		c1.3,12.3,2.4,24.7,3.5,37c0.3,3.4,0.5,6.8,1,10.1c0.8,6.4-2,10.1-7.9,10.3c-6.1,0.2-8.6-4.1-8.5-10c0.2-10.7,0.5-21.5,0.9-32.2
		C698.3,83.9,698.7,77.2,699.2,66.4z"/>
	<path id="XMLID_1906_" fill-rule="evenodd" fill="#FFFFFF" clip-rule="evenodd" d="M395.4,125.6c0.5-4.3,1.1-8.6,1.5-12.9c0.5-5.6,1.6-11.3,1-16.8
		c-1.5-13.3-8.6-17-20.7-11.7c-3,1.3-5.8,2.9-8.8,4.4c-6.5,3.3-9.4,7.6-8.1,16.1c1.3,8.5-0.3,17.5-0.7,26.6
		c-9.4-0.1-12.8-2.8-12-11.2c3.1-30.3,5.8-60.6,8.6-90.9c0.4-4.6,0.6-9,8.9-9.7c2.6,20-5.2,39.4-3.6,60.5c8.4-2.2,15.5-4.1,22.8-5.9
		c14.4-3.4,21.5,1,22.1,15.8c0.4,11.2-1.3,22.5-2.7,33.6c-0.2,1.7-3.4,3-5.2,4.5C397.4,127.2,396.4,126.4,395.4,125.6z"/>
	<path id="XMLID_1904_" fill-rule="evenodd" fill="#FFFFFF" clip-rule="evenodd" d="M929.2,78.8c7.6,14,13.8,25.5,21.5,39.6
		c7.9-13,14.3-23.7,21-34.2c8.6-13.3,11.3-13.6,27.3-2.7c-8.6,8.7-17.7,16.5-25.2,25.8c-7.3,9-12.2,19.9-19.3,29.1
		c-7,9.1-7,22.4-17,31.2c-1.8-12.9-1.6-14.1,7.9-39.1c-6.8-14.5-13.4-28.6-19.8-42.7C925.2,85,926.9,83.2,929.2,78.8z"/>
	<path id="XMLID_1903_" fill-rule="evenodd" fill="#FFFFFF" clip-rule="evenodd" d="M270.5,131.2c7.2-1.3,14.3-2.8,21.5-3.9
		c5.4-0.8,11-0.5,16.3-1.7c12.9-3,14.8-6.2,13.6-22.9c-4.8-0.8-9.9-1.4-15.1-2.5c-4.7-0.9-9.6-1.5-14-3.4c-6.9-2.9-8.1-8.4-4.8-15.3
		c6.5-13.5,28.8-22.6,42.6-16.6c1.7,0.8,2.1,4.8,4.1,9.6c-15.3-3.7-27.3-3.3-36.2,11.7c4,1.9,7.5,3.9,11.3,5.1
		c3.1,1,6.6,0.4,9.7,1.2c7.8,2.1,16.9,2.8,18.8,13.5c1.7,9.5-5.2,14-11,19.1c-9.3,8-20.7,10.4-32,10.8
		C287.1,136.1,278.5,142.8,270.5,131.2z"/>
	<path id="XMLID_1902_" fill-rule="evenodd" fill="#FFFFFF" clip-rule="evenodd" d="M61.8,135c-13-0.4-14.1-11.5-21.7-16.6
		c-7.3,4.6-15,9.5-24.3,15.4C6.6,117.8-1.6,102.5-1,83.7c12.2,7.7,9.9,23.3,19.1,35.2c6.1-7.8,11.9-15.4,19.3-25
		c5.5,8.3,10.6,16.2,16.4,25c12.4-16.1,14.6-38.1,32.6-52.7c0.7,16.6-10.6,24.2-14.3,35.3C68.5,112.3,59.1,121,61.8,135z"/>
	<path id="XMLID_1901_" fill-rule="evenodd" fill="#FFFFFF" clip-rule="evenodd" d="M98.6,133.7c-10.9-11.2-19.1-22.3-16-39.8
		c11.6,3.6,7.4,17.7,16.1,22.2c9-4,11.8-18.2,25.1-16.9c3,5.6,6.1,11.4,9.4,17.6c10.4-15.7,20.4-30.9,31.8-48.3
		c1.9,4.4,4.5,8.1,3.8,9.1c-12.8,16.9-23.8,34.8-31.1,55.2c-0.6,1.6-3.3,2.3-5.5,3.8c-4.5-7.7-8.5-14.6-13.2-22.8
		C111.5,121.1,105.4,127.1,98.6,133.7z"/>
	<path id="XMLID_2371_" fill-rule="evenodd" fill="#FFFFFF" clip-rule="evenodd" d="M899.2,71.5c8.6,18.9,16.5,36.2,25.2,55.4
		c-4.7,2.5-9.6,5.1-16.6,8.7c-1.9-7.3-3.3-12.5-4.6-17.6c-1.3-5-3.9-7.5-9.4-6.5c-6.9,1.3-13.9,1.8-22.1,2.8
		c-1.6,4.2-3.5,9.1-5.8,15.1c-6.5-5-6.3-10.1-3.4-15.2C871.1,98.5,881.4,84.2,899.2,71.5z M879.7,99.9c1.1,1.6,2.1,3.2,3.1,4.7
		c4.4-0.6,8.8-1.3,13.6-2c-0.3-3.2-0.2-5.4-0.8-7.4c-0.6-2.1-1.7-3.9-2.9-6.6C886.6,93.9,883.1,96.9,879.7,99.9z"/>
	<path id="XMLID_2368_" fill-rule="evenodd" fill="#FFFFFF" clip-rule="evenodd" d="M494.7,106.7c-4.7,14,4.2,16.2,15.2,19.8
		c-6.1,2.6-10.2,5.8-11.8,4.8c-5.2-3.5-11.3-7.6-13.6-13.1c-2.1-5-0.9-12.2,0.7-18c3.3-12.5,11.7-21.5,22-28.1
		c8.9-5.7,18.3-6.7,27.6,0c10.1,7.3,10,15.2-0.3,22.3C522.5,102.5,510,108.8,494.7,106.7z M497.8,96.8c10.7-2.9,25.4,0.2,28.5-17.9
		C510.3,75.2,503.9,85.6,497.8,96.8z"/>
	<path id="XMLID_1896_" fill-rule="evenodd" fill="#FFFFFF" clip-rule="evenodd" d="M210.3,133.9c-6-6-10.9-10.9-17.4-17.4
		c-4.8,7.4-9.1,14-13.8,21.1c-16.9-4-10.5-23.7-23.3-32.3c15.7-7.1,14.8,6.3,20.2,11.6c6.1-5.2,12.1-10.4,18.6-16
		c4.3,4.3,7.6,7.7,12.2,12.4c5.4-8.7,9.8-17.9,16.1-25.3c5.2-6.2,6.2-18.6,20.4-17.2c-7,11-13.7,19.9-18.8,29.7
		C219.5,110,215.9,120.5,210.3,133.9z"/>
	<path id="XMLID_2364_" fill-rule="evenodd" fill="#FFFFFF" clip-rule="evenodd" d="M431.8,108.4c5.4,15.8,21.1,12.5,33.2,20.6
		c-8.9,3.9-15.5,3.8-21.6,0.4c-6.6-3.7-14-7.3-18.5-13c-7.3-9.3-3.6-21.8,7-33c7.4-7.8,15.3-12.9,26.2-9.1c6.9,2.4,10.8,7.3,11,15.1
		c0.2,7.9-4.4,11.2-10.8,12.5c-5.8,1.3-11.8,2-17.6,3.3C437.7,105.8,434.9,107.3,431.8,108.4z M435.6,90.9c0.6,1.4,1.1,2.9,1.7,4.3
		c5.1-0.8,10.4-1,15.1-2.7c1.6-0.6,2.4-5.6,2-8.3c-0.2-1.2-5-3.1-6.5-2.3C443.5,84.2,439.7,87.8,435.6,90.9z"/>
	<path id="XMLID_2361_" fill-rule="evenodd" fill="#FFFFFF" clip-rule="evenodd" d="M751.7,123.9c-13.1-1.3-21.5-8.2-22-19.2
		c-0.5-11.5,7.6-20.9,19-21.9c7-0.6,14-2.1,20.9-1.6c8.4,0.5,15.7,7.7,17.1,15.5c1.6,9.3-3.6,14.8-11,18.1
		C767.9,118.2,759.7,120.9,751.7,123.9z M743.4,111.1c10.5,3,20.9,1.7,28.3-4c2.7-2.1,6.3-7,5.5-8.9c-1.5-3.4-5.5-7-9-7.8
		C754.8,87.2,750.5,91,743.4,111.1z"/>
	<path id="XMLID_1782_" fill-rule="evenodd" fill="#FFFFFF" clip-rule="evenodd" d="M645,138.4c-1.4-1.5-5.3-3.9-6.2-7.2
		c-1.4-4.9,5.4-12.5,10.5-13.1c5.3-0.6,11.6,4.6,11.2,9.7C659.8,135.7,654.1,137.5,645,138.4z"/>
	<path id="XMLID_1769_" fill-rule="evenodd" fill="#FFFFFF" clip-rule="evenodd" d="M233.8,131.7c-0.8-7.9,0.7-13.5,7.3-16.2
		c4.3-1.8,8.7-2.2,11.1,3.1c2.5,5.5,1,10.5-4.4,12.4C243.5,132.3,238.5,131.5,233.8,131.7z"/>
</g>
</svg>
