<?xml version="1.0" encoding="utf-8"?>
<!-- Generator: Adobe Illustrator 16.0.0, SVG Export Plug-In . SVG Version: 6.00 Build 0)  -->
<!DOCTYPE svg PUBLIC "-//W3C//DTD SVG 1.1//EN" "http://www.w3.org/Graphics/SVG/1.1/DTD/svg11.dtd">
<svg version="1.1" id="Layer_1" xmlns="http://www.w3.org/2000/svg" xmlns:xlink="http://www.w3.org/1999/xlink" x="0px" y="0px"
	 width="1000px" height="444px" viewBox="0 0 1000 444" style="enable-background:new 0 0 1000 444;" xml:space="preserve">
<style type="text/css">
<![CDATA[
	.st0{fill-rule:evenodd;clip-rule:evenodd;}
	.st1{fill-rule:evenodd;clip-rule:evenodd;fill:#FFFFFF;}
]]>
</style>
<g>
	<path class="st0" d="M744.9,222.9c2.3,1.1,3.8,2.5,4.3,5.1c0.3,1.6,0.8,3.6,2.8,4.4c1.6,2.7,3.2,5.3,4.8,8
		c-0.5,1.4,0.7,2.2,1.1,3.4c0.5,1.6,0.3,3.5,2.3,4.2c0.1,2.5,2.4,3.4,3.5,5.1c1.3,1.8,2.3,3.6,3.4,5.5c1,1.6,2.7,2.7,3.2,4.6
		c0.3-0.2,0.5-0.3,0.5-0.3c0.6-2.9,2.7-5.1,3.9-7.7c1.1-2.6,2.6-4.9,4-7.4c0.2-0.3,0.5-0.6,0.6-0.9c1.2-5.5,4.8-9.7,7.5-14.4
		c3.1-5.5,6.2-11,9.5-16.8c0.5-0.3,1.4,0,2.2,0.1c1.5,0.2,3-0.5,4.3,0.2c1.4,0.7,1.1,2.7,2.5,3.2c-0.2,1.3-0.9,2-1.3,2.8
		c-0.6,1.3-1.4,2.7-1.6,4.1c-0.9,7.1-2,14.2-2.4,21.4c-0.1,1.7,0,3.4,0,5.1c0,0.1,0,0.3,0,0.4c0.6,2.9-1,5.8,0.1,8.7
		c1.1,2.7,0.3,5.6,0.8,8.3c0.5,3.1,0.7,6.3,0.6,9.5c0,0.8,0.2,1.7,0.5,2.5c1.3,4.6,2.4,9.1,3.2,13.8c-0.7,2.1-2.3,3-4.2,3.6
		c-2.4-0.9-3.3-3-3.5-4.9c-0.4-3-1.7-5.8-1.9-8.9c-0.4-5.4-2.1-10.7-1.8-16.3c0.1-2.2-0.3-4.6-0.6-6.9c-0.5-3.1-0.4-6.3-0.5-9.5
		c-0.1-4.2,0.3-8.4,0.6-12.6c0-0.3-0.1-0.7-0.2-1.3c-1.4,0.4-1.9,1.5-2.5,2.5c-1.5,2.8-3.4,5.3-5.2,7.9c-2.6,3.7-4.9,7.6-6.8,11.7
		c-1.6,3.4-2.8,6.9-3.7,10.6c-0.6,2.4-1.7,3.3-5.1,4.5c-1.8-0.8-3.7-1.8-5.7-2.8c-1.8-0.9-3-2.5-4-4.2c-2.1-3.5-4-7.2-6-10.8
		c-0.5-1-1.1-1.9-1.4-3c-1-4-3.6-7.1-4.7-11.5c-1.4,1.4-1.2,2.7-1.2,3.7c-0.2,4.4-0.3,8.7-0.9,13.1c-0.3,1.9,0.1,3.9-0.1,5.9
		c-0.6,5.7-0.6,11.4-1.3,17.1c-0.5,4.3-0.7,8.7-1.6,13c-0.2,0.8-0.1,1.7-0.1,2.6c0,0.5,0.1,1,0,1.5c-0.7,3.5-2.9,5.1-6.3,3
		c-0.6-0.4-1.1-1-1.5-1.4c0-1.9,0.1-3.6,0-5.3c-0.1-1.3,0.1-2.5,0.8-3.5c1.6-2.6,1.3-5.6,1.6-8.5c0.1-0.5-0.2-1-0.1-1.4
		c1.7-6.1,1.7-12.3,2.1-18.5c0.4-6.2,0.8-12.4,1.5-18.6c0.4-4.2,0.4-8.4,1-12.6c0.2-1.6-0.2-3.1-0.1-4.7
		C741.9,226.7,742.6,224.7,744.9,222.9z"/>
	<path class="st0" d="M778.2,179.6c-2.4-0.2-4,1.3-5.9,1.4c-2.1,0.2-4,0.7-6.2,0.5c-1.9-0.2-3.9,0.2-5.9,0.4c-1,2,0.1,3.9-0.2,5.8
		c-0.4,2.1,0.8,4,0.6,6.1c-0.1,1.9,1.6,3.5,1.6,5.6c-1.2,0.7-2.7,1.1-3.5,2.5c-0.6,1-2,0.8-2.9-0.1c-0.9-0.9-1.6-1.9-1.8-3.2
		c-0.5-3.2-1.2-6.4-0.9-9.8c0.8-10,1-20,1-30c0-4.7,0-9.5,0.2-14.2c0.2-4.7,0.1-9.4,0.3-14.1c0.1-4.4,0.5-4.5,5-4.6
		c1.1,0.7,1,1.9,1,3c0,4.4,0,8.8,0,13.2c0,6.2,0,12.4,0,18.7c0,1.1,0,2.2-0.4,3.3c-1.2,3.8-0.2,7.7-0.5,11.3c1.2,1.1,2.3,1,3.4,0.6
		c2.6-1,5.3-1.5,8.2-1.2c1.8,0.2,3.8-0.6,5.7-1c0.8-0.8,0.5-1.9,0.5-2.8c-0.3-5,0-10,0.2-15c0.2-3.9-0.2-7.8-0.5-11.7
		c-0.2-3.2,0.3-6.3,1.4-9.3c0.5-1.4,1.6-2.2,2.7-2.8c1-0.6,2.2-0.4,3.1,0.3c0.7,0.5,0.9,1.3,0.7,2.3c-1.7,6.4-1.2,12.8-0.5,19.2
		c0.3,2.4,0.2,4.8-0.2,7.3c-0.8,4.4-0.1,8.8,0.6,13.1c0.2,1.2,0.3,2.3,0,3.5c-0.2,1-0.5,2.1-0.2,3.3c0.8,3.2,0.5,6.5,1.2,9.8
		c0.5,2.3,0.3,4.8,1.1,7.2c-1,1.1-2.5,1.1-3.3,2.2c-0.8,1-2,0.6-2.8-0.4c-0.7-0.9-1.1-1.9-1.3-3c-0.6-3.4-1-6.8-1.6-10.1
		C777.7,184.5,777.6,182.2,778.2,179.6z"/>
	<path class="st0" d="M881.4,280.5c1,5.3,0.4,10.9,0.7,16.5c0,0.6-0.1,1.2-0.1,1.8c-0.3,3.1-0.1,6.1,1.2,9c-0.1,1.2-0.5,2.3-1.1,3.5
		c-0.9,0.7-2.1,0.9-3,1.8c-1.3,1.2-2.3,0.9-3.3-0.7c-0.4-0.6-0.7-1.3-1-1.9c0.4-2.2,0.1-4.4,0.1-6.6c-0.1-3.4-0.1-6.8-0.1-10.2
		c0-3.8-0.2-7.5-0.3-11.3c0-2.8-0.2-5.6-0.4-8.4c-0.1-2.1-0.3-4.3,0-6.5c0.1-0.7,0-1.4-0.1-2.2c-0.5-3.4-0.2-6.8-0.8-10.2
		c-0.4-2.1,0.7-4.3,0.1-6.5c-0.3-1,0.6-2.1,1.5-2.7c5-3.4,10-6.5,16.1-7.2c4.2-0.5,8.4-1,12.7-0.6c2.4,0.2,4.4,1.4,6.5,2.3
		c0.7,0.3,1.1,0.9,1.5,1.6c1.1,1.6,2.1,3.3,3.1,4.9c1,1.6,0.8,3.3,0.5,5c-0.3,1.4-0.7,2.9-1.5,4.1c-2,3.1-3.3,6.7-6.6,9
		c-3.1,2.2-5.5,5.1-8.7,7.2c-2,1.4-4.1,2.6-6.4,3.5c-1.1,0.5-2.3,0.8-3.3,1.5c-1.7,1.2-3.5,1.7-5.4,2.1
		C882.6,279.4,881.9,279.5,881.4,280.5z M882,273.3c1,0.6,1.6,0.5,2.2,0.3c2.6-1.2,5.4-2.3,7.8-3.9c4.4-2.8,8.3-6.2,12.1-9.8
		c2.1-2,3.1-4,2.6-7c-0.3-1.8-0.9-3.2-2.2-4.5c-1.2-1.2-2.8-1.4-4.3-1.6c-2.4-0.4-5.1-0.4-6.8-2.3c-5.1,0.7-9.1,3.1-12.9,6
		c-0.4,2.3-0.2,4.5,0,6.7c0.6,4.8,1.3,9.6,1.4,14.5C881.8,272.1,881.9,272.7,882,273.3z"/>
	<path class="st0" d="M859.7,289.6c-0.7,0.9-1.8,0.6-2.5,1.7c-1,1.5-3.1,1.1-3.9-0.4c-0.4-0.7-0.7-1.6-0.8-2.4
		c-0.8-5.4-3.1-10.5-3.8-16c-0.1-0.9-0.7-1.8-1-2.7c-3.5-0.6-6.8-0.6-9.9,1.1c-1.1,0.6-2.4,0.6-3.6,0.8c-1.7,0.2-3.4,0.5-5,1.1
		c-1.1,0.4-1.6,1.1-1.6,2.1c-0.1,1.1-0.2,2.2-0.2,3.3c-0.1,3.1,0.3,6.3-0.7,9.4c-0.7,2.2-0.2,4.3,1.3,6c-0.2,1.1-0.3,2.1-0.5,3.3
		c-0.1,0.1-0.4,0.3-0.7,0.5c-1.2,0.9-2.6,1.3-4.1,1.4c-1.6,0-2.4-0.4-2.5-2c-0.3-3.3-0.6-6.5,0.2-9.8c0.1-0.5,0.4-1,0.3-1.4
		c-0.7-4.8,1-9.4,0.8-14.1c-0.2-5.4,0.2-10.7,0.7-16.1c0.3-3.6,0.4-7.3,0.2-11c-0.2-2.5,0.1-5.1,0.2-7.5c4.6-3.5,5.5-3.4,8.5,1.1
		c2.2,3.4,4.8,6.4,7.9,9.1c0.7,0.6,1.3,1.4,2,2.2c1.6,1.8,3.2,3.6,5.3,5c2.8,2,5,4.7,6.9,7.5c1.6,2.4,1.8,5.3,2.3,8
		c0.7,4,2.3,7.7,2.6,11.8c0,0.5,0.4,0.9,0.6,1.4C859.7,285.7,859.7,285.7,859.7,289.6z M829.6,246.4c-0.7,0.6-0.6,1.1-0.6,1.6
		c-0.1,2.2-0.2,4.4-0.4,6.6c-0.2,2.5-0.7,5.1-0.9,7.6c-0.1,1.2,0.1,2.4,1.1,3.5c4.6-2.5,9.7-3.3,15.2-4.7
		C838.2,256.6,834.3,251.1,829.6,246.4z"/>
	<path class="st0" d="M706.7,208.5c-0.5-1.4-1.4-2.7-0.6-4.5c1.7-1,3.8-1.2,5.8-1c2.7,0.3,5.1-0.3,7.4-1.5c1.5-0.7,2.9-1.1,4.5-1.4
		c3.5-0.6,6.9-1.6,9.9-3.5c0.5-0.3,1.2-0.6,1.5-1c2.7-4,5.7-8,5.5-13.2c-0.1-2-0.7-3.8-1.6-5.4c-1.8-3.1-4.2-5.9-7.5-7.8
		c-1-0.5-1.9-1-2.8-1.6c-1.2-0.9-2.5-1.5-4-1.6c-2.3-0.2-4.5-1.2-6.5-2.3c-0.5-0.3-1.1-0.6-1.4-1.1c-2.1-3.2-5.3-5.7-6.8-9.6
		c1-3,2.3-6.1,4.9-8.6c2.9-2.8,6.2-4.8,10.2-5.2c3-0.3,6.1-0.4,9.1-0.4c4,0.1,7.7,1.2,11,3.7c0.1,1.8,0.9,3.6-1,4.9
		c-1.1,0.3-1.8-0.3-2.5-0.8c-3.1-2-6.6-2.4-10.1-2.3c-2.4,0-4.7,1-7.2,1c-1.4,0-3,1.1-3.8,2.5c-0.7,1.2-1.2,2.6-2.5,3.2
		c0.9,3.2,3.4,4.9,4.4,7.6c1.9,0.7,3.8,1.1,5.8,1.1c1.4,0,2.6,0.4,3.7,1.3c1.1,0.8,2.3,1.4,3.4,2.2c2.1,1.6,4.6,2.7,5.9,5.2
		c0.3,0.5,0.8,0.9,1.3,1.3c2.7,2.1,4.2,5,5.2,8.1c1.1,3.2,0.6,6.5,0.3,9.8c0,0.6-0.4,1.2-0.7,1.7c-1.2,2-2.4,4-3.5,6
		c-1.8,3.4-4.6,5.6-7.7,7.5c-0.9,0.6-1.8,1.3-2.7,1.9c-1.3,0.8-2.5,2-4.2,2c-0.1,0-0.3,0-0.4,0c-2.4,2.5-5.7,1.6-8.6,2
		c-3.6,0.5-7.3,0.4-10.9,0.6C708.5,209.3,707.7,209.1,706.7,208.5z"/>
	<path class="st0" d="M875.1,165.8c0.7-1.9,1.8-2.9,3.5-3.7c2.8-1.2,5.6-2.4,8.5-3.3c2.4-0.8,4.6-2.3,7-3.1c1.8-0.6,3.7-1.1,5.6-1.5
		c1.9-0.3,3.9-0.3,5.8-0.4c4.8-0.2,7.6,2.8,9.4,6.7c2,4.3,1.9,8.5-0.5,12.6c-0.4,0.7-0.8,1.5-1.1,2.3c-1.1,2.6-3.3,4.2-5.7,5.4
		c-1.3,0.7-2.6,1.2-3.9,1.9c-1,0.6-2.2,1-3.4,1.2c-6.4,1.1-12.3,3.9-18.8,4.5c-1.4,5.2-1.8,10.3-0.9,15.4c0.4,2.2,0.4,3.8-2,4.8
		c-0.4,0.2-0.6,0.7-1,1.1c-0.9,0.8-1.9,1-3.1,0.6c-1.2-0.4-1.6-1.5-1.6-2.6c0-2.3-0.1-4.6,0.1-6.9c0.7-5.9,0.8-11.8,2-17.7
		c0.3-1.4,0.2-2.9,0.2-4.4c0-1.8,0.2-3.6,0.3-5.4C875.7,171,876,168.4,875.1,165.8z M881.8,180.1c0.8,0.7,1.4,0.9,2.2,0.9
		c2.8,0,5.5-0.6,8.2-1.5c0.9-0.3,1.9-0.8,2.8-0.8c2.9,0.2,5.1-1.3,7.6-2.4c2.1-0.9,3.8-2.2,4-4.8c0.1-1.1,0.8-2,1.4-2.9
		c0.9-1.5,1.1-3-0.4-4.2c-0.7-0.7-0.9-1.8-1.8-2.1c-2.2-1.3-4.8-0.2-7.1-0.9c-0.6-0.2-1.5,0-2.1,0.3c-1.9,1.1-4.1,1.5-6.1,2.2
		c-3.1,1.1-5.7,2.9-8.5,4.7C881.8,172.5,881.8,176.3,881.8,180.1z"/>
	<path class="st0" d="M859.7,190.1c0.1,0.8,0.2,1.6,0.4,2.4c0.8,1,3.6,0.1,2.8,2.8c-0.2,0.1-0.6,0.5-0.8,0.5
		c-3.2-0.5-6.2,0.7-9.4,0.8c-0.4,0-0.8,0.1-1.1,0.2c-3.5,1.7-7,0.6-10.3-0.4c-4.9-1.5-7.7-5.3-9.5-9.9c-0.9-2.2-1.1-4.5-1.8-7
		c1.2-2.3,1.6-5.2,1.8-7.9c0.2-3.9,2.3-6.4,4.7-8.7c3.7-3.5,8.4-4,13.3-3.9c0.5,0,1,0.3,1.4,0.2c2.7-0.2,4.7,1,6.4,3.5
		c0,0.2,0,0.9,0.2,1.4c1,2.6,0.1,4.8-1.1,7.2c-1.9,3.7-5,5.6-8.4,7c-3.3,1.3-6.6,3.1-10.2,3.3c-0.8,1.5,0.1,2.5,0.6,3.6
		c2.3,4.7,6.2,6.4,11.1,5.5c2.5-0.5,5-1.2,7.5-1.2C858,189.6,858.7,189.7,859.7,190.1z M838.5,175.3c4.2-1.4,8.3-2.1,10.9-5.5
		c1-1.3,2.6-2.3,2.1-4.3c-1.2-1.1-2.6-0.8-3.8-0.4c-1.7,0.5-3.4,1.2-5,2.1C839.9,168.9,838.1,171.3,838.5,175.3z"/>
	<path class="st0" d="M915.9,122.2c-1.7,1.1-3.1,1-4.4,0.6c-4.4-1.3-8.6-0.8-12.9,0.4c-1.6,0.4-3.3,0.6-5.1,1c0,2.1,0.7,3.7,2.8,4.5
		c0.7,0.3,1.4,0.6,1.9,1c2.9,2.4,6.4,2.7,9.9,2.9c2.2,0.1,4.4,0.3,6,2.1c0.2,0.2,0.3,0.6,0.6,1.1c-2.6,1.4-4.9,3.1-8.1,2.6
		c-2.3-0.4-4.6-0.6-6.9-0.6c-5.9-0.2-9.4-3.5-11.5-8.6c-2.1-5-1.8-10.1-0.4-15.3c1.3-5.1,4.6-7.9,8.9-10.4c3.2-1.8,6.2-1.8,9.5-1.1
		c4.6,1,8.6,5.9,8.6,10.5c0,1.8-0.2,3.5,0.7,5.3C916.1,119.3,915.2,120.8,915.9,122.2z M893.8,116.6c0.7,0.7,1.4,1.4,2.5,1.1
		c3.3-0.8,6.7-1.4,10.1-1.7c0.5,0,1-0.2,1.4-0.4c2.3-1.1,2.4-3.5,0.4-4.9c-1.9-1.3-3.9-1.7-6.2-1.6
		C896.8,109.4,894.5,111.4,893.8,116.6z"/>
	<path class="st0" d="M861.5,117.2c2.3-1.3,4.6-2.1,6.9-2.8c5.1-1.5,8.6,0.8,9.7,5.9c0.6,3,0.9,6,1.3,9c0.1,0.4,0.2,0.8,0.1,1.1
		c-0.6,2.2-0.1,4.3,0.2,6.5c-0.9,1.1-1.7,2.1-2.5,3c-0.9,0.3-1.6,0.1-2.2-0.4c-0.6-0.6-1.1-1.2-1.2-2.2c-0.1-3-0.4-6.1-0.5-9.1
		c0-2.8-0.6-5.5-2.1-8.1c-4.9,0.1-8,3.1-10.7,6.8c-0.1,2.1-0.4,4.2,0.5,6.4c0.5,1.2,0.4,2.6,0.2,4.2c-2.1,0.2-3.3,3.9-6.4,1.1
		c0-3.6-0.1-7.3-0.1-11.1c0-5.7-0.1-11.5,0.1-17.2c0.2-5.1,0.7-10.2,0.4-15.3c-0.1-2.4,0-4.8-0.3-7.3c-0.4-3.1,0.7-6,2-8.8
		c0.2-0.4,0.5-0.9,0.9-1.1c0.7-0.5,1.6-0.7,2.4-0.2c0.7,0.3,1.1,1,1.1,1.8c-0.1,4.7,0.5,9.5-0.5,14.2c-0.1,0.6-0.2,1.2-0.1,1.8
		c1.1,5.8,0.4,11.6,0.1,17.5C860.7,114.2,860.2,115.6,861.5,117.2z"/>
	<path class="st0" d="M797.4,181.3c0.3-1.4,1.5-1.3,1.9-2.1c0.6-1.6,0.4-3.4,0.3-5c-0.1-2.5,0.4-4.7,1.8-6.9c1.1-1.8,2.5-3.3,3.7-5
		c1.1-1.6,3-2.4,4.9-3c1.8-0.6,3.7-1.3,5.5-2c3.6-1.3,6.9-1.3,9.8,1.7c1.9,2.1,2.5,4.4,1.5,7c-1.9,4.9-4.9,9-9.2,11.9
		c-2.3,1.5-5,2.6-7.4,3.8c-1,0.5-1.9,1-2.9,1.4c-0.5,1.7,0.3,3,0.9,4.3c0.4,0.8,0.9,1.4,1.2,2.2c1.2,3,3.2,4.9,6.5,4.6
		c0.9,2.1,0.9,2.1,0.7,4c-3.2,3.1-7.6,1.9-10.9-2.4c-1.3-1.6-2.3-3.5-3.5-5.2c-0.9-1.2-1-2.7-1.4-4.1c-0.5-1.8-1.1-3.4-2.7-4.5
		C797.7,182.1,797.6,181.6,797.4,181.3z M806.7,176.9c0.8-0.2,1.3-0.3,1.7-0.5c2.6-1.6,5-3.3,7.7-4.8c0.8-0.5,2-1,2.3-2.2
		c0.4-1.5,1.3-2.6,2.1-3.8c0.4-0.7,0.8-1.5,0.5-2.6c-0.6-0.6-1.6-1-2.5-0.8c-2.6,0.6-5.1,1.5-7.3,3.1
		C808,167.4,806,172.5,806.7,176.9z"/>
	<path class="st0" d="M841.8,74.8c0.6,1.5,1.7,3,1.8,4.6c0.1,2.6,0.3,5.4-0.7,7.9c-1,2.6-1.6,5.3-1.8,7.7c0.3,1.4,1.8,1.4,1.8,2.6
		c-2.1,2.8-2.4,3.4-1.8,7.3c0.3,2.3,0.2,4.5-0.4,6.8c-0.3,0.9-0.2,1.9,0.3,3.1c2.9,0,5.8,0.6,8.7,0.3c1.1,1.4,0.1,1.9-0.7,2.5
		c-0.9,0.8-0.4,1.8-0.6,2.9c-2.3,2-5.6,0.2-8.1,2.1c-0.7,1.9-0.3,3.9,0.4,5.9c0.5,1.4,0.7,2.8,0.8,4.3c0,0.6,0,1.2,0,1.8
		c-0.2,1.7-1.4,3-2.7,3c-1.2,0-3-1.3-3.2-2.6c-0.3-1.8-0.7-3.6-0.6-5.4c0.1-2-0.1-4.1-0.2-6.4c-3.2,0.6-5.9-0.6-8.8-0.8
		c-0.3,0-0.6-0.3-0.9-0.5c-1.3-4.3-0.9-4.8,3.4-4.7c1.5,0,2.9,0.2,4.4,0.2c0.9,0,1.7-0.1,2.6-0.8c0.4-3.1,0.5-6.4-0.1-9.6
		c-0.4-2.3-0.5-4.6-0.2-6.9c0.3-2.4,0.1-4.9,0.1-7.3c0-3.5-0.3-7.1,1.3-10.4c0.4-0.9,0.7-1.8,0.6-2.8c-0.1-1,0.2-1.9,0.5-2.9
		C838.3,74.4,838.8,74.2,841.8,74.8z"/>
</g>
<g>
	<path class="st0" d="M531.2,50.8c-0.2,0.5-0.4,0.9-0.6,1.4c-4.1,1.5-8.4,1.6-12.6,1.4c-3.1-0.2-6,0.5-9,0.7c-0.5,0-1,0.3-1.4,0.2
		c-4.2-0.7-8.2,0.5-12.3,0.9c-4.1,0.3-8.2,0.9-12.3,0.4c-0.4,0-0.8-0.3-1.1-0.1c-2.2,1.5-4.6,0.7-7,0.7c-1.2,0-2.4-0.2-3.6,0.4
		c-1.6,0.8-3.4,0-5.1-0.1c-3.8,0-7.5-0.2-11.3-0.1c-1.2,0-2.4-1.1-3.5,0.1c-1.2-0.6-2.4,0.1-3.6,0.3c-0.2,0-0.5,0.1-0.7,0.1
		c-1.1,0.3-1.5-1.4-2.6-0.9c-0.9,0.5-1.8,0.7-2.8,0.3c-0.6-0.2-1.3-0.2-1.8-0.1c-2.5,0.8-4.8,0-7-1c-0.3-0.2-0.7-0.2-1.3-0.4
		c-1,0.8-2.1,1.5-3.7,1.3c-2.6-0.3-5.3,0.1-8-0.6c-1.7-0.4-3.6,0.2-5.4,0.4c-4.5,0.5-9,0.1-13.5,0.7c-1.4,0.2-2.8-0.5-4.2,0.3
		c-0.3,0.2-0.8,0.2-1.1,0.1c-1.7-1.2-3.6-0.4-5.4-0.2c-5,0.7-10-0.3-15-0.3c-3,0-6.1-0.4-9.1-0.1c-4.4,0.4-8.8-0.2-13.2-0.6
		c-2.8-0.3-5.6-0.5-8.4-0.1c-1.6,0.2-3.1,0.2-4.7-0.2c-2.5-0.5-5-1.1-7.5,0.2c-0.7,0.4-1.4,0.1-2.1-0.1c-2.1-0.4-4.3-0.6-6.5-0.4
		c-2,0.2-4,0-6,0c-1.9,0-3.9,0.4-5.8-0.3c-0.3-0.1-0.7-0.1-1.1,0c-2.7,0.8-5.3,0.4-8,0.2c-2.1-0.1-4.1-0.1-6.2,0.4
		c-1.4,0.4-2.9,0.4-4.4,0.2c-2.9-0.4-5.8-0.3-8.8-0.2c-2.2,0.1-4.4,0.4-6.6-0.4c-0.7-0.3-1.4,0-2.2,0c-3.3,0.1-6.6,0.2-9.8,0.3
		c-1.1,0-2.2,0.2-3.2,0.4c-1.5,0.3-3.1,1-4.5-0.2c-0.5-0.4-0.9-0.1-1.4,0c-1,0.3-2.1,0.4-3.2,0.6c-1.7,0.4-3.4,0.8-5.3,0
		c-1.5-0.6-3.3,0.3-5-0.1c-1.3-0.3-2.7-0.2-3.9-0.8c-0.3-0.1-0.7-0.3-1-0.3c-3.8,0.4-7.4-1.2-11.4-0.8c-0.5,2.8-0.8,5.7-1,8.6
		c-0.4,5.7-1,11.4-1.5,17.1c-0.3,3-0.5,6.1-0.8,9.1c-0.2,2-0.8,2.7-1.8,2.7c-1.2-0.1-2.2-1.1-2.4-2.8c-0.2-1.6-0.5-3.1-1.1-4.6
		c-1.5-3.9-0.8-7.9-0.2-11.9c0.1-0.8,0.4-1.6,0.3-2.5c-0.4-5.1-0.3-10.2,0.5-15.3c0-0.2-0.2-0.4-0.3-0.7c-0.9-0.6-1.9-0.3-2.8-0.1
		c-3.2,0.8-6.5,0.5-9.8,0.5c-3.6,0-7.3,0-10.8,0.9c-0.2,0.1-0.5,0.2-0.7,0.2c-3.2-1.1-6.3,0.3-9.4,0.5c-3.6,0.3-7.2,0.3-10.8-0.6
		c-0.6-0.1-1.2-0.3-1.8-0.1c-1.9,0.8-3.6,0.3-5.1-0.7c-0.6,0.6-0.9,1.3-1.8,1.4c-3,0.3-6,0.7-9,0.9c-0.7,0.1-1.4-0.3-2.1-0.5
		c-0.8-0.2-1.6-0.7-2.5-0.6c-1.9,0.2-3.5-0.5-4.6-2.3c-0.4,0.7-0.6,1-0.9,1.6c-3-1.3-6.2-0.1-9.3-1.1c-0.5-0.2-1.2,0.2-1.8,0.3
		c-1.4,0.4-2.9,0.5-4.3,0.3c-1.5-0.2-2.9-0.4-4.4,0c-0.6,0.1-1.3,0.1-1.8,0c-4.2-1.4-8.4-1.1-12.7-1c-1.6,0.1-3.2,0.1-4.8-0.1
		c-3-0.3-4.8-0.1-8.1,1c-0.4,0.2-0.9,0.1-1.4,0.2c-3,0.2-6.1-0.3-9.1,0.8c-0.2,0.1-0.5,0.1-0.7,0c-4.4-1.7-8.9-1.1-13.3-0.3
		c-2,0.3-3.9,0.3-5.7-0.1c-4.5-1.1-8.4,0.1-12.4,2.3c-2.5,1.4-3.6,3.6-4.9,5.7c-0.8,1.3-1.5,2.8-2.1,4.2c-1.2,2.6-1.7,5.2-1.1,8.1
		c0.9,4.2,0.8,8.4,0.2,12.6c-0.1,1.1-0.7,2.1,0,3.2c0.2,0.3,0.1,1-0.1,1.4c-1.3,2.5-0.7,5.1-0.2,7.5c0.3,1.7,0.3,3.2-0.4,4.6
		c-1,1.8-1,3.4-0.3,5.2c0.2,0.4,0.5,1.1,0.3,1.4c-1.2,2-0.2,4.3-0.8,6.4c-1.7,1.3-1.7,1.3-3.8,0.8c-0.7-0.5,0.2-1.1-0.1-1.6
		c-0.4-0.7-1.4-0.3-1.9-1.6c0.2-1.1,0.3-2.7,0.6-4.2c0.5-2.3,0.4-4.5,0.2-6.8c-0.3-2.8-0.2-5.6,0.2-8.4c0.3-1.9,0.5-3.8-0.2-5.8
		c-0.8-2.3-0.1-4.8-0.5-7.2c-0.2-1.2,0.7-2.5,1.1-3.8c0.5-1.4,1.1-2.8-0.9-3.7c-0.3-0.1-0.4-0.8-0.5-1.3c-0.1-1.7-0.3-3.4,0.7-4.9
		c-1-2-1.6-3.9-1.8-6c-0.1-1-0.3-1.9,0.1-2.8c0.4-1,0.5-2.2-0.3-3.1c-1.5-1.6-0.8-3.2-0.2-4.8c0.4-1,1-1.9,1.5-2.9
		c-0.5-1.6-1-3.3-1.5-5c0.9-1.7,1.5-3.5,0.8-5.5c-0.3-0.9-0.1-1.9-0.2-2.9c0-0.4,0.1-0.7,0-1.1c-0.8-3.6,0.1-7.2,0.5-10.8
		c0.1-1.1,0.4-2.2-0.1-3.2c0.4-1.4,1.9-1.9,2.2-3.3c3.7-1.3,7.5-1.2,11.3-1.7c2.1-0.3,4.1-0.4,6.1-1.2c4-1.6,8.2-1.4,12.3-1.8
		c2.1-0.2,4.1-0.3,6.2-0.1c2.7,0.2,5.4,0.2,8-0.3c6.6-1.2,13.4-0.7,20-1.6c0.6-0.1,1.2-0.2,1.8-0.1c6.1,1.1,12.1-0.1,18.2-1
		c2.3-0.4,4.6-0.5,6.9-0.5c2.1,0,4.1,0.5,6.1-0.5c0.3-0.1,0.7-0.1,1.1,0c3.1,0.7,6,0,8.9-0.8c0.9-0.2,1.7-0.4,2.5,0
		c2,1.1,4,0.7,6.1,0.6c4.4-0.3,8.7-1,13.1-1.1c2.9-0.1,5.8,0.4,8.7,0.4c3.7,0.1,7.3,0.1,11,0.1C196,8.4,201,9.9,206,11
		c0.8,0.2,1.6,0.5,2.5,0.5c6.5,0,12.8,1.3,19.3,1.6c3,0.1,6,0.2,9.1,0c4.5-0.3,9-0.3,13.5-0.4c0.6,0,1.3,0.2,1.8,0
		c3.9-1.2,7.9-1.4,11.9-1.7c1.8-0.2,3.7-0.3,5.5-0.3c5,0,9.8-1.5,14.8-1.9c2.2-0.2,4.4-1.5,6.7-1.7c4.5-0.5,8.9-1.7,13.4-1.1
		c0.5,0.1,0.9-0.2,1.4-0.3c1-0.2,1.9-0.5,2.9-0.5c5.2-0.2,10.4-0.7,15.7-0.3c5.2,0.4,10.4,0.8,15.7,0.8c5.7,0,11.4,0.5,17.2,1.2
		c4.7,0.6,9.5,1.1,14.2,1c2.7,0,5.4,0.1,8,0.5c3.6,0.5,7.3,0,10.9,1c2.5,0.7,5,0.6,7.6,0.5c3.8,0,7.5,0.6,11.3,0.9
		c2.5,0.2,5.1,0.5,7.4,0.7c1.4-0.7,1.7-2.4,3-2.7c0.8,0,1.2,0.4,1.6,0.9c0.4,0.5,0.7,1,1.6,1.4c3.9,0.1,8.1-0.1,12.4,0.7
		c0.7,0.1,1.5-0.1,2.2-0.2c4.2-0.7,8.5-0.8,12.8-0.7c3.3,0.1,6.5,0.2,9.8,0.2c1.3,0,2.7-0.2,4-0.3c3.4-0.2,6.8,0.6,10.2,0.7
		c5,0.2,9.9,1.1,14.9,0.8c2.2-0.1,4.4-0.1,6.6-0.5c3-0.5,6-0.6,9.1-0.3c4.3,0.5,8.6,0.2,12.7-0.9c5.4-1.4,10.8-1.8,16.3-1.7
		c4.8,0.1,9.5-0.7,14.2-1.1c4.1-0.4,8.2-1.6,12.4-1.3c1.2,0.1,2.3,0.1,3.6,0.4c1.8,0.5,3.8,1,5.8,0.2c1.3-0.5,2.6,0.1,4,0
		c4.3-0.5,8.7-1.2,13.1-1c1.6,0.1,3.2,0.3,4.7,0.2c2-0.1,4.1-0.3,6.1-0.7c3.3-0.5,6.6,0.3,9.9-0.3c3.9-0.6,7.7-0.4,11.6-0.3
		c4.6,0.1,9.3-0.1,13.9-0.2c4.1,0,8.3-0.4,12.4,0.8c1.4,0.4,2.9,0.3,4.4,0.3c6.1-0.1,12.2,0.3,18.2,1c4.7,0.6,9.5,0.9,14.2,1.2
		c1.9,0.1,3.9,0.4,5.8,0.9c2.8,0.7,5.6,1,8.5,0.9c-0.2-0.7-1.2-0.6-1-1.7c0.9-0.3,2-0.8,3.1-1.2c1.3,0.6,2.6,1.2,4,1.9
		c3.8-2.8,8.2,0.1,12.2-1.2c0.5,0.7,0.8,1.2,1.1,1.6c1.8-1.6,4-2,6.3-1.9c2.7,0.1,5.3,0.3,8,0.5c1.6,0.1,3.1,0.4,4.7-0.2
		c1.3-0.5,2.6-0.3,4-0.1c3,0.4,6,1,9.1,0.5c0.3-0.1,0.7,0,1.1,0.1c3.4,1,7,0.4,10.5,0.5c0.7,0,1.4,0,2.1,0.3
		c0.8,0.3,1.7,0.4,2.5,0.4c3.8-0.3,7.5,0.1,11.3,0c1.3,0,2.7-0.1,4,0.3c0.7,0.2,1.5,0.2,2.2,0.1c5.3-0.6,10.7-0.7,16.1-0.9
		c3.7-0.1,7.3-0.2,11-0.1c4.6,0.1,9.2-0.2,13.9-0.6c1.7-0.2,3.4,0.2,5.1,0.1c4.4-0.2,8.7-0.5,13.1-0.8c5.3-0.3,10.7-0.6,16-0.9
		c1.5-0.1,2.9-0.2,4.4-0.5c3.8-0.6,7.5-0.6,11.3-0.4c2.4,0.1,4.9-0.1,7.3,0.5c0.3,0.1,0.8,0.1,1.1,0c4-1.2,8-0.7,12-0.6
		c0.7,0,1.5-0.1,2.2-0.1c6.2-0.5,12.4-0.8,18.6-0.4c1.8,0.1,3.7,0.1,5.5-0.3c1.9-0.5,3.5,0.6,5.3,0.6c2.8,0,5.3-0.4,7.7-1.6
		c4.1-2,8.5-2.2,12.8-2.1c1.5,0,2.9,0.1,4.4-0.2c1.8-0.4,3.6-0.4,5.2,0.8c0.6,0.5,1.3,0.5,2.1,0.5c2,0.1,4.2-0.2,6.1,0.7
		c0.3,0.1,0.7,0.1,1.1,0c4.5-1.5,9.2-1.1,13.7-1.9c1.6-0.3,3.4-0.1,4.8,0.9c2.7-1.8,4.4-2,6.2-0.3c1.6-0.3,3.5-0.9,5.2,0.3
		c1.3,0.9,2.6-0.5,4,0c0.4,1,0.8,2,1.1,2.9c-0.5,1-1.3,1.2-2.1,1.4c-3,0.6-6,1-9.1,1c-4.2,0.1-8.2,0.8-12.2,2
		c-1.5,0.5-3.1,0.7-4.7,0.7c-4.2-0.2-8.3,0-12.4,0.3c-0.6,0-1.3-0.1-1.8,0.2c-1.7,1.1-3.4,0.8-5.2,0.2c-1.6-0.6-3.4-0.6-5.1-0.5
		c-2.7,0.2-5.3,0.2-8,0.1c-4-0.2-8,0.7-12.1,0.4c-1.3-0.1-2.6,0.4-3.2,1.7c0.2,1.5,1.6,1,2.2,1.4c0.1,0.4,0.3,0.7,0.2,0.9
		c-0.4,1.7-0.9,3.3-0.5,5.1c0.2,1.1-0.5,1.8-0.8,2.7c-0.6,2-0.2,6.3,0.6,9c0.1,0.3,0.4,0.7,0.1,1c-0.9,1.1-0.6,2.3,0,3.4
		c0.5,1-0.7,1.8-0.2,2.8c0.2,0.2,0.4,0.5,0.6,0.4c2.6-0.6,5.4,0.2,7.8-1.3c0.6-0.4,4.1-0.4,5.6-0.3c0.3,0,0.7,0,0.7,0
		c1.2-0.3,0.8-1.4,1.4-1.7c0.5,0.7-0.4,2.1,1.3,2.5c1-0.8-0.6-2.4,0.8-3.1c1,0.1,0.6,1.1,1.1,1.7c0.8,0.4,1.5-0.1,2.3-0.4
		c0.9-0.4,1.5-1.9,2.8-0.9c0,0.2-0.5,0.3-0.1,0.6c0-0.2,0-0.4,0-0.6c3.4,0.1,6.8,0.1,10.2,0.2c1.4,0,2.9-0.5,4.3,0.4
		c1.9-0.7,4.1,0.4,5.8-1.2c1.1,1.2,2.1,1.9,4,1.2c2.1-0.7,4.6-0.4,6.9-0.4c1.8,0,3.6,0.2,5.7,0.3c0.8,1.5,2.5,2.3,4.1,3.2
		c-0.3,1.6-1.2,2.4-2.7,2.6c-1.1,0.1-2.2,0.3-3.3,0.3c-3.9,0-7.8,0.1-11.7-0.1c-2.2-0.1-4.4,0.3-6.6,0.2c-5.9-0.4-11.7,0.1-17.5,0.2
		c-2.6,0-5.2,0.9-7.8,1.5c-0.7,0.1-1.4,0.5-2.1,0.5c-3.3,0.2-6.5,0.3-9.8,0.6c-4.1,0.3-8.3,0.4-12.2,2.1c-0.5,0.2-1.2,0.5-1.7,0.5
		c-3.5-0.4-7,0.4-10.5,0.6c-7,0.3-13.9,0.6-20.8,1.1c-5.8,0.5-11.6,0.7-17.5,0.5c-4.7-0.1-9.2-0.9-13.7-1.8c-3-0.6-6-1-9-1.3
		c-3.4-0.3-6.8-0.8-10.1-1.4c-6.5-1.3-13-2-19.6-2.8c-2.5-0.3-5.1-0.7-7.5,0.6c-0.3,0.2-0.7,0.1-1.1,0.1c-6.8-0.3-13.6,0.4-20.5,0.8
		c-0.9,0.1-1.7,0.3-2.6,0.2c-3.6-0.7-7.3-0.4-10.9-0.1c-3.2,0.3-6.2-0.4-9.3-0.1c-2.5,0.2-5.1,0.4-7.5,1c-1.6,0.4-3.3,0.7-5,0.6
		c-2.3,0-4.6-0.1-6.9,0.4c-1.2,0.2-2.4,0.4-3.6-0.2c-0.6-0.3-1.2,0.1-1.6,0.5l0.1,0c-0.7-0.6-1.5-0.6-2.4-0.3
		c-2.4,0.8-4.7,0.7-7.2,0.3c-1.1-0.2-2.2-0.9-3.2,0.5c-0.5,0.7-1.9,0.3-2.8,0.1c-2.3-0.4-4.6-0.6-6.8,0.6c-0.6,0.3-1.4,0.2-2.2,0.3
		c-9.4,0.5-18.8,1.4-28.2,0.6c-1.5-0.1-2.9-0.2-4.4,0.2c-0.4,0.1-0.8,0.2-1.1,0.1c-4.4-1-8.8,0.2-13.1,0.2c-4.3,0-8.5,0.5-12.8,0.7
		c-1.6,0.1-3.2-0.2-4.7-0.5c-5.1-1.1-10.2-2-15.5-1.4c-1.5,0.2-2.9,0.1-4.2-0.8c-1.2-0.8-2.5-0.7-4-0.7c-1,1.8-0.3,3.8-0.9,5.7
		c-1,3.2-1.1,6.7-1.4,10.1c-0.2,1.9-0.3,3.8-0.3,5.8c0.1,4-0.4,8-0.8,12c-0.4,4.6-0.7,9.2-0.7,13.5c-0.6,1.1-1.4,0.7-2.1,0.8
		c-0.8,0.1-0.7,1.4-1.7,1.2c-0.9-0.2-1.3-1-1.4-1.9c-0.3-3-1.2-6-0.5-9.1c0.1-0.5,0.2-1.1,0-1.4c-1.3-1.8-0.7-3.8-0.8-5.7
		c-0.1-2.3,0.6-4.5,0.1-6.9c-0.2-1.1,0.5-2.1,0.9-3.1c0.3-0.8,0.5-1.9-0.2-2.4c-1.1-0.8-1-1.8-1-2.9c-0.1-3.5,0-7.1,0.7-10.6
		c0.3-1.5,0.5-3.1,0-4.8c-2.3,0.1-4.6,0.4-6.9,0.4c-4.4-0.2-8.7,0.1-13.1,0.4c-1.7,0.1-3.3,0.6-5,0.8c-3.1,0.5-6.2,0.8-9.3,0.4
		c-1.1-0.1-2.1,0.1-3.2,0.3c-1.9,0.3-3.8,0.8-5.8,0.4c-2.2-0.4-4.4,0.5-6.6,0c-2.6-0.6-5.2-0.8-7.7,0.4c-0.6,0.3-1.5,0.3-2.2,0.3
		c-2.7-0.3-5.3,0.3-8,1c-1.9,0.5-3.8,0.8-5.8,0.7c-2.2-0.1-4.4,0.3-6.6,0.6c-1.3,0.2-2.4,0-3.3-1c-0.4-0.2-0.8-0.8-1.2,0
		C530.4,51.2,530.8,51.1,531.2,50.8z M773.3,15.5c-1.7-0.3-3.3-0.6-5-0.7c-0.7,0-1.5,0.2-2,0.7c-2,1.8-4.5,3.1-5.9,5.6
		c-0.8,1.4-1.9,2.5-2.7,3.9c-0.8,1.4-1.1,3-2,4.5c-1.1,1.7-2.2,3.5-2.8,5.5c-0.1,0.4-0.5,0.8-0.9,1.2c-0.5,0.5-1,0.7-1.7-0.1
		c2.9-7.4,6.3-14.7,11.4-21.2c-4-0.6-4.6-0.4-6.1,2.5c-1.2,2.3-2.3,4.5-3.5,6.8c-0.5,0.8-1.7,1.1-2.2,0.6c-0.6-0.6-0.7-1.2-0.3-2
		c0.9-1.6,1.7-3.2,2.5-4.8c0.4-0.8,1-1.7,0.4-2.9c-1.6-0.2-3.2-0.5-5,0.5c1,1.6,0.3,3.2-0.3,4.6c-1.1,2.6,0,5.4-1.1,7.9
		c0.9,2.5,0.4,5,0.1,7.5c-0.1,1.1-0.2,2.1,0,3c1,0.2,1.9-0.4,2.6,0.5c0.8,1.2,2.1,1.1,3.3,1c4.9-0.2,9.7-0.4,14.6-0.5
		c3.2-0.1,6.3-0.3,9.5-0.3c4.7,0,9.5,0.1,14.2-0.9c0.8-1.6,1.2-3.4,2.3-4.6c2.6-2.8,4.1-6.3,6.4-9.3c2.3-3,4-6.3,6-9.5
		c0.2-0.3,0.1-0.7-0.3-1.2c-1.6,0-3.3,0-5,0c-2.2-0.1-3.8,0.8-4.7,2.8c-0.6,1.5-1.6,2.6-2.8,3.7c-1.8,1.7-3.3,3.9-4.6,6
		c-0.8,1.3-1.4,2.6-2.7,3.6c-1.8,1.3-2.5,3.5-2.5,5.7c-1.9,0.2-1.9,0.2-3.4-1.1c1.3-2.1,2.4-4.4,4.1-6.4c1.5-1.6,3-3.2,4.1-5.1
		c1.3-2.2,2.8-4.3,4.1-6.5c0.5-0.8,1.5-1.4,1.3-2.7c-1.3-0.4-2.6,0-3.9-0.1c-1.6-0.1-2.7,0.7-3.6,2.1c-1.3,2.2-2.7,4.3-4.6,6.1
		c-0.4,0.4-0.9,0.9-1.1,1.5c-0.9,2.2-2.7,3.8-4.2,5.4c-1.4,1.4-2.2,2.8-2.6,4.6c0,0.2-0.3,0.4-0.5,0.6c-1,0.1-2,0.9-3.1-0.1
		c0.9-2.8,2.3-5.2,4.4-7.4c1.8-1.8,3.7-3.6,4.7-6c0.7-1.7,1.8-3.2,3-4.5c0.4-0.5,0.8-0.9,0.2-1.7c-1.2,0.1-2.5,0.2-3.4,0.3
		c-1.5,0.8-1.8,2.1-2.5,3.1c-0.9,1.4-1.7,2.9-3.1,4c-1.2,1-2.2,2.2-2.9,3.7c-0.6,1.2-1.5,2.3-2.5,3.1c-1.2,1-2.6,1.8-3.6,3
		c-1.1,1.5-0.3,3.3-0.8,4.9c-1.4,0.6-1.4,0.6-3.1,0.6c-0.5-0.7-0.5-1.4,0-2c0.6-0.8,1.1-1.6,1.4-2.6c0.4-1.5,1.3-2.5,2.3-3.6
		c2-2.2,3.8-4.4,5.4-6.9C770.1,19.6,771.3,17.2,773.3,15.5C773.3,15.4,773.3,15.4,773.3,15.5z M432.6,16.7c-0.2-0.8-0.5-1.3-1.3-0.4
		C431.7,16.7,432.2,16.6,432.6,16.7c-1,1.3-2.7,0.2-3.9,0.9c-2.6,3.5-5.1,6.9-7.6,10.3c-0.5,0.6-1.2,0.7-1.9,0.1
		c-0.1-0.9,0.3-1.6,0.8-2.4c1.1-1.9,2.1-3.8,3.3-5.7c0.6-1,1-1.8,0.4-3c-0.5,0.1-1,0.3-1.4,0.4c-0.5,0.1-1,0-1.4-0.1
		c-2.8-0.4-3.6-0.1-4.8,2.5c-0.5,1.1-1,2.2-2.1,2.9c-0.8,0.5-1,1.4-1.5,2c-2,2.5-2.6,5.7-4.5,8.3c-1,1.4-2.4,3-2.5,4.8
		c-0.2,2.4-1.7,3.6-3,5.1c-1.1-0.3-1.3-0.9-1-1.7c1.1-2.4,2.2-4.9,3.2-7.3c0.7-1.7,1.9-3,3.6-3.6c0.2-3.5,1.5-6.3,3.6-8.8
		c1.1-1.3,1.7-2.7,0.7-4.5c-2,0.1-4-0.6-6,0.1c-1,1.6-1.3,3.3-1.8,4.9c-0.1,0.5-0.3,1.2-0.5,1.3c-1.8,0.5-1.8,2.1-2.2,3.4
		c-0.2,0.7-0.5,1.4-1.4,1.6c-0.7-0.4-0.9-1-0.7-1.8c0.7-2.3,1.4-4.7,2.2-7c0.3-1,0.8-2,0.1-3.2c-0.6-0.1-1.3-0.4-2-0.4
		c-3.9-0.3-5.6,1.4-5.5,5.3c0,0.3,0.4,0.7,0.4,1c-0.1,2.2,0.6,4.5-0.3,6.5c-0.7,1.7,0,2.4,1,3.3c-1.8,2-1.8,2.4,0.4,3.9
		c-1.8,0.1-1.7,1.2-1.7,2.3c0,2.7,0.4,5.4,1,8c0.4,1.6-0.3,3.5,0.9,4.9c0.2,0.1,0.5,0.3,0.7,0.3c4.5-0.2,9,0.1,13.5,0.3
		c1.7,0.1,3.4,0.6,5,0.3c4.7-0.7,9.4-1,14.2-0.7c6.1,0.4,12.2,0.5,18.3,0.7c2.8,0.1,5.7,0.5,8.4,0c3.4-0.7,6.8-0.9,10.2-0.4
		c7.2,1,14.4-0.4,21.6-0.3c1.9,0,3.8-0.7,5.7-0.2c0.5,0.1,1.2-0.1,1.8-0.2c5-0.5,9.9-1.5,14.9-1c0.7,0.1,1.6,0.2,2.1-0.3
		c1.3-1.2,2.9-0.9,4.5-1.2c2.7-0.4,5.4-1.2,8.2-0.7c0.2,0,0.5,0,0.7-0.1c2.4-1.5,5.2-1.3,7.8-1.8c1.7-0.3,3.4-0.6,5-0.9
		c1.8-0.4,3.6-1.1,5.4-0.5c1.9,0.6,3.1-1.3,4.9-0.9c0.8,0.1,1.7-0.4,2.5,0c1.9,0.9,3.8,0.4,5.7,0.2c1.5-0.2,2.9-0.3,4.4-0.4
		c1.2,0,2.4-0.1,3.7-1.2c0-1.7,0.2-3.7-0.1-5.5c-0.3-2,1.4-3.6,0.9-5.5c-2.5-0.2-2.2,2.3-3.2,3.4c-1.8-1.8-2.2-2.7-1-4.1
		c1.8-2,2.4-4.4,3.6-6.7c1.2-2.3,1.3-4.6,1.6-7c0.1-0.7,0.1-1.5-0.8-1.8c-1,0.2-1.9,0.6-2.4,1.5c-1.1,2.3-3.1,4.2-4,6.5
		c-1.4,3.7-3.7,6.8-5.1,10.5c-0.5,1.4-1.4,1.7-3,1.7c0.5-2.6,1.1-4.8,2-7.1c0.9-2.2,2.4-4,3.2-6.1c0.9-2.2,2.9-3.8,3.5-6.3
		c-1.7-0.1-3.1-0.2-4.5-0.3c-1.2,0.9-1.7,2.1-2.9,2.9c-1.3,0.8-1.1,2.6-1.5,4c-0.1,0.3-0.4,0.6-0.6,0.9c-1.7,3.7-4.6,6.5-7.3,9.4
		c-1.3,1.4-1.6,2.8-1.7,4.5c0,0.4-0.1,0.7-0.1,1.1c-1.4,1-2.9,1.9-4.4,0.5c-0.2-1.2,0.3-1.8,1-2.4c0.8-0.7,1.5-1.6,2-2.6
		c1.5-2.6,2.8-5.4,4.9-7.5c2.1-2.1,3.5-4.5,4.5-7.2c0.1-0.3,0.4-0.6,0.6-0.9c0.3-0.7,0.7-1.3,0.3-2.1c-1.2-0.8-2.5-0.5-3.8-0.1
		c-1.8,0.8-1.9,3.2-3.7,3.9c-2.1,0.8-1.7,3.2-3.1,4.5c-0.3,0.2-0.3,0.7-0.6,0.9c-1.5,0.7-2.7,1.7-3.1,3.3c-2.8,2.2-4.3,5.1-5,8.6
		c-0.3,1.4-1.4,1.8-2.9,1.6c-0.1-1.9,0.5-3.5,1.4-4.9c2.3-3.7,4.4-7.6,8-10.3c0.3-0.2,0.5-0.6,0.6-0.9c0.5-1.8,1.7-3.2,2.7-4.7
		c0.4-0.5,0.7-1,0.2-1.8c-2.2-0.6-4.4,0.7-6.6,0.6c-0.6,0.8-1.3,1.4-1.7,2.1c-1.3,2.7-3.2,4.9-5,7.1c-2.4,3-5,5.9-6.3,9.7
		c-0.7,2.2-2.2,4-2.4,6.3c-1.1,0.7-2,1.3-2.9,2c-0.6,0.4-1.1,0.4-1.7-0.3c0.9-2.4,2.4-4.6,3.3-7.1c1.1-2.8,3.7-4.8,4.4-7.8
		c1.7-1,1.7-3.2,3.1-4.3c1.3-1.1,2.8-2,2.3-4.1c0.8-1,1.3-2.1,1.6-3.2c0-0.2-0.1-0.4-0.2-0.6c-0.7-0.9-1.2,0.6-1.9,0.1
		c-0.9-0.2-0.3-1.8-1.8-1.7c-0.6,1.1-1.8,1.8-3.3,2c-0.1,0-0.1,0.4-0.2,0.6c0.8,0.6,2-0.4,2.6,0.8c-0.2,0.1-0.4,0.4-0.6,0.4
		c-2,0.1-3.4,0.7-4.4,2.6c-0.7,1.4-2.1,2.4-3.1,3.6c-0.5,0.5-1.1,1.1-1.4,1.7c-0.7,2.1-2.4,3.6-3.9,5.1c-1.1,1.1-1.8,2.3-2.2,3.7
		c-0.4,1.9-1.5,3.3-2.9,4.5c-0.5,0.5-1.3,0.9-1.3,1.7c0.1,1.7-1.4,2.2-2.2,3.1c-0.7,0.8-1.6,0.5-2-0.7c1.1-1.8,2.4-3.6,3.3-5.6
		c0.6-1.4,1.3-2.9,2.4-4c2.9-3,4.8-6.7,7.6-9.7c1.1-1.2,1.5-2.9,1.8-4.9c-1.6,0.3-2.8,0.6-4.2,0.8c-0.8-0.4-1.6-0.8-2.5-1.3
		c-0.5,0.5-0.9,0.9-1.4,1.3c-2.7,2.7-4.2,6.3-7.2,8.6c-0.4,0.3-0.5,1.1-0.8,1.6c-0.2,0.3-0.3,0.9-0.5,0.9c-2,0.2-1.8,2.1-2.5,3.2
		c-1.1,1.8-1.9,3.7-3.4,5.2c-1.3,1.3-2,2.7-1.5,4.8c-1.5,0.3-2.1,1.8-3.4,2.3c-0.7,0.3-1.4,0.5-2-0.5c0.7-1.7,1-3.8,2.2-5.3
		c2.3-2.9,3.7-6.3,6.2-9c0.7-0.8,1.4-1.7,2-2.6c1.7-2.8,3.6-5.4,5.8-7.9c0.4-0.5,0.8-0.9,0.4-1.6c-2.5-0.5-4.8-0.1-6.8,0.9
		c-3,3.2-4.7,7-7.8,9.9c-0.9,0.8-1.6,1.9-2,3c-1.2,2.8-3.4,4.9-4.9,7.5c-0.2,0.4-0.5,0.8-0.9,1.1c-0.9,0.6-1.6,0.5-2-0.9
		c1.7-2.7,3.5-5.6,4.9-8.7c0.1-0.2,0.3-0.4,0.5-0.6c2.2-1.5,3.2-4,4.8-5.9c1.2-1.5,2.7-3,3.6-5.2c-1.7-0.5-3.2-0.6-4.7-1.2
		c-1.2-0.5-2.4,0.2-3.2,1.2c-1.4,1.8-3.3,3.3-4.2,5.5c-4.8,4.8-8.3,10.4-11.7,16.2c0,0.9,0.7,1.6-0.1,2.9c-1,0.5-2.3,1.4-3.9,0.9
		c-0.1-0.4-0.2-0.7-0.1-0.8c1.3-2.5,2.3-5,3.4-7.6c1-2.3,2.1-4.7,4.6-5.9c0.4-0.2,0.6-0.7,0.9-1.1c1.7-2.8,3.5-5.6,5.9-7.9
		c0.6-0.5,1-1.1,0.6-2.1c-1.2-0.7-2.6-0.6-4.2-0.6c-0.5,0.5-1.1,1-1.4,1.6c-1.4,3-3.5,5.5-5.8,7.8c-1.3,1.3-2.4,2.7-3.4,4.3
		c-0.9,1.5-1.8,2.9-2.6,4.4c-0.8,1.5-2.6,2.2-3.4,3.6c-0.1,1,0.8,1.7-0.1,2.8c-0.9,0.2-2,1.6-3.3-0.1c0.3-1.5,1.3-2.6,2-3.9
		c0.6-0.9,1.4-1.8,1.7-2.8c0.8-2.9,2.7-5,4.6-7c2.6-2.7,4.7-5.6,6.6-8.7c0.4-0.6,1-1.1,0.6-2c-3.7-1.5-3.7-1.5-6.5,1.7
		c-0.2,0.2-0.4,0.3-0.6,0.5c-1.9,1.4-3.2,3.3-4.7,5.1c-0.9,1.1-1.7,2.2-3,2.6c-2,0.7-2.9,2.2-3.4,4c-0.4,1.5-1.3,2.6-2.3,3.7
		c-0.1,0.2-0.1,0.4-0.2,0.8c0.5,0.5,1.5,0.9,1.2,2.2c-1.4,2.2-3.2,3.9-5.9,4.3c-1.1-1-0.8-2-0.3-2.8c1.7-2.9,3-6,5.2-8.7
		c1.9-2.4,3.8-4.8,6-6.9c0.9-0.8,1.7-1.7,2.5-2.6c1.4-1.5,1.9-3.2,2-5.2c-1.9-0.3-3.2,1.1-4.7,0.7c-2.5,3.9-6.2,6.5-8.5,10.2
		c-0.6,1-1.6,1.7-2.9,1.8c-0.3-0.9-0.3-1.6,0-2.3c0.9-2,1.9-3.9,3.6-5.4c1.3-1.1,2.2-2.5,3-4c-3-1-4-1-5.9,1.4
		c-2.3,2.9-5.3,5.2-7,8.7c-1.8,3.8-4.5,7.2-7.2,10.5c-0.4,0.5-0.6,0.9-0.6,1.6c0.1,2.7-1.5,3.9-3.8,4.4c-0.8-2.1-0.8-2.4,0.5-3.5
		c0.6-0.5,1.5-0.8,1.8-1.7c0.7-2.4,2.8-4.1,3.4-6.4c0.7-2.4,3.7-3.2,3.8-6c2.5-2.5,3.5-6.1,6.2-8.4c0.2-0.2,0.2-0.7,0.2-1.1
		c-1-0.9-2.2-1.1-3.6-1.1c-1.4,0.9-3,1.8-4.5,2.8c-0.6,0.4-1,1.1-1.4,1.7c-1.5,2-2.8,4.3-4.6,6.1c-1.8,1.8-3.2,3.9-4.2,6.2
		c-0.1,0.2-0.3,0.4-0.5,0.5c-1.4,1.2-1.9,2.7-1.6,4.4c-1,0.7-2,0.7-3,0.8c-0.2,0-0.4-0.2-0.7-0.4c0.7-2.7,2-5.2,3.5-7.5
		c2.3-3.4,5.3-6.1,8-9c1.8-1.9,2.9-4.1,3.4-6.5C433.8,16.6,433.2,16.7,432.6,16.7z M388.7,51.1c0-2.3-0.3-4.4,0.1-6.4
		c0.8-3.7,0.1-7.5,0.8-11.2c0.3-1.5-0.5-3.2,0.3-4.7c-1.2-2.1-0.2-4,0.5-5.9c-0.2-1-1.7-1.2-1.1-2.5c0.5-1.1-1.2-1.7-0.7-2.9
		c0.4-0.9,0.1-1.9-0.4-2.8c-3.5-0.7-7-1-10.5-1c-4.1,0-8.3,0.5-12.4-0.7c-0.3-0.1-0.7-0.1-1.1-0.1c-3.5,0.3-7,0.4-10.5-0.3
		c-0.2,0-0.5,0-0.7,0c-6.7,0.7-13.3,0.6-20-0.1c-2.5-0.2-5.1-0.3-7.6,0c-1.8,0.2-3.6,0.1-5.5,0.1c-1.4-0.1-2.8-0.4-4.3,0.2
		c-1.3,0.5-2.6,0.2-3.7-0.9c-0.1-0.2-0.4-0.2-0.6-0.3c-1,0-1.8,1.5-3,0.3c0.3-0.3,0.5-0.5,0.7-0.8c0.2-0.3,0.5-0.6,0.2-0.9
		c-0.3-0.4-0.8-0.6-1.3-0.6c-1.4,0.1-4.5,1.4-5.9,2.5c-0.5,0.4-1,0.6-1.7,0.6c-1,0-1.9,0.2-2.8,0.6c-0.9,0.4-1.8,0.5-2.8,0
		c-0.4-0.2-1-0.3-1.4-0.2c-3.1,0.6-6.2,0.6-9.4,0c-0.9,1.4-2,1.8-3.7,1.4c-1.8-0.4-3.8,0.3-5.6,0.1c-2.1-0.2-3.8,1.8-5.9,0.8
		c-3.8,1-7.7,0.8-11.5,1c-3.8,0.2-7.6,0.3-11.3,0.9c-6.3,0.9-12.6,1.2-18.9,0.8c-0.7,0-1.4-0.5-2.2,0.2c1.2,2,1.1,4.3,0.4,6.3
		c-1,2.7-2.3,5.3-1.3,8.2c0.1,0.2,0,0.5-0.1,0.7c-1,1.6-0.8,3.2-0.4,4.9c0.3,1.6-0.2,3.4,0.5,4.9c0.7,1.5,0.6,3.1,0.7,4.6
		c2.9,0.9,5.5,1.4,8.3,0.5c1.7-0.5,3.4-0.2,5.1-0.1c3.2,0.2,6.3,0.7,9.5,0.8c7.2,0.3,14.3-0.4,21.5-1.2c3-0.3,6-1,9.1-0.4
		c0.6,0.1,1.2,0,1.8-0.2c2.7-0.6,5.3-0.5,8-0.1c4.1,0.6,8.2,1.3,12.4,1.3c1,0,2,0.2,2.9,0.5c2.3,0.9,4.8,0.8,7.2,0.9
		c5,0.3,10-0.2,15,0.3c2.6,0.3,5.3,0.7,8,0.5c2.3-0.2,4.6-0.1,6.9-0.1c8.5,0.2,17,0.3,25.5,0.3c6.2,0,12.4-0.2,18.6,0.6
		C386,51.9,387.3,51.7,388.7,51.1z M162.6,40.8c-0.8-0.6-1.5-0.8-1.6-1.7c-0.1-0.9,0-1.7,0.5-2.4c0.6-0.8,1.5-1.4,1.8-2.2
		c0.8-2,2.3-3.3,3.9-4.7c1.2-1,2.3-2.2,2.9-3.7c0.7-1.9,2.1-3.1,4-4.1c1.9-1,3.5-2.6,3.5-5.1c-1.4-0.6-2.9-0.4-4.3-0.9
		c-2.1-0.7-3-0.3-4.1,1.8c-0.7,1.2-1.4,2.4-2.5,3.1c-2.7,1.8-4.4,4.5-6.1,7c-2.1,3.1-4.6,5.9-6.4,9.3c-0.8,1.5-1.6,3-2.9,4.2
		c-0.2,0.2-0.2,0.4,0.2,0.7c0.5,0.2,1.4-1.2,1.9,0.2c-1.6,1.8-1.6,1.9-3.7,2.6c-0.6-0.2-1.1-0.5-1.3-1.4c0.5-0.7,1.2-1.4,1.5-2.2
		c2.2-4.8,4.8-9.3,7.5-13.7c0.9-1.4,1.6-3,3.5-3.5c0.8-0.2,1.6-1.2,2-2c1-1.9,2.4-3.6,2.7-5.9c-0.4-0.9-1.1-1.3-2.1-1.1
		c-1.1,0.2-2.5,0.1-2.9,1.2c-0.7,1.7-2.8,2.2-3.2,3.9c-0.8-0.2-1.3-0.8-2.1-0.4c-2.2,3.6-4.9,7-7.6,10.5c-0.6,0.8-0.7,2.2-2,2.5
		c-1.3,2.5-3.8,4.6-2.6,7.8c-1.2,0.6-2,1.8-3.5,0.8c0.3-1.3,0.4-2.7,0.9-3.8c1.2-2.5,2.7-4.9,4.1-7.4c0.2-0.3,0.5-0.5,0.8-0.7
		c1.9-0.9,2.8-2.7,3.7-4.4c0.4-0.8,0.6-1.6,1.2-2.2c1.9-1.7,2.6-4.3,4.5-5.9c-1.6-2-2.1-2.1-3.7-1.2c-1.4,0.8-1.9,2.1-2.8,3.3
		c-1.6,2.2-2.4,5.1-5.2,6.3c-0.3,0.1-0.5,0.5-0.8,0.8c-3,3.4-5.3,7.2-7.4,10.8c0,0.9,0.8,1.4,0.1,2.2c-1.1,0.5-2.3,0.8-3.5,0.3
		c-0.6-1-0.3-1.9,0-2.6c0.7-1.4,1.7-2.7,2.2-4.2c0.7-2.1,2-3.2,4-3.4c1.6-2,2.6-4.2,3.5-6.3c0.9-2.3,3.2-3.6,3.9-6.1
		c-1-0.2-2-0.4-2.9-0.7c-2.3-0.5-4,0.2-5.4,2.1c-1.7,2.3-3.8,4.4-4.9,7.1c-0.9,0.5-2.1,0.1-2.7,1.1c-1.8,3-4.1,5.8-4.7,9.4
		c-0.9,0.5-1.5,1.6-2.7,1.4c-1-0.5-1.3-1.4-0.7-2.2c0.9-1.3,1.5-2.8,2.9-3.8c1-0.7,1.9-1.7,2.1-2.9c0.3-1.6,1.2-2.7,2-3.9
		c1.5-2.4,3.1-4.7,4.8-6.9c0.7-0.9,0.9-1.7,0.5-2.9c-1.1,0.9-2.2,1.3-3.6,1.1c-0.9-0.2-2,0.1-2.8,0.8c-2.3,2-4.8,3.8-5.8,6.9
		c-0.2,0.8-0.7,1.2-1.3,1.6c-1.7,1.3-3.2,2.7-4,4.8c-0.8,2-1.7,4-2.7,6c-0.8,1.6-2,1.6-3.4,0.3c0.5-1.2,0.7-2.9,1.7-3.5
		c2.7-1.8,3.2-4.8,4.4-7.3c1.2-2.5,2.3-5,4.1-7.2c0.1-0.1,0-0.4-0.1-0.7c-1,0-1.9,0-2.8,0c-1.7,1.2-2.9,2.7-3.6,4.6
		c-0.8,1.9-2.7,3.1-3.4,5.2c-2.5,0.8-2.5,3.7-4.2,5.3c-0.5,0.5-0.8,1.2-0.7,2c0.1,2.5-1.9,3.5-3.6,4.7c-1,0.7-1.7,0.3-2.5-1.2
		c-0.1-1.1,1-1.2,1.2-1.9c0.7-2,2-3.6,3.8-4.8c0.6-0.4,1.3-1.1,0.9-2.2c-0.2-0.5,0.2-0.9,0.6-1.2c0.9-0.6,1.1-1.6,1.3-2.5
		c0.5-2.1,1.3-3.9,2.6-5.6c0.3-0.5,0.8-1,0.4-1.7c-1.3-0.5-2.5,0.2-3.6,0.3c-0.6,0.7-0.4,1.9-1.3,1.9c-1.2,0-1.6,0.9-2.4,1.5
		c-2.1,1.6-3.9,3.5-6.2,4.8c-0.2-1.4-0.1-2.4,0.9-3.7c1-1.2,2.1-2.7,2.4-4.4c-1.6-0.5-3,0.1-4.5,0c-0.8-0.1-1.7-0.1-2.4,0.5
		c-0.9,0.8,0,1.9-0.2,2.2c-2.5,2.9-5.5,3.8-8.3,6c0.5-3.2,1.9-5.6,4-8.2c-3.1,0.3-5.6,0.5-8,0.7c-1.1,0.9-2.1,1.9-3.2,2.6
		c-3,1.9-3.1,1.9-4,4.5c-0.8,0.2-1.4-0.2-2-0.7c0.3-0.9,0.4-1.8,0.9-2.7c0.4-0.8,1.1-1.3,1.5-2c0.5-0.7,1-1.4,0.2-2.4
		c-1.5,0.2-3,0.4-4.6,0.6c-1.2,0.8-1.5,2.5-3,3c-2.5,0.8-4.7,2-6.2,4.2c-0.2,0.2-0.6,0.4-1,0.1c-0.7-1.7,0.4-2.7,1.6-3.6
		c1.6-1.1,1.9-2.6,1.8-4.6c-2.6,0.8-4.1,4.1-7.2,2.4c-1.9,1.4-3.2,2.9-3.8,5.2c-0.4,1.6-0.6,3.1-0.8,4.8c-0.2,1.7-0.9,3.2,0.7,4.6
		c0.2,0.2,0.3,0.7,0.2,1c-0.5,1.4,0.4,2.8-0.1,4.3c-0.3,0.9,0,1.9,0.5,2.4c1.2,1.5,1.7,3.5,3.4,4.9c1.4-0.8,3-0.4,4.4,0.2
		c1,0.5,2,0.7,3.2,0.6c1.2-0.1,2.4,0.1,3.6,0.2c1.1,0.1,2.3,0.5,3.3,0.2c3.6-0.9,7.3-0.2,10.9-0.2c4.4,0,8.7-0.6,13.1-0.2
		c2.6,0.2,5.1-0.7,7.6-0.7c2.9-0.1,5.9-0.1,8.8-0.3c1-0.1,1.9,0,2.9,0.2c4.3,1,8.7,0.6,13.1,1.1c2.6,0.3,5.3-0.3,8-0.5
		c1.6-0.1,3.2-0.2,4.7-0.1c3.6,0.1,7.3,0.1,10.9,0.4c2.6,0.2,5.2,0.1,7.6,0.5c2.7,0.4,5.3,0.4,8,0.1c2.5-0.2,5.1-0.4,7.7-0.1
		c1.9,0.2,3.9,0.3,5.8,0.5c5.6,0.6,11.2-0.5,16.8-0.3c5.3,0.2,10.7-0.3,16-0.7c2-0.2,4.1,0.3,6.4-0.7c-0.8-2.1,0.1-4.1,0.1-6.1
		c0.2-3.6,0.2-4.4-0.6-6.4c-2.6,1.9-2,6-5,7.8c-1.3-1.9-1-3.6-0.2-5.3c0.3-0.6,1-1.1,1.2-1.8c0.9-3,2.7-5.4,4.9-7.9
		c-1.4-2.7,0.9-5.5,0.3-8.6c-1.4,0.7-1.6,2.1-2.1,3.1c-0.7,1.4-1.4,3-2.6,3.9c-1.6,1.1-2.4,2.7-3.1,4.4c-0.7,1.7-1.6,3.2-2.9,4.6
		c-0.6,0.6-1.3,1.1-1.4,2.1c0.1,0.7,1,1.1,0.6,2.2c-1.2,0.6-2,1.8-2.9,2.9c-0.6,0.8-1.4,0.9-2.2,0c-0.1-1.7,0.5-3.3,1.5-4.7
		c0.5-0.7,1-1.3,1.3-2.2c0.9-2.7,2.4-5.1,4.4-7.1c0.8-0.8,1.5-1.8,1.6-2.8c0.2-2.2,1.5-3.8,2.6-5.6c0.5-0.8,1.4-1.4,1.3-2.5
		c-1.2-0.6-2.3-1.4-3.8-0.7c-0.3,0.4-0.6,0.7-0.8,1.1c-1,1.9-1.7,4.1-3.1,5.8c-1.4,1.6-2.9,3.1-4.2,4.8c-1.8,2.4-3.5,4.9-5.6,7.1
		c-0.3,0.3-0.5,0.8-0.5,0.9c-0.1,1.2,1.2,1.6,0.7,2.7c-1.1,0.5-2.3,1-3.5,1.5c-0.4-0.4-0.8-0.7-1.2-1.1c0.9-3,2.9-5.3,4.7-7.7
		c1.3-1.7,3.3-3.1,3.9-5.2c0.5-1.5,1.2-2.5,2-3.8c1-1.5,2-3.1,3.1-4.5c0.4-0.5,0.5-1.1,0.2-1.8c-2.1-0.1-4.3-0.6-6.6,0.2
		c-1,2.2-2.4,4.1-4.1,5.8c-0.4,0.4-0.7,1-1.1,1.5c-0.8,1.2-1.2,2.6-3,3c-0.5,0.1-1.1,1.1-1.2,1.7c-0.2,1-0.8,1.8-1.1,2.7
		c-1.2,2.9-3.5,5.1-3.8,8.5c-0.1,1.6-1.5,1.9-3.7,1.1c1.1-1,1.1-2.4,1.6-3.5c1-2.3,1.9-4.6,3-6.9c0.2-0.3,0.4-0.7,0.7-0.8
		c2-1.1,2.7-3.2,3.2-5.1c0.6-2.1,2-3.6,3.4-5.1c0.6-0.6,1.3-1.1,1.7-1.9c0.2-0.4,0.2-0.7-0.1-1.2c-0.8-0.3-1.7-0.6-2.8-1
		c-0.9,1.1-2,2.2-2.7,3.4c-1.5,2.7-3.9,4.8-6,6.8c-1.4,1.4-2.8,2.6-3.6,4.5c-0.9,2.2-2.4,3.9-4.2,5.3c-0.1,0.1-0.1,0.4-0.2,0.6
		c0.1,0.5,0.5,0.4,0.8,0.5c0.5,0,0.9,0.2,1.1,0.8c-2.2,2.2-3.2,2.4-5.5,1.1c-0.3-1,0.3-1.6,0.8-2.3c0.7-1,1.6-1.9,2.1-3
		c1-2.2,2.4-3.9,4.1-5.6c0.9-0.9,2.3-1.6,2.7-2.9c0.8-3,2.8-5.3,4.8-7.6c0.3-0.4,0.7-0.7,0.4-1.4c-1.6,0-3.2,0-4.9,0
		c-2.2,2.5-3.9,5.4-6.5,7.4c-1.8,1.4-3.2,3.1-4.5,4.8c-1.2,1.6-2.4,3.1-3.9,4.2c-1.2,0.8-1.1,1.9-1.4,3.1c1-0.1,1.6-0.7,2.3-1.3
		c0.5-0.5,1.1-0.6,1.4,0.4C168,38,165.2,39,162.6,40.8z M634.5,10.9c-0.4,0.5-0.9,0.9-1.1,1.5c-1,2.4-2.6,4.4-3.7,6.7
		c-1.9,3.8-3.7,7.7-4.4,11.9c-0.6,3.7-0.5,7.4,0,11.2c1.5-0.1,2.8-0.2,4.1,0c6.3,0.6,12.6,0.9,18.9,1.6c6.9,0.7,13.9,0.5,20.8,0.2
		c3.2-0.1,6.3-0.7,9.5-0.5c5.1,0.3,10.2,0.4,15.3,0.3c3.7,0,7.3-0.5,11-0.7c3.8-0.3,7.6-0.7,11.3-0.8c4.6-0.1,9.2,0.4,13.8-0.8
		c0.5-0.1,1-0.1,1.5-0.2c2.4-0.3,4.8-0.5,7.3-0.8c0.9-0.1,1.7-0.2,2.2-1.2c0.2-2-0.4-4.1,0.4-6.1c-1.3-2.4,0-4.5,0.7-6.6
		c0.1-0.2,0-0.5,0-0.7c-0.3-0.1-0.7-0.2-1.1-0.4c-0.1-1.5-0.6-3,1.2-4.1c0.6-0.4,0.5-1.4,0.3-2.1c-0.6-1.5-0.7-3-0.9-4.7
		c-1.3-0.1-2.3-0.1-3.4-0.3c-3.1-0.4-6-0.4-9,0.5c-3,0.9-6.2,1.1-9.4,0.7c-5.6-0.7-11.2-0.9-16.8,0.4c-1.2,0.3-2.4,0.4-3.6,0.1
		c-3.8-0.9-7.8-1-11.6-1.7c-2.9-0.5-6.1-0.2-8.8-2c-0.1,1.5-1.2,2-2.2,1.5c-1.3-0.6-2.5-0.4-3.8-0.3c-1.8,0.1-3.6-0.1-5.4-0.1
		c-0.6,0-0.9-0.3-1.1-0.8c0-1.3,1.4-0.5,2-1.3c-1.8-0.9-2.7,0-3.5,1.4c-2,0.1-4.2,0.2-6.1-0.4c-2.3-0.8-4.6-1.2-7-1.2
		c-1.5,0-2.9-0.3-4.3-0.6c-0.7,0.4-1.1,1.1-2.2,1.1c-2.5,0-5.1,0.2-7.6-0.5C636.8,10.6,635.8,10.5,634.5,10.9z M836.2,13.5
		c-0.5-0.6-1-0.6-1.6-0.2c-0.7,0.4-1.5,1.4-2.1,1.3c-1.3-0.1-2.1,0.3-2.5,1.4c-0.5,1.2-1.9,1.3-2.5,2.5c-1.9,4.4-4.5,8.3-7.7,11.8
		c-1.9,2-3.4,4.2-2.7,7.2c-1.4,0.6-2.3,0-2.9-0.9c-0.7-1-0.6-2.1,0-3.1c1.8-2.6,3.7-5.2,5.6-7.6c1.3-1.6,2.4-3.3,3.4-5.2
		c1.1-2.1,2.2-4.4,4.2-5.8c0.2-0.1,0.1-0.6,0.2-1.1c-2.3-0.1-4.5-0.2-6.6,0.1c-2.2,3.1-5.5,5.2-6.9,8.9c-0.1,0.3-0.5,0.6-0.8,0.8
		c-1.3,1-2.1,2.4-3.1,3.6c-0.8,1.1-1.3,2.7-3.1,2.8c-0.6,0.1-0.8,0.8-1.1,1.4c-0.5,0.8-0.7,1.8-1.4,2.5c-1.9,2-1.8,2,0.2,4.5
		c3.9,0.2,8-0.5,11.9,0.5c0.5,0.1,1,0.1,1.5,0c3.7-0.8,7.3-0.6,10.9,0.5c4.1,1.2,8.5-0.3,12.4,1.9c0.1,0.1,0.2,0,0.5,0.1
		c0.6-0.3,1.4-0.6,2.4-1.1c1.2,0.8,2.5,1,4,0.2c0.6-0.3,1.5-0.4,2.1-0.2c2.2,0.9,4.7-0.2,6.8,1.2c0.2,0.1,0.7-0.1,1-0.2
		c0.3-0.1,0.9-0.3,1-0.2c1.7,2,3.5,0.7,5.2,0.2c0.5-0.1,1-0.2,1.4,0.1c1.3,0.9,2.7,0.8,4.2,0.4c0.8-0.2,1.6-0.4,2.5,0.1
		c0.5,0.3,1.3,0.5,1.7,0c1-1.2,2.1-1,3.3-0.6c1.6,0.5,3.1,0,4.5-0.6c2.4-3.8,4.4-7.8,7.4-11c1.4-1.4,2.5-3,3.5-4.6
		c1.2-1.9,2.6-3.6,4.1-5.2c1.7-1.8,2.9-4.1,4.7-5.8c0.6-0.6,1.1-1.3,1.1-2.3c-3-1.5-4.4-1.2-6,1.5c-1.2,2-2.6,3.9-4.5,5.2
		c-1.1,0.7-1.7,1.7-2.5,2.6c-1.2,1.4-1.5,3.5-2.8,4.6c-2,1.7-2.6,4.8-5.5,5.8c-0.3,0.1-0.5,0.8-0.6,1.2c-0.2,0.8-0.5,1.6-1.2,1.8
		c-1.4,0.5-0.4,1.7-1,2.6c-0.4,0.1-1,0.4-1.6,0.5c-0.7,0.1-1.3,0.9-2.2,0.1c-0.1-0.2-0.3-0.6-0.2-0.9c0.8-1.6,1.5-3.4,2.7-4.7
		c3.5-3.6,6.1-7.9,9.3-11.6c0.7-0.8,0.9-2,1.9-2.6c1-0.6,2-1.4,2.3-2.7c0.3-1.4,2.2-1.6,2.4-3c0-0.1-0.1-0.2-0.1-0.4
		c-0.8-0.8-1.8-0.5-2.7-0.4c-1,0.1-2-0.3-2.9,0.3c-2.3,2.2-3.4,5.6-6.7,7c0,1.3-0.4,2.6-1.5,3.5c-1.7,1.4-2.9,3.3-4.4,4.8
		c-2.1,2-3.7,4.1-4.2,6.9c-1.7,0.6-3.2,1.4-5,0.9c-0.8-3.2,1.7-3.7,3.2-4.6c4.4-6.6,10.4-11.6,14-18.3c-0.3-0.6-0.8-0.7-1.3-0.8
		c-3.9-1-5.6-0.3-8.2,2.8c-1.4,1.8-3.1,3.4-4.8,4.9c-0.9,0.8-1.6,1.4-1.7,2.6c-0.1,0.8-0.6,1.3-1.4,1.5c-0.6,0.1-1.1,0.5-1.5,0.9
		c-1,1.2-0.6,2.9-1.5,4.1c-0.9,1.2-3,1.3-3.2,3.3c0,0.4-0.5,0.8-0.8,1.2c-0.4,0.4-0.8,0.9-1.7,0.5c-0.3-0.9,0-1.8,0.6-2.6
		c1.7-2.5,3.2-5.2,5.1-7.5c2.5-3,4.1-6.6,7.1-9.2c0.3-0.2,0.4-0.6,0.6-0.9c0.3-0.6,0.9-1.2,0.1-2.1c-2.3,0.3-4.7-0.5-7.1,0.2
		c0,2.5-1.3,4.3-2.9,5.8c-2.8,2.7-5.5,5.4-7.4,8.9c-0.3,0.6-0.9,1.2-1.5,1.6c-2.6,1.5-4.1,3.7-4.8,6.6c-0.4,1.7-1.7,2.8-3,3.7
		c-1-1.2-1.3-2.4-0.7-3.6c0.6-1.3,1.1-2.8,2.3-3.7c1.2-0.9,1.9-2.2,2.7-3.4c2-2.8,4.1-5.4,6.2-8.1c1.6-0.3,1.5-2.1,2.6-2.9
		c1.1-0.9,2.1-2,3.1-3.1c0.2-0.2,0.2-0.7,0.3-1.3c-1.8,0.1-3.4,0.3-5,0.4c-1.8,1.8-2.8,4.3-5.4,4.9c-0.2,0.1-0.5,0.5-0.5,0.9
		c-0.1,0.9-0.6,1.6-1.4,2c-0.8,0.4-1.3,1-1.6,1.9c-0.7,2.1-2,3.6-4.6,3.5c-0.4,2.5-1.3,4.6-3,6.2c-1.6,1.6-2,4.3-4.6,4.9
		c-0.6-0.6-1-1.4-0.9-2.2c1.5-1.9,3.2-3.5,4.2-5.5c1.1-2.2,2.5-4.2,4.2-5.9c1.1-1,2.1-2.1,3-3.2c1.5-2,3.1-4.1,4.6-6.1
		c0.4-0.5,0.9-0.8,0.2-1.9c-2.2,1.2-4.8-0.4-7.2,1.1c-0.6,1.5-0.9,3.3-2.7,4.1c-0.4,0.2-0.6,0.8-0.8,1.2c-0.8,1.4-1.6,2.7-3.3,3.2
		c-0.8,0.2-1.1,1-1.3,1.6c-0.3,0.9-0.9,1.7-1.4,2.5c-1.4,2.6-3.6,4.8-3.5,7.9c-1.3,0.7-2.3,1.2-3.4,1.8c-1.4-1.3-1.5-1.6-0.6-2.7
		c1.3-1.6,2.8-3,2.9-5.3c0-0.5,0.7-1,1-1.5c2.1-3.3,4.1-6.6,6.2-9.9C836,14.9,836.5,14.4,836.2,13.5z M572.4,16.2
		c-0.6,1.4,0.6,2.1,0.3,3.1c-0.6,2.2-0.9,4.5-0.5,6.7c0.5,3-1.1,6-0.3,9c0.1,0.3-0.4,0.6-0.4,1c-0.1,0.5-0.3,1-0.2,1.4
		c0.4,1.5,0.9,3,1.5,4.8c6.9-0.3,13.8-1.1,20.7-1.1c7,0,14,0.3,20.9,0.5c0.6-0.9,0.3-1.7,0.2-2.6c-0.2-1.3-0.5-2.7-0.5-4
		c-0.1-4.2,0-8.5,0-12.7c0-1,0.1-2-0.4-2.9c-1.3-2.7-2.8-5.4-4.4-7.7c-1.1-0.6-2.2-0.4-3.1-0.6c-0.8-0.1-1.4,0-2.1,0.3
		c-0.5,0.2-1,0.2-1.4-0.2c-0.5-0.4-1-0.4-1.7-0.2c-1.5,0.6-3.1,0.5-4.6,0.8c-3,0.5-6.1,0-9,0.8c-1.3,0.4-2.7,0.7-3.9,0.3
		c-1.7-0.5-3.2-0.2-4.9-0.2C575.6,13,573.7,14.2,572.4,16.2z M904.1,40.2c0.4-1.9,1.2-3.6,2.6-5.1c1-1,0.8-2.9,1.9-3.5
		c1.5-0.8,1.6-2.4,2.4-3.4c2-2.4,3-5.5,4.9-8c1.8-2.4,3.7-5.3,2.1-8.7c-0.9-0.2-1.8-0.1-2.2,0.8c-0.5,1.1-1.3,2-2,2.9
		c-1,1.4-2.5,2.4-3.2,3.8c-0.7,1.4-1.9,2.1-2.8,3.2c-0.9,1.1-1.3,2.6-2,3.9c-0.4,0.7-1,1.5-1.7,1.9c-1.2,0.6-1.7,1.6-2.4,2.6
		c-1.3,1.9-2.7,3.7-4,5.6c-1.1,1.6-1.6,3.2-0.9,5.3C899.2,40.5,901.7,41.1,904.1,40.2z M891.7,41.8c1.1-1.4,2.1-2.3,2.7-3.5
		c1.4-2.6,2.6-5.4,4.6-7.7c0.8-0.9,1.2-2.1,2.4-2.7c0.5-0.2,0.8-0.6,0.8-1.1c0.1-1.5,1-2.4,1.8-3.5c1.2-1.5,1.9-3.4,3.7-4.4
		c0.7-2.5,2.3-4.4,4.5-6.9c-2,0.5-3.2-0.2-4.7-0.4c-1.9,2.2-3.4,4.7-5.5,6.7c-4.1,4.2-6.7,9.7-10.9,14c-1,1-2,2.2-2.6,3.5
		c-1,2-1.7,4.2-3.8,5.7C887.4,42.5,889.5,40.4,891.7,41.8z M810.1,14.1c-0.7,0.8-1.6,1.5-2.1,2.4c-1.6,2.5-2.7,5.4-5.1,7.4
		c-0.4,0.4-0.6,1.1-0.9,1.6c-1.4,2.1-2.3,4.4-4.2,6.3c-1.7,1.7-3.2,3.9-2.4,6.9c2.2-0.2,4.3-0.4,6.7-0.6c-0.9-2.4-0.1-4.3,1.2-5.9
		c1.7-2.2,3-4.7,5.3-6.4c0.5-0.4,1-1.1,1.3-1.7c1.1-3.3,3.5-5.8,5.7-8.4c0.4-0.5,0.8-0.9,0.4-1.8C814,13.8,812.1,14,810.1,14.1z
		 M906.9,40.3c2.8-0.4,5.2-0.2,7.8-1.1c-0.1-2.2,1.2-3.8,2.5-5.4c0.5-0.6,0.9-1.1,1.3-1.7c1-1.4,0.3-3.1,0.5-4.6
		c0.1-0.7-0.4-1.4-1.1-1.6c-1.2,0.3-2.2,0.8-3,1.9c-0.7,1.1-1.5,2.2-2.5,3.1C909.6,33.9,908,36.4,906.9,40.3z"/>
	<path class="st0" d="M72.4,99.8c-1.5-1.5-2.8-2.3-4.5-1.9c-1.2,0.2-2.1-0.4-2.6-0.6c-4-3.8-3.8-8.3-3.8-13.1
		c0.7-0.7,1.6-1.6,1.6-3.2c0-1.9,1.2-3.5,2.5-4.7c1.4-1.5,2.3-3.1,3.2-4.8c1.1-2.3,2.4-4.2,5.3-4.4c1.2-0.1,2.2-0.9,3.2-1.6
		c0.7-0.5,1.6-0.8,2.4-0.3c2.9,2,5.9,1,8.8,0.5c2,0.6,3.6,2,5.9,1.8c0.3,0,0.7,0.2,1,0.4c3.2,2.3,5.6,9,4.5,12.7
		c-0.1,0.2-0.2,0.5-0.3,0.7c-0.8,1.2-2.4,2.2-2.2,3.7c0.2,1.5-1.8,2-1.2,3.5c0.1,0.2-0.3,0.6-0.6,0.8c-0.9,0.7-1.5,1.7-2,2.5
		c-1.7,3.1-4.3,4.7-7.4,6c-2.6,1.1-5.3,0.8-7.9,0.9C76.3,99,74.3,98.6,72.4,99.8z M76.3,72.3c-0.3,2.1-1.6,3.9-2.4,5.8
		c-1,2.3-1.6,4.6-1.6,7.1c0,1.2-0.4,2.5,0.3,3.6c0.8,1.3-0.3,2.6,0.2,4.1c1.8,0.1,3.3-0.6,4.9-1.1c1.7-0.6,3.5-1.1,5.3-1.2
		c3.5-0.1,6.3-1.4,8.1-4.6c0.9-1.6,1.8-3.2,2.8-4.7c1.5-2.3,1.7-4.5,0.2-7.1c-1.4-0.2-2.3-1.3-3.3-2.4
		C86.1,72.2,81.5,71.2,76.3,72.3z"/>
	<path class="st0" d="M675.1,83.6c0.2-1.7,0.6-3,0.8-4.4c0.3-2,0.7-4.2,2.2-5.9c0.7-0.9,0.8-2.1,2.2-2.8c0.9-0.5,1.3-2,1.9-3
		c0.3-0.4,0.7-0.8,1.1-0.9c4.7-2.1,9.6-2.7,14.6-1.5c2.1,0.5,3.8,2.2,5.9,2.6c0.8,1.5,2.3,2.1,3.4,3.2c1.7,1.9,2.4,4.2,1.9,6.8
		c-0.3,1.8-0.7,3.6-1.3,5.3c-0.6,1.8-2.1,2.9-3.6,3.9c-2.1,1.4-4.3,2.7-5.7,4.8c-1.7,0.7-3.3,0.6-4.7,1.9c-2.1,1.8-5.2,1.7-7.9,2.3
		c-0.4,0.1-1-0.1-1.4-0.3c-2.9-1.5-5.6-3.5-7-6.5C676.7,87.3,675.6,85.6,675.1,83.6z M681.4,84.9c0.5,0.4,1.1,0.6,1.5,1
		c0.6,0.5,0.6,1.3,0.9,1.9c0.3,0.8,1.1,1.5,1.9,1.5c2.4,0.1,5.1,0,7-1.4c3-2.2,6.3-4,8.8-6.9c2.2-2.6,1.9-5.9-0.9-7.8
		c-0.9-0.6-2.1-0.8-2.9-1.4c-2.4-1.9-5-0.9-7.3-0.2c-2.2,0.7-4.2,2.3-6.1,3.9c-1.1,0.9-2.4,2.2-1.6,4.1c0.2,0.5-0.1,0.9-0.5,1.3
		C681.2,81.8,681.2,83.2,681.4,84.9z"/>
	<path class="st0" d="M672,74.7c2.4,1.7,0.7,4,1.7,5.5c-1.3,2.6-3.1,4.3-4.4,6.3c-1.2,1.8-3.4,2.9-5.3,4.2c-2.4,1.6-5.1,2.6-7.9,3.5
		c-2.1,0.7-4.2,0.8-6.5,0.3c-2.2-0.5-3.6-1.8-4.9-3.5c-0.5-0.6-0.8-1.3-0.5-2c0.8-1.8,0.3-3.6,0-5.4c-0.4-2.1,0-4.2,1-6
		c0.7-1.2,1.1-2.4,1.5-3.7c1.3-4.9,4.6-7.6,9.3-8.6c2.1-0.5,4.2-1.3,6.5-0.7c1.3,0.4,2.6,0.8,3.9,1.1c3.5,0.7,5.2,3.3,6.8,6.1
		C673.7,72.9,673.2,73.9,672,74.7z M650.6,77.5c0.6,2.6-0.5,4.9-1.7,7.2c1.1,1.3,2.5,1.3,3.8,1.2c4.9-0.2,9.3-1.7,12.9-5.3
		c1.4-1.4,2.1-2.8,2.2-4.8c0.1-2.4-1.7-4.5-4-4.2c-2,0.3-3.9-0.1-5.7-0.5c-2.5-0.5-3.7,0.6-4.7,2.4C652.7,74.8,652,76.2,650.6,77.5z
		"/>
	<path class="st0" d="M762.7,86.7c1.3-4.1,2.8-8.2,3.5-12.5c0.1-0.8,0.6-1.6,0.8-2.4c0.6-1.7,1.5-3.4,1.6-5.2
		c0.2-2.9,2.3-5.1,2.6-7.9c0.2-1.2,1.3-1.4,3.7-0.8c0.4,0.5,0.3,1.1,0.3,1.8c0,1.1,0.2,2.1,0.9,3.1c1.3,1.8,2.3,3.9,2.2,6.1
		c0,2.3,1.7,3.9,1.3,6.7c2.2-1.1,2.4-3,3.9-3.7c1.7-0.8,1.6-2.6,2.1-4c0.5-1.5,1.1-3,1.3-4.5c0.2-1.3,0.4-2.6,1.1-3.7
		c1.7-0.7,2.9,0.5,4,1.3c0.9,0.6,0.6,1.8,0.6,2.7c-0.1,4.3,0.3,8.5-0.3,12.8c-0.3,2.3-1,4.7-0.3,7.1c0.1,0.3,0,0.9-0.2,1
		c-2.3,1.4-0.9,2.8,0,4.3c-1.2,1.5-2.9,1.6-4.6,1.5c-1.7-0.1-2-0.8-2-2.7c0.1-2.8,0-5.6,0-8.4c-2.2-0.2-2.1,2.4-3.8,2.7
		c-1.6,0.2-2.5,2-4.2,2.1c-1.8-1.8-2-4.2-2.6-6.3c-0.6-2.2-0.8-4.5-1.3-7.1c-1.6,0.9-2,2.2-2.2,3.6c-0.1,0.6,0.2,1.2-0.2,1.7
		c-0.7,1-1.7,1.8-2.1,2.9c-0.4,1,0.1,2.4-0.5,3.2c-1.2,1.6-0.8,3.5-1.3,5.2c-0.1,0.5-0.3,0.9-0.4,1.3
		C764.1,89.2,764.1,89.2,762.7,86.7z"/>
	<path class="st0" d="M740.3,66.3c-0.4-0.4-0.4-1,0-1.3c0.7-0.6,1.5-1.2,2.4-1.9c0.1-1.1,0.2-2.3,0.3-3.4c2.3-1.2,2.3-1.2,5,0.6
		c-1.3,1.9-1,4.3-1.7,6.5c-0.7,2.1-1.4,4.1-2.2,6.6c2.3-0.3,4.2-0.1,5.6-2c0.6-0.8,1.7-1.2,2.1-2c2.1-3.6,5.5-4.5,9.2-4.9
		c0.1,0,0.2,0.1,0.5,0.2c1,1.8,0.4,3.4-0.8,4.9c-0.8,1-1.9,1.9-2.9,2.7c-0.8,0.6-1.6,1-2.4,1.6c-2.8,2-3.9,3.2-1.4,7.3
		c0.7,1.1,1.5,1.9,2.4,2.7c1.4,1.2,2.6,2.5,3.5,4.2c-0.2,1.8-1.3,2.5-3.1,2.9c-3.6-2.8-6.5-6.5-9.3-10.4c-2,0-3.1,1.5-4.3,2.8
		c-1.4,1.5-0.4,3.3-1,5.2c-1.4,0.7-2.8,1.6-3.5,3.5c-0.6,1.8-1.5,1.9-3.4,0.8c0.5-2.1,1.1-4.1,1.6-6.3c0.3-1.5,0.9-3,0.6-4.6
		c-0.2-1-0.1-2,0.5-2.8c1.1-1.6,0.1-3.7,1.5-5.2c0.1-0.1-0.1-0.7-0.3-1c-0.1-0.2-0.3-0.5-0.3-0.7C739.4,70.4,739,68.1,740.3,66.3
		c0,0.1-0.1,0.3-0.2,0.6c0,0.3,0.1,0.4,0.4,0.3c0.1,0,0.1-0.2,0.1-0.3C740.6,66.7,740.4,66.5,740.3,66.3z"/>
	<path class="st0" d="M311.3,70.4c0.4,2.8,0.9,5.4,1.1,8.1c0.3,3.4,1.2,6.7,1.8,10.1c0.3,1.6,1.2,2.9,2,4.2c0.8,1.2,0.7,2.2-0.3,3.3
		c-1.6,0.1-2.8-0.8-3.6-2.1c-0.8-1.5-1.7-2.9-1.9-4.7c-0.4-3.6-2-7-1.9-10.7c-0.9-0.4-1.3-0.1-1.5,0.6c-0.4,1.3-1.3,2.3-2.2,3.4
		c-2.1,2.7-4.1,2.7-6.3,0c-1.1-1.3-2.2-2.6-3.6-3.9c-2.2,4.1-1.8,8.9-3.8,13.2c-1.5-0.4-2.4-1.1-2.4-2.5c0-2.1-0.3-4.2,0.5-6.2
		c1.6-3.9,1.9-8,2.1-12c0.7-1,1.6-1.3,2.6-1.3c0.8,0,1.3,0.7,1.8,1.2c0.4,0.4,0.9,0.9,1.2,1.4c1.2,2.5,3,4.6,4.8,7.1
		c1.2-1.2,2.3-2.4,3-3.9c0.7-1.6,1.8-2.9,2.7-4.3C308.3,70.5,309.4,69.7,311.3,70.4z"/>
	<path class="st0" d="M247.6,88.5c2.8,0.1,5.2-0.2,7.6,0.9c0.7,0.6,0.6,1.4,0.3,2.2c-0.2,0.1-0.4,0.4-0.6,0.4
		c-5.4,0.9-10.7,2.5-15.9,4c-1.2,0.4-2.4,0.5-3.6,0.4c-1.1-0.1-1.7-0.8-1.8-1.9c-0.1-1.2,0.2-1.9,1.4-2.3c2.3-0.7,4.6-1.3,7-2
		c1-3-0.7-5.8-0.1-8.8c-3.5,1-3.5,1-5.3-1.2c-0.1-1,0.5-1.6,1.1-2.3c2.6-3.2,3.9-6.9,4.4-11c0.1-0.5,0.2-1,0.4-1.4
		c0.3-0.7,0.7-1.3,1.6-1.3c0.8,0,1.5,0.5,1.7,1.2c0.9,3.6,2.4,7,2.1,10.9C247.4,80.3,247.6,84.2,247.6,88.5z"/>
	<path class="st0" d="M635,95.3c-0.4,0.3-0.9,0.7-1.4,1c-1.4,0.6-2.4,0-2.5-1.5c-0.2-4.1,0.3-8.1-0.2-12.2c-0.2-1.9,0.7-3.8,0.8-5.8
		c0.1-2.1,0.3-4.1,0.4-6.2c0-1.8-0.1-3.7,0.3-5.5c0.4-1.7,1.3-3.3,1.1-5c2.5-1,4.1-0.6,5.6,1.4c-0.7,1.3-0.8,2.7,0.2,4.2
		c0.7,1.1-0.1,2.4-0.4,3.5c-0.3,1.2-0.9,2.2-0.4,3.5c-1.2,2.5-0.1,5.6-2,7.9c-0.6,0.7-0.4,1.6-0.5,2.5C635.6,87.2,636,91.3,635,95.3
		z"/>
	<path class="st0" d="M270.4,87.5c0.8,0.9,1.4,1.6,2,2.3c0.4,0,0.8,0.1,1.1,0c2.8-0.8,5.7-1,8.4-2.1c0.7-0.3,1.5-0.3,1.6,1
		c-3.4,2.9-7.4,4.3-11.9,4.7c-2.8,0.3-4.8-1.3-5.8-4.1c-0.8-2.3-0.8-4.4,0-6.8c1.9-5.6,6-9,10.8-11.8c2.3-1.3,4.8-0.7,7.1,0
		c1.2,0.4,2,1.4,2,2.8c0.1,1.6-0.7,2.8-1.9,3.7c-1.1,0.8-2.5,0.2-3.4-1.2c-0.3-0.4-0.4-0.9-0.5-1.2c-1.4-0.6-2.7-0.2-3.4,0.9
		c-0.8,1.2-1.9,1.9-2.8,2.8C271.3,81,269.9,83.8,270.4,87.5z"/>
	<path class="st0" d="M131.1,106.1c-0.1-0.2-0.2-0.3-0.3,0c0,0,0.1,0.1,0.1,0.2C130.4,106,131.3,105.6,131.1,106.1L131.1,106.1z"/>
	<polygon class="st0" points="736.9,46.1 737.2,46.1 737,46.1 	"/>
	<path class="st0" d="M415.4,33.4c-0.2,2.5-1.6,4.5-3.2,6.2c-0.5,0.6-1.1,1-0.9,1.8c0.3,1.3-0.4,2.1-1.3,2.8
		c-0.9,0.7-1.8,1.3-2.7,1.9c-0.6,0.4-1.1,0.3-1.6-0.4c2.5-3.4,4.7-7,6.5-10.7c0.4-0.8,0.8-1.5,1.6-2
		C414.4,32.6,414.9,32.8,415.4,33.4z"/>
	<path class="st0" d="M443.9,34.1c0.1,1.7-2.1,3-0.5,4.7c-1.2,1.2-2.1,2-3.5,1.9c-0.8-0.5-0.9-1.1-0.8-1.7c0.4-1.8,1.6-3.3,2.4-4.9
		C441.9,33.7,442.3,33.8,443.9,34.1z"/>
	<path class="st0" d="M94.6,32.4c-0.7,0.5-1.4,1-2,1.5c-0.5,0.5-0.9,1.1-1.4,1.7c0.2,0.6,0.4,1.3,0.7,2.2c-2.1,1.3-2.3,4.5-5.5,5.1
		c0-1.8-0.6-3.6,1.3-4.8c0.9-0.6,1.1-1.5,1.4-2.4c0.5-1.9,1.4-3.5,2.7-4.9C93.2,30.7,93.8,31.8,94.6,32.4L94.6,32.4z"/>
	<path class="st0" d="M79.6,34.3c-0.9,1.9-1.5,3.9-1.4,5.9c-0.9,1-2.2,1.2-2.8,2.5c0.5,0.4,1,0.9,1.5,1.4c-1.6,0.8-1.6,0.8-2.9-0.9
		c-0.7,0.4-1.4,0.8-2.2,1.1c-0.2-0.3-0.4-0.5-0.4-0.6c0.4-2.1,1.6-3.8,3.2-5c1.3-1,2.5-1.8,3-3.5C77.7,34.5,77.8,34.5,79.6,34.3z"/>
	<path class="st0" d="M68.8,29.7c-0.6,2.1-1.1,4-3.5,4.2c-0.7-0.6-0.5-1.2,0-1.9C66.1,31,67.1,30.2,68.8,29.7z"/>
	<path class="st0" d="M55.8,32.3c-0.5-0.4-0.4-0.8-0.3-1.5c0.8-0.7,2-0.7,3-1.1c0.6,0.8,0.4,1.3-0.2,1.6
		C57.5,31.7,56.9,32.6,55.8,32.3z"/>
	<path class="st0" d="M94.6,32.5c0-0.2-0.1-0.4-0.1-0.6c0-0.1,0-0.3,0-0.3c0.3-0.2,0.3-0.1,0.2,0.3C94.5,32,94.6,32.2,94.6,32.5
		L94.6,32.5z"/>
	<polygon class="st0" points="822.6,15 822.5,14.8 822.7,14.8 	"/>
</g>
<g>
	<path class="st0" d="M131,106c0.8,0.3,1.2-0.1,1.3-0.8c0.2-1.3,0.5-2.3,1.8-2.9c0.7-0.3,1.1-0.9,1.4-1.6c1.6-4,4.5-7.1,6.5-10.9
		c0.4-0.8,1.1-1.4,1.9-1.6c2-0.5,2.9-2,3.7-3.8c2.8-0.7,5.6-0.5,8.3-0.4c6.7,0.2,13.4,0.9,20.1,1.4c1.1,0.1,2.2,0.4,3.2,0.8
		c3.3,1.2,6.3,3.1,9.6,4c1,2.1,2.1,3.8,3.3,5.5c1.6,2.3,2.5,5.2,3.6,7.8c0.2,0.5,0,1.3,0.5,1.7c1.9,1.4,1.9,3.5,2.4,5.5
		c0.5,2.1,1.1,4.2,1.7,6.5c2.5,1,3.2,3.1,3.3,5.7c0.2,3.5,1.4,6.9,2.3,10.3c0.8,2.8,2,5.5,3.4,8c1.5,2.6,1.8,5.6,2.1,8.5
		c0.5,4.9,2.4,9.2,4.6,13.4c1.8,3.5,3,7.2,5.3,10.4c0.5,0.7,0.7,1.5,1,2.4c1.4,4.8,4.3,8.7,7.5,12.4c1.4,1.7,2.4,3.5,3.4,5.4
		c0.7,1.4,1.3,3,2.6,3.9c2.2,1.5,3.2,3.9,4.4,6.1c2.2,3.9,4.8,7.6,7.7,11c0.2,0.3,0.6,0.5,0.8,0.8c2.8,4.8,7,8.5,10.6,12.5
		c2.8,3.1,5.3,6.4,7.3,10c1.5,2.7,3.4,5,7.1,5.5c-0.3-3.3,0.4-6.4-0.6-9.6c-0.6-1.9,0.7-3.7,1.2-5.5c0.5-1.5,0.2-2.6-0.7-3.5
		c1.2-2.7,1.7-5.3,0.2-7.9c0.4-1.6-1-3.1-0.3-4.8c1.1-2.8,0-5.9,0.9-8.7c0.1-0.2,0-0.5-0.1-0.7c-1.9-2.6-1-5.7-1.2-8.5
		c-0.1-1.7,0-3.4-0.6-5c-0.7-1.9-0.8-3.8-0.3-5.7c0.5-1.8,0.3-3.6,0-5.5c-0.6-4.5-1.8-8.8-1.2-13.4c0.1-1.3-0.4-2.7-0.8-3.9
		c-0.8-2.6-0.9-5.3-1.2-7.9c-0.5-3.7-1.1-7.4-1.6-11.2c-0.1-1-0.8-1.7-1.3-2.6c-0.6-1.2-0.4-1.9,0.7-2.9c1.9-1.7,4-2.7,6.7-2.4
		c2.5,0.3,4.8-0.1,7.3-0.5c3.8-0.6,7.8-1,11.6-1c2,0,4.1,0.2,6.1,0.4c4.6,0.3,9.2,0,13.8-0.4c0.8-0.1,1.7,0.1,2.5,0.2
		c3.4,0.1,6.7,0.6,10.1,0.3c3.8-0.3,6.3,1.8,7.4,4.9c0.3,0.7,0.4,1.4,0.2,2.1c-1.3,6.2-0.8,12.6-1.3,18.9c0.8,2.6-0.1,5-0.5,7.5
		c-0.6,3.7-0.4,7.6,0.1,11.3c0.2,1.3,0.2,2.4-0.3,3.5c-0.6,1.4-0.7,2.8-0.8,4.3c-0.1,5.1,0.1,10.3-0.2,15.4
		c-0.2,3.9,0.5,7.7-0.4,11.6c-0.3,1-0.1,2.2-0.1,3.3c0,0.9,0.1,1.7,0,2.6c-0.9,6.9-0.7,13.9-2,20.7c-0.6,3.2-0.5,6.4,0,9.5
		c0.4,2.3,0.6,4.6,0.4,6.9c-0.2,3.4,1,6.5,1.7,9.6c0.4,1.8,1.9,3.1,3.7,3.9c1,0.5,2.2,0.7,2.8,1.6c1.2,1.8,3,2.1,4.8,1.8
		c2.6-0.4,5.4-0.6,7.7-1.8c2.1-1.1,4.3-1.4,6.4-2.2c1-0.4,1.9-0.1,2.9,0c0.4-1.5,0.1-2.9-0.2-4.3c-1.2-4.7-2.4-9.5-3.5-14.2
		c-0.4-1.7-1-3.2-2.7-4.1c-2.8-1.4-4.1-4-4.7-7c-0.7-3.3-1.6-6.6-1.9-10c-1.3-1.3-3-1.3-4.5-1.4c-1.4-0.8-1.7-2.6-3.4-2.7
		c-0.6,0-1-0.9-1.4-1.6c-0.6-1.3-1.6-2.4-2.3-3.7c-1.2-2.4-2.1-5.1-1.4-7.7c0.7-2.7,0.3-6,2.8-8.1c0.1-1.2,0.6-2.3,1.1-3.4
		c1.7-3.9,4.1-6.8,7.7-9.1c0-2.2-1.7-4-2.1-6.1c-0.4-2.1,0.6-4.4-0.5-6.6c0.4-0.6,0.9-1.3,1.4-2c0.3-0.7-0.8-0.9-0.5-1.8
		c0.5-1.2,1.8-1.7,2.9-2.3c0.9-0.9,0.5-2.6,1.6-3.2c2.2-1.3,3.5-3.9,6-4.6c4.2-1.1,8.4-2.5,12.9-1.4c0.7,0.2,1.4,0.5,2,0.9
		c4.5,3.8,10,6,14.6,9.7c0.8,0.6,1.7,1.3,2.7,1c2.5-0.5,4.8,0.6,7.2,0.8c2.3,0.1,3.9,1.4,5.2,3.1c1.2,1.7,2.2,3.5,3.1,5.4
		c0.5,1.1,0.3,2.4-0.1,3.6c-0.3,0.8-0.7,1.6-0.5,2.7c0.7,1.2,2,1.7,3.6,1.8c2.5,0.1,4.9-0.6,7.2-1.4c1.5-0.5,2.5-2,3-3.5
		c0.6-1.7,1.2-3.5,1.4-5.3c0.2-2,0.7-3.9,1.2-5.7c1.2-4.5,4-6.1,8.5-5.2c2.2,0.4,3.8,2.3,4.9,4.2c0.8,1.5,1.5,3,3,3.7
		c0.3,1.3,0.3,2.4-0.1,3.5c-0.4,1.1-1.1,2.3-2.1,2.4c-3.4,0.4-5.7,3.2-9.1,3.4c-1.4,2.3-3.7,3.5-5.3,5.3c0,1,0.5,1.2,1.1,1.6
		c3,1.8,5.1,4.5,7.1,7.3c1.1,1.6,1.4,3.4,1.1,5.2c-0.3,2.4-1.1,4.7-1.9,7c-0.3,0.8-0.9,1.5-1.1,2.3c-0.9,4.3-4,6.5-7.7,8
		c-0.7,0.3-1.4,0.5-1.8,1.2c-1,1.7-2.7,2.4-4.4,3.2c-3.8,1.8-7.6,3.9-12,3.6c-0.5,0-0.9,0.2-1.5,0.3c-3,6.2-3.6,12.7-2.5,19.5
		c0.4,2.3,0.3,4.6,0.5,6.7c-0.9,0.5-1.4,0.3-1.8-0.3c-0.7-1.1-1.4-2.3-2.1-3.4c-0.9-1.6-2.2-3-2.8-4.7c-0.6-1.8-2.8-1.8-3.3-3.8
		c-1.6,3.2-4.5,16-4.3,18.4c0.2,0.1,0.4,0.3,0.6,0.3c5.1-0.3,10.2-0.5,15-2.5c1.3-0.5,2.8-0.7,4.3-0.7c3.9-0.2,7.8-0.7,11.7-1.2
		c1.7-0.2,3.4-0.5,5.1-0.3c1.9,0.2,3.9,0.1,5.8-0.6c1.7,1,2.4,3.3,4.5,2.7c1.1,1.3,1,2.4,0.9,3.5c-0.1,6.1,0.5,12.2,1.3,18.2
		c0.4,3.4,0.3,6.8,0,10.3c-0.2,2.1-0.3,4.1-0.4,6.2c-0.2,2.4-0.4,4.9-0.6,7.3c-0.7,6.4-0.4,12.7,1.4,18.9c0.4,1.2,0.7,2.4,0.6,3.6
		c-0.2,3.1,0.8,6,0.9,9.1c0.1,1.7,1.1,3.5,1.9,5.1c1.1,2.3,1,4.4-0.3,6.4c-1.4,1.1-2.8-0.7-4.1,0.5c-0.6,0.6,0.8,1.4,0.1,2.2
		c-0.2,0.1-0.4,0.3-0.6,0.4c-1.2,0.1-2.4,0.2-3.6,0.3c-0.9,0-1.7,0.1-2.4,0.8c-0.8,0.8-1.9,1.1-3,1.2c-7.4,1.1-14.7,2.3-22,3.4
		c-0.1,0-0.2,0.1-0.4,0c-4.4-0.7-8.7,0.5-13.1,0.3c-1.3-0.1-2.7,0.1-4,0.1c-6.1,0.1-12.2,0.2-18.3,0.3c-1.9,0-3.9,0-5.8-0.3
		c-4-0.6-8-0.2-12,0c-2.5,0.1-4.9-0.1-7.3-0.3c-2.7-0.2-5.4-0.4-8,0.1c-1.8,0.4-3.7,0-5.4-0.1c-5-0.2-9.9,0.6-14.9,0.8
		c-3.5,0.2-7.1,0.2-10.6,0.6c-3.1,0.4-6.1,0.8-8.9,2.4c-2.6,1.5-5.5,2.3-8.7,1.2c-1.6-0.6-3.4,0.1-4.9,0.2c-3.7-1.4-4.6-4.2-4.4-7.6
		c0.2-3.2,0-6.3-0.2-9.3c-0.9-1.1-1.9-1.1-2.8-1.2c-6-0.7-11.9-1-17.7,1c-4,1.4-8.2,2.2-12.3,3.3c-1.2,0.3-2.4,0.6-3.6,0.3
		c-0.5-0.1-1.2-0.1-1.4-0.4c-1-1.7-2.9-2-4.4-3c-0.7-2.6,0-5,1.6-6.9c2.5-2.9,3.7-6.2,4.4-9.8c0.9-4.7,2.2-9.2,3.2-13.9
		c1-4.8,0.9-9.6,0.7-14.5c0-0.8-0.3-1.7-0.6-2.5c-1-3.1-2-6.3-3.8-9c-0.7-1,1-2.1-0.5-2.9c-1-0.6-0.7-1.8-0.7-2.7
		c0.1-1.5-0.5-2.6-1.9-3.2c-0.9-0.4-1.5-1.1-2.1-2c-0.7-1-1.7-1.7-2.7-2.5c-2,0.1-3.9,0.2-5.8,0.7c-3.6,1.1-7.5,1.1-11.2,1.5
		c-2.8,0.3-5.5,1-8.3,1.6c-4.1,0.8-8.3,0.6-12.4,1.4c-1.5,0.3-3.1,0.6-4.6,1.1c-0.5,0.2-0.9,0.3-1.4,0.5c-3.3,0.9-6.6,1.8-9.9,2.6
		c-4.5,1-9,1.9-13.5,2.9c-3,0.7-5.9,1.4-8.7,2.8c-1.1,0.5-2.3,0.9-3.5,1.1c-4.8,1.1-9,3.5-13.6,5.3c-1,0.4-1.6,1.3-2,2.4
		c-0.9,2.4-1.5,4.9-2,7.4c-0.9,4.7-2,9.3-1.7,14.1c0.1,1.2,0,2.5,0.3,3.6c0.5,1.8,0.5,3.6,0.4,5.5c-0.2,4,1,7.7,3.2,11
		c0.9,1.3,1.6,2.7,2,4.2c-0.3,1.3-1.8,1.5-2.3,2.8c-0.6,1.6-2.1,1.5-3.1,0.2c-0.4-0.6-0.4-1.5-1.9-1.8c-2.9,0.8-5.5-1.7-8.6-2.5
		c-1.6-0.4-2.5-1.3-3.3-2.5c0.2,0.1,0.4,0.3,0.6,0.3c0.2,0,0.5-0.1,0.5-0.2c0.1-0.2-0.1-0.4-0.4-0.3c-0.2,0.1-0.4,0.2-0.6,0.3
		c-0.7,0.7-1.6,0.6-2.3,0.1c-1.6-1-3.4-1.1-5.3-1.4c-2.2-0.4-4.3-0.8-6.4-1.4c-1.5-0.5-3.1-0.8-4.6-1c-1.5-0.2-2.9-0.6-3.9-1.9
		c-2.1,0.7-4.1,0.6-6.1-0.4c-1-0.5-2.1-0.5-3.2-0.5c-2.4,0-4.9,0.5-7.3-0.5c-0.2-0.1-0.5-0.1-0.7,0c-2.6,0.4-5.1,0-7.7,0
		c-4.3,0-8.5,0.5-12.8,0.3c-3.9-0.1-7.8,0.6-11.6,0.4c-1.5-0.1-2.9,0.4-4.3,0.8c-3,0.8-6.1,1.3-9.1,2.5c-3.2,1.2-6.6,1.7-10,1.9
		c-1.8,0.1-3.6,0.2-5.3,1c-1.6,0.7-3.3,0.7-5.1,0.5c-1.5-0.1-3-0.3-2.7-2.4c0.1-0.5-0.4-0.6-0.6-0.8c-1.1-0.8-1.1-2-0.5-3
		c1.6-2.8,2-6,3.3-8.9c1-2,1.3-4.1,1.3-6.4c0-1.5,0.2-2.9,0.5-4.4c1.6-6.8,1.9-13.7,2.5-20.6c0.2-2.4,1.4-4.6,1.6-7.1
		c0.3-3.7,2.1-6.8,4.7-9.5c2.1-2.2,4-4.4,5.6-7.1c1.8-3.1,4.6-5.7,7.1-8.4c1-1.1,2.1-2,2.9-3.3c2.3-3.6,5.3-6.6,8.3-9.7
		c3.4-3.5,6.3-7.4,9.6-10.9c3.8-3.9,6.8-8.6,11.2-11.9c1.1-0.8,1.7-2.1,2.4-3.2c1.9-3.1,3.8-6.3,6.8-8.5c0.9-0.6,1.5-1.6,1.8-2.7
		c0.4-1.7,1.6-2.9,2.9-4.1c2-1.8,3.5-4,4.6-6.5c1.8-4.4,3.8-8.7,4.7-13.4c0.4-1.9,1.3-3.7,2-5.5c1.3-3.7,1.4-7.7,3.2-11.2
		c0.3-0.5,0.2-1.2,0.3-1.8c0.2-4.9,2-9.1,5.8-12.1c2.2-1.7,3.4-4,4.5-6.3c0.7-1.4,1.4-2.4,3-2.9c2.3-0.8,3.4-3,4.8-4.8
		c0.8-0.9,1.4-2.1,2.5-2.7c3.3-1.5,4.4-4.7,5.8-7.6c0.8-1.8,1.5-3.5,2.7-5.1c1.8-2.4,2.3-5.3,2.9-8.2c0.3-1.8,1.1-3.2,2.5-4.4
		c1.3-1.1,2.2-2.5,3.2-4c1.6-2.5,2.5-5.3,4.2-7.7C130.8,107.9,130.8,106.9,131,106L131,106z M126.7,127.4l-0.2,0L126.7,127.4
		c-0.1,0.8,0.4,1.2,1.1,1.1c0.5,0,1.1-0.7,1.8,0.1c-0.5,2.7-2.8,4.6-3.8,7.1c-0.1,0.2-0.7,0.3-1,0.3c-0.3-0.1-0.6-0.5-0.7-0.8
		c-0.1-0.5,0.5-1.2-0.7-1.8c-0.3,1.4-1.6,2.1-0.5,3.9c0.9,1.4,0.8,3.3-0.5,4.7c-0.5,0.5-0.6,1.4-1.3,1.7c-2.7-0.5-2.8-0.5-4,1.6
		c-0.5,1-1.3,1.7-2.1,2.5c-1.8,1.9-3.8,3.5-5.2,5.6c-1.9,2.9-5.1,4.6-6.5,7.9c-0.1,0.2-0.3,0.4-0.5,0.5c-2.8,1.1-4.2,3.6-5.9,5.8
		c-0.9,1.1-1.5,2.3-1.9,3.8c-1.1,3.4-1.5,6.9-2.5,10.2c-0.8,2.6-0.4,5.5-2.1,7.9c0.4,1.5-0.9,2.4-1.3,3.5c0.4,0.7,1,1.2,0.7,1.8
		c-0.7,1.3-0.5,3.1-1.6,4c-1.8,1.4-2.4,3.2-2.9,5.2c-0.2,0.9-0.4,1.6-1,2.3c-1,1.1-1.5,2.5-1.9,3.9c-0.5,2.1-1.6,3.8-3.3,5.1
		c-0.5,0.4-1.3,0.8-1.5,1.5l-0.1-0.1c-1.1,0.9-1.6,2.1-1.8,3.5c-0.2,1.5-2.3,1.4-2.6,2.9c-0.3,1.3-1.2,2.1-2.1,2.9
		c-1.2,1.1-2.3,2.3-2.8,3.8c-0.7,1.9-2.1,3.3-3.5,4.6c-1.4,1.4-2.8,2.8-4,4.3c-2.3,2.9-4.6,5.9-7.3,8.5c-4.3,4.1-8.6,8.3-11.5,13.6
		c-0.2,0.4-0.6,0.9-1,1c-2,0.8-2.7,2.7-3.8,4.2c-1.3,1.7-2.6,3.5-4.1,5.1c-1.3,1.5-2.8,2.8-3.8,4.4c-0.8,1.3-1.7,2.4-2.7,3.4
		c-1.7,1.8-3.4,3.5-5,5.3c-2.9,3.1-4.7,6.7-4.5,11.1c0,0.8-0.2,1.5-0.6,2.1c-1.2,1.7-1.5,3.6-1.6,5.5c-0.3,3-0.5,6.1-0.9,9.1
		c-0.5,3.4-1.2,6.7-1.8,10.1c-0.8,5.1-1.7,10.1-3.6,14.9c-0.2,0.6-0.4,1.1,0.3,1.9c2.5,0.3,5.1-0.3,7.8-0.4c1.1-0.1,2.2-0.3,3.2-0.7
		c2.7-1.2,5.5-1.9,8.3-2.9c4.9-1.8,10-2.3,15.1-2.5c7.1-0.3,14.1-0.3,21.1-1.7c3.2-0.7,6.5-1.1,9.8-0.6c2.6,0.4,5.1,0.2,7.7,0.3
		c3.7,0.2,7.2,0.8,10.7,2.2c3.7,1.5,7.2,3.6,11.2,4.3c2.9,0.5,5.7,1.3,8.4,2.3c1.2,0.4,2.4,1.2,3.6,0.9c0.5-0.5,0.4-0.9,0.3-1.2
		c-1-1.6-1.4-3.4-1.7-5.2c-0.7-4.2-1.6-8.4-2.1-12.6c-0.2-1.7-1-3.3-0.8-5c0.4-2.9-0.1-5.8,1.3-8.6c0.5-1.1,0.7-2.6,0.1-3.9
		c-0.3-0.6-0.4-1.2,0.1-1.8c1-0.6,2.1-1,2.9-2c0.5-0.6,1.3-1,2-1.5c0.8-0.5,1.4-0.2,1.8,0.5c0,0.6-0.7,1.1-0.1,1.7
		c1.9-0.5,1.1-2.5,1.8-3.4c0.8-0.4,1.8,0.2,2.1-0.6c0.5-1.2,1.5-1.4,2.6-1.7c5-1.7,10.2-3.3,15-5.5c4.2-1.9,8.5-2.9,12.9-3.8
		c2.6-0.5,5.3-0.5,7.9-1.2c3.1-0.8,6.1-1.8,9.2-2.3c3.3-0.5,6.1-2.3,9.3-3.1c3.5-0.9,6.8-1.6,10.4-1.7c1.5,0,2.9-0.1,4.4-0.4
		c6.7-1.4,13.3-2.9,20.2-3.4c5.2-0.4,10,0.1,14,3.8c1.5,1.4,3.5,2.3,4.8,3.8c1.9,2.1,3.3,4.7,3.8,7.4c0.6,3.1,2.1,5.7,3,8.6
		c1,3.2,1.8,6.3,1.6,9.6c-0.2,4.8-1.3,9.4-2.7,14c-0.7,2.6-1.4,5.1-1.7,7.8c-0.3,2.8-1,5.5-2,8.1c-1,2.7-1.9,5.5-2.9,8.5
		c4,0,7.6-0.6,11-1.6c3.6-1.1,7.2-2.2,11-2.6c0.9-0.1,1.8-0.2,2.4-0.8c2.5-2.5,5.7-3.7,8.9-4.6c0.1-0.6,0.3-1.1,0.4-1.5
		c0.7-4.2,0.2-8.5,0.3-12.8c0.1-2.3-0.3-4.7,0.2-6.9c0.7-3.2,0.5-6.3,0.6-9.4c0.2-4.6-0.1-9.3,0.6-13.9c0.5-2.9,0.9-5.8,0.9-8.7
		c0-4.5,1.1-8.9,1.3-13.4c0.2-4.1,1-8.1,1-12.2c0.1-3-1.2-5-3.8-6.5c-1.6-1-3.6-2-4.5-3.5c-2.4-4-5.3-7.8-7.7-11.9
		c-1-1.7-2.3-3.2-3.8-4.4c-2.5-2-4.3-4.6-6.6-6.7c-2.9-2.8-5.1-6.2-7.2-9.6c-3.3-5.4-7.3-10.3-10.6-15.7c-0.8-1.4-1.7-2.6-2.8-3.8
		c-2.9-3.5-5.2-7.3-6.9-11.6c-1.1-2.7-2.2-5.5-3.8-7.9c-1.6-2.5-2.9-5.1-4-7.7c-1.9-4.5-3.7-9-4.7-13.8c-0.8-3.8-1.7-7.5-3.3-11.1
		c-1.8-3.9-3.5-8-3.9-12.4c0-0.5-0.3-0.9-0.6-1.3c-1.8-2.9-2.8-6.2-3.9-9.4c-0.1-0.3-0.3-0.6-0.4-0.9c-1.1-0.4-2.3,0.3-3.4-0.7
		c-0.5-1.5-1.9-2.9-1.8-4.8c0.1-3.2-0.8-6.3-0.9-9.5c-0.1-3.2-2.3-5.6-3.7-8.2c-0.2-0.3-0.6-0.5-0.9-0.6c-2.9-0.9-5.5-2.5-8.7-2.7
		c-4.6-0.3-9.2-1.1-13.8-1.4c-3.7-0.2-7.6-0.6-11,1.5c-0.2,0.1-0.2,0.4-0.3,0.6c0.4,0.9,1.7-0.9,2,0.6c-0.9,2-2.8,2.2-4.2,2.4
		c-3.9,3.4-5.8,7.9-8.7,11.6c-2.9,3.8-4.3,8.6-7.2,12.6c-0.2,0.7,0.6,1.3,0.3,2.1c-0.2,0.1-0.4,0.4-0.6,0.4
		c-0.6,0.1-1.1,0.1-1.7,0.2c-0.3,1.5-0.8,2.8-0.8,4.3C128,127.1,127.3,127.3,126.7,127.4z M370.5,248.7c-1,0.2-2,0.3-2.9,0.7
		c-1.7,0.7-3.2,1.6-3.8,3.6c-0.9,3.1-1.8,6.2-2.7,9.3c-0.4,1.5-1,3,0.2,4.3c3.5,0,6.7,0,10,0c0.8,0,1.7,0,2.6-0.8
		c0.5-3.9-1.2-7.7-1.6-11.6C372,252.4,372,250.5,370.5,248.7z"/>
	<path class="st0" d="M548.2,246.8c-1-1.9-2.1-3.9-4.4-5.3c-2.1,0.4-4.4,0.3-6.7,0.4c-1.5,0-3,0.9-4.6,1.1c-1.3,0.2-2.2,1.1-3.3,1.4
		c-1.2,0.3-2.4,0.1-3.3,1.1c-0.2,0.2-0.5,0.4-0.6,0.4c-2.3-0.9-3.9,0.9-5.9,1.4c-1.9,0.5-3.7,1.3-5.4,2.3c-4,2.5-8.3,4.5-11.8,7.8
		c-3.9,3.6-5.8,8-6.6,13.1c-0.6,3.3-0.4,6.5-0.2,9.8c0.5,7.4,1.5,14.8,1.2,22.3c-0.1,2.7,0.4,5.6,1,8.3c0.6,2.6,0.6,5.3,1,7.9
		c0.1,1,0.1,2,0.3,2.9c0.8,3.7,1.6,7.3,1.5,11.1c-0.1,1.5,1.1,2.7,1.3,4.2c0.6,4.2,2.1,8.2,3.3,12.3c0.6,1.9,0.8,3.8-1,5.5
		c-3.3-0.6-6.7-0.9-10.1-1c-0.7,0-1.5-0.2-2.2-0.1c-5.3,0.7-10.4-0.6-15.7-0.7c-0.9,0-1.8-0.3-2.5,0.1c-1.9,1.1-4,0.9-6.1,0.7
		c-1.2-0.1-2.4-0.2-3.6,0.2c-1.4,0.4-2.9,0.1-4.4-0.2c-1.3-0.2-2.7-0.4-4,0.2c-2.4,1.2-4.7,0.9-6.7-0.6c-1.3,0.1-1.6,1.3-2.7,1.6
		c-1-0.1-2.1-0.4-3.2-1.2c0.5-4.1-0.6-8.4,0.1-12.6c0.2-1-0.1-2.2-0.2-3.3c-0.1-1.5-0.2-2.9,0.2-4.3c0.3-0.8,0.4-1.7,0.3-2.5
		c-0.7-4-0.2-8.1-0.6-12.1c0-0.4-0.1-0.7,0-1.1c0.9-7.9,0.3-15.9,0.4-23.8c0-4.1-0.3-8.3,0.5-12.4c0.5-2.8-0.4-5.6-0.4-8.4
		c-0.1-4.9-0.2-9.8-1.3-14.6c-0.4-1.8,0.3-3.6,0.2-5.4c-0.4-4.9-1.2-9.8-1.7-14.8c0-0.4-0.2-0.7-0.1-1.1c0.8-3.7-0.4-7.5-0.1-11.2
		c0.2-1.7,0.2-3.4-1-4.8c-0.4-0.4-0.3-0.9-0.1-1.3c0.2-0.3,0.4-0.8,0.3-1c-1.3-1.6-0.1-3.2,0.1-4.2c-0.3-1.6-1.4-1.2-1.8-1.9
		c-0.2-0.9-0.3-1.8-0.2-2.7c0.3-0.7,1.3-0.4,1.3-1.2c0-0.2,0-0.6-0.1-0.7c-1-0.9-2-1.8-1.2-3.4c0.3-0.6,0-1.5-0.2-2.1
		c-0.9-2.5-0.6-5.1-0.6-7.6c0-1.7-0.2-3.3-0.7-4.9c-0.7-2.3-1.2-4.7-0.5-7.1c0.7-2.5,0.6-5,0.6-7.5c-0.1-2.4-0.1-4.9-0.2-7.3
		c0-1.8-0.8-3.5-1-5.4c-0.2-2.7,0-5.3,0.3-8c0.1-0.6,0.3-1.2,0.2-1.8c-0.6-4.5-0.3-9-0.7-13.4c-0.1-1.1-0.3-2.2-0.1-3.3
		c0.7-3.4,0.2-6.8,0.6-10.2c0.1-1.1,0.1-2.2-0.4-3.2c-0.3-0.6-0.3-1.2,0.1-1.7c1.2-1.7,0.8-3.5,0.6-5.3c-0.4-2.9,0.9-4.4,3.8-4.2
		c0.8,0,1.7,0.3,2.3,0.5c1.1-0.3,1.7-0.9,2.3-1.5c2.2-2.4,4.9-3.5,8.2-2.5c2.8,0.8,5.4-0.2,7.8-1.2c2.9-1.2,5.9-1.5,8.9-1.9
		c4.1-0.7,8.1-1.8,11.8-3.8c0.3-0.2,0.6-0.4,0.9-0.6c2.4-1,4.7-2.2,7.5-2.2c3.1-0.1,6.3-0.6,9.4-0.8c3.4-0.2,6.8-0.1,10.2-0.1
		c0.7,0,1.5,0.1,2.2,0.1c5.4-0.5,10.7,0.7,16,1.4c0.4,0,0.8,0,1.1,0.2c3.8,1.9,7.9,3.2,11.2,5.9c1,0.9,2,1.8,3.3,2.3
		c2,0.8,3.6,2.1,5.1,3.5c1.2,1,2.3,2.2,3.6,3.1c1.3,0.9,2.5,2,3.7,3c1.7,0.2,3.4,0.6,5,0.9c2.9,0.5,5.8,0.4,8.7,0.5
		c2.2,0,4.4-0.2,6.6,0.2c1.4,0.2,2.9,0,4.3-0.5c2.2-0.9,4.5-1.2,6.8-1.4c3.9-0.3,7.8-0.6,11.7-1c1-0.1,2-0.6,2.9,0
		c1.5,1,3,0.6,4.6,0.4c3.9-0.5,7.8-0.8,11.6-1.2c0.2,0,0.6,0.1,0.7,0c2-1.6,4.2-0.6,6.3-0.6c1.8,0,3.7,0,5.5,0
		c8.1-0.2,16.1,0.2,24.1,0.6c0.8,0,1.7,0.3,2.5,0.5c5.1,1.2,10.1,2.7,14.9,4.8c2.7,1.2,5.2,2.7,7.5,4.6c2.3,2,4.8,3.8,7.1,5.7
		c1.3,1.1,2.6,2.2,3.2,4.1c0.5,1.6,1.8,3.1,3.3,4.3c1.7,1.3,1.8,3.1,1.2,5c-0.6,1.9-0.9,4.1-3.2,4.9c-1.8,2.4-4.6,4-6.2,6.5
		c-1.5,2.4-3.5,4-5.5,5.6c-0.8,0.6-1.6,1.2-2.4,1.8c0,2-0.8,3.5-2.6,4.8c-2.4,1.8-4.4,4.2-6.5,6.4c-1.4,1.5-2.6,3.2-2.9,5.4
		c-0.1,0.4-0.5,0.8-0.7,1.2c-2.9,1.2-5.3,0.2-7.5-1.5c-3.5-2.9-7.4-4.6-11.7-5.6c-3.7-0.9-7.5-0.6-11.2-0.5c-0.1,0-0.2,0.1-0.4,0.1
		c-6.5,0.4-11.5,3.5-16,8c-2,2.1-4.4,3.9-6.4,5.9c-3.5,3.6-5.5,8-6.5,12.8c-0.5,2.6-0.1,5.1,1,7.5c0.9,2,3.2,3,4.4,4.8
		c2.8,0.9,5.2,2.7,8.2,2.9c1.5,0.1,3,0.5,4.2,1.1c2.1,1.2,4.2,1,6.3,0.6c1.2-0.2,2.3-0.5,3.6-0.1c0.5,0.2,1.2-0.1,1.8-0.2
		c5.5-1.1,11-2,16.4-3.6c3.7-1.1,7.8-0.8,11.6-1.1c4.1-0.4,8,0.8,11.8,2c3,1,6.1,2.5,8.1,5.3c0.2,0.3,0.4,0.7,0.6,0.9
		c3.9,2.7,6.2,6.9,8.9,10.6c0.7,0.9,1.4,1.7,1.5,2.9c0.3,3.6,1.4,6.9,2.5,10.2c0.7,2.4,0.9,4.8,1.3,7.2c0.4,2.5,1,5,1.3,7.6
		c0.3,1.9,0.5,3.9,0.3,5.8c-0.3,3.1,0.3,6.4-0.7,9.5c-0.2,0.7,0,1.5,0,2.2c-0.3,5.1-1,10.1-2.6,15.1c-1.1,3.5-2.2,6.9-3.6,10.3
		c-0.7,1.7-1.7,3.2-2.8,4.6c-2.1,2.5-4.1,5-6.9,6.9c-2.4,1.6-4.6,3.5-7.1,5c-0.6,0.4-1.2,0.9-1.9,1c-4.2,1-7.9,3.1-11.9,4.4
		c-3.8,1.3-7.7,2.2-11.7,3c-4.5,0.9-9,2.1-13.5,3.2c-0.4,0.1-0.7,0.2-1.1,0.3c-4.8,0.1-9.2,2-13.9,3c-3.4,0.7-6.8,1.7-10.2,2.8
		c-2.9,0.9-5.8,1.8-8.9,1.9c-1.3,0-2.7,0.2-4,0.5c-3.7,1.1-7.4,1.5-11.2,1.3c-2.9-0.2-5.6,0.5-8.2,1.7c-4.7,2.3-9.7,3.1-14.8,4.1
		c-3.4,0.7-6.8,0-10.1-0.7c-5.3-1-10.5-2.3-15.4-4.5c-1.8-0.8-3.4-1.8-4.9-3.1c-2.3-1.8-4.5-3.7-6.8-5.6c-2.4-1.9-4.7-4.2-5.8-7.4
		c-0.3-1-1-2-1.7-2.8c-1.4-1.6-1.8-3.4-2-5.4c-0.3-4.1,0.6-8.1,2.4-11.7c2.4-4.8,4.8-9.5,7.8-14c2.5-3.7,4.9-7.5,7.6-11.1
		c1-1.4,1.4-3.1,2.3-4.5c2.6-3.9,5.9-7.1,9.2-10.4c1.1-1.1,2.2-1.6,3.6-2.2c2.4-0.9,4.5,0,5.4,1.7c2,3.5,5.6,4.6,8.4,6.7
		c1.2,0.9,2.4,1.5,3.3,2.8c1.6,2.2,4.1,3,6.6,3.7c2.2,0.7,4.4,1.4,6.6,2.3c0.7,0.3,1.4,0.7,2.1,0.7c2.5,0.1,4.6,1.3,6.8,2.4
		c2.9,1.4,6.1,1.6,9.3,1.3c3.6-0.4,7.2-1.3,10.8-1.7c2.1-0.2,4.2-1.2,5.9-2.7c0.9-0.8,1.8-1.6,2.8-2.3c4.5-3.1,6.6-7.5,8-12.6
		c1.1-3.9,0.5-7.2-1.4-10.5c-1.5-2.5-3.8-4.4-6.1-6.2c-0.4-0.3-1.1-0.4-1.7-0.5c-6.1-1.1-12.2-2.3-18.4-3.3
		c-2.3-0.3-4.7-0.3-6.9,0.1c-3.4,0.6-6.8,0.7-10.1,1c-0.4,0-0.8-0.1-1.1,0c-5.8,1.8-11.9,1.2-17.7,2.3c-0.6,0.1-1.2,0.2-1.8,0.4
		C555.4,248.4,551.8,248.6,548.2,246.8z M491,252.5c0.1,0,0.1,0,0.2-0.1C491.1,252.5,491,252.5,491,252.5c0.9-0.7,0.6-2.2,1.6-2.8
		c1.3-0.8,2.8-0.4,4.3-0.6c0.1-0.6-0.1-1.3,0.6-1.8c1.6-0.8,3.6-0.9,5.4-1.3c0.9-3.3,3.8-1.5,5.7-2.3c0.4-0.6,0.9-1.4,1.3-2
		c2.6-0.1,2.6-0.1,5.2-1.4c2-1.1,3.1-0.9,4.9,1c1.4-1.8,3.6-1.5,5.5-2.2c4.5-1.6,9-3,13.9-2.9c1.4,0,3.1-0.1,4.3-0.7
		c1.7-0.9,3.5-1,5.4-0.9c1-1,2.3-1.6,3.5-2.5c2-1.4,4.1-2.7,5.6-4.6c2.4-2.9,4.3-6.2,5.2-10c0.5-2.3,1.3-4.5,2-6.6
		c1.3-3.8,2.4-7.7,2.8-11.6c0.4-3.9,0.3-7.8,0.8-11.6c0.1-0.6,0-1.2,0-1.8c0.4-5.1-1.1-9.9-2.1-14.7c-0.8-3.8-1.6-7.6-1.9-11.5
		c-0.2-2.3,0.3-4.6-0.3-6.9c-1.4-5.6-3-11.1-5.6-16.2c-1.7-3.3-3.7-6.6-6.7-9c-0.6-0.5-1.2-0.8-1.3-1.7c-0.2-2-1.5-3.2-3.1-4.2
		c-0.8-0.5-2-0.9-2-2c0-1.6-1.2-2.3-2.2-3.1c-1.3-0.9-2.5-2-3.8-2.9c-3.2-2.2-6.4-4.4-10.3-5.5c-0.1-1.4-1-2.2-2.3-2.4
		c-1.5-0.2-3-1.6-4.4,0.3c-1.6-1.6-3.5-1.8-5.4-2.3c-2.6-0.6-5.1-0.2-7.6-0.3c-6.2-0.4-12.4-0.5-18.5,0.9c-0.2,0.1-0.5,0.1-0.7,0.1
		c-4.4-0.2-8.2,1.9-12.2,3.4c-3.1,1.2-6,2.8-9.4,2.8c-2.4,0-4.5,0.8-6.7,1.8c-4,1.9-8.7,2-12.5,4.6c-0.2,0.1-0.5,0.1-0.7,0.1
		c-2.5,0.4-4.5,1.8-6.7,2.8c-0.8,0.4-1.6,1.1-1.7,1.8c-0.3,2.5-1.3,5.1-0.2,7.5c0.6,1.2,0.4,2.2,0.2,3.5c-0.1,1.1-1.1,2.4-0.2,3.5
		c0.9,1.3,0.2,2.7,0.5,3.9c0.4,1.4,0.7,2.8,0.7,4.3c0,0.7,0.1,1.5-0.7,1.9c-0.5,0.3-0.7,0.8-0.5,1.3c0.6,1.1-0.1,2.1-0.2,3.2
		c-0.1,0.8-0.2,1.7,0.3,2.5c0.4,0,0.7,0,1.1,0c0.3,3,0.3,3-1,5.8c-0.5,0.9-0.2,1.7,0.8,2.1c0.5,0.2,0.9,0.4,0.9,0.7
		c0.2,1.5-1.2,2.1-1.1,3c0.3,1.3,0.6,2.4,0.6,3.5c0,4.3,0.4,8.7,0.7,13c0.3,4.1,0.6,8.2,0.5,12.3c0,3.7,0.1,7.3,1.3,10.8
		c0.6,1.8,0.9,3.8,0.9,5.8c0,2.1-0.1,4.2,0.2,6.2c0.9,4.9,0.7,9.9,1.2,14.8c0.1,1.3,0.4,2.7-0.1,4c-0.2,0.5-0.1,0.9,0,1.4
		c0.7,3.3,2.3,6.4,1.3,10c-0.1,0.2,0.1,0.5,0.1,0.7c1.2,4.5,1.3,9.1,0.6,13.7c-0.1,0.7,0,1.5,0.2,2.2c0.3,1.7,0.4,3.4,0.4,5.1
		c0,2.2,0,4.4,0.3,6.6c0.4,2.4,0.2,4.9,0.1,7.3c-0.1,2.3-0.4,4.5,0.1,6.8c0.2,0.7,0.3,1.5,0.2,2.2c-0.6,3.6,0,7.3,0,10.9
		c0,2.1,0.7,4.1,0.8,6.1c0.3,5.2,0.3,10.4,1.3,15.5c0.5,2.4,0.6,4.8-0.6,7.2c1.5,1.6,1,3.5,1.1,5.4c0.3,3.6,1.4,7,0.9,10.5
		c0.9,1.3,1.9,1.6,3.3,1.5c3.1-0.2,6.3,0.1,9.4-0.2c2-0.2,4,0.8,5.8,0.1c2.4-0.9,4.5-0.3,6.7,0c0.9,0.1,1.9,0.7,2.9,0.1
		c1.1-0.7,2.1-0.3,3.2,0c3.1,0.8,8.9,0.9,12.2,0.2c0.3-0.8,0-1.4-0.3-2.1c-0.3-0.6-0.8-1.2-0.9-2c-0.8-5.2-2.1-10.3-3.5-15.3
		c-0.2-0.6-0.2-1.2-0.2-1.8c-0.6-5.9-1.1-11.9-2.1-17.7c-0.4-2.2-0.8-4.3-1-6.5c-0.3-2.5-0.7-5.1-0.4-7.6c0.3-2.4,0.4-4.9,0.6-7.3
		c0.2-2.7,0-5.3-1.2-7.7c-0.3-0.7-0.3-1.4-0.2-2.1c0.7-3.4,0-6.7-0.4-10c-0.2-2.1-0.4-4.2,0.8-6.3c-1.5-0.7-1.2-2-1.4-3.3
		c-0.2-1.6,1-2.4,1.9-3.3c-0.2-1-0.7-1.9,0.1-2.8C489.6,252.2,490.3,252.3,491,252.5z M534.2,329.1c1,0.4,2.4,0.4,2.7,2
		c0.1,0.3,0.3,0.8,0.6,0.9c2.3,0.3,3.8,2.4,5.9,3c1.2,0.4,2.6,0.7,3.8,1.1c1.4,0.4,2.8,0.8,4.3,0.6c2.9-0.3,5.8-0.6,8.7-1
		c2.4-0.4,4.8-0.5,7.3-0.4c3.5,0.2,6.9-0.4,10.2-1.6c1.2-0.5,2.5-1.2,3.9-0.9c2.6,0.5,5.1-0.1,7.6-0.1c1.9,0,3.9-0.3,5.8-0.7
		c3.4-0.9,6.9-1.6,10.4-2c1.9-0.2,3.8-0.7,5.7-1.3c6.6-2.1,13.3-4.2,20.1-5.6c1.1-0.2,2.1-0.6,3.2-0.8c4.6-1.2,9.1-2.9,13.9-3.2
		c2.3-0.1,4.6-0.7,6.7-1.8c4.1-2.2,8.4-3.8,12.9-4.8c1.1-0.2,2-0.9,2.9-1.6c2.2-1.7,4.5-3.3,6.7-5.1c1.8-1.4,3.7-2.8,4.8-5
		c2.1-4.3,3.7-8.8,4.6-13.4c0.7-3.6,1.6-7.4,1.6-11.2c0.1-3.3,1-6.5,0.9-9.8c-0.1-3.4-0.3-6.8-0.6-10.2c-0.5-4.8-1.8-9.3-3.7-13.7
		c-0.7-1.7-1.2-3.5-1.4-5.3c-0.1-0.9,0-1.7-0.5-2.5c-1.5-2.4-2.9-5-4.7-7.3c-1.3-1.7-3.4-2.8-4-5c-0.1-0.3-0.5-0.5-0.8-0.7
		c-1.3-0.9-2.6-1.9-4-2.5c-2-0.9-4.1-1.7-6.3-1.8c-2.5-0.1-5.1,0-7.6,0.2c-3,0.2-6,0.6-8.9,1.6c-3.7,1.3-7.6,1.9-11.4,2.7
		c-2.4,0.5-4.8,0.7-7.3,1c-5.4,0.5-10.6-0.8-15.9-1.3c-0.9-0.1-2-0.5-2.7-1c-1.9-1.4-4.1-2.2-6.1-3.2c-4.7-2.4-7-6.4-7.2-11.4
		c-0.2-3.8,0.1-7.6,1.7-11.1c0.4-0.9,0.7-1.8,1-2.7c0.9-3.1,2.6-5.7,4.9-8c5.2-5.3,10.9-10,17-14.3c1-0.7,2-1.4,3.3-1.5
		c2.2-0.2,4.3-0.6,6.4-1.3c2.4-0.8,4.9,0,7.3-0.3c1.8-0.2,3.7,0,5.4,0.5c3.7,0.9,7.3,1.9,11.1,2.9c0.7-0.3,1.4-0.7,2-1.3
		c2.7-2.2,5.3-4.6,8.3-6.5c1.9-1.2,3.8-2.7,5.3-4.4c2.8-3.1,5.6-6.1,8.8-8.7c2.1-1.7,4.1-3.5,6.1-5.3c0.5-0.4,0.9-0.9,0.8-1.5
		c-0.1-0.2-0.1-0.5-0.2-0.7c-1.8-2.2-3.3-4.6-5.5-6.3c-2.3-1.8-4.1-4.1-6.6-5.6c-3.5-2.2-6.9-4.6-11-5.6c-2.8-0.7-5.7-1.3-8.5-2.2
		c-2.6-0.9-5.2-1-7.9-1.1c-3.4-0.1-6.8-0.3-10.2-0.3c-3.8-0.1-7.6-0.4-11.3,0.1c-5.3,0.6-10.6,1.5-16,1.9c-1.6,0.1-3.1,0.2-4.7,0.5
		c-3.8,0.7-7.6,2-11.5,2.3c-1.3,0.1-2.6-0.1-3.5,1.3c-0.4,0.7-1.6,0.7-2.4,0.6c-1-0.2-1.9,0.2-2.9,0.3c-5.7,0.8-10.4,4.1-15.5,6.3
		c-0.9,0.4-1.3,1-1.5,2.1c0.6,1.2,1.2,2.5,1.8,3.8c1.7,3.7,2.8,7.6,3.1,11.6c0.2,3.5,1,7,0.8,10.6c-0.1,0.8,0.2,1.7,0.4,2.5
		c0.9,4.2,1.7,8.3,2.7,12.5c0.7,2.9,0.7,5.9,0.3,8.7c-0.4,2.9-0.8,5.8-0.6,8.7c0.3,3.8-0.3,7.5-0.9,11.3c-0.2,1.3-0.6,2.7-1.2,3.8
		c-1.6,2.8-2.5,5.8-3.3,8.9c-1,3.5-3.2,6.5-4.1,10c-0.1,0.2-0.2,0.5-0.4,0.6c-1.4,1-1.9,2.8-2.9,4.1c-2,2.6-4,5.1-6,7.7
		c1.4,1.6,2.9,1.8,4.9,1.3c3.6-0.9,7.3-2,11-2.2c0.8,0,1.6-0.5,2.5-0.6c1.3-0.3,2.6-0.7,4-0.7c2.6-0.1,5.1-0.6,7.6-0.9
		c3.4-0.5,6.8-0.8,10.2-0.2c7.4,1.3,15,2.2,22.3,4.4c1.4,0.4,2.9,0.7,3.9,1.8c1.7,1.8,4,3.2,5,5.7c0.4,1.1,1.7,1.4,2.3,2.5
		c0,1.3,0.2,2.6,0.9,3.8c0.4,0.7,0.6,1.6,0.6,2.5c0,3.4,0.3,6.8-1.2,10.1c-0.6,1.3-1.1,2.7-1.1,4.2c0,0.5-0.1,1.1-0.4,1.4
		c-1.9,1.8-2.3,4.4-4,6.4c-3.1,3.5-6.3,6.9-10.5,9c-2.6,1.3-5.2,2.7-8.2,2.8c-3.6,0.1-7.2,0.1-10.7-1.5c-2-1-4.3-1.8-6.7-1.7
		c-1.2,0-2.4-0.4-3.6-0.8c-2.3-0.8-4.7-1.2-7.2-1.4c-3.1-0.2-5.8-1.6-8.5-3c-1-0.6-1.8-1.5-2.8-2.2c-1.7-1.1-3.6-1.6-5.2-3
		c-1.6-1.4-3.7-2.3-5.5-3.5c-2.2-1.5-4.3-3.2-6.3-4.8c-2,0.1-3.6,0.8-4.7,2.5c-0.3,0.5-0.9,0.8-1.3,1.3c-1.7,1.9-3.5,3.8-4.9,5.9
		c-2.2,3.5-4.3,7.1-6.1,10.8c-1,2-2.9,3.5-2.9,5.9c-1.4,0.7-1.6,2-1.8,3.3c-0.1,0.6-0.4,1.2-1,1.4c-0.4,0.2-0.9,0.3-1,0.9
		c-0.5,2-0.5,4.3-2.4,5.8c0.7,2.2-1.3,3.8-1.3,5.9c0,1.2-0.2,2.4,0.4,3.6c1,0.7,2.4,1.1,2.9,2.1c1,1.9,2.7,2.7,4.3,3.8
		c0.7,0.5,1.3,1.1,1.8,1.8C532.4,325.8,533.3,327.4,534.2,329.1z"/>
	<path class="st0" d="M6,443.3c0.2-0.5,0.3,0.2,0.1-0.2C5.9,442.9,5.8,443,6,443.3L6,443.3z"/>
	<path class="st0" d="M5.9,443.2c0.1,0,0.2,0.1,0.3,0.1C6.2,443,6.1,443,5.9,443.2L5.9,443.2z"/>
	<path class="st1" d="M77.6,216.8c0.2-0.8,0.9-1.1,1.5-1.5c1.7-1.3,2.8-3,3.3-5.1c0.4-1.4,0.8-2.8,1.9-3.9c0.6-0.6,0.8-1.4,1-2.3
		c0.5-2,1.2-3.8,2.9-5.2c1.2-0.9,1-2.7,1.6-4c0.3-0.6-0.3-1.1-0.7-1.8c0.3-1.1,1.7-2,1.3-3.5c1.7-2.4,1.3-5.3,2.1-7.9
		c1-3.4,1.3-6.9,2.5-10.2c0.5-1.4,1-2.7,1.9-3.8c1.8-2.2,3.2-4.7,5.9-5.8c0.2-0.1,0.5-0.3,0.5-0.5c1.4-3.3,4.6-5,6.5-7.9
		c1.4-2.1,3.4-3.8,5.2-5.6c0.7-0.8,1.5-1.5,2.1-2.5c1.2-2.1,1.3-2.1,4-1.6c0.7-0.4,0.8-1.2,1.3-1.7c1.3-1.5,1.4-3.3,0.5-4.7
		c-1.2-1.8,0.2-2.6,0.5-3.9c1.2,0.7,0.6,1.3,0.7,1.8c0,0.3,0.4,0.7,0.7,0.8c0.3,0.1,0.9-0.1,1-0.3c1-2.5,3.3-4.4,3.8-7.1
		c-0.7-0.8-1.2-0.2-1.8-0.1c-0.7,0-1.1-0.3-1-1.1l-0.1,0c0.6-0.1,1.3-0.2,1.3-1c0-1.5,0.5-2.9,0.8-4.3c0.6-0.1,1.2-0.1,1.7-0.2
		c0.2,0,0.4-0.3,0.6-0.4c0.4-0.8-0.4-1.4-0.3-2.1c2.9-4,4.3-8.8,7.2-12.6c2.9-3.8,4.8-8.2,8.7-11.6c1.4-0.2,3.3-0.4,4.2-2.4
		c-0.3-1.5-1.6,0.3-2-0.6c0.1-0.2,0.1-0.5,0.3-0.6c3.5-2.1,7.3-1.7,11-1.5c4.6,0.3,9.2,1.1,13.8,1.4c3.1,0.2,5.8,1.8,8.7,2.7
		c0.3,0.1,0.7,0.3,0.9,0.6c1.5,2.6,3.6,5,3.7,8.2c0.1,3.2,1,6.3,0.9,9.5c-0.1,1.9,1.3,3.4,1.8,4.8c1.1,1,2.3,0.3,3.4,0.7
		c0.1,0.3,0.3,0.6,0.4,0.9c1.1,3.2,2.1,6.5,3.9,9.4c0.3,0.4,0.5,0.9,0.6,1.3c0.5,4.4,2.2,8.5,3.9,12.4c1.6,3.6,2.6,7.3,3.3,11.1
		c1,4.8,2.8,9.4,4.7,13.8c1.1,2.6,2.4,5.3,4,7.7c1.6,2.4,2.7,5.2,3.8,7.9c1.7,4.2,4,8.1,6.9,11.6c1,1.2,1.9,2.5,2.8,3.8
		c3.3,5.4,7.2,10.4,10.6,15.7c2.1,3.4,4.3,6.9,7.2,9.6c2.3,2.2,4.1,4.8,6.6,6.7c1.5,1.2,2.8,2.7,3.8,4.4c2.4,4.1,5.2,7.8,7.7,11.9
		c0.9,1.5,2.8,2.6,4.5,3.5c2.6,1.5,3.9,3.5,3.8,6.5c-0.1,4.1-0.9,8.1-1,12.2c-0.2,4.5-1.3,8.9-1.3,13.4c0,2.9-0.4,5.8-0.9,8.7
		c-0.8,4.6-0.4,9.3-0.6,13.9c-0.1,3.1,0,6.3-0.6,9.4c-0.5,2.2-0.1,4.6-0.2,6.9c-0.1,4.3,0.4,8.5-0.3,12.8c-0.1,0.5-0.2,0.9-0.4,1.5
		c-3.3,0.9-6.5,2.1-8.9,4.6c-0.6,0.6-1.5,0.8-2.4,0.8c-3.8,0.4-7.4,1.5-11,2.6c-3.5,1.1-7,1.6-11,1.6c1-3.1,1.9-5.8,2.9-8.5
		c1-2.6,1.7-5.3,2-8.1c0.3-2.7,1-5.2,1.7-7.8c1.3-4.6,2.4-9.2,2.7-14c0.2-3.3-0.6-6.5-1.6-9.6c-0.9-2.9-2.4-5.5-3-8.6
		c-0.5-2.7-1.9-5.3-3.8-7.4c-1.3-1.5-3.3-2.4-4.8-3.8c-4-3.7-8.8-4.2-14-3.8c-6.8,0.5-13.5,1.9-20.2,3.4c-1.5,0.3-2.9,0.4-4.4,0.4
		c-3.5,0.1-6.9,0.9-10.4,1.7c-3.2,0.8-6,2.6-9.3,3.1c-3.1,0.4-6.1,1.5-9.2,2.3c-2.6,0.7-5.3,0.7-7.9,1.2c-4.4,0.9-8.7,1.9-12.9,3.8
		c-4.8,2.2-10,3.7-15,5.5c-1.1,0.4-2.1,0.5-2.6,1.7c-0.4,0.8-1.4,0.2-2.1,0.6c-0.8,1,0.1,2.9-1.8,3.4c-0.6-0.6,0-1.1,0.1-1.7
		c-0.5-0.6-1.1-1-1.8-0.5c-0.7,0.5-1.5,0.9-2,1.5c-0.8,1-1.9,1.4-2.9,2c-0.5,0.6-0.3,1.2-0.1,1.8c0.6,1.3,0.4,2.9-0.1,3.9
		c-1.4,2.8-1,5.7-1.3,8.6c-0.2,1.7,0.6,3.3,0.8,5c0.5,4.2,1.4,8.4,2.1,12.6c0.3,1.8,0.7,3.6,1.7,5.2c0.2,0.3,0.2,0.7-0.3,1.2
		c-1.2,0.3-2.4-0.5-3.6-0.9c-2.8-1-5.5-1.8-8.4-2.3c-4-0.7-7.5-2.8-11.2-4.3c-3.5-1.4-7-2-10.7-2.2c-2.6-0.1-5.1,0.1-7.7-0.3
		c-3.3-0.5-6.6,0-9.8,0.6c-7,1.4-14,1.4-21.1,1.7c-5.1,0.2-10.2,0.7-15.1,2.5c-2.7,1-5.6,1.7-8.3,2.9c-1,0.5-2.1,0.7-3.2,0.7
		c-2.6,0.2-5.3,0.7-7.8,0.4c-0.7-0.7-0.5-1.3-0.3-1.9c1.9-4.8,2.8-9.8,3.6-14.9c0.6-3.4,1.3-6.7,1.8-10.1c0.4-3,0.7-6,0.9-9.1
		c0.2-2,0.5-3.9,1.6-5.5c0.4-0.6,0.6-1.3,0.6-2.1c-0.2-4.4,1.6-8.1,4.5-11.1c1.7-1.8,3.4-3.5,5-5.3c1-1.1,1.9-2.2,2.7-3.4
		c1-1.6,2.5-2.9,3.8-4.4c1.4-1.6,2.7-3.4,4.1-5.1c1.2-1.5,1.9-3.4,3.8-4.2c0.4-0.2,0.8-0.6,1-1c2.9-5.3,7.2-9.5,11.5-13.6
		c2.7-2.6,5-5.6,7.3-8.5c1.2-1.5,2.6-2.9,4-4.3c1.3-1.3,2.8-2.7,3.5-4.6c0.5-1.5,1.6-2.7,2.8-3.8c0.9-0.8,1.8-1.6,2.1-2.9
		c0.3-1.5,2.3-1.4,2.6-2.9C75.8,218.8,76.4,217.7,77.6,216.8c0,0,0,0.1,0,0.1C77.4,217.1,77.4,217,77.6,216.8z M159.4,176
		c-1.1,2.3-2.7,4.4-4.2,6.6c-1.6,2.3-2.8,4.8-3.8,7.5c-0.6,1.6-1.2,3.2-2.3,4.5c-0.4,0.6-0.7,1.3-1,1.9c-1.9,4-3.1,8.5-7.1,11.2
		c-0.6,0.4-1,1.4-1.4,2.1c-0.5,1.2-0.9,2.5-1.5,3.7c-1.2,2.9-2.4,5.8-4.3,8.4c-1,1.2-1.8,2.8-2.3,4.5c-0.8,3.1-2.1,6-3.3,8.9
		c-1.2,2.9-3.9,5.1-4,8.4c0,0.3-0.6,0.4-0.8,0.7c-1.1,1.3-2,2.6-1.2,4.4c0.5,1.2-0.1,1.8-1.3,2.1c-0.1,0-0.2,0.4-0.3,0.6
		c0.2,1.1,1.9,0.6,1.8,2c-0.6,1.3-1.5-0.1-2.2,0.2c-1.1,1.5-1.4,3.4-2.4,4.7c-1.5,1.7-1.8,3.6-2.1,5.5c0.7,1.5,1.9,1.9,3.1,1.9
		c4.2,0,8.5-0.2,11.9-3.3c0.3-0.2,0.7-0.5,1-0.5c1.5,0.2,3.1-0.9,4.5,0.1c1.1-0.8,1.7-2.3,2.9-2.4c2.3-0.2,4.4-1.4,6.6-1.8
		c1.6-0.3,3.1-0.8,4.6-1.1c3.9-0.8,7.6-2.4,11.6-3.1c1.8-0.3,3.7,0,5.4-0.4c4-1,7.9-1.8,12.1-1.8c8.4,0,16.8,0.2,25.2,0.9
		c1.9,0.1,3.9,0.5,5.8,0.5c3.1,0,6-0.7,8.4-2.8c0.1-1,0.3-1.9-0.6-2.4c-1.2-0.6-1.6-1.6-2.2-2.7c-1-2-1.9-4.3-4.5-4.9
		c-0.6-0.2-1.2-0.8-1.7-1.3c-4-3.6-7.4-7.7-10.3-12.2c-0.6-0.9-1.1-1.9-1.9-2.6c-2-1.9-2.6-4.7-4.3-6.8c-1.7-2.1-4.2-3.4-5.7-5.7
		c-0.1-0.1-0.1-0.2-0.2-0.3c-2-2.3-3.3-5.1-5.9-6.9c-0.4-0.3-0.6-0.8-0.8-1.2c-2.6-4.7-6.1-8.8-9.7-12.7c-2.1-2.3-3.5-5-3.9-8.1
		c-0.3-2.2-1-4.2-1.5-6.3C162.9,175,162.9,175,159.4,176z"/>
	<path class="st1" d="M419.8,267.2c0.2,6.5,0.1,12.6,0.5,18.6c0.2,2.4-0.5,4.8,0,7.2c0.2,1,0,2.4-0.7,3.5c-0.2,0.3-0.3,0.8-0.2,1
		c1.3,1.8,0.1,3.7,0.2,5.5c0.2,2.2,0,4.3-0.2,6.5c-0.7,9.4-0.4,9.9,1.1,20.1c0.4,2.6,0.3,5.1-1.1,7.5c0.8,1.4,0.9,2.8,0.5,4.2
		c-0.4,1.2-0.4,2.4-0.5,3.6c-0.2,1.3,0.5,2.4,0.6,3.4c-0.3,0.8-0.7,1.2-1.4,1.4c-7.1,2-14.3,3.2-21.5,4.2c-1.3,0.2-2.7,0.3-4,0.3
		c-5.2,0.3-10.5,0.6-15.7,0.8c-1.1,0.1-2.2,0.2-3.3,0.1c-7.5-0.8-15.1,0-22.7-0.9c-2.4-0.3-4.9,0.1-7.3,0.1
		c-6.8,0-13.6-0.5-20.5,0.2c-2,0.2-4.1-0.2-6.2-0.4c-2.3-0.2-4.6,0-6.9,0.4c-4.3,0.8-8.6,1.4-13.1,1c-2.2-0.2-4.6-0.6-6.7,1.1
		c-0.4,0.3-1.2,0.2-1.8,0.3c-3.8,0.7-7.8,0.7-11.5,1.8c-0.7,0.2-1.5,0-2.4,0c-0.7-1.3-0.5-2.7-0.4-4.1c0.1-1.6,0.2-3.2-0.3-4.7
		c-0.6-1.9-0.5-3.9,0.4-5.8c-2.6-2.9-1.7-6.4-1.3-9.7c0.4-3,0.9-5.9,0.6-9c-0.4-5.4,0.4-10.7,0.7-16.1c0.2-2.8,0.8-5.5,0.1-8.3
		c-0.3-1.1,0.3-2.4,0.3-3.6c0.2-6.1,1-12.1,1.1-18.3c0.1-3.6,0.9-7.2,1.5-10.8c0.9-5.4,1.5-10.8,1.9-16.3c0.1-1,0-2,0.4-2.9
		c1.6-4,1.4-8.1,1.1-12.3c-0.2-3.4,0.3-6.8-0.5-10.2c1-2.4,0.7-5,0.8-7.6c0.1-1.8-0.1-3.6-0.6-5.4c-0.7-2.5-0.5-5.2-0.2-7.6
		c0.4-3.2-0.3-6.3-0.5-9.4c-0.2-3.6-0.7-7.3-1.1-10.9c-0.4-3.8-0.8-7.5-0.8-11.3c0-1.2-0.3-2.5-0.9-3.5c-1.4-3.1-1.3-6.4-1.9-9.6
		c-1-5.1-0.7-10.2-1.6-15.3c-0.2-1-0.4-1.9-0.6-2.9c1.9-0.9,3.7-1.8,5.6-2.6c1.2-0.5,2.4-0.4,3.6-0.1c1.6,0.5,3.1,0.3,4.7,0
		c2.3-0.4,4.6-0.1,6.9-0.2c2.9,0,5.9,0.1,8.6-1.1c0.3-0.1,0.8-0.3,1-0.2c2,1.1,4.3,0.5,6.4,1.3c2.6,1,5.5,1.1,8.3,0.8
		c1.4-0.2,2.9-0.5,4-0.2c1.1-0.2,0.5-1.3,0.9-1.3c1.4,0,1.8,0.5,2.6,1.1c-0.2,2.9-0.6,5.8-0.4,8.7c0.1,1.2-0.2,2.5,0.3,3.6
		c0.1,0.2,0.2,0.5,0.1,0.7c-0.8,3.6,0.1,7.4-0.6,10.9c-0.8,4.1-1,8.1-0.9,12.2c0,1.7-0.1,3.4-0.3,5.1c-0.5,3.7-0.6,7.5-0.4,11.3
		c0.1,1,0.1,2,0,2.9c-0.7,5.7-0.3,11.4-0.7,17.2c-0.4,4.6-0.7,9.2-0.8,13.9c-0.1,3.3-0.6,6.6-1.4,9.7c-1.2,5.3-1,10.7-0.4,16
		c0.3,2.3-0.3,7.6-1,10c-0.6,2.2-1,4.5-0.9,6.8c0.1,1.7,0,3.4,0,5c1.1,1.3,2.7,1.5,3.7,2.4c2.7,2.3,5.7,2.3,8.9,2.2
		c1.9,0,3.9-0.4,5.8-0.6c3.9-0.3,7.6-1.5,11.4-2c3-0.4,6-1,8.9-2c3.3-1.2,6.9-1.6,10.5-1.6c3.3,0,6.6-0.4,9.8-1
		c1.2-0.2,2.4-0.5,3.6-0.4c3.7,0.2,7.2-0.8,10.9-1.2c5.9-0.7,11.7-2.3,17.7-2.6C413.1,267.3,416.3,267.4,419.8,267.2z"/>
	<path class="st1" d="M377.1,176.8c-1,1.2-2.6,2-3.2,4.1c2.4-1,4.2-2.1,6.3-2.7c2.4-0.8,4.8-0.5,7.2-0.7c1.5-0.1,2.5,1.1,3.5,1.8
		c4.4,3,4.9,4.6,3.7,9.9c-0.2,0.9-0.4,1.9-1,2.9c-2.1,0.1-4.3-0.6-6.4,0.1c-2.1,0.6-4.1,1.4-6.4,2.2c-1.6-2.5-4.3-3.8-6.5-5.6
		c-2.8-2.3-6.2-2.7-9.5-0.6c-1.8,1.2-3.7,2.3-5.6,3.4c-1.1,0.6-1.9,1.5-2.2,2.8c-0.4,2.2-1.7,4.3-0.9,6.8c0.5,1.6,1.4,2.5,2.7,3.2
		c0.9,0.5,1.8,0.5,2.8,0c1.5-0.8,2.9-1.7,4.1-3c1.6-1.8,3.5-3.1,6.1-2.3c0.8,0.2,1.6-0.8,2.7,0c-0.9,1.6-1.7,3.2-2.6,4.8
		c-2.2,3.8-4.3,7.6-3.9,12.2c0.4,4.9,2.4,8.8,6.5,11.7c0.5,0.3,1.3,0.5,1.5,0.9c1.1,2.4,3.2,2.7,5.5,2.9c0.6,0.1,1.2,0.1,1.8,0.7
		c-0.8,1.8-2.6,2.8-4.1,3.8c-0.6,0.4-1.2,0.7-1.6,1.4c-2,3.1-5.5,3.9-8.5,5.3c-1.1,0.5-2.4,0.3-3.6-0.2c-1.1-0.5-2.3-0.9-3.5-0.4
		c-1.1,0.7,0.4,1.9-0.5,2.7c-4.4,0.2-10.9-5.2-10.8-9.7c0-1.3-0.4-2.6-0.6-4c-0.2-1.9,0.7-3,2.5-3.3c0.7-0.1,1.5,0,2.2-0.1
		c1.7-0.2,1.9-0.6,2.2-3c-1.1-0.5-2.2-0.3-3.2-0.1c-4.5,0.7-8.4-1.1-12.1-3.2c-1.4-0.8-2.1-2.4-2.9-3.7c-2.5-3.7-2.4-4.7-1.9-9.1
		c0.4-3.5,2-6.5,3.3-9.6c0.1-0.2,0.2-0.5,0.3-0.6c2.9-2.7,5.2-6.1,8.6-8.3c1.3-0.9,2.9-1.1,4.3-1.4c0.2-1.1-0.5-1.2-1-1.4
		c-1.6-0.4-3.1,0-4.9,0.7c-0.3-2.9-1.4-5.3-1.4-8c0-2.8,1-4.9,2.8-6.9c1.2-1.2,2.4-2.4,3.6-3.6c0.7-0.7,1.4-1.5,2.4-1.6
		c3.8-0.3,7.7-1.3,11.4,0.9c2.5,1.5,5.1,2.8,7.5,4.5c1.4,1,2.3,2.5,3.5,3.7L377.1,176.8z"/>
	<path class="st1" d="M383.3,225.1c-2,0-3.6,0.4-5-0.8c-1.8-1.6-3.7-3.2-4.6-5.6c-1.6-4.3-0.4-8.1,1.5-11.9c1.3-2.5,3.1-4.8,5.2-6.5
		c3.4-2.7,7.7-4.4,11.9-2.1c3.3,1.7,6.2,4.3,6.4,8.7c0.1,2.3-0.2,4.6,0.6,6.9c0.4,1-0.2,2-0.7,2.7c-1.2,1.8-2.5,3.6-3.8,5.3
		c-1.3,1.7-3.2,2.7-5.3,2.9C387.3,224.8,385.1,225,383.3,225.1z"/>
	<path class="st1" d="M401.2,221c1.4-2.4,0.6-5.3,1.5-7.8c0.9-2.7-0.2-5-0.6-7.4c-0.5-2.6-0.7-5.3-2.3-7.4c0.1-1.2,0.6-1.7,1.6-2
		c1.4-0.4,2.8-0.7,4.3-0.7c1.2,0,2.4,0,3.6-0.1c2.7-0.3,4.8,0.5,6.4,2.7c0.9,1.3,1.9,2.5,2.9,3.7c2.1,2.6,1.6,5.7,1.3,8.7
		c-0.2,2-0.9,4.1-2.6,5c-1.8,1-3.5,2.3-5,3.5c-2.3,1.9-5.1,2.1-7.6,3C403.3,222.7,402.2,221.9,401.2,221z"/>
	<path class="st1" d="M534.2,329.1c-1-1.7-1.8-3.3-2.8-4.8c-0.4-0.7-1-1.3-1.8-1.8c-1.6-1.1-3.3-1.9-4.3-3.8
		c-0.5-0.9-1.9-1.4-2.9-2.1c-0.6-1.2-0.4-2.4-0.4-3.6c0.1-2.1,2-3.7,1.3-5.9c1.9-1.5,1.9-3.8,2.4-5.8c0.2-0.6,0.6-0.7,1-0.9
		c0.6-0.3,1-0.9,1-1.4c0.2-1.4,0.4-2.6,1.8-3.3c0.1-2.4,2-3.9,2.9-5.9c1.8-3.7,3.9-7.3,6.1-10.8c1.4-2.1,3.2-3.9,4.9-5.9
		c0.4-0.5,0.9-0.8,1.3-1.3c1.1-1.7,2.7-2.4,4.7-2.5c2.1,1.6,4.1,3.3,6.3,4.8c1.8,1.3,3.9,2.1,5.5,3.5c1.6,1.4,3.5,2,5.2,3
		c1,0.7,1.8,1.6,2.8,2.2c2.7,1.5,5.3,2.8,8.5,3c2.4,0.2,4.8,0.6,7.2,1.4c1.1,0.4,2.4,0.8,3.6,0.8c2.4,0,4.6,0.8,6.7,1.7
		c3.5,1.6,7,1.6,10.7,1.5c3-0.1,5.6-1.5,8.2-2.8c4.2-2.1,7.4-5.5,10.5-9c1.7-1.9,2.1-4.6,4-6.4c0.3-0.3,0.3-0.9,0.4-1.4
		c0-1.5,0.5-2.9,1.1-4.2c1.6-3.2,1.2-6.7,1.2-10.1c0-0.9-0.2-1.7-0.6-2.5c-0.7-1.2-0.8-2.5-0.9-3.8c-0.6-1.1-1.8-1.4-2.3-2.5
		c-1-2.5-3.3-3.9-5-5.7c-1-1.1-2.5-1.4-3.9-1.8c-7.3-2.2-14.8-3.1-22.3-4.4c-3.4-0.6-6.8-0.3-10.2,0.2c-2.5,0.4-5.1,0.8-7.6,0.9
		c-1.3,0-2.6,0.4-4,0.7c-0.8,0.2-1.6,0.6-2.5,0.6c-3.8,0.2-7.4,1.2-11,2.2c-2,0.5-3.6,0.4-4.9-1.3c2-2.5,4.1-5.1,6-7.7
		c1-1.3,1.5-3.1,2.9-4.1c0.2-0.1,0.3-0.4,0.4-0.6c0.9-3.5,3.1-6.5,4.1-10c0.8-3,1.7-6.1,3.3-8.9c0.6-1.1,1-2.5,1.2-3.8
		c0.6-3.7,1.1-7.4,0.9-11.3c-0.2-2.9,0.2-5.8,0.6-8.7c0.4-2.8,0.4-5.8-0.3-8.7c-0.9-4.2-1.8-8.3-2.7-12.5c-0.2-0.8-0.5-1.7-0.4-2.5
		c0.2-3.6-0.6-7-0.8-10.6c-0.2-4-1.3-7.9-3.1-11.6c-0.6-1.3-1.2-2.6-1.8-3.8c0.2-1.1,0.6-1.7,1.5-2.1c5.1-2.2,9.8-5.4,15.5-6.3
		c1-0.1,1.8-0.5,2.9-0.3c0.8,0.1,2,0.1,2.4-0.6c0.9-1.5,2.3-1.3,3.5-1.3c3.9-0.3,7.6-1.6,11.5-2.3c1.6-0.3,3.1-0.4,4.7-0.5
		c5.4-0.4,10.7-1.3,16-1.9c3.7-0.4,7.6-0.1,11.3-0.1c3.4,0.1,6.8,0.2,10.2,0.3c2.7,0.1,5.3,0.2,7.9,1.1c2.8,0.9,5.6,1.5,8.5,2.2
		c4.1,1.1,7.5,3.4,11,5.6c2.5,1.6,4.3,3.9,6.6,5.6c2.2,1.7,3.7,4.2,5.5,6.3c0.1,0.2,0.1,0.5,0.2,0.7c0.1,0.7-0.4,1.1-0.8,1.5
		c-2,1.8-4,3.6-6.1,5.3c-3.2,2.6-6,5.7-8.8,8.7c-1.5,1.7-3.4,3.2-5.3,4.4c-3,1.9-5.6,4.3-8.3,6.5c-0.7,0.6-1.4,1-2,1.3
		c-3.8-1-7.4-2-11.1-2.9c-1.8-0.5-3.6-0.7-5.4-0.5c-2.4,0.3-4.9-0.5-7.3,0.3c-2.1,0.7-4.2,1.2-6.4,1.3c-1.3,0.1-2.3,0.8-3.3,1.5
		c-6.1,4.2-11.8,8.9-17,14.3c-2.2,2.3-3.9,4.9-4.9,8c-0.3,0.9-0.6,1.9-1,2.7c-1.6,3.6-1.9,7.3-1.7,11.1c0.3,5.1,2.6,9,7.2,11.4
		c2,1.1,4.3,1.8,6.1,3.2c0.7,0.6,1.8,0.9,2.7,1c5.3,0.6,10.6,1.8,15.9,1.3c2.4-0.2,4.9-0.5,7.3-1c3.8-0.8,7.7-1.4,11.4-2.7
		c2.9-1,5.9-1.4,8.9-1.6c2.5-0.2,5.1-0.3,7.6-0.2c2.2,0.1,4.3,0.9,6.3,1.8c1.4,0.6,2.7,1.6,4,2.5c0.3,0.2,0.7,0.4,0.8,0.7
		c0.7,2.3,2.7,3.3,4,5c1.7,2.3,3.2,4.8,4.7,7.3c0.5,0.8,0.4,1.6,0.5,2.5c0.2,1.8,0.6,3.6,1.4,5.3c1.9,4.4,3.3,8.9,3.7,13.7
		c0.3,3.4,0.5,6.8,0.6,10.2c0.1,3.3-0.8,6.5-0.9,9.8c-0.1,3.8-0.9,7.5-1.6,11.2c-1,4.6-2.5,9.1-4.6,13.4c-1.1,2.2-3,3.5-4.8,5
		c-2.2,1.8-4.5,3.3-6.7,5.1c-0.9,0.7-1.8,1.3-2.9,1.6c-4.6,1-8.8,2.6-12.9,4.8c-2.1,1.1-4.4,1.6-6.7,1.8c-4.8,0.3-9.3,1.9-13.9,3.2
		c-1.1,0.3-2.1,0.6-3.2,0.8c-6.8,1.4-13.5,3.5-20.1,5.6c-1.9,0.6-3.8,1.1-5.7,1.3c-3.5,0.4-7,1.2-10.4,2c-1.9,0.5-3.8,0.8-5.8,0.7
		c-2.5,0-5.1,0.6-7.6,0.1c-1.4-0.3-2.6,0.5-3.9,0.9c-3.3,1.2-6.7,1.8-10.2,1.6c-2.4-0.1-4.8,0-7.3,0.4c-2.9,0.4-5.8,0.7-8.7,1
		c-1.5,0.2-2.9-0.1-4.3-0.6c-1.3-0.4-2.6-0.7-3.8-1.1c-2.1-0.6-3.5-2.7-5.9-3c-0.2,0-0.5-0.6-0.6-0.9
		C536.6,329.5,535.3,329.5,534.2,329.1z"/>
	<path class="st1" d="M491,252.5c-0.7-0.2-1.4-0.3-2.1,0.1c-0.8,0.9-0.3,1.9-0.1,2.8c-0.9,1-2.1,1.7-1.9,3.3
		c0.2,1.3-0.1,2.7,1.4,3.3c-1.1,2.1-1,4.2-0.8,6.3c0.4,3.3,1.1,6.6,0.4,10c-0.2,0.8-0.2,1.4,0.2,2.1c1.1,2.5,1.4,5,1.2,7.7
		c-0.2,2.4-0.3,4.9-0.6,7.3c-0.3,2.5,0.2,5.1,0.4,7.6c0.2,2.2,0.6,4.3,1,6.5c1,5.9,1.5,11.8,2.1,17.7c0.1,0.6,0.1,1.2,0.2,1.8
		c1.4,5,2.6,10.1,3.5,15.3c0.1,0.8,0.5,1.3,0.9,2c0.3,0.7,0.6,1.3,0.3,2.1c-3.3,0.7-9.1,0.6-12.2-0.2c-1.1-0.3-2.1-0.6-3.2,0
		c-0.9,0.6-1.9,0-2.9-0.1c-2.2-0.3-4.3-0.9-6.7,0c-1.8,0.7-3.8-0.3-5.8-0.1c-3.1,0.3-6.3,0-9.4,0.2c-1.4,0.1-2.4-0.2-3.3-1.5
		c0.5-3.4-0.6-6.9-0.9-10.5c-0.1-1.9,0.4-3.8-1.1-5.4c1.2-2.4,1.1-4.9,0.6-7.2c-1-5.1-1-10.3-1.3-15.5c-0.1-2.1-0.9-4-0.8-6.1
		c0-3.6-0.6-7.3,0-10.9c0.1-0.7-0.1-1.5-0.2-2.2c-0.5-2.3-0.2-4.5-0.1-6.8c0.1-2.4,0.2-4.8-0.1-7.3c-0.3-2.2-0.3-4.4-0.3-6.6
		c0-1.7,0-3.4-0.4-5.1c-0.1-0.7-0.3-1.5-0.2-2.2c0.7-4.6,0.6-9.2-0.6-13.7c-0.1-0.2-0.2-0.5-0.1-0.7c1-3.5-0.6-6.7-1.3-10
		c-0.1-0.5-0.2-0.9,0-1.4c0.5-1.3,0.3-2.7,0.1-4c-0.4-4.9-0.3-9.9-1.2-14.8c-0.4-2-0.2-4.1-0.2-6.2c0-2-0.3-3.9-0.9-5.8
		c-1.2-3.5-1.4-7.1-1.3-10.8c0-4.1-0.2-8.2-0.5-12.3c-0.3-4.3-0.8-8.6-0.7-13c0-1.1-0.4-2.1-0.6-3.5c0-0.9,1.3-1.6,1.1-3
		c0-0.3-0.5-0.5-0.9-0.7c-1-0.4-1.2-1.2-0.8-2.1c1.4-2.8,1.4-2.8,1-5.8c-0.4,0-0.7,0-1.1,0c-0.5-0.8-0.4-1.6-0.3-2.5
		c0.1-1.1,0.8-2.1,0.2-3.2c-0.2-0.4,0-1,0.5-1.3c0.8-0.5,0.7-1.2,0.7-1.9c0-1.5-0.3-2.9-0.7-4.3c-0.3-1.2,0.5-2.6-0.5-3.9
		c-0.8-1.1,0.1-2.4,0.2-3.5c0.1-1.2,0.3-2.3-0.2-3.5c-1.2-2.5-0.1-5,0.2-7.5c0.1-0.8,0.9-1.5,1.7-1.8c2.2-1,4.3-2.4,6.7-2.8
		c0.2,0,0.5,0,0.7-0.1c3.8-2.6,8.5-2.7,12.5-4.6c2.1-1,4.3-1.8,6.7-1.8c3.4-0.1,6.3-1.7,9.4-2.8c4-1.5,7.8-3.6,12.2-3.4
		c0.2,0,0.5-0.1,0.7-0.1c6.1-1.4,12.3-1.3,18.5-0.9c2.5,0.2,5.1-0.3,7.6,0.3c1.9,0.5,3.8,0.7,5.4,2.3c1.4-2,2.9-0.6,4.4-0.3
		c1.3,0.2,2.2,1,2.3,2.4c3.9,1.1,7.1,3.3,10.3,5.5c1.3,0.9,2.5,1.9,3.8,2.9c1.1,0.8,2.2,1.5,2.2,3.1c0,1.1,1.1,1.5,2,2
		c1.6,1,2.9,2.2,3.1,4.2c0.1,0.9,0.7,1.2,1.3,1.7c3,2.4,5,5.7,6.7,9c2.6,5.1,4.2,10.6,5.6,16.2c0.6,2.3,0.2,4.6,0.3,6.9
		c0.3,3.9,1.1,7.7,1.9,11.5c1.1,4.9,2.5,9.7,2.1,14.7c-0.1,0.6,0,1.2,0,1.8c-0.5,3.9-0.5,7.8-0.8,11.6c-0.4,4-1.4,7.9-2.8,11.6
		c-0.8,2.2-1.5,4.4-2,6.6c-0.8,3.8-2.8,7.1-5.2,10c-1.5,1.8-3.6,3.2-5.6,4.6c-1.2,0.8-2.5,1.5-3.5,2.5c-2-0.1-3.7,0-5.4,0.9
		c-1.2,0.6-2.9,0.7-4.3,0.7c-4.9-0.1-9.4,1.3-13.9,2.9c-1.9,0.7-4.2,0.4-5.5,2.2c-1.8-1.9-2.9-2.1-4.9-1c-2.6,1.3-2.6,1.4-5.2,1.4
		c-0.5,0.7-0.9,1.4-1.3,2c-1.9,0.8-4.8-1-5.7,2.3c-1.8,0.4-3.8,0.5-5.4,1.3c-0.7,0.5-0.5,1.2-0.6,1.8c-1.5,0.2-3-0.2-4.3,0.6
		C491.6,250.3,491.9,251.8,491,252.5L491,252.5z M482.5,151c-0.8,1.4-2.2,2.4-1.9,4.2c0.7,5.2,0.7,10.4,1,15.6
		c0,0.5,0.1,1.1-0.1,1.4c-1.2,1.8-0.6,3.7-0.5,5.6c0.1,2.3,0.2,4.6-0.2,6.9c-0.2,1-0.4,2-0.2,2.9c0.6,1.9,0.3,3.9,0.4,5.8
		c0.2,2.9-0.1,5.8,0.4,8.8c0.3,1.7,0.4,3.4-0.1,5.1c-0.2,0.7-0.4,1.4,0.1,2.2c0.8,0.7,2.2,0.9,1.9,2.6c-0.1,0.7,0.7,1.3,1.5,1.4
		c0.8,0.1,1.7,0.2,2.6,0.1c3-0.4,6.1-1.2,8.7-2.6c4.3-2.3,9-3.8,12.9-6.8c0.4-0.3,0.8-0.8,1.2-0.8c2.3,0.3,3.3-1.7,4.8-2.2
		c0.5-1.1-0.7-1-0.6-1.8c0.3-0.4,0.7-1,1.2-1.3c1.3-0.6,2-1.7,3-2.5c1.9-1.6,2.5-4.1,4.4-5.7c0.4-0.4,0.7-1,0.9-1.6
		c0.9-2.2,1.8-4.5,2.8-6.7c1-2.3,1.2-4.7,1.2-7.1c-0.1-3.5-0.6-7-1.7-10.4c-1.9-5.9-5.9-9.6-11.6-11.1c-4.7-1.2-9.6-2-14.5-2.1
		C494.3,150.9,488.6,151,482.5,151z"/>
	<path class="st0" d="M159.4,176c3.5-1,3.5-1,6.1,0.2c0.5,2,1.2,4.1,1.5,6.3c0.4,3.1,1.7,5.8,3.9,8.1c3.7,3.9,7.1,8,9.7,12.7
		c0.2,0.4,0.5,0.9,0.8,1.2c2.6,1.8,3.9,4.7,5.9,6.9c0.1,0.1,0.1,0.2,0.2,0.3c1.5,2.3,4,3.6,5.7,5.7c1.7,2.1,2.3,4.9,4.3,6.8
		c0.8,0.8,1.3,1.7,1.9,2.6c2.9,4.5,6.3,8.6,10.3,12.2c0.5,0.5,1.1,1.1,1.7,1.3c2.6,0.7,3.5,2.9,4.5,4.9c0.6,1.1,1,2.1,2.2,2.7
		c0.9,0.4,0.8,1.4,0.6,2.4c-2.4,2.1-5.3,2.7-8.4,2.8c-1.9,0-3.9-0.4-5.8-0.5c-8.4-0.6-16.8-0.9-25.2-0.9c-4.1,0-8.1,0.8-12.1,1.8
		c-1.8,0.4-3.6,0.1-5.4,0.4c-4,0.7-7.6,2.4-11.6,3.1c-1.6,0.3-3.1,0.8-4.6,1.1c-2.2,0.4-4.3,1.6-6.6,1.8c-1.3,0.1-1.8,1.5-2.9,2.4
		c-1.4-1-2.9,0.1-4.5-0.1c-0.3,0-0.7,0.2-1,0.5c-3.4,3.1-7.6,3.3-11.9,3.3c-1.2,0-2.4-0.5-3.1-1.9c0.3-1.9,0.5-3.7,2.1-5.5
		c1.1-1.3,1.4-3.2,2.4-4.7c0.7-0.3,1.6,1.2,2.2-0.2c0.1-1.3-1.6-0.9-1.8-2c0.1-0.2,0.1-0.6,0.3-0.6c1.1-0.3,1.8-0.9,1.3-2.1
		c-0.8-1.8,0.1-3.1,1.2-4.4c0.2-0.3,0.8-0.5,0.8-0.7c0.2-3.4,2.9-5.5,4-8.4c1.2-2.9,2.5-5.8,3.3-8.9c0.5-1.7,1.3-3.2,2.3-4.5
		c2-2.6,3.1-5.5,4.3-8.4c0.5-1.2,0.9-2.5,1.5-3.7c0.3-0.8,0.7-1.7,1.4-2.1c4-2.7,5.2-7.2,7.1-11.2c0.3-0.7,0.5-1.4,1-1.9
		c1.1-1.4,1.7-2.9,2.3-4.5c1-2.6,2.2-5.2,3.8-7.5C156.7,180.5,158.3,178.3,159.4,176z M160.9,184.6c-1.3,1.3-2.5,2.9-3.3,4.6
		c-1.6,3.6-3.1,7.3-4.5,11.1c-0.8,2-1.4,4.1-2.8,5.9c-0.4,0.6-0.8,1.3-0.9,2c-0.3,2.6-1.4,4.9-2.6,7.2c-2.5,4.8-4,9.9-4.9,15.2
		c-0.3,1.6-0.6,3.1-1,4.6c-1.3,4.8-2.6,9.6-3.8,14.4c-0.3,1.3-0.4,2.6-0.6,3.8c0.7,0.6,1.3,0.4,1.9,0.2c1.4-0.4,2.8-0.9,4.2-1.3
		c4.8-1.5,9.8-2.1,14.5-3.7c3.2-1.1,6.4-2.1,9.9-2.3c2-0.1,3.9-0.1,5.9-0.9c1.3-0.5,2.9-0.2,4.3-0.1c4.6,0.1,9.2,0.7,13.8-0.3
		c1.3-0.3,2.7-0.2,4,0c3.7,0.4,7.5-0.1,11.2,1.4c0.1-1.1-0.2-1.7-0.7-2.2c-2.2-2.1-4.4-4.2-6.7-6.1c-1.2-1-2.1-2-2.7-3.3
		c-2-4-5.2-7.3-6.8-11.6c-0.3-0.9-1-1.6-1.8-2.2c-0.7-0.5-1.2-1.3-1.9-1.7c-1.6-1.2-2.3-3.1-3.6-4.5c-2.6-2.7-5.4-5.2-6.7-8.9
		c-0.1-0.3-0.3-0.7-0.6-0.9c-2.2-1.8-3.4-4.5-5.3-6.5c-2.9-3.1-5.5-6.5-6.7-10.7C162.4,186.6,162.2,185.4,160.9,184.6z"/>
	<path class="st0" d="M33.7,321.2c-1.5,0.4-2.5-0.2-3.7-0.9c-1.1-2.1-0.9-4.6-1.1-7c-0.3-3.4-0.1-6.8-0.1-10.2
		c0-0.6-0.1-1.2,0.1-1.8c2.3-8,5.1-15.7,10.4-22.3c3.3-4.1,7.2-7.5,10.9-11.2s7.4-7.4,10.8-11.3c3.3-3.8,7.1-7.1,10.6-10.6
		c2-2.1,4.2-4,6.1-6.2c1.2-1.3,2.5-3,4.5-3.4c0.8,0.8,0.4,1.4,0,2c-2.6,3.3-4.3,7.3-7.8,9.9c-1.7,3.3-5.1,5.2-6.9,8.3
		c-0.2,0.3-0.4,0.7-0.7,0.9c-3.6,2-5.4,5.8-8.3,8.5c-1,0.9-2,1.8-2.9,2.7c-3.1,2.9-5.7,6.2-8.8,9.2c-5.2,4.9-9.3,12-12.1,19.2
		c-0.4,0.9-0.6,1.9-0.6,2.8c0,1.4-0.4,2.7-0.8,3.9c-0.5,1.5-1.1,3,0,4.5c0.2,4,1.2,8,0.8,12C34.1,320.5,33.9,320.7,33.7,321.2z"/>
	<path class="st0" d="M150.9,113.7c-0.9,2-1.5,3.8-2.5,5.4c-1.3,2-1.9,4.2-2.7,6.4c-1.2,3.3-2,6.7-3.4,10c-0.7,1.5-0.7,3.3-1.5,4.9
		c-1.8,3.7-3.8,7.4-6.4,10.6c-1.6,2-3.5,3.7-5.1,5.7c-2.6,3.3-5.4,6.5-8.2,9.6c-1.4,1.6-2.9,3.2-4.4,4.8c-0.4,0.4-1,0.7-1.7,0.7
		c-0.6-1.1-0.2-2.2,0.3-3.1c1.5-2.4,2.8-4.9,4.7-6.9c1.1-1.2,2.4-2.4,3.5-3.7c1.4-1.7,2.8-3.4,4.1-5.1c1.1-1.4,2.1-2.9,3.6-4.1
		c0.9-0.7,1.3-2,2-3c1-1.4,2.2-2.6,3.1-4.1c1-1.7,2.6-3.2,2.4-5.5c0-0.1,0.1-0.2,0.1-0.3c1.2-2.6,2.3-5.2,2.9-8.1
		c0.6-2.7,1.9-5.2,3.2-7.7c0.9-1.8,2.1-3.5,3.3-5.2C148.7,114.3,149.3,113.5,150.9,113.7z"/>
	<path class="st0" d="M72.5,266.3c-1,1.3-1.9,3-3.2,4.1c-2.6,2.3-4.1,5.3-6.1,8.1c-2.9,4.2-5.9,8.3-8.8,12.5
		c-2.4,1.2-2.3,3.9-3.2,5.9c-1.1,2.3-1.7,4.8-2.6,7.2c-0.8,2.1-0.7,4.3-0.7,6.5c0,1.1,0.1,2.2,0.1,3.3c0,0.8-0.2,1.4-0.6,2.1
		c-0.3,0.4-0.7,0.7-1.2,0.6c-0.5-0.1-0.9-0.4-1.1-0.9c0-0.1-0.1-0.2-0.1-0.3c-0.5-4.9-1.2-9.9,0.7-14.7c1.4-3.4,2.9-6.7,4.6-9.9
		c1.7-3.3,3.8-6.2,5.7-9.3c1-1.6,2.4-3.1,3.7-4.5c2.4-2.7,4.9-5.4,7.3-8.2c1.1-1.3,2.6-2.2,4.1-3C71.6,265.4,72.1,265.5,72.5,266.3z
		"/>
	<path class="st0" d="M174.6,178.7c3.6-0.8,4.9-0.2,6.4,2.6c0.7,1.4,1.5,2.8,2.6,4c1.6,1.7,2.1,4.1,3.5,5.9c0.8,1,1.4,2.3,2.5,3.1
		c0.9,0.6,1.5,1.6,1.6,2.8c0.1,1,0.7,1.8,1.3,2.6c2.6,3.2,4.8,6.7,7.9,9.5c1.5,1.4,2.3,3.4,4.3,4.4c0.9,0.4,0.8,1.8,0,3.3
		c-1.2-0.3-2.4-0.8-3.3-1.9c-1.4-2-3.1-3.7-5.2-5.1c-1-0.7-1.8-1.6-2.4-2.7c-1.7-3.2-4.3-5.8-6.3-8.8c-2.4-3.5-5.1-6.7-7.6-10.1
		c-0.4-0.5-0.5-1.1-0.8-1.6c-0.9-1.4-1.6-3-3.2-3.9C174.3,181.8,173.9,180.4,174.6,178.7z"/>
	<path class="st0" d="M252.7,332c-2.1,0.7-3,0.3-2.7-1.3c0.8-3.8,0.7-7.5,0-11.2c-0.2-0.9-0.2-2,0-2.9c0.9-4.1,0.3-8.2,0.4-12.4
		c0-1.9,0.4-3.9-0.7-5.7c-0.1-0.1-0.1-0.2-0.1-0.3c0.6-3.4-1.1-6.1-2.4-8.9c-0.2-0.5-0.4-1.2-0.4-1.8c0-1,0.4-1.9,1.4-2.4
		c1.1-0.4,2.5,0.1,3.2,1.1c0.5,0.7,0.6,1.6,0.7,2.4c0.9,4.9,1.3,9.9,1.7,14.8c0.1,2.2-0.1,4.4-0.3,6.5c-0.5,5,0.2,9.9-0.2,14.9
		C253.2,327.2,252.9,329.6,252.7,332z"/>
	<path class="st0" d="M134,164.3c2.1-1.3,2.1-1.3,3.3-3.8c0.6-1.2,1.4-2.3,2.1-3.5c1.2-1.9,2.2-3.8,3-5.8c0.9-2.1,1.8-4.3,3-6.2
		c1.9-2.9,2.4-6.3,3.1-9.6c0.9-4.2,2.6-8.1,3.7-12.2c0.3-1,1-1.7,1.7-2.4c0.6-0.5,1.1-0.2,1.6,0.2c0.3,0.9-0.2,1.7-0.5,2.5
		c-1.8,5.2-3.2,10.4-4.5,15.8c-1.5,5.9-3.7,11.6-6.9,16.8c-1.8,2.9-3.6,5.8-5.5,8.6C136.9,166.5,135.7,166.4,134,164.3z"/>
	<path class="st0" d="M171.8,259.7c-4.2,2.4-8.9,2.3-13,4.2c-4,1.8-8.1,3.2-12.2,4.9c-4.2,1.7-7.8,4.4-11.9,6.1
		c-1.4-0.3-1.6-1.5-2.1-2.4c0.2-1.1,1.1-1.3,1.9-1.7c2.5-1.1,4.8-2.8,7.5-3.6c1.6-0.5,2.9-1.8,4.5-2.4c4.1-1.5,8.1-3.2,12.2-4.8
		c1.8-0.7,4-1.2,6.1-1.1c1.7,0.1,3.4,0.2,5.1-0.4C170.6,258.2,171.3,258.6,171.8,259.7z"/>
	<path class="st0" d="M214.5,206c-1.2,1.3-2.3,0.6-3.1,0.1c-3.5-2-6.8-4.3-9.4-7.5c-1.2-1.5-2.4-3-4.1-4.1c-1-0.7-1.7-2-2.3-3.2
		c-1.8-3.7-4.5-7-6.5-10.6c-0.9-1.7-1.9-3.3-3.1-4.7c0.6-1.3,1.7-1.2,2.6-1.5c1.3,0.4,1.9,1.5,2.4,2.6c1.3,2.9,3.3,5.4,5,8.1
		c1,1.6,2.4,3,2.8,5.1c0.3,1.6,1.9,2.6,2.9,3.6c2.6,2.7,4.9,5.7,8.1,7.8c0.9,0.6,1.8,1.3,2.7,1.9C213.3,204.3,214.2,204.8,214.5,206
		z"/>
	<path class="st0" d="M168.7,264.9c0.5,0.4,0.4,0.8,0.3,1.5c-0.8,0.9-1.9,1.3-3.1,1.6c-2.7,0.8-5.3,1.8-7.7,3.2
		c-2.2,1.2-4.7,2.1-7.1,2.8c-3,0.9-5.6,2.4-8.3,3.7c-0.7,0.3-1.3,0.7-1.9,1c-0.9,0.4-1.7,0.4-2.2-0.5c-0.4-0.8-0.1-1.4,0.5-2
		c0.4-0.3,0.7-0.7,1.1-0.9c1.9-1.1,3.8-2.3,5.8-3.1c4.6-1.9,9.3-3.7,14-5.4c2.4-0.9,4.6-2.3,7.3-2.2
		C167.8,264.6,168.3,264.5,168.7,264.9z"/>
	<path class="st0" d="M255.6,294.4c1.3-0.8,2.1-0.7,2.8-0.2c0.8,4.8,1.6,9.5,2.2,14.3c0.3,2,0.1,4.1,0.1,6.2c0,0.5-0.4,0.8-0.9,1
		c-0.5-0.1-0.9-0.3-1.1-0.8C256.3,308.2,255.5,301.4,255.6,294.4z"/>
	<path class="st0" d="M77.6,216.8c-0.2,0.2-0.2,0.2,0,0.1C77.6,216.9,77.5,216.8,77.6,216.8L77.6,216.8z"/>
	<path class="st0" d="M402.3,332.1c0.3,0.7,0.7,1.3,1,2c-0.8,1.6-1.9,2.8-3.5,3.3c-1.5-0.5-0.7-1.7-1-2.6c-0.3-0.1-0.6-0.4-0.9-0.4
		c-2.7-0.1-5.3-0.5-7.9-1.4c-0.8-0.3-1.6-0.2-2.5,0c-2.4,0.5-4.8,1-7.2,0.8c-1.8-0.2-3.4,1.5-5.1,0.7c-0.9,0.5-1.1,1.1-0.9,1.8
		c-1.4,0.7-1.6-0.3-2-1.1c-0.3,0-0.7-0.1-1,0c-3.6,0.8-7.1,1.6-10.8,1.2c-0.2,0-0.5-0.1-0.7,0c-4.5,2-9.6,1-14.3,2.6
		c-3.3,1.1-6.9,1.5-10.4,1.8c-4.9,0.3-9.6,1.3-14.5,1.8c-3.5,0.4-6.9,1.2-10.4,1.8c-2.3,0.3-4.6,0.5-6.9,0.7
		c-1.4,0.1-1.8-0.5-1.9-2.3c0.3-0.1,0.6-0.4,0.9-0.5c2.1-0.6,4.4,0,6.5-0.5c2.1-0.5,4.1-1.3,6.3-1.5c1.7-0.2,3.3-0.6,5-1
		c5.6-1.2,11.4-1.3,17.1-2.1c4.3-0.6,8.6-1.6,13.1-1.5c0.8,0,1.7-0.3,2.5-0.5c5.1-1.4,10.3-1.9,15.5-2.6c3.6-0.4,7.3-0.9,10.9-1.5
		c5.5-0.9,10.9-0.5,16.4-0.1C397.8,331,400,331.3,402.3,332.1z"/>
	<path class="st0" d="M299.6,228.7c-1,0.5-1.7,0.3-2.1-0.4c-0.5-0.8-1.1-1.7-1.2-2.6c-0.4-2.4-0.8-4.8-0.8-7.2
		c0-1.6-0.2-3.1-0.8-4.6c-1.4-3.4-1.7-7.1-1.7-10.8c0-2.4,0.2-4.9-1.3-7.1c-0.2-0.3-0.3-0.7-0.3-1c0.8-3.3-1.2-6.2-1.1-9.4
		c0-0.1,0-0.3,0-0.4c-2.1-2.8-1.4-6.1-1.6-9.2c-0.2-3.5-0.9-7-1.6-10.4c-0.8-3.8-0.6-7.7-1.1-11.6c-0.1-0.5,0.3-0.9,0.7-1.2
		c0.5-0.3,1-0.2,1.4,0.2c1,0.9,1.9,1.9,2.1,3.3c0.3,1.8,0.5,3.6,0.6,5.4c0.2,4,0.8,8,1.3,12c0.3,2,0.3,4.1,0.4,6.2
		c0.1,2.4-0.4,4.9,1,7.1c0.1,0.2,0.1,0.5,0.1,0.7c-0.6,4.4,1,8.6,1.4,12.9c0.2,1.8,0.6,3.6,0.7,5.4c0.3,3.9,1.9,7.5,2,11.5
		c0,2.6,1.1,5.2,1.8,7.8C299.8,226.4,300.1,227.4,299.6,228.7z"/>
	<path class="st0" d="M337,328.4c-0.7-0.6-0.7-1.2-0.4-1.8c3-1.9,6.3-2.9,9.9-3.2c1.2-0.1,2.1-0.6,3.1-1c2.9-1.3,5.8-2.4,9.2-2.1
		c1.2,0.1,2.4-0.6,3.6-0.7c4.4-0.3,8.6-1.6,12.9-2.2c1.8-0.3,3.6-0.6,5.5-0.5c0.2,0,0.5,0.1,0.7,0c2.9-1.5,6-0.6,9-0.6
		c3.1-0.1,6.3,0.5,9.5,0.9c0.4,0.1,0.9,0.3,1.3,0.6c0.2,0.2,0.4,0.7,0.3,1s-0.4,0.6-0.7,0.8c-0.2,0.1-0.5,0.2-0.7,0.1
		c-2.3-1-4.8-0.8-7.2-1.1c-2.3-0.2-4.8-0.5-7.1,0.5c-0.3,0.1-0.7,0.4-1,0.3c-2.3-0.3-4.3,0.5-6.4,1c-3.7,0.7-7.5,1-11.2,1.5
		c-1.8,0.3-3.6,0.6-5.4,1c-1.8,0.4-3.6,0.8-5.4,1c-4.5,0.5-8.8,1.9-13.1,3.1C341.1,327.6,339,328.3,337,328.4z"/>
	<path class="st0" d="M308.3,210.1c-1,0.3-1.6-0.2-1.7-1c-0.7-3.9-2.8-7.3-3.7-11c-0.1-0.2-0.1-0.5-0.2-0.7
		c-2.1-2.5-2.1-5.6-2.7-8.6c-1.3-5.7-2.3-11.4-3.4-17.1c-0.2-1-0.3-1.9-0.3-2.9c0-2.3,0-4.6-0.7-6.9c-0.3-0.8-0.3-1.7-0.2-2.5
		c0.4-2.8,0.1-5.6-0.6-8.2c1.8-1.1,2.6-1,2.8,0.4c0.6,4,0.7,8,0.8,12c0,1.7,0.2,3.4,0.5,5.1c0.8,4.1,1.1,8.2,1.7,12.3
		c0.5,3,1.5,5.9,1.8,8.9c0.3,2.8,1.8,5.2,2.6,7.8c0.9,2.7,1.8,5.3,2.9,7.9C308.7,207.1,308.9,208.6,308.3,210.1z"/>
	<path class="st0" d="M354.1,309.2c6.5-0.2,12.3-1.9,18.5-1.6c2.3,0.1,4.6-0.3,6.9-0.2c0.8,0,1.4-0.1,2-0.7c0.9-1,2.3-1.5,3.3-1
		c2.4,1,4.8,0.4,7.2,0.6c1.8,0.1,3.6,0.1,5.8,0.9c-2.4,1.7-4.7,0.9-6.9,0.9c-2.1,0-4.4,0.9-6.5-0.8c-1,1.9-2.5,2.3-4.3,2.3
		c-1.8,0-3.7-0.2-5.4,0.6c-0.1,0.1-0.2,0.1-0.4,0.1c-5.8-0.5-11.5,1.3-17.3,1.5C355.4,311.7,354.7,311,354.1,309.2z"/>
	<path class="st0" d="M394.9,214.3c-0.1,0.1-0.4,0.3-0.7,0.5c-3.6,2.4-5.4,2.1-8-1.3c-0.9-1.2-0.9-2-0.2-3.3c2-3.3,6.4-3.1,8.5,0.7
		C395.1,211.9,395.4,212.9,394.9,214.3z"/>
	<path class="st0" d="M406.7,208.6c1.6-1.4,3-1.5,4.6-0.9c2.4,0.9,3.1,3.8,1.2,5.6c-1.2,1.1-2.6,1.7-4.2,2.1
		c-0.8-0.2-1.5-0.6-2.1-1.5C406.7,212.3,407,210.5,406.7,208.6z"/>
	<path class="st0" d="M662.5,292.1c0-0.2,0-0.6,0.1-0.7c3.4-3.1,5.4-7.2,7.4-11.2c1.5-2.9,2.2-6,2.7-9.3c0.3-2.5-0.4-5.1,0.9-7.4
		c0.2-0.3,0.1-0.7,0.1-1.1c-0.7-4.3,0-8.7-1.1-13.1c-0.7-3-1.4-5.9-3-8.5c-0.1-0.2,0-0.5,0-0.7c0.8-0.8,1.7-0.7,2.7-0.5
		c0.9,0.2,1.6,0.7,2,1.5c1,1.6,1.7,3.2,1.9,5.1c0.8,5.9,0.9,11.9,0.5,17.8c-0.3,4.2-0.7,8.5-1.7,12.6c-0.3,1.2-0.7,2.3-1.3,3.4
		c-0.8,1.4-1.5,2.8-2.1,4.2c-1.3,3.3-3.8,5.6-6.2,7.9C664.2,293.2,664.2,293.1,662.5,292.1z"/>
	<path class="st0" d="M658.8,133.7c-5.6-0.3-10.9-1.3-16.4-0.9c-2.7,0.2-5.3,0.7-8,1.1c-4.3,0.7-8.7,1-13,1.6
		c-5.6,0.8-11.2,2-16.8,3.2c-1.5,0.3-2.9,1.2-4.4,1.8c-1.1-0.2-2.1-0.5-2.3-1.7c0.2-0.9,0.8-1,1.4-1.3c5-2.5,10.4-3.3,15.8-4.1
		c7.4-1,14.7-2.1,22.1-3.2c0.4-0.1,0.7-0.2,1.1-0.1c5.2,0.3,10.5-0.4,15.7,0.3c1.6,0.2,3,0.8,4.4,1.6
		C658.8,132.3,659.2,132.8,658.8,133.7z"/>
	<path class="st0" d="M655.5,289.4c1.3-2.7,2.8-5.2,3.6-8c0.8-2.7,2.6-5.1,2.6-8.1c0-1.3,0.9-2.5,1.3-3.8c0.4-1.2,1.2-2.4,0.2-3.8
		c-0.2-0.3-0.2-1.1,0-1.4c1.3-1.5,0.6-3.3,0.6-4.9c-0.1-2,0.4-4,0.2-6.1c-0.2-2.1-0.4-4.1-1.9-5.6c0.3-1.1,1-1.4,1.8-1.3
		c1,0.1,2.1,0.1,2.6,1c0.6,0.9,1.1,1.7,1.2,2.9c0.7,5.9-0.1,11.7-1.2,17.4c-0.2,0.9-0.4,1.9-0.5,2.8c-0.3,3.2-1.5,6.3-2.7,9.3
		c-0.6,1.6-1.4,3.1-1.9,4.7c-0.7,2-2.2,3.7-3.5,5.4C657.5,290.7,656.5,290.6,655.5,289.4z"/>
	<path class="st0" d="M613.4,151.3c-1.1-2.5-0.8-3.4,1.1-3.9c5.2-1.5,10.3-3.5,15.9-3.7c4.2-0.1,8.4-1.4,12.7-1.2
		c3.3,0.2,6.5,0.5,9.7,1.3c0.7,0.2,1.5,0.2,2,1c0.3,1.3-0.5,1.8-1.6,1.6c-2.4-0.4-4.9-0.3-7.3-0.3c-7.2,0-14.3,1.1-21.3,2.5
		C620.9,149.3,617.3,150.5,613.4,151.3z"/>
	<path class="st0" d="M551.5,284.8c-0.1,2-0.9,3.6-1.8,5c-3.2,4.7-5.5,9.8-6.7,15.3c-0.5,2.5-1.2,4.9-0.4,7.6
		c0.5,1.8,0.3,1.9-0.9,3.7c-1.6-0.1-2.3-1.3-2.4-2.7c-0.4-5.8-0.5-11.6,2.5-17c1-1.8,2.5-3.5,2.9-5.4c0.4-2.2,1.9-3.6,2.8-5.5
		C548.1,284.1,549.3,284,551.5,284.8z"/>
	<path class="st0" d="M558.6,291.6c0.6,1.8,0.1,3.1-0.4,4.5c-1.8,4.3-2.6,8.9-3.6,13.4c-0.3,1.6,0,3.4,0,5.1c0,0.9,0,1.8-1,2.1
		c-0.8,0.2-1.3-0.5-1.7-2c-1-4-0.4-8-0.2-12c0-0.8,0.4-1.7,0.7-2.5c1.1-2.6,2.2-5.1,3.3-7.7C556.2,291.2,556.3,291.2,558.6,291.6z"
		/>
	<path class="st0" d="M482.5,151c6.1,0,11.9,0,17.6,0c4.9,0.1,9.8,0.8,14.5,2.1c5.7,1.5,9.7,5.2,11.6,11.1c1.1,3.4,1.5,6.9,1.7,10.4
		c0.1,2.4-0.1,4.8-1.2,7.1c-1,2.2-1.8,4.5-2.8,6.7c-0.2,0.6-0.5,1.2-0.9,1.6c-1.9,1.5-2.5,4-4.4,5.7c-1,0.9-1.7,1.9-3,2.5
		c-0.5,0.2-0.8,0.9-1.2,1.3c-0.2,0.8,1.1,0.7,0.6,1.8c-1.5,0.5-2.5,2.5-4.8,2.2c-0.4,0-0.8,0.5-1.2,0.8c-3.9,3-8.6,4.5-12.9,6.8
		c-2.7,1.4-5.7,2.2-8.7,2.6c-0.8,0.1-1.7,0-2.6-0.1c-0.8-0.1-1.6-0.6-1.5-1.4c0.3-1.7-1.1-2-1.9-2.6c-0.5-0.8-0.3-1.4-0.1-2.2
		c0.5-1.7,0.4-3.4,0.1-5.1c-0.5-2.9-0.2-5.8-0.4-8.8c-0.1-1.9,0.1-3.9-0.4-5.8c-0.3-0.9,0-1.9,0.2-2.9c0.4-2.3,0.4-4.6,0.2-6.9
		c-0.1-1.9-0.8-3.8,0.5-5.6c0.2-0.3,0.1-1,0.1-1.4c-0.3-5.2-0.3-10.4-1-15.6C480.3,153.4,481.6,152.3,482.5,151z M487.4,208
		c0.5,0.5,0.9,0.5,1.2,0.3c2-0.9,4.1-1.6,6-2.7c1.8-1,3.7-2,5.6-2.7c1.5-0.5,2.8-1.5,4-2.4c4-3.1,7.3-6.7,10.7-10.4
		c2.6-2.7,3.9-6.1,5.8-9.3c0.6-1.1,0.8-2.3,0.8-3.5c0-0.6,0-1.3-0.5-1.7c-1.2-1.1-1.2-2.6-1.4-4c-0.3-1.8-1.1-3.1-2.6-4.2
		c-2.6-2-5.5-3.7-8.5-5c-0.7-0.3-1.4-0.6-2.1-0.6c-1.9,0-3.9,0.1-5.8,0.1c-0.6,0-7.9,3.2-8.3,3.6c-1.4,1.6-2.6,3.4-3.2,5.6
		c-1,3.6-0.6,7.5-2.2,11.1c-0.3,0.6-0.1,1.5,0,2.2c0.6,3,0.4,6.1,0.3,9.1c-0.1,1.7-0.4,3.4-0.2,5C487.6,201.7,487.6,204.9,487.4,208
		z"/>
	<path class="st0" d="M457.9,251.1c0.8-0.3,1.4-0.4,2.3-0.1c1.6,2.5,3,5.2,2.6,8.6c-0.3,2-0.1,3.9,0.3,5.8c0.3,1.8,0.5,3.6,0.5,5.5
		c0,3.2-0.4,6.3-0.2,9.5c0.2,4.9-0.4,9.8,0.3,14.6c0.8,6.4,1.2,12.8,2,19.2c0.4,3.3,1.1,6.7,2.8,9.7c1.1,0.4,1.9-1.1,3.3-0.3
		c0.7,2.2-0.9,3.6-2,5c-1,0.3-1.7,0.2-2.3-0.3c-2.5-2.7-3.4-6.1-4.2-9.5c-0.5-2.3-0.2-2.4-1.3-4c0.3-1.1,0.6-2.2,0.9-3.3
		c-0.1-1-0.8-1.3-1.3-1.6c0.1-2.5,0.1-4.8-0.4-7.2c-0.5-2.2-0.6-4.5-0.9-6.8c-0.2-1.1,0.3-2.5,0.4-3.8c0.2-2-0.1-3.8-0.8-5.5
		c1.4-2.6,1.8-5.3,0.9-8c-0.4-1.2-0.5-2.4-0.5-3.6c0.1-3.8-0.1-7.5-1.1-11.3c-0.2-0.7-0.1-1.5-0.2-2.2c-0.2-1.9-0.2-3.8-1.2-5.7
		C457.1,254.4,457,252.8,457.9,251.1z"/>
	<path class="st0" d="M564.2,181.9c1.2-0.1,1.7,0.8,1.7,1.6c0.1,1.2-0.2,2.4-0.4,3.5c-0.6,3.4-1.9,6.5-3.2,9.6
		c-1.3,3-2.2,6.1-4.1,8.9c-1.7,2.6-3.5,5-5.5,6.9c-0.6,1.1,1.1,1.9,0,2.9c-0.6,0-0.6-0.7-1-1c-0.2,0.1-0.5,0-0.6,0.2
		c-3.4,3.3-7.5,5.4-11.4,7.9c-3.5,2.2-7.3,3.7-11.3,4.8c-1.6,0.4-3.4,0.7-5,0c-0.7-0.3-1.2-0.9-1.1-1.7c0.1-0.8,0.7-1.3,1.4-1.4
		c0.4-0.1,0.7-0.1,1.1-0.1c3.1,0,5.8-1.1,8.6-2.6c3-1.6,6-3.2,8.9-4.9c3.9-2.3,7.5-5,10.2-8.6c2.2-3,4.1-6.2,5.7-9.5
		c1.1-2.4,2.2-4.8,4-6.8c0.6-0.8,1.1-1.6,1.1-2.7c0-0.6-0.1-1.4,0.2-1.8c1.1-1.4,0.7-2.7,0.4-4.2
		C563.9,182.6,564.1,182.2,564.2,181.9z"/>
	<path class="st0" d="M454.5,128.6c1.2-1.3,2.7-2.2,4.2-2.8c3.1-1.4,5.7-3.7,9.2-4.2c0.9-0.1,1.8-0.5,2.2-1.2c0.9-1.7,2.7-2,4.1-2.7
		c5-2.5,10.3-4.3,15.3-6.8c3.4-1.7,7-1.9,10.6-2.2c1.1-0.1,2.2-0.1,3.3-0.2c2.7-0.1,4,0.5,6,2.6c-0.2,0.8-0.9,1.1-1.6,1.2
		c-0.4,0-0.7,0-1.1-0.1c-6.4-1.4-12.2,1.2-18.2,2.8c-0.8,0.2-1.7,0.5-2.2,1.2c-1.4,2-3.6,2.4-5.7,2.9c-2,0.4-4.2,0.3-5.3,2.6
		c-0.1,0.3-0.6,0.4-0.9,0.6c-5,2.5-10,4.9-15,7.4c-1.2,0.6-2.3,0.8-3.5,0.6C455.2,130,454.6,129.7,454.5,128.6z"/>
	<path class="st0" d="M477,311.5c-0.6-0.1-0.9-0.5-1.2-0.9c-0.5-1-0.8-2.1-1.4-3c-3.2-4.3-3.8-9.3-4.8-14.3
		c-0.2-1.1,0.3-2.1,0.3-3.2c-0.1-1.9-1.2-3.4-1.5-5.2c-0.3-1.7,0.8-3.4,0.1-5.1c-0.9-2.3-0.4-4.6-0.5-6.8c-0.1-1.7,0.8-2.7,2.4-3.1
		c0.9,0.2,1.2,0.8,1.2,1.6c0,2.1,0,4.1,0,6.2c0,2.1-0.2,4.1,0.4,6.2c0.2,0.7,0.3,1.5,0.2,2.2c-0.6,4.2,0.5,8.1,2,12
		c1.4,3.6,2.1,7.5,3.6,11.1C478.2,310,478.2,311,477,311.5z"/>
	<path class="st0" d="M506.8,116.7c-0.7,1.5-1.9,1.4-2.9,1.8c-6.9,2.6-13.7,5.4-20.2,8.9c-4.2,2.2-7.9,5.2-12.4,6.8
		c-1.7,0.6-2,0.5-3.5-1.3c0.4-1.1,1.5-1.2,2.3-1.6c3.5-1.4,6.6-3.6,9.8-5.5c2.1-1.2,4.3-2.1,6.6-2.9c2.5-0.9,5.1-1.6,6.9-3.8
		c0.2-0.3,0.6-0.5,0.9-0.5c3.1-0.5,6-1.6,9.1-2.3C504.6,116.2,505.6,115.9,506.8,116.7z"/>
	<path class="st0" d="M553.2,184.1c1.4,0.5,1.4,1.4,1.1,2.5c-0.8,2.7-1.9,5.3-3.2,7.7c-1.7,3.2-3,6.6-5.6,9.3
		c-2.8,2.9-5.7,5.6-9.6,7c-1-0.5-2-1-3-1.4c-0.9-0.4-1.8-0.6-2.2-1.6c0.5-1.1,1.4-1.1,2.2-0.9c2,0.4,3.4-0.3,4.9-1.7
		c2.1-1.8,4.4-3.5,6.2-5.6c2.3-2.8,4.9-5.4,6.1-8.9C551.9,188.7,552.1,186.2,553.2,184.1z"/>
</g>
</svg>
