<?xml version="1.0" encoding="utf-8"?>
<!DOCTYPE svg PUBLIC "-//W3C//DTD SVG 1.1//EN" "http://www.w3.org/Graphics/SVG/1.1/DTD/svg11.dtd">
<svg version="1.1" id="base-cat-css" xmlns="http://www.w3.org/2000/svg" xmlns:xlink="http://www.w3.org/1999/xlink" x="0px" y="0px"
	 width="1200px" height="1200px" viewBox="0 0 1200 1200" enable-background="new 0 0 1200 1200" xml:space="preserve">
<g>
	<path d="M704.6,108.6c-2.7,2.2-4.7,4.2-7.1,5.7c-5.4,3.4-6.7,6.6-5,12.9
		c4.3,15.6,0.2,23.8-14.8,29.5c-7.4,2.8-24.2,4.8-31.7,3.4c1.7-1.4,2.8-3.1,4.1-3.3c3.8-0.7,7.8-1.1,11.6-1
		c8.3,0.3,13.7-4.3,17.5-10.7c4-6.9,8.4-13.8,4.7-22.9c-1.1-2.6,1.9-6.9,2.9-10.2c-4-5.3-8.5-10.8-12.3-16.7
		c-4.1-6.4-3.9-13.6-1.8-21.3c-4.2-0.2-7.7-0.4-11.4-0.6c2.6-4.1,8.5-7,11.8-6.1c4.8,1.3,5.6,5.1,5.3,9.3
		c-0.9,10.9,3.6,19.4,12.1,25.7C694.2,104.9,698.7,106,704.6,108.6z"/>
	<path d="M385.3,124.4c5.3,7.2,7.2,15.1,7.8,23.8c0.8,10.8,8.8,18.5,18.9,13
		c3.6-1.9,5.3-0.3,6.1,2.3c0.3,1-1.9,3.7-3.3,4.2c-14.8,4.5-24.5-0.6-27.6-18.5c-0.9-5.2-2.2-10.4-3.3-15.2
		c-7.3-0.9-13.4-1.6-20.2-2.5c3-8,10.8-7.2,15.9-11.7c2.5-7.8,0-15.7-3.5-23.5c-3.3-7.2-0.2-21.6,5.7-26.5c4.8-4,9.4-3.6,14.9,1.4
		c-0.7,0.6-1.4,1.6-1.9,1.5c-3.9-0.4-7.7-1.4-10.4,3.1c-3.3,5.6-6.4,11.2-3.5,17.8c1.4,3.3,3.7,6.2,5.8,9.1
		c6.1,8.4,6.1,10.2-0.3,19.2C386.1,122.5,385.9,123.1,385.3,124.4z"/>
	<path d="M512.7,116.9c-0.8,2.1-1,5-2.5,6.2c-13.5,10.5-28.8,13.6-45.1,8.7
		c-10.5-3.1-15.3-16.7-12.1-27.1c3.1-10.3,9.7-17.1,18-22.6c9.1-6.1,17.6-4.2,26.1,6.5c-2.8-0.2-4.8,0.2-6-0.6
		c-10.2-6.6-17-3.8-24.2,6.4c-6.5,9.2-4.8,17.1,0.6,24.7c4.5,6.3,10.4,10.9,19.5,9.7C496.9,127.5,504.3,122.6,512.7,116.9z"/>
	<path d="M624.9,77.1c-14,9.4-14,9.4-9.5,21.6c3.9,0.6,8,1.1,12.1,1.7
		c10,1.5,14.3,9.4,9.6,18.4c-1.5,2.8-3.9,5.5-6.4,7.4c-8.2,6.2-16.7,12-26.8,14.7c-2.2,0.6-4.2,2.2-7,3.6c-1-0.7-2.5-1.9-4-3
		c0.8-0.9,1.1-1.6,1.5-1.8c7-2.7,14.2-5.2,21.1-8.2c7.4-3.3,11.7-13.7,10.1-21.8c-0.8-3.9-2.6-5.8-6.6-5.8c-4.2-0.1-8.5-0.2-12.6-1
		c-7.8-1.7-8.7-5.8-4.9-13c4-7.5,10.8-11,17.7-14.8C622,73.7,623.5,74.9,624.9,77.1z"/>
	<path d="M551.8,92.4c-0.5,6.1-0.9,11.6-1.3,17.9c4.4,0.2,7.7,0.1,10.9,0.6
		c3.2,0.5,6.7,1.2,9.4,2.8c6.3,3.8,7.7,12.1,2.3,15.7c-15.6,10.3-31.6,19.9-47.5,29.7c-0.6,0.4-1.7-0.2-4-0.4c1.7-1.9,2.6-4,4-4.4
		c13.2-4.3,23.2-13.9,35-20.6c2.9-1.6,5.8-11.3,5-14.5c-0.8-3-3-3.3-5.6-3.4c-4.8-0.3-9.6-1-14.4-1.3c-4.8-0.3-7.1-3.3-8.2-7.2
		c-1.1-3.9-1.1-7.7,3.1-10.3c6.8-4.3,13.3-9.1,20.2-13.3c2.4-1.5,5.3-1.8,6.5,2.3C562,88,556.9,90.2,551.8,92.4z"/>
</g>
<g>
	<path d="M1093.6,611.8c5.9-2.3,12-5.1,18.3-7.1c7.7-2.5,14.1,1.8,20.5,5
		c0.8,0.4,1.3,1.9,1.7,3c0.6,1.7,0.7,3.6,1.5,5.2c7.5,13.4,3.2,25.7-4.1,37c-9.1,14.2-22.1,24.9-37,32.6c-9,4.6-19,4.9-29.8,3.1
		c-16.7-2.8-25.2-14.2-34.3-25.8c-9.2-11.7-13.5-25.3-14.7-40.1c-1-12.3-3.2-24.5-4.6-36.7c-0.5-4.8-0.4-9.7-0.5-14.5
		c-0.5-21.7-0.5-43.5-1.5-65.2c-0.5-10.8-2.7-21.5-4.2-32.3c-1-7.7-1.1-15.7-3.3-23.1c-1.6-5.5-4.8-11.5-9.1-15.1
		c-11.5-9.5-26-12.4-40.4-14.4c-2.7-0.4-5.7,1.3-8.6,2.2c-14.6,4.5-22.9,15.9-30.5,28c-1,1.5-1.6,3.4-2.7,4.7
		c-10.6,11.9-12.9,26.5-14.2,41.5c-0.3,4.1-1.6,8.2-2.4,12.3c-0.9,4.4-2.6,8.9-2.5,13.3c0.5,22.3-1,44.5-1.6,66.7
		c-0.5,19.2,1.3,38.4,2,57.6c0.4,11.4,0.1,22.9,1,34.2c1.8,21.3,1.3,42.8,7,63.7c2.1,7.8,2.6,16,3.3,24.1
		c1.4,16.2,8.8,30.6,12.7,46.1c3.3,12.9,9.5,22.6,23.3,26.1c2.4,0.6,4.4,3.1,6.3,5c13.5,14.3,23.1,31,28.9,49.5
		c2.7,8.8,3.4,18.4,3.3,27.7c-0.2,15.2,0.9,30,5,44.8c12.5,7.8,27,11.1,41,15.5c3.8,1.2,7.5,1.7,9.2,7.9
		c-31.9-6.7-61-17.9-89.7-31.4c-1.4,1.8-2.9,3.2-3.9,5c-5.3,9.3-14.4,14.5-22.1,21.1c-7.5,6.5-15,13.2-23.3,18.7
		c-6.9,4.6-14.8,7.5-22.3,11.2c-1.6,0.8-3.5,1.2-5,2.1c-12.3,7.5-25.3,6.7-38.6,3.5c-8.9-2.2-9.4-2.2-13.7,5.7
		c-5,9.1-7.7,19.1-8.3,29.4c-0.6,11.6-3.5,22.6-7.3,33.5c-0.8,2.3-2,4.5-2.4,6.8c-2.3,13-10.6,21.2-21.5,27.4
		c-5.2,3-10.2,6.8-15.7,8.8c-6.1,2.2-12.8,3.6-19.3,4c-10.2,0.6-20.4,0.2-30.7,0.2c-11.7,0-16.3-4.8-17-17.1
		c-0.2-2.9-1.6-5.8-2.2-8.7c-1.4-7,1.6-10.3,8.7-9.8c0.6,0,1.2,0,1.8,0.1c5.4,1.6,9.8,1.1,15-2.7c4.7-3.5,7.7-6.9,9.5-12.4
		c3-8.9,7.2-17.3,10-26.2c5.2-16.5,4.3-33.3,0.6-49.9c-2.6-11.8-8.7-21.4-19.6-28c-10.5-6.3-20.5-13.6-30.6-20.5
		c-12.4,12.9-25.1,24.9-40.6,33.5c-3.3,1.9-7.1,2.9-10.7,4.3c-0.8,0.3-1.8,0.3-2.6,0.6c-20.1,8.6-39.4,4.5-58.6-3.1
		c-1.4-0.6-3.2-0.3-4.8-0.2c-0.8,0-1.9,1.1-2.3,0.8c-7.2-3.9-16.2-2.8-22.9-8c-7.8-6-17.1-7-26.3-8.8c-1.5-0.3-2.9-0.7-4.6-1.1
		c-13.6,13.1-29.9,22-47.4,28.7c-2.5,1-5.3,1.7-7.9,1.6c-8.6-0.3-17.2-1-25.9-1.5c-6,8.7-9.8,17.9-9.9,28.6
		c-0.1,6.9-1.1,13.8-1.6,20.7c-1.2,15.1,5.1,25.7,18,33.7c11.1,7,23.5,8.5,35.7,11.4c5.9,1.4,6.5,2.3,5.1,7.8
		c-1.7,6.6-4.5,12.9-3.4,20.2c0.4,2.5-2.1,5.4-3.3,8.3c-11.5,0.7-22.4,1-33.4-1.5c-13.5-3-27.3-4.3-40.6-8.1
		c-9.1-2.6-17.4-8.1-26.1-12.4c-4.1-2-5.8-5.7-6.8-10.1c-3-13.1-3.2-26.4-1.2-39.5c2-13.4,2.1-27.1-1.7-39.5
		c-4.1-13.5-9.4-27.8-26.4-32.8c-10.2-3-20.3-7.6-29.4-13.8c-1.7-1.2-3.7-2-5.6-3c-12.8-6.4-12.6-6.2-23.7,2.5
		c-5.1,4-10.9,7.4-16.7,10.3c-8.3,4.2-16.9,7.6-25.4,11.5c-13.9,6.4-28.9,5-43.6,5.7c-14.3,0.7-27.5-3.1-39.9-9.7
		c-3.5-1.9-6.4-5.2-8.9-8.4c-1.7-2.1-1-4.6,1.9-5.6c11.8,15.6,28.4,18.6,46.3,18.1c5.9-0.2,11.8-0.8,19.2-1.4
		c-3.8-5.6-6.6-11.3-10.7-15.7c-13.9-14.9-23.4-31.8-26.5-52.2c-1.1-7.4-4-14.7-4.2-22.2c-0.7-24.1,9.8-42.4,31-54.2
		c9.5-5.3,19.3-10,28.9-15.1c6.9-3.7,14.4-4.1,22-4.6c3.6-0.2,7.2,0,12,0c2.8-9,5.7-17.8,8.2-26.6c2.3-8.3,4.2-16.8,6.2-25.2
		c0.5-2.3,0.8-4.7,1-7.1c0.2-1.5-0.4-3.3,0.2-4.4c5.6-10.5,4.8-22.1,6.6-33.3c2.1-13.4,4.1-26.8,6.2-40.2
		c1.8-11.6,3.4-23.3,5.4-34.9c2.4-14,5.8-27.8,7.6-41.8c1.6-12.6,3.6-24.9,7.6-37.1c2.6-8.2,1.8-17.4,3.8-25.8
		c3.6-14.9,8.2-29.6,12.4-44.3c0.7-2.6,1.7-5.2,2-7.9c2.2-25.2,12.1-48.3,18.7-72.4c5.2-19,11.9-37.3,18.1-55.8
		c3.4-9.9,8.3-19.4,12.6-29c7.2-15.9,14.5-31.8,21.8-47.8c1.3-2.7,2.2-5.7,4-8.1c2.4-3.4,5.4-6.4,8.6-10.1
		c4.2,3.7,8.2,7.2,12.2,10.7c12.7,11.1,25,22.8,38.2,33.2c13.9,11,28.1,22.1,43.4,30.9c21.4,12.4,44.9,16,68.8,7.9
		c13.3-4.6,26-11.1,38.9-16.8c0.5-0.2,1.1-0.6,1.4-1.1c4.7-5.7,10.9-9,17.4-12.1c16-7.7,26.6-21.7,38-34.4
		c16.3-18.3,29.1-39.1,39.1-61.6c2.3-5.1,5.3-9.8,8.3-15.3c1.6,1.4,2.8,1.9,3.2,2.8c6.4,15.6,12.5,31.3,19.1,46.8
		c10.3,24.2,19.2,48.7,26.6,73.9c5,17,12.3,33.3,18,50c3.1,9.1,5.6,18.4,7.6,27.8c4.4,20.1,13.2,38.7,19.9,57.9
		c2.8,7.9,3.9,16.3,5.9,24.5c1.7,6.7,3.7,13.3,5.4,20c2.9,11.4,5.9,22.7,8.4,34.2c1.8,8.4,6,15.1,12.6,22.7c1-17,1.9-32.5,3-48
		c1.1-15,2.4-30,3.7-45c0.8-9,1.8-18,3-27c0.9-7.2,1.7-14.4,3.6-21.3c2.7-10.2,5.1-20.3,6.5-30.8c2.1-16.2,10.7-30.1,25.1-38
		c13.2-7.3,26.3-15.2,41.3-19.3c10.2-2.7,20-6,30.7-6.6c21.5-1.4,37,8.6,50.3,23.7c6.3,7.1,9.1,15.7,12.3,24.5
		c5.3,14.2,8.7,28.7,12.2,43.3c4.4,18.1,8.5,36.3,12.4,54.5c1.7,7.9,2.2,16,3.4,24.1c1.7,11.2,3.5,22.5,5.3,33.7
		c0.1,0.9-0.1,2.3,0.4,2.6c8.8,6,5.8,16.6,9.7,24.5c3.9,7.9,8,14.7,16.6,18.1C1087.6,605.7,1090.2,609,1093.6,611.8z M412.5,300
		c-5.6,0.7-6.4,5.1-8,8.5c-5.5,11.7-11.1,23.3-16.3,35.2c-7,16-14.4,31.8-20.3,48.2c-6.5,18.1-11.4,36.7-17.1,55.1
		c-1.1,3.4-2.5,6.8-3.4,10.3c-4.8,18.3-9.6,36.7-14.3,55.1c-2.4,9.3-4.5,18.7-6.9,28c-2.3,9-5,18-7.2,27.1c-0.6,2.4-0.1,5.1-0.1,7.5
		c10,1.5,18.9,3.5,27.9,4.1c17.8,1.2,35.3,2.8,52.8,6.9c17.5,4.1,35.7,5.4,53.7,7.7c8.7,1.1,17.4,1.5,26.1,2.3
		c11,1,22.1,1.7,33.1,3.3c11.2,1.7,22.4,3,33.7,4c20,1.8,39.8-0.7,59.6-2.4c4.8-0.4,9.5-1.2,14.3-1.8c6.3-0.7,12.7-0.9,18.9-2.1
		c11.8-2.4,23.5-5.1,35.2-8c21.3-5.4,43.1-9.4,63.3-18.6c6.3-2.9,12.3-6.6,18.8-8.9c18-6.5,34.3-16.3,50.6-26.1
		c5.9-3.6,7-6.7,5.4-13.8c-1.4-6.1-3.2-12.1-4.4-18.2c-3.9-21.5-12.6-41.3-20.6-61.4c-5-12.6-13.1-23.9-15.2-37.6
		c-0.7-4.7-0.8-9.6-2.1-14.3c-4.7-18-11.2-35.5-15.5-53.8c-4.2-18-10.1-35.9-21.5-51.2c-1.4-1.9-1.1-6-2.7-6.8
		c-5-2.6-5.7-7.5-7.9-11.7c-2.3-4.4-3.5-9.7-8.7-12.6c-1.4,1.8-2.9,3.4-3.9,5.2c-2.9,5.2-5.3,10.8-8.5,15.9
		c-9.6,15.4-19.7,30.5-32.4,43.6c-11.1,11.5-21.4,23.8-36,31.2c-4.5,2.3-8.4,5.8-12.4,9c-22.2,18.2-46.2,29.2-76.4,24.6
		c-21.8-3.3-41.2-10.4-59-23.2c-22.6-16.2-43.4-34.6-63.9-53.3C418.3,304.3,415.1,302.1,412.5,300z M291.9,740
		c1.2,0.8,1.9,1.4,2.7,1.7c13.8,4.8,27.9,7.8,42.5,8.4c6.6,0.3,13.1,0.7,19.7,1.1c3.3,0.2,4.9,1.6,4.2,4.2
		c-24.5,2.3-47.8-1.6-71.5-7.5c-1.1,10.3-2.2,20-3.4,31c16.3,1.1,31.6,2,46.9,3c3.3,0.2,6.7,0.3,9.9,1c1.3,0.3,2.2,2.4,3.3,3.7
		c-0.3,0.6-0.7,1.2-1,1.8c-20.1-1.1-40.2-2.2-60.7-3.3c-0.3,0.6-1.3,1.6-1.4,2.7c-0.6,5.9-0.9,11.9-1.4,18.6
		c7.1,0.4,13.6,0.9,20.2,1c14.4,0.3,28.9,0.5,43.3,0.8c3.2,0.1,4.3,1.7,2.9,5.2c-22.3,0-44.8,0-66.8,0c0,4.4,0,8.8,0,13.6
		c7.8,0.8,14.9,1.7,22.1,2.1c7.5,0.5,15.1,0.7,22.7,0.8c7.1,0.2,14.1,0.1,21.7,0.2c-2.5,5.1-2.5,5.3-6.7,5.2
		c-18.7-0.5-37.5-1.1-56.2-1.7c-1.7-0.1-3.5,0.2-5.8,0.3c-0.2,3.7-0.4,6.9-0.6,10c13.5,9.5,60.4,19.3,84.5,8.2
		c0.8-8.8,1.6-17.8,2.4-26.7c0.7-7.8,1.1-15.6,1.9-23.4c1.4-13.6,4.2-26.6,12.8-38.1c8.9-11.9,20.2-20,34.3-23.5
		c15.1-3.7,30.5-6.2,45.8-9c2.2-0.4,5,0,7,1c3.7,1.8,7.1,4.2,9.7,5.9c0.3,5.6,0.1,10.5,0.9,15.1c1.3,7.7-0.4,10.5-8.6,10.3
		c-9.2-0.3-15.7,4-20.4,11.2c-4.2,6.3-7.8,12.9-11.9,19.3c-2.9,4.6-5.7,9.1-4.7,15c0.2,1.3-0.7,2.8-1.1,4.3
		c-3.2,11.9-6.5,23.8-9.5,35.8c-1.2,4.8-1.6,9.8-2.3,14c3.8,0.4,6.8,0.2,9.5,1c9.4,2.8,19.2,3.7,28.7,6c16.9,4.1,34.4,5.6,51.8,7.8
		c24.6,3.1,49.3,4.3,73.8-1c4.3-1,8.9-1.2,13.3-1.7c9-1.1,17.9-2.2,26.9-3.1c13.1-1.4,26.3-2.8,39.4-4.1c5-0.5,10.1-0.8,15.2-1.5
		c15.8-2.1,31.7-4.3,47.5-6.6c2.9-0.4,5.7-1.3,9.5-2.3c0-8.1-1.4-15.9,0.3-23c3.4-13.8-1.7-26.1-4.6-38.7
		c-1.3-5.8-3.6-11.9-7.3-16.4c-9.5-11.4-19.4-22.8-35.8-25.3c0-10.9-1.6-21.7,1-33c2.7-0.1,5-0.6,7.3-0.4c9.6,0.9,19.3,1.3,28.7,3.1
		c9.4,1.8,19,3.9,27.6,7.7c7.2,3.2,13.2,9.3,19.8,13.8c10,6.8,17.5,15.6,20.8,27.4c2.5,9,4.7,18.1,6.9,27.1
		c1.3,5.5,2.9,11.1,3.6,16.7c1.2,9.8,1.5,19.7,8.4,28.5c21-5.9,41.9-13.8,64.2-13.9c6.8-12.2,2.6-23.7,0.9-34.7
		c-18.5,3.4-36.1,6.7-53.6,9.9c-0.2-0.6-0.5-1.3-0.7-1.9c1.8-1.3,3.5-3.3,5.6-3.8c9.4-2.1,18.8-4.1,28.3-5.4
		c7.3-1,13.8-3.2,20.1-7.9c-3.2-7.7-0.3-16.2-3.8-23.3c-18.9,6-37,11.8-55.4,17.7c-1.5-5.6,1.3-7.3,4.5-8.4c2.3-0.8,4.7-1,7.1-1.6
		c14.9-3.6,29.6-7.8,43.2-15.7c-1.3-6.9-2.1-13.7-6.4-19.4c-9,4-17.2,8.9-26.1,11.2c-8.9,2.3-18.2,5.1-27.8,1.5
		c8.5-3.5,17.8-4,26.3-6.5c9.1-2.7,17.2-8.4,25.8-12.8c0.3-8.4,0.5-16.1-1.9-24.8c-3.6,1.5-6.6,2.6-9.4,4
		c-11.5,5.8-22.3,13.1-35.2,16.2c-10.2,2.4-20.4,5.2-30.6,7.6c-1.6,0.4-3.6-0.5-5.4-0.9c-0.1-0.6-0.2-1.3-0.3-1.9
		c2.9-1.2,5.7-3,8.7-3.5c23.7-4.5,45.6-13.5,66.3-25.5c2.5-1.5,4.6-3.2,3.7-6.5c-1.7-6.6-3.6-13.1-5.7-20.5
		c-12,5.7-22.7,11.3-33.8,15.9c-16.4,6.8-33.2,12.8-49.8,19.1c-0.8,0.3-1.8,0.4-2.7,0.5c-11.1,1.2-22.1,2.5-33.2,3.5
		c-1.7,0.2-3.6-0.7-7.6-1.5c6.4-4.6,11.5-5.8,16.9-5.6c21.1,0.6,40.2-7.6,59.3-14.6c17.1-6.2,33.2-15.3,49.8-23.1
		c-2.2-8.1-4.3-15.9-6.5-24.1c-2,1-4.2,2-6.3,3c-5.5,2.5-10.8,5.7-16.5,7.4c-19.6,5.8-39.4,11.1-59.2,16.4
		c-14.8,3.9-29.6,7.6-44.5,11.1c-15.8,3.7-31.6,7.4-47.5,10.3c-8.3,1.5-16.9,0.7-25.3,1.5c-19.2,1.9-38.2,4.8-57.4,5.9
		c-17,1-34-1.3-51.2,0.3c-18.6,1.8-37.3,1.3-56,1.4c-19.3,0.1-38.7,0.9-57.9-2.9c-11.2-2.2-22.5-3.1-34-2.7c-8,0.3-16-1.7-24-2.6
		c-5-0.5-10.2-1.8-15.1-1.2c-7.7,1-15,0.2-22.4-1.6c-9.8-2.3-19.6-4.4-29.4-6.7c-1.2,7-2.5,14.4-3.9,22.1c9.5,4.9,19.5,8,30.4,9.7
		c19.3,3.1,38.5,7,58.1,8.4c2.8,0.2,5.2,0.7,6.7,5.6c-16.8-0.5-32.4-2.7-47.8-5.1c-15.8-2.4-32.2-2.5-48.2-11.3
		C293.6,723.8,292.8,732,291.9,740z M734.3,872.1c-23.3-1-46.5,0.2-69.5,3.1c-6.9,0.9-13.3,4-20.7,0.6c-3.2-1.5-8.1,1.3-12.3,1.4
		c-25.3,1-49.9,7.7-75.3,8c-9.9,0.1-19.9,0.8-29.8,0.2c-25.8-1.5-51.5-3.8-77.2-5.4c-6.7-0.4-13.4,0.9-20.1,0.9
		c-4.7,0-9.5-0.8-14.5-1.3c-6.7,18.7-16.6,35.2-28.1,50.7c6.1,4.5,12.1,8,16.9,12.7c4.5,4.4,9.8,8.5,11.1,15.3c1.9,10,3.9,20,5.6,30
		c0.9,5.3,1.3,10.7,1.8,15.8c0.8,0.6,1.3,1.3,1.8,1.3c15.5,0.1,30.8,3.6,46.2-3c14.8-6.3,27.6-14.6,38.5-26.2
		c4.7-5.1,9.9-9.8,15-14.4c2.7-2.4,7-1.2,6.2,1.1c-2.6,7.7,3.6,9.6,7.8,12c11.5,6.6,23.4,12.5,35.3,18.4c5.1,2.5,10.3,5.4,15.8,6.4
		c11.8,2,23.8,5.3,35.5-0.6c0.8-0.4,1.8-0.1,2.7-0.4c5.1-1.8,10.5-2.9,15.2-5.5c13-7.2,24.3-16.9,34.1-28c3.7-4.2,6.6-9.2,9.2-14.2
		c1.9-3.7,4-4,6.6-2.9c3.2,11.4,14.3,16.6,17.9,27.2c2.5-0.7,4.4-1.3,4.5-1.3c8.3,4.5,15.2,8.2,22.3,12c4.3-7.7,8.2-15.1,12.5-22.4
		c1.7-2.8,3.7-5.5,6-7.9c8-8.5,8.4-13.6,3.1-23.8c-5.4-10.3-12.3-19.9-15.3-31.6C740.8,891,737.5,882,734.3,872.1z M305.7,643.1
		c5.5,1.1,9.6,1.9,13.6,2.7c8,1.5,15.9,3,23.9,4.3c7.4,1.2,15.1,1.5,22.3,3.3c8.8,2.2,17.6,3.6,26.7,4.1c9.6,0.5,19.1,1.8,28.7,2.9
		c9.9,1.1,19.7,3.1,29.6,3.3c26.5,0.5,53,0.2,79.5,0.4c16.5,0.2,32.9,0.7,49.5-1.5c25.3-3.3,50.8-4.9,76.3-7.2
		c4.5-0.4,8.9-1.2,13.4-1.6c8.4-0.8,16.9-0.9,25.2-2.3c28-4.6,55.5-11.8,82.8-19.6c4.1-1.1,8.1-2.5,11.9-4.4
		c13.4-6.8,26.7-13.9,40.1-20.6c1.2-0.6,3.2,0.2,4.8,0.4c-0.5,1.5-0.5,3.7-1.5,4.5c-2.4,1.8-5.2,3-7.9,4.2
		c-17.4,8.1-33.8,18.7-52.7,23.6c-18.1,4.7-36.3,9.2-54.5,13.3c-10.5,2.4-21.2,4.4-31.9,5.8c-9.9,1.3-19.9,1.5-29.8,2.3
		c-9,0.7-18,1.6-27,2.4c-14.7,1.3-29.3,2.7-44,4c-2.7,0.2-5.5-0.1-8.1,0.7c-10.7,3-21.5,2.3-32.4,2.2c-15.1-0.2-30.1-0.3-45.2-0.3
		c-14.5,0-29,1.2-43.4,0.1c-24-1.8-48-4.9-72-7.8c-11.1-1.3-22-3.9-33.1-4.8c-15.2-1.3-30.2-3.6-45.6-8.7c-1.9,10-3.6,19.6-5.4,29.3
		c8.2,2,15.3,3.9,22.5,5.4c8.5,1.7,16.8,5.1,25.6,4c8.6-1.1,16.7,0.6,25,2.3c7,1.4,14.4,1.4,21.6,1.8c2.9,0.2,6-0.6,8.8-0.1
		c21,3.3,42.2,5.7,63.5,5.8c15.7,0,31.4-1.3,47.1-1.8c11.5-0.4,23-0.5,34.4-0.8c8.8-0.2,17.5-0.5,26.3-0.8
		c13.5-0.4,27.1-0.4,40.6-1.4c12.9-0.9,25.8-4.5,38.6-4c17.6,0.6,34-3.8,50.7-7.5c14.1-3.1,28-6.8,42-10.3c4.1-1,8.1-2.2,12.2-3.4
		c16.2-4.6,32.4-9.3,48.7-13.6c13.5-3.6,26.1-8.8,38.7-15.7c-3.8-18-9.2-35-16.1-51.8c-20,4.8-38.4,11.8-56.8,18.9
		c-7,2.7-14.2,5.2-21.5,6.8c-16.4,3.5-32.9,6.1-49.4,9.3c-9.2,1.8-18.2,5-27.4,6c-22.5,2.5-45.1,4.7-67.7,6
		c-12.9,0.7-25.7,3.7-38.8,1.3c-6.4-1.2-13.2-1-19.8-0.5c-19.2,1.3-38.3,3.6-57.6,0.4c-1.8-0.3-3.7-0.7-5.4-0.3
		c-12.2,3.2-24.4,0.8-36.2-1.2c-13.6-2.3-26.9-6.2-41-4.7c-1.8,0.2-3.6-0.1-5.4-0.3c-13.6-1.8-27.3-3.5-40.9-5.4
		c-9.2-1.3-18.3-3.6-27.5-4.5c-8.2-0.9-16.7-1.9-24.7,0.9C308.3,627.4,307,635.3,305.7,643.1z M909.9,832.9
		c-2.9-7.5-5.4-13.5-7.7-19.7c-1.6-4.2-3.1-8.4-4.4-12.7c-3.2-10.3-0.2-21.8-6-31.8c-0.7-1.2-0.4-3.8,0.4-5
		c3.1-4.2,2.3-8.6,1.2-12.9c-5.2-19.5-5.6-39.7-7.5-59.6c-1.7-18.6-1.7-37.3-2-56c-0.3-17.3-0.1-34.5-0.1-51.8
		c0-9.3,0.1-18.6,0.4-27.9c0.3-8.4,1.2-16.8,1.2-25.3c0-6.7,0.2-13.1,2.5-19.6c1.7-4.7,1.9-10,2.5-15.1c1.8-15.9,4.7-31.7,10.4-46.6
		c2.7-7.1,5.1-15.2,12.1-19.7c10.3-6.6,21.9-10.9,33.8-11.6c17.5-1,34,4.2,48.4,14.5c9.1,6.5,13.8,15.6,14.3,27
		c0.3,6.6,1.3,13.2,2.2,19.8c2.1,15.8,5.1,31.5,4.4,47.7c-0.5,11.5-0.3,23,0.4,34.5c0.9,17.4,2.4,34.9,3.8,52.3
		c1.6,19.9,6.6,38.1,19.5,54.4c15.7,19.9,42.7,24.1,61.5,8.5c6.7-5.6,13.2-11.5,19.2-17.8c11-11.6,15.5-24.7,8.5-40.5
		c-1.5-3.2-3.2-5.5-6.1-5.7c-4.7-0.3-9.7-0.3-14.1,0.9c-5.4,1.6-10.5,4.6-15.7,7c-6.3,2.9-18.7,0.6-23.3-4.4
		c-5-5.4-8.6-11.4-10-18.8c-1.1-5.6-3.1-11-4.3-16.5c-2.3-11.2-4.6-22.4-6.4-33.6c-2.1-13-3.4-26.2-5.8-39.2
		c-2.6-14.2-5.9-28.2-9.3-42.2c-5.4-21.9-11.1-43.7-16.8-65.5c-0.8-2.8-1.9-5.9-3.9-8.1c-6.5-7.1-13.2-14.1-20.2-20.6
		c-12.4-11.4-27.5-11.2-42.5-7.8c-9.9,2.2-19.5,5.9-28.9,9.9c-10.5,4.4-20.5,9.9-30.7,15c-1.8,0.9-3.3,2.6-4.9,4
		c-11.4,10.1-14.4,23.9-16.6,38.1c-0.8,5-2.2,10-3.2,14.9c-1.6,7.3-3.6,14.6-4.5,22c-1.7,12.8-2.9,25.7-4,38.7
		c-1.2,13.8-2.3,27.6-2.8,41.5c-0.5,13.6-0.3,27.2,0,40.8c0.3,15.9-2.2,32,1.7,47.8c0.3,1.4,0.7,3.4-0.1,4.4
		c-4.1,5.8-1.1,11.5,0.3,17c3.4,14.4,7.6,28.5,10.8,43c3.5,16.1,3,33,9.5,48.6c1.6,3.8,2.1,8.1,2.7,12.3c1.9,13.4,3.4,26.9,5.5,40.3
		c1.6,10.4,4.2,20.6,10,29.5C899.7,831.8,903.8,832.3,909.9,832.9z M693.1,727.3c0,6.6,0,11.7,0,16.8c0,3.5,1.2,5.6,5,6.2
		c5,0.8,10.2,1.7,14.9,3.6c5,2,11.2,3.9,13.9,7.9c6.2,9.2,14.8,17.9,13.1,30.8c-0.3,2,0.7,4.1,0.9,6.2c0.8,10.2,3,20.5,2.1,30.6
		c-1.7,18.5-1.7,36.5,3.2,54.5c1.7,6.1,4.3,11,9.6,14.7c3.6,2.5,7.5,5.7,9.2,9.5c2.9,6.4,7.3,10.9,12.7,15c7.6,5.7,8,8.6,1.1,14.8
		c-13.3,12.1-23.9,25.9-31.3,42.5c-4.9,11.2-6.9,22.3-5,34.2c0.7,4.7,2.3,9.4,2.5,14.2c0.5,12.3,0.6,24.6,0.4,37
		c-0.2,15.9-1.3,31.7-16.5,41.6c-3.1,2-6.9,3.4-10.5,4.3c-4.3,1-9.4,0.1-13.2,2c-3.6,1.8-5.6-0.5-9.8-1.9c2,7.1,3.3,12.9,5.6,18.3
		c0.9,2,4.1,3.7,6.6,4.1c3.5,0.6,7.2-0.1,10.8-0.1c5.1,0,10.1,0.1,15.2,0.3c2.4,0.1,5,0.8,7.2,0.3c15.9-3.9,32-7.9,40.5-24
		c4.8-9,10.6-17.9,13.3-27.6c3.3-12.1,4.1-24.9,5.3-37.5c1.4-16.4,2.6-32.8,7.4-48.8c2.1-6.9,2.7-14.2,4.9-21
		c1.9-5.9,4.5-11.8,7.8-16.9c2.9-4.4,7.4-7.8,11-11.8c4.4-4.8,9.2-8.5,15.6-10.5c3.4-1,6.5-3.3,9-4.6c-10.5-8.3-21.1-15.4-30-24.2
		c-11.7-11.5-20.8-25-23.2-42c-2.8-19.4-5.8-38.7-9.1-57.9c-1.5-8.9-3.5-17.7-5.7-26.5c-1.3-4.9-2.9-9.9-5.3-14.3
		c-10.1-18.1-27.4-27.3-45.8-34.5C722.7,727.1,708.3,729.1,693.1,727.3z M361.7,863.9c-11.2,0.5-21.3,1.1-31.5,1.3
		c-4.1,0.1-8.3-0.5-12.2-1.5c-3-0.8-5.6-3.1-8.6-3.9c-13.7-3.4-27.4-6-40.9-10.8c-11.8-4.2-24.8-4.2-36.7,1.7
		c-9.5,4.7-18.7,9.9-28.3,14.4c-14.6,6.9-22.9,18.6-27.3,33.8c-2.7,9.2-0.1,17.8,0.7,26.8c2.2,23.2,12,42.8,27.3,59.6
		c6.1,6.7,14,11.8,21.1,17.7c28.7-6.6,50.8-25.1,73.1-44.3c13.3,27.2,35.9,37.3,64,41c-0.6-5.4-0.8-10.1-1.7-14.8
		c-3.6-18.5-11.4-34.6-26.6-46.7c-5.8-4.6-10.7-10.3-16.8-16.2C339.6,908.3,354.8,890.4,361.7,863.9z M969.5,962.3
		c0.6-2.8,1-3.9,1-5.1c0.1-12.7,1-25.4-0.1-38c-0.9-10-3.6-20.1-6.7-29.7c-2.2-6.8-5.9-13.2-9.7-19.4c-7.5-12-16.9-22.4-30.8-26.6
		c-10.3-3.1-21.1-4.9-31.8-6.1c-14.8-1.7-29.6,0.9-44,4.2c-9.1,2.1-17.8,5.5-26.6,8.4c-4.5,1.5-8.9,3-13.4,4.6
		c1.1,5.6,1.8,10.4,2.9,15c3.5,14.8,13.6,25.3,23.6,35.8c3.5,3.7,7.4,7.1,11.4,10.2c4.5,3.4,9.7,6,14,9.5c6.6,5.5,5.8,9.8-1.9,13.4
		c-2.2,1-4.3,2.4-6.6,2.9c-8.4,1.9-14.7,6.5-20.1,13c-1.5,1.9-3.8,3.2-5,5.2c-3,4.8-6.5,9.5-8.1,14.8c-3,10.3-4.9,21-7.2,31.5
		c-1.6,7.8-0.4,9.6,7.5,10.8c6.5,0.9,13.3,0.7,19.6,2.4c9.9,2.6,18.3-0.7,27.1-4.2c13.2-5.3,25.7-11.7,36.8-20.7
		c15.5-12.5,30.4-25.4,43.2-40.7c1.2-1.4,1.8-3.4,3.2-4.3c1.6-1,3.8-1.6,5.6-1.5c0.7,0.1,1.3,2.6,1.9,4c0.3,0.7,0.4,1.9,0.9,2.2
		C960.2,956.8,964.3,959.2,969.5,962.3z M327.5,924.2c2.1,2.3,4,4.6,6.1,6.6c5.1,4.7,10.9,8.7,15.4,13.9
		c12.8,14.9,18.8,32.8,19.8,52.2c0.7,15.1,0.4,30.2,0.7,45.3c0.1,5.4,1.1,10.8,1.1,16.2c-0.2,15.2-0.9,30.5-0.9,45.7
		c0,3.3,1.5,7.7,3.9,9.6c11.6,9.4,24.7,15.9,39.8,18c10.3,1.5,20.6,4,31,4.7c7.5,0.5,15.4,1.3,22.3-1.9c-0.4-7.1-0.8-13.1-1.2-19
		c-0.2-3.6-2-5.9-5.7-5.5c-6.8,0.8-12.2-2.7-17.9-5.1c-18.5-7.9-30.6-20.9-31.8-42c-0.4-7.2-1-14.4-1.5-21.7
		c-0.6-9.3-1.5-18.6-1.4-27.9c0.1-12,1.9-24.1,1.4-36c-0.3-8.3-3.1-16.6-5.1-24.8c-0.5-1.9-1.9-4-3.5-5.1
		c-8.8-6.6-17.7-12.9-26.5-19.4c-1.5-1.1-3.7-3-3.6-4.2c0.2-1.6,2.3-3.9,3.9-4.2c6.3-1.3,11.4-4.6,15.2-9.2
		c5.4-6.4,10.7-13.1,14.8-20.3c6.1-10.7,10.3-22.2,11.3-34.9c1.2-15,2-30.1,7.2-44.5c1.5-4.1,1.8-8.7,3.1-13
		c2.4-8.1,4.6-16.3,7.7-24.1c5.6-13.9,10.4-16.5,25.4-16.3c3.5,0.1,6.9,0,10.2,0c0-4.6,0.3-8.3-0.1-11.9c-0.4-5-3.2-8.2-7-7.9
		c-8.1,0.6-16.3,1-24.1,2.8c-9.9,2.3-19.5,6-29.3,8.9c-11.2,3.4-18.9,11.3-23.6,21.2c-5.2,11-12.3,21.7-10.7,34.9
		c0.1,0.6-0.4,1.2-0.4,1.8c-1,10.5-2,21-2.9,31.6c-0.8,10.5-1.1,21-2.3,31.5c-0.5,4.4-2.1,8.9-4.3,12.7
		C355.1,898.9,343.3,912.9,327.5,924.2z M819.1,546.6c-5.6,2.3-10.3,4.2-14.9,6.1c-11.9,4.8-24,9.2-35.5,14.7
		c-8.3,4-16.2,9.4-25.4,9.8c-6.5,0.3-12.2,2.3-17.9,4.6c-1.1,0.4-2.3,0.5-3.5,0.8c-15.4,3.9-30.7,7.9-46.1,11.5
		c-13.8,3.2-27.5,6.8-41.5,8.8c-17.6,2.6-35.4,4.1-53.1,5.4c-11.1,0.8-22.3,1-33.5,0.6c-16-0.6-31.9-2-47.9-2.9
		c-14.4-0.8-28.8-0.7-43-4.6c-9.4-2.6-19.5-3-29.3-4c-10.2-1-20.5-0.8-30.6-2.2c-17.8-2.5-35.5-5.9-53.3-8.6
		c-8.8-1.3-17.8-2-26.9,0.9c-1.5,6.1-2.9,12.1-4.6,19.2c22,3.7,42.9,7.8,63.9,10.5c22.3,2.9,44.7,4.8,67.2,6.5
		c15.3,1.2,30.7,1.1,46,2.1c11.1,0.7,22.2,2.2,33.3,3.2c4.2,0.4,8.4,0.8,12.6,0.6c10.3-0.3,20.5-1.1,30.8-1.3
		c12-0.3,24.1,0.4,36.1-0.3c18.3-1,36.6-2.9,54.9-4.4c2.1-0.2,4.1-0.8,6.2-1.3c4.4-1,8.7-2.4,13.1-3.1c11.8-1.8,23.4-4.4,35.3-5.7
		c11.9-1.3,23.5-5.4,35-9c14.7-4.6,29.4-9.3,43.7-15.1c10.5-4.3,20.3-10.4,30.4-15.8c3.1-1.7,5.2-4.3,4.2-8.1
		C822.8,559.2,820.9,552.9,819.1,546.6z"/>
	<path fill="#C1D7E1" d="M412.5,300c2.6,2.1,5.8,4.3,8.6,6.9
		c20.5,18.7,41.3,37.1,63.9,53.3c17.8,12.7,37.2,19.8,59,23.2c30.2,4.6,54.1-6.4,76.4-24.6c4-3.2,7.9-6.8,12.4-9
		c14.7-7.4,25-19.8,36-31.2c12.7-13.1,22.8-28.2,32.4-43.6c3.2-5.1,5.6-10.6,8.5-15.9c1-1.8,2.5-3.3,3.9-5.2
		c5.2,2.9,6.4,8.2,8.7,12.6c2.2,4.2,2.8,9.1,7.9,11.7c1.6,0.8,1.3,4.9,2.7,6.8c11.4,15.3,17.3,33.2,21.5,51.2
		c4.2,18.3,10.7,35.7,15.5,53.8c1.2,4.6,1.3,9.5,2.1,14.3c2.1,13.7,10.2,25.1,15.2,37.6c7.9,20.1,16.6,40,20.6,61.4
		c1.1,6.1,3,12.1,4.4,18.2c1.6,7.1,0.6,10.2-5.4,13.8c-16.3,9.8-32.5,19.6-50.6,26.1c-6.5,2.3-12.5,6-18.8,8.9
		c-20.2,9.2-41.9,13.3-63.3,18.6c-11.7,2.9-23.4,5.7-35.2,8c-6.2,1.2-12.6,1.4-18.9,2.1c-4.8,0.5-9.5,1.4-14.3,1.8
		c-19.8,1.7-39.6,4.2-59.6,2.4c-11.3-1-22.5-2.4-33.7-4c-10.9-1.6-22-2.3-33.1-3.3c-8.7-0.8-17.5-1.2-26.1-2.3
		c-17.9-2.3-36.1-3.6-53.7-7.7c-17.5-4.1-35-5.7-52.8-6.9c-9-0.6-17.9-2.6-27.9-4.1c0-2.4-0.5-5,0.1-7.5c2.2-9.1,4.9-18,7.2-27.1
		c2.4-9.3,4.5-18.7,6.9-28c4.7-18.4,9.5-36.7,14.3-55.1c0.9-3.5,2.3-6.8,3.4-10.3c5.7-18.4,10.6-37,17.1-55.1
		c5.9-16.4,13.3-32.3,20.3-48.2c5.2-11.8,10.8-23.5,16.3-35.2C406.2,305.1,406.9,300.7,412.5,300z M546.2,495.3
		c1.5,6.1,3,11.5,4.2,17c0.3,1.3-0.6,2.9-1.3,4.2c-9.6,15.9-22.8,26-42.1,26.6c-3,0.1-6,0.9-8.9,1.6c-18.1,4.4-36.2,8.7-54.3,13.3
		c-2.7,0.7-6.1,1.5-5.3,6.3c2.9,1.9,5.4,1.5,8.9-0.1c20.2-9,41.7-13.1,63.5-16c14.6-2,27.1-7.9,36.1-19.9c2.5-3.3,5-6.5,7.2-9.3
		c4.8,2.8,8.4,6,12.5,7.3c18.3,5.5,37.1,4.5,55.6,2.4c12.4-1.4,24.5-2.8,36.9-1.4c1.8,0.2,3.7-0.7,5.6-1c0.1-0.6,0.2-1.3,0.3-1.9
		c-2.9-1.2-5.8-2.4-8.8-3.4c-9.6-3.3-19.1-0.2-28.7,0.7c-19.5,1.7-39.1,3.3-58.5-1.3c-7.5-1.8-12.3-6.3-14.6-13.4
		c-1.3-4.2-1.8-8.6-2.6-13c2.1-1.1,3.5-1.7,4.8-2.4c11-6.4,11.7-13.1,4.1-23.6c-5-6.8-12.8-6.9-19.2-10.8c-1.5,2.2-2.4,4.1-3.8,5.5
		c-4.2,4.2-8.7,8.1-12.8,12.4c-4.5,4.7-4.4,7.5-0.6,12.6C529.7,494.7,536.2,498.6,546.2,495.3z M610.2,478.3
		c5.3-1.1,10.9-1.4,15.9-3.3c14-5.5,26.9-12.4,30-29.3c3.1-17-6.8-34.7-26.7-37.3c-10.4-1.3-20.8-2.2-31.2-3.1
		c-1.4-0.1-3.1-0.1-4.3,0.6c-9.3,5.5-14,14.6-17.7,24.2c-0.4,1-0.1,2.4,0.1,3.6c1.3,7.6,2.1,15.4,4,22.9
		C583,467.2,595.1,479.6,610.2,478.3z M520.4,437.3c-0.3-2.8-0.1-5.3-1-7.4c-3.8-8.9-15.8-16.4-25.8-15.5c-9,0.8-18,2.4-25.9,7.2
		c-2.5,1.5-4.8,3.6-6.7,5.8c-6.2,7.3-7.2,16.6-7.4,25.5c-0.1,5.3,2.4,12,7.9,14.5c7,3.1,14.8,5.9,22.3,6.2
		c13.7,0.6,24.8-6.3,34.1-16c1.3-1.4,2.2-3.7,2.3-5.6C520.6,447,520.4,442,520.4,437.3z M572.7,498.2c5,1.8,8.3,1.5,10.1-2.5
		c0.5-1.2-0.2-3.9-1.3-4.6c-1.5-1-3.8-0.8-6-1.1C574.6,492.7,573.8,494.9,572.7,498.2z M481,518.3c-4.1-1.1-4.6-6.9-9.4-4
		c-2.6,1.6-3,4.5-0.8,6.8C474.3,524.6,477.1,522.3,481,518.3z M510,497.6c-4-3.3-6.9-5.7-10-2.8c-2.7,2.6-1,5.4,2,8.6
		C504.3,501.7,506.7,500,510,497.6z M587.7,508c-0.3,1-0.7,2.1-1,3.1c2,1.4,3.8,3.4,6,4c1.3,0.3,3.3-1.6,4.9-2.6
		c-1.1-1.5-1.9-3.8-3.3-4.3C592.4,507.5,589.9,508,587.7,508z M614.8,495.7c-0.2-0.9-0.5-1.9-0.7-2.8c-2.7,0.2-5.5,0-7.9,1
		c-0.7,0.3-0.1,3.8-0.1,8C610.2,498.9,612.5,497.3,614.8,495.7z M514.3,519.4c-2.6-1.6-4.3-3.6-5.8-3.4c-1.2,0.2-2.1,2.8-3.1,4.4
		c1.4,0.8,2.8,2.2,4.2,2.1C510.9,522.6,512.1,521,514.3,519.4z"/>
	<path fill="#8FB2C5" d="M291.9,740c0.9-8,1.8-16.2,2.9-26.2c16.1,8.8,32.4,8.9,48.2,11.3
		c15.4,2.4,31.1,4.6,47.8,5.1c-1.5-4.9-3.9-5.4-6.7-5.6c-19.6-1.3-38.8-5.2-58.1-8.4c-10.9-1.8-20.8-4.8-30.4-9.7
		c1.4-7.8,2.6-15.1,3.9-22.1c9.8,2.2,19.6,4.3,29.4,6.7c7.4,1.8,14.7,2.6,22.4,1.6c4.9-0.7,10.1,0.6,15.1,1.2c8,0.9,16.1,2.8,24,2.6
		c11.5-0.4,22.7,0.5,34,2.7c19.1,3.8,38.5,3,57.9,2.9c18.7-0.1,37.5,0.3,56-1.4c17.2-1.6,34.2,0.6,51.2-0.3
		c19.2-1.1,38.3-4,57.4-5.9c8.4-0.8,17-0.1,25.3-1.5c16-2.8,31.8-6.6,47.5-10.3c14.9-3.5,29.7-7.2,44.5-11.1
		c19.8-5.3,39.5-10.6,59.2-16.4c5.7-1.7,11-4.9,16.5-7.4c2.1-1,4.3-2,6.3-3c2.2,8.2,4.3,16,6.5,24.1c-16.6,7.8-32.7,16.9-49.8,23.1
		c-19.1,6.9-38.2,15.2-59.3,14.6c-5.4-0.1-10.5,1-16.9,5.6c4,0.8,5.8,1.7,7.6,1.5c11.1-1,22.2-2.3,33.2-3.5c0.9-0.1,1.8-0.2,2.7-0.5
		c16.6-6.3,33.4-12.3,49.8-19.1c11.1-4.6,21.8-10.2,33.8-15.9c2.1,7.4,4,14,5.7,20.5c0.9,3.3-1.2,5-3.7,6.5
		c-20.7,12.1-42.6,21-66.3,25.5c-3,0.6-5.8,2.3-8.7,3.5c0.1,0.6,0.2,1.3,0.3,1.9c1.8,0.3,3.7,1.2,5.4,0.9
		c10.2-2.4,20.4-5.2,30.6-7.6c12.8-3,23.7-10.3,35.2-16.2c2.8-1.4,5.8-2.5,9.4-4c2.4,8.7,2.2,16.4,1.9,24.8
		c-8.6,4.4-16.8,10.2-25.8,12.8c-8.6,2.5-17.8,3-26.3,6.5c9.6,3.6,19,0.7,27.8-1.5c8.9-2.3,17.1-7.2,26.1-11.2
		c4.3,5.6,5.1,12.5,6.4,19.4c-13.6,7.9-28.3,12-43.2,15.7c-2.4,0.6-4.8,0.8-7.1,1.6c-3.2,1.1-6,2.8-4.5,8.4
		c18.4-5.9,36.6-11.7,55.4-17.7c3.5,7,0.6,15.6,3.8,23.3c-6.2,4.7-12.8,6.9-20.1,7.9c-9.5,1.2-18.9,3.3-28.3,5.4
		c-2,0.5-3.7,2.5-5.6,3.8c0.2,0.6,0.5,1.3,0.7,1.9c17.5-3.2,35-6.5,53.6-9.9c1.7,11,5.9,22.5-0.9,34.7c-22.3,0-43.2,7.9-64.2,13.9
		c-6.9-8.8-7.2-18.8-8.4-28.5c-0.7-5.6-2.2-11.2-3.6-16.7c-2.2-9.1-4.4-18.1-6.9-27.1c-3.3-11.8-10.8-20.6-20.8-27.4
		c-6.7-4.5-12.6-10.6-19.8-13.8c-8.7-3.8-18.3-6-27.6-7.7c-9.4-1.8-19.1-2.2-28.7-3.1c-2.3-0.2-4.6,0.2-7.3,0.4
		c-2.6,11.3-1,22.1-1,33c16.4,2.5,26.3,13.9,35.8,25.3c3.7,4.4,6,10.6,7.3,16.4c2.9,12.7,7.9,25,4.6,38.7c-1.7,7.1-0.3,14.9-0.3,23
		c-3.8,0.9-6.7,1.9-9.5,2.3c-15.8,2.3-31.7,4.5-47.5,6.6c-5,0.7-10.1,1-15.2,1.5c-13.1,1.3-26.3,2.7-39.4,4.1
		c-9,1-17.9,2.1-26.9,3.1c-4.4,0.5-9,0.7-13.3,1.7c-24.5,5.4-49.2,4.2-73.8,1c-17.3-2.2-34.9-3.6-51.8-7.8c-9.5-2.3-19.3-3.2-28.7-6
		c-2.7-0.8-5.7-0.6-9.5-1c0.7-4.2,1.1-9.2,2.3-14c3-12,6.3-23.8,9.5-35.8c0.4-1.4,1.3-2.9,1.1-4.3c-1-5.9,1.8-10.4,4.7-15
		c4-6.4,7.7-13,11.9-19.3c4.8-7.2,11.2-11.5,20.4-11.2c8.2,0.3,9.9-2.5,8.6-10.3c-0.8-4.7-0.6-9.5-0.9-15.1c-2.7-1.7-6-4.1-9.7-5.9
		c-2.1-1-4.8-1.4-7-1c-15.3,2.8-30.7,5.3-45.8,9c-14.1,3.5-25.4,11.5-34.3,23.5c-8.6,11.5-11.4,24.4-12.8,38.1
		c-0.8,7.8-1.3,15.6-1.9,23.4c-0.8,9-1.6,17.9-2.4,26.7c-24.1,11.1-71,1.3-84.5-8.2c0.2-3.1,0.4-6.3,0.6-10c2.3-0.1,4-0.3,5.8-0.3
		c18.7,0.5,37.5,1.2,56.2,1.7c4.2,0.1,4.2-0.1,6.7-5.2c-7.6-0.1-14.7,0-21.7-0.2c-7.6-0.2-15.1-0.3-22.7-0.8
		c-7.2-0.5-14.3-1.4-22.1-2.1c0-4.8,0-9.2,0-13.6c22.1,0,44.5,0,66.8,0c1.4-3.5,0.3-5.1-2.9-5.2c-14.4-0.3-28.9-0.4-43.3-0.8
		c-6.5-0.2-13.1-0.7-20.2-1c0.5-6.7,0.8-12.7,1.4-18.6c0.1-1.1,1.1-2.1,1.4-2.7c20.5,1.1,40.6,2.2,60.7,3.3c0.3-0.6,0.7-1.2,1-1.8
		c-1.1-1.3-2-3.3-3.3-3.7c-3.2-0.8-6.6-0.8-9.9-1c-15.3-1-30.6-2-46.9-3c1.2-10.9,2.3-20.7,3.4-31c23.8,5.8,47,9.7,71.5,7.5
		c0.8-2.6-0.9-4-4.2-4.2c-6.6-0.4-13.1-0.8-19.7-1.1c-14.6-0.6-28.7-3.7-42.5-8.4C293.8,741.4,293.1,740.8,291.9,740z M439.3,813.6
		c0.2,1.1,0.3,2.1,0.5,3.2c11.2,1.4,22.3,3.1,33.5,4.2c6.5,0.7,13.1,0.7,19.7,0.7c11.2,0,22.3,0,33.5-0.4c13-0.5,25.9-1.5,38.9-2.2
		c24.1-1.3,48.2-1.7,72.2-4.3c20.3-2.2,40.4-6.8,60.6-10.4c3.6-0.6,7.1-1.7,10.5-2.9c3.2-1.1,3-3.3,0.8-5.9c-1,0.2-2.2,0.3-3.3,0.6
		c-21.1,6.7-43.1,8.6-64.8,12.2c-9.2,1.5-18.6,1.5-28,2.1c-31,2-62,4.7-93.1,5.7c-24.7,0.8-49.4-0.2-73.9-4.1
		C444.1,811.7,441.7,813.1,439.3,813.6z M448.8,845.6c17.2,2,33,4.4,48.9,5.4c17.1,1,34.2,0.6,51.3,0.8c5.9,0.1,11.9,0.3,17.8-0.2
		c8-0.7,16-2.4,24-3.3c16.4-1.8,32.9-3.1,49.3-5.2c14.1-1.7,28.1-3.8,42-6.4c7.9-1.5,15.5-4.4,23.2-6.9c2.5-0.8,5.4-2.2,3-5.8
		c-8.4,2.4-16.6,5.5-25,6.8c-19.6,3.1-39,7-58.9,8.6c-25.5,1.9-50.9,6.5-76.6,6.4c-11.7,0-23.4,0.3-35,0c-9-0.2-18-1.1-27-2
		c-7.2-0.7-14.3-2-21.5-2.6C458.9,840.6,453.4,840.2,448.8,845.6z M458.3,791.7c1.4,5,4.6,5,8.1,5c12.9,0.1,25.8-0.2,38.6,0.9
		c12.9,1.1,25.8-3.2,38.6,0.7c0.5,0.2,1.2-0.1,1.8-0.1c16.8-1,33.7-1.9,50.5-3.2c9.5-0.8,19-2.4,28.5-3.8c5.3-0.8,10.5-2.3,15.9-3
		c17.9-2.1,35.8-4.6,53-10c1.5-0.5,2.9-1.6,4.2-2.4c-1.7-6.3-5.8-3.3-8.1-2.4c-19.4,7.5-40.2,6.9-60.2,11.4
		c-11,2.5-22.4,3.5-33.7,4.7c-10.5,1.1-21,2.2-31.6,2.2c-13.5,0-27-1-40.6-1.5c-0.9,0-1.8,0.5-2.6,0.5c-15.6,0-31.3,0-46.9-0.1
		C468.8,790.6,463.7,788.7,458.3,791.7z M660.1,724.4c-2.4-4.6-5.9-3.5-9-3c-16.4,2.5-32.7,5.4-49.2,7.4c-16.1,2-32.4,3.3-48.6,4.5
		c-7.2,0.5-14.5,0.1-21.7-0.2c-11.3-0.3-22.7-0.9-34-1.1c-2.8,0-6.3,0-6.7,5.3c2.6,0.5,5.1,1.4,7.6,1.4c21.1,0.2,42.3,0.4,63.4,0.1
		c9.9-0.1,20-0.4,29.8-1.9c20.8-3.1,41.6-7,62.3-10.7C656,725.9,657.8,725.1,660.1,724.4z M667.2,757.3c-3.7-5.2-7.3-3.5-10.8-2.9
		c-27,5.2-54.1,9-81.5,11c-8.1,0.6-16.3,0.2-24.4,0.2c-9.6,0-19.3,0.1-28.9,0c-6.3-0.1-12.6-0.1-18.9-0.9c-4-0.5-5.5,1-6.6,5.8
		C553.9,775,610.3,770.7,667.2,757.3z"/>
	<path fill="#AF9F5D" d="M734.3,872.1c3.2,10,6.5,19,8.9,28.2c3,11.6,9.9,21.2,15.3,31.6
		c5.4,10.2,5,15.3-3.1,23.8c-2.3,2.4-4.3,5.1-6,7.9c-4.3,7.3-8.2,14.7-12.5,22.4c-7.1-3.8-14-7.5-22.3-12c0,0-1.9,0.6-4.5,1.3
		c-3.6-10.6-14.8-15.7-17.9-27.2c-2.6-1.1-4.8-0.8-6.6,2.9c-2.6,5-5.5,10-9.2,14.2c-9.9,11.1-21.1,20.8-34.1,28
		c-4.7,2.6-10.1,3.8-15.2,5.5c-0.8,0.3-1.9,0-2.7,0.4c-11.7,5.9-23.8,2.6-35.5,0.6c-5.5-0.9-10.7-3.8-15.8-6.4
		c-11.9-5.9-23.8-11.9-35.3-18.4c-4.2-2.4-10.4-4.2-7.8-12c0.8-2.3-3.5-3.5-6.2-1.1c-5.2,4.6-10.3,9.3-15,14.4
		c-10.9,11.6-23.8,19.9-38.5,26.2c-15.4,6.6-30.8,3-46.2,3c-0.5,0-0.9-0.7-1.8-1.3c-0.6-5.1-0.9-10.5-1.8-15.8
		c-1.7-10-3.7-20-5.6-30c-1.3-6.8-6.6-11-11.1-15.3c-4.8-4.7-10.8-8.2-16.9-12.7c11.5-15.5,21.4-32,28.1-50.7
		c5,0.5,9.7,1.3,14.5,1.3c6.7,0,13.5-1.3,20.1-0.9c25.8,1.6,51.5,3.8,77.2,5.4c9.9,0.6,19.9-0.1,29.8-0.2c25.3-0.3,50-7,75.3-8
		c4.2-0.2,9.1-2.9,12.3-1.4c7.4,3.4,13.8,0.3,20.7-0.6C687.8,872.2,711,871.1,734.3,872.1z"/>
	<path fill="#8FB2C5" d="M305.7,643.1c1.3-7.8,2.5-15.7,3.9-24.4c8-2.8,16.4-1.7,24.7-0.9
		c9.2,1,18.3,3.2,27.5,4.5c13.6,2,27.3,3.7,40.9,5.4c1.8,0.2,3.6,0.5,5.4,0.3c14-1.5,27.3,2.5,41,4.7c11.8,2,24,4.5,36.2,1.2
		c1.7-0.4,3.6,0,5.4,0.3c19.2,3.3,38.4,1,57.6-0.4c6.6-0.5,13.4-0.7,19.8,0.5c13.1,2.4,25.9-0.6,38.8-1.3c22.6-1.3,45.2-3.5,67.7-6
		c9.2-1,18.2-4.2,27.4-6c16.4-3.2,33-5.9,49.4-9.3c7.3-1.5,14.5-4.1,21.5-6.8c18.4-7.1,36.8-14.2,56.8-18.9
		c6.9,16.8,12.4,33.8,16.1,51.8c-12.6,6.8-25.3,12.1-38.7,15.7c-16.3,4.3-32.5,9.1-48.7,13.6c-4.1,1.1-8.1,2.3-12.2,3.4
		c-14,3.5-28,7.2-42,10.3c-16.7,3.7-33.2,8.1-50.7,7.5c-12.8-0.5-25.7,3.1-38.6,4c-13.5,1-27.1,1-40.6,1.4
		c-8.8,0.3-17.5,0.6-26.3,0.8c-11.5,0.3-23,0.4-34.4,0.8c-15.7,0.5-31.4,1.8-47.1,1.8c-21.3-0.1-42.4-2.5-63.5-5.8
		c-2.9-0.5-5.9,0.3-8.8,0.1c-7.2-0.4-14.5-0.4-21.6-1.8c-8.3-1.6-16.4-3.3-25-2.3c-8.8,1.1-17.1-2.3-25.6-4
		c-7.2-1.4-14.3-3.4-22.5-5.4c1.8-9.6,3.6-19.2,5.4-29.3c15.4,5.1,30.4,7.5,45.6,8.7c11.1,0.9,22,3.5,33.1,4.8
		c24,2.8,47.9,5.9,72,7.8c14.4,1.1,28.9-0.1,43.4-0.1c15.1,0,30.1,0.1,45.2,0.3c10.9,0.1,21.7,0.9,32.4-2.2c2.6-0.7,5.4-0.4,8.1-0.7
		c14.7-1.3,29.4-2.6,44-4c9-0.8,18-1.7,27-2.4c9.9-0.8,19.9-1,29.8-2.3c10.7-1.4,21.4-3.4,31.9-5.8c18.2-4.2,36.4-8.6,54.5-13.3
		c18.9-4.9,35.2-15.5,52.7-23.6c2.7-1.3,5.6-2.4,7.9-4.2c1-0.8,1-3,1.5-4.5c-1.6-0.2-3.5-1-4.8-0.4c-13.4,6.8-26.7,13.9-40.1,20.6
		c-3.7,1.9-7.8,3.2-11.9,4.4c-27.3,7.7-54.8,15-82.8,19.6c-8.3,1.4-16.8,1.5-25.2,2.3c-4.5,0.4-8.9,1.2-13.4,1.6
		c-25.4,2.3-51,3.9-76.3,7.2c-16.6,2.2-33,1.7-49.5,1.5c-26.5-0.3-53,0.1-79.5-0.4c-9.9-0.2-19.7-2.2-29.6-3.3
		c-9.6-1.1-19.1-2.4-28.7-2.9c-9.1-0.5-17.9-1.9-26.7-4.1c-7.3-1.8-14.9-2.1-22.3-3.3c-8-1.3-16-2.9-23.9-4.3
		C315.3,645,311.2,644.2,305.7,643.1z"/>
	<path fill="#C1D7E1" d="M909.9,832.9c-6.1-0.7-10.3-1.1-14.8-1.6
		c-5.8-8.9-8.4-19.1-10-29.5c-2.1-13.4-3.6-26.9-5.5-40.3c-0.6-4.2-1.1-8.5-2.7-12.3c-6.5-15.6-6-32.5-9.5-48.6
		c-3.1-14.4-7.3-28.6-10.8-43c-1.3-5.5-4.4-11.2-0.3-17c0.7-1,0.4-3,0.1-4.4c-3.9-15.8-1.4-31.9-1.7-47.8c-0.2-13.6-0.4-27.2,0-40.8
		c0.5-13.8,1.6-27.7,2.8-41.5c1.1-12.9,2.3-25.8,4-38.7c1-7.4,3-14.7,4.5-22c1.1-5,2.5-9.9,3.2-14.9c2.1-14.2,5.2-27.9,16.6-38.1
		c1.6-1.4,3.1-3,4.9-4c10.1-5.2,20.2-10.6,30.7-15c9.4-4,19-7.7,28.9-9.9c15-3.4,30.1-3.6,42.5,7.8c7.1,6.5,13.7,13.5,20.2,20.6
		c1.9,2.1,3.1,5.2,3.9,8.1c5.7,21.8,11.5,43.6,16.8,65.5c3.4,14,6.7,28.1,9.3,42.2c2.4,13,3.6,26.2,5.8,39.2
		c1.8,11.3,4.1,22.4,6.4,33.6c1.2,5.6,3.2,11,4.3,16.5c1.4,7.4,5,13.4,10,18.8c4.7,5,17,7.3,23.3,4.4c5.2-2.4,10.2-5.4,15.7-7
		c4.4-1.3,9.4-1.3,14.1-0.9c2.9,0.2,4.7,2.4,6.1,5.7c7.1,15.8,2.6,28.9-8.5,40.5c-6,6.3-12.5,12.3-19.2,17.8
		c-18.9,15.6-45.9,11.4-61.5-8.5c-12.8-16.3-17.9-34.5-19.5-54.4c-1.4-17.4-2.9-34.8-3.8-52.3c-0.6-11.5-0.8-23-0.4-34.5
		c0.7-16.1-2.4-31.8-4.4-47.7c-0.9-6.6-1.9-13.1-2.2-19.8c-0.5-11.4-5.1-20.5-14.3-27c-14.4-10.2-30.9-15.5-48.4-14.5
		c-11.9,0.7-23.5,5-33.8,11.6c-7,4.5-9.4,12.6-12.1,19.7c-5.7,14.9-8.5,30.7-10.4,46.6c-0.6,5.1-0.8,10.4-2.5,15.1
		c-2.3,6.5-2.5,12.9-2.5,19.6c0,8.4-1,16.8-1.2,25.3c-0.3,9.3-0.4,18.6-0.4,27.9c-0.1,17.3-0.3,34.5,0.1,51.8
		c0.3,18.7,0.3,37.4,2,56c1.9,19.9,2.3,40.1,7.5,59.6c1.1,4.3,2,8.7-1.2,12.9c-0.9,1.2-1.2,3.8-0.4,5c5.8,9.9,2.8,21.4,6,31.8
		c1.3,4.3,2.8,8.5,4.4,12.7C904.5,819.4,907,825.4,909.9,832.9z"/>
	<path fill="#EEDD9A" d="M693.1,727.3c15.3,1.8,29.7-0.2,43,5
		c18.3,7.2,35.6,16.4,45.8,34.5c2.5,4.4,4.1,9.4,5.3,14.3c2.2,8.7,4.2,17.6,5.7,26.5c3.3,19.3,6.3,38.6,9.1,57.9
		c2.4,17,11.5,30.5,23.2,42c9,8.8,19.6,15.9,30,24.2c-2.5,1.3-5.6,3.5-9,4.6c-6.3,1.9-11.2,5.7-15.6,10.5c-3.6,4-8.2,7.4-11,11.8
		c-3.4,5.2-5.9,11-7.8,16.9c-2.2,6.8-2.8,14.2-4.9,21c-4.8,15.9-5.9,32.3-7.4,48.8c-1.1,12.6-2,25.4-5.3,37.5
		c-2.6,9.7-8.5,18.5-13.3,27.6c-8.6,16.2-24.6,20.2-40.5,24c-2.2,0.5-4.8-0.2-7.2-0.3c-5.1-0.1-10.1-0.2-15.2-0.3
		c-3.6,0-7.3,0.7-10.8,0.1c-2.4-0.4-5.7-2.1-6.6-4.1c-2.3-5.4-3.5-11.3-5.6-18.3c4.2,1.4,6.2,3.7,9.8,1.9c3.8-1.9,8.9-0.9,13.2-2
		c3.7-0.9,7.4-2.2,10.5-4.3c15.2-9.9,16.3-25.7,16.5-41.6c0.2-12.3,0-24.6-0.4-37c-0.2-4.8-1.7-9.4-2.5-14.2
		c-1.9-11.9,0.1-23,5-34.2c7.3-16.7,18-30.4,31.3-42.5c6.9-6.3,6.5-9.1-1.1-14.8c-5.4-4-9.8-8.5-12.7-15c-1.7-3.8-5.6-7-9.2-9.5
		c-5.3-3.7-7.9-8.6-9.6-14.7c-4.9-18-4.9-36-3.2-54.5c0.9-10-1.2-20.4-2.1-30.6c-0.2-2.1-1.2-4.2-0.9-6.2
		c1.8-12.9-6.9-21.6-13.1-30.8c-2.7-4-8.9-5.9-13.9-7.9c-4.7-1.9-9.9-2.7-14.9-3.6c-3.8-0.6-5.1-2.7-5-6.2
		C693.1,739,693.1,733.9,693.1,727.3z"/>
	<path fill="#AF9F5D" d="M361.7,863.9c-6.8,26.5-22.1,44.5-44.5,58.2
		c6,5.9,11,11.6,16.8,16.2c15.2,12.1,23,28.2,26.6,46.7c0.9,4.6,1.1,9.4,1.7,14.8c-28-3.7-50.7-13.8-64-41
		c-22.3,19.2-44.3,37.8-73.1,44.3c-7.1-5.9-15-11-21.1-17.7c-15.3-16.9-25.1-36.5-27.3-59.6c-0.8-9-3.4-17.6-0.7-26.8
		c4.5-15.3,12.7-26.9,27.3-33.8c9.5-4.5,18.8-9.7,28.3-14.4c11.9-5.9,24.9-5.9,36.7-1.7c13.4,4.8,27.2,7.4,40.9,10.8
		c3,0.8,5.6,3.1,8.6,3.9c4,1,8.2,1.6,12.2,1.5C340.3,865,350.5,864.3,361.7,863.9z"/>
	<path fill="#AF9F5D" d="M969.5,962.3c-5.2-3.2-9.2-5.6-13.2-8.2c-0.6-0.4-0.6-1.5-0.9-2.2
		c-0.6-1.4-1.2-3.9-1.9-4c-1.9-0.1-4.1,0.4-5.6,1.5c-1.4,0.9-2,2.9-3.2,4.3c-12.8,15.3-27.8,28.3-43.2,40.7
		c-11.1,9-23.6,15.4-36.8,20.7c-8.8,3.5-17.2,6.8-27.1,4.2c-6.3-1.7-13.1-1.5-19.6-2.4c-7.9-1.1-9.2-3-7.5-10.8
		c2.2-10.6,4.1-21.2,7.2-31.5c1.5-5.3,5.1-10,8.1-14.8c1.2-2,3.5-3.3,5-5.2c5.3-6.5,11.7-11.2,20.1-13c2.3-0.5,4.4-1.9,6.6-2.9
		c7.7-3.7,8.4-8,1.9-13.4c-4.3-3.6-9.5-6.1-14-9.5c-4-3.1-7.9-6.5-11.4-10.2c-9.9-10.5-20.1-21-23.6-35.8c-1.1-4.7-1.8-9.4-2.9-15
		c4.5-1.6,9-3.1,13.4-4.6c8.9-2.9,17.6-6.4,26.6-8.4c14.4-3.3,29.1-5.9,44-4.2c10.7,1.2,21.5,3,31.8,6.1
		c13.8,4.2,23.3,14.6,30.8,26.6c3.8,6.1,7.6,12.6,9.7,19.4c3.1,9.7,5.8,19.7,6.7,29.7c1.1,12.6,0.2,25.3,0.1,38
		C970.5,958.4,970,959.5,969.5,962.3z"/>
	<path fill="#EEDD9A" d="M327.5,924.2c15.8-11.3,27.6-25.3,36.8-41.4
		c2.2-3.8,3.8-8.4,4.3-12.7c1.2-10.4,1.4-21,2.3-31.5c0.8-10.5,1.9-21,2.9-31.6c0.1-0.6,0.5-1.2,0.4-1.8
		c-1.5-13.2,5.6-23.9,10.7-34.9c4.7-9.9,12.4-17.8,23.6-21.2c9.8-3,19.4-6.6,29.3-8.9c7.8-1.8,16-2.2,24.1-2.8
		c3.8-0.3,6.6,2.9,7,7.9c0.3,3.6,0.1,7.3,0.1,11.9c-3.3,0-6.7,0-10.2,0c-15.1-0.2-19.8,2.5-25.4,16.3c-3.2,7.8-5.3,16-7.7,24.1
		c-1.3,4.3-1.6,8.8-3.1,13c-5.2,14.4-6,29.5-7.2,44.5c-1,12.7-5.2,24.1-11.3,34.9c-4.1,7.2-9.4,13.9-14.8,20.3
		c-3.9,4.6-8.9,8-15.2,9.2c-1.6,0.3-3.7,2.6-3.9,4.2c-0.1,1.3,2.1,3.1,3.6,4.2c8.8,6.5,17.8,12.8,26.5,19.4c1.6,1.2,3,3.2,3.5,5.1
		c2,8.2,4.8,16.5,5.1,24.8c0.5,12-1.3,24-1.4,36c-0.1,9.3,0.9,18.6,1.4,27.9c0.4,7.2,1.1,14.4,1.5,21.7c1.2,21.2,13.3,34.1,31.8,42
		c5.7,2.4,11.1,5.9,17.9,5.1c3.7-0.4,5.5,1.9,5.7,5.5c0.4,6,0.7,12,1.2,19c-6.9,3.2-14.9,2.4-22.3,1.9c-10.4-0.7-20.6-3.3-31-4.7
		c-15-2.1-28.2-8.5-39.8-18c-2.4-1.9-3.9-6.3-3.9-9.6c-0.1-15.2,0.7-30.5,0.9-45.7c0.1-5.4-1-10.8-1.1-16.2
		c-0.3-15.1,0-30.2-0.7-45.3c-1-19.4-7-37.3-19.8-52.2c-4.5-5.2-10.3-9.2-15.4-13.9C331.5,928.8,329.6,926.5,327.5,924.2z"/>
	<path fill="#8FB2C5" d="M819.1,546.6c1.8,6.3,3.7,12.6,5.4,18.8c1,3.9-1.1,6.5-4.2,8.1
		c-10.1,5.4-19.9,11.5-30.4,15.8c-14.2,5.8-29,10.5-43.7,15.1c-11.5,3.6-23.2,7.7-35,9c-11.9,1.3-23.5,4-35.3,5.7
		c-4.4,0.7-8.7,2-13.1,3.1c-2,0.5-4.1,1.1-6.2,1.3c-18.3,1.6-36.6,3.4-54.9,4.4c-12,0.7-24.1,0-36.1,0.3c-10.3,0.2-20.5,1-30.8,1.3
		c-4.2,0.1-8.4-0.3-12.6-0.6c-11.1-1-22.2-2.5-33.3-3.2c-15.3-1-30.7-0.9-46-2.1c-22.4-1.7-44.9-3.6-67.2-6.5
		c-21-2.7-41.9-6.8-63.9-10.5c1.7-7.2,3.2-13.1,4.6-19.2c9.1-2.9,18.1-2.2,26.9-0.9c17.8,2.6,35.5,6.1,53.3,8.6
		c10.1,1.4,20.4,1.3,30.6,2.2c9.8,0.9,19.9,1.4,29.3,4c14.2,3.9,28.6,3.8,43,4.6c16,0.9,31.9,2.3,47.9,2.9
		c11.1,0.4,22.4,0.2,33.5-0.6c17.7-1.3,35.5-2.8,53.1-5.4c14-2,27.7-5.6,41.5-8.8c15.4-3.6,30.7-7.7,46.1-11.5
		c1.2-0.3,2.4-0.4,3.5-0.8c5.8-2.3,11.4-4.3,17.9-4.6c9.2-0.4,17.1-5.8,25.4-9.8c11.5-5.5,23.6-9.9,35.5-14.7
		C808.8,550.8,813.5,548.9,819.1,546.6z"/>
	<path d="M546.2,495.3c-10,3.3-16.5-0.6-21.8-7.7c-3.8-5.1-3.9-7.9,0.6-12.6
		c4.1-4.3,8.6-8.2,12.8-12.4c1.4-1.4,2.4-3.3,3.8-5.5c6.4,3.9,14.2,4,19.2,10.8c7.7,10.5,6.9,17.2-4.1,23.6
		c-1.3,0.8-2.7,1.4-4.8,2.4c0.8,4.3,1.3,8.8,2.6,13c2.3,7.1,7.1,11.6,14.6,13.4c19.4,4.7,39,3,58.5,1.3c9.6-0.8,19.1-4,28.7-0.7
		c3,1,5.9,2.3,8.8,3.4c-0.1,0.6-0.2,1.3-0.3,1.9c-1.9,0.4-3.8,1.3-5.6,1c-12.4-1.4-24.5,0-36.9,1.4c-18.5,2-37.4,3.1-55.6-2.4
		c-4.2-1.3-7.7-4.4-12.5-7.3c-2.2,2.8-4.7,6-7.2,9.3c-9.1,12.1-21.5,18-36.1,19.9c-21.8,2.9-43.3,7-63.5,16c-3.4,1.5-6,1.9-8.9,0.1
		c-0.8-4.8,2.6-5.7,5.3-6.3c18.1-4.6,36.2-8.9,54.3-13.3c2.9-0.7,5.9-1.5,8.9-1.6c19.3-0.6,32.5-10.7,42.1-26.6
		c0.7-1.2,1.6-2.9,1.3-4.2C549.3,506.8,547.7,501.3,546.2,495.3z M540,491.6c6.1-2.6,11.7-4.5,16.8-7.3c4.2-2.4,4.5-9.9,0.8-11.2
		c-6-2.1-12.5-3.8-18.7-2.1c-3.1,0.8-5.7,3.8-8.1,6.2c-3.7,3.7-3.7,5.6,0,8.9C533.3,488.3,536.5,489.6,540,491.6z"/>
	<path d="M610.2,478.3c-15.1,1.3-27.2-11.1-29.9-21.7c-1.9-7.5-2.7-15.2-4-22.9
		c-0.2-1.2-0.5-2.6-0.1-3.6c3.7-9.6,8.3-18.7,17.7-24.2c1.2-0.7,2.9-0.7,4.3-0.6c10.4,1,20.9,1.8,31.2,3.1
		c19.8,2.5,29.8,20.3,26.7,37.3c-3.1,16.9-16,23.9-30,29.3C621.1,476.9,615.5,477.2,610.2,478.3z M611.9,414.2
		c-6.5,1.1-12.7,1.9-18.9,3.2c-5,1-12,11.1-11,15.9c1.4,7.6,3,15.3,5,22.7c2.6,9.6,11.9,16,21.7,15.1c5.1-0.4,10.2-1,15.2-2
		c13.3-2.8,25-15.1,26.9-28.1c1.6-10.5-5.6-21.6-15.9-23.7C627.3,416,619.5,415.3,611.9,414.2z"/>
	<path d="M520.4,437.3c0,4.7,0.2,9.7-0.1,14.7c-0.1,1.9-1,4.2-2.3,5.6
		c-9.3,9.7-20.5,16.6-34.1,16c-7.5-0.3-15.3-3.1-22.3-6.2c-5.6-2.4-8-9.2-7.9-14.5c0.2-8.8,1.1-18.2,7.4-25.5
		c1.9-2.2,4.2-4.3,6.7-5.8c7.9-4.9,17-6.4,25.9-7.2c10-0.9,22,6.6,25.8,15.5C520.3,432,520.1,434.6,520.4,437.3z M514.3,443.6
		c0-2.4,0.5-5-0.1-7.2c-0.6-2.2-1.7-4.7-3.4-6c-9.3-7.1-19.9-9.8-31.4-7.4c-6.5,1.4-13.2,4.3-15.8,10.8c-2.4,6-3.4,12.8-3.5,19.3
		c-0.1,5.5,3,9.4,9.2,11.7c13.9,4.9,25.9,1.8,37.7-5.7C512.8,455.4,516.8,451.1,514.3,443.6z"/>
	<path d="M572.7,498.2c1.1-3.3,1.9-5.5,2.9-8.2c2.2,0.3,4.5,0.1,6,1.1
		c1,0.7,1.8,3.4,1.3,4.6C581,499.6,577.7,500,572.7,498.2z"/>
	<path d="M481,518.3c-3.9,4-6.7,6.3-10.2,2.8c-2.3-2.3-1.8-5.2,0.8-6.8
		C476.4,511.4,477,517.2,481,518.3z"/>
	<path d="M510,497.6c-3.3,2.4-5.7,4.1-8,5.9c-3-3.2-4.7-6.1-2-8.6
		C503,491.8,505.9,494.3,510,497.6z"/>
	<path d="M587.7,508c2.2,0,4.7-0.6,6.6,0.2c1.4,0.6,2.2,2.8,3.3,4.3
		c-1.7,0.9-3.6,2.9-4.9,2.6c-2.2-0.5-4-2.6-6-4C587,510.1,587.4,509,587.7,508z"/>
	<path d="M614.8,495.7c-2.3,1.6-4.6,3.2-8.7,6.1c0-4.1-0.6-7.7,0.1-8
		c2.4-0.9,5.2-0.7,7.9-1C614.3,493.8,614.5,494.7,614.8,495.7z"/>
	<path d="M514.3,519.4c-2.3,1.6-3.5,3.1-4.8,3.2c-1.4,0-2.8-1.4-4.2-2.1
		c1-1.6,1.9-4.2,3.1-4.4C510,515.9,511.7,517.8,514.3,519.4z"/>
	<path d="M439.3,813.6c2.3-0.6,4.8-1.9,7-1.5c24.5,4,49.3,4.9,73.9,4.1
		c31.1-1,62.1-3.7,93.1-5.7c9.3-0.6,18.8-0.6,28-2.1c21.7-3.6,43.7-5.5,64.8-12.2c1.1-0.3,2.3-0.4,3.3-0.6c2.2,2.6,2.4,4.8-0.8,5.9
		c-3.4,1.2-6.9,2.2-10.5,2.9c-20.2,3.6-40.3,8.2-60.6,10.4c-23.9,2.5-48.1,2.9-72.2,4.3c-13,0.7-25.9,1.7-38.9,2.2
		c-11.2,0.4-22.3,0.4-33.5,0.4c-6.6,0-13.2,0-19.7-0.7c-11.2-1.1-22.3-2.8-33.5-4.2C439.6,815.8,439.5,814.7,439.3,813.6z"/>
	<path d="M448.8,845.6c4.7-5.4,10.2-4.9,15.4-4.5c7.2,0.6,14.3,1.9,21.5,2.6
		c9,0.9,18,1.7,27,2c11.7,0.3,23.3-0.1,35,0c25.7,0.1,51.1-4.4,76.6-6.4c19.9-1.5,39.3-5.5,58.9-8.6c8.5-1.3,16.6-4.5,25-6.8
		c2.4,3.7-0.5,5-3,5.8c-7.7,2.5-15.3,5.4-23.2,6.9c-13.9,2.7-27.9,4.7-42,6.4c-16.4,2-32.9,3.4-49.3,5.2c-8,0.9-16,2.5-24,3.3
		c-5.9,0.5-11.9,0.3-17.8,0.2c-17.1-0.2-34.3,0.2-51.3-0.8C481.8,850,466,847.5,448.8,845.6z"/>
	<path d="M458.3,791.7c5.4-3,10.5-1.1,15.5-1.1c15.6,0.1,31.3,0.1,46.9,0.1
		c0.9,0,1.8-0.5,2.6-0.5c13.5,0.5,27,1.6,40.6,1.5c10.5,0,21.1-1.1,31.6-2.2c11.3-1.2,22.7-2.2,33.7-4.7
		c19.9-4.5,40.8-3.9,60.2-11.4c2.3-0.9,6.4-3.9,8.1,2.4c-1.3,0.8-2.7,1.9-4.2,2.4c-17.3,5.4-35.1,7.9-53,10
		c-5.3,0.6-10.5,2.2-15.9,3c-9.5,1.4-19,3-28.5,3.8c-16.8,1.4-33.6,2.2-50.5,3.2c-0.6,0-1.3,0.3-1.8,0.1
		c-12.8-3.9-25.7,0.3-38.6-0.7c-12.8-1.1-25.7-0.8-38.6-0.9C462.9,796.7,459.7,796.7,458.3,791.7z"/>
	<path d="M660.1,724.4c-2.2,0.7-4.1,1.6-6,1.9c-20.8,3.7-41.5,7.6-62.3,10.7
		c-9.8,1.5-19.8,1.8-29.8,1.9c-21.1,0.2-42.2,0-63.4-0.1c-2.5,0-5.1-0.9-7.6-1.4c0.4-5.3,3.9-5.3,6.7-5.3c11.3,0.2,22.7,0.8,34,1.1
		c7.2,0.2,14.5,0.7,21.7,0.2c16.2-1.2,32.4-2.5,48.6-4.5c16.5-2,32.8-5,49.2-7.4C654.2,720.9,657.7,719.8,660.1,724.4z"/>
	<path d="M667.2,757.3c-56.9,13.4-113.3,17.7-171.1,13.2c1.1-4.7,2.6-6.3,6.6-5.8
		c6.2,0.8,12.6,0.8,18.9,0.9c9.6,0.1,19.3,0,28.9,0c8.1,0,16.3,0.3,24.4-0.2c27.4-2,54.5-5.8,81.5-11
		C659.9,753.8,663.6,752.1,667.2,757.3z"/>
	<path fill="#4B778A" d="M540,491.6c-3.5-2-6.7-3.3-9.2-5.5c-3.8-3.3-3.7-5.2,0-8.9
		c2.4-2.4,5.1-5.4,8.1-6.2c6.3-1.7,12.7,0,18.7,2.1c3.8,1.3,3.4,8.8-0.8,11.2C551.7,487.2,546.1,489,540,491.6z"/>
	<path fill="#FFFFFF" d="M611.9,414.2c7.6,1,15.4,1.7,23,3.3c10.3,2.1,17.4,13.2,15.9,23.7
		c-1.9,13-13.6,25.3-26.9,28.1c-5,1-10.1,1.6-15.2,2c-9.8,0.8-19.1-5.5-21.7-15.1c-2-7.5-3.6-15.1-5-22.7c-0.9-4.9,6.1-14.9,11-15.9
		C599.2,416.1,605.4,415.3,611.9,414.2z M610.4,432.7c-2-4.5-5-7-9.4-5.9c-1.9,0.5-4.2,2.6-4.8,4.5c-0.4,1.2,1.3,3.9,2.7,5
		C602.7,439.2,605.1,438.4,610.4,432.7z"/>
	<path fill="#FFFFFF" d="M514.3,443.6c2.6,7.5-1.5,11.8-7.3,15.5
		c-11.8,7.5-23.8,10.6-37.7,5.7c-6.3-2.2-9.3-6.2-9.2-11.7c0.1-6.5,1.1-13.3,3.5-19.3c2.6-6.5,9.3-9.4,15.8-10.8
		c11.4-2.4,22.1,0.3,31.4,7.4c1.7,1.3,2.9,3.8,3.4,6C514.7,438.7,514.3,441.2,514.3,443.6z M492.5,440.4c-2.3-4.3-5.6-4.2-8.8-3.2
		c-1.4,0.4-3.4,3.2-3.1,3.8c1.2,2.3,3.3,4.1,5.3,6.4C488.7,444.5,490.6,442.4,492.5,440.4z"/>
	<path d="M610.4,432.7c-5.3,5.6-7.8,6.5-11.5,3.5c-1.4-1.1-3.2-3.8-2.7-5
		c0.7-1.9,2.9-4,4.8-4.5C605.4,425.7,608.4,428.2,610.4,432.7z"/>
	<path d="M492.5,440.4c-1.9,2-3.8,4.1-6.6,7c-2-2.3-4.1-4.2-5.3-6.4
		c-0.3-0.6,1.7-3.3,3.1-3.8C486.9,436.2,490.2,436.1,492.5,440.4z"/>
</g>
</svg>
