<?xml version="1.0" encoding="utf-8"?>
<!DOCTYPE svg PUBLIC "-//W3C//DTD SVG 1.1//EN" "http://www.w3.org/Graphics/SVG/1.1/DTD/svg11.dtd">
<svg version="1.1" id="base-cat-js" xmlns="http://www.w3.org/2000/svg" xmlns:xlink="http://www.w3.org/1999/xlink" x="0px" y="0px"
	 width="1200px" height="1200px" viewBox="0 0 1200 1200" enable-background="new 0 0 1200 1200" xml:space="preserve">
<g>
	<path fill-rule="evenodd" clip-rule="evenodd" d="M635.7,199.8c-2.1-5.2,0-8.6,2.7-11.9c7-8.9,14.7-17.3,20.7-26.9
		c12.9-20.8,24.7-42.2,24.2-67.8C683,82.6,683.7,72,680,61.6c-2.4-6.6-4.1-13-9.5-17.9c-0.7-0.7-1.9-1.7-1.8-2.4
		c0.2-2.1,1-4.2,1.5-6.3c1.8,0.5,4.3,0.4,5.2,1.5c5.6,6.5,11.8,12.8,15.9,20.1c3.4,6,5.2,13.4,6,20.4c1,9.2,1.1,18.6,0.1,27.8
		c-0.6,6.2-3.1,12.5-5.9,18.2c-4.5,9.3-9.4,18.4-15,27c-9.4,14.7-19.5,29.1-29.4,43.5C644.7,197.4,641.3,200.3,635.7,199.8z"/>
	<path fill-rule="evenodd" clip-rule="evenodd" d="M464.2,164.8c-4.2,3.5-5.7,4.7-7.8,6.4c-14.3-10.8-24.9-24.3-32.8-40.1
		c-0.7-1.5-1.1-3.3-1.2-5c-0.8-25.4-2.7-51,14.6-72.7c0.6-0.8,0.9-1.9,1.3-2.8c0.5-0.9,1-1.7,1.9-3.3c4,2,7.6,1.2,11.2-2
		c3.8-3.3,8.4-5.8,12.9-8.1c1.7-0.8,4.1-0.1,8.4-0.1c-3,3.7-4.4,5.9-6.1,7.7c-2.4,2.4-5.2,4.4-7.7,6.7
		c-10.2,9.4-15.4,21.4-17.9,34.9c-2,11-4.8,22-6.6,33c-2,12.1,3.4,22,10.7,30.9c2.9,3.6,7,6.2,10.7,9.1
		C458.1,161.1,460.5,162.5,464.2,164.8z"/>
	<path fill-rule="evenodd" clip-rule="evenodd" d="M617.9,57.9c-12.1,0.7-19.2,6.4-21,16.7c-1.2,6.9,2.7,12,9.7,12.8
		c5.4,0.6,10.9,1.1,16.3,2.2c6.7,1.4,10.7,5.5,11.6,12.6c1,6.8,0.5,12.5-5.8,17.2c-12.7,9.6-27.1,14.6-42.5,17.3
		c-3,0.5-6.3,0.2-9.2-0.6c-1.5-0.5-2.4-3-3-5.4c13.2,4.3,24.1-1.2,35.1-5.7c2.3-1,5.2-3.1,5.8-5.3c1.9-6.4,3.2-13.1,3.8-19.8
		c0.3-3.7-2.5-6.4-6.4-6.8c-3.7-0.4-7.5-0.4-11.3-0.7c-3-0.3-6.2-0.3-9-1.4c-7.8-3.1-9.3-6.9-5.9-14.5c4.3-9.6,11.2-17.2,20-22.9
		c1.9-1.3,4.5-2.1,6.8-2.1C617.1,51.4,619.1,53.6,617.9,57.9z"/>
	<path fill-rule="evenodd" clip-rule="evenodd" d="M485.8,195.5c10.3-11.8,28.1-10.9,39.9-22.6c4.6-13.8,1.9-29.3,1.1-44.6
		c-0.5-8.8-3.1-17.5-4.9-26.2c-0.7-3.5-0.2-6.1,3.3-7.6c3.3-1.5,6.6-3,10.9-5c0.7,3.3,1.5,5.6,1.5,7.7c-0.2,15.4-0.6,30.8-1,46.2
		c-0.2,9.2,0,18.5-1.1,27.7c-0.4,3.5-3,8.3-6,9.8c-12.5,6.2-25.6,11.4-38.5,16.8c-1.1,0.5-2.5,0.4-3.8,0.5
		C486.7,197.4,486.3,196.5,485.8,195.5z"/>
	<path fill-rule="evenodd" clip-rule="evenodd" d="M525.7,52.3c4.8,0.1,8.8,5.2,8.6,10.8c-0.2,4.8-6.3,9.2-12.2,8.7
		c-3.9-0.3-6.6-3.5-6.6-7.8C515.4,57.2,519.8,52.1,525.7,52.3z"/>
</g>
<g>
	<path fill-rule="evenodd" clip-rule="evenodd" d="M973.6,1076.9c15.9,1,31.4,0.4,44.5-10.4c3.5-2.9,6.4-3.7,9.6,1.4
		c-12.5,6.5-23.9,14.4-38.7,14.6c-13.7,0.2-27.8,3.8-41,1.4c-18.4-3.3-38.1-5-53.9-17.3c-0.7-0.6-1.7-1-2.3-1.7
		c-7.1-9.2-17.7-13.7-26.9-20.1c-6.7-4.7-13.2-9.5-22.6-11.2c-9.1,6.7-18.6,14.4-28.7,21.1c-8.3,5.4-17.2,10-26.1,14.4
		c-21.1,10.5-37.3,26.1-49.4,46.2c-1.9,3.1-2.5,7.3-7.4,7.4c-0.7,0-1.7,1-2.1,1.7c-9,15.4-26.2,19.3-39.9,28.1
		c-4.4,2.8-8.7,5.7-13.2,8.5c-1.8,1.1-3.7,2.5-5.7,2.9c-3.9,0.8-7.9,2.2-11.1-2.1c-3.1-4.1-2.7-8.2-0.6-12.4
		c3.6-7,8.3-13.5,10.8-20.8c4.5-13.3,8-26.9,11.4-40.5c3.8-15.2,3.5-15.7-11.6-16.9c-15-1.2-28.4-6.8-42.1-12.4
		c-13-5.4-24.7-13.1-36.4-20.5c-5.1-3.3-8.9-3-13.7-0.4c-8.5,4.7-17.1,9.1-25.8,13.4c-6.4,3.2-12.9,6.2-20.4,6.6
		c-4.3,0.2-8.4,2.2-12.7,3.3c-4.2,1.1-8.4,2.1-12.6,3c-2.7,0.6-5.4,0.9-8.8,1.5c2.5,18.3,3.2,36.3,18.6,49c2.2,1.8,3.7,5.2,4.3,8.1
		c0.9,4.3,2.6,7.4,8.2,8.3c-6.2,6.4-2.1,11.5-0.2,16c-1.2,3.2-1.9,5.8-3.1,8.3c-1.2,2.5-2.5,5.2-4.3,7.1c-2.8,2.9-6.4,2.5-8.9-0.6
		c-5.5-6.8-12-13-16-20.6c-5.1-9.7-14.1-15.8-20-24.6c-1-1.5-2.6-3.3-4.2-3.6c-10.7-1.8-13.8-11.6-19.5-18.5
		c-2.1-2.5-2.8-6.5-7.7-4.8c-0.8,0.3-3-2.1-3.8-3.7c-4.7-8.8-14-13-20.1-20.4c-0.8-1-2.8-1.1-4.2-1.5c-7.5-2.2-14.9-4.5-22.4-6.6
		c-16.4-4.5-31.5-12.1-46.1-20.7c-9.5-0.2-16.6-6.5-24.6-10.2c-4.7-2.1-8.5-1.9-12.3,2.8c-10.7,12.9-24.3,22.7-37.7,32.5
		c-4.1,3-9.5,4.9-14.5,5.7c-9,1.4-18.1,1.8-27.2,2.1c-10.3,0.3-20.8,1.2-30.9-0.2c-23.8-3.4-46.6-9.8-63.1-29.5
		c-4.2-5-9.7-8.8-14.4-13.4c-0.9-0.9-1.3-2.4-1.5-4c18,9.7,30.9,26.9,51.7,34.3c-2.1-11.1-5.8-20.8-10.8-29.2
		c-4.5-7.5-6.6-15.5-9.2-23.4c-3.8-11.2-7.3-22.7-9.5-34.3c-2.8-15-3.2-30-0.2-45.4c2.4-12.2,8.4-22.7,11.3-34.5
		c0.5-2.2,3-3.8,4.3-5.8c2.5-3.8,4.5-8,7.2-11.6c4.5-6.1,8.1-13.3,15.7-16.3c11.4-4.5,19.2-13.8,28.5-21c1.3-1,1.6-3.3,2.1-5.1
		c2.3-7.5,3.3-15.6,6.9-22.2c5.7-10.4,4.4-21.4,5.8-32.2c1.3-10.9,3.6-21.6,4.9-32.5c2.9-23.3,7-46.3,13.9-68.8
		c7.4-24.2,14.5-48.5,20.2-73.2c6.1-26.2,13.3-52,19.8-78.1c4.4-17.3,7.9-34.8,12.9-51.9c5.6-19.1,12.6-37.7,18.8-56.6
		c3.2-9.7,5.9-19.7,9.3-29.4c7-20,12.7-40.4,23.4-59.1c6.5-11.4,10.8-24,15.9-36.1c8.7-20.7,17.3-41.6,26-62.3
		c2.2-5.2,4.4-10.4,7.4-15.2c1.8-3,5-5.2,8.1-8.4c1.5,2.2,3,3.5,3.3,5c2.8,14.7,12.1,25.6,21,37c7.9,10.1,18.7,16.4,28.4,24.3
		c5.3,4.3,11.9,6.9,17.9,10.3c14.9,8.4,31.5,11.4,47.9,15.3c19.3,4.7,39,6.1,58.6,7c13.6,0.6,27.4,0.4,40.8-4.1
		c6.5-2.2,13.4-2.8,20.1-4.5c17.8-4.7,34-13.2,47.9-24.9c10.7-9,19-20.7,28.3-31.3c3.3-3.7,6.6-7.5,9.4-11.6
		c2.4-3.5,4.3-7.5,6.7-11.9c4.8-1,7.6,2.2,8.8,6.7c7,25.4,18.8,49,29.2,73.1c6.6,15.3,12.7,30.5,17.6,46.4
		c9.7,31.9,19.8,63.8,28.9,95.9c7.3,25.5,14.2,51.2,19.7,77.2c4.1,19.3,8.4,38.4,13.9,57.3c1.7,5.9,2.5,12.1,3.8,18.8
		c6.5-3.2,9.2-7.3,11.5-13.3c9.1-24,19.5-47.7,37.7-66.6c9.3-9.6,20-17.9,30-26.8c0.7-0.6,1.6-1.1,2.1-1.8
		c10.4-13.1,26.5-13.1,40.6-17.1c3.5-1,8,0.8,11.9,2.1c12.8,4.1,25.7,8,38,13.2c7.6,3.2,14.5,8.3,21.2,13.3
		c9,6.7,17.3,14.5,26.2,21.3c5.4,4.2,9.2,9.1,11.7,15.4c2.2,5.5,5.5,10.5,8.2,15.8c10.4,20.5,17.7,42.3,21.8,64.7
		c2.2,12.3,2.2,25.6-1.9,38.2c-2.8,8.8-5,18-6.5,27.2c-1.6,9.7-7.9,16-14.3,22.4c-1.3,1.3-3.1,2.5-3.7,4.1
		c-3.1,7.7-10.1,10.7-16.7,14.2c-2.8,1.5-5.7,2.7-8.3,4.4c-14.3,9.3-29.9,12.1-46.6,10.6c-2.8-0.3-5.7-0.3-8.5-0.2
		c-18.3,0.7-34.4-6.5-49.2-15.7c-8.8-5.5-15.7-14.3-22.8-22.2c-2.5-2.8-3.5-7.3-4.5-11.2c-3.6-14.8,1.2-41.8,17.4-52.4
		c8.1-5.3,16.6-7.2,25.9-4.2c8.5,2.7,14.3,13.3,12.4,22.2c-0.3,1.4-0.1,3,0.2,4.4c0.2,0.9,0.8,1.7,1.3,2.5
		c9.9,15.9,12.4,16.3,28.7,10.1c17.1-6.5,29.3-18.6,38.8-33.6c4.1-6.5,2.5-14,0.7-20.9c-1.5-5.7-3.4-11.4-6-16.8
		c-2.3-4.7-5.2-9.3-8.6-13.3c-8.1-9.6-17-18.3-28-24.8c-5.7-3.4-11.6-4.9-17.9-4c-20.5,2.8-39.5,10.1-56.1,22.4
		c-7.5,5.5-14.1,12.4-20.1,19.6c-3.2,3.9-4.3,9.6-6,14.6c-6.5,19.8-9.4,40-8.7,60.9c0.3,9-1.8,18.1-1.9,27.1c-0.1,10,0.9,20,1.2,30
		c0.2,7.4-0.1,14.9-0.1,22.3c0,1.8,0,3.7,0.2,5.5c2.2,19.6,4.3,39.2,6.7,58.7c0.4,2.9-1.1,7.5,4.4,7.9c0.4,0,1,1.5,1.1,2.3
		c3.8,18.8,12.2,36,18.9,53.7c2.4,6.2,8.2,11,11.8,16.7c11.3,17.7,20.7,36.4,27.4,56.3c2.7,8,3.7,16.2,2.6,24.9
		c-2.5,19.2-4,38.6-6,57.8c-0.7,6.2-1.2,12.5-2.7,18.6C970.2,1059.5,971.2,1068,973.6,1076.9z M475.4,836.9
		c-1.7,10.4-4.3,20.8-1.6,32.1c7.8,0.7,15.6,1.9,23.4,1.9c9.3,0.1,18.7-0.5,28.1-1.2c17.8-1.2,35.8,0.8,53.4-3.7
		c6.1-1.5,12.1-3.1,18.3-4c11.4-1.6,23-2.2,34.3-4c19-3,37.8-6.6,56.4-9.9c-1.2-5.4-1.9-11.1-3.8-16.3c-5.5-15-11.4-29.7-17.3-44.6
		c-0.5-1.4-2-2.3-3.1-3.5c-10.3-11.7-20.5-23.4-27.9-37.2c-1.5-2.8-2.6-7.1-1.5-9.5c1.7-3.6,6-3.1,10-2.6
		c11.5,1.2,20.4,5.8,25.6,16.5c0.5,1.1,1.5,2,2.4,2.8c18.5,17.4,33.3,38.2,50,57.2c3.4,3.9,6.5,8,9.6,12.1c3.2,4.2,6.3,8.6,9.6,12.6
		c3.9,4.7,8.6,6.2,15,4.9c9.4-2,19-3.4,28.6-3.9c12.8-0.7,25.6-0.3,38.4-0.5c22.4-0.4,44,3.5,65.1,11.1c1.7-12-0.6-52.7-3.7-62.6
		c-28.1,15.2-106.7,33-121.8,27.2c3.9-3.9,8.8-4.4,13.6-5.2c10.2-1.6,20.6-2.4,30.6-4.6c16.4-3.7,32.7-8.1,48.9-12.7
		c9.5-2.7,18.7-6.3,28.1-9.4c-0.5-1.9-0.9-3.1-1-4.3c-1.6-15.3-3.1-30.5-4.7-45.8c-0.4-3.2-1.4-6.4-2.2-10.1c-4,1-7.1,1.6-10.1,2.6
		c-21.1,7.1-42.4,13.3-64.1,17.9c-6.1,1.3-12,3.3-18.2,4.6c-11.6,2.3-23.3,4.7-35,6.3c-10.5,1.5-21.1,2.1-31.7,2.8
		c-1.7,0.1-3.5-1.1-7.2-2.4c57.7-9.4,113.2-18.9,166.3-40.3c-3.1-14.2-6.2-28.6-9.6-44.3c-3.4,1.5-6.3,2.2-8.7,3.8
		c-16.2,10.8-33.5,19.4-51.7,26.1c-17,6.3-33.6,14.1-50.9,19.3c-21.8,6.6-44.6,8.8-67.4,10.5c-0.5,0-1.1-1.2-2.7-3
		c3.8-1.2,6.8-2.6,9.9-3.1c13.3-2.1,26.7-3.8,40-6c4.9-0.8,9.8-1.8,14.5-3.5c14.2-5,28.2-10.5,42.3-15.4c25.7-9,50.3-20.4,73.5-35.6
		c-3.9-18.2-7.7-36.4-11.8-55.5c-9.4,5-18,8.8-25.8,13.9c-24.8,16.3-52.4,26.8-79.6,37.8c-15.7,6.4-33.1,9.1-50,12.4
		c-37.5,7.4-75.7,10.4-113.7,14.6c-11.8,1.3-23.6,2.9-35.4,3.1c-13.1,0.2-26.2-0.6-39.2,1.3c-8.4,1.2-17,1.5-25.4,1.8
		c-14.2,0.5-28.7-1.6-42.3-6.2c-17.1-5.8-33.9-12.7-50.9-18.6c-17.1-5.9-34.6-10.7-51.4-17c-22.2-8.4-46-11.9-67.2-23.1
		c-2.3-1.2-5.2-1.4-8.5-2.2c-2.3,8.6-4.5,16.8-6.4,24.2c10,4,18.7,7.4,27.3,10.8c7.2,2.9,14.3,6.2,21.7,8.8
		c16.2,5.8,32.5,11.2,48.7,16.8c5.6,2,10.9,4.8,16.6,6.3c20,5.3,40.1,10.1,60.1,15.2c6,1.5,12,4.9,18,4.9c18.9,0,37.5,4.2,56.6,2.8
		c12.8-0.9,25.9,1.1,39.1-0.1c13.4-1.2,26.7-1.9,39.9-4.6c6.4-1.3,13.1-1.3,19.6-2.1c13.3-1.7,26.7-3.4,39.9-5.5
		c13.6-2.1,26.6-8.4,40.6-6.7c12.9,1.6,24-2.8,35.3-7.6c1.7-0.7,3.4-1.6,5.2-2.1c22.9-5.8,43.6-17.3,65.5-25.6
		c12.9-4.9,25.4-10.8,37.8-16.8c7.5-3.7,14.5-8.4,21.8-12.6c0.7-0.4,1.7-0.4,2.5-0.6c2.6,2,3.3,4.2,0.8,6.3c-2.4,2-5.1,3.8-7.9,5.1
		c-11.1,5.1-22.3,10-33.4,14.9c-19.5,8.5-38.9,17.2-58.6,25.4c-13.9,5.7-28,10.9-42.1,15.7c-6.1,2.1-12.8,4.1-19.1,3.8
		c-11.8-0.5-23.1,1.2-34.5,3.5c-16.6,3.4-33.2,6.5-49.8,9.3c-6.5,1.1-13.2,0.3-19.7,1c-16.1,1.8-32.3,3.6-48.4,6.2
		c-11.5,1.9-23.5-3.2-34.6,2.5c-0.4,0.2-1.1-0.3-1.7-0.3c-12.7-1.7-25.4-3.6-38.1-5.1c-9-1.1-18.6-0.2-27-3
		c-30.9-10.1-63.4-14.5-93.7-26.9c-21.6-8.8-44.6-14-66.1-23.7c-7.8-3.5-16.3-5.7-24.7-8.6c-7.2,19.6-13.5,38.6-15.3,57.6
		c3.6,0.6,6.4,0.6,8.8,1.6c7,2.8,13.6,6.5,20.7,8.9c17.1,5.8,35.1,8.5,51.6,16c1.1,0.5,2.3,0.9,3.6,1.3c10.2,3,20.3,6.1,30.5,9.1
		c10.5,3.1,20.9,6.4,31.6,8.9c10.7,2.5,21.5,4.1,32.3,6.1c3.2,0.6,6.4,1.2,9.6,1.7c-0.8,5-3.9,4.7-6.6,4.3
		c-6.2-0.8-12.4-1.6-18.5-3.1c-22.5-5.5-45.3-9.5-67.2-17.4c-8.8-3.2-17.9-5.3-26.8-8.1c-5.3-1.7-10.5-3.9-15.8-5.5
		c-14.1-4.2-28.8-6.1-42-13.2c-4-2.1-8.2-3.8-13.9-6.5c-1,11.7-1.9,22.1-2.9,32.9c3.8,1.2,7,2.3,10.2,3.3c14.3,4.4,28.6,8.8,43,13.1
		c5.1,1.5,10.2,2.9,15.5,3.9c13.5,2.4,27.3,3.2,40.3,8.1c3.4,1.3,7.3,2.1,11,2c19.7-0.3,38.3,5.7,57.3,9.5c2.1,0.4,3.9,2.1,5.8,3.2
		c-0.2,0.8-0.4,1.6-0.6,2.5c-1.8,0-3.7,0.3-5.5-0.1c-11.3-2.4-22.5-5.7-34-7.3c-15.4-2.2-31-2-46.2-6.4c-9.5-2.8-19.8-2.6-29.5-4.9
		c-13.6-3.3-27-7.5-40.4-11.5c-9.2-2.7-18.3-5.5-28.1-8.5c-1.5,8.4-2.9,15.9-4.4,24.2c4.8,1.5,9.2,2.9,13.6,4.2c2.1,0.6,4.3,1,6.2,2
		c13.2,6.8,27.3,10.7,41.6,14.2c8.5,2,17.3,2.9,25.6,5.6c19.1,6.1,38.5,10.6,58.3,13.9c3.1,0.5,8.6,0,9.3,5.9
		c-1.2,0.4-2.1,1.1-2.9,1c-51.1-10-102.1-20.3-151.7-39.7c-1.5,11.5-4.6,22.2-4,33.8c29.9,8.1,59.1,16.1,88.7,24.1
		c-0.1,1.1-0.2,2.8-0.3,4.8c27.9,3.5,54.1,16.4,83.3,12.7c9-21.4,17.9-42.5,27-64.1c5.1,1.6,8.3-1.3,10.9-5.6
		c4.6-7.4,9.1-14.9,13.9-22.3c3.7-5.8,7.6-11.5,11.5-17.1c2.7-3.9,6.3-7.2,8.2-11.4c3.4-7.8,9.6-12.5,16.8-15.6
		c3.3-1.4,8.3-1.5,11.6-0.1c6.5,2.8,12.3,7,18.8,10.8c-2.2,4.1-3.3,8.1-5.8,10.5c-11.6,10.7-15.8,25.7-20.6,39.4
		C483.9,802.9,476.2,819,475.4,836.9L475.4,836.9z M301.6,479.8c13.3,6.1,26.1,12,38.8,17.7c3.9,1.8,8,3.1,11.9,5
		c15.1,7.2,30.9,11.9,47.4,14.5c9.2,1.5,18.4,3.7,27.5,5.9c7.2,1.7,14.2,4.6,21.5,5.9c16.6,2.9,33.3,5.6,50.1,7.4
		c25.5,2.8,50.8,7.8,76.7,3.6c18.5-3,37.3-3.8,56-5.7c5.6-0.6,11-2.1,16.6-2.9c16.4-2.3,33-3.8,49.2-7c11.9-2.4,23.3-7,35-10.5
		c6-1.8,12.3-2.7,18.2-4.9c11.7-4.5,23.3-9.1,34.5-14.6c13-6.4,27.6-10.7,36.7-23.2c-1.6-8-2.9-16-5-23.8
		c-2.9-10.9-6.4-21.6-9.7-32.4c-6.5-21.6-13.2-43.1-19.5-64.8c-5.3-18.3-10.6-36.6-19.4-53.8c-6.3-12.2-10.5-25.5-15.7-38.3
		c-3.8-9.3-7.8-18.6-11.7-27.9c-1.7,0.8-2.4,1-2.8,1.4c-9.9,10.8-19.7,21.8-29.6,32.5c-4.7,5.1-8.8,11.1-14.5,14.6
		c-11.1,7-22.8,13.2-34.8,18.5c-7.6,3.4-16.1,4.8-24.2,6.7c-12.7,3-25.1,7.4-38.7,5.8c-16.1-1.8-32.5-1-48.5-3.3
		c-30.5-4.3-60.6-10.4-87.1-27.5c-5.8-3.7-11.3-7.8-16.7-12c-3.7-2.8-7.3-5.8-10.7-9c-2.9-2.8-5.1-7.9-8.3-8.6
		c-7.6-1.7-10.1-7.9-14.3-12.7c-3.4-3.9-6.7-7.8-10.8-12.6c-1.8,3.3-3,5.1-3.7,7c-3.3,8.1-6.3,16.3-9.8,24.4
		c-8.7,20.4-17.5,40.8-26.4,61.2c-1.6,3.7-3.8,7.2-5.4,10.8c-7,15.7-14.7,31.2-20.6,47.3c-7.2,19.7-12.7,39.9-19,59.9
		c-4.1,12.8-8.3,25.6-12.3,38.5C301.6,475,301.8,476.9,301.6,479.8z M831.9,512.5c-13.3,7.6-26.1,14.7-38.7,22.2
		c-19.4,11.6-39.4,21.8-61.9,26.2c-8.3,1.6-16.3,4.3-24.5,6.2c-12.2,2.7-24,7.1-36.9,6.5c-11.8-0.5-23.7,0.2-35.6,1
		c-9.6,0.6-19.2,2.6-28.8,3.3c-14.4,1-28.8,1.6-43.2,1.8c-14.1,0.2-28.3-1.3-42.4-0.1c-13.3,1.1-26.3-0.2-39-3
		c-11.4-2.6-22.7-4-34.3-4c-3.7,0-7.5-0.5-11.1-1.5c-16.6-4.6-33.1-9.4-49.6-14.1c-5.1-1.5-10.4-2.7-15.3-4.8
		c-19.4-8.4-39.2-15.5-59.6-21.4c-7-2-14.9-4.5-19-13.8c2.8-0.5,5.8-2,6.9-1.2c8.4,6.4,18.4,8.7,28.2,11.9
		c13.4,4.3,26.2,10.2,39.4,14.9c8.2,3,17,4.4,24.8,8c7.9,3.6,15.4,7,24.3,6.4c1.1-0.1,2.2,1.2,3.4,1.6c8.7,2.4,17.3,5.4,26.2,7
		c10.1,1.9,20.5,2.6,30.7,4c13,1.8,25.8,5,39.1,4.6c21.6-0.6,43.2-0.4,64.8-0.8c12.5-0.3,25.2,0,37.4-2.1c19.3-3.4,38.6-4,58-4.4
		c6.5-0.1,13-1.5,19.3-3c11.3-2.7,22.2-7.3,33.6-8.6c23.3-2.7,42.5-14.6,62.2-25.2c13.7-7.3,26.8-15.7,40-23.6
		c-0.8-10.3-1.6-20.1-6.6-28.1c-3,2.4-5.3,4.8-8.2,6.4c-8,4.3-16,8.6-24.2,12.4c-14.6,6.6-29.2,13.1-44,18.8
		c-9.9,3.8-20.2,6.6-30.4,9.4c-9.9,2.8-19.9,5.6-30.1,7.4c-10.5,1.8-21.2,1.9-31.7,3.5c-16.1,2.5-32,5.3-48.3,6.5
		c-18.7,1.4-37.3,3.5-56,5.1c-3.7,0.3-7.5,0-11.3-0.4c-17.8-2-35.5-3.9-53.2-6.3c-17.7-2.5-35.3-5.1-52.9-8.5
		c-12.6-2.4-24.8-6.4-37.3-9.2c-17-3.8-33.8-7.9-49.8-15.5c-10.8-5.1-22.8-8-33.2-14.5c-4.6-2.9-9.2-5.7-14.4-9
		c-8.9,34.7-17.5,68-26.3,101.9c2.2-0.3,3.6-0.9,4.7-0.6c12.8,4.2,25.5,8.6,38.2,13c3.5,1.2,6.9,4.2,10.4,4.1
		c8.8-0.2,16.5,3.3,24.4,6.2c4.7,1.7,9.1,3.9,13.8,5.5c12,4.2,24.1,8.4,36.3,12.3c11.5,3.7,23,7.5,34.7,10.5
		c11.5,2.9,23.2,5.1,34.9,7.2c5.5,1,11.3,2.5,16.6,1.5c17.7-3.1,35.3-1.5,53-0.6c11.5,0.6,23.2-0.4,34.7-0.9
		c6.2-0.3,12.3-1.5,18.5-1.6c12.6-0.1,25-1.2,37.1-5.3c4.7-1.6,9.8-2.7,14.7-3c24.2-1.5,47.7-6.2,70.4-14.9c6.4-2.4,13.3-4,20.1-4.6
		c11.1-1.1,21.2-4.6,31-9.7c12.7-6.6,25.5-13.2,38.6-19.1c13.7-6.2,27.4-12.2,39.1-21.8C840,547.8,836.1,530.8,831.9,512.5z
		 M392.3,877.8c-5.3-1.8-12.2-4.6-19.3-6.6c-18.1-5.1-36.1-10.5-54.4-14.6c-13.1-3-26.7-3.8-40-6.2c-17.2-3-34.3-2.1-51.3,1.4
		c-10.8,2.2-20.6,7.5-30.9,10.5c-17.3,5-28.5,15-35,31.1c-4.8,11.9-10.4,23.4-11.6,36.5c-1.5,16.9,4.1,32.8,5.3,49.3
		c0.2,2.7,1.9,5.3,3.1,7.8c4.3,9.4,8.9,18.7,12.8,28.2c3.1,7.7,7,14.7,13.2,20.3c8.1,7.2,16.3,14.4,24.6,21.4
		c6.9,5.8,14.5,9.2,24.1,6.9c5.1-1.2,10.6-0.6,15.9-0.9c8.6-0.5,16.7-2.4,23.8-7.6c15-11,29.7-22,39.5-38.3
		c4.6-7.6,7.5-8.1,13.9-1.9c9.8,9.6,21.9,15.6,33.5,22.3c7,4,14.4,7.4,21.8,10.6c4.8,2.1,9.9,3.8,15,5.4c7.6,2.4,14.9,6.1,23.7,5.5
		c0.2-1.6,0.4-2.8,0.4-4c0.3-14.4-5.1-27.5-8.9-41c-3.6-12.9-7.8-25.8-9.8-39.1c-2.6-17.3-3.3-34.9-4.9-52.3
		C395.6,908.3,394,894.1,392.3,877.8z M700.6,867.3c-18.2-6.4-35.7-5.1-53.1-3.1c-15.8,1.9-31.6,4.1-46.9,8.1
		c-16,4.2-32.3,3.9-48.5,6c-11.4,1.5-22.9,3-34.3,4.5c-5.2,0.7-10.5,1.5-15.7,1.9c-10.5,0.8-21.1,1.4-31.7,2.1
		c-1,5.2-2.5,9.4-2.6,13.7c-0.5,19.3-3.5,38.5-0.3,57.9c3.1,19.1,4.5,38.5,7.8,57.5c2.6,14.4,7,28.5,10.4,41.7c3.3,0.4,5.7,0.7,8,1
		c1.8,0.2,3.8,1,5.5,0.6c16.4-4.1,33.1-7.3,48.9-13c13.1-4.7,25.3-12.3,37.7-18.9c7.8-4.1,8.5-4.1,15.5,1.8
		c9.6,8,19.2,16.1,29.3,23.5c17.6,12.8,38.5,13.2,59.5,14.8c1.4-3.4,2.9-6.5,4.1-9.7c5.7-14.6,10.1-29.4,12.1-45.1
		c2.7-20.7,6-41.4,5.9-62.3c0-4-1.4-8.2-0.9-12.1c2.3-18-0.4-35.6-4.5-53C705.5,878.8,702.6,872.7,700.6,867.3z M764,1068.5
		c7-1.4,12.7-1.8,17.8-3.9c7.8-3.1,15.7-6.6,22.4-11.4c12.8-9.3,28-15.4,38.4-28.2c5.1-6.3,8.8-6.3,13.8,0
		c9.2,11.5,21.2,19.5,32.4,28.5c4.4,3.5,8.9,7,13.6,10c11.4,7.1,23.9,10.5,37.3,11.8c10.5,1,13,0.5,17.8-8.6
		c7.7-14.6,12.1-30.1,12.2-46.8c0-5.6,1.3-11.1,1.8-16.7c1.2-13,2.3-26,3.2-39c0.2-2.1-0.4-4.4-1.1-6.5c-3.2-9.2-6.3-18.4-9.9-27.4
		c-2.2-5.5-4.9-10.8-7.8-15.9c-7.9-14.2-19.7-25.1-31.2-36.2c-3.4-3.3-6.4-7.2-10.4-9.5c-17.7-10.2-35.8-19.4-56.4-21.9
		c-13-1.6-26.1-2.9-39.2-3.4c-8.4-0.3-16.9,0.7-25.3,1.9c-12.6,1.8-25.1,4.5-38,9.2c0.7,3.4,1.2,6.4,2.1,9.3c0.9,3,2.6,5.8,3.3,8.8
		c4.3,18.2,11.2,35.8,12.9,54.7c1,10.5,4.4,21,1.7,31.7c-4.7,18.8-5.4,38.1-7.6,57.2c-1.5,13-2.7,26.1-3.9,39.1
		C763.7,1059.2,764,1063.2,764,1068.5z M915.6,859.1c-1-9.5-1.1-18.7-3.2-27.4c-4.3-17.7-7-35.5-7.5-53.6c-0.1-2.5,0-5.1-0.6-7.5
		c-5.3-23.2-2.4-46.8-4.1-70.2c-0.8-10.8,1-21.8,1.4-32.7c1-26.1,4-51.7,14.6-76c5.4-12.4,13.2-22.6,22.9-31.8
		c5.5-5.2,11.4-9.6,18.5-12.5c15-6.2,30.8-3.5,46.3-4.8c0.6,0,1.2,0.4,1.8,0.5c13.1,2.6,22.3,11.7,32.1,19.7
		c4.3,3.5,7.6,8.3,11.5,12.4c12.1,12.6,18.1,28.6,19.1,45.1c1.1,17.6-4.7,34.7-16.3,48.8c-7.4,9-18.2,12.7-29.1,13.5
		c-15.2,1.1-33.1-12.7-39-28c-1.2-3-2.9-5.6-1.5-9.6c2.5-7.6-1.5-12.5-9.5-13.6c-11.3-1.6-24.7,6.9-26.7,16.4
		c-0.5,2.1-1.8,4-2.5,6.1c-4.8,12.7-5.1,25.4,2.3,37c3.4,5.4,8.7,9.6,13.5,14c20.6,19,45,22.7,71.6,17.7c3.7-0.7,7.4-1.3,11-1.9
		c8.3-1.6,16.9-2.4,23.9-7.9c14.7-11.5,26.9-24.9,35-42.1c7.9-16.9,11.6-34.6,10.9-52.8c-0.4-11.3-3.8-22.9-7.5-33.8
		c-4.6-13.6-10.3-26.9-16.5-39.8c-5.2-10.8-10.2-22.3-21.6-28.6c-3.2-1.8-7-3.2-9.4-5.8c-7.5-8.2-17.2-12.3-26.9-16.5
		c-7.2-3.1-14.3-6.8-21.9-8.1c-16.1-2.9-31.9,2.2-48,3c-0.9,0-1.8,0.5-2.7,0.8c-12.4,4.1-24.2,9.3-34.6,17.2
		c-4.4,3.3-9.1,6.5-12.8,10.5c-17.4,19.1-27.9,42.1-35.9,66.4c-3.1,9.5-6.1,19-9,28.6c-0.7,2.3-1.4,4.8-0.9,7.1
		c4.3,23,8.4,46.1,13.6,69c4.1,18.3,6.9,36.7,9.1,55.3c1.7,15.2,2.4,30.7,5.8,45.6c3,13.1,3.3,26,3.3,39.2c0,4.1,0.6,8.1,0.5,12.2
		c-0.2,11.4,6.6,16.7,16.6,19.2C913.4,859.5,913.8,859.3,915.6,859.1z M266,614.3c10.4,4.3,19.7,8.7,29.4,12
		c21,7.1,42.5,12.8,62.9,21.7c6.8,3,13.9,5.5,21,7.9c8.5,2.9,17.2,5.2,25.6,8.4c20.5,7.8,40.9,15.7,62.9,18.5
		c2.4,0.3,5.8,1.2,7.2,0.1c5.6-4.8,11.3-1.9,17-1.5c3.7,0.3,7.4,0.9,11.1,0.7c14.3-0.9,28.5-5,43-1.1c1.8,0.5,3.8,0.2,5.6,0
		c25.1-2.7,50.2-5.5,75.4-8.2c7.1-0.8,14.3-0.7,21.4-1.9c20-3.3,40.1-6.7,60-10.8c13.5-2.8,27-5.9,39.9-10.5
		c13.8-4.8,27.3-11,40.5-17.5c19.3-9.5,38.3-19.7,57.4-29.7c2.2-1.1,4-3,5.5-4.2c-2.1-9.6-3.9-18-5.8-26.9c-8.5,5-15.7,10-23.5,13.7
		c-18.4,8.7-37.4,15.8-54.8,26.5c-4.2,2.6-9.1,4.1-13.9,5.4c-15.3,4.2-30.9,7.7-46.1,12.3c-13.5,4.1-26.8,8.3-41,9.6
		c-12.7,1.2-25.5,3.1-37.9,6.1c-13.5,3.2-27,5.3-40.9,5.1c-3.4,0-6.8,0.7-10.3,1c-11.2,0.9-22.5,3.1-33.6,2.2
		c-20.3-1.7-40.4-3.2-60.7-0.5c-8.1,1.1-16.1,0.8-23.9-2.4c-2.8-1.2-6.1-1.4-9.1-2.2c-15.7-4.1-32-5.3-46.9-12.7
		c-9.4-4.7-20.4-5.9-30.2-9.7c-20.1-7.8-40.7-13.8-61.1-20.3c-13.4-4.3-27.4-7.3-40.1-15C269.9,598.4,268,606.2,266,614.3z
		 M515.8,1157.7c3.7-10.6,4-13.1,0.4-17.5c-8.3-10.3-13.7-21.9-19.1-34c-7.7-17.4-15.2-34.9-22-52.7c-8.4-21.9-11.2-44.7-13.1-67.7
		c-0.8-9.3-1.6-18.6-2.4-27.9c-0.4-4.3-1-8.7-1.3-13c-0.6-10-1-19.9-1.6-29.9c-0.4-7.7-1-15.5-1.5-23.2c-0.5-7.9,3.1-15.9-0.5-23.7
		c5.6-11.3,5.7-24,8.2-36c1.8-9,3.5-17.7,8.2-25.7c3-5.1,5.1-10.8,6.8-16.4c3.1-10.7,8.3-20.2,14-29.7c3.5-5.8,5.6-12.4,8.2-18.8
		c1.4-3.6,2.3-7.1-2.7-9.3c-7.2-3.1-9.1-3.3-12.9,1.4c-7.2,9-14.7,17.9-21.2,27.5c-9.2,13.4-17.9,27.1-26.3,41
		c-5.3,8.8-10,18-14.3,27.4c-3.6,7.9-6,16.4-9.3,24.5c-3.6,8.8-6.3,17.6-6.2,27.3c0,5.3-0.8,10.6-1.2,15.9
		c-0.7,8.1-2.2,16.3-1.8,24.3c0.6,13.4,2.4,26.7,3.8,40c0.8,7.5,0.7,15.1,2.5,22.3c3.8,15,7.5,30.1,15.1,44c4,7.3,6.4,15.5,9.8,23.2
		c1.6,3.7,3.9,7.1,6,10.5c1.6,2.7,3.9,5.1,5.1,7.9c9,21,25.3,36.3,40.4,52.5c3.4,3.6,6.5,7.6,9.6,11.4
		C502.6,1141,508.8,1148.8,515.8,1157.7z M648.3,747.8c11.8,16.5,22.8,32.1,34.1,47.4c7.7,10.4,14.3,21.2,18.9,33.3
		c3.2,8.4,6.9,16.7,10,25.1c1.1,2.9,1.1,6.1,1.6,9.2c0.6,3.9,1.1,7.9,2,11.7c0.8,3.3,2.8,6.4,3.2,9.7c2.3,15.5,4.4,31,6.1,46.5
		c0.9,7.8,1.3,15.6,1.1,23.4c-0.2,7.2-1.6,14.3-2.1,21.5c-0.3,4.3,0.7,8.8,0.1,13.1c-2.5,19-6.7,37.6-12.8,55.7
		c-3.4,10.1-6.1,20.4-10.4,30.1c-6,13.7-8.6,28.7-17,41.4c-4,6.2-6,13.7-9.5,20.3c-2.7,5.2-6.5,9.9-9.3,15c-0.8,1.5,0,3.9,0.1,6
		c2-0.2,4.2,0.1,5.9-0.8c8.3-4.4,16.3-9.3,24.7-13.5c11.8-5.9,21.3-14.1,28.5-25.2c4.6-7.1,9.2-14.3,14.2-21.1
		c7.8-10.5,12.5-22.2,15-34.9c2.6-13.5,5.1-27,7.6-40.5c0.7-3.7,1.4-7.4,1.7-11.1c1.2-12.5,2.2-24.9,3.3-37.4
		c0.4-4.9,1.1-9.9,1.1-14.8c0-7.5,0.2-15.2-1-22.5c-1.8-11.1-3.7-22.3-7.3-32.8c-4.1-12.1-9.8-23.6-15.3-35.1
		c-5.2-10.9-10.6-21.7-16.7-32.1c-4.4-7.5-10.1-14.2-15-21.5c-6.8-10.1-12.6-21.1-20.4-30.4c-11.6-14-25.7-25.8-36.2-41.4
		C652.3,744,650.3,745.9,648.3,747.8z M223,826.9c-1,7-1.7,12.4-2.5,17.8c17-1.5,32.9-2.9,48.7-4.3c0.1-0.4,0.2-0.9,0.4-1.3
		C254.6,835.2,239.5,831.2,223,826.9z"/>
	<path fill-rule="evenodd" clip-rule="evenodd" fill="#C1D7E1" d="M301.6,479.8c0.2-2.9,0-4.9,0.6-6.6c4-12.9,8.3-25.6,12.3-38.5
		c6.3-20,11.8-40.2,19-59.9c5.9-16.1,13.6-31.6,20.6-47.3c1.6-3.7,3.8-7.1,5.4-10.8c8.9-20.4,17.7-40.8,26.4-61.2
		c3.4-8.1,6.5-16.3,9.8-24.4c0.8-1.9,2-3.7,3.7-7c4.1,4.7,7.4,8.7,10.8,12.6c4.2,4.8,6.7,11,14.3,12.7c3.2,0.7,5.4,5.8,8.3,8.6
		c3.4,3.2,7,6.2,10.7,9c5.5,4.1,11,8.3,16.7,12c26.5,17.1,56.6,23.2,87.1,27.5c16,2.3,32.4,1.5,48.5,3.3c13.6,1.5,26-2.9,38.7-5.8
		c8.2-1.9,16.7-3.3,24.2-6.7c12-5.3,23.7-11.5,34.8-18.5c5.7-3.6,9.8-9.6,14.5-14.6c9.9-10.8,19.7-21.7,29.6-32.5
		c0.4-0.4,1.1-0.6,2.8-1.4c3.9,9.3,7.9,18.6,11.7,27.9c5.2,12.8,9.5,26,15.7,38.3c8.8,17.2,14.1,35.4,19.4,53.8
		c6.3,21.6,13,43.2,19.5,64.8c3.3,10.8,6.7,21.5,9.7,32.4c2.1,7.8,3.4,15.8,5,23.8c-9.1,12.5-23.6,16.8-36.7,23.2
		c-11.2,5.5-22.9,10.1-34.5,14.6c-5.8,2.2-12.1,3.1-18.2,4.9c-11.7,3.5-23.1,8.2-35,10.5c-16.2,3.2-32.8,4.7-49.2,7
		c-5.6,0.8-11,2.3-16.6,2.9c-18.6,2-37.5,2.7-56,5.7c-26,4.2-51.3-0.8-76.7-3.6c-16.8-1.8-33.5-4.6-50.1-7.4
		c-7.3-1.3-14.3-4.1-21.5-5.9c-9.1-2.2-18.2-4.5-27.5-5.9c-16.5-2.6-32.3-7.3-47.4-14.5c-3.9-1.8-8-3.2-11.9-5
		C327.7,491.8,314.9,485.9,301.6,479.8z M448.1,462.2c8.4,3.5,16.3,4,24.4,2.2c9.5-2.1,19-3.8,28.8-2.4c6.5,0.9,13,2.3,19.5,3
		c6.5,0.7,13.1,1.7,19.5,1.2c7.8-0.6,15.4-2.4,23.1-4c3.3-0.7,6.7-1.7,9.5-3.4c5.1-3,10.2-3.5,15.1-0.3c9.4,6.1,19.4,5.9,29.8,4
		c14.4-2.6,28.9-4.9,43.4-7.1c11.2-1.7,21.4-5.7,30.9-12.8c-3.2-2.7-5.6-1.4-8.2-0.4c-6.1,2.4-12.1,5.5-18.4,6.7
		c-18.4,3.4-36.9,6.4-55.5,8.9c-11.5,1.5-26.9-4.1-28.6-17.3c1-1.4,2.3-2.8,3.1-4.4c7.3-14,2.4-26.3-11.4-28.9
		c-6.6-1.2-10.6,1.1-11.2,7.8c-0.6,7.3-0.1,14.7-0.1,22.4c13-0.1,6.2,10.8,11.3,15.2c-1.9,1.1-2.9,2-4.1,2.3
		c-14.1,3.5-28.1,8.1-42.9,5.7c-4.9-0.8-9.8-2.3-14.7-2.7c-8.7-0.6-17.5-1.6-26.1-0.6c-11.1,1.2-21.7,6-33.2,3.5
		C450.9,460.4,449.4,461.7,448.1,462.2z M565.2,370.7c-1.8-4.8-2.7-10.2-5.5-14.4c-3.8-5.6-9-10.4-13.6-15.4
		c-6.8-7.5-15.9-9.9-25.4-10.4c-14-0.7-24,6.6-32.6,16.9c-5.4,6.4-9,13.3-6.9,21.4c2.5,9.8,7.1,18.8,16.3,24.4
		c5.9,3.6,11.7,7.3,18,10.2c3.2,1.5,7.3,1.7,10.9,1.3c4.6-0.6,9.2-2.1,13.6-3.6C554.7,395.7,565,384.6,565.2,370.7z M637.2,416
		c1.6,0,3.2,0.2,4.7,0c18-2.4,32.1-11.3,33-29.6c0.3-6.4-0.3-13.3-2.2-19.4c-4.9-16.6-22.7-26-39.2-21.3c-5.6,1.6-11,4.2-16.3,6.8
		c-17.2,8.5-19.9,23.6-14.5,40.5c2.6,8.1,9.8,11,15,16.2C623.3,414.6,629.7,416.6,637.2,416z M494.5,440.4
		c-7.8-6.2-8.9-6.1-10.4,1.9C487.9,443.8,491.4,444.1,494.5,440.4z M610.9,440.9c-1.6-4-3.5-6.8-7.7-4.7c-1,0.5-1.8,3.6-1.2,4.6
		C604.2,444.6,607.2,444.8,610.9,440.9z M537.9,443.7c0.7,0.3,1.4,0.7,2,1c2.1-2.2,4.3-4.4,7.8-8c-4.5-0.5-6.7-0.8-9.1-1
		C538.3,438.9,538.1,441.3,537.9,443.7z M512.4,440.5c2.3,3.2,5.2,4.2,8.7,2.3c0.6-0.3,0.9-2.5,0.4-3.1c-2.3-2.9-5.2-3.1-8.2-1.1
		C513.1,438.8,513.1,439.2,512.4,440.5z M629.3,440c-2.3-2.3-4.5-4.3-7.2-1.7c-0.7,0.7-0.5,3.7,0.4,4.5
		C625.3,445.7,627.3,443.7,629.3,440z M644.8,441.9c0.9-2.6,1.6-4.6,2.1-6.6c0-0.1-2.4-1.4-3-1C641.2,435.7,640.4,437.7,644.8,441.9
		z"/>
	<path fill-rule="evenodd" clip-rule="evenodd" fill="#8FB2C5" d="M475.4,836.9c0.8-17.8,8.5-34,14.2-50.3
		c4.8-13.7,9-28.7,20.6-39.4c2.6-2.4,3.6-6.4,5.8-10.5c-6.4-3.8-12.3-8.1-18.8-10.8c-3.3-1.4-8.3-1.3-11.6,0.1
		c-7.2,3.1-13.3,7.8-16.8,15.6c-1.8,4.2-5.5,7.6-8.2,11.4c-3.9,5.7-7.8,11.3-11.5,17.1c-4.7,7.4-9.3,14.8-13.9,22.3
		c-2.6,4.2-5.8,7.2-10.9,5.6c-9.1,21.6-18,42.7-27,64.1c-29.2,3.7-55.4-9.2-83.3-12.7c0.1-2,0.2-3.7,0.3-4.8
		c-29.5-8-58.8-16-88.7-24.1c-0.7-11.6,2.5-22.3,4-33.8c49.5,19.4,100.6,29.7,151.7,39.7c0.8,0.2,1.7-0.5,2.9-1
		c-0.6-5.9-6.2-5.4-9.3-5.9c-19.8-3.3-39.2-7.8-58.3-13.9c-8.3-2.6-17.1-3.5-25.6-5.6c-14.3-3.4-28.5-7.4-41.6-14.2
		c-1.9-1-4.1-1.3-6.2-2c-4.4-1.4-8.8-2.7-13.6-4.2c1.5-8.3,2.9-15.8,4.4-24.2c9.8,3,18.9,5.8,28.1,8.5c13.4,3.9,26.8,8.2,40.4,11.5
		c9.7,2.3,20,2.1,29.5,4.9c15.2,4.5,30.8,4.2,46.2,6.4c11.4,1.7,22.6,4.9,34,7.3c1.7,0.4,3.6,0.1,5.5,0.1c0.2-0.8,0.4-1.6,0.6-2.5
		c-1.9-1.1-3.7-2.8-5.8-3.2c-19-3.8-37.6-9.8-57.3-9.5c-3.7,0-7.5-0.7-11-2c-13-4.9-26.8-5.7-40.3-8.1c-5.2-0.9-10.4-2.4-15.5-3.9
		c-14.4-4.3-28.7-8.7-43-13.1c-3.2-1-6.5-2.1-10.2-3.3c0.9-10.8,1.8-21.2,2.9-32.9c5.6,2.6,9.9,4.3,13.9,6.5
		c13.2,7.1,27.9,9,42,13.2c5.3,1.6,10.5,3.9,15.8,5.5c8.9,2.8,18.1,4.9,26.8,8.1c21.9,7.9,44.7,11.9,67.2,17.4
		c6,1.5,12.3,2.2,18.5,3.1c2.7,0.4,5.8,0.8,6.6-4.3c-3.2-0.6-6.4-1.1-9.6-1.7c-10.8-2-21.7-3.6-32.3-6.1
		c-10.6-2.5-21.1-5.9-31.6-8.9c-10.2-3-20.4-6-30.5-9.1c-1.2-0.4-2.4-0.7-3.6-1.3c-16.5-7.5-34.5-10.2-51.6-16
		c-7.1-2.4-13.7-6.1-20.7-8.9c-2.4-1-5.3-1-8.8-1.6c1.7-19,8.1-38,15.3-57.6c8.4,2.9,16.9,5.1,24.7,8.6
		c21.4,9.6,44.4,14.8,66.1,23.7c30.3,12.4,62.8,16.7,93.7,26.9c8.4,2.8,18,1.9,27,3c12.7,1.6,25.4,3.4,38.1,5.1
		c0.6,0.1,1.3,0.5,1.7,0.3c11.2-5.7,23.1-0.7,34.6-2.5c16-2.6,32.2-4.4,48.4-6.2c6.5-0.7,13.3,0,19.7-1c16.7-2.7,33.3-5.9,49.8-9.3
		c11.4-2.3,22.7-4,34.5-3.5c6.3,0.3,13-1.7,19.1-3.8c14.2-4.9,28.3-10,42.1-15.7c19.7-8.1,39.1-16.8,58.6-25.4
		c11.2-4.9,22.4-9.8,33.4-14.9c2.8-1.3,5.5-3.1,7.9-5.1c2.5-2.1,1.8-4.3-0.8-6.3c-0.8,0.2-1.8,0.2-2.5,0.6
		c-7.3,4.2-14.2,9-21.8,12.6c-12.4,6-24.9,11.9-37.8,16.8c-21.9,8.3-42.6,19.8-65.5,25.6c-1.8,0.5-3.5,1.4-5.2,2.1
		c-11.3,4.8-22.4,9.2-35.3,7.6c-14-1.7-27,4.7-40.6,6.7c-13.3,2-26.6,3.8-39.9,5.5c-6.5,0.8-13.2,0.8-19.6,2.1
		c-13.2,2.7-26.5,3.4-39.9,4.6c-13.2,1.2-26.3-0.8-39.1,0.1c-19.2,1.4-37.7-2.8-56.6-2.8c-6,0-12-3.4-18-4.9
		c-20-5.1-40.1-9.9-60.1-15.2c-5.7-1.5-11-4.4-16.6-6.3c-16.2-5.7-32.5-11.1-48.7-16.8c-7.3-2.6-14.4-5.9-21.7-8.8
		c-8.6-3.5-17.3-6.9-27.3-10.8c2-7.4,4.1-15.6,6.4-24.2c3.3,0.8,6.2,1,8.5,2.2c21.2,11.1,45,14.7,67.2,23.1
		c16.9,6.4,34.4,11.1,51.4,17c17.1,5.9,33.8,12.8,50.9,18.6c13.6,4.6,28.1,6.7,42.3,6.2c8.4-0.3,17-0.6,25.4-1.8
		c13-1.9,26.1-1,39.2-1.3c11.8-0.2,23.6-1.8,35.4-3.1c38-4.2,76.1-7.2,113.7-14.6c16.8-3.3,34.2-6,50-12.4
		c27.2-11.1,54.8-21.6,79.6-37.8c7.8-5.1,16.5-8.9,25.8-13.9c4.1,19.1,7.9,37.3,11.8,55.5c-23.2,15.2-47.7,26.6-73.5,35.6
		c-14.2,5-28.2,10.5-42.3,15.4c-4.7,1.6-9.6,2.7-14.5,3.5c-13.3,2.1-26.7,3.8-40,6c-3.1,0.5-6.2,1.9-9.9,3.1c1.5,1.8,2.2,3,2.7,3
		c22.8-1.7,45.5-3.9,67.4-10.5c17.3-5.2,33.9-13,50.9-19.3c18.3-6.7,35.5-15.3,51.7-26.1c2.4-1.6,5.3-2.3,8.7-3.8
		c3.4,15.7,6.5,30,9.6,44.3c-53.1,21.4-108.5,30.9-166.3,40.3c3.7,1.3,5.5,2.5,7.2,2.4c10.6-0.7,21.2-1.3,31.7-2.8
		c11.7-1.6,23.4-4,35-6.3c6.1-1.2,12.1-3.3,18.2-4.6c21.8-4.6,43.1-10.8,64.1-17.9c2.9-1,6-1.5,10.1-2.6c0.8,3.7,1.8,6.8,2.2,10.1
		c1.7,15.3,3.2,30.5,4.7,45.8c0.1,1.2,0.6,2.4,1,4.3c-9.4,3.2-18.6,6.8-28.1,9.4c-16.2,4.6-32.5,9-48.9,12.7
		c-10,2.3-20.4,3-30.6,4.6c-4.7,0.7-9.6,1.3-13.6,5.2c15.1,5.7,93.7-12.1,121.8-27.2c3.1,9.9,5.4,50.6,3.7,62.6
		c-21-7.6-42.6-11.5-65.1-11.1c-12.8,0.2-25.6-0.2-38.4,0.5c-9.6,0.5-19.2,1.9-28.6,3.9c-6.4,1.3-11.1-0.2-15-4.9
		c-3.4-4.1-6.4-8.5-9.6-12.6c-3.2-4.1-6.2-8.2-9.6-12.1c-16.7-19-31.5-39.8-50-57.2c-0.9-0.9-1.9-1.8-2.4-2.8
		c-5.2-10.7-14.1-15.2-25.6-16.5c-4-0.4-8.3-1-10,2.6c-1.1,2.5,0,6.8,1.5,9.5c7.4,13.8,17.7,25.5,27.9,37.2c1,1.2,2.5,2.2,3.1,3.5
		c5.9,14.8,11.8,29.6,17.3,44.6c1.9,5.2,2.5,10.8,3.8,16.3c-18.6,3.3-37.5,6.9-56.4,9.9c-11.4,1.8-22.9,2.4-34.3,4
		c-6.2,0.8-12.3,2.4-18.3,4c-17.6,4.5-35.6,2.5-53.4,3.7c-9.3,0.6-18.7,1.3-28.1,1.2c-7.8-0.1-15.5-1.2-23.4-1.9
		C471.1,857.6,473.7,847.3,475.4,836.9c2.6,0.1,5.3,0.4,7.9,0.4c7.5,0.1,15.3-1.3,22.3,0.6c8.6,2.3,17,3.6,25.8,3.4
		c15.9-0.4,31.9-0.5,47.8-1.5c12.2-0.7,24.2-2.5,36.4-3.8c15.6-1.6,31.1-3.2,46.7-4.9c1.9-0.2,3.7-1.2,5.5-1.9
		c-1.8-2.5-3.7-3.7-5.4-3.6c-18.7,1.4-37.5,2.3-56.1,4.9c-26.7,3.7-53.3,4.9-80.2,4c-5.6-0.2-10.7-1.2-16.1-2.4
		C498,829.5,485.9,828,475.4,836.9z M248.3,681.8c16.4,8.1,31.8,17.5,48.4,23.7c43.7,16.3,88.6,28.2,135,33.7
		c2.9,0.3,5.8,0.5,8.7,0.7c-0.4-2.5-1.2-3.6-2.2-3.8c-4.9-1.1-9.8-2.1-14.7-2.9c-22.2-4-44.3-7.8-65.9-14.7
		c-11.6-3.7-23.2-7.8-35-10.8c-11.3-2.9-21.8-7.3-32-12.9c-10.9-6-22.4-10.9-33.6-16.5C252.9,676.1,250.9,678.1,248.3,681.8z
		 M876.6,747.5c-8.8,5.3-18.4,7.7-28.4,8.5c-1.9,0.2-3.9,0.3-5.5,1c-16.3,7.6-35.1,4.8-51.3,12.6c-0.3,0.1-0.6,0-0.9,0
		c-18.8,3-37.6,6-56.4,9c-1.3,0.2-2.5,1.3-3.8,2.1c1.8,5.2,5.5,4.1,8.7,3.7c7.4-1,14.9-2.2,22.3-3.4c8-1.3,16-2.4,23.9-4
		c11.6-2.4,23.1-5.1,34.7-7.6c3.7-0.8,7.3-1.6,11-2.5c7-1.6,14-3.2,20.9-4.9c7.6-1.9,15.2-3.8,22.6-6.1
		C878.7,754.7,880.7,752,876.6,747.5z M652.2,796c-1.4-4.6-4.5-3.2-7.1-2.9c-24.6,2.6-49.3,3.1-74.1,2.4
		c-13.4-0.4-26.9,0.6-40.3,0.7c-7.4,0.1-14.9-0.3-22.4-0.4c-2.5,0-5-0.2-7.4,0.2c-0.8,0.1-1.6,1.8-1.8,2.9c-0.1,0.6,0.7,1.9,1.4,2.2
		c1.4,0.6,3,0.6,4.5,1c16.4,4.6,32.9-0.6,49.5,0.4c19.6,1.1,39.4-1,59.1-1.1C626.9,801.3,639.7,800.2,652.2,796z M509.8,770.9
		c39.6,1.2,78.6,3,117.4-2.5c-0.9-6.1-1.1-6.4-7.2-5.8c-8.4,0.8-16.8,2.4-25.2,2.6c-22.3,0.5-44.5,0.5-66.8,0.7
		c-4.4,0-8.8-0.2-13.1-0.6C511,764.8,509.8,766.5,509.8,770.9z M530.6,739.6c3.5,1.6,5.4,3.2,7.4,3.3c9,0.8,18,1.7,27.1,1.7
		c13.8-0.1,27.6-1,42.9-1.6c-1.5-1.9-2.5-4.2-3.7-4.4c-4.9-0.6-10-1-14.9-0.7c-12.1,0.7-24,2.3-36.2-0.1c-5.8-1.1-11.8-1.2-17.8-1.4
		C534.3,736.5,533.1,738,530.6,739.6z"/>
	<path fill-rule="evenodd" clip-rule="evenodd" fill="#8FB2C5" d="M831.9,512.5c4.2,18.3,8,35.3,12,52.4
		c-11.7,9.6-25.4,15.6-39.1,21.8c-13.1,5.9-25.8,12.5-38.6,19.1c-9.8,5.1-19.9,8.6-31,9.7c-6.8,0.7-13.7,2.2-20.1,4.6
		c-22.7,8.7-46.2,13.4-70.4,14.9c-5,0.3-10,1.4-14.7,3c-12.1,4.1-24.5,5.2-37.1,5.3c-6.2,0.1-12.3,1.3-18.5,1.6
		c-11.6,0.5-23.2,1.5-34.7,0.9c-17.7-0.9-35.3-2.5-53,0.6c-5.3,0.9-11.1-0.5-16.6-1.5c-11.7-2.1-23.4-4.3-34.9-7.2
		c-11.7-3-23.2-6.8-34.7-10.5c-12.1-3.9-24.2-8.1-36.3-12.3c-4.7-1.6-9.1-3.9-13.8-5.5c-7.9-2.8-15.6-6.3-24.4-6.2
		c-3.4,0.1-6.8-2.9-10.4-4.1c-12.7-4.4-25.5-8.8-38.2-13c-1.1-0.4-2.4,0.3-4.7,0.6c8.7-33.8,17.3-67.2,26.3-101.9
		c5.2,3.2,9.8,6.1,14.4,9c10.4,6.5,22.4,9.3,33.2,14.5c16.1,7.6,32.8,11.6,49.8,15.5c12.5,2.8,24.8,6.8,37.3,9.2
		c17.5,3.4,35.2,6,52.9,8.5c17.7,2.5,35.5,4.3,53.2,6.3c3.7,0.4,7.5,0.8,11.3,0.4c18.7-1.6,37.3-3.7,56-5.1
		c16.2-1.2,32.2-4,48.3-6.5c10.5-1.7,21.2-1.7,31.7-3.5c10.1-1.8,20.1-4.6,30.1-7.4c10.2-2.8,20.5-5.6,30.4-9.4
		c14.9-5.8,29.5-12.3,44-18.8c8.3-3.7,16.3-8,24.2-12.4c2.8-1.5,5.2-4,8.2-6.4c5,8,5.8,17.8,6.6,28.1c-13.2,7.8-26.3,16.2-40,23.6
		c-19.8,10.6-39,22.5-62.2,25.2c-11.4,1.3-22.3,5.9-33.6,8.6c-6.3,1.5-12.9,2.9-19.3,3c-19.4,0.4-38.7,1-58,4.4
		c-12.2,2.1-24.9,1.8-37.4,2.1c-21.6,0.5-43.2,0.2-64.8,0.8c-13.3,0.4-26.1-2.9-39.1-4.6c-10.2-1.4-20.6-2.1-30.7-4
		c-8.8-1.7-17.5-4.6-26.2-7c-1.2-0.3-2.3-1.7-3.4-1.6c-8.9,0.6-16.4-2.8-24.3-6.4c-7.9-3.6-16.7-5-24.8-8
		c-13.2-4.8-26.1-10.6-39.4-14.9c-9.8-3.2-19.8-5.4-28.2-11.9c-1.1-0.9-4.1,0.6-6.9,1.2c4.1,9.4,12,11.8,19,13.8
		c20.4,5.9,40.2,13,59.6,21.4c4.9,2.1,10.1,3.3,15.3,4.8c16.5,4.8,33,9.6,49.6,14.1c3.6,1,7.4,1.5,11.1,1.5
		c11.6,0.1,22.9,1.5,34.3,4c12.7,2.8,25.7,4.1,39,3c14-1.1,28.2,0.3,42.4,0.1c14.4-0.2,28.8-0.8,43.2-1.8c9.6-0.6,19.2-2.6,28.8-3.3
		c11.8-0.8,23.8-1.5,35.6-1c12.9,0.6,24.7-3.8,36.9-6.5c8.2-1.8,16.3-4.5,24.5-6.2c22.5-4.5,42.4-14.7,61.9-26.2
		C805.8,527.3,818.7,520.1,831.9,512.5z M830.9,539.6c-7.1,4.5-13.6,9.5-20.9,13.1c-18.2,9.1-37.3,16-57.2,20.7
		c-8.4,2-16.7,5.4-24.5,9.1c-9.9,4.8-20,8.8-30.8,10.8c-13.5,2.5-27.1,4.3-40.5,7.1c-25.4,5.3-51.4,5.3-77.1,7.9
		c-15.5,1.6-31.1,2-46.6,3c-5.3,0.3-10.7,1.8-15.9,1.2c-19.9-2.2-39.7-4.5-59.4-7.6c-12.6-2-24.9-6-37.5-8.3
		c-22.6-4.1-44.6-9.3-65.7-18.8c-14.8-6.6-30.8-10.4-46.3-15.5c-5.3-1.8-10.6-3.8-15.9-5.7c-3.2-1.2-5.8-0.4-6.6,3
		c-0.7,3.1,1.4,4,4.2,4.9c9.6,2.8,19,6.2,28.6,9.2c8,2.5,16.3,4.5,24.2,7.3c11.6,4.1,22.8,9.7,34.7,13.1
		c17.1,4.9,34.6,8.4,51.9,12.3c9.5,2.1,19,4.3,28.6,5.7c14.5,2.1,29.1,3.6,43.7,5.2c6.2,0.7,12.5,1.5,18.7,1.3
		c11.2-0.5,22.4-1.9,33.7-2.6c20.6-1.3,41.2-2.2,61.8-3.9c11.5-0.9,22.9-2.9,34.3-5c12-2.1,23.8-6,35.8-6.9
		c12.5-1,24.1-3.9,35.4-8.6c4.6-1.9,9-4.6,13.7-6.2c14.1-4.8,28.4-9.3,42.6-13.8c19-5.9,36.4-15,53-25.8
		C834,544,834.4,542.5,830.9,539.6z"/>
	<path fill-rule="evenodd" clip-rule="evenodd" fill="#AD7C49" d="M392.3,877.8c1.7,16.3,3.4,30.5,4.7,44.8
		c1.7,17.4,2.3,35,4.9,52.3c2,13.2,6.1,26.1,9.8,39.1c3.8,13.5,9.2,26.6,8.9,41c0,1.2-0.2,2.4-0.4,4c-8.8,0.6-16.1-3.1-23.7-5.5
		c-5.1-1.6-10.1-3.2-15-5.4c-7.4-3.3-14.8-6.6-21.8-10.6c-11.7-6.6-23.7-12.7-33.5-22.3c-6.4-6.2-9.3-5.8-13.9,1.9
		c-9.8,16.4-24.6,27.4-39.5,38.3c-7.1,5.2-15.2,7.1-23.8,7.6c-5.3,0.3-10.8-0.4-15.9,0.9c-9.6,2.3-17.2-1.1-24.1-6.9
		c-8.3-7-16.5-14.2-24.6-21.4c-6.2-5.5-10.1-12.5-13.2-20.3c-3.9-9.6-8.5-18.8-12.8-28.2c-1.2-2.6-2.9-5.2-3.1-7.8
		c-1.2-16.5-6.8-32.4-5.3-49.3c1.2-13.2,6.8-24.7,11.6-36.5c6.5-16.1,17.7-26,35-31.1c10.3-3,20.1-8.3,30.9-10.5
		c17-3.5,34.1-4.5,51.3-1.4c13.3,2.3,26.8,3.2,40,6.2c18.3,4.1,36.3,9.5,54.4,14.6C380.1,873.2,387,876,392.3,877.8z"/>
	<path fill-rule="evenodd" clip-rule="evenodd" fill="#AD7C49" d="M700.6,867.3c1.9,5.4,4.8,11.5,6.3,18c4.1,17.4,6.8,35,4.5,53
		c-0.5,3.9,0.9,8.1,0.9,12.1c0.1,21-3.2,41.6-5.9,62.3c-2,15.7-6.5,30.5-12.1,45.1c-1.2,3.2-2.6,6.3-4.1,9.7
		c-21.1-1.6-41.9-2-59.5-14.8c-10.1-7.4-19.7-15.5-29.3-23.5c-7-5.9-7.7-5.9-15.5-1.8c-12.4,6.6-24.5,14.2-37.7,18.9
		c-15.8,5.7-32.5,8.9-48.9,13c-1.7,0.4-3.7-0.3-5.5-0.6c-2.3-0.3-4.7-0.6-8-1c-3.4-13.2-7.9-27.3-10.4-41.7
		c-3.4-19-4.7-38.4-7.8-57.5c-3.2-19.4-0.2-38.6,0.3-57.9c0.1-4.3,1.6-8.5,2.6-13.7c10.7-0.7,21.2-1.3,31.7-2.1
		c5.3-0.4,10.5-1.2,15.7-1.9c11.4-1.5,22.9-3,34.3-4.5c16.1-2.1,32.4-1.8,48.5-6c15.3-4,31.2-6.3,46.9-8.1
		C664.9,862.2,682.4,860.9,700.6,867.3z"/>
	<path fill-rule="evenodd" clip-rule="evenodd" fill="#AD7C49" d="M764,1068.5c0-5.3-0.3-9.3,0.1-13.2c1.2-13.1,2.4-26.1,3.9-39.1
		c2.2-19.1,2.8-38.4,7.6-57.2c2.7-10.7-0.7-21.1-1.7-31.7c-1.7-18.8-8.6-36.4-12.9-54.7c-0.7-3-2.4-5.8-3.3-8.8
		c-0.9-2.9-1.3-5.9-2.1-9.3c12.9-4.7,25.4-7.4,38-9.2c8.4-1.2,16.9-2.2,25.3-1.9c13.1,0.5,26.2,1.8,39.2,3.4
		c20.6,2.5,38.7,11.8,56.4,21.9c4,2.3,7,6.2,10.4,9.5c11.5,11.1,23.3,22,31.2,36.2c2.9,5.2,5.6,10.4,7.8,15.9
		c3.6,9,6.7,18.2,9.9,27.4c0.7,2,1.2,4.3,1.1,6.5c-0.9,13-2,26-3.2,39c-0.5,5.6-1.8,11.1-1.8,16.7c0,16.7-4.5,32.2-12.2,46.8
		c-4.8,9.1-7.3,9.6-17.8,8.6c-13.4-1.3-25.9-4.7-37.3-11.8c-4.8-3-9.2-6.5-13.6-10c-11.3-9-23.3-17-32.4-28.5c-5-6.3-8.7-6.3-13.8,0
		c-10.4,12.8-25.6,18.9-38.4,28.2c-6.7,4.9-14.6,8.3-22.4,11.4C776.7,1066.7,771,1067.1,764,1068.5z"/>
	<path fill-rule="evenodd" clip-rule="evenodd" fill="#C1D7E1" d="M915.6,859.1c-1.8,0.2-2.1,0.4-2.4,0.3
		c-10.1-2.5-16.8-7.8-16.6-19.2c0.1-4.1-0.5-8.1-0.5-12.2c0-13.2-0.2-26.1-3.3-39.2c-3.4-14.8-4.1-30.3-5.8-45.6
		c-2.1-18.6-4.9-37-9.1-55.3c-5.1-22.9-9.2-45.9-13.6-69c-0.4-2.2,0.3-4.8,0.9-7.1c2.9-9.6,5.9-19.1,9-28.6
		c7.9-24.3,18.5-47.3,35.9-66.4c3.7-4,8.4-7.2,12.8-10.5c10.4-7.9,22.3-13.2,34.6-17.2c0.9-0.3,1.8-0.8,2.7-0.8
		c16-0.8,31.9-5.9,48-3c7.5,1.4,14.7,5.1,21.9,8.1c9.7,4.2,19.5,8.3,26.9,16.5c2.4,2.6,6.1,4,9.4,5.8c11.4,6.4,16.4,17.8,21.6,28.6
		c6.2,12.9,11.9,26.2,16.5,39.8c3.7,10.9,7.1,22.4,7.5,33.8c0.6,18.2-3,35.9-10.9,52.8c-8.1,17.2-20.3,30.6-35,42.1
		c-7,5.5-15.6,6.3-23.9,7.9c-3.7,0.7-7.4,1.3-11,1.9c-26.6,5-51,1.3-71.6-17.7c-4.8-4.4-10-8.7-13.5-14c-7.5-11.6-7.2-24.3-2.3-37
		c0.8-2,2.1-4,2.5-6.1c2.1-9.5,15.4-18,26.7-16.4c8,1.1,12,6,9.5,13.6c-1.3,4,0.3,6.6,1.5,9.6c6,15.3,23.8,29.1,39,28
		c10.9-0.8,21.8-4.5,29.1-13.5c11.6-14.1,17.3-31.2,16.3-48.8c-1-16.5-7-32.4-19.1-45.1c-3.9-4.1-7.2-8.9-11.5-12.4
		c-9.8-8-19-17.1-32.1-19.7c-0.6-0.1-1.2-0.6-1.8-0.5c-15.5,1.3-31.3-1.4-46.3,4.8c-7.1,2.9-13,7.3-18.5,12.5
		c-9.7,9.2-17.5,19.4-22.9,31.8c-10.5,24.3-13.6,49.9-14.6,76c-0.4,10.9-2.2,21.9-1.4,32.7c1.8,23.4-1.2,47,4.1,70.2
		c0.6,2.4,0.5,5,0.6,7.5c0.5,18.2,3.2,35.9,7.5,53.6C914.5,840.4,914.6,849.6,915.6,859.1z"/>
	<path fill-rule="evenodd" clip-rule="evenodd" fill="#8FB2C5" d="M266,614.3c2-8.1,3.9-15.9,5.9-23.8c12.7,7.7,26.7,10.7,40.1,15
		c20.4,6.6,41.1,12.5,61.1,20.3c9.9,3.8,20.9,5.1,30.2,9.7c15,7.4,31.3,8.6,46.9,12.7c3,0.8,6.3,1,9.1,2.2
		c7.8,3.3,15.8,3.6,23.9,2.4c20.3-2.8,40.4-1.2,60.7,0.5c11.1,0.9,22.4-1.3,33.6-2.2c3.4-0.3,6.9-1,10.3-1
		c13.9,0.2,27.4-1.9,40.9-5.1c12.4-3,25.2-4.9,37.9-6.1c14.2-1.3,27.5-5.6,41-9.6c15.2-4.6,30.7-8,46.1-12.3
		c4.8-1.3,9.7-2.9,13.9-5.4c17.4-10.7,36.5-17.9,54.8-26.5c7.8-3.7,15-8.7,23.5-13.7c1.9,8.9,3.7,17.2,5.8,26.9
		c-1.6,1.2-3.4,3.1-5.5,4.2c-19.1,10-38.1,20.2-57.4,29.7c-13.2,6.5-26.6,12.6-40.5,17.5c-13,4.5-26.5,7.7-39.9,10.5
		c-19.9,4.1-39.9,7.5-60,10.8c-7,1.2-14.3,1.1-21.4,1.9c-25.1,2.7-50.2,5.5-75.4,8.2c-1.9,0.2-3.9,0.5-5.6,0
		c-14.5-3.8-28.7,0.2-43,1.1c-3.7,0.2-7.4-0.4-11.1-0.7c-5.7-0.4-11.5-3.3-17,1.5c-1.4,1.2-4.8,0.2-7.2-0.1
		c-22-2.8-42.4-10.7-62.9-18.5c-8.4-3.2-17.1-5.4-25.6-8.4c-7.1-2.4-14.1-5-21-7.9c-20.4-8.9-41.9-14.7-62.9-21.7
		C285.7,623,276.4,618.5,266,614.3z"/>
	<path fill-rule="evenodd" clip-rule="evenodd" fill="#EDC290" d="M515.8,1157.7c-7.1-8.9-13.2-16.7-19.4-24.5
		c-3.1-3.9-6.2-7.8-9.6-11.4c-15.1-16.3-31.4-31.5-40.4-52.5c-1.2-2.8-3.5-5.2-5.1-7.9c-2.1-3.5-4.3-6.9-6-10.5
		c-3.4-7.7-5.8-15.9-9.8-23.2c-7.6-13.9-11.3-28.9-15.1-44c-1.8-7.2-1.8-14.9-2.5-22.3c-1.3-13.3-3.2-26.7-3.8-40
		c-0.4-8.1,1.1-16.2,1.8-24.3c0.4-5.3,1.3-10.6,1.2-15.9c-0.1-9.6,2.6-18.5,6.2-27.3c3.3-8.1,5.7-16.6,9.3-24.5
		c4.3-9.4,9-18.6,14.3-27.4c8.4-13.9,17.1-27.6,26.3-41c6.5-9.5,13.9-18.4,21.2-27.5c3.9-4.8,5.8-4.6,12.9-1.4
		c5,2.2,4.1,5.7,2.7,9.3c-2.5,6.3-4.7,13-8.2,18.8c-5.7,9.5-10.9,19-14,29.7c-1.7,5.7-3.8,11.4-6.8,16.4c-4.8,8-6.4,16.8-8.2,25.7
		c-2.5,12-2.5,24.7-8.2,36c3.5,7.8,0,15.8,0.5,23.7c0.5,7.7,1.1,15.5,1.5,23.2c0.6,10,1,19.9,1.6,29.9c0.3,4.4,0.9,8.7,1.3,13
		c0.8,9.3,1.7,18.6,2.4,27.9c1.9,23,4.7,45.8,13.1,67.7c6.8,17.8,14.2,35.3,22,52.7c5.4,12.1,10.8,23.7,19.1,34
		C519.9,1144.7,519.5,1147.1,515.8,1157.7z"/>
	<path fill-rule="evenodd" clip-rule="evenodd" fill="#EDC290" d="M648.3,747.8c2.1-1.9,4.1-3.8,6.3-5.8
		c10.5,15.6,24.6,27.4,36.2,41.4c7.8,9.3,13.5,20.3,20.4,30.4c4.9,7.2,10.7,14,15,21.5c6.1,10.4,11.5,21.2,16.7,32.1
		c5.5,11.5,11.2,23.1,15.3,35.1c3.6,10.6,5.5,21.8,7.3,32.8c1.2,7.4,1,15,1,22.5c0,4.9-0.7,9.9-1.1,14.8
		c-1.1,12.5-2.1,24.9-3.3,37.4c-0.4,3.7-1.1,7.4-1.7,11.1c-2.5,13.5-5,27-7.6,40.5c-2.5,12.7-7.2,24.4-15,34.9
		c-5,6.8-9.6,14-14.2,21.1c-7.2,11.1-16.7,19.3-28.5,25.2c-8.4,4.2-16.4,9.1-24.7,13.5c-1.6,0.9-3.9,0.6-5.9,0.8
		c-0.1-2-0.9-4.4-0.1-6c2.8-5.2,6.6-9.8,9.3-15c3.5-6.6,5.5-14.1,9.5-20.3c8.4-12.8,10.9-27.8,17-41.4c4.3-9.7,7-20.1,10.4-30.1
		c6.2-18.1,10.3-36.7,12.8-55.7c0.6-4.3-0.4-8.7-0.1-13.1c0.5-7.2,1.9-14.3,2.1-21.5c0.2-7.8-0.3-15.7-1.1-23.4
		c-1.8-15.5-3.9-31-6.1-46.5c-0.5-3.3-2.4-6.4-3.2-9.7c-0.9-3.8-1.4-7.8-2-11.7c-0.5-3.1-0.5-6.3-1.6-9.2c-3.1-8.5-6.7-16.7-10-25.1
		c-4.7-12.1-11.2-22.9-18.9-33.3C671,779.9,660.1,764.3,648.3,747.8z"/>
	<path fill-rule="evenodd" clip-rule="evenodd" fill="#8FB2C5" d="M223,826.9c16.5,4.3,31.5,8.3,46.6,12.2c-0.1,0.4-0.2,0.9-0.4,1.3
		c-15.8,1.4-31.7,2.8-48.7,4.3C221.3,839.3,222,833.9,223,826.9z"/>
	<path fill-rule="evenodd" clip-rule="evenodd" d="M448.1,462.2c1.3-0.6,2.7-1.8,3.9-1.5c11.5,2.6,22.2-2.2,33.2-3.5
		c8.6-0.9,17.4,0,26.1,0.6c5,0.4,9.8,1.9,14.7,2.7c14.9,2.4,28.8-2.2,42.9-5.7c1.1-0.3,2.1-1.2,4.1-2.3c-5.1-4.4,1.7-15.3-11.3-15.2
		c0-7.7-0.5-15.1,0.1-22.4c0.6-6.6,4.6-9,11.2-7.8c13.8,2.6,18.7,14.9,11.4,28.9c-0.8,1.6-2.1,3-3.1,4.4
		c1.7,13.2,17.1,18.8,28.6,17.3c18.6-2.5,37.1-5.4,55.5-8.9c6.3-1.2,12.3-4.3,18.4-6.7c2.6-1,5-2.3,8.2,0.4
		c-9.5,7.1-19.7,11.1-30.9,12.8c-14.5,2.3-29,4.5-43.4,7.1c-10.5,1.9-20.4,2.1-29.8-4c-4.9-3.2-9.9-2.7-15.1,0.3
		c-2.8,1.7-6.2,2.7-9.5,3.4c-7.6,1.6-15.3,3.4-23.1,4c-6.5,0.5-13.1-0.5-19.5-1.2c-6.5-0.7-13-2.1-19.5-3
		c-9.8-1.4-19.4,0.4-28.8,2.4C464.4,466.2,456.6,465.7,448.1,462.2z M569.5,412.3c-4.7,15.1-1.1,21.2,10.6,18.8c0-5,0-10.2,0-15.8
		C576.5,414.3,573.3,413.4,569.5,412.3z"/>
	<path fill-rule="evenodd" clip-rule="evenodd" d="M565.2,370.7c-0.2,13.9-10.6,25-25.4,30.3c-4.4,1.6-9,3.1-13.6,3.6
		c-3.6,0.4-7.7,0.2-10.9-1.3c-6.3-2.8-12.1-6.6-18-10.2c-9.2-5.5-13.8-14.5-16.3-24.4c-2.1-8.1,1.5-15,6.9-21.4
		c8.7-10.3,18.6-17.7,32.6-16.9c9.6,0.5,18.6,3,25.4,10.4c4.6,5.1,9.8,9.8,13.6,15.4C562.5,360.5,563.4,365.9,565.2,370.7z
		 M556.1,365.6c-16.7-6.7-31.1-17-48.6-18.5c0-3,0-5.2,0-8.4c-8.6,4.3-12.8,11.4-17.8,17.6c-4,4.9-3.8,10.2-1.6,15.9
		c3.7,10,11.1,15.9,20.1,21c7.3,4.1,13.6,10.3,22.4,3.6c0.8-0.6,2.5,0,3.7-0.1C549.6,394.4,558.9,381.2,556.1,365.6z"/>
	<path fill-rule="evenodd" clip-rule="evenodd" d="M637.2,416c-7.5,0.6-14-1.4-19.5-6.9c-5.2-5.2-12.4-8.1-15-16.2
		c-5.4-16.9-2.6-32,14.5-40.5c5.3-2.6,10.6-5.2,16.3-6.8c16.6-4.7,34.3,4.8,39.2,21.3c1.8,6.2,2.5,13,2.2,19.4
		c-0.9,18.3-15,27.3-33,29.6C640.4,416.2,638.8,416,637.2,416z M664.4,365.5c-3.4-0.5-5.9-0.5-8.2-1.2c-2.3-0.7-4.4-2.5-6.7-3.2
		c-4.5-1.2-9-2.3-13.6-2.5c-4.4-0.2-9,2.8-13.4-0.8c-0.6-0.5-2.4,0.1-3.5,0.6c-7.6,3.4-14.1,16-12.8,24.3
		c2.5,15.5,17.5,28,33.1,27.7c9.4-0.2,25.9-7.3,27.9-19.8C668.6,382.2,668.2,373.8,664.4,365.5z"/>
	<path fill-rule="evenodd" clip-rule="evenodd" d="M494.5,440.4c-3,3.7-6.5,3.4-10.4,1.9C485.6,434.3,486.7,434.2,494.5,440.4z"/>
	<path fill-rule="evenodd" clip-rule="evenodd" d="M610.9,440.9c-3.7,3.9-6.7,3.7-8.9-0.1c-0.6-1,0.2-4.1,1.2-4.6
		C607.4,434.1,609.3,436.9,610.9,440.9z"/>
	<path fill-rule="evenodd" clip-rule="evenodd" d="M537.9,443.7c0.2-2.4,0.4-4.9,0.7-8c2.4,0.3,4.6,0.5,9.1,1
		c-3.5,3.6-5.6,5.8-7.8,8C539.2,444.4,538.5,444.1,537.9,443.7z"/>
	<path fill-rule="evenodd" clip-rule="evenodd" d="M512.4,440.5c0.6-1.4,0.7-1.8,0.9-1.9c3-2,5.9-1.8,8.2,1.1
		c0.5,0.6,0.2,2.8-0.4,3.1C517.7,444.7,514.8,443.8,512.4,440.5z"/>
	<path fill-rule="evenodd" clip-rule="evenodd" d="M629.3,440c-2,3.7-4,5.6-6.8,2.9c-0.9-0.8-1.1-3.8-0.4-4.5
		C624.8,435.7,626.9,437.8,629.3,440z"/>
	<path fill-rule="evenodd" clip-rule="evenodd" d="M644.8,441.9c-4.4-4.1-3.7-6.2-1-7.6c0.7-0.4,3.1,0.9,3,1
		C646.5,437.3,645.7,439.2,644.8,441.9z"/>
	<path fill-rule="evenodd" clip-rule="evenodd" d="M248.3,681.8c2.6-3.8,4.6-5.7,8.8-3.6c11.1,5.6,22.6,10.5,33.6,16.5
		c10.2,5.6,20.7,10,32,12.9c11.8,3.1,23.4,7.1,35,10.8c21.5,6.9,43.7,10.7,65.9,14.7c4.9,0.9,9.8,1.8,14.7,2.9
		c1,0.2,1.7,1.3,2.2,3.8c-2.9-0.2-5.8-0.3-8.7-0.7c-46.4-5.5-91.4-17.4-135-33.7C280.1,699.3,264.7,690,248.3,681.8z"/>
	<path fill-rule="evenodd" clip-rule="evenodd" d="M475.4,836.9c10.5-8.8,22.7-7.3,34.5-4.6c5.4,1.2,10.5,2.2,16.1,2.4
		c26.9,0.9,53.5-0.3,80.2-4c18.6-2.6,37.4-3.4,56.1-4.9c1.8-0.1,3.6,1.1,5.4,3.6c-1.8,0.6-3.6,1.6-5.5,1.9
		c-15.6,1.7-31.1,3.3-46.7,4.9c-12.1,1.3-24.2,3.1-36.4,3.8c-15.9,0.9-31.9,1-47.8,1.5c-8.8,0.2-17.2-1.1-25.8-3.4
		c-7-1.9-14.8-0.5-22.3-0.6C480.6,837.3,478,837,475.4,836.9C475.4,836.9,475.4,836.9,475.4,836.9z"/>
	<path fill-rule="evenodd" clip-rule="evenodd" d="M876.6,747.5c4,4.5,2.1,7.2-2.3,8.5c-7.5,2.3-15.1,4.2-22.6,6.1
		c-6.9,1.7-13.9,3.3-20.9,4.9c-3.6,0.8-7.3,1.7-11,2.5c-11.6,2.6-23.1,5.3-34.7,7.6c-7.9,1.6-15.9,2.8-23.9,4
		c-7.4,1.2-14.8,2.4-22.3,3.4c-3.2,0.4-6.9,1.5-8.7-3.7c1.3-0.7,2.5-1.8,3.8-2.1c18.8-3.1,37.6-6.1,56.4-9c0.3,0,0.7,0.1,0.9,0
		c16.2-7.8,35.1-5,51.3-12.6c1.6-0.8,3.7-0.9,5.5-1C858.3,755.1,867.8,752.8,876.6,747.5z"/>
	<path fill-rule="evenodd" clip-rule="evenodd" d="M652.2,796c-12.6,4.2-25.3,5.2-38.5,5.3c-19.7,0-39.5,2.2-59.1,1.1
		c-16.6-0.9-33.1,4.3-49.5-0.4c-1.5-0.4-3.1-0.4-4.5-1c-0.7-0.3-1.6-1.5-1.4-2.2c0.2-1.1,1-2.7,1.8-2.9c2.4-0.4,4.9-0.2,7.4-0.2
		c7.5,0.1,14.9,0.5,22.4,0.4c13.4-0.1,26.9-1.1,40.3-0.7c24.8,0.7,49.4,0.3,74.1-2.4C647.7,792.8,650.8,791.4,652.2,796z"/>
	<path fill-rule="evenodd" clip-rule="evenodd" d="M509.8,770.9c0-4.3,1.3-6,5.1-5.6c4.3,0.5,8.7,0.6,13.1,0.6
		c22.3-0.1,44.6-0.1,66.8-0.7c8.4-0.2,16.8-1.9,25.2-2.6c6.1-0.6,6.3-0.3,7.2,5.8C588.4,773.8,549.4,772,509.8,770.9z"/>
	<path fill-rule="evenodd" clip-rule="evenodd" d="M530.6,739.6c2.4-1.6,3.6-3.2,4.8-3.1c5.9,0.2,12,0.3,17.8,1.4
		c12.1,2.4,24.1,0.8,36.2,0.1c4.9-0.3,10,0.1,14.9,0.7c1.2,0.2,2.2,2.5,3.7,4.4c-15.3,0.6-29.1,1.5-42.9,1.6
		c-9,0.1-18.1-0.9-27.1-1.7C536,742.8,534.1,741.3,530.6,739.6z"/>
	<path fill-rule="evenodd" clip-rule="evenodd" d="M830.9,539.6c3.5,2.9,3.1,4.4,0.2,6.3c-16.6,10.8-34,19.9-53,25.8
		c-14.3,4.4-28.5,9-42.6,13.8c-4.7,1.6-9.1,4.3-13.7,6.2c-11.3,4.7-22.9,7.7-35.4,8.6c-12,0.9-23.8,4.8-35.8,6.9
		c-11.4,2-22.8,4-34.3,5c-20.6,1.7-41.2,2.5-61.8,3.9c-11.2,0.7-22.4,2.1-33.7,2.6c-6.2,0.3-12.5-0.6-18.7-1.3
		c-14.6-1.6-29.2-3.1-43.7-5.2c-9.6-1.4-19.1-3.5-28.6-5.7c-17.4-3.9-34.8-7.5-51.9-12.3c-11.8-3.4-23-8.9-34.7-13.1
		c-7.9-2.8-16.2-4.8-24.2-7.3c-9.5-3-19-6.4-28.6-9.2c-2.8-0.8-4.9-1.7-4.2-4.9c0.8-3.5,3.4-4.2,6.6-3c5.3,1.9,10.6,3.9,15.9,5.7
		c15.4,5.1,31.5,8.9,46.3,15.5c21.2,9.5,43.2,14.7,65.7,18.8c12.6,2.3,24.9,6.3,37.5,8.3c19.7,3.1,39.6,5.5,59.4,7.6
		c5.2,0.6,10.6-0.9,15.9-1.2c15.5-1,31.1-1.4,46.6-3c25.7-2.7,51.6-2.7,77.1-7.9c13.4-2.8,27-4.6,40.5-7.1c10.8-2,20.9-6,30.8-10.8
		c7.8-3.8,16.1-7.1,24.5-9.1c19.9-4.7,39-11.6,57.2-20.7C817.3,549.1,823.8,544.1,830.9,539.6z"/>
	<path fill-rule="evenodd" clip-rule="evenodd" fill="#4B778A" d="M569.5,412.3c3.8,1.1,7,2,10.6,3c0,5.6,0,10.7,0,15.8
		C568.4,433.5,564.8,427.4,569.5,412.3z"/>
	<path fill-rule="evenodd" clip-rule="evenodd" fill="#FFFFFF" d="M556.1,365.6c2.7,15.6-6.5,28.8-21.8,31c-1.2,0.2-2.9-0.5-3.7,0.1
		c-8.9,6.7-15.1,0.5-22.4-3.6c-9-5.1-16.4-11-20.1-21c-2.1-5.7-2.3-11,1.6-15.9c5-6.2,9.2-13.3,17.8-17.6c0,3.2,0,5.4,0,8.4
		C525,348.6,539.4,358.9,556.1,365.6z M531.3,385.2c-1.4-2.8-2.3-5.1-3.8-7c-1.5-2.1-3.9-4-6.3-1.8c-1.6,1.4-3,4.1-2.9,6.2
		C518.8,388.7,522.2,389.5,531.3,385.2z"/>
	<path fill-rule="evenodd" clip-rule="evenodd" fill="#FFFFFF" d="M664.4,365.5c3.8,8.3,4.2,16.8,2.8,25.1
		c-2,12.5-18.5,19.6-27.9,19.8c-15.7,0.4-30.6-12.1-33.1-27.7c-1.4-8.3,5.2-20.8,12.8-24.3c1.1-0.5,2.9-1.1,3.5-0.6
		c4.4,3.5,9,0.5,13.4,0.8c4.6,0.2,9.1,1.4,13.6,2.5c2.4,0.6,4.4,2.4,6.7,3.2C658.5,365,661,365,664.4,365.5z M636.2,397.3
		c6.6-7.5,7.2-9.8,3.2-12.7c-3.3-2.4-7.7-1.9-9.8,1.2C627.1,389.7,629.2,393.5,636.2,397.3z"/>
	<path fill-rule="evenodd" clip-rule="evenodd" d="M531.3,385.2c-9.1,4.3-12.5,3.5-12.9-2.6c-0.1-2,1.3-4.7,2.9-6.2
		c2.4-2.2,4.8-0.3,6.3,1.8C529,380.1,529.9,382.4,531.3,385.2z"/>
	<path fill-rule="evenodd" clip-rule="evenodd" d="M636.2,397.3c-7-3.9-9.2-7.6-6.5-11.5c2-3.1,6.5-3.6,9.8-1.2
		C643.5,387.5,642.9,389.8,636.2,397.3z"/>
</g>
</svg>
