<?xml version="1.0" encoding="UTF-8"?>
<!DOCTYPE svg PUBLIC "-//W3C//DTD SVG 1.1//EN" "http://www.w3.org/Graphics/SVG/1.1/DTD/svg11.dtd">
<svg version="1.1" id="base-cat-html" xmlns="http://www.w3.org/2000/svg" xmlns:xlink="http://www.w3.org/1999/xlink" x="0px" y="0px" width="1200px" height="1200px" viewBox="-100 0 1200 1200" enable-background="new -100 0 1200 1200" xml:space="preserve">
<g>
	<path d="M393.6,175.9c-2.4-2.8-4.2-4.8-6-6.8c1.1-11.3,3.5-22.5,2.3-35.3c-7.2,1.8-13.6,3.1-19.7,5.2c-5.4,1.8-10.4,4.8-15.9,6.6   c-4.3,1.4-5.7,4.4-5.8,8.1c-0.2,6.8-2.3,13.7,1.7,20.2c0.8,1.3,0.5,3.7-0.2,5.2c-0.6,1.3-2.8,3.2-3.7,2.9c-1.5-0.5-3.5-2.4-3.6-3.8   c-0.4-5.9,0-11.9-0.1-17.8c-0.1-5.4-0.5-10.8-0.9-16.2c-0.6-7.8-1.2-15.6-1.9-23.4c-0.4-4.1-1.1-8.3-1.8-13.1   c6.1-8.1,12.7-16.8,19.6-25.9c3,3.3,1.6,5.9,0.8,8.8c-3.9,15.5-6.7,31.1-7.3,47.1c0,0.3,0.3,0.5,1,1.9c3-0.8,6.4-1.7,9.7-2.7   c7.8-2.5,15.5-5.2,23.3-7.4c4.4-1.3,6.5-3.7,6.7-8.3c0.4-7.5,1.6-15,1.7-22.6c0.1-7.2,0.2-13.9,8.7-17.1c1.6,1.9,3.8,4.4,5,5.8   c-1.6,20.6-3.2,40-4.4,59.5c-0.4,7.1-2.4,14.3,0.4,21.5c0.5,1.2-1.3,4-2.7,5.1C398.9,174.6,396.3,175,393.6,175.9z"/>
	<path d="M391.4,61.1c14-6.6,29-8.7,43.9-10c1.1-8.5,2.2-16.5,3.4-25.6c3.9,2,7.3,3.8,9.9,0.1c5.7,8.5,0,16.4-0.4,26   c6.9-2.3,12.7-4.1,18.4-6.1c2.8-1,2.7-1.1,8.3,3.4c-1.2,3.7-3,5.3-7.6,5.5c-6.2,0.4-12.3,2.6-18.5,4.1c-3.3,0.8-3.7,3.4-4.4,6.1   c-5.3,22.3-8.9,44.8-7.1,67.9c0.6,8,0.1,16,0.1,23.8c-6.9,1.9-8.4,1-8.3-3.9c0.5-17.5,0.6-34.9,1.7-52.4c0.7-12,2.8-23.9,4.3-35.9   c0.2-1.8,0.3-3.5,0.5-5.5c-8.2-3.9-16.1-1.1-22.7,2.1C405.5,64.5,398.7,61.8,391.4,61.1z"/>
	<path d="M522.4,93.9c7.1,17.3,7.1,35,10.9,51.8c0.2,1-1.1,2.4-1.8,3.7c-9.8-2.8-4.7-12.2-8.6-17.6c-3.8-5.3-5-12.4-7.6-19.1   c-7.2,7.8-9.8,18.5-18.7,24.5c-8.2-8.5-15.9-17.4-28.7-20.2c-1.1,7.5-2.2,14.5-3.1,21.5c-0.6,5.4-0.9,10.7-1.3,16.1   c-0.3,3.3-0.2,3.3-7,5.6c0.1-11.5,2.8-22.1,4.8-32.7c2.1-10.7,1.2-22,6.5-33.7c9.4,12.9,17,25.8,29.5,34.7   c6.1-5.4,10.6-11.9,13.8-19.6C513.3,103.5,515.2,97.5,522.4,93.9z"/>
	<path d="M560.3,153.7c0-25.5,0-48.8,0-71.6c5.1-1.9,9.7-3.7,15-5.6c2.4,7.2-2.9,13.5-2.7,20.4c0.2,6.8-1.2,13.6-1.6,20.4   c-0.5,7.2-0.6,14.4-0.9,22.9c2.3,0,5.2,0.3,7.9-0.1c9.8-1.4,19.7-3,29.5-4.8c2.9-0.5,5.2-1.4,7.4,2.9c-8.2,5.7-18.3,4.5-27.1,7.4   S570.1,150.8,560.3,153.7z"/>
	<path d="M285.4,127.5c1.8,3.1,1.8,3.1-3.3,15.1c-2.1,5-4,10-6.3,15.9c9.1,5.5,18,10.9,27.8,16.8c-1.8,1.8-3.4,3.4-4.4,4.4   c-4.9-1.5-9.1-2.6-13.2-4c-10.4-3.5-20.9-7.1-27.5-16.2C267.3,149,276.1,138.5,285.4,127.5z"/>
	<path d="M685.7,114.2c-10.3-5-19.7-9.6-29.6-14.4c2.1-4,5.4-4.3,8.6-3.6c8,1.6,15.8,3.6,22,9.7c3.4,3.3,7.7,5.7,11.7,8.3   c3.6,2.3,4.2,6,0.5,7.5c-9.2,3.8-13.2,12-17.1,20c-1.9,4-3.8,3.7-7.8,2.7C679.1,134.2,685.1,124.9,685.7,114.2z"/>
</g>
<g>
	<path d="M753.2,1031.5c-3.5,5.6-6.9,11.4-10.7,16.9c-8.7,12.8-17.7,25.5-26.5,38.2c-0.7,1-1.5,1.8-2,2.9   c-8.8,19.3-23.5,34.9-34.2,53c-3.3,5.5-6.1,11.3-8.9,17.1c-1.5,3.1-1.4,3.2-6.2,4.9c-6.5-10.3-14.5-18.7-26.8-22.1   c-2.7-0.7-5.1-2.7-7.4-4.5c-8.1-6.5-18.9-6.6-27.4-12.1c-4.6-2.9-9.3-5.7-14.4-8.8c-2.9-5.9,4.5-10.2,3.1-16.2   c9.2-2.1,12.2-10,16.6-16.3c1-1.4,1.2-3.6,2.4-4.6c12.4-11,19.1-26.4,29.8-38.8c11.2-13,20.6-27.5,31-41.6   c-13.5-10.4-31.3-9.5-44.2-18.6c-9.4,8.5-18.4,17-27.9,25.1c-4.4,3.7-9.4,7.1-14.6,9.6c-12.4,5.8-24.6,12-38.2,15.1   c-21.1,4.8-41.7,2.8-62.3-2.6c-11.5-3-21.6-8.8-31.4-15c-7-4.5-13.1-10.4-19.8-15.4c-7.3-5.3-14.9-10.1-22.8-15.4   c-11.4,6.6-22.9,13.2-35,20.1c5.3,4.9,9.3,11.6,16.7,15.3c4.2,2.1,7.2,6.4,10.9,9.7c7.2,6.4,14.6,12.6,21.6,19.2   c3.8,3.5,8.2,6.5,9.3,12.4c0.4,2.2,3.2,3.9,5.7,6.6c-27.4,26.3-46.9,58.3-66.2,90.5c-8.8-4.1-15.3-8.9-17.8-17.9   c-0.5-1.9-1.7-3.8-3.1-5.3c-9.9-10.2-15.5-23.1-22.8-35c-7-11.4-15.7-21.8-24.2-32.2c-7.2-8.9-15-17.2-22.6-25.7   c-2.9-3.3-5.9-6.4-8.9-9.6c-29.9,12-60,13.4-90.7,6c-8-1.9-15.4-4.9-22.4-9.5c-9.1-6-19.1-10.8-28.7-16.1c-4.8-2.7-9.6-5.4-15-8.6   c-1,1-2.4,2.3-3.8,3.6c-11.9,11.2-23.2,23.2-38.1,30.8c-4.2,2.2-8.6,3.6-14.7,1.2c1.5-1.8,2.5-4.2,3.6-4.2c10-0.2,16.7-6,23-12   c-0.8-4.3-1.5-8.2-2.2-12.2c-1.6-9.2-2.5-18.5-4.9-27.5c-4-14.6-4.2-29.5-2.6-44.2c1-8.9,3.4-18,7.3-26c8.2-16.8,17.1-33.7,31-46.6   c7.7-7.2,16.5-13.7,27-17.3c6.9-2.4,13.4-5.7,20.1-8.4c3.2-1.3,6.6-2.3,10-2.8c10.7-1.4,21.4-2.3,32.1-3.7c4.6-0.6,6.2-4.7,8.1-8.3   c4.3-8.2,4.7-17.2,5.2-26c0.7-10.7,0.1-21.6,0.6-32.3c0.4-8.8,1.6-17.5,2.4-26.2c0.3-3.5,0.9-7,0.7-10.5   c-0.4-7.3-0.1-14.4,1.2-21.8c2.2-12.6,3.5-25.5,3.9-38.2c0.7-19.4,4.9-38.2,8.2-57.2c0.2-1.2,0.7-2.3,0.8-3.4   c1.9-16.5,3.6-33.1,5.5-49.6c1-8.7,2.6-17.3,3.8-26c2.1-14.4,3.9-28.9,6.4-43.2c1.3-7.7,3.1-15.6,6-22.8c4.4-11,6.5-22.3,8.7-33.9   c2.8-14.6,7-28.9,10-43.5c3.1-14.8,5.4-29.8,8-44.8c0.1-0.6-0.2-1.3,0-1.7c7.2-13.3,5.7-28.5,9.7-42.5c0.3-1.1,0.2-2.6,0.9-3.4   c4-4.8,4-10.7,5.2-16.4c1.1-5.2,0.4-11.1,5.1-15.5c1.3-1.2,0.9-4.4,1.3-7.1c7.8-0.7,9.9,6.1,11.7,10.6   c6.2,15.7,16.7,26.9,31.6,34.1c2.1,1,4.1,2.2,6.1,3.4c11.7,6.6,22.9,14.2,35.1,19.6c9.5,4.1,20.1,6.7,30.4,7.8   c20,2,40.1,3.7,60.2,1.9c14.6-1.3,29.1-3.3,43.5-5.8c12.6-2.2,25.1-5.2,37.6-8.3c11.3-2.7,21.3-8,29.8-16.2   c2.3-2.2,5.1-3.9,7.8-5.7c14.3-9.8,25.5-22,30.5-39.1c0.7-2.3,2.7-4.1,4.7-6.8c8.3,9.4,17.5,16.6,20.8,28.4   c3.3,11.7,9.6,21.7,16.4,31.7c7.7,11.3,13.1,23.9,17.2,37.1c2.3,7.5,5.5,14.7,7.8,22.2c2.9,9.5,5.1,19.2,7.9,28.7   c4.7,16,9.6,31.9,14.3,47.8c0.9,3.1,1.5,6.2,2.3,9.3c1.4,5.4,3.2,10.4,7.1,14.8c2.9,3.2,5.4,7.2,6.6,11.2c1.5,4.9,4.9,8,8.2,11   c4.1,3.7,8.9,3,11.9-1.7c4.4-7,8.6-14.1,12.7-21.3c7.7-13.4,15.9-26.5,22.6-40.3c5.9-12.3,16.9-19.8,25-30.1   c2.2-2.9,6.1-4.5,9.2-6.6c6.9-4.8,13.5-10.3,21-14c8-3.9,16.8-7,25.5-8.6c12.3-2.2,24.9-3.4,37.4-3.5c9.8-0.1,19.7,1.8,29.4,3.7   c11.1,2.2,22,5.4,33,8.3c6.1,1.6,6.5,2.2,6.4,8.5c19.1,12.5,33.9,28.9,45.5,48c9.8,16.2,18.3,33.2,26.6,50.3   c5,10.2,7.4,21.3,8.2,32.9c1.2,16.1,0.2,32-0.6,48c-0.2,4.1-1.4,8.1-2.4,12.1c-1.9,7.9-4,15.8-6.1,23.7c-0.3,1.1-0.6,2.3-1.1,3.3   c-9.5,19.9-21.8,37.6-42.5,47.3c-9.7,4.5-20.3,6.9-31.3,4.8c-4.3-0.8-8.6-2-12.9-2.6c-8-1.2-11.7-7.4-14.9-13.5   c-2-3.8-2-8.7,1-12.5c3.7-4.5,7.2-9.4,11.8-13c11.7-9.1,21.6-19.4,27.8-33.2c4.2-9.5,6.8-19.4,6.9-29.6c0.1-16.7,0-33.4-1.8-50   c-1.1-10.6-4.9-21-11.9-29.8c-3.8-4.8-6.9-10.1-10.7-15c-12.7-16.3-29.9-24.8-50-27.3c-7.7-0.9-15.6-0.3-23.1,3.3   c-25.3,12.3-45.5,29.6-56.8,55.9c-5.1,11.8-9.9,23.8-13.9,36c-2.4,7.4-3,15.5-4.2,23.3c-1.1,6.6-2,13.3-3,19.9   c-1.2,8.1-2.6,16.1-3.6,24.2c-1.3,9.8-2.7,19.7-3.2,29.6c-0.7,12.3-0.5,24.5-0.7,36.8c-0.2,12.8-0.9,25.6-0.6,38.5   c0.4,14.6,1.7,29.1,2.4,43.7c0.4,8.5-0.2,17,0.6,25.4c1.8,19.8,3.4,39.6,6.7,59.1c1.3,7.6,4.8,15.8,15,17.7   c8.9,1.7,15.9,7.5,21.6,14.2c14.4,16.8,24,35.8,26.7,58.2c0.7,5.6,3,11,4.3,16.6c1.1,4.8,1.7,9.8,2.8,14.6c0.4,1.9,1,4.2,2.3,5.4   c4.7,4.4,5.5,9.4,2.5,14.7c3.6,4.5,6.7,4.7,10.5,0.9c3.2-3.3,6.8-6.2,10.7-9.6c0.7,2.1,1.2,3.7,1.7,5.2   c-9.3,9.4-18.6,18.6-27.8,27.9c-13.5,13.5-30,22.5-47.7,28.8c-14.6,5.2-29.5,9.8-44.6,13c-8.3,1.7-17.5,0.5-26.1-0.6   C766.6,1036.4,760.6,1033.8,753.2,1031.5z"/>
	<path fill="#C1D7E1" d="M312.7,278.8c3.5,4.3,6.6,7.4,8.9,11c4.7,7.6,11.6,12.2,19.2,16.1c5.7,3,11,6.4,16.5,9.7   c0.7,0.4,1.3,1.4,2.1,1.6c16.5,5,29.6,18.1,47.3,20.3c2.6,0.3,5.2,1.3,7.5,2.6c11.9,6.6,25,7.2,38.1,8.2c13.6,1.1,27.3,2.5,41,2.6   c14.4,0.2,28.2-3.7,42-8c15.8-4.9,30.4-12.2,44.2-21c14.6-9.2,28.9-19,40.5-31.9c5.4-6,10.1-12.7,15.4-19.4   c6.7,6.8,12.5,14.5,16.3,23.4c6.1,14.4,11.7,29,17.9,43.4c3.9,9.1,9.1,17.6,13,26.7c4.4,10.4,6.9,21.9,12.3,31.6   c9.9,17.7,13,37.3,18.8,56.2c2.5,8,5.1,16.1,7.8,24.1c0.8,2.5,1.5,5.2,3.1,7.3c6.7,8.8,7.4,19.4,9.2,29.6c0.3,1.6,1.1,3.1,1.6,4.7   c2.1,6.9,4.1,13.9,6.4,21.9c-9.3,3.4-17.8,6.4-26.1,9.7c-8,3.2-16.3,5.2-23.2,11.4c-4.2,3.8-11.2,4.8-17.2,6   c-24.3,5.2-48.5,10.9-73.4,12.7c-15.7,1.2-31.2,4.7-46.8,5.4c-23.3,1.1-46.8,0.5-70.1,0.7c-9.9,0.1-19.9,1-29.8,0.5   c-12.5-0.6-25-2.2-37.5-3.6c-16.5-1.8-33.1-3.8-49.6-5.9c-4.9-0.6-9.6-2.4-14.4-3.3c-21.5-4.1-43.2-7.6-64.6-12.3   c-13-2.8-25.6-7.4-38.9-11.4c0.1-1.5-0.1-3.2,0.3-4.8c3-12.4,5.8-24.8,6.7-37.5c0.2-3.7,1.7-7.4,2.6-11.1   c3.5-14.7,4.7-30,10.7-44.1c2.4-24.8,10.6-48.4,15.5-72.6c3.1-15.2,5.6-30.5,10.4-45.2c5-15.2,6.1-31.6,13.8-45.9   C311.3,286,311.5,283.3,312.7,278.8z M582.8,370.4c-3.9,0.9-9.5,1.7-14.6,3.7c-6.2,2.4-12.9,4.7-17.7,9   c-10.3,9.1-12.2,22.2-13.3,35.2c-0.2,3,0.7,6.9,2.7,9c8,8.8,15.8,18.7,30.3,14.5c1.4-0.4,2.9-0.2,4.4-0.3   c21.5-0.5,40.6-14.2,43.9-39.7c0.6-4.7-0.9-8.7-3.8-12.2c-2.1-2.5-3.9-5.4-6.5-7c-6.8-4.3-13.9-8-20.9-11.9   C586.3,370.3,585.2,370.5,582.8,370.4z M470.9,412.1c-2.3-12.8-5.8-24.6-17.3-31.5c-6.7-4-14.3-6.5-21.5-9.6   c-1-0.4-2.3-0.8-3.3-0.7c-5.4,0.7-10.9,1.2-16.2,2.5c-13,3.2-23.2,9.5-29.5,22.3c-3.3,6.8-0.2,13.2-2.2,19.6   c-1.1,3.7-0.1,7.4,2.8,10.5c2,2.1,3.4,4.7,4.8,7.3c3.2,6.1,8.6,9.6,14.9,11.3c14.3,3.9,28,5.4,42.2-2.7c9-5.2,15.8-11.7,21.8-19.6   C469.3,418.9,469.8,415.2,470.9,412.1z M492.6,514.9c1.6,3.1,2.3,5.5,3.8,7.1c10.3,10.3,22.9,15.4,37.5,15.2   c6.7-0.1,13.4-1.5,20-1.6c10.5-0.2,21,0.2,31.5,0.4c2.7,0,5.3-0.1,4.8-4c-11.9-4.2-23.8-2.7-35.7-2c-13.3,0.7-26.3,3.1-39.8-1.5   c-11-3.8-16.1-10.7-17.7-21.3c-0.7-4.3-0.4-8.8-0.7-13.2c-0.2-2.5-0.8-4.7-3.7-4.3c-1.7,6.9-3.2,13.6-5.2,20.2   c-2.9,9.3-9.5,14.5-19.1,15.7c-7.8,1-15.7,1.3-23.4,2.7c-8.2,1.5-16.2,1.3-24.4,0.3c-8.4-1-16.9-0.5-25.4-0.4   c-1.7,0-3.3,1.4-5.4,2.3c1.3,1.2,1.8,2,2.6,2.3c1.1,0.4,2.3,0.5,3.4,0.6c9,0.1,18,0.1,27,0.2c6.4,0,12.8,0.2,19.2,0   c6-0.2,12.1-0.4,18-1.5c8.5-1.6,17.6-1.7,24.5-8C487.2,521.5,489.4,518.5,492.6,514.9z M497.4,448c-7.5-0.2-13.2,2.7-17.8,7.5   c-2.5,2.6-3.8,6.4-5.5,9.7c-4.3,8.6,2.1,21.9,11.6,21.9c10.4,0.1,21.1-1.2,30.6-6.4c5.9-3.2,6.7-9.9,5-16.3   c-1.8-7.1-7.7-8.7-12.4-11.8C505.6,450.4,501.3,449.5,497.4,448z M563.8,470.7c-7.3-2.5-10.4,3.6-15.9,5.6   C560.3,483.2,562.1,482.6,563.8,470.7z M428.7,488.6c2.4-3,7.9-1.6,8-6.6c0-1.8-2.5-3.6-4.9-6.7   C430.3,480.7,423.8,482.4,428.7,488.6z M535.9,495.4c-1.6-1.3-3.3-2.7-5.8-4.7c-1.8,2.5-3.5,4.6-4.6,6.9c-0.2,0.3,2.2,2.5,3.6,2.9   C532.9,501.4,535.1,499.5,535.9,495.4z M564.2,507.7c3.7,0,6.9,0,10.9,0c-1.8-3.5-3.1-6.2-4.5-8.9   C565.4,499.5,562.2,501.1,564.2,507.7z M445.2,504.2c-4.5-3-7.1-6.4-10.3-2c-1,1.3-0.7,5.2,0.4,6   C439.6,511.5,440.8,506.5,445.2,504.2z M407.4,499.6c-0.5,9.3-0.4,9.5,6.1,9.9C414.2,502.2,414.2,502.2,407.4,499.6z"/>
	<path fill="#8FB2C5" d="M771.5,687.5c0.5,5.9,1.1,12,1.7,18.2c-26.7,16-56.8,20.8-86.1,28.1c7.6,3.2,14.7,1.8,21.9,0.3   c7.4-1.6,14.9-3.1,22.3-4.7c7.3-1.6,14.5-4.2,21.9-4.6c7.3-0.4,13.8-3.6,20.7-4.7c0.6,0.7,1.2,1.1,1.3,1.6   c1.9,12,1.8,11.9-9.2,17.7c-3.8,2-6.9,5-10.5,7.3c-1.6,1-3.6,1.6-5.6,2.1c-15.5,4.2-31,8.3-46.7,12.4c-0.5,4.6,1.5,6.5,5.5,5.2   c22-6.8,45.2-9.4,66.2-20.9c4.2,7.5,1.4,15.1,2.5,22.9c-19.3,6.4-38,12.7-58,15.6c3.3,3.9,6.8,5,11,4c4-1,8-1.9,11.9-3.1   c11.2-3.6,22.8-4.1,35.1-5c1,6.4,1.8,12.1,2.7,18.1c-14.1,8.6-31.1,7.7-45.9,13.9c15.4,4.6,30.3-4.6,46-1.6   c0.8,4.8,1.5,9.3,2.2,14.1c-9.7,1.3-19,1.5-26.1,8.9c7.7-1,15.3-2.1,24.3-3.3c0.8,5.8,1.6,11.5,2.3,17.3c-9,2.7-17.5,5.3-26.1,7.9   c-8-3.1-12.6-9.8-17.3-16.6c-11.1-16.2-21.6-32.7-33.5-48.3c-11.6-15.1-21.4-31.2-32-46.9c-2.4-3.6-5.7-6.7-9.1-9.4   c-1.4-1.1-4.2-0.2-7-0.2c0,8.6-5.2,14.5-8.9,21c-3.9,6.8-7.7,13.4-13.4,19.2c-10.6,10.8-20.1,22.8-32.1,32.3   c-1.1,0.9-2.3,1.8-3.3,2.9c-4.2,4.8-3.1,8.9,2.8,11.4c1.6,0.7,3.3,1.3,4.5,2.5c9.1,9.1,18.2,18.2,27.2,27.4   c8.6,8.8,17.1,17.6,25.6,26.4c4.2,4.4,8.3,8.9,12.8,13.9c-17,7.4-33.5,13.7-50.7,18.2c-20.4,5.4-41.4,7.3-62,11.3   c-4.6,0.9-9.1,2.2-13.7,3.1c-2.8,0.6-5.7,0.9-8.6,1c-8.2,0.4-16.3,0.6-24.5,0.9c-2.6,0.1-5.3,0.3-7.9,0.2   c-25.5-1.4-50.5-6.4-74.8-14.1c-14.9-4.7-29-11.9-43.5-18c-5.1-2.2-10.1-4.5-15.7-7c0.8-1.5,1.3-3,2.3-4.2   c5.6-6.8,11-13.7,16.9-20.1c8.6-9.3,17.8-18.1,26.4-27.5c7.9-8.6,15.5-17.4,22.9-26.4c3.9-4.7,3.1-8.7-1.5-12.8   c-14.1-12.4-26.6-26.3-37.8-41.3c-4-5.3-7.6-11.1-11.9-16.1c-2.6-3-6.3-4.9-10.3-7.8c-20,19.1-40.2,38.2-60.2,57.6   c-20.1,19.4-40,39.1-60.5,59.1c-3-1.3-6.3-2.9-9.8-4.3c-3.3-1.3-6.5-2.6-9.9-3.3c-8.9-1.7-11.4-4.1-13.1-13.3   c-0.3-1.7-0.7-3.4-1-4.9c7.7-8.9,18.4-5.1,27.4-6.9s18.5-0.4,30.1-0.4c-2.3-2.6-3.3-4.7-4.5-4.9c-3.7-0.6-7.6-0.5-11.4-0.8   c-4.4-0.3-8.8-0.5-13.1-1c-8.9-1.1-17.8-2.4-27.3-3.7c0-6.7,0-12.7,0-19.2c14.1-3.1,27.2,1.6,40.4,2c13.3,0.4,26.7,0.1,39.9,0.1   c1.4-3.5-0.4-4.8-3.1-5c-14.5-1.1-29.1-2.1-43.6-3.2c-7.3-0.5-14.6-1.1-21.8-2c-9.2-1.1-11.8-4.7-10.5-14.1c0.3-2.3,0.2-4.7,0.4-7   c0.2-2,0.4-4,0.6-5.7c16.2,2.6,32.2,5.4,48.2,7.7c15.9,2.3,31.8,5.3,48.1,3.7c-0.3-4.5-2.4-5.4-5.4-5.4   c-23.3,0.1-45.6-6.6-68.3-10.7c-7.1-1.3-14.4-2.3-21.5-3.4c-0.4-8.2-0.7-15.8-1.1-24.2c19.5,4.8,38.7,7.2,57,13.7   c6,2.1,12.5,3,18.9,3.9c13.3,1.9,26.7,3.6,40,5c3.1,0.3,7,2.1,9.8-2.1c-2.1-3.4-5.1-5.1-9-6c-18.7-4.1-37.4-8.2-56-12.5   c-16.5-3.8-32.9-7.9-49.4-11.8c-2.7-0.7-5.6-1.1-9.3-1.8c0.3-4.6,0.6-9.6,0.9-15.6c7.7,1.9,14.4,3.4,21.1,5.2   c13.5,3.5,26.8,8.1,40.6,10.4c19.2,3.3,38.7,5.2,58.1,7.4c24.1,2.7,48.2,5.3,72.3,7.4c15.7,1.4,31.5,2.2,47.3,3   c3.4,0.2,6.9-1.2,10.4-1.4c3-0.2,6.1-1.5,8.8,2c1.1,1.4,5,1.2,7.3,0.7c11.8-2.7,23.7-3,35.7-3c12.5,0,25.1-0.6,37.6-1.9   c10.2-1.1,20.3-1,30.5-0.1c2.6,0.2,5.4,0.5,7.8-0.3c9.2-3.1,18.6-5,28.3-5.4c4.4-0.2,8.7-1.4,13-1.5c18.4-0.4,35.7-6,53.1-10.7   c15.2-4.1,30.2-9.3,45.3-13.8C756.7,685.4,764.4,685.4,771.5,687.5z M410,880.7c11.3,4,22.1,7.5,33.5,8.5   c8.1,0.7,16.3,0.9,24.5,1.9c23.6,2.7,47.2,2.4,70.8-0.2c7.2-0.8,14.2-3.3,21.3-5.1c5-1.3,9.9-3.3,15-4.3c17.5-3.4,35-6.6,52.5-9.8   c3.7-0.7,5.5-2.8,6-7.1c-2.3,0.2-4.3,0.1-6.2,0.4c-16.6,3.2-33,7.3-49.7,9.5c-27.3,3.5-54.3,8.4-82,9c-26.7,0.6-52.9-1-78.7-8   C412.9,874.3,411,875.7,410,880.7z M632.4,740.8c0-0.7,0-1.5-0.1-2.2c-1.2-0.4-2.5-1.2-3.7-1.1c-10.2,0.8-20.4,1.8-30.6,2.7   c-22.3,2-44.2,8.1-66.9,5.7c-3.1-0.3-6.4,0.7-9.6,1c-9.9,0.7-19.8,1.8-29.6,1.8c-8.1,0-16.2-1.5-24.4-1.9   c-16-0.8-31.9-1.1-47.9-2.1c-4.3-0.3-6.7,0.5-7.4,4.7c1.7,3.9,4.9,4.2,8.2,4.3c17.5,0.5,35,1.4,52.5,1.5   c20.8,0.2,41.5,0.3,62.2-2.2c27.8-3.3,55.8-4.8,83.6-7.6C623.5,745.1,627.9,742.5,632.4,740.8z M428.8,845.6   c-1.3,3.6,1.4,4,4.2,4.2c11.6,0.8,23.2,2.2,34.9,2.3c22.2,0.2,44.3-0.3,66.5-0.6c7-0.1,14-0.3,21-1c15-1.6,29.9-3.6,45-5.4   c-0.4-5.4-1.6-8.1-6.6-5.9c-2.1,0.9-4.4,1.6-6.7,1.8c-18,1.8-36,3.4-54,5.1c-0.9,0.1-1.8-0.1-2.6-0.1c-13.7-0.4-27.3-0.7-41-1.4   c-15.1-0.7-30.2-1.8-45.3-2.7c-1.7-0.1-3.5-0.4-5,0C435.9,842.8,432.9,844.1,428.8,845.6z M605.6,775.8c-3.1-4-7.1-1.7-10.4-1   c-18,4.2-36.3,5.6-54.7,6.8c-8.8,0.6-17.6,1.7-26.3,1c-15.3-1.2-30.6-3.9-45.9-5.4c-7.1-0.7-14.3-0.1-22.6-0.1   c1.4,2.2,1.9,4,2.9,4.3c3.3,1,6.8,1.9,10.2,2.2c4.4,0.4,8.9-0.4,13.2,0.3c19.6,3.2,39.2,6.1,59.1,4.3c6.7-0.6,13.4-1.5,20.1-1.7   c18.2-0.5,35.6-5.3,53.2-9.1C604.9,777.2,605.1,776.4,605.6,775.8z M589.4,814.4c-1.4-1.8-2.2-3.8-3.3-4c-2.8-0.5-5.8-0.4-8.7-0.2   c-8.4,0.7-16.8,1.8-25.3,2.5c-10.4,0.8-20.9,1.6-31.4,1.8c-8.1,0.1-16.2-1.5-24.2-1.1c-10.3,0.5-20.3-0.8-30.3-2.6   c-1.7-0.3-3.5,0.5-6.7,1c6.1,5.9,12.2,8,18.9,8.3c13.4,0.7,26.8,1.9,40.2,1.7c11.2-0.1,22.4-1.8,33.6-3.1   C564.3,817.5,576.3,815.9,589.4,814.4z"/>
	<path fill="#CCC68D" d="M426.5,1069.9c-9,11.5-18.3,22.7-26.8,34.6c-8.3,11.6-15.7,23.8-23.7,36c-1.7-1.1-3.1-1.6-4.1-2.6   c-9.8-10-19.7-19.9-29-30.3c-5.2-5.8-9.1-12.8-13.9-18.9c-10-12.9-20-25.9-30.6-38.3c-11.2-13.1-23.1-25.5-34.6-38.3   c-2.9-3.2-5.4-6.9-8.3-10.1c-7.3-8-14.7-15.8-22-23.7c-1.6-1.7-3.5-3.3-4.5-5.3c-5.6-10.7-13.9-19.3-21.9-28.1   c-5.1-5.5-9.4-11.7-14.3-17.8c29.3-33.9,60.9-64.5,91.5-95.9c30.5-31.3,64.4-59.2,97.3-89.2c17.5,22.6,35.9,43.2,50.8,66.7   c-36.9,42.5-77.3,80.6-112,123.4c1.8,3.2,3.5,5.7,4.9,8.5c4.8,9.7,9.5,19.4,14.3,29.1c0.6,1.3,1.5,3,2.6,3.4   c8.4,3.1,12.2,10.8,16,17.5c6.3,11.2,15.1,19.9,23.9,28.9c4.9,5,9.5,10.3,14.3,15.4c1,1.1,1.9,2.3,3,3.2   C410.5,1046.8,418.2,1058.6,426.5,1069.9z"/>
	<path fill="#C1D7E1" d="M811.4,842.4c-8.1,1.6-14.6,2.9-22.1,4.3c-0.5-5.7-1.1-10.5-1.3-15.3c-0.6-14-0.2-28-3.5-41.7   c-1.1-4.5-0.7-9.3-1-14c-0.7-11.1-1.4-22.2-2.1-33.3c-0.1-0.9-0.5-1.8-0.4-2.6c2.7-12.6-0.9-25-1-37.6c0-2.9-0.3-5.9,0-8.8   c2.2-16.9-1.1-33.2-5.9-49.3c-0.5-1.7-1-3.4-1.1-5.1c-2-19.4-3.8-38.9-5.9-58.3c-1.1-10.4-2.9-20.7-4-31.1   c-0.5-4.9-1.2-10.3,0.3-14.9c3.9-12.2,2.5-25.5,9.1-37.1c1.6-2.8,0.2-7.2,1.6-10.3c5.3-12.3,8-25.8,16.4-36.8   c1.2-1.6,2.7-3.3,3.2-5.2c2.8-10.5,11.3-16.9,17.3-25.1c2.6-3.6,7-6.2,11-8.4c10-5.4,20.3-10.4,30.5-15.5c7.1-3.5,14.1-7,21.3-10.4   c2.6-1.2,5.3-2.5,8.2-3c13.3-2.2,26.6-3.5,40-0.1c2.2,0.6,4.7,0.5,7,0.6c17,0.9,33.5,4.9,47.1,14.8c14.7,10.8,29.4,22.1,39.4,38.3   c12.6,20.5,23.5,41.8,30.7,64.7c3.7,11.9,5,24.5,6.9,36.9c0.5,3-1.1,6.3-1.3,9.5c-0.9,17.5-5.1,34.6-9.1,51.5   c-5.9,25.1-20.5,43.2-45.4,52.7c-12,4.6-23.1,2.5-34.4,0c-10.1-2.2-12.9-11.2-6.8-19.7c2-2.8,4.4-5.5,7.2-7.5   c13.5-9.9,24-22.2,31.6-37c2.2-4.1,4-8.5,6-12.7c5-10.1,4.8-20.9,3.7-31.7c-1.1-11.3-2.3-22.6-3.8-33.9   c-1.6-11.2-4.4-22.3-8.8-32.6c-5.4-12.5-14.7-22.1-25.1-30.8c-14.9-12.4-32.3-18.5-51.3-19.8c-5.9-0.4-12.1,1.5-17.8,3.5   c-21.3,7.6-38.1,21.6-51,39.9c-5.8,8.2-9.8,17.8-14.5,26.9c-1.5,2.8-2.4,6.1-4.2,8.7c-9,13.1-10.5,28.2-12.2,43.4   c-0.6,5.5-2.5,10.8-3.3,16.3c-1.4,9.2-2.8,18.4-3.4,27.7c-1.7,25.6-5.8,51-4,76.8c0.8,11.6-0.5,23.4-0.2,35.1   c0.8,24.9,2.6,49.7,3,74.5c0.2,14.6,2,29,3.5,43.5C812,829,811.4,835.6,811.4,842.4z"/>
	<path fill="#CCC68D" d="M664.4,1154.7c1-2.9,1.9-5.4,2.4-6.7c-4.2-3.4-7.8-6.5-11.6-9.4c-6.4-4.9-12.7-10.1-19.5-14.5   c-7.5-4.9-13.4-11.1-18.5-18.2c-5.3-7.4-5.2-15.1-0.6-22.1c7.7-11.7,16.1-22.9,24.5-34.1c9.2-12.4,18.6-24.8,28-37.1   c9.6-12.5,19.1-25.2,29.2-37.3c8.7-10.4,15.7-21.8,22.1-33.6c4.7-8.7,3.2-12.9-4.6-18.9c-3.6-2.7-6-7-8.8-10.6   c-1.5-2-2.5-4.6-4.3-6.1c-7.6-6.3-15.7-12-23.2-18.4c-6.7-5.7-12.9-11.8-19.1-18c-8.7-8.6-17.2-17.5-25.9-26.3   c-7.4-7.5-14.9-14.8-22.3-22.3c-1.6-1.6-3-3.4-4.4-4.9c0.3-1.1,0.3-1.9,0.6-2.2c6.5-4.6,11.3-10.8,16.2-16.9   c2.2-2.8,4.5-5.7,8.7-6.6c2.5-0.5,4.6-3.4,6.6-5.5c7.1-7.7,14.5-15.2,20-24.3c2.5-4.1,6.4-7.3,10.3-11.5c2.4,3.7,4.2,6.3,5.8,9.1   c1.6,2.7,2.9,5.6,4.7,8.3c9.3,14.2,18.7,28.3,28.2,42.4c3.3,4.9,6.5,9.7,10,14.4c13,17.3,26,34.6,39.3,51.7   c3.2,4.1,7.7,7.1,11.3,10.9c11.4,12,22.6,24.4,34.2,36.3c4,4.1,9.1,7.1,13.9,10.8c-0.7,1.4-1.1,2.5-1.8,3.4   c-7.6,9.9-13.7,20.7-19.9,31.5c-4.2,7.3-10.5,13.3-15.7,20c-12.9,17-25.9,33.9-38.3,51.2c-10.7,14.9-20.7,30.4-30.8,45.8   c-5.8,8.8-11,17.9-16.6,26.8c-8.1,12.8-16.5,25.5-24.7,38.3c-0.9,1.5-1.9,3-3,4.3C666.6,1154.5,665.8,1154.4,664.4,1154.7z"/>
	<path fill="#7A9154" d="M675.4,995.1c-16.5-9.4-32.7-18.1-45.8-32.8c-2.9,4.4-6,8.4-8.5,12.8c-9,15.8-22.7,26.6-38.3,35   c-7.5,4-15.3,7.5-23.2,10.5c-16.8,6.3-34.3,7.9-51.9,5.4c-10.9-1.5-21.7-4.5-32.3-7.6c-4.3-1.3-7.9-4.8-12-6.9   c-18.9-9.7-31.4-25.6-41.8-43.5c-0.4-0.7-1.4-1-2.3-1.6c-14.4,14-31.3,23.7-49.8,31.2c-12.5-19.2-27.9-35.4-31.3-58.2   c-1.3-8.8-1.2-17.3,5.5-24.4c5.6-5.9,10.7-12.2,16.8-19.1c3.4,0.8,7.2,1.8,11.1,2.8c16.1,4,31,11.5,46.7,16.8   c7.4,2.5,15.4,3.3,23,5.4c20.1,5.4,40.6,8.4,61.3,10.6c3.2,0.3,6.6,0.7,9.7,0c13.3-3.1,26.7-0.3,40.1-0.9   c8.4-0.4,16.9-1.4,24.9-3.5c22.6-5.8,45-12.5,67.6-18.4c10.4-2.7,21.1-4.6,31.7-6.4c1.9-0.3,4.9,0.5,6.1,1.8   c9,10,17.6,20.3,26.4,30.4c2.9,3.3,3,6,1.1,10.2c-5.3,11.9-12.3,22.3-21.3,31.8C684,981.9,680.1,988.6,675.4,995.1z"/>
	<path fill="#7A9154" d="M176.8,933.9c8.4,7.2,16.2,13.7,23.8,20.4c3.1,2.7,6.1,5.5,8.6,8.6c2.9,3.7,6.2,6.6,10,9.4   c6.3,4.6,11.8,10.4,17.1,16.2c7.3,7.9,14.1,16.3,21.3,24.4c3.6,4.1,7.5,8,12.4,13.2c-11.4,2.2-20.8,5.1-31,6.3   c-12.3,1.5-24.5,1.9-36.8,0.6c-16.8-1.9-31.9-7.3-46.1-17.3c-12.8-9-19.8-20.7-25.3-35.1c-10.8,5.8-16.5,16.5-25.6,24.4   c-2.4-1.1-4.3-7.3-7.9-0.4c-8.4-12.3-12.5-24.9-13.9-38.3c-0.8-7.9-0.6-16.1,0.6-24c2.1-13.5,7.2-26.1,14.9-37.4   c6.4-9.4,13.2-18.6,20.4-27.4c12.8-15.5,29.1-27.1,47.9-32.9c17.4-5.3,36-8.5,54.3-1.7c2.7,1,5.7,1.4,8.6,1.5   c9.1,0.3,17.1,3.3,25.2,9.3C229.4,880.3,203.6,906.7,176.8,933.9z"/>
	<path fill="#8FB2C5" d="M765.7,652.7c1.7,7.3,3.3,14,5,21.1c-8.4,5.4-17.8,7.2-27.1,9.3c-4.8,1.1-9.6,2.6-14.3,4.1   c-6.1,2-12,4.7-18.1,6.5c-8.6,2.5-17.3,5-26.2,6.7c-9.4,1.8-19.1,2-28.5,3.9c-18.7,3.8-37.6,5.2-56.6,6.4c-6.4,0.4-12.7,2-19.1,2.2   c-10.5,0.4-21-0.3-31.5,0.2c-11.3,0.5-22.6,1.7-33.9,2.6c-3.8,0.3-7.8,1.4-11.3,0.7c-8.8-1.8-17.4-0.2-26.1,0.1   c-13.7,0.5-27.5,0.2-41.1-1c-22.1-1.9-44.2-4.7-66.3-7c-6.4-0.7-12.9-1.4-19.3-1.1c-14.3,0.7-27.7-3.7-41.4-6   c-13.2-2.2-26.2-5.2-39.3-8.1c-10.5-2.4-21-5.1-30.3-10.9c-2.2-1.4-4.5-2.5-7-3.9c0.3-5.8,0.6-11.8,0.9-18.7   c6.8,1.1,13,1.9,19.1,3.1c6.6,1.3,13,3.4,19.7,4.4c21.6,3.5,43.2,6.8,64.9,9.9c14.7,2.1,29.5,4.3,44.3,5.4   c11.6,0.9,23.3,0.3,35,0.4c2.6,0,5.2-0.1,7.9,0.1c8.2,0.6,16.4,0.8,24.5,2.1c9.6,1.5,19.1-0.1,28.6-0.2c13.3-0.1,26.7-0.8,40,0   c19.9,1.2,39.3-1.2,58.8-4.7c9.1-1.6,18.5-1.7,27.8-2.2c26-1.5,51.8-3.6,77.1-10c9.3-2.3,19.2-2.1,28.7-3.9   c17.2-3.2,34.3-7.1,51.4-10.7C762.8,653.2,763.7,653.1,765.7,652.7z"/>
	<path fill="#8FB2C5" d="M758.4,614.1c1.4,6.5,3,12.7,4.1,18.9c1.5,8.3,0,11-8.2,13.4c-8.4,2.4-17,4.4-25.7,6   c-14.9,2.7-29.9,5.3-44.9,7.4c-8.9,1.3-18,1.5-27,2.2c-24.2,1.9-48.6,1.9-72.2,8.3c-18.2,5-36.8,4.6-55.4,5.9   c-9.5,0.7-19.1,1-28.6,1.5c-0.9,0-1.8,0.2-2.6,0c-13.5-2.1-26.7,0.6-40.1,1.5c-8.4,0.6-16.9-0.6-25.3-1.1   c-5.5-0.3-11.1-1.3-16.6-1.2c-17.3,0.2-34.5,0.7-51.7-3c-9.7-2.1-19.8-2-29.6-3.3c-6.7-0.8-13.3-2.3-19.9-3.3   c-8.7-1.4-17.3-2.7-26-4c-11.6-1.7-22.8-5-33.6-9.7c-5.8-2.5-12-4.3-18.2-6.4c0.5-4.8,1-9.4,1.5-14.5c1.7-0.4,3.4-1.2,4.9-1   c10.8,1,21.8,1.7,32.5,3.6c12.4,2.2,25,2.8,37.5,3.7c7.5,0.6,15,2.2,22.6,2.7c9.6,0.6,19.3,0,28.9,1c14,1.4,27.8,0.1,41.7-0.4   c15.8-0.5,31.5-1,47.3,1.4c8.3,1.3,16.9,0.6,25.4,0.6c8.4,0.1,16.9-0.2,25.3,0.1c3.9,0.2,7.8,1.6,11.7,2.5c1.4,0.3,2.9,0.9,4.2,0.7   c10.3-1.5,20.3,0.5,30.5,1.4c7.7,0.7,15.6-0.9,23.5-1.6c3.8-0.3,7.5-1.3,11.2-1.4c19.7-0.4,38.9-3.8,58-8   c9.7-2.1,19.3-5.4,29.1-6.4c19.3-1.9,37-10.5,56.4-11.7c8-0.5,15.9-3.7,23.9-5.6C754.5,614.1,756.3,614.2,758.4,614.1z"/>
	<path fill="#7A9154" d="M831.6,937.3c-5.6-4.6-10.7-8.5-15.4-12.8c-9.3-8.4-19-16.4-27.4-25.6c-5.6-6.2-9.8-13.6-16.7-18.7   c-0.7-0.5-1.7-1.6-1.5-2c2-5.7-4.2-7-6-11.6c3.9-2.2,7.7-5.1,12-6.7c9.5-3.6,19.3-6.4,28.9-9.8c6.2-2.2,12.1-0.5,18.2,0.4   c14.9,2.3,26.2,9.2,35.1,21.9c6.3,9,11.2,18.4,14.8,28.6c1.5,4.4,2.5,9,3.2,13.5c1.7,10.3,4.1,20.7,4.4,31.1   c0.3,9.4,4.3,18.6,1.5,28.1c-1.7,5.8-3,11.9-5.8,17.3c-2,3.8-3.6,7.1-0.9,11.9c-10.4,5.3-19.9,11.3-30.2,15.1   c-15.9,5.7-32.2,10.7-48.7,14.5c-12.9,2.9-26,0.9-38.9-5c1.1-2.3,1.8-4.2,2.8-5.8c12.1-18.7,26.8-35.4,42.1-51.3   C813,959.9,821.2,948.3,831.6,937.3z"/>
	<path fill="#8FB2C5" d="M244.9,589.2c1.2-8.8,2.4-17,3.6-25.7c2.2-0.2,3.9-0.7,5.6-0.5c20.4,3.3,41.1,5.3,61.2,10.6   c8.7,2.3,17.9,2.3,26.9,3.6c4.6,0.7,9.2,1.7,13.4,3.4c12,4.8,24.9,3.4,37.3,5.2c12.7,1.8,25.5,2.9,38.3,4.6   c16,2.1,31.9,3.5,48.1,1.7c7.8-0.9,15.7-0.7,23.6-0.7c10.8-0.1,21.6,0.1,32.4-0.1c9-0.2,18.1-0.2,27-1.1   c20.6-2.2,41.3-4.2,61.6-7.8c23.3-4.1,46.9-6.8,69.2-15.7c8.1-3.2,16.4-6.1,24.5-9.6c8.1-3.4,16.2-6.3,26.1-4.5   c1.2,5,2.5,10.5,4,16.6c-5.4,2.7-9.9,5.2-14.7,7.3c-7.4,3.3-14.9,6.5-22.5,9.2c-4,1.4-8.4,1.4-12.5,2.5   c-10.2,2.6-20.3,5.6-30.5,8.2c-3.7,0.9-7.5,1.3-11.3,1.9c-6.1,0.9-12.1,1.9-18.2,2.6c-16.8,2.1-33.6,4.4-50.5,6.1   c-22.4,2.2-44.8,4.1-67.2,5.9c-17.5,1.4-35.1,2.2-52.6,3.4c-4.1,0.3-8.1,0.7-12.2,1.4c-21.8,3.7-43.1,0-64.5-3.3   c-2.3-0.4-4.6-1-6.9-0.9c-18.3,0.7-36.2-2.3-54-5.3c-16.7-2.8-33.2-6.9-50-8.7C267.9,598.4,257.2,593.3,244.9,589.2z"/>
	<path fill="#8FB2C5" d="M750.1,580c-0.1,9.8,8.7,16.3,6.7,26.3c-22,4.3-43.3,9.7-64.9,12.3c-15.5,1.9-30,6.7-45,10.2   s-30,7.5-45.2,9.8c-12,1.8-24.4,1.2-36.7,1.5c-13.4,0.3-26.9,0.4-40.3,0.6c-3.8,0-7.6-0.3-11.4-0.4c-19.2-0.7-38.5-1.3-57.7-2.1   c-12.9-0.5-25.7-1.3-38.6-1.7c-4.1-0.1-8.2,0.5-12.2,0.5c-11.4,0.1-22.7,0.3-34.1-0.1c-12-0.4-23.9-1.4-35.9-2.3   c-5.2-0.4-10.5-1.1-15.7-1.6c-6.4-0.6-12.8-1.4-19.2-1.8c-14-0.9-27.8-2.7-41.2-7.2c-5.5-1.8-11.2-3.2-17.8-5.1   c0.9-5.8,1.7-11.7,2.7-18.6c4.3,0.8,8.2,1.4,12.1,2.1c12,2.2,24.1,4.5,36.1,6.5c12.9,2.1,25.9,3.9,38.8,5.8   c15.9,2.3,31.8,4.5,47.8,6.7c9,1.3,17.9,2.6,26.9,3.7c2.8,0.4,5.7,0.4,8.6,0.4c2.3,0,4.7-0.8,7-0.6c12.7,0.8,25.3,0.8,38.1-1.6   c12.3-2.3,25.1-1.9,37.6-3c12.8-1.2,25.5-3.2,38.3-4.3c10.8-1,21.6-0.9,32.4-1.8c21.8-1.8,43.7-3.5,65.4-6.3   c14.7-1.9,29.3-5.2,43.9-8.2c7.7-1.6,15.3-3.9,22.9-5.9c13.3-3.5,26.5-6.9,39.8-10.4C742.1,582.7,745.1,581.6,750.1,580z"/>
	<path d="M582.8,370.4c2.5,0.1,3.5-0.1,4.2,0.3c7,3.9,14.2,7.6,20.9,11.9c2.6,1.7,4.5,4.6,6.5,7c3,3.5,4.4,7.5,3.8,12.2   c-3.2,25.5-22.3,39.2-43.9,39.7c-1.5,0-3-0.1-4.4,0.3c-14.4,4.2-22.2-5.7-30.3-14.5c-1.9-2.1-2.9-6-2.7-9   c1.1-12.9,3-26.1,13.3-35.2c4.8-4.3,11.6-6.6,17.7-9C573.3,372.1,578.9,371.3,582.8,370.4z M565.1,438.7c8.1-1.5,16-2.4,23.4-4.6   c20.3-6,27.8-28.4,12.2-43.6c-1.9-1.8-4-3.7-5-6.1c-1.7-3.7-4.8-4.9-8.1-6c-8.4-2.9-26.6,2.4-33.1,8.7c-9,8.7-9.8,20.2-11.2,31.3   c-0.4,3.2,1.8,7.5,4.1,10.2c2.8,3.2,6.7,5.5,10.5,7.8C560.1,437.6,562.8,437.9,565.1,438.7z"/>
	<path d="M470.9,412.1c-1.1,3.1-1.6,6.9-3.6,9.5c-5.9,7.9-12.7,14.4-21.8,19.6c-14.2,8.2-27.9,6.7-42.2,2.7   c-6.4-1.7-11.7-5.2-14.9-11.3c-1.4-2.6-2.8-5.2-4.8-7.3c-2.9-3.1-3.9-6.9-2.8-10.5c2-6.4-1.1-12.9,2.2-19.6   c6.3-12.8,16.5-19.2,29.5-22.3c5.3-1.3,10.8-1.8,16.2-2.5c1.1-0.1,2.3,0.2,3.3,0.7c7.2,3.1,14.8,5.6,21.5,9.6   C465.1,387.5,468.6,399.3,470.9,412.1z M387.8,410.3c-1.1,5.5-0.9,10.9,3.3,16.1c3.9,4.7,6.4,10.7,13,12.2c6.5,1.6,13.2,4,19.7,3.8   c15.7-0.4,28.7-7,38.1-19.9c1.2-1.6,1.9-3.7,2.4-5.6c2.7-12.2-7.4-31.2-18.1-35.1c-7.9-2.9-15.9-3.9-24-4.1   C406.3,377.2,384.3,390.5,387.8,410.3z"/>
	<path d="M492.6,514.9c-3.2,3.6-5.5,6.6-8.2,9.1c-6.9,6.4-16,6.4-24.5,8c-5.9,1.1-12,1.3-18,1.5c-6.4,0.2-12.8,0-19.2,0   c-9,0-18-0.1-27-0.2c-1.1,0-2.3-0.2-3.4-0.6c-0.7-0.3-1.3-1.1-2.6-2.3c2.1-0.9,3.7-2.3,5.4-2.3c8.5-0.1,17-0.6,25.4,0.4   c8.2,1,16.2,1.2,24.4-0.3c7.7-1.4,15.6-1.8,23.4-2.7c9.6-1.2,16.3-6.3,19.1-15.7c2-6.6,3.4-13.3,5.2-20.2c2.9-0.4,3.5,1.8,3.7,4.3   c0.3,4.4,0.1,8.8,0.7,13.2c1.6,10.6,6.7,17.5,17.7,21.3c13.5,4.7,26.5,2.3,39.8,1.5c11.9-0.7,23.9-2.1,35.7,2c0.5,3.8-2.1,4-4.8,4   c-10.5-0.1-21-0.6-31.5-0.4c-6.7,0.1-13.4,1.5-20,1.6c-14.6,0.2-27.1-4.9-37.5-15.2C494.9,520.5,494.2,518,492.6,514.9z"/>
	<path d="M497.4,448c3.9,1.5,8.2,2.4,11.6,4.7c4.7,3.1,10.6,4.8,12.4,11.8c1.7,6.5,0.9,13.1-5,16.3c-9.5,5.1-20.2,6.5-30.6,6.4   c-9.5-0.1-15.9-13.4-11.6-21.9c1.7-3.3,3-7.1,5.5-9.7C484.2,450.6,489.9,447.8,497.4,448z M517.1,474.1   c-7.5-11.1-18.2-13.7-29.4-14.3c-6-0.3-11.4,8.4-9.6,13.8c2.2,6.5,5.4,9.2,12.4,8.6C499.5,481.5,508.5,480,517.1,474.1z"/>
	<path d="M563.8,470.7c-1.7,11.8-3.5,12.5-15.9,5.6C553.3,474.4,556.5,468.3,563.8,470.7z"/>
	<path d="M428.7,488.6c-4.9-6.2,1.6-7.9,3.2-13.3c2.3,3.1,4.9,4.9,4.9,6.7C436.6,487,431.1,485.6,428.7,488.6z"/>
	<path d="M535.9,495.4c-0.8,4.1-3.1,6-6.8,5.1c-1.4-0.4-3.7-2.5-3.6-2.9c1.1-2.3,2.8-4.4,4.6-6.9   C532.6,492.7,534.3,494.1,535.9,495.4z"/>
	<path d="M564.2,507.7c-2-6.6,1.2-8.2,6.3-8.9c1.4,2.7,2.7,5.4,4.5,8.9C571.1,507.7,567.9,507.7,564.2,507.7z"/>
	<path d="M445.2,504.2c-4.4,2.3-5.7,7.3-10,4c-1.1-0.8-1.3-4.7-0.4-6C438.1,497.8,440.7,501.2,445.2,504.2z"/>
	<path d="M407.4,499.6c6.8,2.6,6.8,2.6,6.1,9.9C407,509.1,406.9,508.9,407.4,499.6z"/>
	<path d="M410,880.7c1-5,2.9-6.4,7.1-5.2c25.8,7,52,8.6,78.7,8c27.7-0.6,54.7-5.6,82-9c16.7-2.1,33.1-6.3,49.7-9.5   c1.9-0.4,3.8-0.3,6.2-0.4c-0.5,4.3-2.3,6.4-6,7.1c-17.5,3.2-35.1,6.4-52.5,9.8c-5.1,1-10,3-15,4.3c-7.1,1.8-14.1,4.3-21.3,5.1   c-23.6,2.6-47.2,3-70.8,0.2c-8.1-0.9-16.3-1.2-24.5-1.9C432.1,888.2,421.3,884.7,410,880.7z"/>
	<path d="M632.4,740.8c-4.5,1.6-8.9,4.2-13.5,4.7c-27.9,2.7-55.8,4.3-83.6,7.6c-20.8,2.4-41.5,2.3-62.2,2.2c-17.5-0.1-35-1-52.5-1.5   c-3.3-0.1-6.5-0.4-8.2-4.3c0.7-4.1,3.1-4.9,7.4-4.7c15.9,0.9,31.9,1.3,47.9,2.1c8.1,0.4,16.2,1.9,24.4,1.9c9.9,0,19.8-1.1,29.6-1.8   c3.2-0.2,6.5-1.3,9.6-1c22.7,2.4,44.6-3.7,66.9-5.7c10.2-0.9,20.4-1.9,30.6-2.7c1.2-0.1,2.4,0.7,3.7,1.1   C632.3,739.4,632.4,740.1,632.4,740.8z"/>
	<path d="M428.8,845.6c4.1-1.5,7.1-2.8,10.3-3.6c1.6-0.4,3.4-0.1,5,0c15.1,0.9,30.2,2,45.3,2.7c13.6,0.7,27.3,0.9,41,1.4   c0.9,0,1.8,0.2,2.6,0.1c18-1.7,36-3.3,54-5.1c2.3-0.2,4.6-0.9,6.7-1.8c5.1-2.2,6.2,0.4,6.6,5.9c-15.1,1.8-30,3.8-45,5.4   c-7,0.7-14,0.9-21,1c-22.2,0.3-44.3,0.8-66.5,0.6c-11.6-0.1-23.2-1.5-34.9-2.3C430.2,849.6,427.5,849.1,428.8,845.6z"/>
	<path d="M605.6,775.8c-0.5,0.7-0.8,1.4-1.2,1.5c-17.6,3.8-35,8.6-53.2,9.1c-6.7,0.2-13.4,1.1-20.1,1.7c-19.9,1.8-39.5-1.1-59.1-4.3   c-4.3-0.7-8.8,0-13.2-0.3c-3.5-0.3-6.9-1.1-10.2-2.2c-1-0.3-1.5-2.1-2.9-4.3c8.3,0,15.5-0.6,22.6,0.1c15.3,1.5,30.5,4.2,45.9,5.4   c8.7,0.7,17.5-0.4,26.3-1c18.3-1.2,36.7-2.6,54.7-6.8C598.5,774,602.5,771.8,605.6,775.8z"/>
	<path d="M589.4,814.4c-13.1,1.6-25.1,3.1-37.2,4.4c-11.2,1.2-22.4,2.9-33.6,3.1c-13.4,0.2-26.8-1-40.2-1.7   c-6.7-0.4-12.8-2.5-18.9-8.3c3.1-0.5,5-1.3,6.7-1c10,1.8,20,3.1,30.3,2.6c8-0.4,16.1,1.2,24.2,1.1c10.5-0.1,20.9-1,31.4-1.8   c8.4-0.6,16.9-1.7,25.3-2.5c2.9-0.3,5.9-0.3,8.7,0.2C587.2,810.6,587.9,812.5,589.4,814.4z"/>
	<path fill="#FFFFFF" d="M565.1,438.7c-2.3-0.7-5-1-7.1-2.3c-3.7-2.2-7.7-4.5-10.5-7.8c-2.3-2.7-4.5-6.9-4.1-10.2   c1.3-11.1,2.2-22.6,11.2-31.3c6.5-6.3,24.7-11.6,33.1-8.7c3.3,1.1,6.4,2.3,8.1,6c1,2.3,3.1,4.2,5,6.1c15.6,15.2,8.1,37.6-12.2,43.6   C581,436.3,573.2,437.1,565.1,438.7z M571.8,399.2c-3.9,0.2-7,1-7.6,5c-0.4,2.9,5.5,7.7,8.7,7.1c3.5-0.7,5.5-3.3,6.1-6.7   C579.4,401.6,575.7,399.1,571.8,399.2z"/>
	<path fill="#FFFFFF" d="M387.8,410.3c-3.5-19.9,18.5-33.1,34.4-32.6c8.1,0.3,16.1,1.2,24,4.1c10.8,3.9,20.8,23,18.1,35.1   c-0.4,2-1.2,4-2.4,5.6c-9.4,12.9-22.4,19.6-38.1,19.9c-6.5,0.2-13.2-2.3-19.7-3.8c-6.6-1.6-9.2-7.5-13-12.2   C386.9,421.2,386.7,415.8,387.8,410.3z M428.2,413.9c0.9-0.6,4.6-2.1,4.5-3.3c-0.1-2.4-1.8-5.6-3.8-6.8c-2.2-1.4-5.6-1.5-8.4-1.3   c-3.6,0.3-4.8,2.9-3.3,6.3C419.1,412.8,422.6,413.6,428.2,413.9z"/>
	<path fill="#4B778A" d="M517.1,474.1c-8.6,5.8-17.6,7.4-26.6,8.1c-7,0.6-10.2-2.1-12.4-8.6c-1.9-5.4,3.6-14.1,9.6-13.8   C498.9,460.5,509.6,463,517.1,474.1z"/>
	<path d="M571.8,399.2c3.9-0.1,7.7,2.4,7.2,5.4c-0.6,3.4-2.6,6-6.1,6.7c-3.2,0.6-9.1-4.2-8.7-7.1   C564.7,400.1,567.9,399.4,571.8,399.2z"/>
	<path d="M428.2,413.9c-5.5-0.3-9.1-1.1-10.9-5.1c-1.5-3.3-0.4-6,3.3-6.3c2.8-0.2,6.2-0.1,8.4,1.3c2,1.3,3.7,4.4,3.8,6.8   C432.8,411.8,429.1,413.3,428.2,413.9z"/>
</g>
</svg>