<?xml version="1.0" encoding="utf-8"?>
<!DOCTYPE svg PUBLIC "-//W3C//DTD SVG 1.1//EN" "http://www.w3.org/Graphics/SVG/1.1/DTD/svg11.dtd">
<svg artist="zl2017" version="1.1" id="zlIcon-stats-bars" xmlns="http://www.w3.org/2000/svg" xmlns:xlink="http://www.w3.org/1999/xlink" x="0px" y="0px"
	 width="1000px" height="659.9px" viewBox="0 0 1000 659.9" enable-background="new 0 0 1000 659.9" xml:space="preserve">
<path fill-rule="evenodd" clip-rule="evenodd" d="M168.2,609c-1.1-2.8-2.5-5.1-2.7-7.5c-1.5-12.7-3.6-25.4,1.1-38.2
	c2.6-7.1,1.1-15.2,5.7-22.3c2.5-3.8,0.7-10.1,1.9-15c2.2-9.1,3.2-18.4,5-27.5c7.4-37.1,7.7-74.6,7.2-112
	c-0.5-31.2-2.7-62.4-4.6-93.5c-0.5-8.7-2.7-17.3-3.9-26c-1.5-11.3-2.7-22.7-4.1-34.1c-1.4-11.3-2.9-22.5-8.7-32.8
	c-2.5-4.5-4-9.7-5-14.7c-3.3-15.9-10.3-30.5-15.9-45.6c-4-10.7-7.6-21.6-11.3-32.4c-3.9-11.4-10.7-20.9-19-31.8
	c-1.7,7.8-3.1,14.1-4.6,21.3c-2.7-0.9-5-1.7-6.6-2.2C101,82,99.6,70.4,98.2,58.7c-0.6-4.7-1.7-9.3-2.1-13.9
	c-0.4-5.3-2.3-9.9-4.8-14.6C87,22.5,83.9,14.1,80.8,5.9c-0.5-1.4,0.3-4.4,1.5-5.2c1.3-0.9,4.3-0.9,5.7,0c2.9,2,5.8,4.6,7.6,7.6
	c4.5,7.6,8.6,15.5,12.5,23.4c8.6,17.5,19.6,33,36.2,44c1.6,1.1,3.3,2.8,3.9,4.6c0.6,1.6,0.1,3.9-0.6,5.6c-0.2,0.5-2.7,0.3-4.1,0
	c-0.9-0.2-1.6-1.3-2.6-1.7c-0.9-0.3-2-0.2-4-0.3c2,4.5,3.3,9.1,5.8,12.7c3.7,5.3,5.2,11.2,7.1,17.1c4.5,13.9,9.6,27.5,14.6,41.2
	c6.3,17.6,12.9,35.2,18.9,52.9c1.8,5.3,2.2,11.1,3.1,16.7c3.2,20.6,7.4,41,9,61.7c1.2,16,1.9,32.2,1.7,48.2
	c-0.2,18.3,2.3,36.3,2.6,54.4c0.3,14-0.4,28.1-1.1,42.1c-0.6,14-1.9,28-2.6,42c-0.3,6.2,0.1,12.4-0.1,18.6
	c-0.1,5.7-0.4,11.5-0.9,17.2c-1.6,19.7-3.2,39.3-4.9,59.6c15.1,5.3,29.7,2.9,43.9,2.5c14.4-0.4,28.8-3.3,43.1-5.1
	c8.7-11.9,9.9-25.6,10.6-38.8c0.7-12.2,3.7-23.6,6.5-35.2c3.2-13.7,6.7-27.4,8.6-41.3c1.8-13.3,1.1-27,2.7-40.3
	c3.1-26.3,1.3-52.8,4.4-79c1.7-14.6,1.9-29.1,0-43.6c-0.1-1-0.3-2.1-0.1-3.1c2-12.4-0.2-24.5-2.1-36.8c-1.1-7.1-0.7-14.4-0.9-21.6
	c5-3.4,9.3-6.1,14.9-4.4c5.7,1.8,11.1,0.9,16.9-0.3c20.3-4.2,40.6-7.6,60.6-13.4c12.9-3.8,26.5-5.4,39.8-7.9c1.5-0.3,3.1-0.2,4.6,0
	c12.8,1.1,15.3,4.3,12.9,16.8c-4.1,21.5-6.8,43.2-7,65.1c0,8.1,2.3,16.2-0.9,24.2c-0.7,1.8-0.4,4.1-0.4,6.2
	c0.5,23.4,1.3,46.8,1.6,70.2c0.2,12.4,0.3,24.9-0.4,37.2c-1,17.3,1.8,34.2,2.6,51.4c0.7,15.6,1.6,31.2,2.5,46.8
	c0.4,7.3,0.9,14.5,1.5,21.8c0.1,1.5,0.6,3.3,1.6,4.2c4.4,4,1.5,8.8,1.8,13.8c6.3-0.1,12.4-0.2,19.5-0.3c4.5-12.8,6-26.1,7.2-39.4
	c1.6-18.6,3.5-37.3,5.3-55.9c0.2-2.1,0.8-4.1,1-6.2c0.8-13.2,9.8-19.2,20.8-22.1c9.5-2.5,19.6-2.9,29.4-4.2
	c13.4-1.8,26.8-3.7,40.3-5.3c6.2-0.8,12.5-1,18.7-1.3c5.7-0.3,11.4-0.4,17.1-0.4c9.8,0,17.8,4.7,26.1,9.9c0.1,4.3,0.9,8.6,0.2,12.5
	c-3.7,20.1-2.1,40.4-2.6,60.6c-0.5,20.1,0.8,40.2,5.1,60.3c8.6,0.9,16.8,1.8,24.8,2.6c5.4-7.1,4.9-14.7,5.9-21.6
	c1.1-7.7,0.5-15.6,0.6-23.4c0.3-18.2,0.2-36.4,0.8-54.6c0.4-12.5,1.5-24.9,2.3-37.3c0.1-1.6,0.4-3.1,0.2-4.7
	c-1.1-9.3-4-18.6-3.2-27.7c0.8-8.7,1.8-17.2,1.5-26c-0.2-9.3,1.2-18.6,1.5-27.9c0.1-3.6-1.3-7.2-1.6-10.8c-0.4-4.1-0.6-8.2-0.7-12.4
	c-0.2-9.2,2.8-17.3,8.8-24.1c14.1,0.5,28.2,0,42,1.8c14.8,2,30.1,2.7,44.2,8.6c1.9,0.8,3.9,1.2,6,1.5c7.2,1.2,14.4,1.8,21.5,3.5
	c11.1,2.7,21.7,7,33.6,5.5c5.5-0.7,8.4,1.4,15.7,6.1c0.3,5.9-8.6,6.7-7.2,14c0.9,4.7-1.7,10.1-2.7,15.2c-5.3,27.1-8.1,54.5-8.3,82.2
	c0,2.1,0.2,4.3-0.4,6.2c-5.2,17.2-5.1,34.8-5.4,52.5c-0.2,12.5,0.3,25,0.6,37.5c0.1,7.3,0.6,14.6,0.5,21.9c-0.1,11,1.2,21.9,5,32.2
	c1.9,5,0.6,9-0.8,14.5c3.6,1.6,7.1,4,11,4.8c23.8,5.1,47.5,10.6,72,13.3c-4.5-10.2-4.5-10.2-1.2-17c6.6,1.5,12.6,4.5,17.7,8.8
	c13,10.9,28.6,17,43.5,24.3c1.8,0.9,4,1.7,5.8,1.5c7.5-0.9,12.7,3.3,17.8,6.5c0.9,4.2-1.2,5.7-3.5,6.9c-4.8,2.4-9.8,3-15.2,2.1
	c-8.8-1.4-17.7-1.1-26.4,1.1c-1.5,0.4-3.1,1-4.6,0.9c-10.6-0.9-20.7,2-30.7,4.8c-4.4,1.3-8.1,1.2-11.9-3.2c1.6-1.6,3.1-3.8,5.1-5
	c4.9-2.8,10.1-5.2,17.2-8.7c-18.3-5.5-34.4-10.8-50.9-15.1c-16.6-4.3-33.4-7.7-50.1-11.2c-6.1-1.3-12.4-1.7-18.5-2.8
	c-13.3-2.5-26.4-5.8-39.5-9.4c-15.5-4.2-31.6-6.2-47.4-9.2c-27.6-5.4-55.8-6.6-83.7-9.5c-14.8-1.5-29.8-3.6-45-3
	c-10.3,0.4-20.9-1.1-31-3.2c-13.7-2.8-27.7-2-41.3-3.9c-21.8-3.1-43.6-3.3-65.5-2.6c-14.5,0.4-29,0.5-43.5,0.6
	c-5.2,0-10.4-0.1-15.6-0.1c-3.6,0-7.3-0.3-10.9,0.2c-22.2,2.9-44.3,6.1-66.5,9c-6.2,0.8-12.4,0.7-18.6,1.4
	c-5.7,0.7-11.3,1.9-16.9,2.9c-8.7,1.6-17.3,3.7-26.1,4.7c-13,1.4-25.4,5.2-38.1,7.7C203.2,601.6,187.5,610.2,168.2,609z
	 M631.9,523.3c-3.5,1.9-2.6,5.2-2.2,8c0.3,2.4,1.7,4.7,2.6,7c0.6-0.2,1.1-0.4,1.6-0.5c-0.8-4.9-1.6-9.8-2.5-14.8
	c1.9-3.3,1.5-6.2-2.4-8.2C629.9,517.6,630.9,520.5,631.9,523.3z M604.3,435c0.4,1.9,0.2,4.2,1.2,5.8c0.9,1.5,3,2.9,4.7,3
	c2.8,0.2,4.5-1.9,4.7-4.8c0.1-1.4-0.2-2.9-0.4-5.3c-3.7,0.6-7,1.2-10.4,1.7c-5.8-1-11.6-2.1-17.5-3.1c-1,2.3-1.8,3.7-2,5.1
	c-0.5,2.4-0.6,4.9-1,8c3.1-0.1,5.5-0.1,7.9-0.2C595.7,436.5,595.7,436.5,604.3,435z M558.7,553.8c-0.4-0.3-1-0.5-1.2-0.9
	c-2.3-3.2-5.2-2.8-8.1-1.2c-0.6,0.3-1.1,2-0.8,2.6c2.1,3.7,5.2,2.1,8.1,1.2c0.9-0.3,1.5-1.4,2.2-2.1c4.3-2.6,4.3,3.2,7.1,3.7
	c10,1.9,19.9,4.2,31.2,4.1c-0.2-5.5,2.5-10.3-1.3-15.2c-8.3,7-8.5,7.3-15.9,2.9c-4.4-2.6-7.6-2.1-11.1,1c-1.9,1.7-3.7,3.6-5.9,4.7
	C562,555.2,560.2,554.1,558.7,553.8z M444.9,231.7c-1.8,0.8-4.1,1-5.2,2.4c-7.2,8.3-14.3,16.6-21.1,25.2
	c-25.7,32.4-45.5,68.3-64.2,105c-8.5,16.6-16.8,33.6-29.2,47.9c-2.4,2.7-4.7,5.8-5.8,9.1c-0.8,2.3,0.4,5.4,0.9,10
	c3.5-3.9,6.3-5.9,7.4-8.6c5-12.7,14.1-23,20.4-35c7.7-14.7,15.8-29,27-41.5c2.4-2.7,5-5.7,6.1-9c6.3-18.1,22.1-29.9,30.4-46.6
	c6.1-3.7,8.5-10.2,12.5-15.6c6-8,10.6-17.4,20.5-21.9c0-7.3,0-14.5,0-21.7c1.1-3.4,2.3-6.9,3.4-10.4c0.4-1.4,1.2-3,0.9-4.3
	c-0.5-2.4-0.6-5.7-4-5.9c-1.8-0.1-5,0.7-5.4,1.9c-1.9,5.4-6.9,7.6-10.4,11.4c-3.8,4.2-7.7,8.5-11.5,12.8
	c-12.8,14.4-24.4,29.8-34.6,46.2c-13.4,21.5-27.4,42.7-41.4,63.8c-4.5,6.7-8.1,14.8-17.8,16.9c-0.4,11.6-0.9,23.3-1.3,36.2
	c2.4-1.7,4-2.3,4.7-3.4c5.4-9.4,11.1-18.8,15.9-28.6c10.1-20.6,23.1-39.4,34.3-59.3c14.5-25.9,32.1-49.8,49.1-74
	c2.3-3.2,5.9-5.8,9.3-7.9C439,224.7,441.1,226.1,444.9,231.7z M734,311.6c-12.9,12.6-27.1,24.1-38.1,38.4c0,6-0.2,11.7,0.1,17.4
	c0.1,2.2-0.5,5.3,3.7,6.2c2.4-2.2,5.2-4.6,7.7-7.1c13.2-13.2,26.2-26.4,39.4-39.6c2-2,4.1-4.9,8.3-1.5c-2.7,3.1-5.3,6.2-8.1,9.2
	c-15.1,16.5-30.3,32.9-45.2,49.5c-2.3,2.6-4.5,5.9-5.3,9.3c-3.2,12.5-2.7,25.1,0.4,39.4c10.5-11.9,20.1-22.1,29-32.8
	c16.6-20,32.8-40.4,49.3-60.4c2.3-2.8,5.3-5.1,8.3-7c1.9-1.2,4.7-2.4,6.6,0.6c-0.7,5.8-5,9.1-8.7,12.6c-11.8,11.1-21.7,23.9-32,36.3
	c-11.3,13.6-22.4,27.3-33.7,40.9c-4.7,5.6-9.5,11.1-14.2,16.6c-3.5,4-6.1,8.4-6.1,14c0,7.8-0.2,15.6-0.3,23.4c0,1.9-0.3,4.2,4.1,4.6
	c9.7-11.6,20.4-23.6,30.2-36.1c13.5-17.2,26-35.1,39.6-52.2c8.8-11,18.9-20.9,28.5-31.2c1.9-2,4.4-3,7-1.3c2.1,1.3,1.6,5.9-0.9,8.2
	c-1.2,1-2.7,1.5-3.9,2.6c-16.8,15.7-32.3,32.7-45.1,51.8c-9,13.4-17.6,27.1-28.5,39.1c-10.7,11.8-18,26.7-33,34.2
	c0.7,8.9,0.1,17.6,2.5,25.3c2.6,8.4-2.9,17.4,3.3,25.7c7.8-6.9,13.3-15.1,19.2-23c10.6-14.2,21-28.5,31.8-42.5
	c10.1-13.1,20.7-25.9,31.1-38.8c9.5-11.8,18.9-23.6,28.5-35.2c2.1-2.6,4.3-6.2,9.6-3.6c-18.7,27.7-40,53-61,78.7
	c-21.3,26-37.9,55.6-59.8,80c2,12.8,11.7,13.3,20.3,15.9c4.5-2.8,8.5-5.7,11.5-10.2c4-6.1,8.1-12.2,12.8-17.7
	c12.7-15.1,24.4-31,36.4-46.6c7.6-9.9,16.3-18.9,24.8-28.1c1.3-1.4,4.3-1.2,9.1-2.3c-14.8,19.2-28.5,36-41.1,53.5
	c-12.7,17.6-28.3,33.2-38.6,53.1c10.7,5.9,22,6.2,33.7,7.2c1.8-2.1,3.4-4.1,5.1-6c7.4-8.1,14.7-16.2,22.4-24
	c2.3-2.4,5.1-5.4,10.2-2.2c-8.2,11.2-16.3,22.3-25,34.2c3.2,1,5.2,2.2,7.1,2.1c9.5-0.6,18.6,0.5,27,5.5c1.7,1,4.6,0.1,6.1,0.1
	c-0.1-13.4,1-26-0.5-38.3c-2.8-21.8-2-43.6-1.7-65.4c0.1-12.4,2.1-24.9,3.3-37.3c0.2-2.1,1.1-4.1,1.2-6.1c0.5-16,1.6-31.9,3.9-47.9
	c3-20.6,5.9-41,11.4-61c1.1-4.1,1.1-8.2-1.5-11.2c-17.3-3.7-34-7.7-50.8-10.8C768.5,316.5,751.4,314.3,734,311.6z M434.5,425.2
	c-10,14.9-19.7,29.4-29.4,43.9c-9.6,14.2-20.9,27.6-28.4,42.9c-7.8,15.8-21.1,28.3-26.7,45.7c5,2.6,9.3,3.1,12.9-1.5
	c2.6-3.3,5-6.6,7.2-10.1c6.1-9.6,12.4-19.2,18.1-29.1c3.1-5.3,6.8-10,9.5-15.8c7.1-15.5,17.4-29.3,28.3-42.5
	c2.6-3.2,4.7-2.7,10.4,1.6c-0.6,1.3-0.9,3-1.9,4c-16.7,17.6-27.7,39.1-40.2,59.5c-5.4,8.8-10,18.2-14.6,27.5
	c-1.2,2.5-1.1,5.7-1.8,9.6c5.7-1.3,10.2-2.4,14.3-3.3c4.8-9.3,9-18.3,14.1-26.7c5.6-9.3,12.1-18.2,20.7-25.1
	c1.3-1.1,3.6-0.9,6.9-1.7c-1.8,4.2-2.7,7.1-4.2,9.6c-6.1,9.7-12.5,19.2-18.7,28.9c-3,4.7-5.6,9.6-4.4,15.6c8.2-1.1,8.4-1.1,9.8-4.2
	c5.3-11.1,13.1-19.7,25-25.1c0.5-10.3,1.1-20.6,1.3-31c0.1-4.1-0.7-8.3-0.8-12.4c-0.2-6.2-0.9-12.6-0.1-18.7
	c0.8-6.4-2.8-11.6-2.3-18.2c2-26.4,1.1-53,0.9-79.5c-0.1-14.4,2-28.8,0.4-43.3c-0.2-1.5,0.8-3.1,0.7-4.6c-0.1-1.8-0.9-3.5-1.4-5.4
	c-1.7,0.9-2.9,1.2-3.5,1.9c-13.2,18-27,35.7-39.4,54.3c-20.3,30.3-39.6,61.3-59.4,91.9c-5.9,9.2-12,18.3-18.1,27.3
	c-5.9,8.8-9.1,18.2-6.5,31c8.1-12.9,16-23.8,22.2-35.7c4.9-9.3,11-17.6,17.1-26c1.8-2.5,4.4-4.6,5.8-7.3
	c5.9-11.5,13.9-21.7,21.1-32.4c7.2-10.7,13.7-22,22.4-31.7c3.3-3.7,6.5-8,8.2-12.6c3.9-10.4,12.2-16.6,20.2-23.1
	c2.2-1.8,4.7-2.1,6.7,1.6c-1.4,5.4-5.7,9.4-9.2,13.8c-12,15-24.3,29.8-34.7,46c-5.4,8.3-11.3,16.3-16.8,24.5
	c-10.5,15.5-21.3,30.9-31.3,46.7c-12.6,19.8-23.1,40.8-38,59.2c-3.7,4.6-4.1,10.2-0.2,15.9c1.8-1,3.9-1.4,4.3-2.4
	c4-10.4,12.6-17.7,18.6-26.7c14.6-22,28-44.8,43.4-66.2c5.1-7.1,7.9-15.8,16.2-20.5c2-1.2,3.3-4,4.4-6.4
	c5.9-12.9,15.5-23.2,24.5-33.8c2.6-3.1,5.9-5.8,9.1-8.3c2.3-1.9,4.7-1.9,6.4,2.2c-2.5,2.1-5.8,4-7.7,6.8
	c-7.9,11-15.3,22.3-22.9,33.4c-2.1,3-3.8,6.4-6.4,8.8c-6.8,6.6-11.7,14.6-16.8,22.5c-6.2,9.6-12.3,19.4-19.4,28.4
	c-14.2,18.1-23.7,38.9-37.5,57.6c11.2,2.3,11.3,2.4,16.1-2.9c3.1-3.5,6.1-7.1,8.7-11c10.5-15.4,20-31.5,31.1-46.6
	c11.7-15.8,21-33.3,31.5-50c3.9-6.2,8.1-12.2,12.4-18C425.6,424.4,429.4,423.5,434.5,425.2z M440.4,267.2c-2.6,2.9-3.7,4-4.6,5.2
	c-18,24.1-36.5,47.9-52.7,73.4c-13.4,21.1-26,42.6-38.8,64c-9.3,15.6-18.6,31.2-27,47.3c-3.5,6.7-3.2,14.5-1.6,23.3
	c5.6-7.2,10.7-12.9,14.9-19.2c7.4-11.1,14.1-22.7,21.5-33.9c10.3-15.5,20.9-30.8,31.4-46.2c6.4-9.4,12.2-19.2,18.5-28.5
	c10.4-15.4,22-30.1,33.3-44.9c4.2-5.5,5.5-11,6.2-17.1c0.6-5.1,0.6-10.3,0.6-15.4C442.1,273.1,441.3,271.1,440.4,267.2z
	 M426.2,213.9c-5.5,1.3-10.3,1.3-13.8,3.5c-4.7,2.9-8.9,7.1-12.6,11.4c-15.9,18.6-31.3,37.4-43.9,58.5c-7.9,13.3-15.7,27-26.9,38
	c-3.4,3.3-4.3,7-4.2,11.2c0.1,3.6,0.4,7.3,1.1,10.8c0.7,3.5-4,6.4-1.1,10.1c1-0.2,2.4-0.1,2.8-0.7c7.2-11.4,14.2-22.9,21.3-34.4
	c4.1-6.7,7.9-13.4,12.2-20c7.1-10.8,14-21.9,21.9-32.2c9.3-11.8,15.6-25.7,27-36.1C415.9,228.6,420.3,221.4,426.2,213.9z
	 M328.8,311.8c6.9-9,13.5-16.3,18.6-24.6c7.6-12.4,13.4-25.9,24.4-35.8c1.1-1,2.1-2.4,2.5-3.9c1.4-5.5,6-8.2,9.4-12
	c3.9-4.4,9.1-8,11.1-14.7c-7.5,0.1-13.1,2.1-17.3,7.4c-14.6,18.3-29.8,36.1-43.6,55C328.5,290.5,322.7,299.6,328.8,311.8z
	 M618.9,538.2c-4.3,2-7.9,3.7-11.9,5.6c0.8,5.9,1.6,11.3,2.5,17.3c8.3,1.4,15.8,4.9,24.9,1.7c-0.6-5.3-1.2-10.2-1.8-15
	c-3.4,0.3-5.8,0.5-8,0.7C622.5,544.8,620.8,541.8,618.9,538.2z M354.5,229.4c-1.2,3.2-1.3,5.6-2.6,6.8c-9.9,9.2-16.8,20.8-25.1,31.3
	c-2.6,3.3-1.8,5.4,0.5,8.9c14.7-15.8,27.5-32.9,42.8-50.5C363.5,227.3,359.1,228.3,354.5,229.4z M695.7,334.7
	c11.3-6.6,17.6-14.7,26.1-21.3c-6.9-4.7-13.7-2.3-19.8-3.7C696.2,316.7,696.8,324.4,695.7,334.7z M559.5,489.7
	c4.5-0.7,8.8-1.3,13.4-2c0.6-5.9,1.1-10.8,1.6-15.7C561.6,469.3,559,472.3,559.5,489.7z M624.1,435.3c5.3,15.2,2.6,29.8,7.3,43.4
	c1.8-10.7,2.6-21.3,3.3-31.9C635.1,440.9,632.4,437,624.1,435.3z M581.8,486.1c3.8-0.4,6.3-0.4,8.7-1c7.6-1.8,9-4.5,6.5-12.1
	c-0.6-1.9-1.8-3.5-2.9-5.5c-3.9,0.9-7.6,1.8-11.1,2.6C582.6,475.3,582.3,479.7,581.8,486.1z M575,519.7c-6.3-0.9-10.8-0.6-14.4,3.8
	c0,3.8,0.1,7.7,0.1,11.2c7.2,3.5,11.9,1.4,16-3.6C576.1,527.5,575.6,524,575,519.7z M619.6,512.6c-7-0.6-11.5-0.2-15.3,4.6
	c0.8,3.3,1.6,7.1,2.7,11.6c4.4-0.3,8.3-0.6,12.9-1C619.8,522.3,619.7,517.8,619.6,512.6z M620,481.4c2.2-5.7,1-10.4-3.4-13.9
	c-3.1-2.4-6.7-2.2-10.5,1.1c-0.1,3.9-0.3,8.3-0.4,13.4C610.9,481.8,615.4,481.6,620,481.4z M442,534.7c-7.3,6.6-10.3,13.5-13.5,22
	c5.9-0.1,10.4-0.1,16.1-0.2C443.7,549.2,443,542.8,442,534.7z M597.3,530.6c-1.3-5.7-2.3-10.1-3.5-15.3c-3.9,1.1-7.1,2-10.1,2.9
	c-0.1,5.7-0.1,10.3,4.4,13.7C590.5,531.5,593,531.2,597.3,530.6z M328.4,231.5c-4.8,6.7-5.5,12.5-0.8,19.2c5-6,9.5-11.4,15.3-18.2
	C336.6,232.1,332.2,231.8,328.4,231.5z M532,516.2c-0.1-5.6-0.4-10.1-1.5-15.3c-3.4,1.5-6.2,2.1-7.9,3.7c-1.6,1.5-2.6,4.1-2.9,6.3
	c-0.3,2.8,1.7,4.8,4.4,5.3C526.5,516.4,528.9,516.2,532,516.2z M595.8,492.2c-6.8,1.8-13.3,0.4-13.9,8.6c-0.1,1.8,0.5,3.6,0.9,5.9
	c4.6-1.1,8.4-1.9,12.6-2.9C595.5,500.4,595.6,497.4,595.8,492.2z M604.7,502.7c6.7-0.6,11.6-1,17.3-1.5c-0.9-4-1.7-7.2-2.5-11
	c-5.3,1-9.6,1.7-14.3,2.6C605,495.8,604.9,498.3,604.7,502.7z M520.9,491c4.1,2,8.1,2.4,10.2-2.3c1.3-2.9,1.1-6.4,1.7-10.4
	c-4.9,1.1-8.6,2-12.9,3C520.3,485,520.6,488,520.9,491z M534.5,537.6c-0.6-2.6-1.1-4.5-1.5-6.4c-0.3-2.1-0.7-4.7-3-4.5
	c-2.8,0.2-5.6,1.8-9.1,3c1.3,4,2.3,7.1,3.3,10.3C528.1,539,530.9,538.4,534.5,537.6z M559.6,509.3c5.3-1.2,9.4-2.2,14.5-3.4
	c-1.2-3.4-2.1-6.1-3.2-9.1c-4,0.2-7.4,0.3-11.5,0.5C559.5,501.7,559.5,505,559.6,509.3z M576.6,439c-6,0.2-9.5-0.2-12.8,0.5
	c-1.3,0.3-3,2.7-3.1,4.2c-0.1,1.6,1.3,4.3,2.6,4.6c2.7,0.8,6.4,1.3,8.5,0C573.9,447.1,574.5,443.5,576.6,439z M503.4,522.3
	c6.5-1.9,9.9-3.9,9.6-8.9c-0.1-2.6-0.8-5.4-3.9-5.2c-1.7,0.1-4.4,1.5-4.8,2.8C503.5,514.1,503.7,517.5,503.4,522.3z M549.6,511.5
	c0.2-3.9,0.4-7.3,0.6-11.8c-2.9,0.7-5.7,0.5-6.5,1.7c-1.6,2.4-3,5.7-2.7,8.4C541.6,514.1,545.1,513.3,549.6,511.5z M544,489.8
	c6.5-2.3,6.5-2.3,6.2-15.2c-1.5,0.2-3.4-0.1-4.3,0.7C541.5,479.1,544.7,484,544,489.8z M510.5,483.4c-3.9,0.7-6.9,2.7-6.6,7
	c0.1,1.7,1.7,4.6,2.7,4.6c2.2,0,5.6-0.8,6.3-2.3C514.3,489.5,514.7,485.6,510.5,483.4z M546.7,535.8c5.8-1.9,5.1-6,4.8-9.4
	c-0.1-1.3-2.4-3.5-3.8-3.5c-2.9-0.1-4.9,2.1-4.3,5C544,530.7,545.6,533.3,546.7,535.8z M529.5,442.1c-2.3,1.2-4.6,1.7-4.8,2.6
	c-0.4,2.3-0.1,4.8,0.3,7.2c0.1,0.4,1.8,0.8,2.7,0.7c3.7-0.6,3.1-3.6,3.1-6.1C530.7,445.5,530.2,444.6,529.5,442.1z M573.4,459.5
	c-4.6-4.2-9.3-2.5-16.2,0.3C563.8,461.8,568.3,462.2,573.4,459.5z M547.2,440.9c-3.7,0.4-4.8,2.7-4.9,5.2c0,1,1.4,2.8,2.4,3
	c3,0.8,5.9-2.3,5.1-5.6C549.5,442.5,548,441.6,547.2,440.9z M534.5,464.3c-9.5-2.7-9.6-2.7-12.1-0.8c-0.6,0.5-1.2,2.1-0.9,2.5
	c0.8,0.9,2.2,2.1,3.1,1.9C527.1,467.5,529.3,466.3,534.5,464.3z M512.7,466.4c-2.6-0.1-4.5-0.6-6.1-0.1c-1.1,0.4-2.1,2.2-2.3,3.4
	c-0.2,1.9,4,2.9,6.1,1.2C511.4,470.2,511.6,468.6,512.7,466.4z M508.2,532.9c-0.7,2-1.7,3.7-1.7,5.5c0,0.7,2.1,2.1,3.3,2
	c2.3,0,4.7-4.1,3.4-5.6C512.3,533.8,510.5,533.7,508.2,532.9z M545.1,458.6c-0.3,2-0.5,3.3-0.8,4.5c1.3,0.1,2.7,0.4,3.9,0.2
	c0.3,0,0.9-2,0.5-2.4C548,460,546.8,459.6,545.1,458.6z M584,458.2c4,2.2,7,1.4,9.1-3C590.1,456.1,586,452.7,584,458.2z M631,491.6
	c-0.4,0.3-1,0.6-1.1,1c-0.2,1.9-0.3,3.7-0.3,5.6c0,0.2,0.8,0.4,1.2,0.6c0.6-1.8,1.5-3.4,1.8-5.2C632.7,493,631.6,492.3,631,491.6z
	 M513.9,450.1c-1.7-1-2.9-2.3-3.8-2.1c-0.9,0.2-2.2,1.8-2.2,2.8c0,0.8,1.7,2.2,2.6,2.1C511.4,452.8,512.3,451.4,513.9,450.1z
	 M607.2,453.6c0.2,0.8,0.3,1.5,0.5,2.3c1.5,0.1,3,0.3,4.4,0.1c0.8-0.1,1.4-1,2.1-1.6c-0.6-0.6-1.1-1.7-1.7-1.7
	C610.8,452.9,609,453.3,607.2,453.6z M531.2,552.9c0.9,0.5,1.6,1.2,2.5,1.4c2.5,0.5,4.5-1.3,3.1-2.6
	C534.5,549.5,532.6,550.3,531.2,552.9z"/>
<path fill-rule="evenodd" clip-rule="evenodd" d="M846.9,150.7c-1.4-6.1-2.5-11-3.8-16.3c6-5.1,13.3-5.4,20.3-6
	c7.2-0.7,14.4-1,21.7-1.4c5.3-0.3,9.3,2.8,13.7,4.9c-0.6,1.5-0.8,3-1.3,3.1C881.3,140.1,865.1,145.1,846.9,150.7z"/>
<path fill-rule="evenodd" clip-rule="evenodd" d="M799.8,145c-13.1,6.7-25.4,4-36.7,7.1c-10.9,3-22.2,4.5-33.3,6.6
	c-4.4-6-1.3-10.7,0.4-16.3c3.2-0.6,6.7-1.6,10.2-1.6c6.8-0.1,13.5,0.2,20.3,0.7c10.9,0.9,21.7,1.3,32.6,0.3
	C794.5,141.7,795.8,143.1,799.8,145z"/>
<path fill-rule="evenodd" clip-rule="evenodd" d="M506.9,138.3c12.5-1,23.8-2.1,35.2-2.5c3.3-0.1,6.8,1.8,10.1,3
	c0.6,0.2,1.1,1.7,1,2.5c-0.1,0.9-0.9,2.1-1.6,2.4c-1.3,0.6-2.9,0.7-4.4,1c-12.7,2.3-25.4,4.8-38.2,6.9c-4,0.7-8.2,0.6-12.4,0.4
	c-1.1,0-2.8-1.5-3.2-2.6c-0.4-1.2,0.1-3.5,1-4.1C498.6,142.5,503.2,140.3,506.9,138.3z"/>
<path fill-rule="evenodd" clip-rule="evenodd" d="M432.4,155.2c1.3,4.8-2.6,6.8-5.6,7.9c-6.3,2.4-12.9,4-19.4,5.4
	c-8.5,1.8-17.2,3.2-26,4.8c-3.1-5.1-3.1-9.5,1.5-11.9c5.4-2.8,11.4-5.7,17.3-6.2C410.8,154.2,421.6,155.1,432.4,155.2z"/>
<path fill-rule="evenodd" clip-rule="evenodd" d="M279.3,180.3c4-8.1,9.4-10.3,15.8-10.8c13.7-1.1,27.5-2.2,42.3-3.4
	c-1.7,8.3-8.8,9.9-13.4,11.4C310.1,182,295.7,187.5,279.3,180.3z"/>
<path fill-rule="evenodd" clip-rule="evenodd" d="M612.1,149.8c3.2-1.9,5.1-4.1,7.2-4.3c14.8-1.3,29.2-7.1,44.4-3.2
	c3.8,1,8.1,0,14.4-0.2c-2.8,2.7-3.9,4.7-5.3,5c-16.2,3.4-32.4,6.8-48.7,9.8C619.6,157.8,616.5,154.5,612.1,149.8z"/>
<path fill-rule="evenodd" clip-rule="evenodd" d="M130.1,196.7c-12.9,3.7-23.4,7.9-35,6c-2-0.3-4.4-0.4-5.8-1.6
	c-1.8-1.5-4.1-4.2-3.9-6.1c0.3-2.7,2.3-5.5,4.4-7.5c1.2-1.2,4-1.5,5.9-1.2c9.6,1.6,19.2,3.5,28.8,5.5
	C125.7,192.1,126.8,193.8,130.1,196.7z"/>
<path fill-rule="evenodd" clip-rule="evenodd" d="M235.3,183.7c-3.3,7.1-7.5,11.4-14.9,12.3c-5.6,0.6-11,2.4-16.2,3.6
	c-7.3-6.6-7.5-7.7-5.1-14.2c1.2-3.4,3.6-5.3,6.8-5.1C215.5,180.8,225.2,179.7,235.3,183.7z"/>
<path fill-rule="evenodd" clip-rule="evenodd" d="M46.9,185.5c-4.6,6.6-9.8,4.6-14.1,5.4c-9.3,1.8-18.5-0.3-27.6-2.2
	c-1.9-0.4-3.8-3.3-4.6-5.5c-0.9-2.3,2.5-5.7,5.9-5.8c3.1-0.1,6.3-0.3,9.2,0.4C25.8,180,35.6,182.7,46.9,185.5z"/>
<path fill-rule="evenodd" clip-rule="evenodd" fill="#FFFFFF" d="M734,311.6c17.4,2.7,34.5,4.9,51.3,8.1
	c16.9,3.1,33.5,7.1,50.8,10.8c2.7,3,2.7,7.1,1.5,11.2c-5.5,20-8.4,40.5-11.4,61c-2.3,16-3.4,31.8-3.9,47.9c-0.1,2.1-1,4.1-1.2,6.1
	c-1.2,12.4-3.2,24.8-3.3,37.3c-0.3,21.8-1.1,43.6,1.7,65.4c1.5,12.3,0.4,24.8,0.5,38.3c-1.5,0-4.4,0.9-6.1-0.1
	c-8.4-5-17.5-6.1-27-5.5c-1.9,0.1-3.8-1.1-7.1-2.1c8.7-11.9,16.8-23,25-34.2c-5.1-3.2-7.9-0.2-10.2,2.2c-7.6,7.8-14.9,16-22.4,24
	c-1.7,1.9-3.3,3.9-5.1,6c-11.7-1-23.1-1.3-33.7-7.2c10.3-19.9,25.9-35.5,38.6-53.1c12.6-17.5,26.3-34.3,41.1-53.5
	c-4.8,1.1-7.9,0.9-9.1,2.3c-8.5,9.1-17.2,18.2-24.8,28.1C767.3,520,755.7,535.9,743,551c-4.7,5.6-8.8,11.6-12.8,17.7
	c-3,4.5-7,7.5-11.5,10.2c-8.6-2.6-18.3-3.1-20.3-15.9c21.9-24.4,38.5-54,59.8-80c21-25.7,42.3-51,61-78.7c-5.3-2.6-7.5,1-9.6,3.6
	c-9.6,11.6-19,23.5-28.5,35.2c-10.4,12.9-21,25.7-31.1,38.8c-10.8,14-21.2,28.4-31.8,42.5c-5.9,7.9-11.5,16.1-19.2,23
	c-6.1-8.3-0.7-17.4-3.3-25.7c-2.4-7.7-1.7-16.3-2.5-25.3c15-7.5,22.3-22.4,33-34.2c10.9-12,19.5-25.6,28.5-39.1
	c12.8-19.1,28.3-36.1,45.1-51.8c1.1-1.1,2.7-1.6,3.9-2.6c2.5-2.3,3-6.9,0.9-8.2c-2.7-1.7-5.2-0.6-7,1.3
	c-9.6,10.3-19.7,20.2-28.5,31.2c-13.7,17-26.2,35-39.6,52.2c-9.8,12.6-20.5,24.5-30.2,36.1c-4.4-0.4-4.1-2.7-4.1-4.6
	c0-7.8,0.3-15.6,0.3-23.4c0-5.6,2.6-10,6.1-14c4.8-5.5,9.6-11,14.2-16.6c11.3-13.6,22.4-27.3,33.7-40.9c10.3-12.4,20.2-25.2,32-36.3
	c3.7-3.4,8.1-6.8,8.7-12.6c-2-3-4.7-1.8-6.6-0.6c-3,1.9-6.1,4.2-8.3,7c-16.5,20.1-32.7,40.4-49.3,60.4c-8.9,10.7-18.5,20.9-29,32.8
	c-3.1-14.3-3.6-26.9-0.4-39.4c0.9-3.3,3-6.7,5.3-9.3c15-16.6,30.1-33,45.2-49.5c2.8-3,5.4-6.1,8.1-9.2c-4.2-3.4-6.3-0.5-8.3,1.5
	c-13.2,13.2-26.2,26.4-39.4,39.6c-2.5,2.5-5.3,4.9-7.7,7.1c-4.2-0.9-3.6-4-3.7-6.2c-0.3-5.7-0.1-11.4-0.1-17.4
	C706.9,335.6,721.1,324.2,734,311.6z"/>
<path fill-rule="evenodd" clip-rule="evenodd" fill="#FFFFFF" d="M434.5,425.2c-5.1-1.7-8.9-0.9-11.6,2.8c-4.3,5.9-8.5,11.9-12.4,18
	c-10.5,16.7-19.9,34.2-31.5,50c-11.1,15.1-20.6,31.2-31.1,46.6c-2.6,3.9-5.6,7.5-8.7,11c-4.8,5.3-4.9,5.2-16.1,2.9
	c13.8-18.7,23.4-39.6,37.5-57.6c7.1-9,13.1-18.8,19.4-28.4c5.1-7.9,9.9-15.9,16.8-22.5c2.6-2.5,4.3-5.8,6.4-8.8
	c7.6-11.2,15.1-22.4,22.9-33.4c2-2.8,5.2-4.6,7.7-6.8c-1.7-4.1-4.1-4.1-6.4-2.2c-3.2,2.6-6.5,5.2-9.1,8.3
	c-9,10.7-18.6,20.9-24.5,33.8c-1.1,2.3-2.4,5.2-4.4,6.4c-8.3,4.7-11.1,13.4-16.2,20.5c-15.5,21.5-28.8,44.3-43.4,66.2
	c-6,9-14.6,16.3-18.6,26.7c-0.4,1-2.5,1.4-4.3,2.4c-3.9-5.6-3.5-11.3,0.2-15.9c14.8-18.4,25.4-39.4,38-59.2
	c10-15.8,20.8-31.2,31.3-46.7c5.5-8.2,11.4-16.2,16.8-24.5c10.4-16.2,22.7-31,34.7-46c3.5-4.3,7.7-8.4,9.2-13.8
	c-2.1-3.7-4.5-3.4-6.7-1.6c-8,6.5-16.4,12.7-20.2,23.1c-1.7,4.6-4.9,8.9-8.2,12.6c-8.7,9.7-15.2,21-22.4,31.7
	c-7.2,10.7-15.2,20.8-21.1,32.4c-1.4,2.7-4,4.8-5.8,7.3c-6.1,8.4-12.2,16.7-17.1,26c-6.2,11.9-14.1,22.8-22.2,35.7
	c-2.7-12.8,0.5-22.2,6.5-31c6.1-9.1,12.2-18.2,18.1-27.3c19.8-30.6,39.2-61.6,59.4-91.9c12.4-18.6,26.2-36.3,39.4-54.3
	c0.5-0.7,1.7-1,3.5-1.9c0.5,1.9,1.3,3.6,1.4,5.4c0.1,1.5-0.9,3.1-0.7,4.6c1.6,14.4-0.6,28.8-0.4,43.3c0.3,26.5,1.1,53-0.9,79.5
	c-0.5,6.6,3.1,11.8,2.3,18.2c-0.8,6.1-0.1,12.5,0.1,18.7c0.2,4.2,0.9,8.3,0.8,12.4c-0.3,10.4-0.9,20.7-1.3,31
	c-11.9,5.5-19.7,14.1-25,25.1c-1.5,3.1-1.6,3-9.8,4.2c-1.2-6,1.4-10.9,4.4-15.6c6.1-9.7,12.5-19.2,18.7-28.9
	c1.6-2.5,2.4-5.4,4.2-9.6c-3.4,0.8-5.6,0.7-6.9,1.7c-8.6,6.9-15,15.8-20.7,25.1c-5.1,8.4-9.3,17.4-14.1,26.7c-4.1,1-8.6,2-14.3,3.3
	c0.7-3.9,0.6-7.1,1.8-9.6c4.6-9.3,9.2-18.7,14.6-27.5c12.5-20.4,23.5-41.9,40.2-59.5c1-1,1.3-2.7,1.9-4c-5.7-4.3-7.8-4.8-10.4-1.6
	c-10.9,13.2-21.2,27-28.3,42.5c-2.7,5.8-6.4,10.5-9.5,15.8c-5.7,9.9-12,19.5-18.1,29.1c-2.2,3.5-4.7,6.8-7.2,10.1
	c-3.6,4.5-7.8,4.1-12.9,1.5c5.6-17.4,18.9-29.9,26.7-45.7c7.6-15.2,18.8-28.6,28.4-42.9C414.8,454.7,424.5,440.1,434.5,425.2z"/>
<path fill-rule="evenodd" clip-rule="evenodd" fill="#FFFFFF" d="M440.4,267.2c0.9,3.9,1.7,5.9,1.7,7.8c0,5.1,0,10.3-0.6,15.4
	c-0.7,6.1-2.1,11.6-6.2,17.1c-11.3,14.8-22.9,29.5-33.3,44.9c-6.3,9.3-12.1,19.1-18.5,28.5c-10.5,15.4-21.1,30.7-31.4,46.2
	c-7.4,11.2-14.1,22.8-21.5,33.9c-4.2,6.3-9.3,12.1-14.9,19.2c-1.6-8.8-1.9-16.6,1.6-23.3c8.5-16,17.8-31.7,27-47.3
	c12.8-21.4,25.4-42.9,38.8-64c16.3-25.5,34.7-49.3,52.7-73.4C436.6,271.2,437.7,270.1,440.4,267.2z"/>
<path fill-rule="evenodd" clip-rule="evenodd" fill="#FFFFFF" d="M444.6,231.4c0,7.2-0.1,14.4-0.1,21.7
	c-9.9,4.5-14.5,13.9-20.5,21.9c-4,5.4-6.4,11.9-12.5,15.6c-8.4,16.7-24.1,28.5-30.4,46.6c-1.2,3.3-3.7,6.3-6.1,9
	c-11.1,12.5-19.3,26.8-27,41.5c-6.3,12-15.4,22.2-20.4,35c-1.1,2.7-3.9,4.7-7.4,8.6c-0.5-4.7-1.7-7.7-0.9-10
	c1.2-3.3,3.5-6.4,5.8-9.1c12.4-14.4,20.7-31.4,29.2-47.9c18.8-36.7,38.5-72.7,64.2-105c6.8-8.6,13.9-16.9,21.1-25.2
	c1.1-1.3,3.5-1.6,5.2-2.4L444.6,231.4z"/>
<path fill-rule="evenodd" clip-rule="evenodd" fill="#FFFFFF" d="M444.9,231.7c-3.8-5.6-5.9-7-9.3-4.9c-3.4,2.1-7,4.7-9.3,7.9
	c-17,24.2-34.6,48.2-49.1,74c-11.2,19.9-24.2,38.7-34.3,59.3c-4.8,9.8-10.4,19.1-15.9,28.6c-0.7,1.1-2.3,1.7-4.7,3.4
	c0.5-12.9,0.9-24.6,1.3-36.2c9.8-2.2,13.4-10.2,17.8-16.9c14.1-21.1,28-42.3,41.4-63.8c10.2-16.4,21.8-31.7,34.6-46.2
	c3.8-4.3,7.7-8.5,11.5-12.8c3.4-3.8,8.4-6.1,10.4-11.4c0.4-1.2,3.6-2,5.4-1.9c3.3,0.2,3.5,3.5,4,5.9c0.3,1.3-0.4,2.9-0.9,4.3
	c-1.1,3.5-2.2,6.9-3.3,10.4C444.6,231.4,444.9,231.7,444.9,231.7z"/>
<path fill-rule="evenodd" clip-rule="evenodd" fill="#FFFFFF" d="M426.2,213.9c-5.9,7.5-10.3,14.7-16.2,20.1
	c-11.4,10.4-17.8,24.3-27,36.1c-8,10.2-14.8,21.3-21.9,32.2c-4.3,6.5-8.1,13.3-12.2,20c-7,11.5-14.1,23-21.3,34.4
	c-0.4,0.6-1.8,0.5-2.8,0.7c-2.9-3.6,1.8-6.5,1.1-10.1c-0.7-3.5-1-7.2-1.1-10.8c-0.1-4.2,0.8-7.9,4.2-11.2c11.2-11,19-24.7,26.9-38
	c12.6-21.1,28-40,43.9-58.5c3.7-4.3,7.9-8.4,12.6-11.4C415.9,215.2,420.7,215.2,426.2,213.9z"/>
<path fill-rule="evenodd" clip-rule="evenodd" fill="#FFFFFF" d="M328.8,311.8c-6.1-12.2-0.3-21.2,5.2-28.8
	c13.8-18.9,29-36.7,43.6-55c4.2-5.3,9.8-7.3,17.3-7.4c-2,6.7-7.2,10.4-11.1,14.7c-3.4,3.8-8,6.6-9.4,12c-0.4,1.4-1.4,2.9-2.5,3.9
	c-11.1,10-16.9,23.5-24.4,35.8C342.3,295.5,335.7,302.8,328.8,311.8z"/>
<path fill-rule="evenodd" clip-rule="evenodd" fill="#FFFFFF" d="M618.9,538.2c1.9,3.5,3.6,6.6,5.6,10.3c2.2-0.2,4.6-0.4,8-0.7
	c0.6,4.8,1.2,9.6,1.8,15c-9,3.2-16.6-0.3-24.9-1.7c-0.9-6-1.6-11.4-2.5-17.3C611,542,614.6,540.3,618.9,538.2z"/>
<path fill-rule="evenodd" clip-rule="evenodd" fill="#FFFFFF" d="M354.5,229.4c4.6-1.1,9-2.1,15.6-3.6
	c-15.3,17.7-28.1,34.7-42.8,50.5c-2.2-3.5-3.1-5.6-0.5-8.9c8.3-10.5,15.2-22.1,25.1-31.3C353.1,235,353.3,232.6,354.5,229.4z"/>
<path fill-rule="evenodd" clip-rule="evenodd" fill="#FFFFFF" d="M558.8,553.7c1.4,0.4,3.2,1.5,4.2,1c2.2-1.2,4-3,5.9-4.7
	c3.5-3.1,6.7-3.7,11.1-1c7.4,4.4,7.6,4.1,15.9-2.9c3.8,4.9,1.1,9.7,1.3,15.2c-11.3,0-21.2-2.2-31.2-4.1c-2.7-0.5-2.7-6.3-7.1-3.7
	L558.8,553.7z"/>
<path fill-rule="evenodd" clip-rule="evenodd" fill="#FFFFFF" d="M695.7,334.7c1.2-10.3,0.6-18,6.3-25c6.1,1.4,12.9-1.1,19.8,3.7
	C713.2,320,707,328.1,695.7,334.7z"/>
<path fill-rule="evenodd" clip-rule="evenodd" fill="#FFFFFF" d="M559.5,489.7c-0.5-17.4,2.1-20.5,15.1-17.7
	c-0.5,4.8-1,9.8-1.6,15.7C568.3,488.4,564,489.1,559.5,489.7z"/>
<path fill-rule="evenodd" clip-rule="evenodd" fill="#FFFFFF" d="M624.1,435.3c8.3,1.7,10.9,5.6,10.6,11.5
	c-0.6,10.6-1.5,21.2-3.3,31.9C626.7,465.1,629.4,450.5,624.1,435.3z"/>
<path fill-rule="evenodd" clip-rule="evenodd" fill="#FFFFFF" d="M581.8,486.1c0.5-6.3,0.8-10.7,1.2-16c3.5-0.8,7.2-1.7,11.1-2.6
	c1,1.9,2.2,3.6,2.9,5.5c2.6,7.6,1.1,10.3-6.5,12.1C588.2,485.6,585.7,485.6,581.8,486.1z"/>
<path fill-rule="evenodd" clip-rule="evenodd" fill="#FFFFFF" d="M575,519.7c0.6,4.3,1.1,7.8,1.6,11.4c-4,5-8.8,7.1-16,3.6
	c0-3.5-0.1-7.4-0.1-11.2C564.2,519.1,568.7,518.8,575,519.7z"/>
<path fill-rule="evenodd" clip-rule="evenodd" fill="#FFFFFF" d="M619.6,512.6c0.1,5.2,0.2,9.7,0.3,15.3c-4.6,0.3-8.5,0.6-12.9,1
	c-1.1-4.6-1.9-8.3-2.7-11.6C608.1,512.4,612.6,511.9,619.6,512.6z"/>
<path fill-rule="evenodd" clip-rule="evenodd" fill="#FFFFFF" d="M620,481.4c-4.7,0.2-9.1,0.4-14.3,0.6c0.1-5,0.3-9.5,0.4-13.4
	c3.7-3.3,7.4-3.5,10.5-1.1C621,471,622.3,475.7,620,481.4z"/>
<path fill-rule="evenodd" clip-rule="evenodd" fill="#FFFFFF" d="M442,534.7c1,8.1,1.7,14.4,2.6,21.7c-5.7,0.1-10.1,0.2-16.1,0.2
	C431.7,548.2,434.7,541.3,442,534.7z"/>
<path fill-rule="evenodd" clip-rule="evenodd" fill="#FFFFFF" d="M597.3,530.6c-4.3,0.6-6.8,1-9.3,1.3c-4.5-3.4-4.5-8-4.4-13.7
	c3-0.9,6.2-1.8,10.1-2.9C595,520.5,596,524.8,597.3,530.6z"/>
<path fill-rule="evenodd" clip-rule="evenodd" fill="#FFFFFF" d="M328.4,231.5c3.8,0.3,8.3,0.6,14.5,1.1
	c-5.8,6.8-10.3,12.2-15.3,18.2C322.9,244,323.6,238.2,328.4,231.5z"/>
<path fill-rule="evenodd" clip-rule="evenodd" fill="#FFFFFF" d="M532,516.2c-3.1,0-5.5,0.3-7.8-0.1c-2.7-0.5-4.7-2.5-4.4-5.3
	c0.3-2.2,1.3-4.8,2.9-6.3c1.7-1.6,4.4-2.2,7.9-3.7C531.6,506,531.9,510.6,532,516.2z"/>
<path fill-rule="evenodd" clip-rule="evenodd" fill="#FFFFFF" d="M595.8,492.2c-0.2,5.3-0.3,8.2-0.4,11.6c-4.2,1-8,1.9-12.6,2.9
	c-0.4-2.3-1-4.1-0.9-5.9C582.5,492.6,588.9,494,595.8,492.2z"/>
<path fill-rule="evenodd" clip-rule="evenodd" fill="#FFFFFF" d="M604.7,502.7c0.2-4.4,0.3-6.9,0.5-9.9c4.7-0.8,9.1-1.6,14.3-2.6
	c0.9,3.8,1.6,7,2.5,11C616.3,501.7,611.4,502.1,604.7,502.7z"/>
<path fill-rule="evenodd" clip-rule="evenodd" fill="#FFFFFF" d="M520.9,491c-0.3-3-0.6-6-1-9.6c4.3-1,8-1.9,12.9-3
	c-0.6,3.9-0.4,7.5-1.7,10.4C529,493.4,525,493,520.9,491z"/>
<path fill-rule="evenodd" clip-rule="evenodd" fill="#FFFFFF" d="M534.5,537.6c-3.5,0.8-6.4,1.5-10.2,2.4c-1-3.1-2-6.3-3.3-10.3
	c3.5-1.2,6.2-2.8,9.1-3c2.4-0.2,2.7,2.5,3,4.5C533.3,533.1,533.9,535,534.5,537.6z"/>
<path fill-rule="evenodd" clip-rule="evenodd" fill="#FFFFFF" d="M559.6,509.3c-0.1-4.3-0.2-7.6-0.2-12c4.1-0.2,7.5-0.3,11.5-0.5
	c1.1,3,2,5.7,3.2,9.1C569.1,507.1,564.9,508.1,559.6,509.3z"/>
<path fill-rule="evenodd" clip-rule="evenodd" fill="#FFFFFF" d="M604.3,435c-8.6,1.5-8.6,1.5-12.8,10.1c-2.3,0.1-4.8,0.1-7.9,0.2
	c0.4-3.1,0.5-5.6,1-8c0.3-1.4,1.1-2.7,2-5.1c5.9,1,11.6,2.1,17.5,3.1L604.3,435z"/>
<path fill-rule="evenodd" clip-rule="evenodd" fill="#FFFFFF" d="M576.6,439c-2.1,4.5-2.7,8.1-4.8,9.4c-2.1,1.3-5.8,0.7-8.5,0
	c-1.3-0.3-2.7-3-2.6-4.6c0.1-1.5,1.7-3.9,3.1-4.2C567.1,438.8,570.6,439.1,576.6,439z"/>
<path fill-rule="evenodd" clip-rule="evenodd" fill="#FFFFFF" d="M503.4,522.3c0.3-4.8,0.1-8.2,0.9-11.3c0.4-1.3,3.1-2.7,4.8-2.8
	c3.2-0.2,3.8,2.6,3.9,5.2C513.3,518.4,509.9,520.3,503.4,522.3z"/>
<path fill-rule="evenodd" clip-rule="evenodd" fill="#FFFFFF" d="M549.6,511.5c-4.5,1.8-8,2.6-8.6-1.8c-0.3-2.7,1.1-5.9,2.7-8.4
	c0.8-1.2,3.6-1,6.5-1.7C550,504.3,549.9,507.6,549.6,511.5z"/>
<path fill-rule="evenodd" clip-rule="evenodd" fill="#FFFFFF" d="M544,489.8c0.7-5.9-2.5-10.8,1.9-14.6c0.9-0.8,2.8-0.5,4.3-0.7
	C550.5,487.6,550.5,487.6,544,489.8z"/>
<path fill-rule="evenodd" clip-rule="evenodd" fill="#FFFFFF" d="M510.5,483.4c4.2,2.2,3.8,6.1,2.4,9.3c-0.7,1.5-4.1,2.4-6.3,2.3
	c-1,0-2.6-2.9-2.7-4.6C503.7,486,506.6,484.1,510.5,483.4z"/>
<path fill-rule="evenodd" clip-rule="evenodd" fill="#FFFFFF" d="M604,435.4c3.3-0.6,6.7-1.1,10.4-1.7c0.2,2.4,0.4,3.9,0.4,5.3
	c-0.1,2.9-1.8,5-4.7,4.8c-1.7-0.1-3.7-1.6-4.7-3c-1-1.5-0.8-3.8-1.2-5.8C604.3,435,604,435.4,604,435.4z"/>
<path fill-rule="evenodd" clip-rule="evenodd" fill="#FFFFFF" d="M546.7,535.8c-1.1-2.6-2.7-5.1-3.3-7.9c-0.6-2.9,1.4-5.2,4.3-5
	c1.4,0.1,3.7,2.2,3.8,3.5C551.8,529.8,552.5,533.9,546.7,535.8z"/>
<path fill-rule="evenodd" clip-rule="evenodd" fill="#FFFFFF" d="M529.5,442.1c0.8,2.5,1.3,3.4,1.3,4.4c-0.1,2.5,0.6,5.5-3.1,6.1
	c-0.9,0.1-2.6-0.3-2.7-0.7c-0.4-2.4-0.7-4.9-0.3-7.2C524.9,443.8,527.1,443.3,529.5,442.1z"/>
<path fill-rule="evenodd" clip-rule="evenodd" fill="#FFFFFF" d="M573.4,459.5c-5.1,2.7-9.6,2.3-16.2,0.3
	C564,457,568.8,455.3,573.4,459.5z"/>
<path fill-rule="evenodd" clip-rule="evenodd" fill="#FFFFFF" d="M558.9,553.4c-0.7,0.7-1.4,1.8-2.2,2.1c-2.8,0.9-6,2.5-8.1-1.2
	c-0.3-0.6,0.2-2.3,0.8-2.6c2.9-1.6,5.8-2,8.1,1.2c0.3,0.4,0.8,0.6,1.3,0.9C558.8,553.7,558.9,553.4,558.9,553.4z"/>
<path fill-rule="evenodd" clip-rule="evenodd" fill="#FFFFFF" d="M631.5,523.1c0.8,4.9,1.6,9.8,2.4,14.8c-0.5,0.2-1.1,0.4-1.6,0.5
	c-0.9-2.3-2.3-4.6-2.6-7c-0.4-2.8-1.3-6.1,2.2-8L631.5,523.1z"/>
<path fill-rule="evenodd" clip-rule="evenodd" fill="#FFFFFF" d="M547.2,440.9c0.8,0.7,2.3,1.5,2.6,2.7c0.8,3.2-2,6.3-5.1,5.6
	c-1-0.3-2.5-2-2.4-3C542.4,443.6,543.5,441.3,547.2,440.9z"/>
<path fill-rule="evenodd" clip-rule="evenodd" fill="#FFFFFF" d="M534.5,464.3c-5.3,2-7.5,3.1-9.8,3.6c-0.9,0.2-2.3-1-3.1-1.9
	c-0.3-0.4,0.2-2,0.9-2.5C524.9,461.6,525,461.7,534.5,464.3z"/>
<path fill-rule="evenodd" clip-rule="evenodd" fill="#FFFFFF" d="M512.7,466.4c-1.1,2.3-1.3,3.8-2.3,4.5c-2.1,1.7-6.3,0.7-6.1-1.2
	c0.1-1.2,1.2-3,2.3-3.4C508.2,465.7,510.1,466.3,512.7,466.4z"/>
<path fill-rule="evenodd" clip-rule="evenodd" fill="#FFFFFF" d="M508.2,532.9c2.3,0.8,4.1,0.9,4.9,1.9c1.3,1.5-1.1,5.6-3.4,5.6
	c-1.2,0-3.3-1.3-3.3-2C506.5,536.6,507.5,534.9,508.2,532.9z"/>
<path fill-rule="evenodd" clip-rule="evenodd" fill="#FFFFFF" d="M545.1,458.6c1.7,1,2.9,1.5,3.7,2.3c0.3,0.4-0.2,2.3-0.5,2.4
	c-1.3,0.2-2.6-0.1-3.9-0.2C544.5,461.9,544.7,460.6,545.1,458.6z"/>
<path fill-rule="evenodd" clip-rule="evenodd" fill="#FFFFFF" d="M584,458.2c1.9-5.5,6.1-2.1,9.1-3C591,459.6,588,460.4,584,458.2z"
	/>
<path fill-rule="evenodd" clip-rule="evenodd" fill="#FFFFFF" d="M631,491.6c0.6,0.7,1.7,1.4,1.6,1.9c-0.4,1.8-1.2,3.5-1.8,5.2
	c-0.4-0.2-1.2-0.4-1.2-0.6c0-1.9,0.1-3.7,0.3-5.6C630,492.2,630.6,491.9,631,491.6z"/>
<path fill-rule="evenodd" clip-rule="evenodd" fill="#FFFFFF" d="M513.9,450.1c-1.5,1.3-2.4,2.7-3.4,2.8c-0.9,0.1-2.6-1.4-2.6-2.1
	c0-1,1.3-2.6,2.2-2.8C510.9,447.8,512.1,449.1,513.9,450.1z"/>
<path fill-rule="evenodd" clip-rule="evenodd" fill="#FFFFFF" d="M631.9,523.3c-1-2.8-2-5.7-2.9-8.5c3.9,2,4.3,4.9,2.5,8.3
	C631.5,523.1,631.9,523.3,631.9,523.3z"/>
<path fill-rule="evenodd" clip-rule="evenodd" fill="#FFFFFF" d="M607.2,453.6c1.8-0.3,3.6-0.8,5.3-0.8c0.5,0,1.1,1.1,1.7,1.7
	c-0.7,0.6-1.4,1.5-2.1,1.6c-1.4,0.2-2.9-0.1-4.4-0.1C607.6,455.2,607.4,454.4,607.2,453.6z"/>
<path fill-rule="evenodd" clip-rule="evenodd" fill="#FFFFFF" d="M531.2,552.9c1.4-2.6,3.3-3.4,5.6-1.2c1.4,1.3-0.7,3.1-3.1,2.6
	C532.8,554.1,532.1,553.4,531.2,552.9z"/>
</svg>
