<?xml version="1.0" encoding="utf-8"?>
<!DOCTYPE svg PUBLIC "-//W3C//DTD SVG 1.1//EN" "http://www.w3.org/Graphics/SVG/1.1/DTD/svg11.dtd">
<svg artist="zl2017" version="1.1" id="zlIcon-users" xmlns="http://www.w3.org/2000/svg" xmlns:xlink="http://www.w3.org/1999/xlink" x="0px" y="0px"
	 width="1000px" height="738.1px" viewBox="0 0 1000 738.1" enable-background="new 0 0 1000 738.1" xml:space="preserve">
<path fill-rule="evenodd" clip-rule="evenodd" d="M2.5,540.4c0.2-5.3,1.2-10.8,0.3-16c-5.7-35.6,1.8-69.9,11-103.7
	c8.2-30.1,8-60.6,7.7-91.2c-0.3-33.9,5.5-68-3-101.6c-0.5-2-0.2-4.3,0.3-6.3c9.2-34.2,5.3-69.3,7.6-103.9
	c0.7-11.3,4.6-22.4,6.2-33.7c1.4-10.5,0.5-21.5,2.8-31.7c2.1-9.1,6.8-17.7,10.9-26.4C52.3,13,63.1,7.9,77,6.6
	c48.9-4.5,97.4-3,146,4.1c24.1,3.5,48.8,2.7,73.2,4.2c37.1,2.4,74.3,5.2,111.4,7.9c42.5,3.1,84.7,6.7,127.5,0.1
	c21.9-3.4,44.9-2.2,67,0.1c32.1,3.5,63.7-0.8,95-4.9c27.3-3.5,54.4-7,81.9-8.8c40.2-2.7,80.3-6.1,120.5-9c6.4-0.5,12.9-0.7,19.2,0
	C933,2.2,946,7.2,953.7,20.1c15,25,33.3,48.4,30.2,80.7c-1.3,13.5,3.4,27.5,2.7,41.1c-1.8,31.8-1.4,63.4,2.4,95
	c3.6,30.4,1.7,61.4,9.7,91.3c1.3,5,1.3,10.9,0,15.9c-5.1,19.3,1.6,40-7.4,58.7c-0.4,0.9-0.2,2.1-0.2,3.2c-0.3,37-3.2,74.3-0.2,111
	c3.6,43.7,0,87.1-0.6,130.6c0,3.1-0.8,6.6-2.3,9.2c-13.3,21.7-25.7,44.5-53.2,51.5c-11.3,2.9-22.9,7.6-34.2,7.3
	c-37.5-1-73.9,7.3-110.8,11.3c-11.6,1.3-23.5,0.8-35.1-0.2c-21.3-1.7-42.2-3.2-63.5,1.9c-8.8,2.2-18.9-0.5-28.4-1.5
	c-7.3-0.8-14.9-4.3-21.9-3.2c-37.1,5.9-74.5-0.8-111.6,2.4c-34.9,3-70,5.2-105,7.6c-8.5,0.6-17,0.3-25.5,0.3
	c-20.2,0.1-40.6-1.8-60.5,0.5c-44.7,5.1-89.4,3.3-134.1,1.1c-27.5-1.3-55.2-1-82.1-8.8c-32.7-9.5-65.5-17.9-94.2-37.4
	c-6.5-4.4-10.6-9.6-13.4-17c-9.3-24.2-10.9-49.7-13.1-74.9c-1.7-18.9,0.7-38.2,1.3-57.3C2.4,540.4,2.4,540.4,2.5,540.4z
	 M964.4,470.7c2.4-34.9,4.7-68.4,7-101.1c-31.7-27.1-68.3-38.6-106.2-44.6c-43.9-6.9-86.3,6.2-128.7,15.6
	c-8.1,1.8-15.9,6.2-22.9,10.8c-15,10-30.5,19.8-43.9,31.7c-16.6,14.8-33.6,30.6-41.9,51.6c-10.4,26.3-17.6,54-25.6,81.2
	c-1.4,4.8,0,10.5,0,15.7c0.1,9.4,4.3,15.8,13,20c23.7,11.3,49.5,11.9,74.2,10c28.3-2.2,56.8-8.4,84.2-16.5
	c38.6-11.3,76.4-25.7,114.4-39.2c18-6.4,35.7-13.1,51.4-24.7C945.8,476.5,954.5,474.7,964.4,470.7z M740.1,102.4
	c-6.6-3.2-9.2-5.6-11.9-5.7c-19.8-0.9-36.7-9.8-53.9-18.2c-37.7-18.3-76.9-23.7-117.9-12.4c-17.4,4.8-34.8,10.3-52.6,13.4
	c-23.1,4.1-41.7,15.4-58,31.5c-10.5,10.4-20.5,21.3-29.1,30.3c-8.5,56.6,41.4,103.2,82.3,113c19.6,4.7,39.7,7.5,59.8,9.4
	c38.2,3.6,76.4-1,114.6-2.9c0.9,0,1.9-0.9,5.2-2.6c-11.6-14.4-12.2-32.7-8-48.1c8-29.5,17.5-59.4,42.4-80.7
	C721.6,122,729.2,113.3,740.1,102.4z M941.2,101.7c-13.6-14.1-28.1-18.3-45.1-17.8c-46.1,1.5-86.9,17.3-124.3,43.4
	c-23,16.1-37,39.3-42.6,65.4c-8,37.2-6.2,74.9,4.8,110.7c3.8,1.4,5.9,3,7.7,2.8c16.8-2.2,33.5-5.3,50.4-6.9
	c28.4-2.8,57-9.2,85.2,0.1c27.1,9,53.9,18.9,80.7,28.6c4.7,1.7,8.4,7,14.2,3.1c-2.4-36.9-4.6-73.8-7.2-110.7
	c-0.7-10.5-2-21-4.2-31.2C954.6,160.2,947.9,131.3,941.2,101.7z M205.5,477.1c3.6,10.2,6.7,18.8,9.7,27.3c2.8,8,5.2,16.1,8.3,24
	c13.7,34.4,37,54.1,76,57.7c29.2,2.7,57.3,1.6,85.2-4.9c35.7-8.3,64.4-25.6,78.6-62.4c8.6-22.2,6.7-40.9-8.3-59.4
	c-19.8-24.4-45.7-41.2-70.3-59.8c-3.3-2.5-7.4-5-11.4-5.4c-31.9-3.6-63.9-4.3-94.4,7.5C242.6,415.9,216.2,440.3,205.5,477.1z
	 M125.4,179.2c1.3-12.6,2.5-25.2,4.1-37.9c1.7-13.7,3.5-27.3,5.7-40.9c6-38,30-55.6,67.3-49.6c1.1,0.2,2.1,0.6,3.1,0.7
	c36.1,4,65.3,24.3,96,41c4.4,2.4,7.9,7.1,10.7,11.5c10.6,16.3,18.2,34,18.7,53.6c0.4,14.7,6.9,25.6,14.6,37.5
	c16.7,25.7,35.7,50,48.2,78.2c1.7,3.8,3.7,7.4,6.5,12.9c13.2-14.9,22.8-25.7,33.1-37.4c-3.5-4-6.3-7-8.9-10.2
	c-13.9-17.7-27.3-36.3-31.7-58.4c-6.3-30.9-6.2-61.5,21.4-84.7c9-7.5,17.3-15.8,25.6-24.1c3.3-3.3,9.3-6,5.3-14
	c-8.9-0.3-18.3-0.4-27.7-0.9c-23.4-1.2-46.9-1.1-70-4.4c-48.5-6.8-97.1-11.4-145.8-15.8c-46.9-4.2-87.7,10.2-126.7,29.4
	c-3.3,10.1-5,18.4-8.6,25.9c-10.9,22.2-17,45.1-15.1,70.2c0.9,11.6-0.6,23.3-1.2,35c-0.9,18-2,35.9-2.7,53.9
	c-0.3,8.2,4.3,11.3,12.3,9.6C78.2,230.6,99.3,203,125.4,179.2z M261.5,603.8c-42.1-14.8-67.7-41.8-81.8-78.3
	c-18.8-8-36.6-7.5-54.4-3.2c-12.2,2.9-24.9-1.5-37.2,4.8c-12.9,6.6-27.4,10.3-43.1,16c-1.4,6.7-5.1,15-4.5,23
	c2.6,31.6,6.9,63.1,17.1,93.4c4.5,13.4,11.9,26.2,26,30.7c48.8,15.4,98.5,25.3,150.5,17.9C243.2,673.6,252,640,261.5,603.8z
	 M586.3,395.5c-20.3,7.4-43.3,4-64.1,10.7c-21.8,7.1-45.7,6.6-66.6,17.9c8.9,14.7,19.9,19.6,35.7,13.8c6.9-2.5,14.6-2.7,21.9-4
	c17.6-3.2,35.1-3.8,52.5,0c0,2.2,0.5,4,0,4.3c-24.6,14.5-55.6,9.8-79.6,26.4c1.6,8.9,3.2,17.8,4.8,26.2c28.6-8.3,56.2-7.2,84.7-7.7
	c0.2-5.4-1.1-11,0.7-15.4c10.3-25.7,20.9-51.2,32.1-76.4c2.9-6.6,8-12.5,12.9-17.9c14.3-16,31-28.3,51.6-36.1
	c11.4-4.3,24.7-7.1,33.1-17.6c-5.5-15.6-9.4-31.1-27.4-39.1c-4.6,1.2-10.9,2.4-16.8,4.4c-19.3,6.6-38.7,11-59.3,7.7
	c-5.2-0.8-10.6,0-16-0.1c-44.8-0.9-88.1-10.7-131-23.1c-14.2,11.9-28.4,23.9-43.4,36.4c0,5.7,5.8,10.6,9.7,8.1
	c15.5-9.6,33.1-6.5,49.5-10c14.5-3.1,29.4-5.2,44.3-5.8c16.8-0.7,33.7,0.7,53.6,1.3c-4.2,3.9-6.5,7.8-9.4,8.5
	c-12.3,2.9-25,4.6-37.4,7.3c-31.8,7-63.2,16.3-96.2,12.8c-1.7,21.9,5.6,29.7,22.7,26.5c52.1-9.9,104.2-19.7,156.4-29
	c15.4-2.8,31-2.5,46.5,2.1c-2.3,12.3-11.5,9.5-18,10.3c-20,2.4-40.4,2.1-60,6.1c-45.7,9.4-91,20.7-138.5,31.6
	c-0.7,3.1-1.8,8.1-2.9,13.1c-1,4.7-6.1,9.3,0.4,15c23.3-2.4,47-4.9,70.6-11.1c22.4-5.9,46.1-7.3,69.3-10.2
	C579.2,381.9,585.2,384,586.3,395.5z M306.8,134.4c-10.9-5.7-20.2-10.3-29.2-15.4c-23.1-12.9-45.5-26.9-69.2-38.5
	c-14.1-6.9-30-10.3-45.1-2.3c-2.1,8.1-3.2,15.4-5.8,22.2c-10,26.1-13.9,52.5-13,80.7c0.7,21-2.5,42.2,7.7,61.6
	c8.3,15.9,16.4,32.2,27,46.5c10.3,13.8,24.7,14.1,39.2,4.2c5.2-3.6,9.8-8.8,15.6-10.8c30.9-11.1,48.8-36.1,65.7-61.7
	c7.5-11.3,11.3-24.5,13.6-38.5C316.1,164.5,309.7,149.1,306.8,134.4z M965.4,501.1c-34.3,22.2-63,44.9-100.2,50.4
	c-2.1,0.3-4,1.4-6,2.1c-25.1,8.5-49.8,19.4-75.5,24.9c-43.7,9.3-88.1,14.7-133,15c-24.2,0.1-48.4-0.1-72.7-0.1
	c-5.3,12.5-4.8,23.6,1.5,35.3c31.7,16.6,66.1,16.5,101,14.4c24.6-1.5,48-9,72-13.2c18-3.1,35.4-7.3,52.3-13.8
	c28.7-11.2,57.7-21.9,85.8-34.4c26-11.6,51.1-25.3,75.7-37.7C965.9,529.2,965.7,516.8,965.4,501.1z M571.4,493.5
	c-28.5,4.8-52.8,16.4-79.6,13.3c-3.4,11.5-6.3,21.1-9.4,31.6c22.4,5.3,41.8-8.4,63.9-2.2c-3.4,4.2-5.2,8.8-8.3,9.9
	c-7.9,2.8-16.2,4.7-24.5,5.8c-25.3,3.2-50.5,5.8-69.8,25.6c-5.1,5.2-12.6,7.8-18.6,12.2c-3.1,2.2-5.2,5.7-10.7,11.9
	c37.1-3.1,69.5-12.3,103.4-9.6c-1,3-1,4.5-1.7,4.9c-34.7,19.6-75.4,17.4-113.1,31.7c4.8,10.6,8.7,21.4,19.3,29.4
	c23.8-2,48.3-10.3,77.2-0.9c-6.1,4.7-8.8,8.2-12.1,9c-14.5,3.2-29.2,5.3-43.7,8.5c-3.7,0.8-6.9,4.1-10.9,6.6
	c2.9,5.7,5.3,10.4,7.8,15.4c22.4,3,44.3,5.6,65-1.2c7.6-20.2,14.6-38.9,21.6-57.6c-2.5-9-5-18-7.5-27c17.5-25.4,33.9-49.9,59.3-67.3
	C576.4,526.8,574.1,511.3,571.4,493.5z M406.9,697.2c-14.6-30.7-26.9-56.4-40.1-84.2c-11.4,1.3-24.8,3.6-38.4,4.3
	c-14.6,0.7-29.2-0.2-44.2-0.3c-3,6-6.3,10.4-7.6,15.3c-5.9,22.4-11.3,45-16.6,67.6c-0.6,2.8,0.4,5.9,0.8,10.2
	C308.8,705.8,355.7,701.7,406.9,697.2z M845,629.2c-7.9,25.3-19.6,46-12.4,69.8c18-0.8,35.6-1.3,53.2-2.4c8.6-0.5,14.1-7.3,13.2-18
	c-1.8-20.9-4.5-41.7-6.9-62.7c-1.6-0.7-3.4-2.1-5.3-2.2C871,613.7,861.7,628.9,845,629.2z"/>
<path fill-rule="evenodd" clip-rule="evenodd" fill="#FFFFFF" d="M964.4,470.7c-9.9,4-18.7,5.8-25.1,10.6
	c-15.6,11.7-33.4,18.4-51.4,24.7c-38,13.5-75.8,27.9-114.4,39.2c-27.4,8-55.8,14.3-84.2,16.5c-24.7,1.9-50.5,1.3-74.2-10
	c-8.7-4.2-12.9-10.6-13-20c-0.1-5.3-1.4-10.9,0-15.7c8-27.2,15.1-54.9,25.6-81.2c8.3-20.9,25.4-36.7,41.9-51.6
	c13.4-12,28.8-21.7,43.9-31.7c7-4.6,14.8-9.1,22.9-10.8c42.4-9.4,84.8-22.5,128.7-15.6c37.8,5.9,74.4,17.4,106.2,44.6
	C969.1,402.3,966.8,435.8,964.4,470.7z M671.2,429.9c2.9,15,9.8,24.6,23.3,28.7c10,3.1,21.5-3.2,24.9-13.6c2.3-7.1-3.6-16.4-13-18.8
	C695.2,423.4,683.8,421.2,671.2,429.9z M800.1,421.6c-4.4,2-11.3,4.7-17.6,8.3c-5.8,3.3-6.5,10.9-2.4,16.8
	c7.4,10.7,17.3,12.3,30.9,5.5c6.9-3.5,8.1-9.5,6.7-16.1C816.1,428,808.9,421.4,800.1,421.6z"/>
<path fill-rule="evenodd" clip-rule="evenodd" fill="#FFFFFF" d="M740.1,102.4c-10.8,10.9-18.5,19.6-27.2,27.1
	c-24.8,21.4-34.3,51.3-42.4,80.7c-4.2,15.4-3.6,33.7,8,48.1c-3.3,1.7-4.3,2.6-5.2,2.6c-38.2,1.9-76.4,6.5-114.6,2.9
	c-20-1.9-40.2-4.7-59.8-9.4c-40.9-9.8-90.7-56.4-82.3-113c8.6-9,18.6-19.9,29.1-30.3c16.2-16.1,34.8-27.4,58-31.5
	c17.8-3.2,35.1-8.6,52.6-13.4c41-11.3,80.2-5.9,117.9,12.4c17.3,8.4,34.2,17.2,53.9,18.2C730.9,96.9,733.5,99.2,740.1,102.4z
	 M572.7,120.5c-0.3,9.6-1.3,18-0.5,26.2c0.7,7.1,9.9,12.4,17.1,11.1c10.9-1.9,19.7-13.8,19.1-26c-0.4-9.3-8.5-15.6-20.7-15
	C582.6,117,577.7,119.1,572.7,120.5z M473.8,124.7c6.6,20.1,17.4,26.7,34.6,21.2c4.8-8.7,6.5-17.4,4-27.3
	c-3.9-15-12.6-18.1-24.7-7.7C482.9,115,478.8,119.7,473.8,124.7z"/>
<path fill-rule="evenodd" clip-rule="evenodd" fill="#FFFFFF" d="M941.2,101.7c6.7,29.6,13.4,58.5,19.6,87.6
	c2.2,10.2,3.4,20.7,4.2,31.2c2.6,36.9,4.9,73.8,7.2,110.7c-5.8,3.9-9.6-1.4-14.3-3.1c-26.8-9.7-53.6-19.6-80.7-28.6
	c-28.2-9.4-56.8-3-85.2-0.1c-16.9,1.7-33.6,4.8-50.4,6.9c-1.8,0.2-3.9-1.4-7.7-2.8c-11.1-35.8-12.8-73.5-4.8-110.7
	c5.6-26.2,19.6-49.4,42.6-65.4c37.4-26.1,78.2-41.9,124.3-43.4C913.1,83.4,927.6,87.5,941.2,101.7z M806.1,178.5
	c-23.7-9-31.5,4.9-38.9,19.7c6.5,8.4,15.6,10.4,25.4,9.7c2.9-0.2,5.6-2.1,9.8-3.7C803.5,196.3,804.7,188.2,806.1,178.5z M856.7,169
	c3.9,6.3,5.2,9.3,7.3,11.5c2.1,2.2,5,3.9,7.8,5.3c6.3,3.2,15,0.9,19.5-4.7c4.4-5.6,5-15.5,0.8-20.7c-4.4-5.4-11-8.1-17-5.4
	C868.8,157.8,863.8,163.4,856.7,169z"/>
<path fill-rule="evenodd" clip-rule="evenodd" fill="#FFFFFF" d="M205.5,477.1c10.6-36.8,37.1-61.2,73.5-75.3
	c30.5-11.8,62.5-11.1,94.4-7.5c4,0.5,8.1,2.9,11.4,5.4c24.6,18.6,50.5,35.4,70.3,59.8c15,18.5,16.9,37.2,8.3,59.4
	c-14.2,36.8-42.9,54.1-78.6,62.4c-28,6.5-56.1,7.5-85.2,4.9c-39-3.6-62.3-23.3-76-57.7c-3.1-7.8-5.5-16-8.3-24
	C212.2,495.9,209.2,487.3,205.5,477.1z M308.2,473.3c-6.3-3.9-13-8.5-20.1-12.2c-5.3-2.8-11-1-13.6,3.8c-5.1,9.3-6.1,19.3-1,29.4
	c2.8,5.7,7.5,7,12.8,6.5C301.6,499.1,306.5,488.4,308.2,473.3z M383.4,494.7c-2.2-8.7-6.6-15.5-14.9-19.4
	c-5.1-2.4-13.8,0.1-16.4,5.1c-4.1,7.7-1.3,21.3,6.3,25.5c7,3.9,14.3,3.2,20-3.3C380.4,500.2,381.8,497.2,383.4,494.7z"/>
<path fill-rule="evenodd" clip-rule="evenodd" fill="#FFFFFF" d="M125.4,179.2c-26,23.7-47.2,51.4-65.8,81c-8,1.8-12.6-1.4-12.3-9.6
	c0.7-18,1.8-35.9,2.7-53.9c0.6-11.7,2-23.4,1.2-35c-1.9-25.1,4.3-48,15.1-70.2c3.6-7.4,5.3-15.8,8.6-25.9
	c39-19.2,79.8-33.7,126.7-29.4c48.7,4.4,97.3,9,145.8,15.8c23.1,3.2,46.6,3.1,70,4.4c9.4,0.5,18.9,0.6,27.7,0.9c4,8-2,10.7-5.3,14
	c-8.3,8.3-16.6,16.6-25.6,24.1c-27.5,23.2-27.6,53.8-21.4,84.7c4.5,22.1,17.8,40.7,31.7,58.4c2.5,3.2,5.4,6.2,8.9,10.2
	c-10.3,11.6-19.9,22.5-33.1,37.4c-2.8-5.4-4.8-9.1-6.5-12.9c-12.5-28.2-31.6-52.6-48.2-78.2c-7.7-11.9-14.2-22.9-14.6-37.5
	c-0.5-19.6-8.1-37.3-18.7-53.6c-2.8-4.4-6.3-9.1-10.7-11.5c-30.7-16.7-59.9-37-96-41c-1.1-0.1-2.1-0.5-3.1-0.7
	c-37.3-6-61.2,11.6-67.3,49.6c-2.2,13.6-4,27.2-5.7,40.9C127.9,154,126.7,166.6,125.4,179.2z"/>
<path fill-rule="evenodd" clip-rule="evenodd" fill="#FFFFFF" d="M261.5,603.8c-9.5,36.2-18.3,69.8-27.3,104.4
	c-51.9,7.4-101.6-2.5-150.5-17.9c-14.1-4.5-21.5-17.3-26-30.7c-10.2-30.2-14.6-61.7-17.1-93.4c-0.6-8,3.1-16.4,4.5-23
	c15.7-5.7,30.1-9.4,43.1-16c12.3-6.3,25-1.9,37.2-4.8c17.8-4.3,35.6-4.7,54.4,3.2C193.8,562,219.4,589,261.5,603.8z M93.5,600.3
	c2.8,12,8.1,16.5,16.1,17.1c3,0.2,6.5-0.4,9-1.9c8.2-4.9,7.3-14.5-2.5-26.3c-3.5,1.7-7.2,3.4-10.9,5.2
	C101.6,596.2,98,598,93.5,600.3z M189.5,609.3c-2.4-2.6-5.4-8.8-10.2-10.7c-7.8-3.1-19,4.5-19.6,11.4c-0.5,5.8,7.1,13.8,14.2,15
	C181.5,626.2,188.5,620.4,189.5,609.3z"/>
<path fill-rule="evenodd" clip-rule="evenodd" fill="#FFFFFF" d="M586.3,395.5c-1-11.5-7.1-13.6-13.7-12.8
	c-23.2,2.9-46.9,4.2-69.3,10.2c-23.6,6.2-47.3,8.7-70.6,11.1c-6.5-5.7-1.4-10.3-0.4-15c1.1-5,2.2-10,2.9-13.1
	c47.5-11,92.8-22.3,138.5-31.6c19.6-4,40-3.7,60-6.1c6.5-0.8,15.7,2,18-10.3c-15.4-4.6-31.1-4.9-46.5-2.1
	c-52.2,9.3-104.3,19.1-156.4,29c-17.1,3.2-24.5-4.6-22.7-26.5c33,3.5,64.4-5.8,96.2-12.8c12.4-2.7,25.1-4.4,37.4-7.3
	c3-0.7,5.2-4.5,9.4-8.5c-19.9-0.6-36.8-2-53.6-1.3c-14.8,0.6-29.7,2.7-44.3,5.8c-16.4,3.5-34,0.3-49.5,10c-4,2.5-9.8-2.4-9.7-8.1
	c15-12.6,29.2-24.6,43.4-36.4c42.9,12.3,86.2,22.2,131,23.1c5.3,0.1,10.8-0.7,16,0.1c20.6,3.3,40.1-1.1,59.3-7.7
	c6-2,12.2-3.2,16.8-4.4c18,8,21.9,23.6,27.4,39.1c-8.4,10.5-21.7,13.3-33.1,17.6c-20.6,7.8-37.3,20.1-51.6,36.1
	c-4.9,5.5-10,11.3-12.9,17.9c-11.2,25.2-21.9,50.8-32.1,76.4c-1.7,4.4-0.5,10-0.7,15.4c-28.5,0.5-56.1-0.6-84.7,7.7
	c-1.5-8.5-3.1-17.4-4.8-26.2c24-16.6,55-11.9,79.6-26.4c0.4-0.3,0-2,0-4.3c-17.4-3.8-34.9-3.2-52.5,0c-7.3,1.3-15.1,1.5-21.9,4
	c-15.8,5.8-26.8,0.9-35.7-13.8c21-11.4,44.9-10.9,66.6-17.9C543,399.5,566,402.9,586.3,395.5z"/>
<path fill-rule="evenodd" clip-rule="evenodd" fill="#FFFFFF" d="M306.8,134.4c2.9,14.7,9.3,30.1,6.4,48.1
	c-2.3,14-6.1,27.2-13.6,38.5c-16.9,25.6-34.7,50.5-65.7,61.7c-5.7,2.1-10.3,7.3-15.6,10.8c-14.6,9.9-28.9,9.6-39.2-4.2
	c-10.6-14.3-18.7-30.6-27-46.5c-10.2-19.5-7-40.6-7.7-61.6c-0.9-28.2,3-54.7,13-80.7c2.6-6.8,3.8-14.2,5.8-22.2
	c15.1-8,31.1-4.6,45.1,2.3c23.7,11.6,46.2,25.6,69.2,38.5C286.6,124,295.8,128.7,306.8,134.4z M168.9,160.7
	c4.4,5.7,7.4,11.3,11.8,15.1c4.6,3.9,12.7,1.1,15.9-4.4c3.4-5.7,2.3-14.1-3.1-16.3c-4.5-1.9-10-3-14.8-2.3
	C175.5,153.3,172.7,157.4,168.9,160.7z M223.7,237.4c1.3-9-1.2-14.8-6.7-17.9c-3.2-1.8-8.2-1.7-12.1-1c-5.6,1-9.9,5-8.7,10.9
	c0.7,3.4,4.5,8.2,7.4,8.7C210.3,239,217.3,237.7,223.7,237.4z M262.7,160.1c-8.8-9.2-14.3-16.6-24.3-10.6c-3.3,2-5.8,5.3-9.6,8.8
	c4.8,5.9,8.5,10.6,13.3,16.5C249.2,169.8,254.9,165.7,262.7,160.1z"/>
<path fill-rule="evenodd" clip-rule="evenodd" fill="#FFFFFF" d="M965.4,501.1c0.3,15.7,0.5,28.1,0.8,42.8
	c-24.6,12.3-49.7,26.1-75.7,37.7c-28.1,12.5-57,23.3-85.8,34.4c-16.8,6.5-34.2,10.7-52.3,13.8c-24,4.2-47.4,11.7-72,13.2
	c-34.9,2.1-69.4,2.2-101-14.4c-6.3-11.7-6.8-22.8-1.5-35.3c24.3,0.1,48.5,0.3,72.7,0.1c44.8-0.3,89.3-5.6,133-15
	c25.8-5.5,50.4-16.4,75.5-24.9c2-0.7,4-1.8,6-2.1C902.4,546,931,523.3,965.4,501.1z"/>
<path fill-rule="evenodd" clip-rule="evenodd" fill="#FFFFFF" d="M571.4,493.5c2.7,17.8,5,33.3,7.5,49.9
	c-25.4,17.4-41.8,41.9-59.3,67.3c2.5,9,5,18,7.5,27c-7,18.7-14,37.4-21.6,57.6c-20.6,6.9-42.6,4.3-65,1.2c-2.6-5-4.9-9.7-7.8-15.4
	c4-2.5,7.1-5.8,10.9-6.6c14.5-3.2,29.2-5.3,43.7-8.5c3.3-0.7,6-4.3,12.1-9c-28.9-9.5-53.3-1.2-77.2,0.9c-10.6-8-14.6-18.8-19.3-29.4
	c37.6-14.3,78.4-12.1,113.1-31.7c0.7-0.4,0.7-1.9,1.7-4.9c-33.9-2.7-66.3,6.5-103.4,9.6c5.5-6.2,7.7-9.7,10.7-11.9
	c6-4.4,13.6-7,18.6-12.2c19.4-19.8,44.5-22.5,69.8-25.6c8.3-1.1,16.6-3,24.5-5.8c3.1-1.1,5-5.7,8.3-9.9c-22.1-6.2-41.5,7.5-63.9,2.2
	c3.1-10.5,6-20.1,9.4-31.6C518.6,509.9,542.9,498.3,571.4,493.5z"/>
<path fill-rule="evenodd" clip-rule="evenodd" fill="#FFFFFF" d="M406.9,697.2c-51.2,4.5-98.1,8.6-146,12.8
	c-0.4-4.3-1.4-7.4-0.8-10.2c5.3-22.6,10.7-45.1,16.6-67.6c1.3-4.9,4.6-9.3,7.6-15.3c14.9,0.2,29.6,1,44.2,0.3
	c13.6-0.7,27-3,38.4-4.3C380,640.8,392.3,666.5,406.9,697.2z"/>
<path fill-rule="evenodd" clip-rule="evenodd" fill="#FFFFFF" d="M845,629.2c16.7-0.3,26-15.5,41.8-15.3c1.9,0,3.8,1.5,5.3,2.2
	c2.4,21,5.1,41.8,6.9,62.7c0.9,10.7-4.5,17.5-13.2,18c-17.6,1-35.2,1.6-53.2,2.4C825.4,675.2,837.1,654.5,845,629.2z"/>
<path fill-rule="evenodd" clip-rule="evenodd" d="M671.2,429.9c12.6-8.7,24.1-6.5,35.2-3.7c9.4,2.4,15.2,11.7,13,18.8
	c-3.4,10.4-14.8,16.7-24.9,13.6C681,454.5,674.1,444.9,671.2,429.9z"/>
<path fill-rule="evenodd" clip-rule="evenodd" d="M800.1,421.6c8.8-0.2,16,6.4,17.6,14.5c1.3,6.6,0.2,12.6-6.7,16.1
	c-13.6,6.9-23.5,5.2-30.9-5.5c-4.1-5.9-3.4-13.5,2.4-16.8C788.8,426.3,795.7,423.6,800.1,421.6z"/>
<path fill-rule="evenodd" clip-rule="evenodd" d="M572.7,120.5c5-1.3,9.9-3.5,15-3.7c12.2-0.6,20.3,5.7,20.7,15
	c0.5,12.3-8.2,24.2-19.1,26c-7.2,1.2-16.4-4-17.1-11.1C571.4,138.4,572.4,130,572.7,120.5z"/>
<path fill-rule="evenodd" clip-rule="evenodd" d="M473.8,124.7c5-5,9.1-9.7,13.9-13.8c12.2-10.4,20.8-7.3,24.7,7.7
	c2.6,9.9,0.9,18.6-4,27.3C491.2,151.4,480.4,144.8,473.8,124.7z"/>
<path fill-rule="evenodd" clip-rule="evenodd" d="M806.1,178.5c-1.4,9.7-2.5,17.8-3.7,25.7c-4.2,1.6-6.9,3.5-9.8,3.7
	c-9.8,0.7-18.9-1.3-25.4-9.7C774.6,183.4,782.4,169.5,806.1,178.5z"/>
<path fill-rule="evenodd" clip-rule="evenodd" d="M856.7,169c7.1-5.6,12.1-11.2,18.4-14c6-2.7,12.6,0.1,17,5.4
	c4.2,5.2,3.6,15.2-0.8,20.7c-4.5,5.7-13.3,7.9-19.5,4.7c-2.8-1.4-5.6-3.1-7.8-5.3C861.9,178.4,860.6,175.4,856.7,169z"/>
<path fill-rule="evenodd" clip-rule="evenodd" d="M308.2,473.3c-1.7,15.1-6.6,25.9-21.9,27.5c-5.3,0.6-10-0.8-12.8-6.5
	c-5.1-10.1-4.1-20.1,1-29.4c2.6-4.8,8.4-6.6,13.6-3.8C295.2,464.8,301.9,469.4,308.2,473.3z"/>
<path fill-rule="evenodd" clip-rule="evenodd" d="M383.4,494.7c-1.6,2.6-3,5.5-5.1,7.9c-5.7,6.4-12.9,7.2-20,3.3
	c-7.5-4.2-10.4-17.7-6.3-25.5c2.6-4.9,11.3-7.5,16.4-5.1C376.8,479.2,381.2,485.9,383.4,494.7z"/>
<path fill-rule="evenodd" clip-rule="evenodd" d="M93.5,600.3c4.6-2.3,8.1-4.1,11.8-5.8c3.7-1.8,7.4-3.5,10.9-5.2
	c9.8,11.8,10.7,21.4,2.5,26.3c-2.5,1.5-6,2.1-9,1.9C101.5,616.8,96.3,612.3,93.5,600.3z"/>
<path fill-rule="evenodd" clip-rule="evenodd" d="M189.5,609.3c-1,11.1-7.9,16.8-15.5,15.6c-7.1-1.1-14.7-9.1-14.2-15
	c0.5-6.9,11.8-14.5,19.6-11.4C184.1,600.5,187.1,606.7,189.5,609.3z"/>
<path fill-rule="evenodd" clip-rule="evenodd" d="M168.9,160.7c3.9-3.2,6.6-7.4,9.9-7.8c4.7-0.7,10.2,0.4,14.8,2.3
	c5.4,2.2,6.5,10.6,3.1,16.3c-3.2,5.4-11.3,8.3-15.9,4.4C176.2,172,173.3,166.4,168.9,160.7z"/>
<path fill-rule="evenodd" clip-rule="evenodd" d="M223.7,237.4c-6.5,0.3-13.4,1.7-20,0.7c-3-0.4-6.7-5.2-7.4-8.7
	c-1.3-5.9,3-10,8.7-10.9c3.9-0.7,8.9-0.8,12.1,1C222.5,222.6,225,228.4,223.7,237.4z"/>
<path fill-rule="evenodd" clip-rule="evenodd" d="M262.7,160.1c-7.8,5.6-13.4,9.6-20.6,14.7c-4.8-5.9-8.5-10.6-13.3-16.5
	c3.8-3.6,6.3-6.8,9.6-8.8C248.3,143.5,253.9,150.9,262.7,160.1z"/>
</svg>
