<?xml version="1.0" encoding="utf-8"?>
<!DOCTYPE svg PUBLIC "-//W3C//DTD SVG 1.1//EN" "http://www.w3.org/Graphics/SVG/1.1/DTD/svg11.dtd">
<svg artist="zl2017" version="1.1" id="zlIcon-writing" xmlns="http://www.w3.org/2000/svg" xmlns:xlink="http://www.w3.org/1999/xlink" x="0px" y="0px"
	 width="1000px" height="720.2px" viewBox="0 0 1000 720.2" enable-background="new 0 0 1000 720.2" xml:space="preserve">
<path fill-rule="evenodd" clip-rule="evenodd" d="M43.7,77.3c-9.4-14.5-23.2-24-37.5-32.9c-3.5-2.1-7.1-3.5-5.1-9.4
	c14.6-3.7,20.9,11,34.3,15.9c-2.6-3.9-4-6.4-5.7-8.7C23.8,34.7,17.4,27.4,12,19.5C9.5,16,8.7,11.2,6.2,4.3C11.6,6,14.9,6,16.2,7.6
	c13.6,17.2,27,34.7,40.3,52.2c4.6,6,9,12.1,14.4,17.6C64.3,49.3,49.1,25.4,33.2,2.1c6.1-4.4,8.8-1.1,11,1.9
	c7,9.7,14.4,19.3,20.4,29.7c5.8,9.9,10.6,20.5,14.7,31.2c3.9,10.2,6.2,20.9,10.1,34.5c1.4-19.9-2.6-36-7.2-51.9
	c-3.7-12.7-8.3-25.1-12.5-37.7c6.4-3.1,9.9-2,12.5,3.7c9.5,20.6,15.3,42.2,18.3,64.6c2.2,16,5,32,7.4,48c0.2,1.4,0.8,3.3,0.2,4.1
	c-8.2,10.7,0.1,17.5,5.8,27.1c2-45.1-3.7-87.6-11.7-130c1.2-0.4,2.4-0.8,3.5-1.2c2.2,1.2,5.9,2.1,6.3,3.8
	c3.3,12.4,6.3,24.8,8.6,37.4c1.9,10.3,3.4,20.8,3.9,31.3c1.1,23.5,1.5,47,2,70.5c0.1,2.8-0.5,5.8-1.7,8.3
	c-3.7,7.8,0.2,12.2,7.7,17.7c1.1-7,2.3-12.4,2.7-17.8c1.2-16.1,2.3-32.2,2.8-48.4c0.2-5.6-0.9-11.4-2.2-16.9
	c-3.1-13.1-3-19.4,1.8-30.5c5.2-0.2,5.9,3.1,6.4,7.3c3.7,27.8,3.6,55.7,2.6,83.6c-0.6,15.6-4.4,31.1-6.4,46.8
	c-0.3,2.5,0.9,5.3,2.7,7.8c13.9-36.7,12.7-74.8,12.9-112.8c1-0.4,2-0.9,3.1-1.3c1.8,1.9,5.1,3.7,5.1,5.7c1.1,32.2,4.3,64.5-4.8,96.2
	c-3.5,12.2-5.7,24.7-8,37.2c-0.4,2.3,1.6,5.1,3.6,10.7c4-8.5,7.8-14.1,9.3-20.2c2.7-11.1,4.4-22.5,5.9-33.9
	c1.4-10.4,2-20.9,3.4-31.4c0.6-4.6-1-11,7.6-12.4c3.5,13.6,2.7,27.2,0.8,40.1c-2.7,19.3-7.8,38.3-12.2,57.3
	c-0.8,3.7-2.3,7.5-4.4,10.6c-7.3,10.5-4.8,20.3,1,29.9c3.5-10.2,7.4-20.4,10.3-30.9c2.5-9.2,3.9-18.7,5.7-28.1
	c0.5-2.8-0.3-6.1,0.8-8.5c0.9-2.1,3.8-3.3,5.7-4.9c1.5,2.3,4.6,4.8,4.3,6.8c-2.3,13.6-5.2,27.2-8.2,40.7
	c-3.8,16.8-7.9,33.4-11.6,50.2c-0.5,2.4,0.6,5.1,1.4,10.7c10.3-17.9,5.6-37.9,19-52.8c4.4,9.6,1.3,18.5-0.4,26.5
	c-3.5,15.7-9.5,30.9-13.6,46.5c-1.1,4,1.1,8.9,2.1,15.4c7.9-9.3,3.3-23.2,18.7-27.7c-1.4,6-2.3,10.3-3.4,14.5
	c-3.3,12.9-5.6,26.3-10.4,38.6c-4.3,10.9,0.6,20.6,1.8,30.3c2.7,22.5,4.9,44.6-1.6,66.9c17.1-2.5,30.6-12.1,41.5-30
	c-6.1-0.5-11.5-1.6-16.8-1.2c-6.2,0.5-9.9-0.8-12-8.1c12.6-3.2,24.4-4,34.9-0.4c6.9,2.4,11.5,11,17.6,16.3
	c14.5,12.8,21.3,31.1,32.8,46.2c11,14.4,13.4,33.1,9.4,51c-2.9,12.8-13.2,21.2-25.2,25.9c-15,5.8-30.3,10.9-45.6,15.7
	c-8.6,2.7-17.7,4.3-26.6,5.7c-17.5,2.7-34.9,5.4-52.5,7.2c-6.4,0.6-13.1-1.8-19.7-2c-9-0.2-10.6-6.8-13-13.2
	c-2.7-7.1-5.8-14-8.4-21.2c-3.4-9.4-5.9-19.2-10-28.3c-6.5-14.6-2.5-27.3,6.1-39c4.1-5.5,6.4-11.2,8.8-17.5
	c5-13.3,12.1-25.9,19.5-38c2.4-3.9,8.4-6.7,13.2-7.8c11.9-2.7,24-4.1,36.7-6.2c1.1-34-5.7-66.3-33.4-94c6.3-0.8,9.2-1.2,12.2-1.6
	c-0.1,5.1,2.9,7.1,9,9c-2.4-5.8-3.9-9.3-9.3-8.7c-1.3-3.3-2.1-7.1-4.1-9.9c-4.9-6.5-10.4-12.5-15.7-18.8c6.7-2,6.7-2,21.6,11.8
	c-0.2-12.7-8.3-19.2-15.7-25.8c-6.6-5.9-14.3-10.7-17.6-20.7c10.7-1.8,12.9,12,24.6,10.7c-10-19.9-32.1-27.1-41.9-46.2
	c9.6-3,11.9,5.2,16.6,8.7c5.3,3.9,10.5,8,17.1,13.1c-0.4-7.8-2.6-11.8-7.6-15.8c-13.2-10.4-25.6-21.6-38.1-32.8
	c-2.4-2.1-3.7-5.5-6.2-9.3c10.5-2.4,15.4,4.7,21.3,9.3c6.2,4.9,12.1,10.3,18.1,15.4c0.9-0.7,1.7-1.5,2.6-2.2
	c-2.5-3.6-4.6-7.7-7.7-10.6c-17-15.6-34.4-30.7-51.4-46.2c-3-2.8-9-4.7-5.4-12.7c21.8,9.1,36.3,27.1,55.2,42.5
	c-1.6-14.9-11.4-21.9-20-28.9c-16-13.1-32.7-25.2-49.1-37.8c-3.3-2.5-7.7-4.7-4.1-11c22.5,8.9,37.3,28.4,57.7,40.2
	c2.8-5.8-1.4-11.2-4.3-12.6c-18.5-8.8-29.2-27.3-46.9-37c-6.7-3.7-12.9-8.2-19.3-12.5c-4.6-3.1-9.1-6.4-15-10.6
	c5.8-4.5,9.9-3.7,13.5-1.4c12.6,7.8,25,15.9,37.4,24c4.6,3,9,6.4,14.5,10.4c-2-10.6-14.9-25-35.8-40.7c-13.9-10.4-29.4-18.6-44.1-31
	c9.6-4,14.8,1,20.6,3.4c5.3,2.2,10.4,4.5,15.7,6.8c5.2,9.3,14,14,23.2,18.1C61.2,86.8,53.1,81.3,43.7,77.3z M120,506.1
	c7.3,2.8,12.5,5.6,17.9,6.8c16.6,3.9,33.2,6.3,50.6,6c18.2-0.3,32.3-8.4,45.9-17.9c11.9-8.4,11.4-11.8,2.5-23.3
	c-12.3,9.7-23.5,20.5-38.1,27.5c-11.6,5.5-23,6.5-35.5,4.6c-14.2-2.1-25.3-10.2-38.3-17.9C123.2,496.7,121.9,500.5,120,506.1z
	 M178.2,467.1c-15.4,1.2-28.8,4.5-38.3,17.7c10.2,9.7,21.3,15.9,35.9,13.9c0.9-2.8,2.2-5,2.3-7.3
	C178.4,483.7,178.2,476.1,178.2,467.1z M119.7,546.9c-4.6,12.6,1.4,40.5,11.2,53.3C127,581.9,123.6,565.5,119.7,546.9z M265.8,533.1
	c1.5,13.4,2.9,26.7,4.4,40.1c1.5-0.2,3.1-0.3,4.6-0.5C271.9,559.3,275.3,545.3,265.8,533.1z M141.6,560.1
	c-4.3,9.3-3.3,19.3-1.1,29.3c0.9-0.1,1.9-0.1,2.8-0.2C142.8,579.5,142.2,569.8,141.6,560.1z"/>
<path fill-rule="evenodd" clip-rule="evenodd" d="M850.9,506.8c-10.4,5.3-19.8,0.1-26.2-4.3c-30.8-21.2-61-43.4-76.7-79.7
	c-5-11.7-13.5-22.1-20.6-32.9c-7.4-11.1-14.8-22.2-22.7-32.9c-9.4-12.7-18.9-25.4-29.3-37.2c-14.3-16.1-29.3-31.6-44.4-46.9
	c-7.4-7.5-15.6-14.3-23.7-21c-7.7-6.3-16.6-9.4-26.7-9.2c-13,0.3-26.3-1.4-39.1,0.4c-14.1,2-27.8,6.9-41.6,10.6
	c-18.4,5-36.8,10-55.1,15.3c-25.7,7.4-52.1,11.4-76.3,24.7c-21.2,11.7-45.1,18.4-67.7,27.5c-6,2.4-11.6,5.9-18.4,9.5
	c15.4,8.1,29.5,14.3,42.2,22.6c18.4,12,38.3,23.3,52.9,39.1c28.2,30.7,54.7,63.1,75.6,99.7c7.8,13.7,16.2,27.3,26.3,39.3
	c19.6,23.3,28.9,51.9,42.5,78.3c11.9,23.2,26,45.1,43.2,64.5c25.3,28.6,58.5,40.1,96.2,35.1c21.6-2.8,47.9-32.2,29.2-66
	c-8.9,2.1-18.1,4.2-27.3,6.3c-11.8,2.6-25.7-5.7-27.1-16.8c-0.4-2.9,1.3-6.7,3.3-9.1c6.1-7.9,14.6-12.1,24.1-14.7
	c5.4-1.5,10.5-4.1,15.6-6.4c8.7-3.9,17.4-7.8,26-11.9c9.1-4.3,18.3-8.6,27.3-13.2c11.1-5.6,22.2-11.2,33.2-17
	c12.7-6.8,24.9-14.5,37.9-20.5c20.4-9.4,41.3-17.8,62-26.6c3.9-1.7,7.6-3.7,11.5-5.4c21-9.4,41.6-19.7,63.1-27.7
	c8.6-3.2,19-2.1,28.6-2.1c2.9,0,6,2.5,8.8,4.2c17.4,10.8,28,52,18.3,70.7c-7.9,15.2-19.8,25.9-34.6,33.6
	c-43.3,22.7-86.6,45.5-130.2,67.7c-11.4,5.8-24,9.4-36,14.1c-28,11-56,22.1-84,33.2c-9.3,3.7-18.5,7.9-28,11.2
	c-36.6,12.8-70.8,8.9-103.6-12.9c-31.3-20.8-48-52.6-66.1-83.3c-8.2-13.9-13.6-29.5-21.5-43.7c-10.5-18.7-21.6-37.1-33.4-55
	c-11.6-17.6-25.6-33.7-36.2-51.8c-12.7-21.8-30.2-39.6-45-59.6c-3.6-4.8-7.9-7.4-13.5-6.3c-17.7,3.6-35.4,7.6-53.1,11.4
	c-18.2,3.9-35.9,9.4-53.8-3.1c-24-16.7-28.3-41-8.9-63.8c15.4-18.1,33.6-32,57.4-39.3c20.9-6.4,40.6-17,60.9-25.4
	c6.6-2.7,13.6-4.2,20.4-6.5c7.2-2.4,14.6-4.5,21.3-7.9c13.4-6.7,27.3-11.4,42-14.4c10.3-2.1,20.1-6.2,30.3-8.5
	c18.1-4.2,36.4-7.9,54.6-11.7c1.4-0.3,2.9-0.5,4.2-0.9c34.8-11,61.8,5,86.3,26.5c17.5,15.3,34.6,31.2,50.2,48.4
	c14.1,15.5,26.1,32.9,38.6,49.8c9.7,13.1,18.8,26.5,27.9,40c8.3,12.3,17.4,24.2,24,37.4c9.6,19.3,25.3,32.1,41.4,45.2
	C820.9,488.3,834.2,499.7,850.9,506.8z M695.5,695.9c5.4-1,7.2-1,8.8-1.6c15.1-6.1,30-12.7,45.2-18.3c32-11.7,63.1-25.2,93.3-41
	c37.4-19.6,75-38.8,112.5-58.4c6.4-3.3,12.4-7.4,18.6-11.1c10.4-6.3,18.5-14.7,17.3-27.6c-0.9-9.9-3.9-19.6-6.5-29.2
	c-4.7-17.2-21.6-25.5-38.9-20.5c-16.4,4.8-32.1,12.1-47.5,19.6c-17.6,8.5-34.1,19.2-51.7,27.6c-31.1,14.9-62.7,28.6-93.9,43.2
	c-18.6,8.7-36.9,18.1-55,27.6c-4.3,2.3-7.8,6.3-12.1,9.9C705.6,640.5,714.6,665.2,695.5,695.9z M326.4,371.2
	c-14.1-14.2-28.9-23.6-46.4-26.6c-17.8-3.1-27.8,5.3-31,23.4c-2.2,12.7,3.3,22.8,13,29.9c9.9,7.2,20.9,11.4,32.6,4
	c-1.2-7.7-2.3-14.5-3.5-21.7C302.6,377.2,313.1,374.6,326.4,371.2z M308.5,401.4c16.4-4.8,32.9-3.5,48.2-13.9
	c-9.9-5.6-18.1-10.2-24.2-13.7c-8.9,4.3-16,7.7-24,11.5C308.5,389.2,308.5,394.3,308.5,401.4z M686.2,633.2
	c-14.6-11.8-21.6-12.4-30.8-4.3c-1.8,1.6-3.5,5.6-2.6,7.2c1.3,2.6,5.2,6.2,7.1,5.8C668.1,640,675.8,636.8,686.2,633.2z"/>
</svg>
