<?xml version="1.0" encoding="utf-8"?>
<!-- Generator: Adobe Illustrator 16.0.0, SVG Export Plug-In . SVG Version: 6.00 Build 0)  -->
<!DOCTYPE svg PUBLIC "-//W3C//DTD SVG 1.1//EN" "http://www.w3.org/Graphics/SVG/1.1/DTD/svg11.dtd">
<svg version="1.1" id="Layer_1" xmlns="http://www.w3.org/2000/svg" xmlns:xlink="http://www.w3.org/1999/xlink" x="0px" y="0px"
	 width="100px" height="42px" viewBox="0 0 100 42" style="enable-background:new 0 0 100 42;" xml:space="preserve">
<style type="text/css">
<![CDATA[
	.st0{fill-rule:evenodd;clip-rule:evenodd;}
]]>
</style>
<path class="st0" d="M94.2,20c-0.2,0.7-14,10-15.5,6.3c-1.6-3.9,11.2-1.7,1.6-7.1c-4.4-2.5-8.4-5.8-13-7.8
	c-11.6-5-18.8-5.9-30.9-4.1c-6,0.9-15.2,3.5-17.1,9.6c-3.9,12.3,7.9,16,14.4,23.4c-6.8,5.2-19.2-15.1-18-21.2
	c1.3-6.8,19.8-21.4,26-16.4c5.9,2.4,13.9-1.6,20.7,3.8c4.9,3.9,16.9,9.3,23.2,10.5c0.6-2-4.1-4.7-3-6.9c1-1.9,11.1,9.6,11.3,9.6
	C94.1,19.9,94.3,19.8,94.2,20z"/>
</svg>
