<?xml version="1.0" encoding="utf-8"?>
<!DOCTYPE svg PUBLIC "-//W3C//DTD SVG 1.1//EN" "http://www.w3.org/Graphics/SVG/1.1/DTD/svg11.dtd">
<svg version="1.1" id="borders-cats-src" xmlns="http://www.w3.org/2000/svg" xmlns:xlink="http://www.w3.org/1999/xlink" x="0px" y="0px"
	 width="2834px" height="283px" viewBox="0 0 2834 283" enable-background="new 0 0 2834 283" xml:space="preserve">
<g>
	<path fill="#033649" fill-rule="evenodd" clip-rule="evenodd" d="M0,159.9c3.4-3.9,6.7-7.9,10.1-11.8c2.2-2.5,4.4-5,6.9-7.9
		c1.8,5.3,5.3,9,9.2,12.5c3.6,3.2,7,6.7,10.4,10.1c3.4,3.4,7.7,4.7,13,4.9c7.1,0.3,13.5-1.4,19.3-4.4c4.2-2.2,7.8-5.1,11.4-8
		c2.8-2.3,5.6-4.7,7.5-7.5c1.4-2,1.6-4.6,1.7-7c0.1-1.8,0.9-2.9,2.7-3.5c1.8-0.6,4.4,0.8,5.4,2.5c0.8,1.4,1.3,2.9,2.5,4.1
		c1.1,1.1,2.8,1.9,4.5,3c4.2-5.6,8.3-10.9,12.4-16.3c0.7-1,1.4-2,2.2-3c3.1-3.8,6.2-4,10.5-1.2c3.1,2,6.4,3.9,9.8,5.5
		c11.9,5.5,24.5,6.3,37.8,4c8.3-1.4,16.4-2.9,23-7.6c2.1-1.5,4.4-2.9,6.6-4.3c0.3-0.2,0.7-0.3,1.3-0.5c7.2,18.4,15.9,36.1,30.6,52.1
		c2.4-3.4,5.1-6.3,6.8-9.7c6.5-12.8,12.8-25.7,19.1-38.5c0.5-1,0.9-2,1.4-3c1.2-2.4,2.9-2.7,5.3-0.9c1.5,1.2,3,2.4,4.4,3.6
		c6.1,5.3,12.6,10.3,20.1,14.2c6.6,3.4,13.7,6.1,21.2,7.9c3.6,0.9,5.6,0.1,6.7-2.9c4.1-11.1,8.3-22.3,7.7-34.1
		c-0.3-5.1-0.3-10.2-0.5-15.3c-0.2-5.6-3-10.4-6.5-15c-2.4-3.1-4.7-6.2-6.9-9.4c-4.2-6-10.2-10.1-17.9-12.7
		c-3.2-1.1-5.9-2.7-7.4-5.4c-2.3-4.2-0.5-9.5,4.3-12.8c9.3-6.4,17.9-6.7,27.5-0.8c9.4,5.8,18.1,12.2,23.9,20.8
		c5.5,8,9.1,16.7,11.3,25.6c1.5,6,2.4,12.2,2.7,18.4c0.2,5.3-0.9,10.7-1.4,16.1c-0.2,2.1-0.4,4.2-0.6,6.3c0.2,0.1,0.4,0.2,0.6,0.3
		c0.9-1.3,2-2.6,2.8-4c1.1-2,1.9-4.1,3-6c0.5-0.8,1.2-1.7,2-2.3c3.2-2.5,5-2.3,7.9,0.3c2.4,2.2,4.8,4.5,7.7,6.3
		c7.6,4.8,16.3,4.7,25.1,2.7c5.4-1.2,10.9-2.2,14.6-6.1c2.3-2.4,4-5.2,6.1-7.7c1.9-2.2,3.9-4.3,6.2-6.7
		c10.4,18.9,20.4,37.2,30.7,55.9c1.1-1.5,2.3-2.5,2.8-3.7c4.7-9.9,9.6-19.7,13.6-29.8c2.2-5.4,3.2-11.2,4.3-16.9
		c0.6-2.7,2.4-4.4,4.7-6c0.5-0.3,2.1,0,2.8,0.5c3.8,2.5,7.4,5.2,11.1,7.8c1.3,0.9,2.5,2,3.8,2.9c2.2,1.6,3.8,1.2,4.4-1.2
		c0.8-3.4,1.6-6.8,2-10.3c1.9-15.4,11.2-27.3,24.8-37.4c5.6-4.2,10.8-8.8,15.9-13.5c6-5.4,8.5-12.4,11.6-19
		c2.2-4.7,6.1-7.9,12.3-8.8c5.1-0.8,9.4,1,11.8,4.8c3.1,4.7,3.3,9.6,1.9,14.7c-2.3,8.5-5.5,16.6-12.7,23.2
		c-5.4,4.8-11.3,9.2-16.9,13.8c-5.6,4.5-12.1,8.5-16.6,13.7c-6.1,6.9-7.2,15.2-4.7,23.6c0.5,1.7,1.5,2.1,3.6,1.8
		c7.9-1.2,13.7-4.9,18.5-9.9c2.4-2.5,4.7-5.1,7.1-7.6c0.6-0.6,1.3-1.1,2-1.5c2.2-1.2,3.8-0.6,3.9,1.7c0.3,4.8,0.1,9.6,0.8,14.3
		c1.6,10.4,3.2,20.9,5.7,31.2c1.9,7.9,5.2,15.6,7.9,23.4c0.2,0.5,0.8,0.9,1.1,1.4c0.5-0.4,1.2-0.8,1.5-1.4
		c6.9-12.4,10.9-25.3,12.6-38.8c0.4-2.9,0.9-5.8,1.5-8.7c0.6-2.8,1.7-5.4,5.7-6c0.8-0.1,2.2,0.1,2.5,0.6c6.7,8.2,16.7,11.7,28.1,13
		c9.3,1,18.5,0.5,27.2-2.9c5.1-2,8.5-5.6,12.1-8.9c2.5-2.3,4.9-4.9,9.1-5.7c0.4,5.7,0.8,11.3,1.1,16.9c0.8,15.9,3.3,31.7,7.2,47.3
		c0.9,3.6,3.6,5.7,7.3,6.2c1.4,0.2,2.1,0,2.4-1.3c3.6-14.2,7.7-28.4,10.9-42.7c1.6-7.5,1.5-15.2,2.5-22.7c0.4-2.7,1.8-5.3,2.8-8
		c0.7,0.2,1.1,0.2,1.2,0.4c5.8,6.6,14,10.2,23.1,12.7c13.2,3.6,26,3.2,38.5-2.2c3.9-1.7,7-4.1,9.6-6.9c3.7-3.9,8.2-6.8,13.5-9
		c4.7,4.1,5.4,9.5,6.8,14.6c2.8,10.3,5.4,20.6,8.3,30.9c0.4,1.6,1.3,3.1,2.2,4.5c0.3,0.5,1.3,0.8,2.2,1.3c2-9.9,3.9-19.3,5.8-28.7
		c0.3-1.2,0.9-2.5,1.7-3.5c1.2-1.6,3.1-1.7,4.3-0.1c2,2.6,4.9,4.2,8,5.6c6.3,2.8,12.1,6.2,19.3,7.3c12.4,1.9,24.6,1.6,35.6-3.9
		c4.3-2.2,7.7-5.5,11.5-8.3c2.1-1.5,4.1-3.1,6.7-5c1.5,2.4,3.1,4.2,4,6.3c4.4,10.6,8.5,21.2,14.4,31.3c3.1,5.3,7,10.2,13.2,14.3
		c3.2-4.5,6.8-8.6,9.2-13.1c9.4-17.5,16.3-35.8,22.4-54.2c0.2-0.6,0.4-1.2,0.6-1.8c1.5-3,4.4-3.4,7.4-1.1c2.9,2.2,5.6,4.8,8.9,6.5
		c16.2,8.3,39,8.5,54.5-4.4c2.2-1.8,4.3-3.8,6.7-5.5c3.2-2.2,5.6-1.4,6.4,1.9c2,8.9,4.1,17.8,5.7,26.7c1.9,10,4.7,19.9,8.5,29.5
		c0.2,0.5,0.7,0.9,1.1,1.4c0.5-0.4,1.1-0.8,1.4-1.2c3.1-5.7,4.7-11.8,5.4-18c0.4-4.1,0.4-8.2,0.5-12.2c0.1-3,1.4-3.7,4.6-2.6
		c1.5,0.5,2.9,1.3,4.3,2.1c8.3,4.8,17,8.6,27.4,9.3c10.6,0.7,20.5-1.2,29.7-5.2c7.5-3.2,14.5-7.1,21.7-10.7c0.6-0.3,1.2-0.7,1.9-1
		c4.2-2.1,6-1.5,8.1,2.1c2.7,4.3,5.6,8.5,8.7,12.6c0.9,1.2,2.4,2,3.8,3c4.7-13.3,4.3-26.1-8.7-36.2c-13.1-10.2-18.9-22.8-20.3-37.2
		c-1.3-13.1,2.8-25.2,9.1-37c4.3-8,9.9-15.3,18.7-20.5c4.1-2.4,8.5-4.5,13.7-5.1c8.4-0.9,13.6,3,12,9.8c-0.9,3.7-3,7.2-5.1,10.5
		c-4.3,6.8-8.9,13.5-13.5,20.2c-7.2,10.5-6.1,20.6,1.1,30.8c8.5,11.9,16.9,23.9,25.1,35.9c3.8,5.6,5,11.9,5.5,18.3
		c0.6,8.2-1.4,16.1-3,24.1c-0.7,3.8-1.5,7.6-2.2,11.5c0.2,0.1,0.4,0.1,0.6,0.2c1.2-2.4,2.6-4.7,3.4-7.2c3.1-9.9,6-19.9,8.9-29.9
		c1.4-4.7,2.7-9.5,4.2-14.7c1.7,1.1,3.3,1.8,4.2,2.8c4.4,5.5,10.5,8.5,18.1,10.3c8,1.9,15.8,2.9,24,1.6c8.3-1.3,14.2-5.2,18.3-11.2
		c3.2-4.7,6.6-9.4,10-14.2c3.4,2.3,4.7,5.5,6.4,8.5c7.3,12.7,14.5,25.4,23.5,37.3c1,1.4,2.1,1.9,4.1,1.9c11.7-0.1,23.4,0,35.1,0
		c0.9,0,1.8,0,2.5,0c-0.6,3.6-1.6,7-1.8,10.4c-0.1,2.8,0.3,5.7,1.1,8.4c0.8,2.8,3.1,5,6.2,6.4c12.3,5.3,25.1,7.2,38.6,3.3
		c2.8-0.8,5.5-2.2,8.4-3.4c2.1,6.7,4.2,13.4,6.5,20.6c0.9-0.6,1.8-0.9,2.1-1.5c4.6-8.9,9.9-17.6,11.2-27.4c0.3-2.2,0.3-4.5,0.4-6.7
		c0.2-3.2,1.1-6,4.2-8c9.3,5.4,19.5,9.2,30.6,10.7c15.4,2,30-0.2,43.4-7.1c2.2-1.1,4-2.6,5.9-4.1c2.5-1.9,4-1.8,5.3,0.7
		c4.5,8.8,8.7,17.6,13.4,26.3c2,3.7,4.7,7,7.1,10.5c0.4,0.6,1.4,1.2,2.2,1.3c8.3,0.7,16.6,1.3,25,1.9c1.1,0.1,2.1,0.1,3.2,0.2
		c3.1,0.2,4.3-0.5,5.1-3.1c1.4-4.9,1.6-9.9-0.7-14.7c-2.5-5.3-5.5-10.3-7.9-15.6c-5.7-12.4-7.8-25.2-6.6-38.5
		c0.9-10.2,2.4-20.2,5.9-29.9c3.6-10.1,8.8-19.5,17.7-27.3c10-8.8,22.3-12.9,37-12.2c5.1,0.3,8.8,4.7,8.3,9.6
		c-0.7,5.9-3.6,10.5-10.1,13.9c-19.3,10-29.3,24.9-31.9,43.3c-1.9,13.3,1.5,26,8.9,37.9c1.2,2,2.4,4.1,3.5,6.1
		c1.7,3.1,3.9,4.8,8,5.9c1-2.5,2.1-5.1,3-7.6c2.4-7.2,4.7-14.5,7-21.7c0.1-0.5,0.3-0.9,0.5-1.4c1.4-3.1,3.8-3.5,7.2-1.8
		c4.6,2.4,9.3,4.7,14.2,6.6c7,2.7,14.2,4.8,22,5.4c8.1,0.6,15.6-0.8,22.9-3.7c2.5-1,5-2,7.8-3.1c0.2,0.7,0.4,1.2,0.4,1.7
		c-0.3,10.9,2.8,21.5,4.9,32.2c0.5,2.7,1.2,5.4,1.9,8c0.8,3,2.2,3.6,5.8,2.8c0.7-0.1,1.7-0.1,2.3,0.2c12,5.8,23.8,4.6,35.3-0.9
		c4.2-2,8-2.8,12.4-1.1c0.8,0.3,1.7,0.4,3,0.7c1.1-3.3,2.5-6.5,3.1-9.8c2.3-12.5,4.4-25,6.2-37.6c0.5-3.2-0.5-6.5-0.8-9.7
		c-0.1-1.1-0.2-2.2-0.1-3.3c0.3-3.1,1.9-4,5.5-3c6.5,1.8,12.9,4.1,19.5,5.3c20.9,3.9,40.7,1.8,58.4-8.8c1.7-1,3.2-2.2,4.7-3.3
		c1.6-1.1,3.1-2.3,5-3.7c0.9,1.5,2,2.8,2.5,4.3c2.2,7.1,4.1,14.3,6.5,21.4c1.7,4.9,3.9,9.7,6,14.5c0.5,1.1,1.6,2,2.5,3
		c9.4-11.3,15.5-22.8,8.6-36.6c-4.8-9.5-9.4-19.2-12.7-29.2c-6.5-19.4-3.6-38.2,9.1-55.6c2.5-3.4,6.3-6.3,10-9
		c4.9-3.5,10.2-6.8,15.5-9.9c8.3-4.9,17.8-6.5,27.8-5.6c6.9,0.6,10.4,5.7,7.5,10.9c-1.9,3.4-5,5.8-9.1,7.5
		c-14.6,6.1-26.1,14.9-34.4,26.6c-4.9,6.9-5.3,14.2-3.8,21.9c2.1,10.7,5.8,21,10.9,30.9c6.8,13,6.6,26,1.2,39.2
		c-2.2,5.2-4.6,10.4-6.4,15.7c-1.8,5.1-1.9,10.5-1.4,16.2c5.7,0,11.4,0.2,17.1,0c12.6-0.5,22.6-5.4,31-13c1-0.9,3.2-2.1,3.8-1.8
		c1.6,0.8,3.2,2.2,3.6,3.6c1.6,4.9,2.5,10,3.9,15c1.8,5.9,3.8,11.8,5.8,17.7c0.2,0.5,0.8,0.9,1.2,1.4c0.4-0.4,1.1-0.7,1.3-1.2
		c2.8-6.6,6.6-13,7.5-20c0.7-5.1,1.2-10.1,1.8-15.2c0.4-3.5,2.1-6.6,4.8-9.3c3.5-3.6,5.3-7.6,6.3-12.2c2-9.1,4.7-18.1,7.2-27.1
		c0.1-0.3,0.3-0.5,0.3-0.6c3.7,2.6,7.2,5.4,11.1,7.7c11.5,6.9,24.3,8.7,38.2,6.5c8.9-1.4,17.3-4.2,25.6-7.3c2.3,1.1,2.3,2.9,1.8,4.8
		c-2.4,8.5-2.8,17.1-2.5,25.8c0.2,4.6,0.9,9.2,1.3,13.8c0.3,0.1,0.6,0.2,0.9,0.3c1.5-1.4,3.3-2.7,4.3-4.2c5.8-9.1,9-19,13-28.6
		c2.2-5.1,4-10.4,6.1-15.5c1.7-4.1,3.6-4.9,8.7-3.7c7.9,2,16.1,3.6,24.2,1.7c6.5-1.5,12.6-4,18.7-6.4c6.9-2.7,13.6-5.9,20.8-9.1
		c0.6,1.4,1.5,2.6,1.8,4c2.7,11.4,5.5,22.8,8,34.3c2.6,11.7,9.4,21.5,18.8,30.3c1.6,1.5,3.2,2.9,4.8,4.4c0.3,0.2,0.6,0.5,1.1,0.8
		c17.1-22.2,31.8-45.4,41.6-70.4c0.7,0.1,1,0.1,1.1,0.2c15.3,7.4,32.2,10.7,49.4,12.9c10,1.3,19.9-1,29.5-3.6
		c5.3-1.5,10.6-3,16.3-4.6c0.2,1.6,0.5,3,0.5,4.5c0.2,6.6,0.3,13.2,0.5,19.8c0.2,7.4,0.3,14.8,0.8,22.2c0.3,3.4,1.6,6.6,2.5,10.5
		c2.1-1.6,3.9-3,5.7-4.3c14.8-10.3,18.4-23.3,13-38.2c-2.2-6-5.2-11.7-7.9-17.6c-4.2-9.2-5.9-18.6-1.5-28.1
		c4.9-10.5,12.2-19.4,24.4-25.2c4-1.9,7.8-4.2,12-5.7c12.6-4.7,29.6-0.8,37.6,8.5c2.9,3.4,3.2,7.1,1.2,10.9
		c-1.3,2.4-3.6,3.5-6.7,3.5c-4.4,0-8.8-0.2-12.8-1.9c-4.3-1.9-8.4-1.7-12.9-0.1c-12.7,4.3-22.1,15.1-22.1,25.7c0,3,1.4,5.6,3.2,8
		c5.1,7.1,9.3,14.5,11,22.8c1.9,9.5,0.3,18.5-4.8,27.2c-3.6,6.2-6.8,12.5-10.1,18.9c-1.8,3.5-1.1,4.3,3.5,5
		c12.4,1.7,24.6,0.8,36.7-1.9c8.4-1.8,16-4.8,22.3-9.9c1-0.8,2.3-1.3,4.1-2.2c1.2,2.7,2.2,5,3.2,7.4c0.2,0.6,0.3,1.2,0.7,1.8
		c0.4,0.6,1,1,1.6,1.5c0.5-0.4,1.3-0.8,1.5-1.3c2.6-5.3,5.2-10.6,7.6-15.9c2.6-5.7,4.9-11.4,7.5-17.1c1-2.1,2.6-4.1,3.8-6.2
		c1.2-2.1,2.7-2.1,5.3-1.5c8.7,1.8,17.5,3.5,26.4,4.7c8.9,1.1,17.4-0.9,25.6-3.7c6.7-2.3,12.5-5.8,18.1-9.6c1.2-0.9,3.6-1.6,4.8-1.2
		c1.2,0.4,2.3,2.3,2.4,3.6c0.9,9.1,1.6,18.3,2.3,27.5c0.7,9.6,1.5,19.1,4.6,28.7c1.2-0.6,2.6-1.1,3.5-1.9c6.4-5.6,13.2-11,19.1-16.9
		c17.8-18,15.9-44.7-4.1-61.1c-3.5-2.8-7.1-5.5-10.8-8.2c-8.3-6.1-12.4-13.5-11.5-22.7c0.2-2.4,1.6-4.4,3.7-6
		c7.2-5.5,13.7-5.9,21.4,0.9c0.7,0.6,1.3,1.2,1.8,2c5,7.7,11.9,14.2,18.2,21.1c7.5,8.1,11.3,17.4,13.6,27.3c1.7,7.2,3,14.4,1.6,21.7
		c-1.5,7.8-5,15-9.6,21.8c-4.7,6.9-9.8,13.6-14.7,20.4c-0.1,0.1-0.2,0.2-0.3,0.3c-2.6,3.6-1.6,5.1,3.6,5.3c6,0.2,12.1,0.4,18.1,0.8
		c4.4,0.3,8.3-1,12.3-2.1c9.1-2.7,18.2-5.6,25.8-10.6c2.2-1.4,4.1-3.2,6.1-4.7c0.8-0.6,1.7-1.4,2.7-1.8c1.8-0.7,3.3-0.5,4.1,1.4
		c1.4,3.3,2.9,6.5,4.4,9.7c0.2,0.5,0.8,1.2,1.3,1.2c0.5,0,1.4-0.4,1.7-0.9c12.7-14.5,25.4-29.1,38.2-43.6c0.8-0.9,1.6-2,2.6-2.7
		c2.8-1.9,4.6-1.6,7.3,0.4c4.1,3,8.2,6.3,13,8.5c7,3.2,14.6,3.2,22,0.2c1.6-0.6,3.4-0.8,5.1-1.4c3-1.1,6.1-2.2,8.9-3.6
		c7.1-3.5,14.2-7.2,21.3-10.8c0.4-0.2,0.9-0.1,1.4-0.2c0,54.7,0,109.4,0,164.1c-944.9,0-1889.8,0-2834.6,0C0,242.3,0,201.1,0,159.9z
		"/>
	<path fill-rule="evenodd" clip-rule="evenodd" fill="#FFFFFF" d="M1130.7,154.1c10.2,0.5,19.6,4.5,24.4,14.1
		c2.2,4.4,4.9,8.7,5.2,13.7c0.3,6.8-1.7,13.1-5.5,19c-3.8,5.8-9.1,10.5-16,14c-12.2,6.2-23.7,5-35-1.7c-8.5-5.1-11.9-12.7-12.5-20.9
		c-1-12.9,5.7-23.4,16.9-32C1113.8,155.9,1121,154.1,1130.7,154.1z M1120.8,185.5c0.1-3-2.9-4.6-7.6-4.8c-2.1-0.1-4.6,2.2-4.6,4.1
		c0,2,3.9,4.8,6.7,4.9C1118.2,189.8,1120.8,187.9,1120.8,185.5z"/>
	<path fill-rule="evenodd" clip-rule="evenodd" fill="#FFFFFF" d="M71,222.3c0.8,22-19.4,35.8-39.9,38.8c-4.4,0.6-9.2,0.2-13.7-0.4
		c-5.9-0.8-10-3.9-11.2-8.8c-2.5-10.6-2-21.2,4.8-30.8c5.5-7.8,13-14.2,21.9-19.5c8.1-4.8,20.2-4,27.8,1.6
		C68.1,208.8,71,214.2,71,222.3z M55.6,219.2c0-2.9-1.9-4.9-4.8-5.4c-3.8-0.6-6.3,1.2-8.4,3.4c-3,3.1-2.8,3.5,0.5,6.1
		c2.1,1.7,4.3,1.8,6.8,0.9C52.5,223.2,55.1,221.8,55.6,219.2z"/>
	<path fill-rule="evenodd" clip-rule="evenodd" fill="#FFFFFF" d="M441.1,218.2c-0.6,16.3-12.3,31.1-32.7,35.9
		c-7.6,1.8-15.1,0.8-22.3-1.8c-5.5-2-8.6-5.5-10.2-10.2c-0.8-2.4-1.9-4.8-2.3-7.3c-0.3-1.8,0.2-3.8,0.7-5.6
		c2.9-11.9,11.2-21,22.9-27.9c11.6-6.9,24.5-5.8,35.3,2C438.2,207.6,441.1,212.7,441.1,218.2z M416.9,237.9c0-3.3-2.5-5.4-6.4-5.4
		c-3.4,0-7,3-7,5.8c0,4.1,1.9,6.2,5.5,6.2C413.4,244.6,416.8,241.8,416.9,237.9z"/>
	<path fill-rule="evenodd" clip-rule="evenodd" fill="#FFFFFF" d="M2262.4,218.4c-0.5,9-5,16.3-11.9,22.8c-6.3,6-14,10.1-23.5,11.7
		c-14.1,2.3-24.7-3.6-26.9-15.3c-1.8-9.8-0.1-19.3,7.6-27.2c4.4-4.5,9.2-9.1,14.9-12.2c11.8-6.3,30.4-5.6,36.9,9.7
		C2261,211.3,2261.5,214.9,2262.4,218.4z M2220.6,221.3c-5.4,0-9.9,3.2-9.9,6.9c0,3.5,3.1,6,7.4,6c5,0,9.3-3.1,9.3-6.6
		C2227.4,223.6,2224.8,221.2,2220.6,221.3z"/>
	<path fill-rule="evenodd" clip-rule="evenodd" fill="#FFFFFF" d="M2634.6,256.7c-5.7,0.8-9.7-1.6-13-5.4
		c-6.6-7.7-6.9-16.1-3.9-24.8c2.4-7.2,6.3-13.9,13.9-18.1c7.8-4.3,16.3-7.8,24.8-11.2c4.4-1.8,9.8,0,12.8,3.6
		c4.5,5.4,7,11.4,7.5,17.9c0.7,10.1-2.6,19.1-10.7,26.9c-7.7,7.4-17.5,11.2-29.5,11.2C2636,256.7,2635.5,256.7,2634.6,256.7z
		 M2656.4,223.1c4.5,0,9.8-4,10.2-7.7c0.3-2.7-1.5-5.1-4.5-5.9c-4.3-1.1-9.4,0.5-11.4,3.9C2648.6,217.1,2649.7,223.2,2656.4,223.1z"
		/>
	<path fill-rule="evenodd" clip-rule="evenodd" fill="#FFFFFF" d="M295.8,212.9c-0.1-9.1,3.9-15.6,11.3-20.8
		c4.9-3.5,9.5-7.2,14.1-10.9c2.8-2.2,6-3.3,9.7-2.8c6.1,0.8,12.3,1.5,18.2,2.9c7.9,1.9,10.7,7.2,11.4,13.5c1,9.6-1.8,18.2-9.9,25.4
		c-7.2,6.4-16.1,10-26.2,12.1c-8.7,1.8-15.6-0.5-22.3-5.2C295.9,222.8,296.6,217.3,295.8,212.9z M342.1,209.5c0-3-2.6-5.1-6.5-5.2
		c-3.8-0.1-8.1,3.2-8.2,6.2c-0.1,2.6,3.5,5.9,6.4,5.9C337.4,216.5,342.1,212.6,342.1,209.5z"/>
	<path fill-rule="evenodd" clip-rule="evenodd" fill="#FFFFFF" d="M2393.6,228.1c0-8.5,2.9-16.2,9-23.1c8-9,18.7-11.6,31.8-9.4
		c10.1,1.7,17.2,6.4,21.4,13.8c1.3,2.3,1.4,5.4,0.8,7.9c-2.7,13-11.9,22-26.3,27.5c-6.4,2.5-13.2,2.4-19.4-0.5
		c-5.4-2.6-10.4-5.7-15.4-8.9c-1.2-0.8-1.5-2.8-1.9-4.2C2393.4,230.2,2393.6,229.1,2393.6,228.1z M2436.1,229c4.1,0.1,9.2-3,9.3-5.8
		c0.2-2.3-4.5-6-7.7-6.1c-3.5-0.1-7.4,3.2-7.5,6.5C2430.2,226.8,2432.5,229,2436.1,229z"/>
	<path fill-rule="evenodd" clip-rule="evenodd" fill="#FFFFFF" d="M971.2,204.2c5.8-0.1,17.7,4.5,21.3,15.5c2.5,7.5,0.2,13.7-4,19.8
		c-5.9,8.4-14.2,14.7-25.8,17.4c-9.5,2.2-17.2-0.2-23.5-6.3c-5.9-5.8-7.8-12.2-5.4-19.6c2.5-7.6,6.5-14.4,13.4-19.9
		C952.8,206.5,959.5,204.3,971.2,204.2z M968.1,233.6c0,2.8,3.1,5.1,6.7,5.1c3.3-0.1,7-3.1,7-5.7c0-3-2.9-5.6-6.2-5.6
		C972,227.4,968,230.6,968.1,233.6z"/>
	<path fill-rule="evenodd" clip-rule="evenodd" fill="#FFFFFF" d="M1722.7,246c-0.1-10.3,4.8-18.8,14.3-25.4c1.1-0.8,2.3-1.6,3.7-2
		c11.3-3.3,22.8-5.1,34.7-2c6.9,1.8,9.6,6.1,11.1,11.3c1.4,4.6-0.9,8.8-3,12.8c-7.7,14.8-22,22.6-40.9,24.3
		c-9.9,0.9-18.1-3.8-19.6-14.2C1722.9,249.1,1722.8,247.5,1722.7,246z M1738.3,239.9c-0.1,1.7,0.8,2.9,2.7,3.5
		c5.2,1.8,9.8,0.1,11.7-4.2c1.4-3.3-1.5-6.6-5.7-6.9C1743.3,231.9,1738,236.5,1738.3,239.9z"/>
	<path fill-rule="evenodd" clip-rule="evenodd" fill="#FFFFFF" d="M1963.3,220.5c-0.1,3-1.7,7.8-5.1,12
		c-6.2,7.7-14.3,13.5-25.1,16.5c-10.5,2.9-23-0.5-27.5-6.1c-5.7-7.3-7.3-15.2-2.4-23.1c6.1-9.9,16.3-16.2,28.9-20
		c6.5-2,12.7-2.2,18.9,0.8C1958.7,204.4,1963.3,210.9,1963.3,220.5z M1941.1,214.5c3.6,0,7.3-2,8.5-4.6c1-2.1-2.5-7-5.2-7.3
		c-0.3,0-0.7,0-1,0.1c-3,0.7-5.4,2-7.1,4.1c-1.5,1.8-0.8,3.7,0.3,5.4C1937.5,213.8,1939.1,214.7,1941.1,214.5z"/>
	<path fill-rule="evenodd" clip-rule="evenodd" fill="#FFFFFF" d="M1530.4,208.7c-0.6,9-7.6,17.1-20,22.3c-1.6,0.7-3.3,1.2-5,1.8
		c-9.8,3.2-26.1-0.4-32.6-7.2c-7.4-7.7-7.4-16-0.4-25.3c6.9-9.2,17.4-13.1,29.8-15.2C1516.7,182.8,1530.7,192.9,1530.4,208.7z
		 M1514.8,199.2c-0.9-1-1.6-2.3-2.9-2.9c-3.4-1.6-8.6-0.2-10.6,2.6c-1,1.4-0.9,2.7,0.2,4c1.9,2.2,3.3,2.7,6.7,1.9
		C1511.9,203.8,1514.2,201.9,1514.8,199.2z"/>
	<path fill-rule="evenodd" clip-rule="evenodd" fill="#FFFFFF" d="M1177.5,152.7c10.9,0.1,17.9,5,22.7,12.2c3,4.5,5.5,9.3,7.7,14.1
		c0.7,1.7-0.1,3.8-0.4,5.8c-1.2,6.5-3,13-7.5,18.6c-3.8,4.8-8.9,8.4-15.7,10c-9.2,2.2-19-2-23.7-7c-2-2.1-1.4-4.4-0.1-6.6
		c2.6-4.5,4.2-9.1,4.7-14.1c0.6-6.8-1.3-13.2-4.8-19.3c-1.1-2-2.5-3.8-3.5-5.8c-1.5-2.9-0.6-4.5,3.1-5.2
		C1165.7,154.2,1171.6,153.5,1177.5,152.7z M1176.9,181.5c-2.8,0-5.2,1.9-5.3,4.1c-0.1,2.4,2.3,4.4,5.2,4.4c2.9,0,5.3-2,5.3-4.3
		C1182.1,183.5,1179.7,181.6,1176.9,181.5z"/>
	<path fill-rule="evenodd" clip-rule="evenodd" fill="#FFFFFF" d="M1312.6,233.2c-0.7,9.7-6.2,16.6-15.6,21.7
		c-6.1,3.3-12.7,5.2-20.1,5.1c-12.1-0.1-21.7-8.7-23.3-18.1c-2.2-13.4,8.4-26.2,24.2-30.2c7.6-1.9,14.6-1.8,21.4,1.4
		C1308.6,217.7,1311.7,225.2,1312.6,233.2z M1284.8,223.9c0-2.4-2.5-4.3-5.4-4.3c-2.7,0-5.1,2-5.1,4.3c0,2.4,2.4,4.3,5.3,4.3
		C1282.6,228.2,1284.8,226.4,1284.8,223.9z"/>
	<path fill-rule="evenodd" clip-rule="evenodd" fill="#FFFFFF" d="M1660.5,212.7c4.5,0.3,9.1,0.5,13.6,0.8
		c7.6,0.5,11.6,4.6,14.4,9.9c2.7,5.1,1.2,10.2-0.4,15.2c-4.1,12.3-15.2,19.3-31.8,20.5c-12.4,0.9-21.6-3.4-27.7-12
		c-3.4-4.7-2.7-9.9-1.2-14.9c3.4-11.8,15.5-19.4,30.2-19.4c1,0,2,0,3,0C1660.5,212.8,1660.5,212.7,1660.5,212.7z M1643.7,250.3
		c3.8,0,6.8-1.1,8.9-3.3c2.6-2.7,2.2-6.6-0.8-8.9c-3-2.3-7.1-2.2-10.1,0.6c-1.7,1.5-3.1,3.4-3.8,5.3
		C1636.6,247.5,1639.4,250.3,1643.7,250.3z"/>
	<path fill-rule="evenodd" clip-rule="evenodd" fill="#FFFFFF" d="M1912.9,168c-0.1,5.4-3.8,11.9-9.4,17.8
		c-6.1,6.5-13.7,11.4-23.5,13.6c-9,2-19.3-1.7-22.6-8.2c-3.3-6.7-5.1-13.5-0.9-20.6c3.7-6.3,7-13,13.9-17.4
		c8.5-5.4,18.1-7.7,28.6-4.5C1907.7,151.3,1912.9,158.2,1912.9,168z M1874.7,191.6c0.1,0.2,0.2,0.4,0.3,0.5c2.4-0.9,5-1.6,7.2-2.8
		c2.2-1.2,3.1-3.2,2.4-5.4c-0.6-2-2.3-3.1-4.6-3.5c-2.8-0.5-5.3,0.1-6.6,2.2c-1.1,1.9-1.8,4-2.2,6.1
		C1870.9,190.5,1872.3,191.6,1874.7,191.6z"/>
	<path fill-rule="evenodd" clip-rule="evenodd" fill="#FFFFFF" d="M436.8,244.3c2.3-5,4.6-10.1,7-15c3.9-7.9,2.5-15.4-1.9-22.9
		c-0.8-1.4-1.6-2.8-2.4-4.2c-0.8-1.4-0.2-2.6,1.3-3.3c13-7.1,36.4-7.2,46,8c2.3,3.6,3.4,7.4,2.4,11.5c-1.7,7.3-3.3,14.7-8.1,21.1
		c-6,7.9-14.6,12.7-26.2,13.1c-4.9,0.2-9-1.5-12.6-4.1C440.3,247.2,438.6,245.8,436.8,244.3z M452.3,239.8c-0.2,1.8,1.2,3,3.1,3.8
		c2.1,0.9,4.5,1.7,6.4,0c1.8-1.6,3-3.6,4.4-5.5c0.2-0.2,0.2-0.7,0.1-1c-0.8-2-4.9-4.2-7-3.8C455.7,234,452.3,237,452.3,239.8z"/>
	<path fill-rule="evenodd" clip-rule="evenodd" fill="#FFFFFF" d="M726.6,175.6c0-8.4,4-14.3,10.6-19.1c4.5-3.3,9.7-5.9,15.6-7.5
		c11.4-3.1,20.4,0.8,23.6,10.3c1.3,3.9,2.5,7.8,3.3,11.7c0.4,2,0,4.3-0.8,6.2c-4.9,10.6-13.9,17.9-27.2,21.2c-8,2-13.2,0.2-17.6-5.5
		C729.7,187.3,726.6,181.4,726.6,175.6z M749,171.8c-0.3-0.3-0.9-1.4-1.9-1.7c-1.9-0.6-4.4-1.6-5.9-1.1c-1.9,0.6-3.4,2.5-4.4,4.2
		c-1.4,2.6,1.4,5.6,4.7,5.5C744.9,178.6,749,175.1,749,171.8z"/>
	<path fill-rule="evenodd" clip-rule="evenodd" fill="#FFFFFF" d="M2333.1,152.9c-0.1,6.2-1.4,12.2-5.6,17.5
		c-6,7.6-14.9,11.3-25.7,12.3c-2.2,0.2-4.5,0.1-6.7,0.2c-12.9,0.3-22.8-13.9-16.3-24.5c6-9.8,14.8-17.5,26.1-23.3
		c2.8-1.4,5.9-1.6,9.1-1.1c10,1.4,18.3,8.3,19.1,15.8C2333.2,150.9,2333.1,151.9,2333.1,152.9z M2323.1,156.9
		c0.1-3.2-2.7-5.2-6.6-4.8c-6.1,0.7-8.4,6.3-6.8,9.9c0.3,0.7,1.7,1.4,2.7,1.4c1.9,0,3.8-0.3,5.6-0.7
		C2321.3,161.9,2323,159.7,2323.1,156.9z"/>
	<path fill-rule="evenodd" clip-rule="evenodd" fill="#FFFFFF" d="M116.7,221.5c-1.6,10.1-3.9,20.9-14.2,29
		c-4.8,3.8-10.5,5.6-17.3,4.1c-4.2-0.9-8.5-1.7-12.7-2.8c-4.5-1.2-5.4-3.4-3.1-6.8c4.1-6,6.9-12.4,7.3-19.3
		c0.3-5.4-1.4-10.5-3.8-15.5c-2.4-5-1.8-6.6,4.3-8.7c10-3.5,19.3-1.7,28.1,2.8C112.6,208,116.6,213.4,116.7,221.5z M100.4,212
		c-3.7,0-6.5,1.5-8.6,3.8c-1.8,2,0.6,7.1,3.3,6.9c2.9-0.2,5.9-0.8,8.5-1.8c2.8-1,3.4-3,2.5-5.6C105.3,213.1,103.6,212,100.4,212z"/>
	<path fill-rule="evenodd" clip-rule="evenodd" fill="#FFFFFF" d="M902.8,175.7c0,16.4-10.2,27.3-30,32.4c-1.2,0.3-2.4,0.6-3.6,0.8
		c-6.8,1.4-12.4-1.2-14.9-6.6c-8-17.4,3.9-34,19.8-41.6C886.6,154.7,903.9,164.6,902.8,175.7z M888,178.1c-2.7,0.1-6.2,3-6.1,5.1
		c0.1,1.9,3.3,4.1,5.7,4.1c3.6-0.1,6-2.4,5.9-5.6C893.5,180.1,890.3,178,888,178.1z"/>
	<path fill-rule="evenodd" clip-rule="evenodd" fill="#FFFFFF" d="M1551.6,230.2c-4.5-1-9.1-1.9-13.6-3c-2.1-0.5-4-1.2-6.1-1.8
		c-2.8-0.9-3.5-1.8-2.8-4.2c1.1-3.8,2.4-7.6,3.6-11.5c1.7-5.9,1.4-11.6-2.7-16.9c-1.8-2.3-1.3-4.1,1.2-6.3
		c4.4-3.9,10.1-5.6,16.3-6.4c9.8-1.2,18.2,0.9,24.5,7.5c3.3,3.5,5,7.5,4.3,12c-0.7,4.6-0.8,9.4-2.2,13.9c-1,3.4-3.2,6.7-5.5,9.7
		c-3.3,4.4-9.2,6.3-16.9,6.3C1551.7,229.8,1551.6,230,1551.6,230.2z M1553.4,201c4,0.1,7.4-1.8,7.5-4.1c0.1-2.3-3.4-5.5-6-5.5
		c-2.9,0-6.5,3-6.6,5.5C1548.1,199.5,1549.9,200.9,1553.4,201z"/>
	<path fill-rule="evenodd" clip-rule="evenodd" fill="#FFFFFF" d="M1250.2,249.9c-7.2,3.6-14.8,5.5-23.2,3.5
		c-10.3-2.3-18.7-11.6-19-20.6c-0.2-6.4,2.4-11.5,8.3-15.6c5-3.5,9.8-7.2,16.1-9c8.7-2.6,17.4-2.1,26,0.6c5.4,1.7,6.2,4.6,2.2,8.1
		c-3.5,3.1-6.4,6.6-8.2,10.6C1249,234.7,1248.6,242.1,1250.2,249.9z M1234.3,224.9c3,0,5.5-1.8,5.6-4.1c0.1-2.4-2.2-4.5-5.1-4.5
		c-2.9,0-5.3,1.9-5.4,4.2C1229.4,223.1,1231.4,224.9,1234.3,224.9z"/>
	<path fill-rule="evenodd" clip-rule="evenodd" fill="#FFFFFF" d="M2721.1,223.7c-0.3,7.3-3.6,13.1-8.7,18.4
		c-6.4,6.6-14.6,10.4-24.8,10.9c-5.2,0.2-10.1-1.2-14.4-3.7c-2-1.2-2-2.9-1.1-4.6c1.7-3.4,3.7-6.8,5.3-10.3
		c3.7-8.3,4.1-16.7,0.6-25.2c-0.8-1.9-0.4-3.3,1.9-4.3c9.3-3.9,18.5-3.9,27.5,0.5C2715.9,209.5,2720.6,215.8,2721.1,223.7z
		 M2704.1,215.6c-0.1-2.8-3.5-6.2-6.3-6.2c-3.3,0-8.5,4.7-8.6,7.8c-0.1,1.6,4.6,4.9,6.9,4.9C2699.4,222,2704.1,218.2,2704.1,215.6z"
		/>
	<path fill-rule="evenodd" clip-rule="evenodd" fill="#FFFFFF" d="M514.3,138.8c10.3,0.1,20.4,7.7,20.8,16.3
		c0.3,6.2-1,12.4-5.2,17.8c-5.5,7.1-14,10.1-23.9,10.8c-2.9,0.2-5.9,0-8.9-0.2c-5.4-0.4-8.7-2.9-9.4-7.2c-0.7-4.7-1.7-9.4-1.6-14.2
		c0.2-10.2,10.3-19.9,24.3-22.8C511.7,139.2,513,139,514.3,138.8z M512.8,157.8c-4,0.2-6.3,2.1-6,4.8c0.2,2.1,3,3.9,5.7,3.8
		c2.7-0.1,4.9-2.3,4.7-4.6C517.2,159.6,515,157.7,512.8,157.8z"/>
	<path fill-rule="evenodd" clip-rule="evenodd" fill="#FFFFFF" d="M1036.2,226.8c-0.4,10-4.1,17.2-13.4,22.5
		c-9.7,5.5-19.3,6.2-29.6,1.9c-3.9-1.6-4.5-2.9-2.7-6.2c1.9-3.7,4.2-7.3,5.7-11.1c2.7-7.1,2.2-14.1-1.3-21c-2.7-5.2-1.3-7.7,5.5-9.2
		c12.2-2.7,29.7,0.8,34.7,16.9C1035.7,223,1035.9,225.4,1036.2,226.8z M1018.9,238.9c2.9,0,6.9-3.3,6.9-5.7c0-1.9-4.3-5.8-6.3-5.7
		c-2.2,0-7.7,4.2-7.8,5.8C1011.6,234.7,1017,238.8,1018.9,238.9z"/>
	<path fill-rule="evenodd" clip-rule="evenodd" fill="#FFFFFF" d="M1831.1,233.4c-0.3,12.3-6.3,20.7-18.2,26.1
		c-4.4,2-9.3,2.5-13.9,1.1c-4.9-1.5-9.7-3.5-14.4-5.5c-2.7-1.2-3.2-2.6-2-5c1.7-3.5,3.8-6.9,5.5-10.4c2.4-4.9,2.8-10,1.3-15.2
		c-1.4-5.1,0.4-8.2,6.3-10.4c7.1-2.6,14.2-0.9,21,0.8c6.9,1.7,11.2,5.7,13,11.4C1830.6,229,1830.8,231.8,1831.1,233.4z
		 M1800.2,244.2c2.9-0.4,5.6-1.5,7.3-3.8c0.3-0.4,0.5-1.3,0.2-1.7c-1.6-1.9-3.2-3.9-5.1-5.6c-1-1-2.5-0.8-3.4,0.2
		c-1.6,1.8-3.3,3.6-4.3,5.6C1793.5,241.3,1796.3,244.2,1800.2,244.2z"/>
	<path fill-rule="evenodd" clip-rule="evenodd" fill="#FFFFFF" d="M1439.7,213.2c0.1,13.8-9.3,22.8-22.9,29.1
		c-7.7,3.6-17.3-0.3-20.6-7.6c-5.5-12.3-1.2-23.1,8.1-32.9c2.3-2.4,5.2-4.4,8.1-6.3c7.5-5,12.9-4.1,20.1,1c5.7,4,6.9,9.5,7.1,15.3
		C1439.8,212.3,1439.7,212.7,1439.7,213.2z M1415.2,213.5c2.7-0.2,4.4-1.6,5.5-3.2c2.8-3.9,2.6-3.9-1.9-6.3
		c-2.1-1.1-4.2-0.7-6.2,0.9c-2,1.5-2.8,3.7-1.8,5.3C1411.7,211.7,1412.9,213.2,1415.2,213.5z"/>
	<path fill-rule="evenodd" clip-rule="evenodd" fill="#FFFFFF" d="M258.1,200c0.2-13.9,7.6-23.4,21.3-29.6
		c5.9-2.7,12.3-2.3,18.6-0.9c5,1.1,9.5,2.8,13.1,6c2.7,2.3,2.9,4.2,0.4,6.6c-3.8,3.5-7.8,6.8-11.5,10.4c-5.8,5.5-9.3,11.8-9.2,19.3
		c0,2-2.9,4.6-5.8,4.5c-5.1-0.1-10.3-0.3-15.3-1.1c-6.6-1.1-9.9-5.1-11-10.4C258.3,203,258.2,201,258.1,200z M285.2,199.2
		c2.9,0,7.2-4,6.8-6.3c0-0.2-0.1-0.4-0.3-0.6c-2.6-2.8-7.2-2.9-10.3-0.3c-1.5,1.2-2,2.7-1.1,4.2
		C281.3,197.9,282.8,199.1,285.2,199.2z"/>
	<path fill-rule="evenodd" clip-rule="evenodd" fill="#FFFFFF" d="M2498,218.2c-0.1,9-7.5,22.2-21.9,26.9
		c-8.2,2.7-15.5,1.7-22.1-3.1c-3.9-2.8-3.7-2.8-1.8-6.7c2.7-5.4,5.5-10.9,7.7-16.5c1.5-3.8,0.6-7.8-1.4-11.5
		c-2.2-4.2-1.1-6.8,3.9-8.9c3.9-1.7,8.2-2.3,12.5-1.8c1.7,0.2,3.5,0.7,4.8,1.5c4.6,2.7,9.3,5.4,13.5,8.6
		C2496.9,209.5,2498.2,213.4,2498,218.2z M2485.3,225.1c0-3-1-3.9-4.4-4.1c-6.4-0.3-11.1,4.1-9.6,9.3c0.2,0.8,1.2,1.7,2.1,1.9
		C2479.4,233.8,2485.3,230.2,2485.3,225.1z"/>
	<path fill-rule="evenodd" clip-rule="evenodd" fill="#FFFFFF" d="M2001.7,216.3c-0.1,10.3-3.4,19-11.5,26.2
		c-5.7,5-12.6,7.9-21.2,7.2c-4-0.3-7.4-2-10.3-4.2c-2.4-1.9-2.8-3.4-1.3-5.8c2.1-3.5,4.4-7,6.5-10.5c4.3-7.1,4.8-14.2,0.1-21.3
		c-1.6-2.3-1.2-3.4,1.1-5.2c7.6-6.1,20.5-6,28.7,0.2C1998.7,206.6,2002.1,210.9,2001.7,216.3z M1979.9,215.3c4.5,0,6.8-2.1,6.8-6.4
		c0-1.7-3.9-4.6-6.2-4.6c-3,0-6.5,3.2-6.5,6C1973.9,213.5,1976.1,215.3,1979.9,215.3z"/>
	<path fill-rule="evenodd" clip-rule="evenodd" fill="#FFFFFF" d="M1282,184.6c-11.9,0-21.7-8.9-23.1-18.9
		c-1.7-12.1,12-21.5,24-21.7c9.4-0.2,20.2,2.6,24.6,10.7c3.2,5.9,2.7,11.6-1.3,17.1C1301,179.2,1290.8,184.6,1282,184.6z
		 M1282.3,168.2c0,2.3,2.4,4.3,5.1,4.3c2.9,0,5.4-1.9,5.4-4.3c0-2.3-2.4-4.3-5.1-4.3C1284.7,163.9,1282.3,165.9,1282.3,168.2z"/>
	<path fill-rule="evenodd" clip-rule="evenodd" fill="#FFFFFF" d="M2181,248.5c-12.1,0-18.8-5.7-18.9-15.7
		c-0.1-5.8,0.1-11.6,2.9-17.1c5-9.9,13.7-16.5,25.8-20.2c5.4-1.6,10.8-1.1,15.8,1.2c2.8,1.3,2.9,2,1.7,4.5
		c-3.5,6.8-7.1,13.6-10.2,20.6c-2.9,6.4-2.9,12.9-0.5,19.4c0.8,2.3,0.2,3.4-2.5,4.4C2190.6,247.2,2186,248.5,2181,248.5z M2187,224
		c0-3.3-1.7-4.9-5.8-4.5c-2.5,0.2-5.1,1-7.3,2.1c-3,1.4-4,3.9-3.2,5.9c0.9,2.3,4.6,4.7,7.4,4.9C2183,232.5,2187.1,228.8,2187,224z"
		/>
	<path fill-rule="evenodd" clip-rule="evenodd" fill="#FFFFFF" d="M2375.6,158.6c0.9,12.4-8.8,22.3-21.5,25.1
		c-2.7,0.6-6,0.8-8.4,0.1c-4.4-1.4-8.6-3.4-12.5-5.6c-3.1-1.8-3.4-4.2-1.6-7.1c3-4.6,5.2-9.3,5.3-14.5c0-3-0.2-6-0.7-8.9
		c-0.4-2.8,0.6-4.8,3.2-6.6c6.7-4.7,13.8-5.4,21.5-1.8c4,1.9,8.3,3.4,11.1,6.7C2375.2,149.8,2375.9,154.2,2375.6,158.6z
		 M2359.2,156.4c-4.7,0-7.3,1.9-7.2,5.1c0,2.9,3,5.9,5.9,5.9c3.2,0,6.6-3.3,6.6-6.4C2364.4,157.7,2362.9,156.4,2359.2,156.4z"/>
	<path fill-rule="evenodd" clip-rule="evenodd" fill="#FFFFFF" d="M1074,155.2c0,12.2-10,20.7-24.9,21.1c-2.6,0.1-5.3,0.2-7.9-0.1
		c-8.6-0.9-14-5.7-15.2-13.3c-1.6-10.5,6.9-22.6,18.9-26.3c11.7-3.6,21.8-1,26.3,7.7c1.8,3.4,2.3,7.2,3.4,10.8
		C1074.4,155.1,1074.2,155.1,1074,155.2z M1043,159.2c-4,0-6.5,1.9-6.5,5.1c0,2.6,2,4.3,5.3,4.3c4.1,0.1,6.4-1.9,6.4-5.5
		C1048.3,160.5,1046.6,159.3,1043,159.2z"/>
	<path fill-rule="evenodd" clip-rule="evenodd" fill="#FFFFFF" d="M941.4,181.3c-0.3,9.4-5.6,16.7-14.1,22.5
		c-3.1,2.1-6.2,4.3-10.4,4.9c-3.1,0.5-5.9,0-8.5-1.4c-2.1-1.1-4.2-2.2-6.3-3.2c-3.8-1.8-4.3-3.3-2.4-6.5c2.5-4.3,5.2-8.5,7.1-13
		c2.6-6.1,1.9-12.2-1.3-18.1c-2.2-4-1.3-5.9,3.6-7.8c5.7-2.2,11.3-2.1,16.5,0.9c7.2,4.2,13,9.3,15.2,16.6
		C941,177.9,941.1,179.6,941.4,181.3z M930.4,183.6c-0.3-0.4-0.8-1.2-1.7-1.8c-1.7-1.1-5.2-0.9-7.1,0.3c-2.1,1.3-3.1,3.3-2.2,5
		c0.6,1.4,2.8,2.8,4.6,3.2C925.9,190.7,930.4,186,930.4,183.6z"/>
	<path fill-rule="evenodd" clip-rule="evenodd" fill="#FFFFFF" d="M2784.7,198.4c-5.9-0.1-10-2.3-12.4-6.5
		c-5.9-10.7-2.7-23.2,8.1-30.9c1.9-1.3,4.4-2.1,6.8-2.7c2.7-0.7,5.5-1,8.2-1.6c9.3-2.2,14.3,0.4,19.1,6.4c3.6,4.5,4.5,9.2,2.2,14.6
		c-5.1,11.8-14.8,18.9-30,20.6C2786,198.3,2785.3,198.3,2784.7,198.4z M2790.7,174.2c-5,0-10.2,3.6-11,7.5c-0.5,2.5,0.8,4.1,3.8,4.5
		c6.4,0.9,12-4,10.8-9.5C2794,174.9,2792.9,174.1,2790.7,174.2z"/>
	<path fill-rule="evenodd" clip-rule="evenodd" fill="#FFFFFF" d="M776.8,190.3c1.8-3.7,3.4-7.3,5.4-10.8c3.7-6.8,3-13.5-0.3-20.2
		c-2.2-4.4-1.3-6.2,3.8-8.4c5.9-2.5,11.6-2.8,17.2,0.7c1.7,1.1,3.8,2,5.7,2.9c6.6,3,10,7.5,11.1,13.6c2.2,12.4-9.3,23.3-18.2,26.2
		C792.2,197.4,784.2,195.4,776.8,190.3z M793.9,179c1.5-1.3,2.9-2.4,4.1-3.7c1.1-1.1,0.4-3.7-1.3-4.6c-1.6-0.8-2.9-0.3-4,0.9
		C788.7,175.5,788.7,175.6,793.9,179z"/>
	<path fill-rule="evenodd" clip-rule="evenodd" fill="#FFFFFF" d="M1630.6,220.8c-10.4,11.7-11.8,23.3-1,35
		c-5.5,4.6-12,6.7-19.7,6.5c-1.7,0-3.5-0.3-5.2-0.5c-10.9-1.3-18.1-8-18.2-17c-0.1-7.1,3.8-13,9.1-18.3c8-8.2,18.9-9.3,30.6-8.1
		C1627.7,218.5,1629,219.8,1630.6,220.8z M1607.8,256.2c4.3,0,8.1-2.7,8.1-5.8c0-2.7-3.1-5.4-6.2-5.5c-3.7-0.1-7.5,3.4-7.5,6.9
		C1602.1,254.9,1603.9,256.2,1607.8,256.2z"/>
	<path fill-rule="evenodd" clip-rule="evenodd" fill="#FFFFFF" d="M653.3,250.3c-9.6,0-17.9-6.2-19.9-14.5c-1.5-5.8,1.4-10.5,5-15.1
		c1.8-2.3,4.2-4.4,6.5-6.4c1.8-1.6,3.9-2.1,6.7-1.5c2.5,0.6,5.3,0.5,7.9,0.4c5.9-0.3,10.4,1.4,13.6,5.6c2.7,3.4,5.7,6.7,6.2,11
		c0.8,8-3.7,13.6-11.7,17.5C663.2,249.4,658.4,250.3,653.3,250.3z M661.2,224.7c-3.4,0-4.6,1.1-4.6,4.3c0,3.3,2,5.1,5.7,5.2
		c3.7,0.1,6-1.7,6-4.7C668.4,226.1,666.3,224.8,661.2,224.7z"/>
	<path fill-rule="evenodd" clip-rule="evenodd" fill="#FFFFFF" d="M531.3,179.7c1.5-2.7,3-5.3,4.6-7.9c3.8-6.3,4.6-13,3.2-19.9
		c-0.1-0.7-0.3-1.3-0.3-2c-0.9-6.2,2.4-9.2,10.1-9.3c6.1-0.1,12,0.7,16.9,3.9c6.9,4.5,9,10.7,7.3,17.4c-1.3,5-3.9,9.8-6.2,14.5
		c-1.3,2.5-3.9,4.2-7.1,5.1c-3.4,0.9-6.7,1.9-10.2,2.7C542.3,185.7,536.7,183.2,531.3,179.7z M557.7,164.6c0-2.4-2.4-4.4-5.5-4.4
		c-2.5,0-4.9,2.1-4.9,4.2c0,2.3,2.3,4.3,5,4.4C555.1,168.9,557.6,167,557.7,164.6z"/>
	<path fill-rule="evenodd" clip-rule="evenodd" fill="#FFFFFF" d="M1391.8,189.5c3.4,0.5,6.4,0.8,9.4,1.5c4.7,1.1,5.6,3.6,2.9,7
		c-3.3,4.3-7.1,8.4-9.6,13c-1.8,3.4-2.1,7.5-2.8,11.3c-0.4,2.7-0.2,5.4-0.3,8.2c0,1.6-0.9,2.5-2.9,2.8c-2,0.4-4,1-5.9,1.6
		c-10.8,3.4-21.9-2.8-22.2-12.3c-0.3-10.2,4.6-18.5,13.5-25.3c3-2.3,6.3-4.4,9.9-6C1386.3,190.1,1389.3,190,1391.8,189.5z
		 M1382,208.3c3,0,6.3-2.4,6.2-4.9c-0.1-1-1.4-2.1-2.4-2.8c-0.5-0.3-2.1-0.2-2.6,0.2c-1.6,1.3-3.1,2.7-4.2,4.2
		C1378.1,206.2,1380.2,208.3,1382,208.3z"/>
	<path fill-rule="evenodd" clip-rule="evenodd" fill="#FFFFFF" d="M1348.4,166.6c0.1,7.2-4.5,12.3-10.8,16.7c-3.5,2.4-7,5-11.9,5.1
		c-7.2,0.1-13.3-1.9-18.1-6.3c-1.9-1.7-1.5-3.3,0-5.2c2.1-2.7,4.1-5.4,5.9-8.3c3-4.8,1.1-9.5-1.2-14.1c-0.5-1.1-1.1-2.3-1.7-3.4
		c-1-1.9-0.3-3.2,1.9-4c9.5-3.4,17.7-3.8,26.4,3.3c4.6,3.8,8.5,7.8,9.3,13.4C1348.3,164.7,1348.3,165.6,1348.4,166.6z M1330.1,174.5
		c0-2.3-2.3-4.3-5-4.4c-2.9-0.1-5.4,1.9-5.4,4.2c0,2.3,2.3,4.3,5,4.4C1327.6,178.7,1330.1,176.8,1330.1,174.5z"/>
	<path fill-rule="evenodd" clip-rule="evenodd" fill="#FFFFFF" d="M1852.6,191.8c-6,0.9-11.7,2.3-17.4,2.6
		c-9.7,0.4-17.8-6.1-18.4-14c-0.6-9,3.1-16.5,11.2-22.6c7.7-5.8,19-7,28.2-3c3.6,1.6,4.1,2.9,2.3,5.9c-2.2,3.8-4.5,7.6-6.4,11.5
		c-2.8,5.8-1.9,11.6,0,17.4C1852.3,190.1,1852.4,190.8,1852.6,191.8z M1844.4,183.1c0-3.1-2.1-4.7-6.2-4.6c-3.5,0.1-7.5,3.2-7.4,5.9
		c0,1.7,5.2,6.2,7.2,6.2C1841.2,190.5,1844.4,186.8,1844.4,183.1z"/>
	<path fill-rule="evenodd" clip-rule="evenodd" fill="#FFFFFF" d="M665.8,192.6c-5.8-0.4-10-3-13.3-6.4c-7.6-7.7-6.6-21.1,1.9-28.2
		c3.6-3,7.8-3.6,12.6-2.9c0.1,0,0.2,0,0.2,0.1c15.1,3.1,12.3,1.2,20,12.6c0.9,1.3,1.4,2.8,2.5,4c3.4,3.5,1.8,7-1.2,9.5
		c-5.9,5.1-13,9-21.3,11.2C666.8,192.5,666.2,192.5,665.8,192.6z M664.4,170.3c3.5,0,5.8-1.5,5.8-3.9c0-1.2-4.4-4.3-6.1-4.3
		c-2.3,0-5.4,2.9-5.3,5C658.9,169.1,660.9,170.3,664.4,170.3z"/>
	<path fill-rule="evenodd" clip-rule="evenodd" fill="#FFFFFF" d="M794.1,236.3c0.4-6.5,3.3-12,9-16.5c3.4-2.7,7.7-3.8,12.3-3.2
		c3.9,0.6,7.9,1.2,11.4,2.6c7.7,3.1,10.2,8.9,9.3,15.6c-1,7.3-5.8,13-13.8,16.5c-12,5.3-28-2.8-28.2-14
		C794.1,236.9,794.1,236.6,794.1,236.3z M810.7,235.3c-1.9,0-6.2,3-5.4,3.9c1.4,1.7,3.6,3.1,5.8,4c1.4,0.6,5.1-2.9,5.1-4.4
		C816.3,237.5,812.8,235.3,810.7,235.3z"/>
	<path fill-rule="evenodd" clip-rule="evenodd" fill="#FFFFFF" d="M2054.2,173.9c0-10,6.5-18,17.7-21.6c1.5-0.5,3.4-0.5,5-0.2
		c3.1,0.6,6.2,1.5,9.2,2.4c8.3,2.7,11.4,6.6,10.5,13.9c-1.4,12.2-12.5,19.7-26.5,20.4c-9.1,0.5-15.6-5-15.8-12.4
		C2054.2,175.6,2054.2,174.8,2054.2,173.9z M2064.4,163.5c0,2,3.4,5,5.9,5c2.4,0,5.6-2.8,5.6-4.8c0-2.1-3.5-5.3-5.9-5.4
		C2066.7,158.1,2064.5,160.3,2064.4,163.5z"/>
	<path fill-rule="evenodd" clip-rule="evenodd" fill="#FFFFFF" d="M130.3,172.6c-0.2-4.4,1.9-8.1,6.1-10.6
		c7.9-4.7,16.6-7.1,26.1-4.1c14.5,4.4,17.4,19,5.6,27.1c-9.1,6.3-23.2,6.6-32.2,0.6c-4.6-3-5.4-7.3-5.7-11.7
		C130.3,173.4,130.3,173,130.3,172.6z M165.5,173.7c0-2.4-2.3-4.4-5.1-4.5c-2.9,0-5.3,1.9-5.4,4.3c0,2.4,2.4,4.3,5.2,4.3
		C163,177.9,165.4,175.9,165.5,173.7z"/>
	<path fill-rule="evenodd" clip-rule="evenodd" fill="#FFFFFF" d="M2733.5,176.7c0.5-14,13.7-25.3,30.6-25.6
		c3.2-0.1,6.6,0.7,9.7,1.5c4.1,1.1,4.9,3.5,2.2,6.3c-4.2,4.5-7.7,9.4-9.3,15c-1,3.6-2,7.1-0.9,10.9c0.9,2.9,0,4.1-3.4,5.2
		c-2.3,0.8-4.6,1.6-7,2.1c-9,2.1-16.7-1.1-19.9-8.4C2734.5,181.6,2734.2,179.1,2733.5,176.7z M2756.9,178.1c0-3.2-3.3-6.4-6.6-6.3
		c-2.8,0-6.6,4-6.6,7c0,2.3,3.5,5,6.5,5C2753.5,183.8,2756.9,180.9,2756.9,178.1z"/>
	<path fill-rule="evenodd" clip-rule="evenodd" fill="#FFFFFF" d="M1023.7,172.5c-10.8,5-25.5,2.9-30.7-5.2
		c-7-11-2.8-25.8,13.8-29.9c3.7-0.9,7.5-1.8,11.2-2.4c4-0.6,7.5,0.8,10.8,2.4c1.7,0.8,1.7,2.1,0.9,3.4c-1.5,2.5-3.1,4.9-4.6,7.4
		C1020.3,156,1019.2,164.1,1023.7,172.5z M1006.8,168.5c2.2,0,5.9-2.7,5.9-4.2c0-2.8-2.1-5.1-4.5-5c-3,0.1-6.8,3.2-6.8,5.4
		C1001.5,166.9,1003.8,168.5,1006.8,168.5z"/>
	<path fill-rule="evenodd" clip-rule="evenodd" fill="#FFFFFF" d="M570.7,244.8c-11.9,0.2-21-9.5-13.8-20.4
		c3.5-5.3,8.4-9.5,14.7-12.5c5.3-2.5,10.7-2.3,16,0.4c5.2,2.7,8.6,6.5,10.3,11.3c1.4,4.1-0.4,7.4-3.6,10.5
		c-5.6,5.3-11.9,9.7-20.8,10.5C572.5,244.7,571.6,244.8,570.7,244.8z M568.8,227.8c-2.8,0-5.1,2-5.2,4.3c0,2.4,2.4,4.4,5.3,4.3
		c2.9,0,5.2-2.1,5.2-4.5C574,229.7,571.6,227.8,568.8,227.8z"/>
	<path fill-rule="evenodd" clip-rule="evenodd" fill="#FFFFFF" d="M694.4,248.8c-4.2-1.3-8.5-2.6-12.6-4c-0.4-0.1-0.8-1-0.7-1.5
		c0.4-1.7,0.8-3.3,1.4-4.9c2.6-7,1.9-13.5-3.3-19.6c-1.8-2.1-1.2-4,1.4-5.3c4.2-2.2,8.8-3.2,13.7-2.6c5.2,0.6,9.9,2.2,14.1,4.7
		c5.8,3.6,8.1,8.5,7.2,14.3c-1.4,8.2-6.4,14.3-15.9,17.6c-0.8,0.3-1.7,0.5-2.6,0.7c-0.8,0.1-1.6,0.1-2.5,0.1
		C694.6,248.5,694.5,248.6,694.4,248.8z M701.5,220.8c-1.7,0.6-3,0.9-4.1,1.4c-4.2,1.9-4.7,6.3-0.7,8.5c1,0.6,2.9,0.4,4.3,0.2
		c1.5-0.3,2.6-1.2,2.3-2.7C702.6,225.9,702.1,223.6,701.5,220.8z"/>
	<path fill-rule="evenodd" clip-rule="evenodd" fill="#FFFFFF" d="M204,212.3c1.8,0.7,4,1.1,5.4,2.2c3.2,2.5,6.8,4.9,8.7,8
		c3,5.2,4,9.9-2.8,14c-5.5,3.3-11.6,6.1-17.8,8.4c-9.6,3.5-20.5-3.5-19.6-12.2c0.8-8.1,5.9-13.9,13.8-18.4c0.7-0.4,1.5-0.7,2.3-0.8
		c3.3-0.3,6.6-0.5,9.9-0.8C203.9,212.6,203.9,212.4,204,212.3z M194.2,221.3c-2.8,0-5.3,1.9-5.3,4.1c-0.1,2.4,2.3,4.5,5.1,4.5
		c2.8,0,5.3-1.9,5.3-4.1C199.4,223.3,197.1,221.3,194.2,221.3z"/>
	<path fill-rule="evenodd" clip-rule="evenodd" fill="#FFFFFF" d="M2152.2,167.4c-4.1-0.6-8.2-1-12.1-1.9c-1.7-0.4-3.2-1.7-4.5-2.9
		c-3.7-3.6-2.7-7.4-0.5-11.2c3.3-5.8,8.2-10.5,14.6-14.2c6.3-3.7,12.6-3.4,19-0.3c8.4,4.1,10.3,13.1,3.9,19.3
		c-2.7,2.6-5.5,5.1-8.5,7.4C2160.9,166.1,2156.8,167.1,2152.2,167.4z M2161.9,151.4c0-2.4-2.3-4.1-5.2-4.2c-2.7-0.1-5.4,2-5.8,5.3
		c-0.2,1.5,3.1,3.3,5.7,3.3C2159.5,155.8,2161.9,153.8,2161.9,151.4z"/>
	<path fill-rule="evenodd" clip-rule="evenodd" fill="#FFFFFF" d="M632.4,188.2c-8.7-0.6-15-2.7-18.2-8.9c-3.7-7.1-3.2-13.8,2.6-20
		c4-4.2,8.8-7.4,15.6-7.8c4.2-0.3,8.1,0.5,11.7,2.2c2.9,1.3,3.6,3.5,2.5,6.4c-1.1,2.8-2.3,5.5-3.1,8.4c-1.3,4.7-0.4,9.3,1.5,13.8
		c1.1,2.5,0.3,3.7-2.8,4.3C638.6,187.3,634.9,187.8,632.4,188.2z M630.2,160.9c-4,0-6.9,2-6.8,4.7c0.1,1.7,3.1,5,4.7,5.1
		c3.7,0.1,6.8-2.4,6.7-5.6C634.9,162.2,633.4,160.9,630.2,160.9z"/>
	<path fill-rule="evenodd" clip-rule="evenodd" fill="#FFFFFF" d="M778.5,213.2c6.2,0.1,11.2,1.2,15.8,3.6c2.5,1.3,2.7,2.3,1.2,4.4
		c-1.6,2.1-3.3,4.3-4.6,6.5c-1.9,3.2-2.4,6.6-1.7,10.1c0.4,1.9-0.3,3-2.6,3.5c-1.7,0.4-3.5,0.9-5.1,1.6c-10.8,4-20.9-2.1-24.3-8.8
		c-3.2-6.2-0.3-10.8,4.4-15.2C766.1,214.6,772.6,213.7,778.5,213.2z M781.2,234.3c0-2.1-2.1-4-4.5-4c-2.2,0-4.2,1.7-4.3,3.5
		c0,1.6,3.2,4,5.4,4C779.9,237.8,781.1,236.5,781.2,234.3z"/>
	<path fill-rule="evenodd" clip-rule="evenodd" fill="#FFFFFF" d="M2551.3,161.3c0,7-5.8,13.2-15.9,16.1c-4.1,1.2-8.1,1.7-12.4,0.7
		c-8.6-2.1-13-8.6-10.7-16c2.3-7.6,9.4-12.7,18.8-13.2c5.6-0.3,11.1,0.8,15.6,3.7C2549.9,154.6,2551.4,157.4,2551.3,161.3z
		 M2543.9,163.9c-0.1-2.7-3.4-4.5-6.3-3.3c-1.6,0.7-3.3,1.4-4.6,2.4c-0.7,0.5-1.1,2.1-0.6,2.5c1.3,1.1,3,2.2,4.8,2.7
		C2540.5,169.2,2543.9,166.9,2543.9,163.9z"/>
	<path fill-rule="evenodd" clip-rule="evenodd" fill="#FFFFFF" d="M2064.7,244.2c-13.7,0-20.6-8.1-17-16.1c3.6-8,11-12,21-13
		c1.9-0.2,3.8-0.3,5.7-0.4c4.8-0.3,8.6,2.1,10.8,6.8c2.1,4.4,1.8,8.7-1.6,12.6C2078.1,240.4,2070.8,243.9,2064.7,244.2z
		 M2074.4,224.9c-3.5,0-6.2,2-6.2,4.6c0,2.9,1.7,4.4,5.2,4.4c2.9,0,5.3-2,5.3-4.3C2078.6,227,2076.8,224.9,2074.4,224.9z"/>
	<path fill-rule="evenodd" clip-rule="evenodd" fill="#FFFFFF" d="M2777.1,247c0-8.8,7.9-16.5,18.5-17.9c5.5-0.7,9.6,1.6,12.8,4.9
		c8.3,8.6,3.7,22.4-8.7,26.5C2789.6,263.9,2777.1,256.4,2777.1,247z M2797.3,238.7c0-2.3-2.3-4.3-5-4.4c-2.9-0.1-5.4,1.9-5.4,4.2
		c0,2.3,2.3,4.3,5,4.4C2794.7,243,2797.2,241.1,2797.3,238.7z"/>
	<path fill-rule="evenodd" clip-rule="evenodd" fill="#FFFFFF" d="M207.8,170.7c-0.4,5.7-4.3,11.6-11.5,15.9c-1.1,0.7-3,0.8-4.4,0.6
		c-3.6-0.8-7.1-1.8-10.6-2.9c-2.8-0.8-3.6-2.1-2.7-4.5c3-7.5,1.3-14.3-4.6-20.5c-0.9-0.9-0.6-1.5,0.1-2.3c2.6-2.7,5.9-4.2,10.1-3.7
		c3.8,0.4,7.6,0.8,11.2,1.7C203.6,156.9,207.8,161.9,207.8,170.7z M193.2,167.6c-3.4,0-5.8,1.8-5.8,4.3c0,2.3,2.4,4.2,5.1,4.3
		c2.9,0,5.3-1.9,5.3-4.3C197.9,169.5,195.8,167.7,193.2,167.6z"/>
	<path fill-rule="evenodd" clip-rule="evenodd" fill="#FFFFFF" d="M545,204.7c5.6,0.1,10.3,1.4,14.5,4c2.7,1.6,3,3,1.1,5.2
		c-5.1,5.8-9.6,11.9-12.4,18.7c-0.9,2.3-3,3.3-5.9,3.2c-2.6-0.1-5.3,0-7.9-0.2c-4-0.4-6.8-2.3-8.5-5.3
		C517.9,216.1,531.1,205,545,204.7z M543.7,223.5c0-2.3-2.4-4.2-5.1-4.3c-2.9,0-5.3,2-5.3,4.3c0,2.4,2.5,4.3,5.4,4.3
		C541.4,227.8,543.7,225.8,543.7,223.5z"/>
	<path fill-rule="evenodd" clip-rule="evenodd" fill="#FFFFFF" d="M2025.8,168.2c0.2-11.5,7.9-19.8,20.9-22.4c3-0.6,5.6-0.1,7.8,1.6
		c1.2,0.9,2.4,1.9,3.5,2.9c2,1.8,2.1,2.8,0.5,4.9c-2.1,2.9-4.4,5.8-6.2,8.8c-2.3,3.8-3.3,8-2.8,12.3c0.2,1.7-0.8,2.9-2.3,3.8
		c-7.9,4.7-18.3,1.6-20.5-6.2C2026.2,172,2026.1,170.1,2025.8,168.2z M2034.8,158.2c0,2.8,2,4.9,4.7,4.9c3.1,0,6.3-2.8,6.3-5.6
		c0-3-1.9-5-4.7-5C2037.9,152.5,2034.8,155.3,2034.8,158.2z"/>
	<path fill-rule="evenodd" clip-rule="evenodd" fill="#FFFFFF" d="M2564.1,178.5c-1.5-0.5-4.8-1.1-7.6-2.4c-3.9-1.8-4.6-4.4-2.9-7.8
		c1.5-3,2.9-6,2-9.3c-0.3-1-0.6-2.2-1.2-3.1c-1-1.3-0.7-2.4,0.3-3.6c3.7-4.4,11.2-6.7,17.5-5.4c7.8,1.6,12.9,5.8,13.3,11.6
		c0.4,6-3.1,10.9-7.5,15.4C2574.8,177,2570.6,178.4,2564.1,178.5z M2578.8,164.4c-2.2-1.4-4.1-2.8-6.2-3.9c-2.1-1.1-5-0.6-6.5,1
		c-1.4,1.5-1,3.7,0.8,5.2c3.5,2.8,5.3,2.8,8.8,0.1C2576.7,166,2577.6,165.3,2578.8,164.4z"/>
	<path fill-rule="evenodd" clip-rule="evenodd" fill="#FFFFFF" d="M2208.7,151.5c-0.3,7.9-9.5,16.5-19,17.6
		c-4.3,0.5-12.9-2.8-14.8-6c-0.6-1.1-0.4-2.9,0.3-4c2.7-4.4,5-8.9,4.6-13.8c-0.3-3.7,1.8-5.9,5.2-7.6c3-1.5,6.3-1.8,9.5-0.6
		c6,2,10.4,5.5,13,10.4C2208.2,148.8,2208.4,150.2,2208.7,151.5z M2185.8,152.3c0,2.1,3,4.7,5.4,4.7c2.2,0,5.1-2.7,5.1-4.8
		c0-2.2-2.4-4.2-5.1-4.2C2188.2,148,2185.8,149.9,2185.8,152.3z"/>
	<path fill-rule="evenodd" clip-rule="evenodd" fill="#FFFFFF" d="M2099.5,242c-3.2-0.9-6.5-1.6-9.5-2.6c-2.4-0.9-3.1-2.5-2-4.4
		c3-5.4,2.3-10.7,0.3-16.1c-1.3-3.5-0.8-4.3,3.1-6.1c1-0.4,2.1-0.8,3-1.4c5.4-3.5,10.7-2,15.9,0.3c6.8,3.1,10.6,9.5,8.8,15
		c-0.2,0.6-0.5,1.3-0.9,1.9c-2.8,3.2-5.5,6.5-8.6,9.5C2107,240.5,2103.6,241.6,2099.5,242z M2104.7,221.7c-1.3,1-2.6,1.8-3.7,2.7
		c-2.1,1.8-2,4,0.4,5.8c2.2,1.7,4.8,1.7,6.9,0c2.3-1.9,2.5-4,0.4-5.8C2107.4,223.5,2106,222.6,2104.7,221.7z"/>
	<path fill-rule="evenodd" clip-rule="evenodd" fill="#FFFFFF" d="M173.6,208.7c1.4,0.2,4.1,0.5,6.7,1.1c3.9,0.9,4.5,2.5,2.1,5
		c-5.2,5.4-8.2,11.6-9.3,18.4c-0.7,4-0.8,4-5.7,4.8c-2.4,0.4-4.8,1.2-7.3,1.2c-1.8,0.1-4-0.3-5.3-1.2c-6.2-4.5-10.1-11.2-4.1-19.1
		C155.8,212.3,162.8,208.9,173.6,208.7z M169.4,220.7c0-2.3-2.3-4.3-5.1-4.3c-2.9,0-5.4,1.9-5.4,4.3c0,2.3,2.3,4.3,5.1,4.3
		C167,225,169.4,223,169.4,220.7z"/>
	<path fill-rule="evenodd" clip-rule="evenodd" fill="#FFFFFF" d="M2781.7,231.6c-5.5,5.5-8.4,11.6-7.1,18.8c0.3,1.9-0.7,3.5-3,4
		c-3.1,0.7-6.3,1.4-9.5,1.5c-2.9,0.2-5.7-0.8-7.8-2.6c-10.5-9-8.4-17.5,2.6-24.3C2765.5,223.8,2774.4,224.8,2781.7,231.6z
		 M2769.4,234.9c0-2.3-2.4-4.3-5.1-4.3c-2.9,0-5.3,2-5.3,4.3c0,2.3,2.4,4.2,5.1,4.3C2766.9,239.3,2769.4,237.3,2769.4,234.9z"/>
	<path fill-rule="evenodd" clip-rule="evenodd" fill="#FFFFFF" d="M2556.8,218.9c0-7.9,5.8-14.8,14.2-16.6
		c10.3-2.1,17.3,1.4,18.8,9.3c0.8,4.5-0.8,8.5-4.6,11.8c-4.2,3.6-9.2,5.8-15.3,6C2561.3,229.6,2556.8,226,2556.8,218.9z
		 M2571.3,206.9c-2.8,0-5.2,1.9-5.3,4.1c-0.1,2.4,2.3,4.4,5.2,4.5c2.8,0,5.2-1.9,5.3-4.1C2576.6,209,2574.2,206.9,2571.3,206.9z"/>
	<path fill-rule="evenodd" clip-rule="evenodd" fill="#FFFFFF" d="M1670.7,184.4c0-8.3,7.3-15.1,18.2-16.8
		c5.3-0.8,10.1,0.7,14.3,3.3c2.6,1.7,3.3,4.2,2.5,6.6c-1.7,5.2-4.4,10-9.7,13.4c-7.5,4.8-16.5,4.8-22.4-0.6
		c-1.7-1.5-2.4-3.8-3.6-5.8C1670.3,184.6,1670.5,184.5,1670.7,184.4z M1696.9,181.8c0-2.3-2.3-4.3-5-4.4c-2.9-0.1-5.4,1.9-5.4,4.2
		c0,2.3,2.3,4.3,5,4.4C1694.4,186.1,1696.9,184.2,1696.9,181.8z"/>
	<path fill-rule="evenodd" clip-rule="evenodd" fill="#FFFFFF" d="M2320.5,229.4c-5.4,0.7-10.4,1.9-15.7,0.9c-1-0.2-1.9-0.4-2.8-0.7
		c-7.7-2.8-10.4-5.9-6.9-13.7c3-6.8,8.9-11.8,18.1-13.2c4.7-0.8,11.8,2.2,13.8,5.8c0.5,1,0.9,2.7,0.2,3.3
		C2322,216.8,2320.7,222.8,2320.5,229.4z M2316.4,216.5c0-2.3-2.4-4.2-5.2-4.2c-2.9,0-5.3,2-5.3,4.4c0,2.3,2.5,4.3,5.4,4.2
		C2314.1,220.8,2316.4,218.8,2316.4,216.5z"/>
	<path fill-rule="evenodd" clip-rule="evenodd" fill="#FFFFFF" d="M2549.7,202.5c1.7,0.1,3.5,0.1,5.2,0.3c3,0.5,3.9,1.8,2.8,4.1
		c-0.8,1.8-1.9,3.6-2.8,5.4c-1.8,3.9-2.1,7.8-0.8,11.8c0.7,2.3,0.1,3.5-2.5,4.4c-2.9,1-5.9,1.8-8.9,2.5c-5,1.1-9.2-0.4-12.5-3.4
		c-3.5-3.1-5.2-6.9-3.2-11.1c2.8-5.9,7.4-10.5,14.6-13c2.5-0.9,5.4-1,8.1-1.4C2549.6,202.4,2549.7,202.5,2549.7,202.5z
		 M2544.3,216.7c2.8,0,5.2-1.9,5.2-4.2c0-2.4-2.3-4.4-5.2-4.4c-2.8,0-5.2,1.9-5.2,4.2C2539.1,214.7,2541.5,216.7,2544.3,216.7z"/>
	<path fill-rule="evenodd" clip-rule="evenodd" fill="#FFFFFF" d="M399.6,169.3c-6.4,0.2-10.3-3-13.4-7.1c-3.8-5.1-3.2-9.5,1.6-13.5
		c4.9-4.1,11.7-6.4,18.3-3.2c3.7,1.8,6.9,4,9.4,6.9c2.8,3.2,2.8,6.4,0.2,9.7C412.6,166.2,406.7,168.9,399.6,169.3z M406.2,151
		c0-2.3-2.4-4.2-5.2-4.2c-2.9,0-5.3,2-5.3,4.4c0,2.3,2.5,4.3,5.4,4.2C403.9,155.3,406.2,153.3,406.2,151z"/>
	<path fill-rule="evenodd" clip-rule="evenodd" fill="#FFFFFF" d="M1708.7,169.8c5.4-3.6,15.3-4.2,20.9-0.9c1.6,0.9,2.8,2.5,3.7,4
		c3.2,5.4,1.7,13.3-3.2,17.1c-5.5,4.3-14.4,5.4-21.3,2.6c-0.2-0.1-0.4-0.2-0.7-0.3c-4.2-1.9-4.3-2.3-2-5.7c2.4-3.6,4.9-7.3,4.1-11.7
		C1710,173.2,1709.3,171.6,1708.7,169.8z M1720.6,178.7c-2.9,0-5.2,2-5.2,4.4c0,2.4,2.4,4.3,5.3,4.2c2.7,0,5.1-2,5.1-4.3
		C1725.8,180.7,1723.4,178.7,1720.6,178.7z"/>
	<path fill-rule="evenodd" clip-rule="evenodd" fill="#FFFFFF" d="M2337.4,235.2c-8.6-0.4-13.5-5.5-12-13.1
		c1.2-5.9,4.7-10.4,12-12.4c3.6-1,7.2-0.7,10.1,1.3c2.6,1.8,4.9,3.8,7.1,5.9c1.7,1.6,1.8,3.6,0.8,5.4c-2.5,4.5-5.8,8.5-11.1,11
		C2342.2,234.2,2339.7,234.5,2337.4,235.2z M2342.8,221.4c0-2.3-2.3-4.2-5-4.2c-3.1,0-5.5,1.9-5.4,4.4c0.1,2.2,2.5,4.2,5.2,4.2
		C2340.4,225.7,2342.8,223.7,2342.8,221.4z"/>
	<path fill-rule="evenodd" clip-rule="evenodd" fill="#FFFFFF" d="M430.6,165.5c-2.4-0.3-4.9-0.5-7.3-1c-0.6-0.1-1.3-1-1.3-1.5
		c0-2,0.3-3.9,0.4-5.9c0.1-3.8-1.4-7-4.7-9.8c-2.6-2.2-2.3-3.6,1.3-4.6c4.2-1.1,8.5-2.2,13.1-1.3c3.1,0.6,5.8,1.7,7.4,4.1
		c4.3,6.4,5.2,10.4-0.2,16.6C437.1,164.5,434.2,165.6,430.6,165.5z M430.9,152.5c2.8,0,5.1-2,5.2-4.2c0-2.4-2.4-4.4-5.3-4.3
		c-2.9,0-5.2,2-5.2,4.5C425.7,150.6,428.1,152.5,430.9,152.5z"/>
	<path fill-rule="evenodd" clip-rule="evenodd" d="M1120.8,185.5c0,2.3-2.6,4.3-5.5,4.2c-2.9-0.1-6.7-2.9-6.7-4.9
		c0-2,2.4-4.2,4.6-4.1C1117.9,180.9,1120.9,182.6,1120.8,185.5z"/>
	<path fill-rule="evenodd" clip-rule="evenodd" d="M55.6,219.2c-0.4,2.5-3,3.9-5.9,5c-2.5,1-4.7,0.8-6.8-0.9c-3.3-2.7-3.4-3-0.5-6.1
		c2.1-2.2,4.5-4,8.4-3.4C53.7,214.4,55.6,216.3,55.6,219.2z"/>
	<path fill-rule="evenodd" clip-rule="evenodd" d="M416.9,237.9c0,3.9-3.4,6.7-7.9,6.7c-3.7-0.1-5.6-2.2-5.5-6.2
		c0-2.8,3.6-5.9,7-5.8C414.4,232.5,416.9,234.6,416.9,237.9z"/>
	<path fill-rule="evenodd" clip-rule="evenodd" d="M2220.6,221.3c4.2,0,6.8,2.4,6.8,6.3c0,3.5-4.3,6.6-9.3,6.6c-4.3,0-7.4-2.5-7.4-6
		C2210.7,224.4,2215.2,221.3,2220.6,221.3z"/>
	<path fill-rule="evenodd" clip-rule="evenodd" d="M2656.4,223.1c-6.8,0.1-7.9-6-5.6-9.7c2-3.4,7-5,11.4-3.9c3,0.8,4.8,3.2,4.5,5.9
		C2666.2,219.1,2660.9,223.1,2656.4,223.1z"/>
	<path fill-rule="evenodd" clip-rule="evenodd" d="M342.1,209.5c0,3.1-4.7,7-8.3,7c-2.9,0-6.4-3.3-6.4-5.9c0.1-3,4.4-6.3,8.2-6.2
		C339.5,204.4,342.1,206.5,342.1,209.5z"/>
	<path fill-rule="evenodd" clip-rule="evenodd" d="M2436.1,229c-3.6-0.1-5.9-2.2-5.8-5.4c0.1-3.2,4-6.6,7.5-6.5
		c3.2,0.1,7.8,3.8,7.7,6.1C2445.2,226,2440.2,229.1,2436.1,229z"/>
	<path fill-rule="evenodd" clip-rule="evenodd" d="M968.1,233.6c0-2.9,3.9-6.2,7.5-6.2c3.3,0,6.1,2.5,6.2,5.6c0,2.6-3.7,5.6-7,5.7
		C971.2,238.7,968.1,236.4,968.1,233.6z"/>
	<path fill-rule="evenodd" clip-rule="evenodd" d="M1738.3,239.9c-0.3-3.4,5-7.9,8.7-7.6c4.2,0.3,7.2,3.6,5.7,6.9
		c-1.9,4.3-6.5,6-11.7,4.2C1739.1,242.7,1738.1,241.6,1738.3,239.9z"/>
	<path fill-rule="evenodd" clip-rule="evenodd" d="M1941.1,214.5c-2,0.2-3.6-0.7-4.5-2.2c-1-1.7-1.7-3.6-0.3-5.4
		c1.7-2.2,4.2-3.4,7.1-4.1c0.3-0.1,0.7-0.2,1-0.1c2.7,0.3,6.2,5.2,5.2,7.3C1948.4,212.5,1944.7,214.5,1941.1,214.5z"/>
	<path fill-rule="evenodd" clip-rule="evenodd" d="M1514.8,199.2c-0.6,2.7-2.9,4.7-6.6,5.6c-3.4,0.8-4.9,0.4-6.7-1.9
		c-1.1-1.3-1.2-2.6-0.2-4c2-2.8,7.2-4.2,10.6-2.6C1513.2,196.8,1513.8,198.2,1514.8,199.2z"/>
	<path fill-rule="evenodd" clip-rule="evenodd" d="M1176.9,181.5c2.8,0,5.2,2,5.2,4.2c0,2.4-2.4,4.4-5.3,4.3c-2.9,0-5.2-2-5.2-4.4
		C1171.7,183.4,1174.1,181.5,1176.9,181.5z"/>
	<path fill-rule="evenodd" clip-rule="evenodd" d="M1284.8,223.9c0,2.5-2.2,4.3-5.2,4.3c-2.9,0-5.3-2-5.3-4.3c0-2.3,2.4-4.2,5.1-4.3
		C1282.3,219.6,1284.7,221.5,1284.8,223.9z"/>
	<path fill-rule="evenodd" clip-rule="evenodd" d="M1643.7,250.3c-4.3,0-7.2-2.8-5.9-6.3c0.7-1.9,2.2-3.8,3.8-5.3
		c3.1-2.8,7.1-2.9,10.1-0.6c3,2.2,3.4,6.2,0.8,8.9C1650.6,249.2,1647.6,250.3,1643.7,250.3z"/>
	<path fill-rule="evenodd" clip-rule="evenodd" d="M1874.7,191.6c-2.4,0.1-3.8-1-3.5-2.8c0.3-2.1,1-4.2,2.2-6.1
		c1.3-2.1,3.9-2.7,6.6-2.2c2.4,0.4,4,1.6,4.6,3.5c0.7,2.2-0.2,4.2-2.4,5.4c-2.2,1.2-4.8,1.9-7.2,2.8
		C1874.9,191.9,1874.8,191.8,1874.7,191.6z"/>
	<path fill-rule="evenodd" clip-rule="evenodd" d="M452.3,239.8c0-2.8,3.5-5.8,6.9-6.4c2.1-0.3,6.2,1.8,7,3.8c0.1,0.3,0.1,0.7-0.1,1
		c-1.4,1.9-2.6,3.9-4.4,5.5c-1.9,1.7-4.3,0.9-6.4,0C453.5,242.8,452,241.6,452.3,239.8z"/>
	<path fill-rule="evenodd" clip-rule="evenodd" d="M749,171.8c-0.1,3.4-4.1,6.8-7.4,6.9c-3.3,0.1-6.2-2.9-4.7-5.5
		c0.9-1.6,2.5-3.5,4.4-4.2c1.5-0.5,4,0.4,5.9,1.1C748.1,170.4,748.7,171.4,749,171.8z"/>
	<path fill-rule="evenodd" clip-rule="evenodd" d="M2323.1,156.9c-0.1,2.8-1.8,5-5.1,5.8c-1.8,0.5-3.7,0.7-5.6,0.7
		c-0.9,0-2.4-0.7-2.7-1.4c-1.7-3.7,0.7-9.2,6.8-9.9C2320.4,151.7,2323.2,153.7,2323.1,156.9z"/>
	<path fill-rule="evenodd" clip-rule="evenodd" d="M100.4,212c3.2,0,4.9,1,5.7,3.4c0.9,2.6,0.3,4.6-2.5,5.6c-2.7,1-5.6,1.6-8.5,1.8
		c-2.7,0.2-5.1-4.9-3.3-6.9C93.9,213.6,96.7,212.1,100.4,212z"/>
	<path fill-rule="evenodd" clip-rule="evenodd" d="M888,178.1c2.3,0,5.5,2,5.6,3.6c0.1,3.3-2.3,5.5-5.9,5.6
		c-2.4,0.1-5.6-2.2-5.7-4.1C881.8,181.1,885.2,178.1,888,178.1z"/>
	<path fill-rule="evenodd" clip-rule="evenodd" d="M1553.4,201c-3.4-0.1-5.3-1.5-5.2-4.1c0.1-2.5,3.8-5.5,6.6-5.5
		c2.6,0,6.1,3.2,6,5.5C1560.8,199.2,1557.4,201,1553.4,201z"/>
	<path fill-rule="evenodd" clip-rule="evenodd" d="M1234.3,224.9c-2.9,0-4.9-1.8-4.9-4.4c0-2.4,2.5-4.3,5.4-4.2
		c2.9,0,5.2,2.1,5.1,4.5C1239.8,223.2,1237.3,225,1234.3,224.9z"/>
	<path fill-rule="evenodd" clip-rule="evenodd" d="M2704.1,215.6c0.1,2.6-4.7,6.4-8,6.5c-2.3,0-6.9-3.3-6.9-4.9
		c0.1-3.1,5.2-7.8,8.6-7.8C2700.5,209.4,2704,212.8,2704.1,215.6z"/>
	<path fill-rule="evenodd" clip-rule="evenodd" d="M512.8,157.8c2.2-0.1,4.3,1.8,4.5,4c0.1,2.3-2.1,4.5-4.7,4.6
		c-2.8,0.2-5.5-1.7-5.7-3.8C506.5,159.9,508.8,158,512.8,157.8z"/>
	<path fill-rule="evenodd" clip-rule="evenodd" d="M1018.9,238.9c-2,0-7.3-4.1-7.2-5.6c0.1-1.6,5.7-5.8,7.8-5.8c2,0,6.3,3.8,6.3,5.7
		C1025.9,235.6,1021.8,238.9,1018.9,238.9z"/>
	<path fill-rule="evenodd" clip-rule="evenodd" d="M1800.2,244.2c-3.9,0-6.6-2.9-5.3-5.5c1.1-2,2.7-3.8,4.3-5.6
		c0.9-1,2.4-1.2,3.4-0.2c1.8,1.8,3.5,3.7,5.1,5.6c0.3,0.4,0.1,1.2-0.2,1.7C1805.8,242.7,1803,243.8,1800.2,244.2z"/>
	<path fill-rule="evenodd" clip-rule="evenodd" d="M1415.2,213.5c-2.3-0.3-3.5-1.8-4.4-3.4c-1-1.6-0.2-3.8,1.8-5.3
		c2-1.6,4.2-2,6.2-0.9c4.6,2.4,4.7,2.4,1.9,6.3C1419.5,211.9,1417.9,213.3,1415.2,213.5z"/>
	<path fill-rule="evenodd" clip-rule="evenodd" d="M285.2,199.2c-2.4,0-3.9-1.3-4.9-2.9c-0.9-1.6-0.3-3,1.1-4.2
		c3-2.6,7.7-2.5,10.3,0.3c0.1,0.2,0.2,0.4,0.3,0.6C292.4,195.2,288.1,199.2,285.2,199.2z"/>
	<path fill-rule="evenodd" clip-rule="evenodd" d="M2485.3,225.1c0,5-5.9,8.7-11.9,7.1c-0.9-0.2-1.9-1.2-2.1-1.9
		c-1.5-5.2,3.2-9.6,9.6-9.3C2484.3,221.2,2485.3,222.2,2485.3,225.1z"/>
	<path fill-rule="evenodd" clip-rule="evenodd" d="M1979.9,215.3c-3.8,0-5.9-1.8-5.9-5c0.1-2.9,3.5-6.1,6.5-6c2.3,0,6.2,2.9,6.2,4.6
		C1986.7,213.2,1984.4,215.3,1979.9,215.3z"/>
	<path fill-rule="evenodd" clip-rule="evenodd" d="M1282.3,168.2c0-2.4,2.5-4.3,5.4-4.3c2.7,0,5.1,2,5.1,4.3c0,2.4-2.5,4.3-5.4,4.3
		C1284.6,172.5,1282.3,170.5,1282.3,168.2z"/>
	<path fill-rule="evenodd" clip-rule="evenodd" d="M2187,224c0,4.7-4,8.5-8.9,8.3c-2.7-0.1-6.5-2.6-7.4-4.9c-0.8-2,0.2-4.4,3.2-5.9
		c2.2-1.1,4.8-1.8,7.3-2.1C2185.3,219.1,2187,220.7,2187,224z"/>
	<path fill-rule="evenodd" clip-rule="evenodd" d="M2359.2,156.4c3.7,0,5.2,1.3,5.2,4.6c0,3.1-3.3,6.4-6.6,6.4c-2.9,0-5.9-3-5.9-5.9
		C2351.9,158.2,2354.5,156.4,2359.2,156.4z"/>
	<path fill-rule="evenodd" clip-rule="evenodd" d="M1043,159.2c3.6,0,5.3,1.3,5.2,3.9c0,3.7-2.3,5.6-6.4,5.5c-3.3,0-5.3-1.7-5.3-4.3
		C1036.6,161.2,1039.1,159.2,1043,159.2z"/>
	<path fill-rule="evenodd" clip-rule="evenodd" d="M930.4,183.6c0,2.4-4.5,7.1-6.4,6.7c-1.8-0.4-3.9-1.8-4.6-3.2
		c-0.8-1.7,0.2-3.8,2.2-5c1.9-1.2,5.4-1.4,7.1-0.3C929.6,182.4,930.1,183.3,930.4,183.6z"/>
	<path fill-rule="evenodd" clip-rule="evenodd" d="M2790.7,174.2c2.2-0.1,3.3,0.8,3.7,2.6c1.1,5.5-4.4,10.4-10.8,9.5
		c-3-0.4-4.4-2-3.8-4.5C2780.5,177.8,2785.7,174.2,2790.7,174.2z"/>
	<path fill-rule="evenodd" clip-rule="evenodd" d="M793.9,179c-5.2-3.3-5.2-3.5-1.2-7.4c1.2-1.1,2.5-1.7,4-0.9
		c1.7,0.9,2.5,3.5,1.3,4.6C796.8,176.6,795.4,177.7,793.9,179z"/>
	<path fill-rule="evenodd" clip-rule="evenodd" d="M1607.8,256.2c-3.9,0-5.7-1.4-5.6-4.3c0.1-3.5,3.9-7,7.5-6.9
		c3.1,0,6.1,2.7,6.2,5.5C1615.9,253.5,1612.1,256.3,1607.8,256.2z"/>
	<path fill-rule="evenodd" clip-rule="evenodd" d="M661.2,224.7c5.1,0,7.2,1.4,7.1,4.8c-0.1,3-2.3,4.7-6,4.7
		c-3.7-0.1-5.7-1.9-5.7-5.2C656.6,225.8,657.8,224.7,661.2,224.7z"/>
	<path fill-rule="evenodd" clip-rule="evenodd" d="M557.7,164.6c0,2.3-2.5,4.3-5.5,4.2c-2.7-0.1-5-2.1-5-4.4c0-2.2,2.4-4.2,4.9-4.2
		C555.2,160.3,557.7,162.2,557.7,164.6z"/>
	<path fill-rule="evenodd" clip-rule="evenodd" d="M1382,208.3c-1.8,0-3.9-2.1-3-3.3c1.1-1.5,2.6-2.9,4.2-4.2
		c0.5-0.4,2.1-0.5,2.6-0.2c1,0.7,2.4,1.8,2.4,2.8C1388.3,205.9,1385,208.3,1382,208.3z"/>
	<path fill-rule="evenodd" clip-rule="evenodd" d="M1330.1,174.5c0,2.3-2.5,4.3-5.4,4.2c-2.7-0.1-5-2.1-5-4.4c0-2.3,2.5-4.3,5.4-4.2
		C1327.8,170.1,1330.1,172.2,1330.1,174.5z"/>
	<path fill-rule="evenodd" clip-rule="evenodd" d="M1844.4,183.1c0,3.8-3.2,7.5-6.4,7.5c-2,0-7.2-4.4-7.2-6.2c0-2.7,3.9-5.8,7.4-5.9
		C1842.3,178.4,1844.4,179.9,1844.4,183.1z"/>
	<path fill-rule="evenodd" clip-rule="evenodd" d="M664.4,170.3c-3.6,0-5.5-1.2-5.6-3.2c0-2.1,3-4.9,5.3-5c1.7,0,6.1,3.1,6.1,4.3
		C670.2,168.8,667.9,170.3,664.4,170.3z"/>
	<path fill-rule="evenodd" clip-rule="evenodd" d="M810.7,235.3c2,0,5.6,2.2,5.5,3.5c0,1.5-3.8,5-5.1,4.4c-2.2-1-4.4-2.4-5.8-4
		C804.5,238.3,808.8,235.3,810.7,235.3z"/>
	<path fill-rule="evenodd" clip-rule="evenodd" d="M2064.4,163.5c0.1-3.2,2.3-5.3,5.5-5.2c2.5,0.1,5.9,3.2,5.9,5.4
		c0,2.1-3.1,4.8-5.6,4.8C2067.9,168.5,2064.4,165.5,2064.4,163.5z"/>
	<path fill-rule="evenodd" clip-rule="evenodd" d="M165.5,173.7c0,2.2-2.5,4.1-5.2,4.1c-2.9,0-5.3-2-5.2-4.3c0-2.4,2.5-4.3,5.4-4.3
		C163.2,169.3,165.5,171.3,165.5,173.7z"/>
	<path fill-rule="evenodd" clip-rule="evenodd" d="M2756.9,178.1c0,2.8-3.4,5.7-6.8,5.7c-3,0-6.5-2.7-6.5-5c0-3,3.8-7,6.6-7
		C2753.6,171.7,2756.9,174.9,2756.9,178.1z"/>
	<path fill-rule="evenodd" clip-rule="evenodd" d="M1006.8,168.5c-3,0-5.3-1.6-5.4-3.8c-0.1-2.2,3.8-5.3,6.8-5.4
		c2.4-0.1,4.5,2.2,4.5,5C1012.8,165.8,1009,168.4,1006.8,168.5z"/>
	<path fill-rule="evenodd" clip-rule="evenodd" d="M568.8,227.8c2.8,0,5.2,1.9,5.3,4.1c0.1,2.4-2.3,4.4-5.2,4.5
		c-2.9,0-5.3-2-5.3-4.3C563.7,229.8,566,227.8,568.8,227.8z"/>
	<path fill-rule="evenodd" clip-rule="evenodd" d="M701.5,220.8c0.6,2.8,1.2,5.1,1.7,7.4c0.3,1.5-0.8,2.4-2.3,2.7
		c-1.4,0.3-3.3,0.4-4.3-0.2c-3.9-2.2-3.5-6.6,0.7-8.5C698.5,221.7,699.7,221.4,701.5,220.8z"/>
	<path fill-rule="evenodd" clip-rule="evenodd" d="M194.2,221.3c2.8,0,5.2,2.1,5.1,4.5c-0.1,2.2-2.6,4.1-5.3,4.1
		c-2.8,0-5.2-2.1-5.1-4.5C189,223.1,191.4,221.2,194.2,221.3z"/>
	<path fill-rule="evenodd" clip-rule="evenodd" d="M2161.9,151.4c0,2.4-2.3,4.4-5.2,4.4c-2.6,0-5.9-1.8-5.7-3.3
		c0.4-3.3,3.1-5.4,5.8-5.3C2159.6,147.3,2161.9,149,2161.9,151.4z"/>
	<path fill-rule="evenodd" clip-rule="evenodd" d="M630.2,160.9c3.2,0,4.6,1.3,4.7,4.2c0,3.2-3.1,5.7-6.7,5.6
		c-1.6-0.1-4.6-3.4-4.7-5.1C623.4,162.9,626.3,160.9,630.2,160.9z"/>
	<path fill-rule="evenodd" clip-rule="evenodd" d="M781.2,234.3c0,2.3-1.3,3.6-3.4,3.5c-2.2,0-5.4-2.5-5.4-4c0-1.8,2.1-3.5,4.3-3.5
		C779.1,230.2,781.2,232.2,781.2,234.3z"/>
	<path fill-rule="evenodd" clip-rule="evenodd" d="M2543.9,163.9c0.1,3-3.3,5.3-6.7,4.3c-1.8-0.5-3.5-1.6-4.8-2.7
		c-0.4-0.4,0-2,0.6-2.5c1.3-1,3-1.7,4.6-2.4C2540.4,159.4,2543.8,161.3,2543.9,163.9z"/>
	<path fill-rule="evenodd" clip-rule="evenodd" d="M2074.4,224.9c2.4,0,4.2,2.1,4.2,4.7c0,2.4-2.4,4.3-5.3,4.3
		c-3.5,0-5.2-1.5-5.2-4.4C2068.2,226.9,2070.9,224.9,2074.4,224.9z"/>
	<path fill-rule="evenodd" clip-rule="evenodd" d="M2797.3,238.7c0,2.3-2.5,4.3-5.4,4.2c-2.7-0.1-5-2.1-5-4.4c0-2.3,2.5-4.3,5.4-4.2
		C2795,234.4,2797.3,236.4,2797.3,238.7z"/>
	<path fill-rule="evenodd" clip-rule="evenodd" d="M193.2,167.6c2.6,0,4.6,1.9,4.6,4.3c0,2.4-2.4,4.4-5.3,4.3c-2.8,0-5.1-2-5.1-4.3
		C187.4,169.4,189.8,167.6,193.2,167.6z"/>
	<path fill-rule="evenodd" clip-rule="evenodd" d="M543.7,223.5c0,2.3-2.3,4.3-5.1,4.3c-2.9,0-5.4-1.9-5.4-4.3
		c0-2.4,2.4-4.4,5.3-4.3C541.3,219.2,543.7,221.2,543.7,223.5z"/>
	<path fill-rule="evenodd" clip-rule="evenodd" d="M2034.8,158.2c0-2.9,3.1-5.7,6.3-5.7c2.8,0,4.7,2,4.7,5c0,2.8-3.1,5.6-6.3,5.6
		C2036.8,163.1,2034.8,161,2034.8,158.2z"/>
	<path fill-rule="evenodd" clip-rule="evenodd" d="M2578.8,164.4c-1.2,0.9-2.2,1.6-3.1,2.4c-3.4,2.7-5.3,2.7-8.8-0.1
		c-1.9-1.5-2.2-3.6-0.8-5.2c1.4-1.6,4.4-2.2,6.5-1C2574.7,161.6,2576.6,163,2578.8,164.4z"/>
	<path fill-rule="evenodd" clip-rule="evenodd" d="M2185.8,152.3c0-2.3,2.5-4.3,5.3-4.3c2.7,0,5.1,2,5.1,4.2c0,2.1-2.8,4.8-5.1,4.8
		C2188.8,157,2185.8,154.4,2185.8,152.3z"/>
	<path fill-rule="evenodd" clip-rule="evenodd" d="M2104.7,221.7c1.4,0.9,2.8,1.8,4,2.7c2.2,1.8,2,4-0.4,5.8c-2.2,1.7-4.8,1.7-6.9,0
		c-2.3-1.8-2.5-4-0.4-5.8C2102.1,223.5,2103.4,222.7,2104.7,221.7z"/>
	<path fill-rule="evenodd" clip-rule="evenodd" d="M169.4,220.7c0,2.4-2.5,4.3-5.4,4.3c-2.7,0-5.1-2-5.1-4.3c0-2.4,2.5-4.3,5.4-4.3
		C167.1,216.4,169.5,218.4,169.4,220.7z"/>
	<path fill-rule="evenodd" clip-rule="evenodd" d="M2769.4,234.9c0,2.4-2.4,4.3-5.3,4.3c-2.8,0-5.1-2-5.1-4.3c0-2.4,2.4-4.3,5.3-4.3
		C2767,230.7,2769.4,232.7,2769.4,234.9z"/>
	<path fill-rule="evenodd" clip-rule="evenodd" d="M2571.3,206.9c2.9,0,5.2,2.1,5.2,4.5c-0.1,2.2-2.5,4.2-5.3,4.1
		c-2.9,0-5.2-2.1-5.2-4.5C2566.1,208.8,2568.6,206.9,2571.3,206.9z"/>
	<path fill-rule="evenodd" clip-rule="evenodd" d="M1696.9,181.8c0,2.3-2.5,4.3-5.4,4.2c-2.8,0-5.1-2-5-4.4c0-2.3,2.5-4.3,5.4-4.2
		C1694.6,177.5,1696.9,179.5,1696.9,181.8z"/>
	<path fill-rule="evenodd" clip-rule="evenodd" d="M2316.4,216.5c0,2.3-2.3,4.3-5,4.4c-2.9,0.1-5.4-1.9-5.4-4.2
		c0-2.4,2.4-4.4,5.3-4.4C2313.9,212.3,2316.3,214.2,2316.4,216.5z"/>
	<path fill-rule="evenodd" clip-rule="evenodd" d="M2544.3,216.7c-2.9,0-5.3-2-5.2-4.4c0-2.3,2.5-4.2,5.2-4.2c2.9,0,5.3,2,5.2,4.4
		C2549.5,214.8,2547.1,216.8,2544.3,216.7z"/>
	<path fill-rule="evenodd" clip-rule="evenodd" d="M406.2,151c0,2.3-2.3,4.3-5,4.4c-2.9,0.1-5.4-1.9-5.4-4.2c0-2.4,2.4-4.4,5.3-4.4
		C403.7,146.8,406.1,148.7,406.2,151z"/>
	<path fill-rule="evenodd" clip-rule="evenodd" d="M1720.6,178.7c2.9,0,5.3,2,5.2,4.3c0,2.2-2.4,4.2-5.1,4.3c-3,0-5.3-1.8-5.3-4.2
		C1715.3,180.7,1717.7,178.7,1720.6,178.7z"/>
	<path fill-rule="evenodd" clip-rule="evenodd" d="M2342.8,221.4c0,2.4-2.3,4.4-5.2,4.4c-2.8,0-5.2-1.9-5.2-4.2
		c-0.1-2.5,2.3-4.4,5.4-4.4C2340.5,217.1,2342.7,219,2342.8,221.4z"/>
	<path fill-rule="evenodd" clip-rule="evenodd" d="M430.9,152.5c-2.8,0-5.2-1.9-5.3-4.1c-0.1-2.4,2.3-4.4,5.2-4.5
		c2.9,0,5.3,2,5.3,4.3C436,150.5,433.7,152.5,430.9,152.5z"/>
</g>
</svg>
