<?xml version="1.0" encoding="utf-8"?>
<!DOCTYPE svg PUBLIC "-//W3C//DTD SVG 1.1//EN" "http://www.w3.org/Graphics/SVG/1.1/DTD/svg11.dtd">
<svg version="1.1" id="king-view" xmlns="http://www.w3.org/2000/svg" xmlns:xlink="http://www.w3.org/1999/xlink" x="0px" y="0px"
	 width="500px" height="1000px" viewBox="0 0 500 1000" style="enable-background:new 0 0 500 1000;" xml:space="preserve">
<style type="text/css">
<![CDATA[
	.st0{fill-rule:evenodd;clip-rule:evenodd;fill:#E6AC27;}
	.st1{fill-rule:evenodd;clip-rule:evenodd;fill:#80BCA3;}
	.st2{fill-rule:evenodd;clip-rule:evenodd;}
	.st3{fill-rule:evenodd;clip-rule:evenodd;fill:#BF4D28;}
	.st4{fill-rule:evenodd;clip-rule:evenodd;fill:#F6F7BD;}
	.st5{fill-rule:evenodd;clip-rule:evenodd;fill:#655643;}
]]>
</style>
<path id="silueth" class="st2" d="M133.7,792.5c-3.5,4.8-4.1,9.7-7.7,12.9c-1.7,5.8-3.5,21.6-5.1,27.5c-2.7,9.5-4.2,29.3-6.3,38.9
	c-1.6,7.4-1,25.3-0.9,33c0.1,5.3-1.1,10.8,2,15.8c-2.5,9.2,4.1,18.6,5.2,27c5.5,5.2,12.6,7.3,18.8,11.1c2.3,1.4,5,1.9,7.7,2
	c3.4,0.1,6.9,0.2,10.3,0.5c1.6,0.1,2.9,0.8,4.4,3.1c0.4,6.3,0.5,13.3-2.2,20.3c-1.7,4.3-4.3,6.6-8.4,8.6
	c-12.4,6.3-25.4,7.7-38.8,6.3c-2.4-1.3-3.5-3.4-4.1-5.6c-2.1-7.7-6.2-14.8-6.5-23c-0.1-1.5-0.8-2.9-1.2-4.4
	c-2.1-7.3-3.1-14.8-4.5-22.3c-1.3-7.3-0.9-16.7-0.8-23.9c0.1-9.2-0.1-18.4,0.1-27.7c0.1-5.7-0.5-21.5,1.5-27.1
	c0.6-1.7,0.1-3.8,0.3-5.7c0.2-2.4-0.8-14.5-1.1-16.7c-0.3-2.1,1.2-4.4,1.1-6.6c-0.4-4.9-1.1-19.9-2.3-24.7
	c-1.2-4.8-2.3-9.6-2.5-14.7c-0.1-2.4-1.4-3.1-4.5-3.8c-4.5-1-8.9-1.2-13.5-1.2c-4.1,0-8.4,0.7-12.3-1.7c-11.9,2.1-21.5-5.5-32.5-7.4
	c-1.1-0.2-2.2-0.7-3.5-1.1c-5-5.8-11.4-9.9-18.1-13.8c-3.1-3.5-4.5-7.6-5-12.4c-0.5-4.5-2.3-8.8-3.5-13.3c0.3-1.2,1.1-2.7,1-4.1
	c-0.4-6.3,0.8-12.3,2.8-18c2.5-7.3,2-15,4.1-22.4c1.5-4.9,0.3-10.6,0.3-16.3c7.1-12.7,10.6-26.6,11.8-41.2
	c0.5-6.6,3.3-12.5,6.4-18.6c-0.3-6,1.4-11.8,3.2-17.7c3.8-12.4,7.5-24.8,10.7-37.3c1-4.2,3.6-7.7,4.3-11.8c0.7-4.3,2.4-8,3.8-11.9
	c4.8-13.4,12.3-25.5,17.6-38.6c3.9-4.8,4.7-11.1,8.4-16.1c3-3.9,4.6-8.8,7-13.1c2.9-5.4,5.9-10.7,8.7-16.1c3-5.7,5.9-11.6,7.5-17.9
	c0.9-3.6,2.8-6.4,5.6-8.3c2-1.3,3.4-2.7,4.8-4.6c3-4.4,6.5-8.5,9.6-12.9c3.3-4.6,6.4-9.5,9.6-14.2c-1.6-5.8,4.2-9.6,3.4-15.1
	c4.3-2.4,7.9-5,9.1-9.9c1.9-7.7,5.2-15,7.6-22.6c0.4-1.4,1-2.9,0.9-4.4c-0.4-8.4,0.6-16.9-0.5-25.3c-0.4-2.8,0.9-5.8,1.4-8.7
	c4.8-3.3,3.3-9.2,5.6-13.5c-1.5-5.8,1.3-10.4,4.5-14.6c2.4-3.2,4.2-6.8,4.7-10.4c0.9-6.2,3.9-11.4,6.1-17.1c2.3-6,4-12.2,4.2-18.9
	c0.4-15.4-2.1-30.5-5.8-45.3c-1-4-0.8-8.4-3.4-11.6c1.1-1.9,1.9-3.2,2.9-4.8c10.5-2.6,21.1-5.3,32-6.2c7.2-7.3,11.8-8.9,21-7
	c3-1,5.9-2,8.3-2.8c0.8-1,1.8-1.6,1.7-2.1c-0.5-4,2.7-6.2,4.3-9.1c-2-2,1.2-4.3-0.5-6.3c-0.2-0.2-0.4-0.9-0.2-1
	c3.2-2.6,1.1-6.6,2.5-9.8c1.6-3.8,2.4-7.9,3.6-11.9c0.4-1.5,0.4-3.4,1.3-4.3c3.2-2.9,2.8-6.9,4-10.5c1.9-5.8,2.3-12,5.4-17.4
	c1-1.8,0.4-3.7,0.5-5.6c0.2-5,0.7-10,2.7-14.6c3.2-7.4,5.6-14.9,6.7-22.8c0.1-0.7,0.2-1.6,0.6-2.2c3.6-6.2,4.3-13,4.2-19.9
	c0-1.1,0.5-2.2,0.7-2.9c1.5-1.6,3.1-1.3,4.6-1.3c2.3,1.8,3.4,4.4,3.6,6.9c0.4,5.7,3.1,10.2,6.6,14.3c3.1,3.5,4.5,7.9,6,12
	c2,1.9,3.6-0.8,5.5,0c0.6,0.7,1.5,1.5,2.1,2.5c5.4,9.2,10.8,18.4,16.1,27.6c1.8,3.1,3.3,6.2,7.5,6.2c2.3,2.8,5.5,4.7,8.3,7
	c3.9,3.3,6,3,9.5-1.2c0.7-0.9,1.2-1.9,1.8-2.9c1.4,0.3,2.9,0.5,4.4,0.8c7-9.7,13.9-19.3,22-28c7.7-8.4,12.7-19.1,22-26.2
	c1.8-0.4,3.6-0.7,5.6,1.2c0.1,1.1,0.3,2.6,0.3,4c0,9.2,0.1,18.5-0.1,27.7c-0.2,7,1.5,13.6,3.5,20.1c1.4,4.3,3.6,8.3,3.7,13.1
	c0,1.8,1.1,3.7,2.1,5.2c2.2,3.5,4.9,6.9,4.4,11.4c5.1,7.5,5.3,16.4,7,24.9c0.3,1.4,1,2.8,1.7,4.2c1.6,3.1,3.1,6.2,2.7,9.8
	c-0.3,2.9,1.5,5.1,2.6,7.5c3.3,6.9,7.2,13.5,8.8,20.9c-0.6,1.2-1.1,2.3-1.6,3.3c1.9,9.2,2.6,18.8,7.5,27.5c1.3,0.4,2.8,0.8,4.2,1.2
	c3,2.7,3.5,6.6,4.8,10.2c1.5,1.2,3,2.3,4.5,3.6c2.2,5.3,4.6,10.5,3.8,15.5c1.3,3.8,4.2,4.4,6.4,6.6c0.3,2.7,0.6,5.7,0.9,8.9
	c5.1,5.5,11.2,10.4,13.4,18.6c-1.6,4.1-3.2,8.4-4.9,13c0.1,1.1,0.1,2.6,0.3,4.1c0.8,5.7-1.1,10.8-4.7,14.9
	c-5.5,6.2-8.6,13.5-11.3,21c-0.5,1.4-1,2.9-2,4c-3.9,4.2-5.5,9.1-5.3,14.8c0.2,5.9-1.8,11.2-4.1,16.5c-2.4,5.6-5,11.1-7.4,16.7
	c-2.1,4.9-4.7,9.6-7.6,14.1c-4.1,6.3-8,12.9-11.5,19.6c-2.1,4.2-5.1,7.5-7.7,11.3c-2.2,3.2-6.6,5.4-5.6,10.6
	c0.2,1.1-1.3,2.6-2.2,3.9c-4.2,5.9-7.7,12.2-11.2,18.6c-3.5,6.3-7.2,12.8-12.2,17.7c-5.5,5.5-8.1,12.1-10,19
	c-1.1,4.1-2.2,8-3.9,11.9c-2,4.8-4.9,9.6-4,14.7c-1.7,1.5-2.8,2.5-4.1,3.6c0.4,4,1.8,8,0.4,12.2c-1.1,3.5,0.1,7.7-1.9,11.2
	c-0.9,1.5-0.2,2.9,0,4.4c0.5,6.8,0.8,13.6,1.3,20.3c0.1,2.3,0.1,4.6,0.7,6.3c1.6,0.9,2.6,1.3,3.7,0.5c12.6-8.9,27.4-13.4,40.8-20.5
	c2.1-1.1,4.3-1.3,6.5-2c4.7-1.4,9.5-2.3,14-4.8c3.3-1.8,7-2.9,10.7-3.9c2.7-0.8,4.9-2,6.9-4.8c0-3.7-0.2-7.9,0.1-12.1
	c0.1-2,1.4-3.5,4.3-4.1c4.4,1.4,6.4,6.8,10.9,9.1c4.9-1.6,10-2.7,13.7-7.3c2.1-2.6,5.6-3.8,9-4.6c2.2-0.5,4.3-1.3,6.6-2
	c6.3,2.9,14.6,1.4,19.1,8.5c0.4,2.6-1.9,4.1-2.6,6.4c-9.3,4.1-18.9,7.7-27.8,12.9c-2.8,1.6-5.6,2.4-8.7,2.3c-1.9,0-4,0-5.6,0.8
	c-7,3.4-14.6,4-21.9,5.8c-1.8,0.4-3.8,0.9-5.3,1.8c-8.2,4.8-17,8.6-23.1,16.4c-1.1,1.4-3.1,2.1-4.7,3.1c-7,4.6-14.6,8.3-21.3,13.4
	c-5.1,3.9-10.6,7.2-14.7,12.4c-1.2,1.5-3.9,1.9-5.8,2.7c-0.9,3.3-0.8,6.4,0,9.3c0.6,2.3,1.5,4.3,0.1,6.6c-0.4,0.6-0.5,1.6-0.2,2.2
	c4.6,10.1,4.3,21.7,9.5,31.6c0.5,1,1.3,2.1,1.3,3.1c0,5.5,1.8,10.5,4.5,15.2c0.8,8.1,5.4,15,7.5,22.7c2,7.3,4.8,14.5,8,21.3
	c5.6,11.8,9.4,24.1,13.2,36.5c0.3,1.1,0.8,2.1,1.1,3.3c0.8,3.3-0.1,6.8,2,10c1.8,2.9,3.1,6.1,4.6,9.4c-0.8,5.1-3.9,8.8-8.4,12
	c-3.8-0.6-7.9-1.4-12-2c-3.8-0.5-7.6-0.5-11.3-1.9c-2-0.8-4.5-0.3-6.8-0.4c-20.7-0.2-41.4,0.1-62-0.7c-8.7-0.3-17.4-1.6-26.2-1.5
	c-8.8,0.1-17.5,0-26.3,0c-2.4,3.4-4.7,6.4-6.7,9.7c-1.2,1.9-2.5,4.8-2.8,7c-0.7,6.2-3.1,21.8-5.3,27.5c-2.4,6.3-2.2,22.8-2.3,29.3
	c-1.3,2.8-2.5,15.6-4.1,18.9c0.3,5.2-1,10.9,0.8,16.6c1.1,3.4,1.1,6.6,0,10.1c-0.8,2.5-1.3,20.7-0.6,23.1c2.2,7.9,1.5,15.9,1.6,23.9
	c0,0.7,0.3,1.5,0.6,2.9c11.2,7,24.1,11.8,35.5,18.6c1.2,2.1,1.5,4,1,6.5c-1.7,2.4-3.7,5.1-5.7,7.9c-2,1.3-41.3,1.4-51.3,0.1
	c-3.3-1.8-4.2-5.1-5.5-8.4c-1.1-2.8-2.9-5.3-4.7-8.5c2.7-7.7,3-16,3.1-24.4c0-4.1,1.6-8.2,2-12.3c0.4-3.8,0.2-22.8,1.3-26.6
	c0.9-2.9,0.8-6.1,0.8-9.1c-0.1-11.1,1.7-32.1,4.1-42.9c0.3-1.5,0.3-3.1,0.3-4.6c0-11.1,0-42.3,0-53.3c-1.2-1.9-2.3-4.2-3.3-5.8
	c0-2.5,2.8-4.7,0.8-7.4c-1.2-1.3-2.7-1.2-4.3-1.2c-17.6,0-35.2,0-52.8,0c-3,0-6.1,0.2-9.1-0.9c-2.1-0.7-4.5-1-6.7-1.1
	C140.8,792.4,137.3,792.5,133.7,792.5z"/>
<path id="body" class="st1" d="M60.1,535.8c2.1-1.2,4.4-2.5,6.9-4c0.3-1.6,0.7-3,0.7-4.5c0.1-7.1,2.3-13.4,6-19.5
	c2.5-4.2,3.6-9.2,5.9-13.5c4.6-8.4,9.6-16.6,14.4-24.8c1.7-2.9,3.9-5.6,4.1-9.3c0.2-3.6,4.9-4.8,4.7-8.9c-0.1-3.4,3.1-5,5.1-7.3
	c4-4.6,7.7-9.5,11.6-14.2c1.5-1.8,3.1-3.4,4.4-4.8c2.2,0.3,3,1.2,3.6,2.8c3.5,9.4,9.6,17.3,15.4,25.3c3.3,4.6,6.6,9.4,12.4,11.4
	c4.5,5.1,9.2,10,13.5,15.3c1.4,1.7,2.4,3.8,4.1,5.4c6.6,6.4,12.8,13.2,19.6,19.4c8.7,7.9,17.6,15.7,26.9,23
	c7.8,6.1,15.9,11.9,24.5,16.6c9,4.9,18.7,8.5,28.1,12.5c2.5,1.1,4.9,2.1,7.5,2.8c4.7,1.4,9.5,3.2,14.3,3.6
	c6.5,0.5,12.9,1.7,19.1,3.4c8,2.1,15.8,2.5,23.6-0.5c0.6-0.2,1.4,0.3,2.2,0.4c1.5,1.6,0.9,3.6,0.9,5.4c0,5.7-0.8,11.5,1.6,17
	c0.6,1.3,0.2,3,0.4,4.6c0.5,4.5,0.8,9.1,1.8,13.6c1.2,5.2,0.8,10.7,1,16.4c1,1.7,2.6,3.5,3.3,5.6c1.3,4,2.1,8.1,3.3,12.1
	c1.3,4.2,3.2,8.2,3.7,12.7c0.4,4.1,2.1,8.1,2.7,12.3c0.5,3,2.8,5.5,2.4,8.8c-0.3,3.1,0.4,6,1.2,9c2.1,7.3,4.5,14.5,7.1,21.7
	c2.9,8.2,7.4,15.9,8.4,24.8c0.1,0.7,0.6,1.4,1,2c8.3,13,11.5,28.1,17.1,42.2c1.4,3.6,2.4,7.2,3.7,10.8c0.6,1.5,0.7,3-0.1,5.1
	c-1.2,0.6-2.8,1.5-4.8,2.6c-2.9-1.7-6.3-1.2-9.7-1.3c-3.4,0-6.9,0.1-10.3,0c-3.4,0-6.9-0.3-10.3-0.2c-3.3,0.2-6.5-2.6-9.9-0.6
	c-8.6-2.7-17.2-1.6-26-0.6c-3.5,0.4-7.3-0.9-11.1-0.9c-13,0.1-26,0.2-39-0.2c-9.5-0.2-19.1,0.8-28.4-2.2c-4.8,1.4-9.5-0.6-14.3-0.4
	c-5.3,0.2-10.7-0.1-16.1-0.1c-5,0-10,0.1-14.9,0.1c-16.5-0.1-33-0.2-49.4-0.2c-5,0-9.6-2.4-14.7-2c-6.5,0.5-13,0.1-19.5,0
	c-4.6-0.1-9.2,0.7-13.6-1.5c-0.9-0.4-2.2-0.1-3.3,0.1c-1.1,0.2-2.2,1.1-3.2,1.1c-11.4-0.3-22.9,0.5-34.3-1c-1.1-0.1-2.2-0.8-3.3-0.7
	c-8.3,0.6-15.5-3.6-23-5.9c-4.4-1.4-8-4.1-10.3-8.6c-1.5-3-4.2-5.3-6.7-8.3c-0.9-9.6-0.8-19.6-0.4-29.5c0.2-4.5,1.1-9.2-1.5-13.5
	c-0.5-0.9-0.6-2.3-0.4-3.3c2.2-8.9,2-18.2,4.9-26.9c0.7-2.2,1.1-4.4,1.3-6.7c0.8-13.3,3.7-26.4,5.4-39.7c0.6-4.5,1.2-9,1.8-13.6
	c0.7-5.6,2.2-11.2,3.3-16.8c2-9.7,4.3-19.3,8.9-28.2c1.3-2.5-0.5-4.8,0.6-7.6c3.7-9.6,6.6-19.4,10-29.1
	C57.3,542.4,58.7,539.3,60.1,535.8z"/>
<path id="face" class="st4" d="M170.5,301.1c2.5-0.2,4.7-0.4,7.5-0.7c-3.4-6.4-2-12,1.1-17.5c1.9-3.3,3.5-6.8,5.1-9.8
	c1.8-2.3,4.3-2.1,6.6-2.7c2.6-2.6,6-4.9,7.8-8.1c2.1-3.6,6-4.7,8.3-7.7c2.2-2.9,5.2-4.4,8.7-5.2c1.4-0.3,2.6-1.6,3.8-2.4
	c8.5-6,18.7-8.4,28-12.6c8.5-3.8,18.2-5.1,27.4-7.5c4-1.1,8.1-2.3,12.1-3.4c1.1-0.3,2.2-1.1,3.2-1c5.6,0.8,10.5-1.7,15.7-2.8
	c5.2-1.1,10.4-2.6,15.8-2.1c9.6-3.5,19.6-2,29.5-2.1c4.2,0,8.4-0.3,12.4,1.6c1.7,0.8,3.8,1,5.6,0.6c4.9-1,8.6,3.1,13.3,2.6
	c4.4-0.5,8.2,1.2,12,3.2c1,0.5,2.2,0.9,3.3,1c9.4,0.3,16.7,5.1,23.1,11.3c2.1,2,4.6,2.4,7.6,3.7c0.7,8.6,4.1,16.4,9.2,23.7
	c2.2,3.1,4.5,6.7,4.8,10.3c0.5,5.7,3.3,10.8,2.9,16.7c-0.4,5.7-0.2,11.5,0.1,17.3c0.1,2.6,1.9,5.5,1.2,7.7
	c-2.6,9.2-2.3,18.8-4.8,28.1c-3.5,12.5-9.2,24.1-13.3,36.3c-0.8,2.5-2.8,4.6-4.2,6.8c-5.3,8.3-11,16.5-15.7,25.1
	c-4.2,7.7-10.4,14.1-13.2,22.7c-0.4,1.4-1.6,2.8-2.7,3.6c-3.3,2.4-4.9,5.8-6.5,9.3c-1,2.1-2.1,4-4,5.5c-1.2,0.9-2.3,2.2-2.8,3.6
	c-3.7,10.3-11.6,16.7-20,22.7c-2.8,2-5.3,4.5-7.6,6.9c-10.3,10.8-21.1,21.1-33.8,29.2c-1.9,1.2-3.4,3-5.1,4.5
	c-7.4,0.9-14.7,0.9-21.8,0.5c-7.3-2.6-13-8.1-20.5-10.1c-5.6-4.6-12.3-7.6-17.3-13c-1.8-2-3.7-3.9-5.9-5.5
	c-11.6-8.3-20.6-19.4-31.2-28.8c-3.7-3.3-7.1-7-10.4-10.8c-3.7-4.4-7.6-8.6-11.9-12.3c-1.2-1-2.6-1.9-3.4-3.1
	c-5.2-8.6-13.3-14.8-18.7-23.2c-5.6-8.7-10.5-17.8-12.1-28.3c-0.2-1.5,0-3.3-0.6-4.5c-1.8-3.3-1.6-6.6-0.6-10
	c0.3-1.1,1.2-2.5,0.8-3.2c-2.2-4.2-0.6-8,0.2-12.1c0.7-3.7,0.4-7.6,0.6-11.5c0-1.2,0-2.3,0.2-3.5c0.8-3.6,4-6.7,3.3-10.6
	c-0.7-3.7,1.1-6.7,1.9-9.8C167,313.7,167,307.4,170.5,301.1z"/>
<path id="crown" class="st0" d="M405.2,219.2c-6.5-2.2-13-2.9-18.9-5.7c-3.6-1.7-8.4-0.2-12.2-2.4c-5.9,0.6-11-3-16.7-2.9
	c-10.3,0.1-20.7,0.3-31,0.4c-0.8,0-1.6-0.1-2.3,0.2c-15.8,5.7-33.3,4.1-48.8,10.9c-5.9,0-11.3,1.6-16.5,4.9
	c-7.1-1.5-13.3,2.1-19.4,5.1c-5.1,2.5-10.3,4.7-15.7,6.5c-6.5,2.2-12.8,4.9-17.7,10.2c-1.8,1.9-4.2,3.4-6.4,4.9
	c-0.9,0.6-2.1,0.9-3.3,1.3c-0.9-0.8-2.1-1.3-2.5-2.2c-1.4-3.5-3.4-7.1-3.5-10.8c-0.4-12.8-4.8-24.6-7.3-36.9c-0.8-3.8-2.9-7-5.2-10
	c-1.4-1.9-2.4-3.9-1.1-7.2c3.6-2.2,8.2-4.6,13-4.6c9.6,0,18.5-4,27.9-4.8c4.5-2.8,9.6-1.9,14.6-1.9c0.9,1.1,1.8,2.2,2.8,3.4
	c2-0.9,4.1-1.9,6.3-2.9c1.3-5.7,4.9-10.5,3.8-16.6c2-8.5,2.7-17.4,5.9-25.5c2.9-7.5,3.4-15.4,5.4-23.1c2.7-10.6,2.8-21.7,6.6-32.2
	c2-5.6,2-12,3-18c0.8-4.5,1.8-8.9,2.8-13.4c5.4,3.1,8.7,7.6,11.4,13.1c3,6.4,4.4,13.9,10.1,18.9c1.8,7.5,6.1,14,8.4,21.2
	c2.6,8.1,6.7,15.4,12.2,21.9c2.1,2.5,2.8,5.4,4,8.1c1.2,2.7,3.4,4.2,7.2,3c1.2-3.1,3.6-6,6.4-8.5c0.6-0.5,1-1.1,1.6-1.6
	c3.2-2.9,2.6-8,6.4-10.7c3.1-2.2,5.1-5.6,7.5-8.6c7.5-9,13.3-19.5,22-27.6c5.6-5.2,11-10.5,14.6-17.3c0.7-1.2,2.1-2.1,3-3
	c1.8,0.4,1.7,1.6,1.7,2.6c0.1,8.4,0.2,16.9,0.4,25.3c0,1.9,0.3,3.9,1,5.6c0.9,2.2,1.1,4.5,1,6.8c-0.4,5.8,0.8,11.4,2.6,16.9
	c1.4,4.4,2.7,8.8,2.6,13.5c-0.1,4.1,2.6,7.1,3.7,10.7c1.2,4.4-0.2,9,2.1,13.5c2,3.9,0.1,9,2.1,13.4c0.7,1.6,0.5,3.7,0.6,5.6
	c0.3,4.6-0.2,9.3,2,13.6c0.7,11.8,4,23.4,3,35.3C406.1,217.7,405.8,218.1,405.2,219.2z"/>
<path id="neck" class="st3" d="M344,515.3c0.1,7.8,0.7,14.3,0.2,20.8c-0.5,6-2.1,11.9-3.2,17.9c-2.8,3.1-6.2,4.7-10.1,4.9
	c-5.7,0.2-11.4,0.9-17-1.1c-1.4-0.5-3-0.6-4.5-0.6c-17.1-0.4-32.5-6.2-47.7-13.7c-17.6-8.8-33.4-20-49-31.7
	c-6.1-4.6-11.5-9.8-16.4-15.7c-1.2-1.5-2.7-2.7-4.2-3.8c-7.2-5.2-12.9-11.9-17.7-19.3c-1-1.6-2.1-2.8-3.5-4.1
	c-9-7.7-30.8-31.7-38-47c3-5.2,6-10.5,9.1-15.8c0.8-1.3,1.8-2.4,2.9-3.5c1.3-1.4,2.8-2.7,4.9-2.7c2.2,0,3.2,1.4,3.9,3.4
	c1,3,5.6,3.2,5.9,6.6c0.4,3.9,4.2,4.1,6.1,6.4c4,5.1,8.5,9.9,12.2,15.2c2.2,3.2,4.6,6.1,7.3,8.8c15.6,15.8,31.2,31.6,46.9,47.4
	c1.9,1.9,3.9,3.7,6,5.4c3.6,2.8,7,5.7,9.8,9.3c2.4,3,5.4,5.1,8.7,7.2c9.1,5.5,18.6,10.2,27.8,15.5c7.4,4.2,15,4.8,23.2,3
	c5.6-1.3,10.9-2.9,16.1-5.6c4.7-2.4,9.7-4.4,14.6-6.3C339.6,515.4,341.2,515.6,344,515.3z"/>
<path id="boot-l" class="st5" d="M155.1,978.5c-4.8,3.4-11.1,4.1-14,9.6c-4.9,0-9.4,0-14.3,0c-3.7-1.5-6.7-4.4-10.1-7.3
	c-0.4-2.5-0.5-5.2-1.3-7.6c-0.7-2.2-1.6-4.3-0.3-8.5c0.6-1.6,3.7-3.3,6-6c2,0,3.8,0,6.2,0c4.1,4,8.9,7.8,14.7,11.4
	c3.2,0,6.9,0,9.8,0C155.5,972.1,155.9,974.5,155.1,978.5z"/>
<path id="boot-r" class="st5" d="M261,985.3c0.4,2.3,0.9,4.6-1,6.5c-5.3,1-18.3,2.3-21.3,0.8c-5.1-2.6-11.6-0.7-16.4-6.2
	c-1.2-3.6-0.5-8.1-0.3-13c5.4-2.9,11.1-2.5,16.2-0.1c5.1,2.4,10.8,3.4,15.1,7.5C255.5,982.8,259.1,982.8,261,985.3z"/>
<path id="hand-r" class="st2" d="M233.2,645.9c0,2.8,0,5.4,0,8.5c-3.3,4.2-6.2,9.4-10.5,13c-4.3,3.5-8.5,7.7-14.4,9
	c-2.2-1.9-4.5-3.8-6.8-5.7c-0.2-2.7-0.7-5.3-3.7-6.5c1.5-3.6,1.5-7.4,0.8-11.1c-2-3.4-5.8-0.9-7.9-2.4c-2-1.5-2.8-3.2-3.4-5
	c-0.3-0.2-0.6-0.6-1-0.6c-5.7-0.5-10.9-3.1-16.8-3.1c-8.1,0-15.6-2.6-22.7-6.4c-4.1-2.2-7.5-5.2-9.8-9.8c-0.9-5.7,1-12-1.9-18
	c0.8-2.7,1.5-5.7,2.7-8.5c1.4-3.3,1.8-6.6,1.7-10.1c-0.2-7.7-0.3-15.3-0.3-23c0-4.2-0.3-8.4,1.2-12.5c0.7-1.9,0.9-3.8-0.1-5.5
	c-2.1-3.7-1.6-7.4,0.4-10.9c1.9-3.4,3.1-7,3.1-11.4c4.7-1.6,9.3-3.4,11.5-8c5.2-0.5,9.8-1.1,14.4-0.2c1.7,1.4,1.7,3.2,1.1,5.1
	c-0.6,2.2-1.9,4.4-1.8,6.5c0.4,9.7-2.7,18.8-5.2,27.9c-1.6,5.8-2.7,11.8-4.8,17.5c-2.1,5.7-2.8,11.8-4.6,17.6
	c-1.2,4.1-2,8.1-1.9,12.4c0.1,4.3-1.8,8.1-3.1,12c-0.5,1.5-1.2,2.8-0.5,5.3c8.2,7.8,19,12.1,30.6,14.9c2.2,0.5,4.6,0.2,6.8,0.6
	c3.8,0.6,6.8-3.1,11.1-1.2c2.9,1.3,6.8,1,10.1,0.6c6-0.6,11.2,2,16.7,3.3C227.6,641.1,230.2,644,233.2,645.9z"/>
<path id="hair" class="st2" d="M241.4,274c1.4,1.7,2.3,2.8,3.5,4.2c0.2,4.9,0.4,9.8,0.6,15.4c4.6-6,9.5-10.7,12.9-16.5
	c1.1-1.9,2.9-3.5,4.6-5.2c5.4-5.4,10.8-10.8,16.3-16.1c1.4-1.3,3-2.4,4.6-3.4c1.2-0.8,2.7-1.2,4.4-2c0.9,0.7,1.8,1.4,3,2.3
	c-3.8,3.3-6.8,6.1-9.9,8.7c-6.5,5.5-11.2,12.4-16.1,19.2c-6.7,9.3-12.9,18.8-17.8,29.3c-1.5,3.2-3.8,4.7-7.3,4.1
	c-5.2-3.6-3.5-9.6-4.3-14.7c-6.1,2.9-6.1,2.9-12.7,12.6c-3.2,4.7-7.2,8.9-8.7,14c-3.2,2.2-6,4-9.4,4.1c-0.5-0.9-1.2-1.5-1.2-2.2
	c0-5.4-0.6-10.8,0.3-16c2.1-11.9,3.4-24,7.2-35.7c2.5,1.9,2,4.5,1.2,6.3c-1.8,4-2.4,8.1-1.9,12.3c0.5,3.9-2.4,7-1.4,11.1
	c0.7,3.1-0.8,6.6-1.1,10c-0.1,1.7-0.6,3.8,1.4,5c0.6-0.4,1.6-0.7,1.9-1.2c4.3-10.2,11.1-19,16.9-28.4c0.8-1.3,1.8-2.5,2.5-3.8
	C234.2,280.3,234.2,280.3,241.4,274z"/>
<path id="mouth" class="st2" d="M252.5,395.6c0.6,0.3,0.9,0.5,1.1,1c2.6,6.3,4.7,12.9,7.7,19c2,4,4.2,8,8.1,10.8
	c2.5,1.8,4.7,3.9,6.9,5.8c3.2,0.2,6.2,0.4,9.9,0.7c-2.3,3.7-4.9,6.2-8.1,8.1c-3.4,1-6.8,0.8-10.7,0.5c-3.8-2.1-6.6-5.4-8.9-9.6
	c-3.9-7.5-6.7-15.3-6.6-23.9c0.1-4.2,0.2-6.1,0.3-10.3L252.5,395.6z"/>
<path id="eye-r" class="st2" d="M316.3,304.5c-2.5,5.8-4.1,12.6-10.5,16.4c-6.9-0.8-12.6-3.1-14.3-11.2c1.9-2.9,1.3-6.8,2-9.8
	c1.8-3.1,4.2-4.2,7.4-5.3c3,0.6,6.7,1.1,10.3,2C313,297.2,313.8,298.9,316.3,304.5z"/>
<path id="eye-l" class="st2" d="M368.9,333.2c-4.1-0.5-5.8-2.2-7.6-3.5c-0.2-0.3-0.7-0.6-0.7-0.9c-0.2-2.7-0.4-5.3-0.5-7.7
	c1.9-4.6,4.1-8.4,9.1-10.1c4.9-1.6,9-0.6,13,2.1c0.3,0.7,0.7,1.3,0.9,2c1.6,8.1-1.4,13.4-9.4,15.9
	C371.9,331.5,370.2,332.6,368.9,333.2z"/>
<path id="ruby-lb" class="st2" d="M390,49.2c-4.1-0.5-5.8-2.2-7.6-3.5c-0.2-0.3-0.7-0.6-0.7-0.9c-0.2-2.7-0.4-5.3-0.5-7.7
	c1.9-4.6,4.1-8.4,9.1-10.1c4.9-1.6,9-0.6,13,2.1c0.3,0.7,0.7,1.3,0.9,2c1.6,8.1-1.4,13.4-9.4,15.9C392.9,47.5,391.3,48.6,390,49.2z"
	/>
<path id="ruby-mb" class="st2" d="M281.5,9.8c-2.5,5.8-4.1,12.6-10.5,16.4c-6.9-0.8-12.6-3.1-14.3-11.2c1.9-2.9,1.3-6.8,2-9.8
	c1.8-3.1,4.2-4.2,7.4-5.3c3,0.6,6.7,1.1,10.3,2C278.2,2.5,279,4.2,281.5,9.8z"/>
<path id="ruby-lf" class="st3" d="M391.3,44c-2.3-0.3-3.2-1.2-4.2-1.9c-0.1-0.2-0.4-0.3-0.4-0.5c-0.1-1.5-0.2-2.9-0.3-4.2
	c1.1-2.5,2.3-4.6,5-5.5c2.7-0.9,4.9-0.3,7.1,1.1c0.2,0.4,0.4,0.7,0.5,1.1c0.9,4.4-0.8,7.4-5.2,8.7C392.9,43.1,392,43.7,391.3,44z"/>
<path id="ruby-mf" class="st3" d="M276.4,11.1c-1.5,3.4-2.4,7.4-6.2,9.7c-4.1-0.4-7.4-1.8-8.4-6.6c1.1-1.7,0.8-4,1.2-5.8
	c1.1-1.8,2.5-2.5,4.4-3.1c1.8,0.3,3.9,0.7,6,1.2C274.5,6.8,274.9,7.8,276.4,11.1z"/>
</svg>
