<?xml version="1.0" encoding="utf-8"?>
<!DOCTYPE svg PUBLIC "-//W3C//DTD SVG 1.1//EN" "http://www.w3.org/Graphics/SVG/1.1/DTD/svg11.dtd">
<svg version="1.1" id="king-view-matrix-layer" xmlns="http://www.w3.org/2000/svg" xmlns:xlink="http://www.w3.org/1999/xlink" x="0px" y="0px"
	 width="500px" height="1000px" viewBox="0 0 500 1000" style="enable-background:new 0 0 500 1000;" xml:space="preserve">
<style type="text/css">
<![CDATA[
	.st0{opacity:0.9;}
]]>
</style>
<path id="eye-r_1_" class="st0" d="M352.3,306.9c0,19.8-29.1,23.9-43.1,29.7c-12.4-1.5-17.8-4.7-28-19.5c-7.3-14.9-9-36.1-7.7-41.8
	c7.9,6.6,21.1,12.9,26.9,10.8c5.4,1.2,12,2.1,18.5,3.8C322.2,291,347.8,296.1,352.3,306.9z"/>
<path id="eye-l_1_" class="st0" d="M367.7,341c-6.8-0.9-9.7-4.1-12.7-6.4c-0.3-0.6-1.2-1.1-1.2-1.7c-0.3-5-0.7-9.8-0.8-14.2
	c3.2-8.5,6.8-15.5,15.2-18.6c8.2-2.9,16.8-3.9,23.9-1.4c20.9,4.5,39.6-3.9,39.9-2.6c2.7,14.9-34.8,37.4-48.2,42
	C380.8,338.9,369.9,339.9,367.7,341z"/>
<path id="silueth_1_" d="M216.8,795.7c-1.2-1.3-2.7-1.2-4.3-1.2c-17.6,0-35.2,0-52.8,0c-3,0-6.1,0.2-9.1-0.9c-2.1-0.7-4.5-1-6.7-1.1
	c-3.1-0.1-6.6,0-10.2,0l-45.5,0.8c-4.5-1-8.9-1.2-13.5-1.2c-4.1,0-8.4,0.7-12.3-1.7c-11.9,2.1-21.5-5.5-32.5-7.4
	c-1.1-0.2-2.2-0.7-3.5-1.1c-5-5.8-11.4-9.9-18.1-13.8c-3.1-3.5-4.5-7.6-5-12.4c-0.5-4.5-2.3-8.8-3.5-13.3c0.3-1.2,1.1-2.7,1-4.1
	c-0.4-6.3,0.8-12.3,2.8-18c2.5-7.3,2-15,4.1-22.4C9.2,693,8,687.3,8,681.6c7.1-12.7,10.6-26.6,11.8-41.2c0.5-6.6,3.3-12.5,6.4-18.6
	c-0.3-6,1.4-11.8,3.2-17.7c3.8-12.4,7.5-24.8,10.7-37.3c1-4.2,3.6-7.7,4.3-11.8c0.7-4.3,2.4-8,3.8-11.9
	c4.8-13.4,12.3-25.5,17.6-38.6c3.9-4.8,4.7-11.1,8.4-16.1c3-3.9,4.6-8.8,7-13.1c2.9-5.4,5.9-10.7,8.7-16.1c3-5.7,5.9-11.6,7.5-17.9
	c0.9-3.6,2.8-6.4,5.6-8.3c2-1.3,3.4-2.7,4.8-4.6c3-4.4,38.1-42,41.2-46.4c3.3-4.6,74,128.7,185.5,131.5l29.4-2.8
	c-0.5,9.7-10.2,62.9-9.9,77.8c-1.2,1.5,6.5,30.9,4.6,31.7c-0.9,3.3-0.8,6.4,0,9.3c0.6,2.3,1.5,4.3,0.1,6.6c-0.4,0.6-0.5,1.6-0.2,2.2
	c4.6,10.1,4.3,21.7,9.5,31.6c0.5,1,1.3,2.1,1.3,3.1c0,5.5,1.8,10.5,4.5,15.2c0.8,8.1,5.4,15,7.5,22.7c2,7.3,4.8,14.5,8,21.3
	c5.6,11.8,9.4,24.1,13.2,36.5c0.3,1.1,0.8,2.1,1.1,3.3c0.8,3.3-0.1,6.8,2,10c1.8,2.9,3.1,6.1,4.6,9.4c-0.8,5.1-3.9,8.8-8.4,12
	c-3.8-0.6-7.9-1.4-12-2c-3.8-0.5-7.6-0.5-11.3-1.9c-2-0.8-4.5-0.3-6.8-0.4c-20.7-0.2-41.4,0.1-62-0.7c-8.7-0.3-17.4-1.6-26.2-1.5
	s-17.5,0-26.3,0"/>
</svg>
