<?xml version="1.0" encoding="utf-8"?>
<!DOCTYPE svg PUBLIC "-//W3C//DTD SVG 1.1//EN" "http://www.w3.org/Graphics/SVG/1.1/DTD/svg11.dtd">
<svg version="1.1" id="mrs_Arrow" xmlns="http://www.w3.org/2000/svg" xmlns:xlink="http://www.w3.org/1999/xlink" x="0px" y="0px"
	 width="100px" height="100px" viewBox="0 0 100 100" style="enable-background:new 0 0 100 100;" xml:space="preserve">
<style type="text/css">
<![CDATA[
	.st0{fill-rule:evenodd;clip-rule:evenodd;}
	.st1{fill-rule:evenodd;clip-rule:evenodd;fill:#BF4D28;}
]]>
</style>
<path class="st0" d="M99.8,7.9c-3.4,0.6-3.4,0.6-4,3.1c-0.1,0.3-0.2,0.6-0.4,0.9c-2.4,2.7-3.6,5.8-5.2,8.8c-0.5,0.9-0.9,1.9-1,2.9
	c-0.3,2.4-1.5,4.8-2.3,7.1c-0.7,1.9-1,3.8-1.3,5.7c-0.4,2.2-1.5,4.1-2.8,6.4c-0.1,0.4,1.1,0.5,1.1,1.2c-1.9,0.4-2.3,1.4-2.3,2.8
	c0.1,2.6-0.2,5.1-0.2,7.7c0,1.5,1,2,3.1,1.4c1.7-0.5,3.3-1,5.2-0.2c1,0.4,2.3-0.2,3.7-0.2c1,1.6,1.3,3.4,1.5,5.2
	c0.1,1.9-1.4,3.2-3.7,4.3c-3.5,1.7-7,3.3-9.8,5.6c-2.1,1.7-4.6,3.3-4.4,5.9c0,0.1,0,0.2,0,0.2c-2.7,1.5-3.6,4.1-5.9,5.8
	c-1.3,1-2.5,1.9-2.8,3.2c-0.3,1.2-1.3,1.9-2.5,2.8c-3,2.2-6.2,4.6-4.3,8.3c0.3,0.6,0.1,1-0.4,1.5c-1.7,1.5-4,2.1-6.8,1.6
	c-1.9-0.4-4,0-5.8-0.9c-5.9-2.7-11.3-5.8-15.7-9.7c-0.4-0.4-0.6-0.8-0.8-1.2c-0.6-1.3-1.9-2.1-3.4-3c-3.5-2-7.1-4-10.2-6.4
	c-3.6-2.8-6.6-6-10.8-8.3c-1.9-1-3.7-1.8-4.3-3.6c-0.4-1.1-2.3-0.3-3.1-1.4c0.4-1.6,1.1-3.2,3.8-4.1c5.1-1.7,10.5-2.3,15.8-3.3
	c0.3-0.1,0.6-0.2,0.8-0.2c0.8-0.6,0.7-1.4,0.5-2c-1.3-3.4-1.9-6.9-3.8-10.2c-1-1.7-1.5-3.5-1.8-5.3c-0.4-2.7-1.2-5.3-2-7.9
	c-0.2-0.6-0.4-1.1-1.2-1.3c-1.9-0.5-2.1-1.6-2.1-2.8c0-1.5,0.1-2.9,0-4.4c0-0.5,0-1-0.3-1.4c-0.4-0.6-1.5-1.1-0.9-1.8
	c0.7-0.9,1.7-1.5,3-2c4.2-1.3,8.5-2,13-2.7c2.8-0.4,5.5-0.3,8.3-0.4c0.7,0,1.8,0.1,2.2-0.1c3.3-2.4,7.8-2.7,11.8-3.9
	c1-0.3,2-0.5,3.1-0.5c2.1-0.2,4.2-0.3,5.5-1.8c0.2-0.2,0.6-0.5,1-0.5c4.6-0.4,8.8-2.3,13.6-2.4c1.6,0,3.3-0.3,4.5-0.9
	c3.3-1.6,7-2.3,10.8-2.9c0.2,0,0.5-0.1,0.6-0.2c2.7-2.5,6.8-1.4,10.1-2.2c1-0.2,1.9-0.2,2.6,0.5c0.6,0.7,0.1,1.2-0.5,1.7
	c-1.4,1.1-0.5,2.1,0.4,2.9C99.8,6,100.3,6.7,99.8,7.9z"/>
<path class="st1" d="M30.6,74.7c-2-0.8-3.4-1.7-4.3-3.3c-1-1.8-2.8-3.3-5.8-3.2c-1.1-0.9-0.6-1.7-1.3-3.1c3.7,1.2,6.5,0,9.5-0.1
	c1.5-0.1,3,0.4,4.7,0c1.9-0.4,3.1-1.4,5-1.7c0.7-0.1,1.1-0.9,0.7-1.6c-1-2-2.1-4-4.3-5.5c-0.9-0.6-1.2-1.4-1.6-2.2
	c-2.2-4.9-5.2-9.5-8.4-14.1c-2.5-3.6-4.4-7.3-5-11.3c-0.2-1.3-1.5-2.7-0.2-3.8c1.3-1.1,3.6-0.9,5.5-1.4c1.7-0.4,3.7-0.4,5.2-1
	c3.3-1.3,7-1.3,10.3-2.2c2.9-0.8,6.4-0.3,8.7-2.3c3,1.3,5.2-0.5,7.9-0.8c4.9-0.5,8.9-3,13.7-3.8c0.7-0.1,1.1-0.5,1.6-0.7
	c2-1.1,3.9-2.1,6.6-1.7c1.2,0.2,2.2-0.6,3.4-0.5c1.4,1.6,1.1,3.5-1.3,4.5c-5.4,2.1-6.9,6-8.8,9.8c-0.6,1.2-1.2,2.4-1.8,3.7
	c-1.6,3.3-1.8,6.9-3.2,10.3c-0.8,1.9-1.8,3.8-2.5,5.7c-0.4,1-1.1,2-0.8,3.1c0.1,0.5-0.1,1-0.6,1.5c-2.3,2.3-2.2,4.8-1.7,7.6
	c-0.2,0.4-1.3,0.3-1.5,1.1c0,1,1.2,1.6,2.4,2.1c2.8,1.2,5.8,1.6,8.9,1.5c0.7,0,1.2-0.2,1.7-0.5c1.3-0.7,2.9-0.4,4.3-0.2
	c0.6,0.1,1.2,0.4,1.2,0.9c0.1,0.5-0.3,1-0.9,1.1c-3.3,0.9-4.2,3.1-5.8,5.1c-1.2,1.5-3.1,3-5.4,4.2c0.4,1.8-0.5,3.3-2.2,4.6
	c-1.6,1.2-2.6,2.6-3.2,4.2c-0.4,1-2.1,1.1-2.5,2c-1.2,2.7-3.4,4.8-6.4,6.6c-0.8,0.5-0.7,1.5-1.5,1.9c-1.3,0.3-2.2-0.4-2.9-0.9
	c-1.5-1.2-3.4-2-5.1-3.1c-2.1-1.2-4.1-2.5-5-4.6c-0.9-2.2-3.4-3.7-5.8-5.1C30.4,76.5,30.4,76.5,30.6,74.7z"/>
</svg>
