<?xml version="1.0" encoding="utf-8"?>
<!DOCTYPE svg PUBLIC "-//W3C//DTD SVG 1.1//EN" "http://www.w3.org/Graphics/SVG/1.1/DTD/svg11.dtd">
<svg version="1.1" id="characterEagle" xmlns="http://www.w3.org/2000/svg" xmlns:xlink="http://www.w3.org/1999/xlink" x="0px" y="0px"
	 width="1000px" height="1000px" viewBox="0 0 1000 1000" style="enable-background:new 0 0 1000 1000;" xml:space="preserve">
<style type="text/css">
<![CDATA[
	.st0{fill:#AAAAAA;}
	.st1{fill:#E6AC27;}
	.st2{fill:#888888;}
]]>
</style>
<path d="M688.2,892.2c-13.1-2.4-15.7-20.1-32-15.6c-6.3,23.3,4.1,46.5-4,69.8c-27.4-1.6,3.6-62.6-18.9-70.2
	c-13.1,8.4-26.1,17.3-38.7,26.1c2.7-14.4,9.4-27.7,22-37.3c32-25.3,9-43.3,0.9-75c-9-35.7-11.2-104.7-72.4-67
	c-32.9,20.5-44.5,65.8-46.3,97.5c-1.8,27.3-8.5,43.3,9.4,67.4c11.2,14.8,25.6,31.7,22,51c-19.3-12.4-31.9-31.7-49.5-46.1
	c-4-0.4-25.6,51-30.6,57.4c-18-2,9.4-53.8-1.8-61.4c-30.1,8-51.7,26.9-85.5,27.7c4.5-24.1,75.6-39.7,95.4-53
	c24.7-16.9,40.9-103.1,29.2-128.4c-26.1,1.6-35.5,12.4-59.4-2.4c-20.7,0-15.7-7.6-35.1-4c-27,17.3-48.1,41.3-76.9,55.8
	c-43.2,21.7-41.8-27.7-73.3-36.5c-48.6-13.2-76.5-30.1-105.7-68.2c-17.5-22.9-2.7-30.9-35.1-40.5c-21.1-6.4-35.1-0.8-45-21.3
	c-15.3-32.9-1.8-66.6,6.7-100.3c9.4-36.5,126,18.5,160.6,6.4c63.9-22.5,177.7-14,137.2-101.9c13.5-8.4-22.9-26.5-30.1-32.1
	c-24.3-18.1-17.1-14.8-49.5-8.8c-76,14.4-71.5-2.8-41.8-56.6c31-56.2,76.9-89.9,115.6-138.8C421,102.5,501.1,82.4,605.9,52
	c30.1-8.8,29.7,14,33.7,33.7c5.8,30.5,32.8,16.5,57.6,24.1c14.4,4.4,7.7,56.2,1.8,63.8c9,12.4,34.6,5.2,40.5,21.7
	c5.9,16.5-18.9,39.7-26.1,54.2c13.1,18.9,2.7,46.9,6.7,68.2c3.6,17.3,10.8,47.8,6.3,63c25.6,18.5,46.3,42.5,72.4,60.2
	c40,27.3,67.9,30.9,88.6,74.2c31,64.6,95.8,115.6,41.4,181c-49.5,59.4-69.7,134.4-114.7,195.8c-38.7,52.2-47.7,2.4-61.6-28.9
	c-15.3-34.9-25.6-71.4-43.6-105.5c-7.2-13.6-48.1-89.1-70.6-39.3c-12.1,26.9-6.3,89.5,10.8,114.4C663,852.5,690.9,864.5,688.2,892.2
	z"/>
<path class="st0" d="M821.9,842.9c-7.2,0-4.1,15.7-14.4,4.8c1.8-18.9,16.6-40.5,21.6-59.8c9.4-36.5,6.8-51.8-4.1-87.1
	c-5.4-16.9-82.8-134.4-74.7-136.8c49.5-14.4,110.7,197.4,114.3,196.6c31.9-33.3,40.9-60.6,28.3-102.3c-12.2-39.3-60.7-59-73.8-97.1
	c-6.3-18.9-10.8,16.5-22-20.1c-10.8-35.3,30.1,4.4,36.4,12c15.3,18.5,55.3,77.8,76.5,85.5c12.6-73.8-66.6-151.3-126-189.8
	c-21.1-13.6-49.5-32.9-67.9-48.6c-31.5-26.9-29.7-49-27.4-87.1c2.7-36.9,7.2-71.4,30.6-103.5c18.9-26.1-69.7-2-57.6-44.5
	c6.3-14.8,23.4-22.9,27-38.5c-8.5-8.4-39.6-9.6-52.2-8.8c-69.7,4.8-6.8-26.9-25.6-50.6c-53.5,13.2-118.3,25.3-164.7,53
	c-34.2,20.1-44.1,38.9-62.5,71.4c-24.3,44.1,13.5,27.7,40,53c15.7,14.8,45.4,23.3,63.9,37.3c26.1,20.5,38.7,40.5,58,64.6
	c0,34.1-24.7,104.3-39.6,130.8c-11.2,6-15.3-8-20.7,7.6c-5.9,16.5-10.8,33.7-15.3,50.6c-11.2,44.1-37.8,117.6-25.2,163.7
	c7.2,26.1,160.2-9.6,184-16.9c68.8-21.3-65.2-112.8-31.5-126.8c54.9,71.4,119.2,145.7,143.5,231.1c5.4,18.5,16.2,34.1,22.5,52.6
	c9.4,26.5,3.6,52.2,35.5,38.9c16.2-6.8,27.4-38.5,26.5-36.1C820.5,841.7,822.3,841.7,821.9,842.9z"/>
<path class="st2" d="M287.3,623c21.1,24.1-101.2,12.8-118.8,18.1c-37.3,10.8-16.2,40.9,1.3,56.6c29.7,26.5,43.6,19.7,81.9,10
	c10.3-2.8,103.5-35.7,82.3-7.2c-30.6,13.6-97.6,4.8-63.4,48.2c25.6,32.5,25.6,33.3,61.6,6.8c15.7-11.6,32.8-20.9,49.5-30.9
	c10.8-6.4,41.8-4.4,45-8.4c-23.8-57,24.3-142.1,9.4-201.4c-15.3-60.2-27.9-24.9-74.2-6.4c-38.7,15.3-105.3,32.1-148,29.7
	c-29.2-1.6-72.9,4.4-98.5-8c-54.9-26.5-30.1,33.7-35.5,51.8C59.2,654.3,243.7,621.4,287.3,623C288.7,624.6,276.1,622.6,287.3,623z"
	/>
<path class="st1" d="M427.7,440.8c81.9,11.2,55.8-74.6,103-85.5c-19.3-56.2-105.3-116.4-171.4-120.4
	c-16.2,7.2-157.9,108.3-116.5,133.2c63-18.5,136.8-20.1,202.5-19.7c44.5,0,49.5,28.5,7.6,24.9c-25.2-2.4-96.3-29.7-114.3,2.4
	C367,398.6,394.4,423.1,427.7,440.8C441.7,442.8,393.5,422.7,427.7,440.8z"/>
<ellipse cx="540.2" cy="226.5" rx="21.6" ry="19.3"/>
<ellipse cx="465.1" cy="192" rx="18" ry="16.1"/>
</svg>
