<?xml version="1.0" encoding="utf-8"?>
<!DOCTYPE svg PUBLIC "-//W3C//DTD SVG 1.1//EN" "http://www.w3.org/Graphics/SVG/1.1/DTD/svg11.dtd">
<svg version="1.1" id="bergamot-just-browse" xmlns="http://www.w3.org/2000/svg" xmlns:xlink="http://www.w3.org/1999/xlink" x="0px" y="0px"
	 width="1000px" height="1000px" viewBox="0 0 1000 1000" style="enable-background:new 0 0 1000 1000;" xml:space="preserve">
<style type="text/css">
<![CDATA[
	.st0{fill-rule:evenodd;clip-rule:evenodd;fill:#A7A9AC;}
	.st1{fill-rule:evenodd;clip-rule:evenodd;}
	.st2{fill-rule:evenodd;clip-rule:evenodd;fill:#965A5A;}
	.st3{fill-rule:evenodd;clip-rule:evenodd;fill:#FFFFFF;}
	.st4{fill-rule:evenodd;clip-rule:evenodd;fill:#D1D3D4;}
]]>
</style>
<g>
	<path class="st1" d="M644.7,125.9c14.6,11.6,77-44.8,84.3-59.8c7.5-15.6,28-45.1,43.6-28c19.6,21.4,40.1,44.6,56.3,68.8
		c47.5,70.9,96.4,128.7,130.4,207.3c10.5,24.4,54.5,92.2,36.5,120c7.5,24.7-17.7,73.3-28.6,98.3c-17,38.8-37.4,92.7-38.8,138.5
		c-0.5,17.6-13.6,47.1-8.2,63.4c-3.5,4.6-8,25-7.1,30.6c-9,14.9-13.9,23.9-17.1,40c-13.2-8.8-10.9,53.4-23,67.7
		c-28.6,33.7-75.8,66.6-115.8,83c-34.8,14.3-66.9,15.2-100.6,24c-18.7,4.9-55.5,21-75.3,13c-5.6-2.2-34,4.3-42.7,5.1
		c-17.7,1.6-43.1-6.9-59.3-1.5c-22.2,7.3-87.3,3.5-107.2-4.7c-36.3-15.1-81-7.2-117.5-22c-33.3-13.6-77.7-17.3-108.8-37.7
		c-17.4-11.4-37.5-12.8-53.6-27.2c-17.3-2.3-29.1-25.4-44.5-32.1c-23.6-10.2-54.6-85.3-45.9-112c8.9-27.3,1.7-62.6,14.7-90
		c12-25.2,20.3-93.1,49.2-105.8c5.3-2.3,23-31.3,25.7-37.7c4.2,0.6,37.6-47.5,41.1-53.9c16.1-28.7,46-56,65.9-81.9
		c9.4-12.3,28.1-42.2,43.5-50.3c-0.5-6.6,37.6-40.4,42-46.2c11.6-15.4,14.2-62.2,27.2-71.8c7.5-5.6,15.3-39.2,17.9-48.1
		c8.6-28.1,19.3-60.4,35.2-85C362.8,74.4,404.6,2.9,415.4,0c5.5,0.7,31.7,38.2,35.2,44.8c28.8,17.7,48.5,46.4,79.8,61.6
		c17.5,8.5,95.3,48.1,113.2,19.7C644.8,127.1,643.9,127.2,644.7,125.9z"/>
</g>
<path class="st4" d="M17.1,800.6c10.6,14.2,14.5,34.7,25.3,50.1c11.5,16.2,29,26.3,44.3,37.6c30.4,22.4,60.6,31,94.8,45.5
	c60.2,25.5,128.4,41.5,193.2,46.1c10.3,12.7,74.9,3.1,89.5,4.7c36.8,4,73.8,0.8,110.9-1.1c72.5-3.9,144-22.6,209-55
	c47.8-23.8,136.2-101,58.3-146.2c-48.4-28-135.6,38.3-185.1,48.2c-34.1,6.9-67.5,14.1-101.5,16.3c-12.6,15.4-82.4-1.8-102.7,5.2
	c-11.8-4-179.8-16-166.8-34.9c15,7.4,48.2,19.8,66.1,11.9c1.5-0.7,45.1,2.9,46.7,4.4c21.4,20.6,118.2,2.9,147.1,2.9
	c20.8-14.4,32.6-35.9,39.5-61.5c13.2-48.6,112-45.6,126,0.4c5.3,17.4,40.9,19.2,47.5,2.5c5.2-13.1,6.2-27.1,11-39
	c21.6-53.5,66.5-64.8,113.4-44.3c32.2,14.1,34.9-1.2,38.3-32.4c1.9-18,5.4-48,13.9-64.1c8.9-16.9,6.8-40.4,11.5-58.8
	c4.6-18.1,17.6-36.5,24.6-54c9-22.5,23.5-69.1,5.6-92c-4.9-6.3-15.9-42.7-16.2-51.7c-6.1-7.7-24.3-34.9-23.9-44
	c1.3-26.7-43.3-71.5-56.2-93.5c-18.7-31.7-37.2-65-60.7-93.1c-11.1-13.4-22.4-33.2-33.8-44.3c-21.3-20.9-23.2-10-43.9,0.8
	c-23,12-38.5,48.5-62.8,61.2c-86.5,45.1-162.9-14.6-227.4-71.6c-7.1-6.3-28.6-40.2-36.4-38.8c-5.8,27.2-35,57.7-47.5,83.7
	c-22.6,47.1-32.5,99-55.2,145.5c-27.2,56-32.8,118.7-49.7,177.8c-6.8,23.9-5.4,48.6-9.6,72.5c-0.9,5.1-2.4,47.6-4,48.7
	c-3.7-34.6-2.9-64.5,0.2-100.9c1.2-18.2,2.2-37.8,6.3-55.6c0.9-3.8,4.4-19.3,5.2-20.7c-11.2-5.2-24.3-16.2-32.8,5.5
	c-28.9,28.4-59.8,85.3-96,113c-13.6,13.4-21.6,47.4-43.2,59c1.4,4.7-11,23.2-14,26.6c-14.3,16.4-19,47.6-32.9,66.3
	c0,25.1-22.6,59.1-27.9,84.3C9.6,749.5,21.4,777.3,17.1,800.6C18.2,802.1,18.3,794,17.1,800.6z"/>
<path class="st0" d="M775.1,773.5c35.5,8.4,52.9-20.2,85.7,11.5c24.9,24.2,41.5-21.4,46.3-45.5c-1.9-3-1.9-5.9,0.1-8.9
	c-5.4-7.8-15.3-13.5-19.7-21.9c-15.2-12.1-39.7-19.9-58.2-12C800.1,709.1,774.3,740.2,775.1,773.5
	C778.6,774.3,775,767.3,775.1,773.5z"/>
<path class="st0" d="M695.8,766.8c-41.2-31.5-117.2-6.5-112,54.6c2.2,26.4,69.2-4.4,88.1-7.2c11.5-1.7,25.9-13.2,36.7-10.8
	C724.6,791.3,692,776.7,695.8,766.8C694.7,766,694.9,769.1,695.8,766.8z"/>
<path class="st1" d="M794,201.3c0,30.8,22.2,38.8,8.4,72c-6.8,16.2-29.7,26.2-45.2,20.6c-12.7-4.5-26.6-6.5-39.6-10.7
	c-3.9,2.7-43.8-13.3-44.6-14.8c1-5.1,42.3-41,45-42.4c12.7-6.5,33.3-31.4,42.7-42.6c23.3-27.8,11.4-1.6,32.1,16.5
	C792.7,199.9,793.3,200.7,794,201.3z"/>
<path class="st3" d="M699.9,260.8c0,0,38.8,22.8,65.4,24.9c19.8,1.5,41.6-34.3,30.1-52.1c-5.3-8.1-22.2-76.5-48.8-25.7
	c-10.3,19.6-47.1,52.7-47.1,52.7L699.9,260.8z"/>
<path class="st1" d="M500.4,218.2c0,0,79.2,19.4,95.4,35.8c-5,16.7-13,47.9-24.4,59.3c-22.3,22-29.6,24.9-59.1,25.5
	c-22.5,0.5-51.7-41.5-44.1-65c6.6-20.5-10.4-55.6-2.6-73.5C470.9,198.1,499.4,213.5,500.4,218.2
	C505.4,219.8,500.4,218.2,500.4,218.2z"/>
<path class="st3" d="M490.9,226.3c0,0-6.3-1-9.4-1.5c-20.8,44,3.6,122.4,60.3,103.5c19.2-6.4,48.1-72.5,22.6-69.6
	C545.6,248.4,504.8,242.1,490.9,226.3C487.7,226.5,490.9,226.3,490.9,226.3z"/>
<path class="st1" d="M810.7,471.9c-1.7,5.1-69.5,10-76.2,9c-7.7,9.5-23.9,22.9-33.4,31.9c-11.9,11.3-36.7,3-47.3,15
	c-2.6,2.9-20.7,7-25.1,3.3c-14.4,10-34.5,9.9-46.8,21.1c-24.9-4.7-43.3,25-62.5,17.6c7.8-19.7,90.4-45.1,110.2-45.9
	c11.9-0.5,68.6-14.7,67.2-27.1c-3-26.9-3.1-50.6-17-74.3c-31.1-4.7-79.6-21.4-45.5-65c22.7-29,60.8-4.6,84,10.6
	c15.2,10,21.1,29.5,2.9,40.2c-20.1,11.8-27.5,25-18.9,51.6c5.8,17.7,72.3,17.6,87.7,3.6c12.3-1.4,114-6.4,96.9,16
	C870.4,463.6,828.1,480.2,810.7,471.9C810.2,473.4,810.3,471.7,810.7,471.9z M649.6,524.6C648.8,523.5,648.6,525.4,649.6,524.6
	C649.5,524.4,649.5,524.7,649.6,524.6z"/>
<path class="st2" d="M661.1,411.6c0,0,94-12.1,40.5-37.7c-12.8-6.1-49.4-25.6-59.9-4.4C625.2,402.4,648.8,397.4,661.1,411.6
	C667.1,410.6,661.1,411.6,661.1,411.6z"/>
<path class="st1" d="M81.2,722.8c0,0-4.3,12-9.7,10.8c-28.8-6.2,55.7-170,80.4-180c11.2-1.7-6.3,23-7.4,25.1
	c-4.5,9.4-24.8,45-34.1,49.7C92.8,637.7,79.6,705.1,81.2,722.8C73.6,724.6,81.2,722.8,81.2,722.8z"/>
<path class="st1" d="M165.3,603.2c-0.7-0.5,5.7,4.8,5.4,4.5c-8.8,28.7-38.4,72.3-54.1,95.6C108.9,689.2,151,597.1,165.3,603.2
	C165.9,603.6,162.6,602.1,165.3,603.2z"/>
<path class="st1" d="M179.2,700.8c-29.6,0,1.3-67.3,12.2-62.6c10.3,12.1-16.7,33.5-14.9,51.2C173.9,689.5,178.8,696.8,179.2,700.8z"
	/>
<path class="st1" d="M829.1,379.6c-1.3-15.4,11.3-13.1,19.3-6.5c4.7,12.5-14,16-20.6,9.5C827.5,378.8,830.3,380.8,829.1,379.6z"/>
<path class="st1" d="M810.3,413.3c6.1,10.8-7.8,11-15.8,10.5c-11.4-13.5-5.8-16.1,8.1-14.1C810.2,410.8,808.6,412.5,810.3,413.3z"/>
<path class="st1" d="M844.3,422.1c0-12,17.1-15,20.2-1.4c-0.9,13.2-14.3,9.3-19.7,3.1C844.8,421.9,845.6,422.4,844.3,422.1z"/>
<path class="st1" d="M562,441.4c0,0,10.1-29.9,16.7-5.4C578,441,566,446,562,441.4C562,437.2,562,441.4,562,441.4z"/>
<path class="st1" d="M540.8,475.2c0,0-11.1,6.1-15.4-4.3c3.8-13.7,15.1-11,20.2-1.3C543.3,475.8,540.8,475.2,540.8,475.2z"/>
<path class="st1" d="M602.1,473c6.2,2.7,9.7,8.5,1.5,13.8c-11.1,7.1-17.8-11.2-7.7-15.1C600.9,470.6,598.4,470.7,602.1,473z"/>
<path class="st1" d="M519.4,264.9c6.7,13.4-1.9,28.2-19.8,18.4c-11.5-19.1-6.4-20.5,10.6-22.9C510.8,260.3,514.1,259.1,519.4,264.9z
	"/>
<path class="st1" d="M753.6,240.3c12.5,9.2,8.6,16.4-8,19.9c-30.8,6.4-15.2-29.3,2.3-21.3C747.9,238.9,749.9,239.5,753.6,240.3z"/>
</svg>
