<?xml version="1.0" encoding="utf-8"?>
<!-- Generator: Adobe Illustrator 16.0.0, SVG Export Plug-In . SVG Version: 6.00 Build 0)  -->
<!DOCTYPE svg PUBLIC "-//W3C//DTD SVG 1.1//EN" "http://www.w3.org/Graphics/SVG/1.1/DTD/svg11.dtd">
<svg version="1.1" id="Layer_1" xmlns="http://www.w3.org/2000/svg" xmlns:xlink="http://www.w3.org/1999/xlink" x="0px" y="0px"
	 width="1000px" height="600px" viewBox="0 0 1000 600" style="enable-background:new 0 0 1000 600;" xml:space="preserve">
<style type="text/css">
<![CDATA[
	.st0{fill-rule:evenodd;clip-rule:evenodd;fill:hsl(226, 27%, 90%);}
	.st1{fill-rule:evenodd;clip-rule:evenodd;fill:hsla(0,0%,100%,0.25);}
]]>
</style>
<path class="st0" d="M0,494.6c0.4-1.8,1.2-3.8,1.3-5.8c1.9-29.7,3.6-59.4,5.4-89.1c-0.6-0.1-1.2-0.1-1.8-0.2
	c0.6-1.3,1.6-2.6,1.6-3.9c0.4-7.7,0.3-15.5,0.8-23.2c0.3-4.4,1.6-8.7,1.7-13c0.2-7.9-0.4-15.8-0.1-23.7c0.3-8.3,1.2-16.6,1.9-24.9
	c0.6-7.1,0.9-14.2,1.9-21.2c1.3-8.8,3.6-17.5,4.8-26.3c0.5-3.9-1.1-8.1-0.8-12.1c0.6-6.8,1.6-13.7,3.2-20.4
	c1.7-6.8,4.1-13.6,6.9-20.2c4-9.3,8.5-18.5,13.1-27.5c2.3-4.4,4.7-9.1,8.4-12.4c10.8-9.5,21.9-18.8,33.8-27.2
	c9.9-7,20.5-13.3,31.6-18.5c6-2.8,11.7-4.5,12.1-11.5c0.3-5.6,0.6-11.2,0.6-16.9c0-3.6-0.5-7.3-0.6-10.9c-0.2-7.9-0.3-15.9-0.4-23.8
	c0-2.3,0.8-4.6,0.7-6.8c-0.3-6-1-12-1.4-18.1c-0.1-0.9,0.3-2.4,1.1-2.8c4.9-2.7,10.1-4.8,14.8-7.7c4.5-2.7,8.4-6.4,12.9-9
	c4.1-2.4,8.6-4.5,13.2-5.8c7.4-2.1,15.1-3.6,22.7-5.3c9.7-2.2,19.3-4.7,29.1-6.4c5.3-1,11.8,4.1,13.3,8.8
	c4.4,13.5,3.4,27.2,2.1,40.9c-0.8,8.6-0.8,17.2-1,25.8c-0.2,6.4,0,12.7-0.3,19.1c-0.3,5.8-1.5,11.6-1.8,17.5
	c-0.5,10.9,2.8,20.8,10.1,29.4c1.7,2,5.1,2.7,6.8,4.6c5.1,5.6,9.7,11.7,14.7,17.4c2.9,3.4,6.3,6.5,9.4,9.7
	c7,7.2,14.9,13.9,20.8,21.8c4.6,6.1,6.9,13.7,9.9,20.7c2.3,5.3,4.2,10.7,5.9,16.2c2.1,7,4.7,14,5.4,21.1c1.1,10.6,1.5,21.4,0.8,32
	c-0.8,11.4-3.3,22.6-4.8,33.9c-1.2,9.4-1.9,18.9-2.8,28.3c-1.1,11.4-2.1,22.8-3.4,34.2c-0.9,7.9-2.3,15.8-3,23.7
	c-0.2,2,2.1,4.6,1.4,6.2c-6.3,14.2-5.3,29.3-6.6,44.1c-1.2,14-2.6,28-3.2,42c-0.4,9.4,1.1,18.8,0.9,28.2c-0.2,6-2.3,11.9-3,17.9
	c-0.6,5.2-0.6,10.5-0.8,15.8c-0.4,8.5-0.9,17-1.2,25.6c-0.1,3.8,0.5,7.7-0.1,11.4c-0.2,1.5-3,3.9-4.4,3.7
	c-6.8-0.8-13.5-2.3-20.3-3.5c-4-0.7-7.9-1.4-11.9-1.7c-13.5-0.8-27.1-1.4-40.6-1.9c-6.6-0.3-13.2,0-19.8-0.1
	c-9.1-0.2-18.1-0.7-27.2-0.8c-8.2-0.1-16.3,0.3-24.5,0.3c-6.1,0-12.1-0.2-18.2-0.5c-7-0.4-14-1.2-21-1.2c-4.9,0-9.8,1.5-14.6,1.4
	c-6.8-0.2-13.7-1.1-20.5-2.2c-8.7-1.4-17.4-3.1-26-4.9c-1.2-0.2-2.1-1.5-3.3-2.1c-2-0.9-4.1-1.7-6.2-2.5c-3.3-1.2-6.8-2-10-3.5
	c-2.6-1.2-5.3-2.9-7.2-4.9c-4.1-4.4-8.8-8.7-11.2-13.8c-1.5-3.2,1-7.7,1.3-11.7c0.5-7.9,1.2-15.7,1-23.6c-0.2-7.8-1.3-15.5-2.1-23.2
	C1.3,497.7,0.5,496.1,0,494.6z M13.4,554.4c0.4,1.1,0.4,4.1,2,5c5.2,3.2,10.7,6.2,16.5,8.2c7.3,2.5,15,4.2,22.6,5.9
	c7.7,1.7,15.5,3,23.3,4.6c2.6,0.5,5.2,1.9,7.8,2c5.4,0.1,10.7-0.6,16.1-0.5c7.1,0,14.2,0.4,21.3,0.6c2.8,0.1,5.6-0.1,8.5,0
	c1.4,0,2.7,0.5,4.1,0.5c5,0.2,10.1,0,15.1,0.6c2.8,0.3,5.6,2.7,8.3,2.5c8.3-0.6,16.5-2.4,24.8-3c7.7-0.6,15.6-0.4,23.3-0.2
	c5.2,0.1,10.5,1.2,15.7,1.2c14.3,0,28.7-0.2,43-0.8c3.2-0.1,8.4-1.7,8.9-3.5c2.3-7.7,3.5-15.8,4.3-23.7c1.2-11.3,1.5-22.7,2.5-34.1
	c0.6-7.4,2.2-14.8,2.3-22.2c0.2-13.6-0.4-27.2-0.5-40.8c0-6.6,0.5-13.3,0.9-19.9c0.6-10.1,1.1-20.2,2-30.2
	c0.6-7.3,1.8-14.5,2.7-21.7c0.5-4.1,0.8-8.3,1.5-12.4c1.2-7.5,3-15,3.9-22.6c1.3-10.9,2-21.8,3-32.7c0.6-6.4,1.5-12.9,1.8-19.3
	c0.2-5.2-0.8-10.5-0.3-15.7c0.4-4.3,3.7-8.6,3.3-12.7c-0.9-9.1-2.8-18.2-5.1-27.1c-1.8-6.9-4.2-13.8-7.3-20.3
	c-3-6.3-7.3-12.1-11.1-18.1c-1.5-2.3-3.6-4.3-5.2-6.5c-2.7-4.1-4.9-8.5-7.9-12.4c-3.6-4.8-7.8-9.3-11.8-13.8
	c-4.3-5-8.7-10-13.1-14.9c-3.6-4.1-7.3-8-10.8-12.2c-2.8-3.3-4.9-7.3-8.1-10.2c-6.3-5.6-9.3-15.4-6.7-23c1.5-4.3,2.3-8.9,3-13.4
	c0.8-4.7,1-9.4,1.8-14.1c0.4-2.5,2-4.9,2.2-7.3c0.4-6.7,0.3-13.5,0.5-20.2c0.1-3.6,0.7-7.2,0.3-10.8c-0.7-6.5-2.1-13-2.9-19.5
	c-0.6-4.8-1.3-11-7.9-10.1c-13.5,1.9-27,3.9-40.3,7c-7.7,1.8-15.4,4.7-22,8.7c-4.6,2.7-8.6,7.5-10.7,12.2c-2.5,5.5-3,11.9-3.8,18
	c-0.7,4.8-1.1,9.6-0.7,14.4c0.5,8.4,2.1,16.8,2.5,25.2c0.3,6.3,0.1,12.7-0.9,19c-0.6,3.8-2.1,9.1-5.2,10.8
	c-14.8,8.1-30.5,14.9-45.4,22.8c-6.2,3.3-12.1,7.8-16.7,12.8c-5.7,6.2-9.3,14-15,20.2c-7.4,7.9-7.6,18-11.5,26.9
	c-1.2,2.8-1.8,5.8-2.9,8.6c-0.7,2-2.1,3.8-2.7,5.8c-2.2,7.5-4.5,15-6.2,22.6c-1,4.8-1,9.9-1.4,14.8c-0.5,5.2-0.9,10.3-1.6,15.5
	c-1,7.6-2.2,15.2-3.5,22.8c-0.9,5.4-2.6,10.7-3.1,16.2c-0.5,6.3,0.3,12.8-0.1,19.1c-0.6,8.6-2.2,17.1-2.7,25.6
	c-0.7,13.5-0.7,27-1,40.6c-0.2,9.6-0.3,19.3-0.5,28.9c-0.3,11.4-0.8,22.8-1.2,34.1c-0.4,13.8-1,27.6-1.1,41.4
	c0,4.9,2.1,9.8,1.9,14.6C15.8,533.8,14.4,543.5,13.4,554.4z"/>
<path class="st0" d="M424.3,149.6c0.7-1.2,1.1-2.4,1.5-2.4c3.1,0.1,6.1,0.5,9.2,0.8c-0.9,2-1.4,4.4-2.9,5.9c-2,1.9-4.9,3-7.3,4.6
	c-0.7,0.5-0.6,1.9-0.9,2.8c-0.2,0.6-0.4,1.4-1,1.8c-3.9,3.1-8.4,5.7-11.5,9.3c-3.7,4.3-10.5,6.8-10.1,13.7c0.3,4.1-0.1,8.2,0,12.3
	c0.1,6.1,0.2,12.3,0.8,18.4c0.2,2.3,1.9,4.6,2.9,6.8c0.3,0.7,0.9,1.4,1,2.1c0,0.3-1.4,1-1.8,0.8c-2.9-1.1-7.5,0.3-8-4.4
	c-1.2-10.6-3.5-21.2-3.5-31.8c0-7.7,2.9-15.4,4.7-23.1c0.2-0.9,1.2-1.8,2.1-2.4c5.4-3.7,10.8-7.5,16.4-11
	C418.7,152.1,421.9,150.8,424.3,149.6z"/>
<path class="st0" d="M473.6,38.5c-0.1-11.5,4.3-15.7,15-16.2c10.8-0.5,21.5-1.6,32.3-2c2.4-0.1,4.8,1.4,7.2,2.2
	c-1.6,1.8-3,4.7-5,5.2c-7.2,1.7-14.6,2.9-22.1,3.6c-5.3,0.5-5.8,2.9-6.8,7c-1.2,4.8-3.7,10.2-7.5,13.3c-4.4,3.5-11.6-2.2-12.6-9.4
	C473.9,40.5,473.6,38.9,473.6,38.5z"/>
<path class="st0" d="M738.6,280.2c1.3-9.9,2.6-19.8,3.9-29.6c1-7.5,1.4-15.2,3.5-22.5c0.6-2,6.1-2.8,9.4-4.2
	c0.2,2.6,0.7,5.1,0.6,7.7c-0.3,9.3-0.7,18.7-1.1,28c-0.2,5.5-0.1,11.1-1.1,16.6c-0.4,2.6-2.4,5.6-4.7,7.1c-2,1.3-5.6,0.8-8.4,0.6
	C740,283.7,739.4,281.6,738.6,280.2z"/>
<path class="st0" d="M385.2,311.5c1.4-10.8,2.9-21.5,4.3-32.3c0.4-3,0.3-6.3,1.3-9.1c0.7-2,3.1-3.4,4.8-5.1c1.3,1.7,3.8,3.4,3.8,5.1
	c-0.2,11.9-1.1,23.8-1.6,35.7c-0.2,5.6,0.5,11.3,0,16.9c-0.2,2.2-2.6,4.2-4,6.3c-1.9-1.8-4.9-3.3-5.6-5.4c-1.3-3.8-1.4-8.1-2-12.1
	C385.9,311.6,385.6,311.6,385.2,311.5z"/>
<path class="st0" d="M569.5,20.1c12.6,0.7,25.1,1.2,37.7,2.2c1.8,0.1,4.7,2.9,4.6,4.3c-0.4,7-1.5,14-2.7,20.9
	c-0.2,1.2-2.4,2.1-3.7,3.1c-1.1-1.7-2.9-3.2-3.3-5c-0.6-3-0.7-6.3-0.2-9.4c1.3-7.5-4.6-6.9-9.4-7c-10.9-0.2-21.8,0-32.7,0
	c-1,0-2.3-0.1-3.1-0.6c-1.6-1-3-2.3-4.5-3.5c1.6-1.1,3-2.8,4.8-3.3c4-1.1,8.3-1.7,12.4-2.5C569.5,19.6,569.5,19.8,569.5,20.1z"/>
<path class="st0" d="M822.9,73.9c0-7.6-0.3-16.7,0.1-25.7c0.2-4.5,2.1-7.8,8.8-7.2c5.4,0.5,11-1,16.6-1.3c1.8-0.1,3.8,0.6,5.4,1.4
	c1,0.5,1.3,2,1.9,3c-1.2,0.4-2.3,1.2-3.6,1.3c-5.8,0.7-12,1-14.4,7.1c-2.4,6.3-5.1,12.9,1.6,18.8c0.2,0.2-0.5,1.7-0.6,1.7
	c-7.2-1.5-5.1,2.7-4.8,6.1c0.2,2-0.4,4.1-1.3,6c-0.2,0.5-3.5,0.6-3.8,0.1C827.1,82.2,825.5,78.9,822.9,73.9z"/>
<path class="st0" d="M632.2,128.3c-11.7-1.8-23.7-3.4-35.6-5.8c-5.4-1.1-8-9.3-6.4-14.3c2.2-7.2,3.1-14.8,5.7-21.9
	c0.8-2.1,5.2-3.1,8-4.6c0.5,1.4,1.5,2.8,1.4,4.1c-0.7,9.1-1.7,18.1-2.4,27.2c-0.1,1,0.7,2.7,1.6,3c5.9,1.9,11.1,4.8,18.3,3.7
	c4.1-0.6,9.1,4.3,13.8,6.7C635.3,126.9,634.1,127.5,632.2,128.3z"/>
<path class="st0" d="M653.7,140.3c1.6,0.1,3.1,0.3,4.7,0.4c3.1,0.1,6.6-0.5,9.3,0.5c2.8,1,5.5,3.2,7.4,5.5c2.9,3.5,4.8,7.7,7.5,11.3
	c1.2,1.5,5.1,2.9,4.9,3.6c-1.6,4.8-3.8,9.5-6.1,14.2c-3.2,6.4-8,12.2-8.1,19.9c0,1.5-3,2.9-4.6,4.3c-0.7-1.4-2.1-2.9-1.9-4.2
	c1.5-10,3.3-19.9,5-29.8c1.1-6.1,0.4-12.1-5-16.2c-4.1-3.2-9.2-5.3-13.9-7.9C653.2,141.3,653.5,140.8,653.7,140.3z"/>
<path class="st0" d="M383.4,547.4c0-6.5-0.3-13,0.2-19.5c0.1-1.7,2.6-3.2,3.9-4.8c1.5,1.5,4,2.9,4.3,4.6c1.7,10.7,2.7,21.5,4.2,32.2
	c0.6,4.3,1.1,8.9,3.2,12.7c1.5,2.7,5.8,4,8.3,6.4c1.2,1.1,1,3.3,1.5,5c-2.7,0.6-6,2.3-8.1,1.5c-7.8-2.7-11.2-8.6-12.3-16.1
	c-0.9-5.6-3.2-11.1-4.6-16.6c-0.4-1.7-0.1-3.6-0.1-5.5C383.7,547.4,383.5,547.4,383.4,547.4z"/>
<path class="st0" d="M385.4,403.6c1.1-11.3,1.9-22.7,3.5-33.9c0.4-2.6,2.8-5.5,5.3-7c3.1-1.9,6.8-1.4,6.5,3.2
	c-1,13.6-2.3,27.2-3.5,40.7c-0.3,3-0.8,6.1-1.6,9c-0.3,1-2.2,2.6-2.6,2.4c-1.9-0.8-4.5-1.8-5-3.3c-1.2-3.5-1.4-7.4-1.9-11.1
	C385.7,403.6,385.5,403.6,385.4,403.6z"/>
<path class="st0" d="M748.7,194.3c-8.5-1.4-8.8-7.6-8.4-13.8c0.8-10.9,1.9-22,10.8-30.2c4.6-4.2,11.3-6.5,17.2-9.6
	c1.2-0.6,2.6-1.2,4-1.4c2-0.2,4-0.1,6.1-0.1c-1.2,1.7-2,4.5-3.6,4.9c-8.6,2.4-13.8,7.1-16.3,15.2c-1.9,6.2-6.1,11.9-8.3,18
	c-1.4,4.1-0.9,8.7-1.3,13C748.8,191.7,748.8,192.9,748.7,194.3z"/>
<path class="st0" d="M465.9,129.8c-1.9-1-3.3-1.7-4.7-2.4c1.9-2.2,3.4-5.4,5.8-6.3c6.3-2.2,11-5.5,11.9-11.7c0.5-3.5-1-7.3-1-10.9
	c0-2.9,0.9-5.8,1.4-8.7c0.1-0.6-0.3-1.2-0.3-1.8c-0.1-1.5,0-3,0-4.5c2.3,0.6,6,0.6,6.6,1.8c3.6,8.3,7,16.8,9.3,25.5
	c0.5,1.9-3.3,5.5-6,7.1C481.5,122.1,473.7,125.8,465.9,129.8z"/>
<path class="st0" d="M485,594.3c-9.2,0-18.3-0.1-27.5,0.1c-1.3,0-2.5,1.9-3.8,2.8c-0.5,0.4-1.3,0.6-2,0.6c-0.3,0-0.4-1-0.7-1.5
	c-1-1.3-1.9-3.6-3.2-3.8c-5.4-0.8-3.3-4.7-3.4-7.1c0-0.8,3.9-2.5,5.8-2.3c8.2,0.9,16.2,3,24.4,3.6c6.4,0.4,13-0.8,19.5-1.1
	c2.7-0.1,5.6,0,8.3,0.5c1,0.2,1.8,2,2.3,3.1c0.2,0.4-0.4,1.6-1,1.8c-6.1,1.9-12.3,3.7-18.4,5.5C485.2,595.8,485.1,595.1,485,594.3z"
	/>
<path class="st0" d="M931.2,532.1c4.2-1,8.3-2,12.5-2.9c8.1-1.6,16.2-3.1,24.3-4.6c1.9-0.3,4-0.6,5.9-0.3c1.1,0.2,2.7,1.4,2.8,2.3
	c0.1,1.2-0.5,3.1-1.6,3.8c-5.1,3.5-10.5,6.7-15.8,9.9c-2.8,1.7-5.8,3.2-8.7,4.7c-0.5,0.2-1.3,0.6-1.5,0.4c-4-2.8-7.9-5.6-11.9-8.4
	c-1.7-1.2-3.7-2-5.5-3C931.5,533.5,931.3,532.8,931.2,532.1z"/>
<path class="st0" d="M767.4,387.3c0.3,7.6,1.2,15.1,0.9,22.5c-0.3,8.3-1.5,16.6-2.6,24.9c-0.1,0.9-2.7,1.5-4.1,2.2
	c-0.6-1.1-1.2-2.1-1.7-3.2c-5.7-12.5-1.8-25.3-1.1-37.9C759.1,392.3,758.5,386.8,767.4,387.3z"/>
<path class="st0" d="M755.4,320.5c7.9,0.1,5.9,4.3,5.9,7.1c0,6.9-0.2,13.8-0.2,20.7c0,2.3,1.1,6.1,0,6.7c-3.1,1.7-7.3,3.2-10.6,2.6
	c-1.7-0.3-3.4-5.2-3.4-8c0.2-7.8,1-15.6,2.5-23.2C750,324.1,753.4,322.4,755.4,320.5z"/>
<path class="st0" d="M394.5,447.1c-1.1,10.1-2,18.7-2.8,27.3c-0.1,1.3,0.5,2.6,0.4,3.8c-0.2,1.5-0.4,4-1.4,4.4
	c-2.4,1-5.4,1.5-7.9,1.1c-1-0.2-2-3.3-2.1-5.1c-0.5-7.4-1.5-14.9-0.5-22.2c0.5-4,4.2-7.9,7.2-11.3
	C388,444.4,392.1,446.4,394.5,447.1z"/>
<path class="st0" d="M767,476.2c1.7,9.9,2.8,19.8,13.3,25.6c0.5,0.3,1,1.1,0.9,1.5c-1.1,3-1.4,7-3.7,8.9c-4.4,3.5-6.8-1.5-8.1-3.7
	c-4.3-7.5-8.5-15.3-11.1-23.4c-1.3-4.2,0.7-9.3,1.6-14c0.1-0.5,3.3-1.3,3.7-0.8c1.4,1.4,2.3,3.3,3.3,5.1
	C767.3,475.5,767.1,476.1,767,476.2z"/>
<path class="st0" d="M829.5,119c0-3.4-0.8-7,0.3-10.1c0.9-2.5,4-4.4,6.2-6.5c1.5,1.9,4.2,3.7,4.2,5.6c0,6.2,0.6,12.9-2,18.3
	c-1.9,3.9-8.1,6.6-13,8.4c-3.8,1.4-8.7,0.8-13.1,0.7c-1.3,0-2.7-1.4-3.7-2.4c-0.2-0.2,1-2.1,1.9-2.5c4.6-2,9.4-3.5,13.8-5.6
	c2.3-1.1,4.2-3,6.3-4.5C830.2,120,829.9,119.5,829.5,119z"/>
<path class="st0" d="M994.6,253.5c-3.2,1.2-4.9,1.8-6.6,2.5c0.2,0.4,0.3,0.8,0.5,1.2c1.8-0.6,3.7-1.3,6.1-2.1
	c0,4.1,0.1,7.8-0.1,11.5c0,0.8-1.2,1.6-1.9,2.3c-2.3-2.3-8.7,3.4-8.5-3.1c0.2-12.5,1-25,1.7-37.5c0.2-2.8,1-5.6,2-8.3
	c0.4-1.1,2.2-1.7,3.4-2.5c0.9,1.2,2.7,2.5,2.6,3.7c-0.4,3.9-1.9,7.7-2,11.6c-0.1,2.2,2.5,4.3,2.7,6.6
	C994.9,244.4,994.6,249.6,994.6,253.5z"/>
<path class="st0" d="M893.9,48.2c5.2-1.4,10.3-2.8,15.6-4c2.5-0.6,5.5-1.5,7.7-0.8c12.1,3.6,12.6,4.5,13.2,16.7
	c0.1,2.9,1.4,5.7,1.7,8.6c0.2,1.5-0.6,3.1-1,4.6c-1.9-0.8-4.9-1.1-5.4-2.4c-2.2-5.5-3.4-11.2-5.6-16.7c-0.4-1-3.7-1.4-5.7-1.4
	c-3.5,0-7.2,1-10.6,0.5c-3.4-0.4-6.7-2.1-10.1-3.2C893.8,49.5,893.9,48.9,893.9,48.2z"/>
<path class="st0" d="M996.3,386.7c0.8,1.9,2.2,3.7,2.2,5.6c0,4.3-0.7,8.5-1,12.8c-0.2,2.9,0.2,6-0.5,8.8c-0.3,1.2-2.7,2.1-4.2,3
	c-0.4,0.2-1.2-0.1-1.8-0.2c0.5,1,1,2,1.5,2.9c1.5-1.3,2.6-2.2,4-3.4c1.4,6.3-1.6,9.8-9.1,9.2c-0.7-8.4-1.8-16.9-1.9-25.5
	c0-4.5,1.4-9.2,2.8-13.6c0.4-1.4,3-2.3,4.5-3.4c0.8,1.4,1.6,2.7,2.4,4.1C995.6,386.8,996,386.7,996.3,386.7z"/>
<path class="st0" d="M658.1,349.3c-0.6-6.8-1.7-13.5-1.7-20.3c0-6,1.1-12,2.1-17.9c0.6-3.5,1.4-7.1,3-10.3c0.6-1.3,3.5-1.7,5.4-2.5
	c0.5,1.3,1.4,2.6,1.3,3.9c-0.3,8-0.7,16.1-1.5,24.1c-0.7,6.6-1.8,13.2-3.1,19.8c-0.2,1.2-1.9,2.2-3,3.3
	C659.8,349.5,658.9,349.4,658.1,349.3z"/>
<path class="st0" d="M660.5,463c-1,13.1-1.7,25.1-3,37c-0.2,1.8-3,3.4-4.6,5c-1.6-1.6-4.6-3.4-4.5-4.9c1-12.3,2.5-24.7,4.3-36.9
	c0.2-1.3,3.5-2.4,5.5-3.1C658.6,459.9,660,462.3,660.5,463z"/>
<path class="st0" d="M541.8,584c-2.9,0.3-5.5,0.6-8.1,0.7c-0.9,0-1.9-0.5-2.5-1.1c-0.3-0.3,0.1-1.4,0.5-2c4.4-6.6,12.2-7.6,19.4-9.1
	c6.3-1.3,12.8-2,19.2-3c4.5-0.7,9.1-1.8,13.6-1.7c1.4,0,3.1,3.1,4,5c0.2,0.6-1.9,2.8-3.2,3c-9.4,1.3-19,2.2-28.4,3.4
	c-4,0.5-7.9,1.6-11.7,2.7C543.4,582.2,542.5,583.4,541.8,584z"/>
<path class="st0" d="M833.7,555.1c-1.2,2.1-2,3.7-3,5.2c-4,5.7-5.7,5.3-10.8,0.2c-4.8-4.8-10.9-8.3-16-12.9c-3.3-3-5.6-6.8-8.2-10.3
	c-0.3-0.4,0.6-2.2,1-2.2c2.2,0,5-0.4,6.6,0.6C813.5,542,823.4,548.5,833.7,555.1z"/>
<path class="st0" d="M995.5,345.3c-8.1-5.2-7.8-12.8-7-20.3c0.7-6.1,1.6-12.2,2.6-18.2c0.2-1,1.4-2.6,1.9-2.6c1.6,0.3,4.2,1,4.4,1.8
	c0.9,4.9,1.4,9.8,1.8,14.7c0.4,5.2,1.2,10.5,0.6,15.7C999.5,339.6,997,342.5,995.5,345.3z"/>
<path class="st0" d="M620,560.4c-1.4-0.6-2.8-1.2-4.1-1.7c1.5-2.1,2.4-5.3,4.5-6.2c9.4-4,17.2-9.2,22.2-17.8
	c0.9-1.5,4.4-1.7,6.8-2.5c0.3,2.1,1.3,4.3,0.8,6.1c-1.1,4.1-2.4,8.2-4.5,11.9c-1.1,1.9-3.8,3.4-6.2,4.2
	C633.1,556.6,626.6,558.4,620,560.4z"/>
<path class="st0" d="M933.1,118.5c0-2.1-0.6-4.3,0.2-6.2c0.9-2.2,3-4.1,4.5-6.1c0.6,2.3,1.7,4.7,1.6,7c-0.1,2.8,3.9,13.2,5.8,12.9
	c4-0.5,8-1.6,12-2.1c4.9-0.6,9.8-1,14.7-1.1c0.9,0,2.5,1.3,2.6,2.2c0.1,0.9-1.1,2.4-2.1,2.7c-6.8,1.8-13.6,3.5-20.6,4.8
	C939.6,134.9,933.3,130,933.1,118.5z"/>
<path class="st0" d="M663.2,258c0.9-8.2,1.3-14.7,2.3-21.1c0.5-3.2,2.5-4.6,6.7-3c10,3.7,3.8,10.2,3.8,15.6c0,4.3-0.2,8.7-1.2,13
	c-0.4,1.7-2.8,3.7-4.7,4c-1.3,0.2-3.6-1.8-4.6-3.3C664.1,261.1,663.5,258.7,663.2,258z"/>
<path class="st0" d="M652.2,421c0.9-9.3,1.7-18.4,2.6-27.5c0.1-0.6,0.2-1.3,0.6-1.7c2.1-2.4,4.4-4.7,6.5-7c0.7,3.4,2,6.8,2,10.2
	c0,7-0.7,13.9-0.9,20.9c-0.2,6.2-1.8,7.3-8,5.4C654.2,421,653.3,421.1,652.2,421z"/>
<path class="st0" d="M989.3,173.7c-2.3-3.9-5.6-6.9-5.6-9.9c0-5.6,1.9-11.2,2.9-16.8c0.2-1-0.2-2.2,0-3.2c0.5-2.2,0.7-5.9,2-6.2
	c4.9-1.5,6.2,2.5,6.3,5.5c0.2,7.1-0.4,14.3-0.8,21.4c-0.1,2-0.3,4-0.8,5.9C993.2,171.1,991.9,171.6,989.3,173.7z"/>
<path class="st0" d="M874,547.7c7-1.8,14-3.9,21-5.4c3.3-0.7,6.7-0.7,10.1-0.8c0.6,0,1.8,1.2,1.7,1.4c-1.2,2.3-2,5.2-4,6.6
	c-2.2,1.5-5.5,1.8-8.4,2.5c-3.8,0.8-7.5,1.7-11.4,2c-3.9,0.3-8,0.2-11.8-0.4c-2.4-0.4-4.6-2-6.9-3.1c2.2-1.1,4.4-2.2,6.7-3.2
	c0.8-0.3,1.9-0.1,2.8-0.2C873.9,547.3,874,547.5,874,547.7z"/>
<path class="st0" d="M997.5,467.7c0,8.8,0.3,16.5-0.2,24.1c-0.1,2-2.1,5.2-3.8,5.5c-2.3,0.4-5.2-1.2-7.7-2.2
	c-0.4-0.2-0.3-1.8-0.2-2.8c0.8-7.3,1.8-14.7,2.6-22c0.2-1.4-0.2-3.9,0.3-4.1c2.4-0.7,5.1-1,7.7-0.9
	C996.9,465.3,997.4,467.4,997.5,467.7z"/>
<path class="st1" d="M13.4,554.4c1.1-10.9,2.5-20.6,2.9-30.4c0.2-4.8-1.9-9.7-1.9-14.6c0.1-13.8,0.6-27.6,1.1-41.4
	c0.4-11.4,0.9-22.8,1.2-34.1c0.3-9.6,0.3-19.3,0.5-28.9c0.3-13.5,0.3-27.1,1-40.6c0.4-8.6,2.1-17.1,2.7-25.6
	c0.4-6.4-0.4-12.8,0.1-19.1c0.4-5.4,2.2-10.8,3.1-16.2c1.3-7.6,2.4-15.2,3.5-22.8c0.7-5.1,1.1-10.3,1.6-15.5
	c0.5-4.9,0.4-10,1.4-14.8c1.7-7.6,4-15.1,6.2-22.6c0.6-2,1.9-3.9,2.7-5.8c1.1-2.8,1.7-5.8,2.9-8.6c4-8.9,4.2-19,11.5-26.9
	c5.7-6.2,9.3-14,15-20.2c4.6-5,10.5-9.5,16.7-12.8c14.9-7.9,30.6-14.7,45.4-22.8c3.1-1.7,4.6-7,5.2-10.8c1-6.2,1.3-12.7,0.9-19
	c-0.4-8.4-2-16.8-2.5-25.2c-0.3-4.8,0.1-9.7,0.7-14.4c0.9-6.1,1.3-12.5,3.8-18c2.1-4.7,6.1-9.5,10.7-12.2c6.6-3.9,14.3-6.9,22-8.7
	c13.2-3,26.8-5,40.3-7c6.7-1,7.4,5.3,7.9,10.1c0.8,6.5,2.2,13,2.9,19.5c0.4,3.5-0.2,7.2-0.3,10.8c-0.2,6.7-0.1,13.5-0.5,20.2
	c-0.2,2.5-1.8,4.8-2.2,7.3c-0.8,4.7-1,9.4-1.8,14.1c-0.8,4.5-1.5,9.1-3,13.4c-2.6,7.6,0.4,17.4,6.7,23c3.3,2.9,5.3,6.8,8.1,10.2
	c3.5,4.1,7.2,8.1,10.8,12.2c4.4,5,8.7,9.9,13.1,14.9c4,4.6,8.2,9,11.8,13.8c3,3.9,5.2,8.3,7.9,12.4c1.5,2.3,3.7,4.2,5.2,6.5
	c3.9,5.9,8.1,11.8,11.1,18.1c3.1,6.5,5.6,13.4,7.3,20.3c2.3,8.9,4.2,18,5.1,27.1c0.4,4.1-2.9,8.4-3.3,12.7
	c-0.5,5.2,0.5,10.5,0.3,15.7c-0.3,6.4-1.2,12.9-1.8,19.3c-1,10.9-1.7,21.8-3,32.7c-0.9,7.6-2.7,15.1-3.9,22.6
	c-0.7,4.1-0.9,8.3-1.5,12.4c-0.9,7.2-2.1,14.5-2.7,21.7c-0.9,10.1-1.4,20.2-2,30.2c-0.4,6.6-0.9,13.3-0.9,19.9
	c0,13.6,0.7,27.2,0.5,40.8c-0.1,7.4-1.7,14.8-2.3,22.2c-0.9,11.4-1.3,22.7-2.5,34.1c-0.8,8-2.1,16-4.3,23.7
	c-0.5,1.8-5.8,3.4-8.9,3.5c-14.3,0.6-28.7,0.8-43,0.8c-5.2,0-10.4-1.1-15.7-1.2c-7.8-0.2-15.6-0.4-23.3,0.2
	c-8.3,0.6-16.5,2.4-24.8,3c-2.7,0.2-5.5-2.2-8.3-2.5c-5-0.5-10-0.4-15.1-0.6c-1.4-0.1-2.7-0.5-4.1-0.5c-2.8-0.1-5.6,0.1-8.5,0
	c-7.1-0.2-14.2-0.6-21.3-0.6c-5.4,0-10.7,0.7-16.1,0.5c-2.6-0.1-5.2-1.5-7.8-2c-7.7-1.6-15.6-2.9-23.3-4.6
	c-7.6-1.7-15.3-3.3-22.6-5.9c-5.8-2-11.3-5-16.5-8.2C13.8,558.5,13.7,555.5,13.4,554.4z"/>
</svg>
