<?xml version="1.0" encoding="utf-8"?>
<!-- Generator: Adobe Illustrator 16.0.0, SVG Export Plug-In . SVG Version: 6.00 Build 0)  -->
<!DOCTYPE svg PUBLIC "-//W3C//DTD SVG 1.1//EN" "http://www.w3.org/Graphics/SVG/1.1/DTD/svg11.dtd">
<svg version="1.1" id="Layer_1" xmlns="http://www.w3.org/2000/svg" xmlns:xlink="http://www.w3.org/1999/xlink" x="0px" y="0px"
	 width="1000px" height="640px" viewBox="0 0 1000 640" style="enable-background:new 0 0 1000 640;" xml:space="preserve">
<style type="text/css">
<![CDATA[
	.st0{fill-rule:evenodd;clip-rule:evenodd;fill:#3E848E;}
	.st1{fill-rule:evenodd;clip-rule:evenodd;fill:#0B476A;}
	.st2{opacity:0;}
	.st3{fill-rule:evenodd;clip-rule:evenodd;}
	.st4{fill-rule:evenodd;clip-rule:evenodd;fill:#C84649;}
	.st5{fill-rule:evenodd;clip-rule:evenodd;fill:#FFFFFF;}
]]>
</style>
<path class="st3" d="M6.1,299.9c0.1-2.3,0.4-4.5,0.3-6.8C6,288,5.4,283,5.1,277.9c-0.6-9.2-1.2-18.4-1.6-27.6
	c-0.2-5.9-0.1-11.9-0.1-17.8c0-13,0.2-26-0.2-38.9c-0.3-10.7-1.4-21.4-2.1-32.1C0.7,156.3-0.1,151,0,145.8
	c0.3-10.9,0.7-21.8,1.9-32.6c1-9.4,3.1-18.7,4.6-28.1c0.7-4.2,0.3-8.8,1.8-12.7c1.3-3.4,4.1-7.1,7.2-8.9c7.7-4.2,15.6-8.4,24-10.8
	C59.9,47,80.7,41.9,101.4,37c14.3-3.4,28.7-6.5,43.2-9.2c17.1-3.2,34.3-6.3,51.6-8.7c8.6-1.2,17.5-0.6,26.2-1.6
	c8-0.9,15.9-2.8,23.9-3.9c7.8-1,15.7-1.7,23.5-2.3c15.5-1.2,31-1.9,46.4-3.3c15.2-1.4,30.3-3.6,45.5-4.9c16.5-1.4,33-2.5,49.6-3.1
	c7.7-0.3,15.5,1,23.2,1.6c4.6,0.4,6.5,7.5,5.4,12.9c-1.4,6.8-1.3,14-1.3,21c0,6.1,1.1,12.3,1,18.4c-0.1,10.4-0.6,20.7-1.3,31.1
	c-0.7,11.5-1.1,23.2-2.9,34.6c-3,19.1-6.5,38.1-10.8,56.9c-3.9,17-9.3,33.6-13.8,50.4c-3.2,12.2-6.1,24.5-9,36.8
	c-3.9,16.2-8.2,32.4-11.4,48.7c-1.9,9.9-2.2,20.1-3,30.2c-1.2,14.4-2.4,28.7-3.5,43.1c-0.6,7.8-0.8,15.7-1.4,23.5
	c-0.1,1.5-1.1,3-1.9,4.3c-7.2,11.7-17.6,20.1-29.2,27.3c-7.3,4.5-14.6,9-21.9,13.6c-10.2,6.4-10.9,11-1.7,21.9
	c7.6,8.9,15.2,18.3,24.5,25.1c8.2,6.1,18.5,9.4,28.2,13.2c7.4,2.9,15.1,5.1,22.9,6.7c18.5,3.8,37,7.9,55.7,10.4
	c18.2,2.4,36.8,2.6,54.7-2.8c11.8-3.5,24-6.4,35-11.7c8.1-4,14.4-11.5,21.4-17.5c9.7-8.3,19.5-16.5,28.8-25.3
	c12.1-11.4,23.8-23.2,29.8-39.4c2.5-6.6,6.4-12.8,8.4-19.5c2.5-8.6,3.8-17.6,5.5-26.4c3-15.4,5.9-30.9,8.7-46.4
	c2.2-12.3,4.5-24.7,5.8-37.1c1.2-11.7,0.9-23.5,1.9-35.2c1.2-13,3.4-25.9,4.6-39c1.6-16.9,2.5-33.8,4-50.7
	c1.6-18.5,8.8-35,21.2-48.4c9.2-10,20.7-18,31.2-26.9c3.5-3,6.8-6.9,10.9-8.5c7.3-2.9,15.2-4.3,22.8-6.4c4.2-1.1,8.3-2.8,12.6-3.4
	c7.4-1.1,15.1-3,22.4-2.2c13.4,1.4,27.3,2.8,39.7,7.6c8.4,3.2,16.1,11.1,21.3,18.8c6.7,9.8,11.1,21.2,15.3,32.3
	c2.6,6.8,2.4,14.6,4.2,21.7c2.9,11.7,6.4,23.3,9.6,35c2,7.4,3.1,15.3,6.4,22c4.2,8.4,10.3,15.9,15.5,23.9c6.5,10,13.4,19.7,19,30.1
	c2.6,4.7-4,14.7-9.4,16.4c-6,1.8-11.9,4.1-18,5.3c-4.1,0.8-8.5,0.5-12.6-0.3c-4.8-0.9-10.8-1.5-13.8-4.6c-7.6-8-11-18.5-13.5-29.3
	c-2.6-11-7.1-21.5-9.1-32.6c-2-11.1-1.7-22.6-2.6-33.9c-1-11.6-1.9-23.2-3.5-34.7c-1-7.2-1.5-15.2-5.2-21.1
	c-4.6-7.3-11.9-12.9-18.4-18.9c-8.5-7.9-19.9-9-30-7.4c-11.7,1.9-23,7.2-34.1,11.9c-5.1,2.1-9.7,5.8-13.9,9.5
	c-2.2,1.9-2.8,5.4-4.3,8.1c-3.9,6.9-8.1,13.6-11.9,20.6c-3.3,6-6.4,12.2-9.3,18.4c-7.2,15.5-9.1,32-9.3,49
	c-0.2,12.2-1.7,24.4-2.6,36.6c-1.4,19.9-3,39.9-4.1,59.8c-0.6,10.7,0.1,21.6-0.9,32.2c-1.1,12.1-3.1,24.1-5.4,36
	c-2.5,13.2-5.1,26.5-8.8,39.4c-1.7,6-5.8,11.3-9.1,16.8c-7.4,12-13.6,25-22.7,35.5c-15.7,18.1-32.9,35.1-50.3,51.6
	c-6.1,5.7-14.7,8.9-22.2,13c-5.5,3-11,6.4-16.9,8.4c-8,2.7-16.3,4.6-24.6,6.1c-7.9,1.4-16.1,1.6-24.1,2.4
	c-6.2,0.6-12.4,1.9-18.6,1.8c-20.2-0.3-40.4-1.2-60.6-1.8c-8.9-0.2-17.7-0.2-26.6-0.2c-2.2,0-4.3,0.7-6.5,0.7
	c-1.4,0.1-3.1,0-4.3-0.6c-7.5-3.5-14.9-7.3-22.3-10.9c-8.9-4.4-18.3-8.1-26.6-13.4c-11.6-7.4-23-15.4-33.3-24.4
	c-6.6-5.8-10.8-14.2-16.7-21c-6.2-7.1-13-13.6-19.5-20.4c-4.8-4.9-9.3-10.1-14.4-14.8c-8.4-7.7-18.7-7.8-29.2-6.3
	c-10.9,1.6-21.7,3.2-32.5,5.3c-7.9,1.5-15.6,4.1-23.5,5.7c-11.6,2.4-23.1,5.1-34.8,6.5c-18.4,2.1-36.9,4.6-55.4,4.2
	c-9.5-0.2-18.9-6.3-28.3-9.7c-5.3-1.9-10.8-3.6-16-5.9c-2-0.9-4.1-3-4.8-5.1c-4.5-12.8-9-25.5-12.6-38.5c-2.7-9.7-3.9-19.8-5.7-29.7
	c-1.3-7.3-2.9-14.5-3.9-21.9c-1.6-12.7-2.7-25.4-4.2-38.1c-0.9-7.9-2-15.8-2.9-23.7C5.8,305.7,6.1,302.8,6.1,299.9z"/>
<path class="st3" d="M819.6,607.5c0.9-12.6,1.9-25.9,2.9-39.2c0.8-10.8,1.7-21.6,2.6-32.4c1-11.1,1.8-22.2,3.2-33.3
	c2-16.2,4.5-32.4,6.6-48.6c0.9-7.1,0.9-14.4,2.3-21.4c3-14.5,6-29.1,10.4-43.2c2.2-7.3,6.6-13.5,13.1-19.1
	c5.1-4.4,10.9-11.1,10.5-20.3c-0.4-7.8,0.1-16.4,3.1-23.4c2.6-6.2,9.3-10.3,17.1-10.9c13.9-1.1,27.7-2.9,41.6-3.6
	c6.6-0.3,12.4,3.3,13.7,10.2c1.6,8.3,0.7,17.2,3,25.2c1.6,5.5,6.1,10.9,10.6,14.8c12.4,10.5,20.4,22.9,23,39.2
	c2.3,14.8,6.9,29.3,8.9,44.1c1.9,14.2,1.6,28.7,2.5,43.1c0.8,12.8,2.2,25.7,3.1,38.5c0.9,14.3,3.1,28.8,1.9,42.9
	c-1.1,12.3-1.7,27-13.8,34.4c-9.7,6-21.4,8.9-32.4,12.6c-12.2,4.1-24.7,7.4-37.1,11.1c-6.6,1.9-13.1,4.2-19.7,5.6
	c-11.2,2.3-22.5,4.1-33.8,6c-7.4,1.3-13.5-1.7-19.3-5.9c-6.4-4.7-13.7-8.4-19.5-13.7C821.4,617.6,821.2,612.4,819.6,607.5z"/>
<path class="st0" d="M877.5,218.4c0.4-1.2,0.1-0.4,0.5-1.3c1.3,3.1,1.8,4.5,2.4,5.9c-0.2,0.1-0.4,0.3-0.7,0.4
	c1.5,3.6,2.5,7.5,4.7,10.7c5.6,8.4,11.6,16.6,17.7,24.7c3,4,6.3,7.6,9.6,11.3c3.3,3.7,2.2,10.9-2.5,12.7c-6.7,2.6-13.3,5.8-20.3,7
	c-6.7,1.2-12.4-0.8-14-9.6c-1.2-6.6-5.7-12.5-7.5-19.1c-3.4-12.4-6.1-25-8.7-37.6c-0.9-4.3-1.1-8.9-1.4-13.3
	c-0.4-6.7,0.4-13.7-1-20.2c-3.2-14.6-7.1-29-11.3-43.3c-1.2-4.2-3.5-8.5-6.4-11.7c-6.3-7.1-12.3-15.3-20.3-19.9
	c-11.6-6.7-25-9.7-38.7-6.6c-11.2,2.6-23.3,3.9-33,9.4c-10.3,5.8-19.2,15-27,24.1c-13.8,16.2-21.1,35.3-22.4,57
	c-1.2,21.3-4.8,42.5-6.4,63.8c-1,12.9,0.3,26-0.3,39c-0.8,15.8-2.6,31.6-3.8,47.3c-0.9,11.1-1.2,22.3-2.6,33.3
	c-1.3,9.9-1.2,21.5-6.6,28.8c-6.4,8.7-8.5,18.1-12.4,27.3c-3,7.2-7.3,13.8-10.4,20.9c-1.2,2.8,0.1,6.9-1.5,9.3
	c-9.7,14.5-19.7,28.8-33,40.4c-9.1,7.9-16.9,17.2-26.4,24.6c-7.3,5.7-16,10-24.5,13.9c-6.9,3.2-14.3,5.9-21.8,7.4
	c-14,2.9-28.2,5.3-42.4,7c-11.5,1.3-23.2,1.7-34.8,1.6c-10.3-0.1-20.6-1.6-30.9-2.3c-13.1-0.9-26.3-1-39.3-2.4
	c-13.9-1.5-26.3-6.9-37.6-15.4c-5.6-4.2-12.8-6.1-18.5-10.1c-6.7-4.7-12.6-10.6-18.9-16c-5.1-4.3-10.5-8.3-15.1-13
	c-7.5-7.6-14.8-15.6-21.8-23.7c-6.9-8-13.5-16.2-19.8-24.6c-2.2-3-2.5-8.4-5.2-9.8c-4.1-2.2-9.7-3.2-14.3-2.4
	c-8.8,1.4-17.3,4.3-25.9,6.7c-6.9,1.9-13.6,4.4-20.6,6.1c-7,1.7-14.1,2.8-21.2,3.9c-15.6,2.5-31.1,6.1-46.8,7.1
	c-16,1-32.3,0.8-48.1-1.2c-9.6-1.2-18.4-7.3-27.7-10.8c-8.7-3.3-15.3-9.2-19.2-17.1c-3.4-6.9-4.5-14.8-6.6-22.3
	c-1.3-4.8-2.6-9.6-3.7-14.5c-1.7-6.9-3.2-13.9-4.8-20.8c-2-8.1-4.3-16.1-6-24.2c-0.8-4.1-0.5-8.5-0.7-12.8
	c-0.5-8.6-0.9-17.2-1.4-25.7c-0.7-11.3-1.9-22.5-2-33.8c-0.1-8.6,1.3-17.3,1.5-26c0.1-4.8-1-9.6-1.3-14.4c-0.3-3.9-0.2-7.9-0.3-11.8
	c-0.2-8.2-0.2-16.4-0.7-24.5c-0.6-9.4-2-18.7-2.2-28.1c-0.3-12.8,0.1-25.6,0.2-38.5c0-8.7-1.1-17.5,0.2-26c1.6-10.5,4.8-20.9,8.2-31
	c1.9-5.8,5.4-11.2,8.8-16.3c0.9-1.4,4.2-1.4,6.4-1.9c15.4-3.8,30.7-7.7,46.1-11.4c5.3-1.3,10.9-1.7,16.2-3
	c9.2-2.2,18.3-5.1,27.6-7.1c13.6-2.8,27.3-5.2,40.9-7.6c13.7-2.4,27.5-4.4,41.2-6.6c19.9-3.2,39.8-6.6,59.7-9.5
	c11.1-1.6,22.2-2.7,33.3-3.7c15.5-1.3,31.1-2.4,46.6-3.3c16.1-1,32.2-2.1,48.3-2.6c3.4-0.1,6.9,2.6,10.4,3.1c4.3,0.5,8.7-0.1,13,0
	c4.7,0.1,7.5,2,7.9,7.5c0.7,8.6,3,17.1,3.3,25.7c0.2,5.8-2.3,11.6-3.1,17.5c-2.1,15.2-4.5,30.3-5.7,45.6
	c-1.5,19.5-0.9,39.2-3.2,58.6c-1.6,13.8-6.7,27.1-10.1,40.6c-4.6,18.1-9.6,36.1-13.8,54.3c-5,21.8-11.9,43.2-13.2,66
	c-0.7,12.6-4.5,25.2-7.4,37.6c-3.4,14.8-6.4,29.8-11.2,44.2c-1.9,5.9-7.7,10.7-12.4,15.4c-11.2,11.3-24.2,18.7-40.9,19.2
	c-3.7,0.1-7.3,4.3-10.8,6.7c-0.2,0.1,0.4,1.8,1,2.3c3.9,3.4,9.8,6,11.5,10.2c5.4,13.7,18.2,20.8,26.6,31.9c3.9,5.1,9.2,10,14.9,12.7
	c10.4,5,21.4,8.5,32.4,12.1c10,3.3,20.2,6.8,30.6,8.6c19.2,3.3,38.5,5.2,57.8,7.9c3.4,0.5,6.7,2.8,9.9,2.5
	c13.6-1.5,27.1-3.1,40.5-5.9c7.2-1.5,14.4-4.6,20.8-8.3c11.7-6.7,23.5-13.5,34-21.8c12.7-10.2,25.1-21.2,35.7-33.5
	c9.6-11.2,18.1-23.9,24-37.3c6.5-14.6,10-30.5,13.7-46.1c3.2-13.3,5.2-26.8,7.1-40.3c2-14.6,3.5-29.4,4.9-44.1
	c1.7-17.8,2.9-35.6,4.4-53.4c1-11.8,1.5-23.6,3.4-35.2c2.1-13.4,4.6-26.9,8.3-39.9c3-10.6,7.1-21.1,12.3-30.9
	c3.6-6.8,9.8-12.2,15-18.1c10.5-12.1,22.9-21.5,38-27.3c10.4-4,21.3-4.6,32.2-6.3c15.3-2.4,30-1.1,44.3,3.1
	c7.1,2.1,14,7.7,19.1,13.4c12.8,14,17.2,32.1,21.8,49.9c3,11.5,5.2,23.1,8.2,34.6c1.8,7,4.3,13.9,6.4,20.8
	C876.8,215.8,877,216.7,877.5,218.4z"/>
<path class="st1" d="M838.7,608.2c-0.7-12.7-1.7-25.4-2.1-38.1c-0.2-7.1,0.7-14.3,0.8-21.4c0.1-8.1-0.5-16.1-0.2-24.2
	c0.6-15.5,1.4-30.9,2.6-46.4c1.3-16,2.5-32.1,5-48c1.8-11.5,5.1-22.8,8.4-34c1.6-5.3,4.6-10.2,7.2-15.2c2.7-5.2,11.4-8.3,16.8-4.4
	c8.3,6,16.1,3,24.6,1.6c10.1-1.7,20.3-2.1,30.5-3.4c5.8-0.7,11.6-1.7,17.2-3.3c5.2-1.5,10.1-3.7,13.4,3c2.4,4.9,6,9.3,7.7,14.4
	c4.3,12.4,8.9,24.9,11.5,37.7c2.1,10.4,1.3,21.4,2.1,32.1c0.7,10,2,20,2.7,30c0.4,6.6-0.2,13.2,0.4,19.8c0.7,7.7,2.4,15.3,3.2,23
	c0.6,5.8,1,11.6,0.7,17.4c-0.7,11.7-1.4,23.5-3.4,35c-0.5,2.9-5.8,5.5-9.4,7.1c-13.5,6-27.2,11.7-40.8,17.3
	c-9.1,3.7-18.4,7.1-27.7,10.6c-7.3,2.7-14.4,5.9-21.9,7.6c-8.5,1.9-17.4,3.2-26.1,3.1c-2.9,0-5.6-5.2-8.7-7.7
	c-0.9-0.7-2.8,0.1-4.2-0.1c-1.8-0.2-4.4-0.1-5.1-1.1c-2.5-3.6-4.3-7.7-6.4-11.6C837.7,608.7,838.2,608.4,838.7,608.2z"/>
<path class="st1" d="M875.6,337.3c11,1.1,21,2.8,31,2.8c9.9,0,19.7-1.8,29.6-2.6c0.7-0.1,2.1,1,2.3,1.7c1.3,5.5,2.6,11.1,3.6,16.7
	c0.8,4.7-0.1,9.2-5.5,10.3c-6.4,1.3-13,1.7-19.5,2.7c-7.4,1.1-14.8,3.3-22.2,3.3c-4.2,0-8.8-3-12.6-5.6
	C870.4,358.6,878.7,346.5,875.6,337.3z"/>
<path class="st0" d="M905.9,319.5c7.4-0.6,14.9-2.4,22-1.4c3.9,0.6,7.2,5.8,10.7,9c-2.2,1.8-4.2,5-6.6,5.3
	c-11.8,1.5-23.7,2.6-35.6,2.9c-5.6,0.1-11.2-1.9-16.8-3.1c-0.8-0.2-1.9-1.1-1.9-1.7c0-1,0.5-2.6,1.3-2.9c8.8-3.2,17.6-6.3,26.5-9.3
	C905.5,318.7,905.7,319.1,905.9,319.5z"/>
<g class="st2">
	<path class="st3" d="M799.6,247.5c2.6-0.2,1.4-2.2,0.7-4.1c-1.3-3.6-2.7-7.2-3.6-10.8c-0.9-3.5-1.1-7.3-2.1-10.8
		c-1.6-5.5-3-11.1-5.6-16.1c-1.2-2.2-5.2-3-7.9-4.2c-1.1-0.5-2.3-0.6-4.4-1.1c1.2,0,1.5,0,1.7,0c0-0.2,0.1-0.4,0.1-0.6
		c-2-0.2-4.1-0.4-5.8-0.5c-0.4-0.6-0.6-0.9-0.9-1.3c-0.1,0.1-0.3,0.2-0.4,0.3c0.1,0.3,0.3,0.7,0.4,0.9c-6,2.8-8.4,8.4-11.3,13.7
		c-2.4,4.3-5.8,8.1-8.1,12.5c-2.1,4-3.2,8.6-5,12.8c-0.6,1.5-1.8,3.3-3.1,3.7c-1.4,0.4-3.7-0.1-4.8-1.1c-5.2-5.1-10.5-10.1-15-15.8
		c-3.4-4.2-5.6-9.4-8.4-14.1c-4.6-7.7-4.2-16.5-5.6-24.9c-0.7-4.8,3.6-4.1,6.1-4.7c3.6-0.8,7.4-0.8,11.1-0.9c4.8-0.2,9.6-0.2,14.4,0
		c4.8,0.2,9.6,1,14.4,0.8c1.4,0,3-2.2,3.9-3.8c1.9-3.7,3.9-7,7.8-9.1c3.5-1.9,1.4-4.9,0.7-7.3c-1.4-5.2-3.3-10.3-4.7-15.4
		c-1.4-5.3-2.2-10.7-3.9-15.9c-1.1-3.5-3.3-6.8-4.9-10.2c-1.3-2.7,1.5-3.4,2.8-3.7c4.9-1.4,10-2.3,14.9-3.5c1.3-0.3,2.5-1.2,4-2
		c-0.3,0.4-0.4,0.6-0.6,0.9c7.1,2.3,15.2-2.5,21.9,2.9c0.1-0.4,0.2-0.7,0.3-1.1c2.8,0.7,5.9,1,8.4,2.3c5.3,2.7,10.3,5.9,15.2,9.3
		c0.7,0.5,0.9,3.4,0.3,4.1c-2.8,2.9-5.8,5.8-9,8.1c-5.4,3.8-7.9,9.7-11.4,14.9c-1.9,2.9-4.7,5.4-5.8,8.6c-1,2.8-1.1,6.5-0.2,9.3
		c0.8,2.6,3.7,4.5,5.5,6.8c1.6,2.2,2.5,5.1,4.6,6.7c2.1,1.6,5.1,2.3,7.8,3c4.8,1.2,9.7,2,14.5,3c3.7,0.7,7.4,1.2,11,2.2
		c2.8,0.7,5.4,2.2,8.1,3c1.3,0.4,3-0.5,4.1,0.1c3.6,2,2.4,5.5,1.3,8.1c-2.9,7-6.2,13.9-9.8,20.6c-4.8,9-11.8,16.2-20.5,21.3
		c-3.9,2.3-8.7,3.2-13,4.9c-2.2,0.9-4.2,2.7-6.7,0.5C802,248.5,800.5,248,799.6,247.5z"/>
	<path class="st4" d="M842.5,200.4c-0.9,4.7-1,9.5-2.8,13.5c-2.4,5.4-6,10.4-9.3,15.3c-4.8,7-12,11-19.6,14.2
		c-2.9,1.2-5.7-1.2-6.2-4.3c-0.4-2.4-2-4.7-2.7-7.1c-1.8-6-3.7-12-5.2-18c-1.1-4.4-1.8-8.9-2.3-13.4c-0.1-0.8,1.2-1.7,1.9-2.6
		c2.2-2.7,4.1-5.8,6.6-8c1.3-1.1,3.9-1.1,5.8-0.9c7,0.9,14.1,2,21,3.4c3.6,0.7,7.2,2,10.5,3.6C841.3,196.5,841.7,198.8,842.5,200.4z
		"/>
	<path class="st4" d="M719.3,184c5.6,0,10.7-0.2,15.7,0c4.9,0.2,9.7,0.5,14.5,1.2c3.9,0.6,7.7,1.6,11.4,3.1c1.6,0.6,2.5,2.8,4,4.1
		c1.8,1.5,1.2,2.8,0.2,4.5c-3.6,5.9-6.8,11.9-10.4,17.7c-3,4.7-6.3,9.2-9.6,13.6c-0.3,0.4-2.6,0-3.5-0.7c-4.8-3.7-9.6-7.3-13.9-11.5
		c-2.3-2.2-3.6-5.5-5-8.4c-1.9-3.9-3.9-7.7-5.3-11.8c-0.9-2.7-1-5.8-0.9-8.7C716.4,186.1,718.2,185.1,719.3,184z"/>
	<path class="st4" d="M770.5,150.7c-0.9-4.9-1.8-9.8-2.8-14.7c-0.7-3.5-1.4-7-2.2-10.5c-1.2-5-0.1-6.1,5.2-7
		c7-1.2,13.1,1.5,19.4,3.4c3.4,1,6.7,2.4,9.6,4.3c2.2,1.4,3.5,4,5.3,6.1c0.1,0.1,0.1,0.2,0.2,0.3c0.9,1.5,3.6,2.4,1,4.8
		c-1.4,1.3-1.8,3.5-2.9,5.1c-2.1,3.4-4.2,6.8-6.4,10.2c-1.8,2.8-3.7,5.5-5.4,8.3c-1.7,2.7-5.9,4-9.4,2.9c-0.8-0.3-1.9-0.4-2.6-0.1
		c-3.8,1.3-5-1.1-6-3.9c-1-2.9-2.1-5.7-3.2-8.5c-0.1-0.2-0.1-0.4-0.2-0.6C770.3,150.7,770.4,150.7,770.5,150.7z"/>
	<path class="st4" d="M764.8,183.1c-0.1-6.1,2.7-10.4,8.3-12.3c1-0.4,2.3,0.1,3.5,0.1c0.6,0,1.2-0.1,1.9-0.2c-0.1-0.5-0.3-1-0.2-1.5
		c0.1-0.4,0.6-1,0.8-1c2.8,0.4,5.8,0.3,8.2,1.5c3.2,1.6,6.3,3.9,8.9,6.5c3.7,3.7,3.4,11.4-0.3,15.1c-8.1,8.4-18,8.8-26.5,0.4
		C765.5,187.9,764.9,186.8,764.8,183.1z"/>
	<path class="st3" d="M779.9,173.4c3,0.4,5.8,0.8,8.6,1.2c3,0.5,6.7,7.1,6.4,10.2c-0.4,5.3-4.1,7.2-8.2,8.5c-4.9,1.5-8.6-0.9-12-4.2
		c-3.1-3-5-6.3-2.4-10.4c1-1.5,2.7-2.6,4.3-3.8C777.6,174.4,778.7,174,779.9,173.4z"/>
	<path class="st5" d="M790.2,183.5c-0.1,3.4-3.4,7.1-6.4,7c-3-0.2-7.6-4.8-7.5-7.6c0.1-3.2,1.8-5.1,4.9-5.3
		C785.9,177.5,790.3,180.5,790.2,183.5z"/>
</g>
</svg>
