<?xml version="1.0" encoding="utf-8"?>
<!-- Generator: Adobe Illustrator 16.0.0, SVG Export Plug-In . SVG Version: 6.00 Build 0)  -->
<!DOCTYPE svg PUBLIC "-//W3C//DTD SVG 1.1//EN" "http://www.w3.org/Graphics/SVG/1.1/DTD/svg11.dtd">
<svg version="1.1" id="Layer_1" xmlns="http://www.w3.org/2000/svg" xmlns:xlink="http://www.w3.org/1999/xlink" x="0px" y="0px"
	 width="143.7px" height="140.5px" viewBox="0 0 143.7 140.5" style="enable-background:new 0 0 143.7 140.5;" xml:space="preserve"
	>
<style type="text/css">
<![CDATA[
	.st0{fill-rule:evenodd;clip-rule:evenodd;}
	.st1{fill-rule:evenodd;clip-rule:evenodd;fill:#C84649;}
	.st2{fill-rule:evenodd;clip-rule:evenodd;fill:#FFFFFF;}
]]>
</style>
<g>
	<path class="st0" d="M89.1,137.5c2.6-0.2,1.4-2.2,0.7-4.1c-1.3-3.6-2.7-7.2-3.6-10.8c-0.9-3.5-1.1-7.3-2.1-10.8
		c-1.6-5.5-3-11.1-5.6-16.1c-1.2-2.2-5.2-3-7.9-4.2c-1.1-0.5-2.3-0.6-4.4-1.1c1.2,0,1.5,0,1.7,0c0-0.2,0.1-0.4,0.1-0.6
		c-2-0.2-4.1-0.4-5.8-0.5c-0.4-0.6-0.6-0.9-0.9-1.3c-0.1,0.1-0.3,0.2-0.4,0.3c0.1,0.3,0.3,0.7,0.4,0.9c-6,2.8-8.4,8.4-11.3,13.7
		c-2.4,4.3-5.8,8.1-8.1,12.5c-2.1,4-3.2,8.6-5,12.8c-0.6,1.5-1.8,3.3-3.1,3.7c-1.4,0.4-3.7-0.1-4.8-1.1c-5.2-5.1-10.5-10.1-15-15.8
		c-3.4-4.2-5.6-9.4-8.4-14.1C1.1,93,1.4,84.2,0.1,75.8c-0.7-4.8,3.6-4.1,6.1-4.7c3.6-0.8,7.4-0.8,11.1-0.9c4.8-0.2,9.6-0.2,14.4,0
		c4.8,0.2,9.6,1,14.4,0.8c1.4,0,3-2.2,3.9-3.8c1.9-3.7,3.9-7,7.8-9.1c3.5-1.9,1.4-4.9,0.7-7.3c-1.4-5.2-3.3-10.3-4.7-15.4
		c-1.4-5.3-2.2-10.7-3.9-15.9c-1.1-3.5-3.3-6.8-4.9-10.2c-1.3-2.7,1.5-3.4,2.8-3.7c4.9-1.4,10-2.3,14.9-3.5c1.3-0.3,2.5-1.2,4-2
		c-0.3,0.4-0.4,0.6-0.6,0.9c7.1,2.3,15.2-2.5,21.9,2.9c0.1-0.4,0.2-0.7,0.3-1.1c2.8,0.7,5.9,1,8.4,2.3c5.3,2.7,10.3,5.9,15.2,9.3
		c0.7,0.5,0.9,3.4,0.3,4.1c-2.8,2.9-5.8,5.8-9,8.1c-5.4,3.8-7.9,9.7-11.4,14.9c-1.9,2.9-4.7,5.4-5.8,8.6c-1,2.8-1.1,6.5-0.2,9.3
		c0.8,2.6,3.7,4.5,5.5,6.8c1.6,2.2,2.5,5.1,4.6,6.7c2.1,1.6,5.1,2.3,7.8,3c4.8,1.2,9.7,2,14.5,3c3.7,0.7,7.4,1.2,11,2.2
		c2.8,0.7,5.4,2.2,8.1,3c1.3,0.4,3-0.5,4.1,0.1c3.6,2,2.4,5.5,1.3,8.1c-2.9,7-6.2,13.9-9.8,20.6c-4.8,9-11.8,16.2-20.5,21.3
		c-3.9,2.3-8.7,3.2-13,4.9c-2.2,0.9-4.2,2.7-6.7,0.5C91.5,138.5,90,138,89.1,137.5z"/>
	<path class="st1" d="M132,90.3c-0.9,4.7-1,9.5-2.8,13.5c-2.4,5.4-6,10.4-9.3,15.3c-4.8,7-12,11-19.6,14.2c-2.9,1.2-5.7-1.2-6.2-4.3
		c-0.4-2.4-2-4.7-2.7-7.1c-1.8-6-3.7-12-5.2-18c-1.1-4.4-1.8-8.9-2.3-13.4c-0.1-0.8,1.2-1.7,1.9-2.6c2.2-2.7,4.1-5.8,6.6-8
		c1.3-1.1,3.9-1.1,5.8-0.9c7,0.9,14.1,2,21,3.4c3.6,0.7,7.2,2,10.5,3.6C130.8,86.5,131.2,88.7,132,90.3z"/>
	<path class="st1" d="M8.8,73.9c5.6,0,10.7-0.2,15.7,0c4.9,0.2,9.7,0.5,14.5,1.2c3.9,0.6,7.7,1.6,11.4,3.1c1.6,0.6,2.5,2.8,4,4.1
		c1.8,1.5,1.2,2.8,0.2,4.5c-3.6,5.9-6.8,11.9-10.4,17.7c-3,4.7-6.3,9.2-9.6,13.6c-0.3,0.4-2.6,0-3.5-0.7c-4.8-3.7-9.6-7.3-13.9-11.5
		c-2.3-2.2-3.6-5.5-5-8.4c-1.9-3.9-3.9-7.7-5.3-11.8c-0.9-2.7-1-5.8-0.9-8.7C5.9,76,7.7,75,8.8,73.9z"/>
	<path class="st1" d="M59.9,40.6c-0.9-4.9-1.8-9.8-2.8-14.7c-0.7-3.5-1.4-7-2.2-10.5c-1.2-5-0.1-6.1,5.2-7c7-1.2,13.1,1.5,19.4,3.4
		c3.4,1,6.7,2.4,9.6,4.3c2.2,1.4,3.5,4,5.3,6.1c0.1,0.1,0.1,0.2,0.2,0.3c0.9,1.5,3.6,2.4,1,4.8c-1.4,1.3-1.8,3.5-2.9,5.1
		c-2.1,3.4-4.2,6.8-6.4,10.2c-1.8,2.8-3.7,5.5-5.4,8.3c-1.7,2.7-5.9,4-9.4,2.9c-0.8-0.3-1.9-0.4-2.6-0.1c-3.8,1.3-5-1.1-6-3.9
		c-1-2.9-2.1-5.7-3.2-8.5c-0.1-0.2-0.1-0.4-0.2-0.6C59.7,40.7,59.8,40.6,59.9,40.6z"/>
	<path class="st1" d="M54.3,73c-0.1-6.1,2.7-10.4,8.3-12.3c1-0.4,2.3,0.1,3.5,0.1c0.6,0,1.2-0.1,1.9-0.2c-0.1-0.5-0.3-1-0.2-1.5
		c0.1-0.4,0.6-1,0.8-1c2.8,0.4,5.8,0.3,8.2,1.5c3.2,1.6,6.3,3.9,8.8,6.5c3.7,3.7,3.4,11.4-0.3,15.1c-8.1,8.4-18,8.8-26.5,0.4
		C54.9,77.9,54.3,76.7,54.3,73z"/>
	<path class="st0" d="M69.4,63.4c3,0.4,5.8,0.8,8.6,1.2c3,0.5,6.7,7.1,6.4,10.2c-0.4,5.3-4.1,7.2-8.2,8.6c-4.9,1.5-8.6-0.9-12-4.2
		c-3.1-3-5-6.3-2.4-10.4c1-1.5,2.7-2.6,4.3-3.8C67,64.3,68.2,64,69.4,63.4z"/>
	<path class="st2" d="M79.7,73.5c-0.1,3.4-3.4,7.1-6.4,7c-3-0.2-7.6-4.8-7.5-7.6c0.1-3.2,1.8-5.1,4.9-5.3
		C75.3,67.4,79.7,70.5,79.7,73.5z"/>
</g>
</svg>
