<?xml version="1.0" encoding="utf-8"?>
<!-- Generator: Adobe Illustrator 16.0.0, SVG Export Plug-In . SVG Version: 6.00 Build 0)  -->
<!DOCTYPE svg PUBLIC "-//W3C//DTD SVG 1.1//EN" "http://www.w3.org/Graphics/SVG/1.1/DTD/svg11.dtd">
<svg version="1.1" id="Layer_1" xmlns="http://www.w3.org/2000/svg" xmlns:xlink="http://www.w3.org/1999/xlink" x="0px" y="0px"
	 width="1000px" height="1000px" viewBox="0 0 1000 1000" style="enable-background:new 0 0 1000 1000;" xml:space="preserve">
<style type="text/css">
<![CDATA[
	.st0{fill-rule:evenodd;clip-rule:evenodd;}
	.st1{fill-rule:evenodd;clip-rule:evenodd;fill:#FFFFFF;}
]]>
</style>
<g>
	<path class="st0" d="M624.8,980.2c-2.5,6.7-66.3,17-75.9,8.6c-16.7,4.3-28.3,7.3-43.5,11.2c-13.1-1.7-31.2-4-51.7-6.7
		c1.4-1.3-0.8,2.4-2.6,2.2c-47.4-5.1-94.8-10.7-146-16.5c2.8-5.7,1.3-2.7,0-0.1c-23.9-9.3-47.4-25.2-71.5-26.5
		c-49-2.6-84.9-34.3-126.2-54.3c-40.3-19.5-70.2-50.9-90.3-91.6c-8.4-17.1-7.5-39.8-9.8-60.1c-3.1-27.3-6.6-54.8-7.2-82.2
		c-0.5-21.3,2.2-42.8,5.2-63.9c2.6-18.5,7.2-36.8,11.6-54.9c10.4-43,19-86.8,32.8-128.6c8-24.5,23.3-46.8,37.3-68.5
		c26.4-40.9,54.1-80.9,81.7-120.9c14.8-21.5,28.4-44.9,46.5-62.7c22.7-22.5,49.3-40.4,74.5-59.9c15.1-11.7,29.8-24.2,46.2-33.4
		c29.5-16.6,58.8-36.1,90.5-45C473.1,13,521.6,4.8,569.8,0.7c32.9-2.8,66.8,3.1,99.8,8.5c35.9,5.9,72,13.2,106.7,24.7
		c15.6,5.2,29.5,20.5,41.1,34.3c22.8,27.1,43.5,56.2,64.8,84.7c1.9,2.5,1.5,6.9,2.4,11.2c0.8-0.4,3.1-1.5,5.3-2.7
		c9.2,13.5,18.3,27.1,27.8,41.1c-2.7,3.2,0,0,2-2.4c8.4,11.5,16.9,23.2,20.5,28.1c9.8,19.3,15.7,31,22.2,43.7
		c0.7,0.6,3.8,1.9,5.4,4.3c65.5,102.4,25,429.7-61.1,532.4c-38,45.3-82.4,77.7-131.2,103.7C728.8,937.2,679.4,955.9,624.8,980.2z"/>
	<path class="st1" d="M575.8,67.6c10.9-1.5,21-4.1,31-3.9c30.1,0.4,60.9-2.3,90.1,3.9c32.2,6.7,64.4,18.5,93.7,34.5
		c20.3,11,37.9,30.8,52.8,50.1c33.4,43.4,67.1,87.1,95.4,134.4c14.4,24,21.4,55.4,24.5,84.4c4.5,42.6,6.5,86.6,2.1,129
		c-4,38.4-14.4,77.4-29,112.7c-16.4,39.7-37.2,78.7-62.8,112C850,755.5,817.6,778.6,789,805c-15.6,14.5-29.9,31.6-47.5,42.4
		c-17.1,10.5-37.3,15.6-56.7,21c-43.2,12-86.8,22.8-130.3,33.7c-31.7,8-63.2,18.1-95.4,22c-23.8,2.9-48.5-1.9-72.7-4.6
		c-36.2-4.1-72.2-11.5-108.5-13.5c-44.2-2.3-77.4-26-108.8-55.9c-20.3-19.3-41.5-37.5-61.1-57.6c-3.6-3.7-1.5-13.7-2.7-20.7
		c-0.7-4.1-3.3-11.7-3.5-11.6c-31.8,9.1-32-22.6-38.3-39c-23.9-61.8-27.7-128-15.4-192.4c8.7-45.3,27.3-89,46-131.1
		C110,362.3,129.9,328,152.6,297c24-32.7,52.3-62.1,80.9-90.4c27.6-27.4,55.3-56.8,87.7-76c49.1-29.2,96.5-67.3,157.9-62.9
		c28.8,2.1,57.7,2,86.6,2.5C569.1,70.3,572.6,68.5,575.8,67.6z"/>
	<path class="st1" d="M123.3,860.1c5.6,11.3,9.8,19.9,14,28.5c-1.4,0.8-2.8,1.5-4.2,2.3c-2.6-3.9-5.1-7.8-7.6-11.6
		c-2.7,2-4.8,3.5-6.9,5.1C119.9,877.2,121.3,870,123.3,860.1z"/>
	<path class="st1" d="M305.1,946.2c0.5-2.8,1.2-6.2,3-16.2c1.6,9.2,2,11.7,2.3,13.2c8,0,15.6,0,23.3,0c0,1,0.1,2,0.1,3.1
		C324.7,946.2,315.5,946.2,305.1,946.2z"/>
	<path class="st1" d="M743.2,873.8c2.9-5,5.9-10,8.8-15c1.2,1.1,2.5,2.2,3.7,3.3c-3.1,5-6.2,10-9.3,15
		C745.3,876.1,744.3,874.9,743.2,873.8z"/>
	<path class="st1" d="M761.7,866.1c4.1-3.6,8.3-7.2,12.4-10.8c1,1.3,2.1,2.7,3.1,4.1c-4.3,3.8-8.5,7.6-12.7,11.5
		C763.6,869.2,762.6,867.7,761.7,866.1z"/>
</g>
</svg>
