<?xml version="1.0" encoding="utf-8"?>
<!-- Generator: Adobe Illustrator 16.0.0, SVG Export Plug-In . SVG Version: 6.00 Build 0)  -->
<!DOCTYPE svg PUBLIC "-//W3C//DTD SVG 1.1//EN" "http://www.w3.org/Graphics/SVG/1.1/DTD/svg11.dtd">
<svg version="1.1" id="Layer_1" xmlns="http://www.w3.org/2000/svg" xmlns:xlink="http://www.w3.org/1999/xlink" x="0px" y="0px"
	 width="1000px" height="1000px" viewBox="0 0 1000 1000" style="enable-background:new 0 0 1000 1000;" xml:space="preserve">
<style type="text/css">
<![CDATA[
	.st0{fill-rule:evenodd;clip-rule:evenodd;fill:#185D62;}
	.st1{fill-rule:evenodd;clip-rule:evenodd;fill:#FFFFFF;}
]]>
</style>
<path class="st0" d="M810.2,707.6c21.1,34.5,41.3,67.5,63.7,104c14.1-26.8,28.4-50.4,39.3-75.5c87.6-200.2,28.6-425.1-145.8-556.2
	c-15-11.3-31.9-19.9-47.4-30.4c-2.4-1.6-4.3-7.8-3.1-10.2c18.4-36.6,19.1-37.5,53.8-14.7c138.8,91.5,216,220.4,227.8,386.3
	c8.7,121.7-21.7,233.8-92.5,334.1c-1.8,2.5-4.5,4.3-7.4,7c24.4,39.9,49.4,80.6,75.5,123.2c-103.5,5.5-205.1,10.8-308.6,16.3
	C713.9,896.4,761.6,802.8,810.2,707.6z"/>
<path class="st0" d="M97.3,232.2c-20.9-34.2-45.9-75.1-71.8-117.5c103.2-5.4,205.1-10.8,308.6-16.3
	c-48.5,95.1-96.2,188.8-144.7,283.9c-21.1-34.4-41.4-67.5-65.3-106.4c-18,39.2-38.2,73.2-49.8,109.8
	C16.7,568.4,48.2,732.3,185.5,870.1c27,27.1,62,46.3,92.8,69.7c2.8,2.1,4.9,9.3,3.4,12.3c-17.7,35.7-18.3,36.3-51.6,14
	C67.6,857.4-8.6,704.4,0.8,510c4.7-96.8,35.6-186,92.6-265.3C95.3,242,95.5,238.1,97.3,232.2z"/>
<path class="st0" d="M303,677.5c0-71.3,0-142.5,0-213.8c0-68,29.6-111.5,92-137c4.1-1.7,8.6-8.4,8.7-12.9
	c0.7-42.8,0.2-85.6,0.7-128.4c0-2.8,5.1-8,7.9-8c42.8-0.5,85.6-0.5,128.4,0c2.7,0,7.5,5,7.5,7.7c0.5,45.8,0.2,91.6,0.6,137.3
	c0,3.3,2.6,8.5,5.4,9.7c65,28.5,89.4,83.2,90.4,148.8c2.3,141.7,1.5,283.5,1.7,425.3c0,2.2-4,6.3-6.1,6.3
	c-110.4,0.3-220.7,0.4-331.1-0.1c-2.2,0-6.2-6-6.2-9.2c-0.4-75.2-0.3-150.4-0.3-225.7C302.8,677.5,302.9,677.5,303,677.5z"/>
<path class="st0" d="M510.7,42.8c0,18.8-15.2,34.2-33.7,34.3c-18.7,0-34.5-15.9-34.3-34.7c0.2-18.4,16-34,34.4-33.9
	C495.8,8.7,510.7,23.9,510.7,42.8z"/>
<path class="st1" d="M891.6,931.8c-49.4,2.5-96.7,4.9-146,7.4c23.1-45.3,45.3-88.9,68.3-134C840,847.8,865.2,888.8,891.6,931.8z"/>
<path class="st1" d="M254.1,150.2c-23.1,45.5-45.3,89-68.3,134.4c-26.1-42.6-51.4-83.6-77.7-126.5
	C157.3,155.5,204.5,152.9,254.1,150.2z"/>
<path class="st1" d="M339.3,688.6c0-72.7-1.2-145.4,0.4-218.1c1.4-63.7,23.2-91.4,83.2-111.9c14.7-5,20.8-13.6,20.5-29
	c-0.6-35.6-0.4-71.3,0.1-106.9c0-2.7,4.9-7.6,7.6-7.7c19-0.3,43.8-6.5,55.1,3c9.4,7.9,3,34.7,3.2,53.1c0.2,22-1.2,44.2,0.7,66
	c0.7,8.3,7.3,20.6,14,23c63.2,22.6,82.6,72.2,83,132.7c0.9,126.7,0.5,253.4,0.3,380.1c0,2.4-4.5,7-7,7
	c-85.6,0.4-171.3,0.4-256.9-0.1c-2.4,0-6.9-5.6-6.9-8.6c-0.4-60.9-0.3-121.8-0.3-182.6C337.4,688.6,338.4,688.6,339.3,688.6z"/>
<path class="st0" d="M476.5,446.2c-0.2,18.8-15.6,34.2-34,34c-18.9-0.3-34.3-16.2-34-35c0.3-18.4,16.5-34,34.7-33.5
	C462.2,412.1,476.7,427.2,476.5,446.2z"/>
<path class="st0" d="M565.6,463.7c0,18.8-15.1,34.2-33.7,34.3c-18.7,0.1-34.5-15.9-34.3-34.7c0.1-18.4,16-34,34.4-33.9
	C550.7,429.6,565.7,444.8,565.6,463.7z"/>
</svg>
