<?xml version="1.0" encoding="utf-8"?>
<!-- Generator: Adobe Illustrator 16.0.0, SVG Export Plug-In . SVG Version: 6.00 Build 0)  -->
<!DOCTYPE svg PUBLIC "-//W3C//DTD SVG 1.1//EN" "http://www.w3.org/Graphics/SVG/1.1/DTD/svg11.dtd">
<svg version="1.1" id="Layer_1" xmlns="http://www.w3.org/2000/svg" xmlns:xlink="http://www.w3.org/1999/xlink" x="0px" y="0px"
	 width="550px" height="1000px" viewBox="0 0 550 1000" style="enable-background:new 0 0 550 1000;" xml:space="preserve">
<style type="text/css">
<![CDATA[
	.st0{fill-rule:evenodd;clip-rule:evenodd;}
	.st1{fill-rule:evenodd;clip-rule:evenodd;fill:#FFFFFF;}
]]>
</style>
<path class="st1" d="M215,955.1c-4,0.7-8.1,1.4-13.4,2.3c-4.1-5.4,3.6-6.4,6.2-7.4c3.8-1.4,8.5-0.4,13.7-0.4c-1.8,2.1-3.9,4.6-6,7.1
	C215.4,956.2,215.2,955.7,215,955.1z"/>
<g>
	<path class="st0" d="M423.9,427.7c1.1-1.5,2.4-3.1,3.7-4.8c0.7,0.9,1.7,1.8,1.9,2.7c1.7,12.4,5.4,23.7,11.4,35
		c4.4,8.3,4.3,19.4,5,29.4c0.9,12.9,0,25.9,0.8,38.9c0.7,10.8,4.1,21.5,3.8,32.2c-0.3,8.4-4.3,16.6-6.5,24.1
		c1.3,7.6,3.4,14.8,3.6,22.1c0.4,12.9-0.3,25.7-0.4,38.6c-0.1,10.3-0.1,20.6-0.2,30.9c0,10.7-0.8,21.2-2.7,31.9
		c-1.9,11.1,1,22.9,1.1,34.4c0.1,8-1.5,16.1-1.3,24.1c0.2,7.8,2.3,15.5,2.8,23.3c0.5,7.8,5.3,15.4,1.3,23.6
		c-0.4,0.9,2.2,3.2,3.7,5.3c-2.4,2.8-5.1,6.5,2.9,7.9c-1.4-0.2-2.8-0.4-3.5-0.5c-1.3,8.4,5.5,16.1,0.8,25.4
		c-2.2,4.4-0.2,11.1,0.1,16.7c0.3,7.4,1.1,14.9,1,22.3c-0.2,12.2-0.1,24.6-1.9,36.6c-2.6,16.7-5.5,33.7-25.4,40
		c-4,1.3-7.1,5-10.8,7.3c-2.4,1.5-5,3-7.7,3.5c-10,1.8-21.2,1.1-30,5.2c-13.4,6.3-26.1,5.1-39.5,2.6c-0.3-0.1-0.7-0.4-0.8-0.4
		c-6.2,7.3-14.8-2.6-22.3,3.7c-5.1,4.3-14,4.4-21.3,5.6c-3.6,0.6-7.4-0.6-11.1-0.8c-9.3-0.5-18.5-0.9-27.1-1.3
		c-0.6,1.1,0.1-0.1,1-1.8c-20.1,3.4-40.9-6.1-61.1,3.8c-1.1-1.3,1.6-9.8-6.7-4.9c-1,0.6-3.3-0.6-4.9-1.3c-12-4.5-24.8-7.8-35.8-14.2
		c-7.2-4.2-11.8-12.9-18-20c-0.7,2-1.2,3.7-1.8,5.3c-0.5,0-1.1,0-1.6,0c-2.8-24.6-5.7-49.2-8.3-73.9c-2.6-25-6.8-49.8-6.7-75.5
		c-0.5,0.1-1.8,0.3-2.6,0.4c-2.2-12.1-4.7-24.4-6.7-36.8c-2.1-13.2-4.2-26.3-5.5-39.6c-1.2-12.6-1.2-25.3-1.9-37.9
		c-0.3-4.7-1-9.3-1.3-14c-0.3-4.2,0.1-8.5-0.4-12.6c-1.5-12.8-0.4-25.8-0.6-38.4c-0.2-20.2,6.5-40.4,8.4-60.8
		c1.5-16.5,7.4-32.2,5.3-49.6c-0.9-7.1-0.2-20.6,13.2-24.6c2.2-0.7,6-8.2,8.5-12.9c1.3-2.6,5.1-3.9,8-5.6
		c10.9-6.1,21.9-12,32.7-18.3c2.2-1.3,3.4-4.1,5.6-6.7c0.2,0,2.1,0.4,3.9,0.8c0-2.8,0-5.5,0-7.5c3.6-0.7,7.3-1.4,11.4-2.2
		c-0.2-4.3,0.3-7.3,7.7-6.9c2.9,0.2,6.2-8.2,7.8-10.6c5.4-3,11.1-4.3,12.4-7.4c4-9.5,6.8-19.5,8.8-29.6c0.8-4.2-2.4-9.1-2.1-13.6
		c0.3-5.1,2.8-10.1,3.7-15.3c1.8-10.1,3.2-20.3,4.6-30.5c1-7.5,1.9-14.7,9.5-19.4c8.8-5.4,16.4-13,25.5-17.6c7.6-3.8,16.7-4.6,25-7
		c1.7-0.5,3.2-2,2.6-1.6c9.3,0,16.8,0,24.3,0c0.1,0.8,0.2,1.5,0.3,2.3c1-1.6,2.1-3.2,3.1-4.8c0.2,0.8,0.4,1.6,0.6,2.4
		c3.4-0.8,8.6-0.5,10-2.6c3.8-5.9,6.5-4.3,11.1-1.1c3.5,2.5,8.2,4.4,12.4,4.5c7.4,0,11.8,2.9,14.5,9.6c0.5,1.1,2.7,1.6,3.4,2
		c1.1,8.7,2.3,17.5,3.4,26.3c1.8,10.8-10.6,19.7-3.7,32.4c1.2,2.2-1.3,6.4-2.1,10c1.9,0.2,4.2,0.5,8.8,1c-4.3,0.9-6.2,1.3-8.1,1.7
		c2.1,1.6,4.1,3,6.1,4.5c-0.2,0.4-0.4,0.8-0.6,1.2c-2.2-0.6-4.3-1.1-5.1-1.3c0.9,8.1,1.1,16.1,2.8,23.8c0.6,2.7,4.7,4.6,8.3,7.9
		c-0.3,6.6,2.4,9.6,9.7,7.9c0.4,2.8,0.8,5.7,1.4,9.8c2.9-3.2,5-5.6,7.6-8.6c-0.7,7.2,2.2,8.5,7.9,8.3
		C415.2,421.6,419.5,425.5,423.9,427.7z M319.3,408.5c0.2-2.9,0.6-4.8,0.5-6.8c-0.3-6.4-1.5-12.8-1.1-19.1c1-13.9,3.1-27.7,4.2-41.5
		c0.6-7.4,0.1-15,0.1-22c-4.6,0.3-9.6,0.1-14.4,0.9c-7,1.2-14.5,1.3-19,8.7c-4,6.7-8.9,12.8-13.3,19.3c-0.9,1.3-1.3,3.1-1.6,4.7
		c-2.6,13.8-4.6,27.7-7.7,41.4c-2.1,9.4-3,18.7-10.2,27.3c-6.1,7.3-7.2,18.8-10.4,28.5c-0.5,1.4,0.3,3.2,0.5,4.3
		c-7.3,0.1-13.1,4.8-15,9.8c-2.7,7.3-7.3,6.6-12.6,7c-2.2,0.2-4.4,0.8-6.4,1.6c-14.1,6-26.9,14.3-40.1,22
		c-7.2,4.2-9.4,10.5-11.2,15.6c-3.1,8.7-2.1,18.8-3,28.3c-0.2,1.7-1,3.3-1.9,4.8c-5.8,10-5.4,21-5.3,32.1c0.1,14.9,0,29.8,0,45.3
		c0.2,0-1.4,0.4-1.7,0.5c-1.2,11.8-2.5,22.8-3.5,33.9c-0.2,2.7,0.6,5.5,0.9,7.9c-0.7,2-2.1,4.4-2.4,6.9c-0.2,1.9,1.3,3.9,1.3,5.8
		c0.7,22.1,1.2,44.2,1.9,66.3c0.1,2.8,1.5,5.6,2.4,8.5c-0.3,0-1.7,0.1-4.9,0.3c3.6,2.3,5.6,3.6,7.6,4.9c-0.9-0.1-1.8-0.1-2.7-0.2
		c-1,3.9-2.7,7.8-2.9,11.8c-0.2,3.1,1.5,6.3,2.3,9.4c0.6,2.3-1.2,5.2-1.1,8c0.2,4.3,3.3,8.8,2.6,12.8c-2.7,16.7,1.3,32.8,2.8,49.1
		c0.4,4.4-4.7,10.2,2.4,13.4c-6,7-1.7,13.5,1.3,19.9c2.2,4.7,5.5,9,7.8,13.7c3.8,7.7,7.2,15.5,10.7,23.3c0.4,1,0.5,2.8-0.1,3.4
		c-5.5,5.6,0.2,8.9,2.4,13c1.2,2.3,3.6,5.4,2.9,7.1c-2,4.9-2.4,4.6,2.3,7c2.3,1.2,4.4,2.8,6.5,4.1c4.8-7.4,13.9,5.4,18.2-3.8
		c6.4,5.2,13.2,3.1,20.3,1.8c0,0.6,0.1,2,0.4,5.3c14.2-2.3,28.1-4.6,42-6.6c4.5-0.6,10.6,1.6,13.5-0.6c7.7-5.8,13.9-5.6,19.9,1.5
		c1.7-1.9,2.8-3.2,4.5-5.2c0.2,2.8,0.3,4.4,0.4,5.5c4.5-0.7,8.7-1.3,13.5-2c0,0,0.3-1.5,0.5-2.5c9.4,6.5,18.1,6.3,26.5-1.7
		c0.1,1.9,0.3,3.3,0.5,6.3c6.8-3.7,12.4-8.4,18.7-9.7c7.5-1.6,14.9-1.1,21.4-6.9c3.5-3.1,11-1.4,11.1-9.3c0.1-5,7.2-9.4,1.3-15.1
		c-0.3-0.3,0.8-3.2,1.3-3.3c11.8-1.1,10.2-10.8,11-18.1c0.4-4.1,5.3-10.9-3.6-13.1c6.4-7.6-3.9-8.6-5.1-13.2
		c-0.4-1.4-0.2-3.1-0.1-4.6c0.6-8.4,1.6-16.8,1.6-25.2c0-5.4-1.5-10.9-2.4-16.3c-0.4-2.5-1.6-7.2-1.4-7.2c7.3-2.2,1.5-6.7,1.5-9.7
		c0-5.4-1.8-10.8-1.9-16.2c-0.1-7.5,1.2-15.1,1-22.6c-0.3-7.9-1.9-15.8-2.6-23.7c-1.3-14.4-4.3-29.1-2.9-43.3
		c2-19.6-0.1-38.7-0.9-58.1c-0.5-12.5-2.6-25.1,1.1-37.5c0.2-0.8,0.4-2,0-2.6c-5.4-7.7-1.4-15.8-1.2-23.8c0.3-9.7-1.1-19.5-0.2-29.1
		c1.5-15,4.7-29.7,6.6-44.7c0.7-5.6,0.1-11.5,0.1-17.5c-7.7-3.5-7.9-10.2-3.8-18.1c-2.5-0.2-4.4-0.4-7.5-0.7
		c2.2-1.1,3.3-1.6,4.6-2.2c-4.1-1.8-7.9-3.5-12.8-5.7c-0.2-0.7-1.1-3.2-2-6c-2.8,1.8-4.7,2.9-6.7,4.2c-3.4-12.8-10.6-2.9-17.9-2.5
		c3.1-2.2,4.6-3.3,6.2-4.4c-10.1-7.7-20-10.1-24.4-6.1c-5.8-10-23.8-12.4-18.2-29.2C320.6,408.4,318.9,408.5,319.3,408.5z
		 M248.9,399.3c0.9,0,1.9-0.1,2.8-0.1c0.6-6.7,1.1-13.4,1.7-20.1c-0.9,0-1.8-0.1-2.6-0.1C246,385.7,246.7,392.5,248.9,399.3z"/>
	<path class="st1" d="M319.3,408.5c-0.4,0,1.3-0.1,3.2-0.2c-5.6,16.8,12.4,19.2,18.2,29.2c4.5-4,14.3-1.6,24.4,6.1
		c-1.6,1.1-3,2.2-6.2,4.4c7.4-0.4,14.5-10.3,17.9,2.5c2-1.2,3.9-2.4,6.7-4.2c0.9,2.8,1.8,5.3,2,6c4.9,2.2,8.7,3.9,12.8,5.7
		c-1.3,0.6-2.4,1.1-4.6,2.2c3.1,0.3,5,0.5,7.5,0.7c-4.1,8-3.8,14.6,3.8,18.1c0,6.1,0.6,11.9-0.1,17.5c-2,14.9-5.1,29.7-6.6,44.7
		c-1,9.6,0.5,19.4,0.2,29.1c-0.3,8-4.3,16,1.2,23.8c0.4,0.6,0.3,1.8,0,2.6c-3.7,12.4-1.7,25-1.1,37.5c0.8,19.3,2.9,38.5,0.9,58.1
		c-1.5,14.2,1.6,28.9,2.9,43.3c0.7,7.9,2.3,15.8,2.6,23.7c0.3,7.5-1.1,15.1-1,22.6c0.1,5.4,1.9,10.8,1.9,16.2c0,3,5.8,7.5-1.5,9.7
		c-0.2,0.1,0.9,4.7,1.4,7.2c0.9,5.4,2.4,10.9,2.4,16.3c0,8.4-1.1,16.8-1.6,25.2c-0.1,1.5-0.3,3.2,0.1,4.6c1.2,4.6,11.6,5.6,5.1,13.2
		c8.8,2.1,4,8.9,3.6,13.1c-0.7,7.2,0.8,17-11,18.1c-0.6,0.1-1.7,2.9-1.3,3.3c5.9,5.7-1.3,10.1-1.3,15.1c-0.1,7.8-7.6,6.2-11.1,9.3
		c-6.5,5.7-13.9,5.3-21.4,6.9c-6.3,1.3-11.8,6-18.7,9.7c-0.2-3-0.3-4.4-0.5-6.3c-8.5,8-17.1,8.1-26.5,1.7c-0.2,1-0.5,2.5-0.5,2.5
		c-4.8,0.7-8.9,1.3-13.5,2c-0.1-1.1-0.2-2.7-0.4-5.5c-1.7,2-2.9,3.3-4.5,5.2c-6-7.1-12.2-7.3-19.9-1.5c-3,2.2-9-0.1-13.5,0.6
		c-13.9,2-27.8,4.4-42,6.6c-0.2-3.3-0.4-4.7-0.4-5.3c-7,1.3-13.8,3.4-20.3-1.8c-4.3,9.1-13.4-3.6-18.2,3.8c-2-1.3-4.1-2.9-6.5-4.1
		c-4.7-2.4-4.2-2.1-2.3-7c0.7-1.7-1.7-4.8-2.9-7.1c-2.2-4.1-7.9-7.4-2.4-13c0.6-0.6,0.5-2.4,0.1-3.4c-3.5-7.8-6.9-15.6-10.7-23.3
		c-2.3-4.7-5.6-8.9-7.8-13.7c-3-6.3-7.3-12.8-1.3-19.9c-7.1-3.3-2-9-2.4-13.4c-1.6-16.3-5.5-32.5-2.8-49.1c0.6-4-2.4-8.5-2.6-12.8
		c-0.2-2.8,1.7-5.7,1.1-8c-0.8-3.1-2.5-6.3-2.3-9.4c0.2-4,1.9-7.8,2.9-11.8c0.9,0.1,1.8,0.1,2.7,0.2c-2-1.3-4-2.6-7.6-4.9
		c3.3-0.2,4.7-0.3,4.9-0.3c-0.9-2.9-2.3-5.7-2.4-8.5c-0.8-22.1-1.2-44.2-1.9-66.3c-0.1-2-1.5-4-1.3-5.8c0.3-2.5,1.6-4.9,2.4-6.9
		c-0.3-2.4-1.1-5.2-0.9-7.9c1-11.1,2.3-22.1,3.5-33.9c0.3-0.1,1.9-0.5,1.7-0.5c0-15.5,0.1-30.4,0-45.3c-0.1-11-0.5-22,5.3-32.1
		c0.9-1.5,1.7-3.2,1.9-4.8c0.9-9.5-0.1-19.6,3-28.3c1.8-5.1,4-11.4,11.2-15.6c13.2-7.7,26-16.1,40.1-22c2-0.8,4.2-1.4,6.4-1.6
		c5.3-0.4,9.9,0.2,12.6-7c1.8-5,7.7-9.8,15-9.8c-0.1-1-0.9-2.9-0.5-4.3c3.1-9.7,4.2-21.2,10.4-28.5c7.2-8.5,8.1-17.9,10.2-27.3
		c3.1-13.7,5.1-27.6,7.7-41.4c0.3-1.6,0.7-3.4,1.6-4.7c4.4-6.5,9.3-12.6,13.3-19.3c4.5-7.4,12-7.5,19-8.7c4.8-0.9,9.8-0.7,14.4-0.9
		c0,7,0.5,14.6-0.1,22c-1.1,13.9-3.2,27.7-4.2,41.5c-0.5,6.3,0.7,12.8,1.1,19.1C319.9,403.6,319.5,405.6,319.3,408.5z"/>
	<path class="st1" d="M248.9,399.3c-2.2-6.8-2.9-13.6,1.9-20.3c0.9,0,1.8,0.1,2.6,0.1c-0.6,6.7-1.1,13.4-1.7,20.1
		C250.8,399.2,249.8,399.3,248.9,399.3z"/>
</g>
</svg>
