<?xml version="1.0" standalone="no"?>
<svg xmlns="http://www.w3.org/2000/svg" style="isolation:isolate" viewBox="0 0 1000 1000">
  <defs>
    <clipPath id="a">
      <rect width="1000" height="1000"/>
    </clipPath>
  </defs>
  <g clip-path="url(#a)">
    <linearGradient id="b" x1="0%" y1="50%" y2="50%">
      <stop offset="0%" stop-color="#e8759d"/>
      <stop offset="100%" stop-color="#c67db6"/>
    </linearGradient>
    <path d="M241 999c-43.8-61.8-84-126-120.4-192.4C65.6 706.2 0 562.7 0 449.2 0 371 28.7 312.6 83.1 279.9c77.5-46.6 192.4-31.3 266 7.8 33.5 17.9 135.5 72.2 235.7 93.7 111 24 189.6 2.2 233.4-64.5 101.6-154.3-16.7-311-17.9-312.5L806 0a337.5 337.5 0 0 1 48.7 100.2c16.3 54.9 24.1 137.7-30.4 220.6-45.7 69.4-126.8 92-240.9 67.6-101-21.8-203.7-76.4-237.5-94.4-71.8-38.1-183.8-53.1-259-8C34.7 317.3 7 373.8 7 449.1c0 112.1 65.1 254.5 119.7 354.2 36.3 66.1 76.3 130 119.9 191.6L241 999z" fill="url(#b)"/>
    <linearGradient id="c" x1="0%" y1="50%" y2="50%">
      <stop offset="100%" stop-color="#e8759d"/>
      <stop offset="100%" stop-color="#e8759d"/>
    </linearGradient>
    <path d="M240.3 997.8l-2.6-3.8C184.5 918.5 11.2 658 12.9 475c.4-46.3 11-85.2 31.6-115.7 37-54.9 96.7-70.4 140.2-73.8A310.7 310.7 0 0 1 343 316.8c60.2 30.7 139.7 67.8 220.3 84.1 103.6 20.9 176.6-.6 217.2-63.8 49-76.6 41-153 25.9-203.6a311.4 311.4 0 0 0-45.6-93.2l5.6-4.3c4.8 6.2 116.3 154 20 304.8-42.3 65.9-117.8 88.5-224.5 67-81.5-16.5-161.5-54-222.1-84.8a303.8 303.8 0 0 0-154.7-30.7c-42 3.3-99.4 18.2-134.8 70.7-19.8 29.3-30 66.9-30.4 111.8-1.7 181 170.6 440 223.5 515l3 4.3-6.2 3.7z" fill="url(#c)"/>
    <linearGradient id="d" x1="0%" y1="50%" y2="50%">
      <stop offset="100%" stop-color="#e8759d"/>
      <stop offset="100%" stop-color="#e8759d"/>
    </linearGradient>
    <path d="M239.9 997a192 192 0 0 0-5.1-7.5c-185-265.5-210.3-420.3-209-489 .9-43.8 11.2-80.9 30.8-109.8 35.2-52 91.2-67.6 132-71.4 51-4.2 102.2 5 148.6 26.6 40 19.3 123.2 59.4 205 74.6 96.2 17.8 163.8-3.4 200.8-63.3C829.5 218 722.7 77.8 721.6 76.4l2.8-5.7c2 0 2.1 0 8.3 9 3 4.7 7.8 12 13 21.5 29 52.2 68.2 155.3 3.4 259.8-38.8 62.6-108.9 84.9-208.2 66.4-82.7-15.3-166.4-55.7-206.7-75a286.6 286.6 0 0 0-144.8-26C150 330 96.2 345 62.4 394.7c-18.7 27.8-28.6 63.5-29.5 106-1.3 67.8 23.9 220.9 207.7 484.7 3.4 5 4.9 7 5.4 8l-6.1 3.6z" fill="url(#d)"/>
    <linearGradient id="e" x1="0%" y1="50%" y2="50%">
      <stop offset="100%" stop-color="#e8759d"/>
      <stop offset="100%" stop-color="#e8759d"/>
    </linearGradient>
    <path d="M239.4 996c-.7-1.3-3.5-5.3-7.4-11C67.8 748 36.3 604.8 38.7 526.4c1.3-41.7 11.4-76.6 29.9-104 33.3-49.4 85.8-64.8 124-69 47.3-4.7 95 2.8 138.6 21.8l2.2 1c43.6 19.7 116.4 52.5 189.4 64.3 87.8 14.2 149.1-7 182.6-62.9 78.8-131.9-22.2-263.8-23.3-265l5.6-4.4c1 1.3 105.1 137 23.8 273-35 58.8-99 81-189.8 66.4-74-12-147.4-45.1-191-65l-2.3-1c-71.2-32.2-197-39.5-254 44.6-17.7 26.4-27.4 60.1-28.6 100.3-2.4 77.4 29 219 192 454.6l7.7 11.4-6 3.6z" fill="url(#e)"/>
    <linearGradient id="f" x1="0%" y1="50%" y2="50%">
      <stop offset="100%" stop-color="#e8759d"/>
      <stop offset="100%" stop-color="#e8759d"/>
    </linearGradient>
    <path d="M239 995.2c-1.2-2-4.6-7.2-9.6-14.3C106.8 802.7 47 658.4 51.7 551.9c1.7-39.1 11.4-72.2 29-98.2C132.4 377 245.3 371 325.3 404l7.4 3.1c79.6 33.2 266 110.9 335.2-9.6 71.2-124.3-24.2-248-25.1-249.4l5.5-4.4c1 1.3 99.2 128.7 25.6 257.2-29.4 51.4-78.8 68.6-132.2 68.6-77.4 0-163.7-36-211.8-55.9l-7.3-3a254.8 254.8 0 0 0-125-16.6c-34.1 4.5-81.1 19.2-111 63.6-16.8 24.9-26.2 56.7-27.9 94.6C54.1 657 113.5 800 235.3 976.9a316 316 0 0 1 9.9 14.7l-6.2 3.6z" fill="url(#f)"/>
    <linearGradient id="g" x1="0%" y1="50%" y2="50%">
      <stop offset="100%" stop-color="#e8759d"/>
      <stop offset="100%" stop-color="#e8759d"/>
    </linearGradient>
    <path d="M238.5 994.3c-1.6-2.8-5.8-9-11.6-17.5-42.3-61.7-171-249.3-162.4-399.1 2.2-36.9 11.7-68 28.2-92.5 23.3-34.6 60.7-56.8 108-64A243.5 243.5 0 0 1 331 437.6c77.6 29.3 239 90.4 299.1-20 63.6-116.8-26-232.4-26.9-233.5l5.3-4.7c1 1 94 120 27.8 241.6-63.1 115.8-228.4 53.3-307.8 23.3l-11.8-4.5a236.3 236.3 0 0 0-115.1-11.6c-31.6 4.9-75.1 19.4-103.2 61-15.9 23.5-24.9 53.4-27 89C63 725.5 190.8 911.7 232.8 973c6.1 8.9 10.1 14.8 12 17.9l-6.2 3.4z" fill="url(#g)"/>
    <linearGradient id="h" x1="0%" y1="50%" y2="50%">
      <stop offset="100%" stop-color="#e8759d"/>
      <stop offset="100%" stop-color="#e8759d"/>
    </linearGradient>
    <path d="M238.2 993.4c-2.2-3.8-7-10.8-13.7-20.5-43-63-157.4-230-147-369.5 2.6-35 11.5-63.2 27.3-86.6 21.8-32.4 56.4-53.8 99.9-61.7 36.3-6.3 73.5-3.8 108.6 7.2l15.8 5.2c74.1 24.8 212 70.9 263.5-29.6 56-109.4-27.9-216.7-28.6-217.7l2.7-5.8c1.4 0 3.2 0 15.1 19.4C602 266.8 644 353.1 599 441c-25.6 49.8-71.6 65.2-120.6 65.2-55.2 0-114-19.6-151.5-32.1l-15.6-5.2c-93.6-30.1-169.6 5.7-200.6 51.7-15 22.3-23.5 49.5-26 83.1C74.4 741 187.7 906.5 230.3 969c6.8 9.8 11.7 17 14 21l-6.1 3.5z" fill="url(#h)"/>
    <linearGradient id="i" x1="0%" y1="50%" y2="50%">
      <stop offset="100%" stop-color="#e8759d"/>
      <stop offset="100%" stop-color="#e8759d"/>
    </linearGradient>
    <path d="M237.7 992.6c-2.8-4.9-8.4-13-15.6-23.5-43-63-143.8-210.5-131.8-340 3-32.5 11.7-58.9 26.4-80.8 20.4-30.3 52.1-50.6 92-59.2 32.5-6.7 66.2-5.9 98.5 2.3l19 5.3C391 515 511.6 549 554.9 458c48.5-102-29.6-201-30.4-202l5.5-4.4c.8 1 81.7 103.5 31.3 209.4-46 96.4-170.3 61.2-237 42.4-7-2-13.4-3.8-18.9-5.2a214 214 0 0 0-95.3-2.4c-38 8.2-68.2 27.7-87.5 56.3-14 21-22.4 46.2-25.3 77.5-11.8 127 88 273 130.6 335.4 7.5 10.9 13 18.8 15.9 23.9l-6.1 3.6z" fill="url(#i)"/>
    <linearGradient id="j" x1="0%" y1="50%" y2="50%">
      <stop offset="100%" stop-color="#e8759d"/>
      <stop offset="100%" stop-color="#e8759d"/>
    </linearGradient>
    <path d="M237.2 991.7c-3.4-6-9.6-15-17.3-26.4-42.3-62-130.3-190.8-116.5-310.6 3.4-30 11.8-54.5 25.6-74.9 40.3-59.8 118-69.3 172.4-59.4 6.3 1.2 13.7 2.8 21.5 4.5 59.6 13.1 159.4 35 194.8-46.7 41-94.5-31.4-185.2-32.2-186.1l2.8-5.8c1.7 0 2.5 0 11.3 13.4 18.6 28.5 58.5 103 24.6 181.3-37.7 87.1-141 64.4-202.7 50.8-8.1-1.8-15.2-3.3-21.3-4.4-52.2-9.6-126.8-.6-165.2 56.3a159 159 0 0 0-24.3 71.8C97.3 772.7 184.3 900 226 961.3c7.8 11.6 14 20.6 17.6 26.7l-6.5 3.7z" fill="url(#j)"/>
    <linearGradient id="k" x1="0%" y1="50%" y2="50%">
      <stop offset="100%" stop-color="#e8759d"/>
      <stop offset="100%" stop-color="#e8759d"/>
    </linearGradient>
    <path d="M236.8 990.8a509.2 509.2 0 0 0-19-29c-41-59.8-117-171.1-101.6-281.5a160.7 160.7 0 0 1 24.6-69c44.3-65.9 129.2-64 154.2-61.8 6.6.5 14.2 1.6 23 2.9 53.4 7.5 133.9 18.7 161.8-54 33.4-87.2-33.3-169.6-34-170.4l2.8-5.9c1.9 0 2.3 0 9.3 10.2 54 78.5 38 144 28.5 168.6-30 78-117.2 65.8-169.3 58.4-8.8-1.2-16.3-2.3-22.8-2.8-24-2-105.4-4-147.6 58.7a153.5 153.5 0 0 0-23.5 66c-15 107.7 60 217.5 100.3 276.4 8.4 12.4 15.1 22.2 19.4 29.5l-6 3.7z" fill="url(#k)"/>
    <linearGradient id="l" x1="0%" y1="50%" y2="50%">
      <stop offset="100%" stop-color="#e8759d"/>
      <stop offset="100%" stop-color="#e8759d"/>
    </linearGradient>
    <path d="M236.4 989.9c-5-8.6-12.3-19.3-20.8-31.8C176.8 901.7 112 807.1 129 706c4.3-25.1 12-45.7 23.8-63.2 26.9-40 72.6-61.6 135.7-64.2 6.8-.3 15 0 23.8.3 46 1.7 109 4 129.7-60.3C467.8 439 409 367 406.4 364l5.4-4.7c2.7 3.2 64 78.2 37 161.5-22.5 69.3-91.3 66.8-136.8 65.2-8.6-.3-16.6-.6-23.3-.3-60.7 2.5-104.5 23-130.1 61a150 150 0 0 0-22.6 60.5c-16.7 98.2 47.1 191.3 85.3 247a537.7 537.7 0 0 1 21 32.2l-5.9 3.6z" fill="url(#l)"/>
    <linearGradient id="m" x1="0%" y1="50%" y2="50%">
      <stop offset="100%" stop-color="#e8759d"/>
      <stop offset="100%" stop-color="#e8759d"/>
    </linearGradient>
    <path d="M236 989c-5.9-10-13.6-21.3-22.6-34.3-38-55.3-90.2-131.1-71.3-223a158 158 0 0 1 22.8-57.4c32.6-48.4 86.8-60 116-66.2l1.2-.3c6.7-1.4 14.7-2.3 23.1-3.2 38-4.2 85.1-9.4 99.2-65.6 18.3-72.6-36.8-138.4-37.4-139l5.4-4.7c2.4 2.8 58.1 69.2 38.9 145.4-15.3 61-67.4 66.7-105.3 70.9-8.3.9-16 1.8-22.4 3.1l-1.3.3c-30.2 6.5-80.6 17.2-111.6 63.3a149.8 149.8 0 0 0-21.8 54.7c-18.3 89 32.9 163.3 70.2 217.6 9.1 13.2 17 24.6 22.9 35l-6 3.5z" fill="url(#m)"/>
    <linearGradient id="n" x1="0%" y1="50%" y2="50%">
      <stop offset="100%" stop-color="#e8759d"/>
      <stop offset="100%" stop-color="#e8759d"/>
    </linearGradient>
    <path d="M235.5 988.1c-6.8-11.6-15.2-24-24.2-36.9-34.3-49.5-77-111.1-56.4-194a160.3 160.3 0 0 1 22-51.2c25.4-37.8 62.4-53.3 87-63.6l11.6-5c6.8-3 13.7-5.5 20.7-7.8 29.4-9.9 62.7-21 70.7-70 10.6-65.3-37.2-121.2-39.2-123.6l5.3-4.6c2.2 2.4 52 60.8 40.8 129.3-8.7 53.1-45.7 65.6-75.4 75.7-6.8 2.1-13.4 4.6-20 7.4l-11.8 5.2c-23.7 10-59.6 25-83.9 61-9.8 15-16.9 31.7-21 49.1-19.9 79.8 20 137.5 55.3 188.3 9.1 13 17.7 25.4 24.6 37.4l-6.1 3.3z" fill="url(#n)"/>
    <linearGradient id="o" x1="0%" y1="50%" y2="50%">
      <stop offset="100%" stop-color="#e8759d"/>
      <stop offset="100%" stop-color="#e8759d"/>
    </linearGradient>
    <path d="M235.1 987.3c-7.9-13.6-17-26.7-26-39.4-31.4-44.8-63.8-91.1-41.2-165 4.7-16.1 11.8-31.4 21-45.4 19.4-28.9 44.5-45.8 63-58.3 5.8-3.7 11.5-7.9 17-12.3 4.8-4.1 10-8 15.1-11.6 21.2-15.7 43-32 45.3-75.4 3-58.4-40.4-107.4-40.9-108l5.2-4.7c.4.5 46 51.2 42.8 113-2.3 46.9-26.7 64.9-48.2 80.7-5.1 3.8-10 7.5-14.7 11.4-5.6 4.6-11.5 9-17.7 12.9-17.8 12-42.3 28.5-60.9 56.2a163.4 163.4 0 0 0-20.1 43.6c-21.7 70.6 8.4 113.5 40.2 158.8 9 12.8 18.3 26.1 26.3 40l-6.2 3.5z" fill="url(#o)"/>
    <linearGradient id="p" x1="0%" y1="50%" y2="50%">
      <stop offset="100%" stop-color="#e8759d"/>
      <stop offset="100%" stop-color="#e7759d"/>
    </linearGradient>
    <path d="M234.6 986.4c-9.1-15.9-18.6-29.1-27.7-42-28.4-39.7-50.8-71.1-26-136.1a194 194 0 0 1 20.1-39.4c13.2-19.7 28-35 40-47.4a168 168 0 0 0 21.3-24.7l4-6.3c16.5-26.3 29.5-47 25.4-90-4.9-51.1-41.2-90.9-42.7-92.6l5.2-4.8c1.6 1.7 39.5 43.2 44.6 96.7 4.3 45.4-10 68.1-26.5 94.5l-4 6.3c-4.8 7.8-13 16.2-22.2 25.8-11.7 12.2-26.3 27.3-39.2 46.5a185.3 185.3 0 0 0-19.4 38c-23.4 61.4-3 90 25.2 129.5 8.8 12.4 18.8 26.4 28.1 42.5l-6.2 3.5z" fill="url(#p)"/>
    <linearGradient id="q" x1="0%" y1="50%" y2="50%">
      <stop offset="100%" stop-color="#e8759d"/>
      <stop offset="100%" stop-color="#e7759e"/>
    </linearGradient>
    <path d="M234.2 985.6c-9-15.3-19-30.1-29.6-44.3C179.4 907 166.7 889.8 194 834c5.5-11.6 12-22.7 19-33.3l9-13.4c15.8-23 29.3-43 34-60.2 10.1-36.6 9.6-67.2-1.7-105.7a212 212 0 0 0-44.7-77.4l5-4.9c.4.3 32.7 33.4 46.5 80.3a183.7 183.7 0 0 1 1.8 109.6c-5.2 18.3-18.3 37.7-35 62.3l-9 13.2c-7 10.4-13.2 21.3-18.6 32.5-25.4 52.1-14.3 67.2 10 100.2a472 472 0 0 1 30 45l-6.1 3.5z" fill="url(#q)"/>
    <linearGradient id="r" x1="0%" y1="50%" y2="50%">
      <stop offset="100%" stop-color="#e8759d"/>
      <stop offset="100%" stop-color="#e7759e"/>
    </linearGradient>
    <path d="M233.7 984.6a393 393 0 0 0-31.6-46.6c-25.7-33.4-24-36 23-106 78.4-117.3-53.5-250.8-54.8-252.2l5-5c1.4 1.4 137.4 139.1 55.6 261-45.8 68.4-45.8 68.4-23.3 97.9 11.9 15 22.6 30.8 32.2 47.3l-6 3.6z" fill="url(#r)"/>
  </g>
</svg>
