<?xml version="1.0" standalone="no"?>
<svg xmlns="http://www.w3.org/2000/svg" style="isolation:isolate" viewBox="0 0 1000 250">
  <defs>
    <clipPath id="a">
      <rect width="1000" height="250"/>
    </clipPath>
  </defs>
  <g clip-path="url(#a)">
    <path d="M235.3 83.8V50.2q0-13.5 10.5-21.9 9.7-7.7 24.1-7.8 16.8 0 26.8 8.6l-7.3 11.7a24.4 24.4 0 0 0-9-4.8c-3.2-1-6.4-1.5-9.7-1.6-2.6 0-5.3.4-7.8 1-2.3.7-4.4 1.9-6.3 3.4q-6.2 5-6.2 14.4v27.5q0 9.6 5.9 14.5 5.1 4.3 13.2 4.3c5.2 0 10.2-1.6 14.2-4.7V76.5h-14V63.3h29V101a32.2 32.2 0 0 1-13.9 9.6 45.6 45.6 0 0 1-28 .9c-4-1.2-7.6-3.1-10.8-5.7q-10.7-8.4-10.7-22zM311.4 93.1q0-9.7 8.3-15c4.7-3 10-4.6 15.6-4.5h18.1v-4q0-5.8-3.3-8.3Q346.8 59 340 59q-10.7 0-18 5.9l-6.5-10.5q10.7-8 25-8 14.2 0 20.6 6 6.3 5.8 6.3 18v42.2h-12.6l-1.2-5.7-.4-.3q-11.5 6.5-21 6.5-9.6 0-15.2-5.3T311.4 93zm15-.5c-.1 2.2.9 4.4 2.6 5.7 1.8 1.4 3.9 2.1 6 2.1 2 0 4-.2 5.8-.6q2.3-.6 4.6-1.5a43 43 0 0 0 8-3.8v-10h-15.6q-11.4 0-11.4 8.1zM379.4 112.5V47h14v6.7q6.8-4.9 11-6.2a26 26 0 0 1 7.6-1.3q11.8 0 16.6 9.5 12.2-9.5 21.7-9.5 9.4 0 14.5 5.9 5 5.8 5 16.8v43.5h-14V71q0-11.1-9.3-11.1-5.9 0-15.1 7l.2 5.4v40.2h-14V70.7q0-6-2.5-8.4a8.8 8.8 0 0 0-6.2-2.4c-2.4 0-4.8.5-7 1.4-3 1.3-5.8 2.9-8.5 4.8v46.4h-14zM484.5 28.3a8 8 0 0 1 2.2-5.8 7.3 7.3 0 0 1 10.7 0c2.9 3.3 2.9 8.2 0 11.5a7.3 7.3 0 0 1-10.7 0 8 8 0 0 1-2.2-5.7zm1 84.2V47h13.2v65.4h-13.1zM515.4 112.5V47h14v6.5q12-7.3 21.9-7.3 9.8 0 14.8 6.2t5 17.1v42.9h-14V71.7q0-6.7-2.8-9.2c-2-1.8-4.6-2.7-7.3-2.6q-7.1 0-17.6 6.6v46h-14zM582.7 89.4V70q0-11.4 5.9-17.6 6-6.2 15.2-6.2t20.3 7l1.3-6.2h12.7v69.2q0 11-9.3 17.7-8.2 5.8-19.7 5.8-15 0-24.7-9.7l8.7-9.6q6.2 6.1 16 6.1 10.1 0 13.7-7c1-2 1.3-4 1.3-6.2v-7q-10.3 6.3-20.2 6.3-10 0-15.6-6.2t-5.6-17.1zm14-1.8q0 6.6 2.7 9.4a9.3 9.3 0 0 0 6.8 2.5h.4q7.8 0 17.5-6.2V66.7c-2.9-2-6-3.6-9.1-4.9a24.2 24.2 0 0 0-8.8-2c-2.5 0-5 1-6.8 2.7q-2.8 2.7-2.8 9.3v15.8zM236.7 221.9v-91H252v77.3h47V222h-62.2zM308.7 137.7a8 8 0 0 1 2.2-5.8 7.4 7.4 0 0 1 10.7 0c3 3.3 3 8.2 0 11.5a7.3 7.3 0 0 1-10.7 0 8 8 0 0 1-2.2-5.7zm1 84.2v-65.5H323V222h-13.2zM339.7 199.1v-19.4q0-11.1 8.3-17.8 7.6-6.2 18.3-6.2 15.3 0 23.4 8.4l-8.3 10.4q-4.5-4-8-5c-2-.6-4-.9-6-1-1.6 0-3.2.3-4.8.8-1.6.4-3 1.2-4.3 2.3q-4.5 3.6-4.5 10.5v14q0 10.1 8.4 12.7c1.6.5 3.3.8 5 .8a23 23 0 0 0 6.7-1.3c2.7-.8 5.1-2.3 7.2-4.3l8.6 9.7q-5.3 5.4-11.3 7a42.5 42.5 0 0 1-11.7 1.8 35 35 0 0 1-10.7-1.6c-3.1-1-6-2.5-8.5-4.6q-7.8-6.6-7.8-17.2zM398.3 198.6v-17.2q0-11.6 7.8-18.8 7.7-6.8 19.5-6.8 12.2 0 19.6 6.7 7.6 6.9 7.6 18.4v12.8h-40.5v3.3q0 9.6 9 12.1a22.6 22.6 0 0 0 21.2-5.3l8.1 9.8a28 28 0 0 1-11.6 7.1 43.6 43.6 0 0 1-23.2.3c-3.3-.9-6.4-2.4-9-4.4q-8.5-6.4-8.5-18zm14.2-15h26.2v-2q0-6.7-3.9-9.8a15 15 0 0 0-18.4.1q-4 3.2-4 9.6l.1 2.2zM464 221.9v-65.5h14v6.6q12.1-7.3 22-7.3 10 0 15 6.2t5 17.2v42.8h-14V181q0-6.7-3-9.2c-2-1.8-4.6-2.7-7.2-2.6q-7.2 0-17.7 6.5v46H464zM529 213.4l7.7-10.2a31.7 31.7 0 0 0 20.7 7.2c3 0 5.8-.7 8.3-2q3.7-2 3.7-5.7t-2.5-5.4a19.7 19.7 0 0 0-7.2-2.5L550 193c-3.1-.5-6.1-1.5-9-2.9q-9-4.5-9-14.4 0-9 7.5-14.7a26 26 0 0 1 16-5.3c5-.1 9.9.4 14.7 1.5 4.2 1 8.2 3 11.6 5.7l-6.7 10.3A33.3 33.3 0 0 0 557 168q-5 0-7.8 2.3a6.9 6.9 0 0 0-2.9 5.5c0 1.9 1 3.7 2.6 4.5 2.2 1.1 4.5 1.9 6.9 2.3l9 1.8c3.2.6 6.2 1.6 9.1 3q9.7 4.4 9.7 15c.2 6-2.7 11.6-7.6 15q-7.5 5.3-18.8 5.3c-4.7 0-9.5-.5-14-1.7q-6.9-1.7-14.1-7.5zM596.9 221.9v-65.5H610V222h-13.2zM627 221.9v-65.5h14v6.6q12-7.3 22-7.3 9.8 0 14.9 6.2 5 6.2 5 17.2v42.8h-14V181q0-6.7-3-9.2c-2-1.8-4.5-2.7-7.2-2.6q-7.2 0-17.7 6.5v46h-14zM694.5 198.8v-19.3q0-11.4 6-17.6 6-6.2 15.2-6.2 9.4 0 20.4 7l1.4-6.2h12.7v69.2q0 11-9.3 17.7-8.3 5.8-19.8 5.8-15.2 0-24.9-9.7l8.8-9.7q6.3 6.2 16.1 6.2 10.2 0 13.8-7c.9-2 1.3-4.1 1.2-6.3V216q-10.3 6.2-20.3 6.2t-15.6-6.2q-5.7-6.2-5.7-17.1zm14-1.8q0 6.6 2.9 9.3a9.4 9.4 0 0 0 6.8 2.6h.4q7.8 0 17.5-6.2v-26.6c-2.8-2-5.9-3.6-9.1-5a24.4 24.4 0 0 0-8.8-1.8c-2.6-.1-5 .8-6.8 2.6q-2.8 2.6-2.8 9.2v16zM758.4 220a9.5 9.5 0 0 1 0-12.8c1.7-1.9 4-2.9 6.6-2.8 2.4 0 4.9 1 6.5 2.7a9.4 9.4 0 0 1 0 12.7 8.3 8.3 0 0 1-6.5 2.8c-2.5.2-5-.8-6.6-2.7zM782.8 199.1v-19.4q0-11.1 8.3-17.8 7.5-6.2 18.2-6.2 15.1 0 23.2 8.4l-8.2 10.4q-4.5-4-8-5c-2-.6-3.9-.9-6-1-1.5 0-3.2.3-4.7.8a12 12 0 0 0-4.3 2.3q-4.5 3.6-4.5 10.5v14q0 10.1 8.3 12.7c1.7.5 3.4.8 5 .8 2.3 0 4.5-.5 6.7-1.3 2.7-.8 5.1-2.3 7.1-4.3l8.6 9.7q-5.3 5.4-11.2 7a42.2 42.2 0 0 1-11.6 1.8c-3.7 0-7.3-.5-10.7-1.6-3-1-6-2.5-8.4-4.6q-7.8-6.6-7.8-17.2zM841 198.8v-19q0-11.2 8.5-18 7.8-6.1 19.4-6.1 12.2 0 19.8 6.2 8 6.5 8 18v18.9q0 11.3-8.5 17.7-7.9 6-19.4 6-11.8 0-19.5-6-8.3-6.5-8.3-17.7zm14-2.6q0 7.4 4 10.4a16 16 0 0 0 9.8 3q9.1 0 12.7-7.2c.9-2 1.3-4 1.2-6.2v-13.8q0-7-4.4-10.5c-2.7-2-6-3.1-9.5-3q-9 0-12.6 7.2c-.9 2-1.3 4.1-1.2 6.3v13.8zM908.5 221.9v-65.5h14v6.8q6.8-4.9 11-6.2a26 26 0 0 1 7.7-1.3q11.7 0 16.5 9.5 12.2-9.5 21.7-9.5t14.5 5.9q5.1 5.8 5.1 16.8v43.5h-14v-41.5q0-11.1-9.4-11.1-5.8 0-15.1 7 .3 3 .3 5.4v40.1h-14v-41.7q0-6-2.6-8.4a8.8 8.8 0 0 0-6.2-2.4c-2.4 0-4.7.5-7 1.4-3 1.3-5.8 2.9-8.5 4.8v46.4h-14z"/>
    <linearGradient id="c" x1="0%" y1="50%" y2="50%">
      <stop offset="100%" stop-color="#e8759d"/>
      <stop offset="100%" stop-color="#e7759e"/>
    </linearGradient>
    <path d="M60.3 250c-11-15.5-21-31.5-30.1-48.1C16.4 176.7 0 140.9 0 112.4 0 92.9 7.2 78.2 20.8 70c19.4-11.6 48.1-7.8 66.6 2 8.3 4.5 33.9 18 59 23.4 27.7 6 47.4.6 58.4-16.1 25.4-38.6-4.2-77.8-4.5-78.2l1.4-1.1a84.5 84.5 0 0 1 12.2 25c4 13.8 6 34.5-7.7 55.3-11.4 17.3-31.7 23-60.2 16.9-25.3-5.5-51-19.1-59.5-23.6-18-9.6-46-13.3-64.8-2-13 7.8-20 22-20 40.8 0 28 16.4 63.7 30 88.6 9.1 16.6 19.1 32.6 30 48l-1.4 1z" fill="url(#c)"/>
    <path d="M60.1 249.7l-.6-1C46.2 230 2.8 164.8 3.2 118.9a51.7 51.7 0 0 1 8-29 45.1 45.1 0 0 1 35-18.4c13.7-1 27.4 1.8 39.7 7.9 15 7.7 35 17 55 21 26 5.2 44.3-.1 54.4-16a60.2 60.2 0 0 0 6.5-50.9 77.9 77.9 0 0 0-11.4-23.3l1.4-1.1c1.2 1.6 29.1 38.6 5 76.3-10.6 16.5-29.5 22.1-56.2 16.7a226.6 226.6 0 0 1-55.5-21.2 76 76 0 0 0-38.7-7.7 43.5 43.5 0 0 0-33.8 17.7 50 50 0 0 0-7.6 28C4.6 164.1 47.7 229 61 247.7l.7 1-1.6 1z" fill="url(#c)"/>
    <path d="M60 249.5c0-.2-.6-1-1.2-1.9C12.5 181.2 6 142.4 6.5 125.3a50 50 0 0 1 7.7-27.5c8.8-13 22.8-17 33-17.9 12.8-1 25.6 1.3 37.2 6.7a216 216 0 0 0 51.3 18.6c24 4.5 41-.8 50.2-15.8 21.7-34.9-5-70-5.3-70.3l.7-1.4c.5 0 .5 0 2 2.3.8 1.1 2 3 3.3 5.3 7.3 13 17 38.9.9 65-9.8 15.7-27.3 21.3-52.1 16.7-20.7-3.9-41.7-14-51.8-18.8a71.7 71.7 0 0 0-36.2-6.5c-9.9.9-23.3 4.6-31.8 17-4.7 7-7.2 16-7.4 26.6-.3 17 6 55.3 52 121.3l1.4 2-1.6.9z" fill="url(#c)"/>
    <path d="M60 249.3a68 68 0 0 0-2-2.8C17 187.2 9 151.3 9.8 131.7a48.5 48.5 0 0 1 7.5-26 41.8 41.8 0 0 1 31-17.3C60 87.2 72 89.1 82.9 94l.5.2c11 5 29.2 13.2 47.4 16.1 22 3.6 37.4-1.7 45.7-15.7 19.8-33-5.5-66-5.8-66.4l1.4-1c.3.3 26.3 34.2 6 68.3-8.8 14.7-24.8 20.3-47.5 16.6-18.6-3-37-11.3-47.9-16.3l-.5-.2c-17.8-8-49.3-10-63.6 11.1-4.4 6.6-6.8 15-7.1 25.1-.6 19.4 7.2 54.8 48 113.8l2 2.9-1.6.9z" fill="url(#c)"/>
    <path d="M59.8 249c-.3-.5-1.1-1.8-2.4-3.5C26.7 200.9 11.8 164.8 13 138a47 47 0 0 1 7.3-24.6c13-19.1 41.2-20.7 61.2-12.4l1.9.8c19.9 8.3 66.5 27.8 83.8-2.4 17.8-31.1-6-62-6.2-62.4l1.3-1.1c.3.3 24.9 32.2 6.5 64.3-7.4 13-19.8 17.2-33.1 17.2-19.4 0-41-9-53-14l-1.9-.7c-9.9-4-20.6-5.4-31.2-4.2a38.6 38.6 0 0 0-27.8 16 45.3 45.3 0 0 0-7 23.6c-1.2 26.2 13.7 62 44.2 106.3l2.5 3.7-1.6.8z" fill="url(#c)"/>
    <path d="M59.7 248.8l-3-4.4C46.3 229 14 182.1 16.3 144.6c.5-9.3 2.9-17 7-23.2a38.4 38.4 0 0 1 27-16 61 61 0 0 1 32.7 4.1c19.4 7.4 59.8 22.6 74.8-5 16-29.2-6.5-58.1-6.7-58.4l1.3-1.2c.3.3 23.5 30 7 60.5-15.8 29-57.2 13.3-77 5.8l-3-1.1a59.1 59.1 0 0 0-28.8-3 37.2 37.2 0 0 0-25.9 15.4c-4 5.8-6.2 13.3-6.7 22.2-2.1 36.9 29.8 83.5 40.3 98.8 1.6 2.2 2.6 3.7 3 4.5l-1.5.8z" fill="url(#c)"/>
    <path d="M59.6 248.6l-3.4-5.1c-10.8-15.8-39.4-57.6-36.8-92.5.6-8.7 2.9-15.8 6.8-21.7a37.1 37.1 0 0 1 25-15.4c9.1-1.6 18.4-1 27.2 1.8l4 1.3c18.5 6.2 53 17.7 66-7.4 14-27.4-7-54.2-7.3-54.5l.7-1.4c.4 0 .8 0 3.8 4.8 5 8.3 15.6 29.9 4.3 51.9-6.4 12.4-18 16.3-30.2 16.3-13.8 0-28.5-5-38-8l-3.8-1.4c-23.4-7.5-42.5 1.5-50.2 13a41.9 41.9 0 0 0-6.5 20.8c-2.6 34.3 25.8 75.8 36.4 91.4 1.7 2.4 3 4.2 3.5 5.2l-1.5.9z" fill="url(#c)"/>
    <path d="M59.5 248.4c-.7-1.2-2.1-3.3-4-5.9-10.7-15.7-35.9-52.7-32.9-85 .8-8.2 3-14.8 6.6-20.3a36 36 0 0 1 23-14.8 55.2 55.2 0 0 1 29.4 1.9c16.2 4.6 46.4 13.1 57.3-9.7 12.1-25.5-7.4-50.2-7.6-50.5l1.3-1.1c.2.2 20.5 25.9 7.9 52.4C129 139.5 97.9 130.7 81 126l-4.7-1.3c-7.8-2-16-2.2-23.8-.6-9.5 2-17 7-22 14a40.8 40.8 0 0 0-6.2 19.5c-3 31.7 22 68.3 32.6 83.9 2 2.7 3.3 4.7 4 6l-1.5.9z" fill="url(#c)"/>
    <path d="M59.4 248.2c-.9-1.5-2.4-3.8-4.4-6.6C44.5 226 22.4 193.8 26 163.8c.8-7.5 3-13.6 6.4-18.7 10-15 29.5-17.3 43.1-14.9l5.4 1.2c15 3.2 39.9 8.7 48.8-11.7 10.2-23.7-8-46.4-8.1-46.6l.7-1.5c.4 0 .6 0 2.8 3.4 4.7 7.1 14.7 25.8 6.2 45.4-9.5 21.8-35.3 16-50.8 12.7l-5.3-1.1c-13-2.4-31.7-.2-41.3 14a39.8 39.8 0 0 0-6.1 18c-3.4 29.4 18.4 61.3 28.9 76.6 2 2.9 3.5 5.1 4.4 6.7l-1.6.9z" fill="url(#c)"/>
    <path d="M59.3 248c-1-1.9-2.7-4.3-4.8-7.3-10.2-15-29.3-42.8-25.4-70.4 1-7 3-12.6 6.1-17.3 11.1-16.5 32.4-16 38.6-15.5 1.7.1 3.6.4 5.8.7 13.3 2 33.5 4.7 40.5-13.5 8.3-21.8-8.4-42.4-8.5-42.6l.7-1.5c.4 0 .5 0 2.3 2.6 13.5 19.6 9.5 36 7.1 42.1-7.5 19.6-29.3 16.5-42.4 14.7l-5.6-.7c-6-.6-26.4-1-37 14.7-3 4.5-5 9.9-5.9 16.5-3.7 27 15 54.4 25.1 69.1l4.9 7.4-1.5 1z" fill="url(#c)"/>
    <path d="M59.2 247.7l-5.3-8c-9.6-14-25.9-37.7-21.6-63 1-6.3 3-11.5 6-15.8 6.7-10 18.1-15.5 33.9-16.1h6c11.5.5 27.2 1 32.4-15 6.5-20-8.3-38-9-38.7l1.5-1.2c.6.8 16 19.6 9.2 40.4-5.6 17.3-22.8 16.7-34.2 16.3h-5.8c-15.3.6-26.2 5.7-32.6 15.2C36.9 166 35 171 34 177c-4.1 24.6 11.8 48 21.4 61.9 2.1 3.1 4 5.8 5.3 8l-1.5 1z" fill="url(#c)"/>
    <path d="M59 247.5c-1.4-2.5-3.4-5.3-5.6-8.6-9.5-13.8-22.6-32.8-17.8-55.8 1.1-5.7 3-10.3 5.7-14.3 8.1-12.2 21.7-15 29-16.6h.3c1.7-.5 3.7-.7 5.8-.9 9.5-1 21.3-2.4 24.8-16.4 4.6-18.2-9.2-34.7-9.4-34.8l1.4-1.2c.6.7 14.5 17.3 9.7 36.4-3.8 15.3-16.8 16.7-26.3 17.7l-5.6.8-.4.1c-7.5 1.6-20.1 4.3-27.9 15.8a37.5 37.5 0 0 0-5.4 13.7c-4.6 22.3 8.2 40.9 17.5 54.5 2.3 3.3 4.3 6.1 5.8 8.7l-1.6 1z" fill="url(#c)"/>
    <path d="M59 247.3c-1.8-3-3.9-6-6.1-9.3-8.6-12.3-19.3-27.8-14.1-48.5 1-4.6 2.9-9 5.5-12.8a45.2 45.2 0 0 1 21.7-16l3-1.2 5.1-2c7.4-2.4 15.7-5.2 17.7-17.5 2.7-16.3-9.3-30.3-9.8-30.9l1.3-1.1c.6.6 13 15.2 10.2 32.3-2.1 13.3-11.4 16.4-18.8 19a52 52 0 0 0-8 3.1c-6 2.5-15 6.3-21 15.3-2.4 3.7-4.2 7.9-5.2 12.3-5 20 5 34.4 13.8 47a137 137 0 0 1 6.2 9.4l-1.6.9z" fill="url(#c)"/>
    <path d="M58.8 247c-2-3.3-4.2-6.6-6.5-9.8-7.8-11.2-16-22.8-10.3-41.3 1.2-4 3-7.8 5.3-11.3C52 177.3 58.4 173 63 170c1.5-1 3-2 4.3-3.1l3.8-3c5.3-3.8 10.8-7.9 11.3-18.8a42.7 42.7 0 0 0-10.2-27l1.3-1.2c0 .1 11.5 12.8 10.7 28.3-.6 11.7-6.7 16.2-12 20.2a68 68 0 0 0-3.7 2.9 50 50 0 0 1-4.5 3.2c-4.4 3-10.6 7.1-15.2 14-2.2 3.4-4 7-5 11-5.5 17.6 2 28.3 10 39.7 2.3 3.2 4.6 6.5 6.6 10l-1.6.9z" fill="url(#c)"/>
    <path d="M58.7 246.8c-2.3-4-4.6-7.2-7-10.5-7-9.9-12.6-17.8-6.4-34 1.3-3.5 3-6.8 5-9.9 3.3-5 7-8.8 10-11.9a42 42 0 0 0 5.4-6.1l1-1.6c4-6.6 7.3-11.8 6.3-22.5-1.2-12.8-10.3-22.8-10.7-23.2l1.3-1.2c.4.4 9.9 10.8 11.2 24.2 1 11.4-2.5 17-6.7 23.6l-1 1.6c-1.2 2-3.2 4-5.5 6.5-3 3-6.6 6.8-9.8 11.6-2 3-3.6 6.2-4.9 9.5-5.8 15.4-.7 22.6 6.3 32.4 2.2 3.1 4.7 6.6 7 10.7l-1.5.8z" fill="url(#c)"/>
    <path d="M58.6 246.6a115 115 0 0 0-7.4-11c-6.3-8.6-9.5-13-2.7-27 1.4-2.8 3-5.6 4.8-8.3l2.3-3.3c3.9-5.8 7.3-10.8 8.5-15a44.5 44.5 0 0 0-.5-26.5A53 53 0 0 0 52.5 136l1.2-1.2c.1 0 8.2 8.4 11.6 20 3 10 3.1 18 .5 27.5-1.3 4.6-4.6 9.4-8.8 15.6l-2.2 3.3a68.3 68.3 0 0 0-4.7 8.1c-6.3 13-3.6 16.8 2.5 25.1a118 118 0 0 1 7.5 11.3l-1.5.8z" fill="url(#c)"/>
    <path d="M58.5 246.4c-2.4-4-5-8-8-11.7-6.3-8.3-6-9 5.8-26.5C76 178.9 43 145.4 42.6 145.1l1.3-1.2c.3.3 34.4 34.8 13.9 65.3-11.5 17-11.5 17-5.8 24.5 3 3.7 5.6 7.7 8 11.8l-1.5 1z" fill="url(#c)"/>
  </g>
</svg>
