<?xml version="1.0" encoding="utf-8"?>
<!-- Generator: Adobe Illustrator 16.0.0, SVG Export Plug-In . SVG Version: 6.00 Build 0)  -->
<!DOCTYPE svg PUBLIC "-//W3C//DTD SVG 1.1//EN" "http://www.w3.org/Graphics/SVG/1.1/DTD/svg11.dtd">
<svg version="1.1" id="Layer_1" xmlns="http://www.w3.org/2000/svg" xmlns:xlink="http://www.w3.org/1999/xlink" x="0px" y="0px"
	 width="1000px" height="1000px" viewBox="0 0 1000 1000" style="enable-background:new 0 0 1000 1000;" xml:space="preserve">
<style type="text/css">
<![CDATA[
	.st0{fill-rule:evenodd;clip-rule:evenodd;fill:hsl(212, 34%, 29%)}
	.st1{fill-rule:evenodd;clip-rule:evenodd;fill:#FFFFFF;}
]]>
</style>
<g>
	<path class="st0" d="M410.4,491.4c2.5-6.5,4.2-13,7.3-18.7c3.8-6.7,7.6-14.8,13.7-18.6c18.5-11.7,37.1-27.6,57.4-30.7
		c19.4-3,42.8,4.3,60.9,13.8c14.9,7.8,29.8,23.8,35.1,39.4c5.7,16.9,2.1,37.8-0.8,56.4c-3.9,24.6-24.8,35.9-45.4,41.8
		c-15.8,4.6-35,5.1-50.6,0.5c-17.9-5.2-36.8-15-49.4-28.4c-12.5-13.2-17.8-33.2-26.2-50.3C411.4,494.5,410.7,492.2,410.4,491.4z"/>
	<path class="st1" d="M573.4,500.4c-1.6-5-3.3-9.9-4.9-14.9c0.8-0.3,1.6-0.6,2.4-0.9c2,4.9,4.1,9.9,6.1,14.8
		C575.9,499.8,574.7,500.1,573.4,500.4z"/>
</g>
</svg>
