<?xml version="1.0" encoding="utf-8"?>
<!-- Generator: Adobe Illustrator 16.0.0, SVG Export Plug-In . SVG Version: 6.00 Build 0)  -->
<!DOCTYPE svg PUBLIC "-//W3C//DTD SVG 1.1//EN" "http://www.w3.org/Graphics/SVG/1.1/DTD/svg11.dtd">
<svg version="1.1" id="Layer_1" xmlns="http://www.w3.org/2000/svg" xmlns:xlink="http://www.w3.org/1999/xlink" x="0px" y="0px"
	 width="1000px" height="1000px" viewBox="0 0 1000 1000" style="enable-background:new 0 0 1000 1000;" xml:space="preserve">
<style type="text/css">
<![CDATA[
	.st0{fill-rule:evenodd;clip-rule:evenodd;}
	.st1{fill-rule:evenodd;clip-rule:evenodd;fill:#FFFFFF;}
]]>
</style>
<g>
	<path class="st0" d="M706.4,923.2c2.9,1.9,4.5,3,10.1,6.8c-58.2,17.6-112.9,34.2-193.2,58.5c-37.3,2.6-102,7-166.6,11.5
		c-0.5-2.2-1.1-4.3-1.6-6.5c-13.8-5.1-27.5-10.2-39.9-14.9c2.8-6.5,4.2-10,5.7-13.5c-4.1-1.2-8.2-2.4-12.5-3.7
		c1.3,6.8,2.3,11.9,3.9,20.2c-55.8-19-108.4-36.9-161.1-54.9c2.6-2.8,5.2-5.7,7.8-8.5c-9.2-5.9-18.3-11.9-27.8-17.4
		c-1.2-0.7-4.2,1.8-7.1,3.1c0.5-2.7,1.1-5.6,0.7-3.3c-19.9-23.4-37.6-44.3-54.7-64.5c-0.7,0.2,1-0.3,4.3-1.2c-3.8-1-6.3-1.6-8-2.1
		c1-3.4,3.8-7.6,2.7-10c-16.6-35.8-33.8-71.4-53.3-112.2C10.5,619.1,5.3,524.9,0,430.7c3.1-0.2,6.2-0.3,9.3-0.5
		c0.4,1.3,0.8,2.5-0.8-2.8C49.3,305.3,86.9,176.2,197.3,83.5c-4.7-1.3-7.6-2.1-10.7-3c0.4-1.3,0.5-2.9,1.2-3.2
		c3.1-1.4,6.3-2.7,9.5-3.5c8.9-2.3,18.6-3,26.5-7.1c2.3-1.2-0.7-12.1-1-18.5c-0.1-2.3,0.1-4.9,1.3-6.7c0.6-0.9,4.7-1,5.3-0.2
		c3.3,5,6.1,10.4,7,12c76.7-18.3,154.7-37,222.6-53.3c26.4,3.5,43.1,5.9,59.9,7.9c44.1,5.1,88.3,9.2,132.3,15.3
		c24.9,3.5,53.3,3.9,73.3,16.4c49.4,30.7,98,64.2,140.7,103.3c30.3,27.8,53,65,74.5,100.7c22.4,37.2,46.5,76.1,56.3,117.4
		c9.1,38.6,0.4,81.4-0.7,122.3c-0.3,9.2-1.6,18.4-1.8,21.1c0.4,5,0.2,3.2-0.2-2.5c-44,154.8-113.6,290.8-232.8,394.2
		c0,1.5,0-1,0-11.2c-3.1,10.4-4.1,13.7-3.6,12.1C738.1,906.6,722.6,914.7,706.4,923.2z"/>
	<path class="st1" d="M197,868.9c-15.5-13-31.4-24.4-44.8-38.3c-10.7-11.1-18.2-25.2-28.6-40c-7.2-16.9-15.4-35.5-23.1-54.4
		c-64.3-159-64.4-314.3,21.4-475.3c12.7-26.4,28.4-59.7,44.8-92.5c4.6-9.2,11.3-17.3,14.5-22.2c28.2-15.9,50.9-28.7,73.5-41.5
		c-0.3-1.1-0.6-2.2-0.9-3.4c4.5-3.1,8.6-6.9,13.4-9.2c20.1-9.6,39.5-23.1,60.8-27.3c50-10.1,100.7-17.7,151.5-22.4
		c37.5-3.4,75.5-1.8,113.2,0c25.7,1.3,51.2,6.6,76.7,10.7c3.2,0.5,7.8,4.5,8.1,7.3c0.5,4.1-2.4,8.5-5.4,17.5
		c10-1.8,21.6-7.8,29.6-4.7c24.1,9.5,50.4,18.4,69.2,34.9c33.4,29.3,62.6,63.6,92.4,96.8c12.7,14.2,22.6,30.8,34.1,46.1
		c1.4,1.9,4.9,2.3,1.7,0.9c71.1,96.8,39.4,188.4-0.2,276.2c-26.2,73.2-25.5,152.1-92.8,208.6c5-0.5,2.2-0.2,0.4,0
		c-0.3,4.1-0.5,7.7-0.9,13.6c-2.4-4.5-3.5-6.7-2.6-5c-24.8,29.3-50.2,59.4-79.7,94.3c-1.7-7.3-1.2-5.2,0.3,1.3
		c-44.4,23.4-89.9,47.4-135.4,71.4c-1.4-1.7-2.8-3.4-4.3-5.1c-6.1,0.4-12.3,0.8-18.9,1.2c1.4,1.5,2.8,3.2,3,3.3
		c-31.2,5.1-63,10.4-95.4,15.7c-1.2,0.9-3.5,2.4-5.8,4c-0.9-2.3-1.9-4.6-2.2-5.5c-7.1,1.9-15,4-22.9,6.2c0.8,1.7,1.6,3.3,2.4,5
		c-5.5,1.2-11,2.3-16.5,3.5c0.3-2.1,0.7-4.3,0.4-2.8c-18.9,0-38.5,0-58.4,0c-0.8-2.7-1.7-5.7-1.9-6.2c-5.2,1.3-10.5,3.6-15.9,3.9
		C288.3,938.7,246.3,896.7,197,868.9z"/>
	<path class="st1" d="M288.7,64.5c9.6-5.2,19.1-10.5,28.7-15.7c1.4,3.1,2.9,6.1,4.3,9.2c-10.4,3.9-20.7,7.8-31.1,11.7
		C289.9,68,289.3,66.2,288.7,64.5z"/>
	<path class="st1" d="M141.3,179.1c4.2-7.1,8.2-14.3,12.8-21.1c0.5-0.8,5.1-0.3,5.4,0.5c0.7,1.9,0.8,4.8-0.2,6.5
		c-3.7,6.1-7.9,11.9-11.9,17.8C145.3,181.5,143.3,180.3,141.3,179.1z"/>
	<path class="st1" d="M195.3,120.2c6.2-7.4,12.5-14.9,18.7-22.3c1.9,1.5,3.8,3.1,5.7,4.6c-6.3,7.3-12.6,14.5-18.9,21.8
		C199,123,197.2,121.6,195.3,120.2z"/>
	<path class="st1" d="M433.8,34.9c-11.3,0-22.6,0-33.9,0c0-1.1,0-2.1,0-3.2c11.4-1.2,22.8-2.4,34.2-3.6
		C433.9,30.4,433.8,32.6,433.8,34.9z"/>
</g>
</svg>
