<?xml version="1.0" encoding="utf-8"?>
<!-- Generator: Adobe Illustrator 16.0.0, SVG Export Plug-In . SVG Version: 6.00 Build 0)  -->
<!DOCTYPE svg PUBLIC "-//W3C//DTD SVG 1.1//EN" "http://www.w3.org/Graphics/SVG/1.1/DTD/svg11.dtd">
<svg version="1.1" id="Layer_1" xmlns="http://www.w3.org/2000/svg" xmlns:xlink="http://www.w3.org/1999/xlink" x="0px" y="0px"
	 width="1000px" height="1000px" viewBox="0 0 1000 1000" style="enable-background:new 0 0 1000 1000;" xml:space="preserve">
<style type="text/css">
<![CDATA[
	.st0{fill-rule:evenodd;clip-rule:evenodd;}
	.st1{fill-rule:evenodd;clip-rule:evenodd;fill:#FFFFFF;}
]]>
</style>
<g>
	<path class="st0" d="M66.7,352.7c7.3-18,14.7-36,20.3-49.8c16.8-25.3,31.7-47.8,46.9-70.6c0.8-0.3,3.6-1.4,7-2.7
		c-3.2-4.5-5.4-7.5-2.3-3.2c7.5-17.3,12.9-29.8,18.2-42.3c-0.9-2.4,0.3,0.8,2.9,8c3-8.5,4.7-13,6-16.7
		c17.1-16.6,34.1-33.3,43.5-42.4c22.3-13,36.5-21.3,51.1-29.8c-0.6-1.9-1.4-4.5-2.1-6.7c2.2-1.1,4.5-2.2,7.6-3.8
		c0-0.2,0.3,1.8,0.7,4.1c16.3-9.6,31.9-18.8,46.5-27.4c-1.4-4.8-0.4-1.4,0.9,3.4c1.1-3.1,1.7-4.7,2.3-6.5c0.8,1.6,1.4,3.1,0,0
		c29.9-11.9,59.2-23.6,91.8-36.6c-3-1.7-0.2,1.3,1.9,0.9c17.3-3.7,34.4-8,50.9-14.2c86.2-35.2,169.4-5,255.3,11
		c-0.8,2.2,0,0.1-0.4,1.1c62.8,39.5,125.6,79.1,191,120.3c-6.6,6.5-7.9,7.8-6.4,6.3c19.6,23.6,39.4,47.3,59.9,71.9
		c50.9,119.3,46.8,244.4,21.7,365.4c-54.1,165.4-161.3,267.9-292.1,344.9c-58,38.7-121.6,52.5-191.4,56.4c2.8,3.6,1,1.3,1.9,2.5
		c-9.6,0-16.5,0-20.6,0c-8.8,1.6-15.4,4.6-21.4,3.7c-55.4-8.6-114.1,13-168.5-21.4c-20.3,1.7-42.7,3.6-65.7,5.5
		c0.4-1.6,1.1-4-0.3,0.9c-27-9.5-53.8-18.9-76.7-26.9c0-13.4,0-17.9,0-17.2c4.4-8.9,7.2-14.3,11.2-22.5c-8.4,1.6-13.5,2.6-20.1,3.9
		c3.1,2.5,5.1,4.1,10.5,8.3c-5.2-1.7-6.4-2.3-7.7-2.5c-6.2-1-12.3-1.8-13.4-2c-17.2-11.8-29.2-20-41.2-28.2c0.1-0.2,0.3-0.5,0.4-0.7
		c1.2,0.8,2.5,1.6,13.7,8.6c-13.4-16-19.4-23.2-23.8-28.4c-1.4,0.7,0.8-0.3,0.8-0.4c-1.5-5.5-3.3-10.9-5-16.3
		c-1.3,1.4-2.6,2.8-4.4,4.7c-1.6-5.4-3.3-11.4-3.9-13.5c-8.7-18.2-15.3-32-23.4-48.8c-0.2,0-4.4-0.8,0.3,0.1
		c-7.2-13-11.6-20.8-15.9-28.6c-0.6-1.1-1.2-2.3-1.9-3.3c-0.1-0.2-0.6,0-0.9-0.1c0.7-1.1,1.5-2.1,2-3.2c2.2-5,4.3-10,6.6-15.4
		c-0.9-0.1-3.2-0.4-1.4-0.2c-5.3-26.6-10.2-51.4-15.1-76.2c-1.5,0.2-3.1,0.4-4.6,0.6c0-12.9,0-25.8,0-42.6c-3,4.4-4.2,6.1-10.2,15
		c6.2-16.5,9.3-25,12.8-34.2c-2-0.2-4.9-0.5-10.4-1.1c4.6-1.1,6.8-1.6,6-1.4c0-10.6,0-20,0-34.7c3.2,3,1.5,1.4,2.5,2.4
		c0.6-9.1,1-15.3,1.4-21.8c0.6,0.2,3.3,1.3,7.3,2.9c-1.4-10.5-2.6-20.3-3.9-30.5c1.1,0,3.8,0-3.7,0c14.3-47.1,27.4-90.2,40.5-133.3
		c1.5,0.6,3.1,1.2,4.6,1.8c4.4-14.5,8.8-29,13.2-43.5C69.1,354.5,67.9,353.6,66.7,352.7z"/>
	<path class="st1" d="M170.9,307.4c0.9-4.2,2-10.1,3.4-17c0,0,1.8,0.1,1.6,0.1c1-4.6,1.7-8,2.5-11.7c3.8,2.6,6.7,4.6,9.6,6.6
		c0.4-0.7,0.8-1.3,1.2-2c-2-1.5-4-3-9.1-6.8c6.1,0.9,8.6,1.3,11,1.7c-3-3.2-5.9-6.5-8.9-9.7c21.5-22.8,43-45.7,64.5-68.5
		c0.4,0.7,0.8,1.5,1.2,2.2c10.8-8.5,21.5-17,32.7-25.7c0.1,0.2,1.4,2.4,5.5,9.1c0-9.2,0-13.4,0-19c10.7-8.4,23.3-18.2,36.2-28.3
		c0.1,0.2,1.2,2.1-0.2-0.3c28.8-13.3,56.7-26.2,77.4-35.8c50.7-14,93.5-25.9,140.5-38.9c0.9,0.1,5.6,0.8,8.8,1.2
		c6.5-1.8,12.3-3.9,18.3-4.8c1.2-0.2,3,4,2.9,3.8c24.7,3.1,48.2,6,72.2,9c-0.2-1.2-0.6-3.3-1-5.5c1.6,0.3,3.3,0.7,4.9,1
		c-1.1,6.3-2.1,12.5-3.8,21.9c5.2-6.5,10.1-12.6,12.5-15.7c14.2,0,25.5,0,35.6,0c10.7,2,19.7,3.8,31.4,6c-5.5,2.9-8.1,4.2-10.8,5.6
		c0.5,1.4,1.1,2.7,1.6,4.1c6-4,11.9-8,17.9-12c0.4,0.8,0.7,1.6,1.1,2.4c-1.3,1-2.6,2-4.1,3.1c2.8,1.7,5.4,3.3,11.5,7
		c-6,1.8-9.9,2.9-13.9,4.1c1.7,1.9,3.5,3.8,5.2,5.7c5.3-5.1,10.6-10.3,19.4-18.7c18.9,12.8,41.5,28.2,64.1,43.6c-1,1.7-2,3.4-3,5.1
		c-2.1-2.2-4.2-4.5-6.4-6.7c-1.7,1.3-3.4,2.6-5.1,3.9c4.7,7.9,9.4,15.9,14,23.7c3-1.7,1.6-0.9,1.3-0.7c9,7.4,18,14.9,21.1,17.5
		c21.2,11.4,35.7,19.1,46,24.6c15,24.7,28.2,46.5,41.4,68.4c2.1-0.7,4.3-1.4,6.4-2.1c9.9,31.4,19.7,62.8,29.6,94.1
		c-0.5,0.3-1,0.6-1.5,0.9c3.1,17.3,7.6,34.5,8.7,51.9c0.8,13.3-3.5,27-4.1,40.6c-0.5,13.3,0.9,26.8-3.6,40.6
		c-1.5,15.8-2.7,31.7-4.6,47.5c-0.7,5.6-3.4,10.8-4.6,16.4c-0.3,1.4,2.4,3.4,2.7,5.3c0.5,3.7,1.2,7.9,0,11.1
		c-8.4,21.9-17.1,43.6-26.1,65.2c-0.7,1.7-4.4,1.7-7.7,2.8c2.4,1.1,4,1.9,5.7,2.7c-3.9,3.3-7.8,6.7-11.7,10c1.8,1.7,3.7,3.4,5.5,5
		c-24.6,29.7-49.2,59.4-74.9,90.5c-0.8-3.5-1.1-5.1-1.3-5.9c-2.2,0.6-4.5,1.2-1.3,0.4c-9.1,12.2-15.9,21.2-25.4,33.9
		c1.1-7.5,1.4-10.1,2-14.2c-7.3,9.7-13.5,17.9-20.3,26.8c-0.5-1,0.3,0.6,1.6,3c-2.6-0.7-4.5-1.2,0.6,0.2
		c-28.5,18.8-52.7,34.8-79,52.2c-0.2,0.1-3.4,1.3-7,2.6c0.1-1.4,0.2-3.5,0.7-14.3c-5.4,12.5-7.5,17.4-10.3,23.9
		c-3.6-0.5-10-1.3-18-2.3c-12.3,7-27.7,15.8-44.5,25.4c1.7-4.8,3.1-8.5,1.8-5c-29.5,10-64.5,21.8-99.5,33.6c-0.4-1.3-0.9-2.6-1.4-4
		c-26.9,6-53.9,11.9-85.4,18.9c-5.5-0.8-14.7-2-23.6-3.3c0.8,1.8,1.8,4.1,2.7,6.4c-4.7,1.5-9.4,3-15.4,4.9c1.7-3.5,2.6-5.2,3.9-7.7
		c-19.8,0-38.7,0-61.5,0c1.9-4.2,0.6-1.3-1.4,3.1c-1-5.5-1.7-9.2-1.7-9.5c-0.1-0.5,0.2,2.4,0.4,4.8c-9.9,0-18.9,0-28.5,0
		c0.4-1.9,0.8-4.2,1.1-5.4c-9.8,0-19.8,0-30.5,0c0.3-3.8,0.5-6.6,0.6-8c-5-1.2-9.3-2.2-13.6-3.2c-0.1,0.9-0.1,1.8-0.2,2.7
		c-15.7-3-31.4-6.1-46.3-8.9c0-0.1,0.7,1.7,2.1,5.2c-8.2-4.8-15.1-8.9-22.1-13c1.4-2.5,2.9-4.9,5.3-9.2c-3.4,2.9-6,5-8.6,7.3
		c-0.3-1.3-0.8-3.4-1.6-6.8c-0.9,3.5-1.5,5.9-2.6,10.5c-1.7-4.2-2.6-6.4-2.3-5.7c-4.9-0.7-8-1.2-13.6-2c4.1-3.8,6.1-5.7,3.4-3.2
		c-13.1-9.3-27.5-19.4-42.5-30c1.5-1.5,3.3-3.3,1.6-1.6c-9.3-11.5-18.7-23-30.5-37.5c1.9,0.9-1.8,0.5-2.8-1.5
		c-7.5-15.2-14.5-30.7-17.7-37.6c-12.7-37.7-22.4-66.2-32-94.8c-21.4-65-18.2-128.1,5.5-193.3c22.4-61.4,39.5-124.6,84-165
		c0.8,0-5.4,0-21.8,0C160.5,311,165.5,309.3,170.9,307.4z"/>
	<path class="st1" d="M167.2,901.3c-3.6,3.5-7,6.9-10.4,10.3c-2.3-3.4-6.7-7-6.5-10.3c0.3-5.4,3.6-10.6,5.6-15.9
		C159.3,890.3,162.8,895.1,167.2,901.3z"/>
	<path class="st1" d="M982.2,278.4c-8.8,9.4-12.3,13.1-15.8,16.8c-1.9-5.6-3.8-11.2-5.7-16.8C965.6,278.4,970.5,278.4,982.2,278.4z"
		/>
	<path class="st1" d="M78.8,828.8c5.8,0.8,11.6,1.5,17.4,2.3c-0.3,2.4-0.6,6.8-0.9,6.8c-5.7,0.1-11.5-0.4-17.2-0.7
		C78.3,834.4,78.6,831.6,78.8,828.8z"/>
	<path class="st1" d="M150.9,885.1c-3.5,2.2-6.9,4.8-10.6,6.3c-0.5,0.2-2.7-4.6-4.1-7.1c4.1-1.6,8.2-3.1,12.3-4.7
		C149.3,881.5,150.1,883.3,150.9,885.1z"/>
	<path class="st0" d="M236.8,876.7c11-10.3,17.5-16.3,24.4-22.8c1.2,6.6,2.2,12.2,3.2,17.8C256.7,873.1,249,874.5,236.8,876.7z"/>
	<path class="st0" d="M795.5,130.9c-6.1-3.5-12.4-6.8-18.2-10.8c-0.4-0.3,2-5.9,4.9-14.2c1.4,8.7,1.8,11.5,1.7,11
		c6.1,3.2,10.2,5.4,14.3,7.5C797.4,126.7,796.5,128.8,795.5,130.9z"/>
</g>
</svg>
