<?xml version="1.0" encoding="utf-8"?>
<!-- Generator: Adobe Illustrator 16.0.0, SVG Export Plug-In . SVG Version: 6.00 Build 0)  -->
<!DOCTYPE svg PUBLIC "-//W3C//DTD SVG 1.1//EN" "http://www.w3.org/Graphics/SVG/1.1/DTD/svg11.dtd">
<svg version="1.1" id="Layer_1" xmlns="http://www.w3.org/2000/svg" xmlns:xlink="http://www.w3.org/1999/xlink" x="0px" y="0px"
	 width="1000px" height="1000px" viewBox="0 0 1000 1000" style="enable-background:new 0 0 1000 1000;" xml:space="preserve">
<style type="text/css">
<![CDATA[
	.st0{fill-rule:evenodd;clip-rule:evenodd;fill:hsl(212, 34%, 29%);}
	.st1{fill-rule:evenodd;clip-rule:evenodd;fill:#FFFFFF;}
]]>
</style>
<g>
	<path class="st0" d="M498,593.5c-18.4-3.7-33.8-5.8-48.4-10c-41-12-59.8-57.5-45.2-97.4c5.2-14.1,10-29.4,19-40.9
		c17.5-22.5,40.3-38.1,71.1-36c22.9,1.6,47-0.5,68.2,6.4c33.7,11,45.5,42,42.5,73.9c-2.2,23.7-11,49.5-24.9,68.5
		c-9.7,13.3-33,16.8-50.4,24.1C518.1,586.9,506,590.6,498,593.5z"/>
	<path class="st1" d="M574.2,495.3c3.8,7.1,5,9.2,7.3,13.4c2-6.9,3.5-12.1,5.5-19c1.6,3,2.7,5,4,7.4c1-1.9,1.8-3.5,2.7-5.2
		c1.2,0.5,2.4,1,3.7,1.5c-7.2,16.8-14.5,33.6-22.7,52.6c-5.4-9.5-8.4-15-11.5-20.4c2.5,0.5,5.1,1,7.6,1.5
		C571.6,518.4,572.6,509.6,574.2,495.3z"/>
	<path class="st1" d="M554.9,546.6c-2,4-3.8,7.8-5.7,11.5c-2.1-1.7-4.1-3.5-6.2-5.2c1.4-1.6,2.7-3.1,4.3-4.9
		c-0.1-0.1-1.8-1.1-2.4-1.4c1.2-2,2.5-3.9,3.7-5.9c-0.4-0.2-0.8-0.5-1.2-0.7c-0.7,0.9-1.4,1.9-2.1,2.8c-0.5-0.5-1-0.9-1.6-1.4
		c2-2.3,4-4.6,3.9-4.5c6.2,1.3,9.6,2.1,14.2,3.1C559.1,542.6,556.6,545,554.9,546.6z"/>
	<path class="st1" d="M507,528.7c6.9-1.9,9.9-3.6,11-2.8c3.7,2.9,6.7,6.7,10,10.1c-1.3,1.1-3.1,3.3-3.8,3
		C520.6,537.2,517.1,534.8,507,528.7z"/>
	<path class="st1" d="M508,538.1c3.2,5.5,5.4,9.1,7.4,12.6c-4.5,1.8-7.8,3-12.9,5C504.3,550,505.7,545.3,508,538.1z"/>
	<path class="st1" d="M521.6,561.6c0.5,3.6,0.9,6.6,1.3,9.5c-2,0.2-4,0.3-1.6,0.1c-3.9,3.3-5.2,4.4-6.5,5.5c-0.2-3-1.2-6.3-0.3-8.9
		C515.2,565.7,518.3,564.4,521.6,561.6z"/>
	<path class="st1" d="M530.2,551.4c-5.5,2.8-8.9,4.5-13.2,6.7c0.6-2.3,0.4-5.8,2-7.1c2.5-2,6.1-3,9.4-3.5
		C529,547.5,530.3,551.5,530.2,551.4z"/>
	<path class="st1" d="M591.4,489.2c-2.5-3.4-5-6.8-7.6-10.2c2-0.7,5.4-2.4,5.9-1.8c2.3,2.7,3.8,6.1,5.6,9.3
		C594,487.4,592.7,488.3,591.4,489.2z"/>
</g>
</svg>
