<?xml version="1.0" encoding="utf-8"?>
<!-- Generator: Adobe Illustrator 16.0.0, SVG Export Plug-In . SVG Version: 6.00 Build 0)  -->
<!DOCTYPE svg PUBLIC "-//W3C//DTD SVG 1.1//EN" "http://www.w3.org/Graphics/SVG/1.1/DTD/svg11.dtd">
<svg version="1.1" id="Layer_1" xmlns="http://www.w3.org/2000/svg" xmlns:xlink="http://www.w3.org/1999/xlink" x="0px" y="0px"
	 width="1000px" height="1000px" viewBox="0 0 1000 1000" style="enable-background:new 0 0 1000 1000;" xml:space="preserve">
<style type="text/css">
<![CDATA[
	.st0{fill:#185D62;}
]]>
</style>
<path class="st0" d="M345.2,602.9c-18.6-18.6-43.5-32.8-53.2-56.8c-11.5-27.5-9.8-63-14.2-94.1c25.7,15.1,56.8,26.6,76.3,47.9
	c24,25.7,151.7,82.5,165.9,63c31.1-39.9,56.8-85.2,87.8-125.1C646,389,685.9,342,728.5,297.6c8-8,33.7-10.6,42.6-3.5
	c8.9,7.1,11.5,31.1,5.3,42.6C732.1,413,686.8,488.4,636.3,562C548.4,690.7,449,703.1,345.2,602.9z"/>
</svg>
