<?xml version="1.0" encoding="utf-8"?>
<!-- Generator: Adobe Illustrator 16.0.0, SVG Export Plug-In . SVG Version: 6.00 Build 0)  -->
<!DOCTYPE svg PUBLIC "-//W3C//DTD SVG 1.1//EN" "http://www.w3.org/Graphics/SVG/1.1/DTD/svg11.dtd">
<svg version="1.1" id="Layer_1" xmlns="http://www.w3.org/2000/svg" xmlns:xlink="http://www.w3.org/1999/xlink" x="0px" y="0px"
	 width="1000px" height="1000px" viewBox="0 0 1000 1000" style="enable-background:new 0 0 1000 1000;" xml:space="preserve">
<style type="text/css">
<![CDATA[
	.st0{fill-rule:evenodd;clip-rule:evenodd;}
]]>
</style>
<g>
	<path class="st0" d="M533.3,449.9c-12.7,7.5-25.4,14.9-37.8,22.7c-0.6,0.4,1.2,4.6,2.1,8.1c-5.7-2.2-10.3-4-14.8-5.8
		c0.6,1.5,1.2,3.1,1.3,3.4c-17.2,10.2-32.8,19.5-32.6,45.3c0,6.7,5.4,52.7-25.1,26.9c-27.5-57.9,3.6-92.1,40.9-122.2
		c11.5-6.8,23.2-13.3,34.5-20.5c24.3-15.5,50.6-29.1,71.2-48.6c5.7-5.4-2.8-30.8-10.3-43.8c-13.6-23.4-38.5-22.4-60.4-15.8
		c-15.1,4.6-27.9,16.6-42,24.8c-6.1,3.5-12.8,5.8-17.6,12.3c-2.2,1.1-5.7,1.6-6.5,3.3c-14.9,33.4-42.6,29.9-70.6,24.3
		c-3.1-0.6-7.1-6.7-7.2-10.3c-0.4-10.7-2.9-24.1,2.3-31.7c15.2-22.2,33.3-42.5,51.3-62.5c4.5-5,13-6.3,19.5-9.6
		c2.2-1.1,3.8-3.4,11-10.1c35.1-26,79.9-10.5,130.1-2.2c20.7,26.2,45.8,58,70.1,88.9c-0.9,9.4,0.2,19.4-3,27.8
		c-6.4,16.5-15,32.2-23.1,48c-3.9,7.6-8.4,14.9-13.2,22c-1.4,2-4.7,3.5-7.3,3.6c-3,0.2-6.1-1.4-13.1-3.3
		c-13.2,7.7-30.3,17.7-47.4,27.8C534.9,451.6,534.1,450.7,533.3,449.9z"/>
	<path class="st0" d="M467.6,751.3c-14.6-6.2-32.7-9.5-43.7-20.1c-8.8-8.5-12-25.8-12.4-39.4c-0.6-16.9,1.4-35,7.7-50.4
		c3.4-8.4,17.7-12.8,27.5-18.1c8.2-4.4,17-10.1,25.8-10.4c11.4-0.4,26.3,0.2,33.9,6.9c12,10.6,21.7,25.7,27.6,40.7
		c5,12.8,8,30.3,3.1,42c-5.1,12.2-20.2,20.9-32.1,29.3C494.6,739.1,482.5,743.7,467.6,751.3z"/>
</g>
</svg>
