<?xml version="1.0" encoding="utf-8"?>
<!-- Generator: Adobe Illustrator 16.0.0, SVG Export Plug-In . SVG Version: 6.00 Build 0)  -->
<!DOCTYPE svg PUBLIC "-//W3C//DTD SVG 1.1//EN" "http://www.w3.org/Graphics/SVG/1.1/DTD/svg11.dtd">
<svg version="1.1" id="Layer_1" xmlns="http://www.w3.org/2000/svg" xmlns:xlink="http://www.w3.org/1999/xlink" x="0px" y="0px"
	 width="550px" height="1000px" viewBox="0 0 550 1000" style="enable-background:new 0 0 550 1000;" xml:space="preserve">
<style type="text/css">
<![CDATA[
	.st0{fill-rule:evenodd;clip-rule:evenodd;}
	.st1{fill-rule:evenodd;clip-rule:evenodd;fill:#FFFFFF;}
]]>
</style>
<path class="st1" d="M215,955.1c-4,0.7-8.1,1.4-13.4,2.3c-4.1-5.4,3.6-6.4,6.2-7.4c3.8-1.4,8.5-0.4,13.7-0.4c-1.8,2.1-3.9,4.6-6,7.1
	C215.4,956.2,215.2,955.7,215,955.1z"/>
<path class="st0" d="M417.4,958.5c-0.7-0.4-1.9-1.6-2.6-1.4c-6.1,2-12.1,4.6-18.3,6.4c-7.4,2.1-14.9,4.6-22.4,4.8
	c-10,0.3-20.2,4.2-30.3-0.2c-0.5-0.2-2,2.8-3.4,3.2c-4,1.1-8.2,1.9-12.3,2.2c-4,0.3-8-0.3-12-0.4c-15.9-0.6-31.8-1.3-47.7-1.7
	c-1.8,0-3.7,1.4-6.1,2.3c-0.3-0.3-1.8-2.8-3-2.6c-8.3,1.1-16.6,3-24.9,4c-7.5,0.9-15,0.7-22.5,1.4c-5.8,0.6-11.6,2-17.4,2.7
	c-2.9,0.4-6-0.3-8.9,0.2c-14,2.3-27.6,6.6-41.9,7.3c-7.6,0.4-16.3-6.1-17.6-13.4c-1.4-7.5-3.1-15-4.8-22.5c-2.3-10-1-20.1-1.4-30.1
	c-0.1-2.8-2.2-5.5-2.4-8.3c-0.2-3.6-0.7-8.1,1.1-10.7c3.4-4.8,3.5-8.6,0.6-13.4c0.9,0.8,1.8,1.6,4,3.4c-0.9-7.5-2.2-13.7-2.4-20.1
	c-0.1-5.4,1.7-10.9,1.5-16.3c-0.5-13.7,2.9-27,1.2-41c-1.8-15,1.3-30.5,0.3-45.6c-0.5-7.2,0.8-13.5,2.5-20.1c2-7.7,3-15.8,6.2-22.9
	c4-8.8,8.8-17.6,15-25c4.8-5.7,8.4-13.7,17.3-15.1c0.7-0.1,1-3.2,1.5-5c1.1,0.1,3.5,0.8,3.6,0.4c4-9,14.6-7.9,20.8-13.7
	c11.1-10.5,25.3-19,25.4-36.8c0-8-1.9-16-1.9-24c0-8.3,1.5-16.6,1.9-24.9c0.5-9.5,0.6-19,0.6-28.6c0-7.1,1.6-13.1,7.4-17.9
	c1.6-1.3,1.2-4.8,1.7-6.7c2.9-3.2,5.6-6.9,9-9.5c5.8-4.5,6.9-14.7,14.9-15.2c6.8-0.5,13.2-0.9,18.4-5c7.7-6.2,16.3-6.8,25.6-6.5
	c3.1,0.1,6.3-2.8,9.9-4.7c3.9,2.8,8.9,6.5,14,9.9c9.8,6.6,12,17,13.5,27.4c1.9,12.9,1.6,26.2,4.4,38.8c2.2,10.1-1.9,22.3,9.4,30.1
	c2.3,1.6,1.2,7.4,3.1,10.4c6.5,10.8,14.1,20.9,25.8,26.7c8.7,4.4,17.8,7.9,26.4,12.6c2.6,1.4,4.3,5.1,5.8,8.1
	c1.5,2.9,1.7,6.5,3.3,9.3c3.5,6.1,6.6,11.6,4.9,19.5c-1.1,5,1.4,10.7,2.2,16.2c1.5,10.8,2.8,21.6,4.5,32.3
	c0.8,5.1,3.2,10.1,3.7,15.2c1.4,17.6,2,35.3,3.4,52.8c0.4,5.3,2.7,10.4,4.2,15.5c0.3,1.1,1.3,2.2,1.2,3.2c-1,6-3.9,11.3-0.3,18.1
	c1.9,3.6-3.8,11.5-1.8,14.7c4.5,7.2-0.1,13.2,0.5,19.7c0.3,3.8,0.1,7.6,0.1,11.4c0.7-0.1,1.4-0.1,2.1-0.2c-0.9,1.2-2.8,2.5-2.7,3.6
	c0.8,7.9,2.3,15.7,2.9,23.6c0.8,10.5,2.7,21.4,0.8,31.6c-1.1,6-8.3,11-12.9,16.3C421,956.1,419.2,957.1,417.4,958.5z M289.1,523.1
	c-7.4,0.9-12.9,1-18.1,2.3c-12.8,3.1-15.7,6.3-16.3,19.7c-0.5,12,0.3,24.1-0.1,36.1c-0.4,12.3-1.4,24.6-2.2,36.9
	c-0.2,2.8-0.5,5.6-0.8,8.5c-0.7,7-1.4,14.1-2.1,21.1c-4.1,4.2-10.2,8.7-13.4,14.7c-1.6,3-2.6,6.4-4.9,9.4
	c-7.3,9.7-14.3,19.7-21.6,29.7c-0.4-0.3,0.5,0.4,1.6,1.2c-7.1,2.2-14.3,3.5-20.6,6.7c-4.9,2.5-9.2,6.8-11.6,12.5
	c-0.8,2-3.5,3.1-5.2,4.8c-2.6,2.6-5.1,5.3-7.4,8.2c-1.2,1.5-2,4.8-2.8,4.7c-7.1-0.5-5.5,6-6.9,9.1c-2.7,6.1-3,13.3-5.6,19.5
	c-2.8,6.5-2.7,12.5-1.3,19.3c1.8,8.7,5.9,17,2.9,26.8c-1.8,5.7,0.1,12.5,0.3,18.8c0.1,3.4,1.3,8-0.4,10.1
	c-7.7,9.7-4.9,20.9-5.1,31.5c-0.2,12.3,0.8,24.6,1.7,36.9c0.2,3.2,1.7,6.3,2.9,10.4c-4.1,4.1-4.2,11.1-0.2,17.5
	c3.6,5.8,8,0.8,12.2,3.5c0,0.2,0.2,2.1,0.6,5.2c0.8-2.2,1.2-3.8,1.5-3.8c5.7,0.1,11.4,0.5,17,0.7c8.6,0.4,17,1.9,25.9,1
	c7.4-0.8,14.3-1.9,21.3-4.2c4.6-1.5,9.5-2.4,14.4-3c4.8-0.6,9.7-0.1,14.5-0.7c7.3-1,14.6-2.5,21.7-3.8c0-0.3,0,1-0.1,2.3
	c3.4-0.6,6.3-1.4,9.3-1.7c13-1.4,26.3,0.2,38.5-6.3c6.4-3.4,13.5-5.5,20.3-8.3c6.1-2.6,13-4.2,17.8-8.3c6.4-5.5,16.2-6.1,20.3-14.6
	c9.6,2.7,5.2-5.2,6.4-8.7c0.6-1.7,0.4-3.6,0.5-5.4c0.3,0,0.7,0.1,1,0.1c0.2,1.7,0.5,3.3,0.8,5.3c1.6-2.1,2.9-3.8,4.1-5.5
	c-1.4-1.3-2.6-2.4-5-4.6c2.7,0.8,3.6,1,4.5,1.3c0,0,0.1-0.5,0.3-1c-1.3-1-2.6-2-4.8-3.8c3,0.3,4.6,0.5,7.3,0.8
	c-2.1-2.4-3.4-3.8-3.6-4c1-3.2,2.3-5.5,2.2-7.8c-0.1-16.1-0.7-32.2-0.8-48.3c0-9.4,1.5-18.9,0.7-28.2c-1-11.8-3.7-23.4-5.7-35
	c-1.4-8.4-2.9-16.9-4.3-25.3c-1-5.9-2.3-11.7-3.1-17.6c-0.7-5.4-1.7-10.3-6.8-13.8c-5.6-3.9-11.3-8.1-15.8-13.1
	c-4.6-5.2-11.2-8.3-13.1-16.6c-1.5-6.5-5.8-14-11.2-17.7c-8.6-6-16.4-11.1-21-21.5c-3.7-8.5-7-16.4-7-25.6c0-3.5-0.1-6.9-0.3-10.4
	c-0.4-7.8-6.4-15.3-1.5-23.5c0.6-0.9-0.8-2.9-0.7-4.3c0.3-6.4,0.8-12.8,1.1-19.2c0-0.9-0.4-1.8-0.7-3c-0.9,1.4-1.5,2.4-2.3,3.8
	c-4.9-5.7-6.2-11.4-2.2-17.8c0.5-0.8,0.6-2.7,0-3.4C303.3,519.6,291,520.5,289.1,523.1z M227.1,621.9c0.8-0.1,1.5-0.1,2.3-0.2
	c0-8.9,0-17.8,0-26.7C227.7,603.9,223,612.7,227.1,621.9z M228.3,588.5c1.9-5.7,3.1-11.7-4.1-15C225.6,578.5,227,583.5,228.3,588.5z
	"/>
<path class="st1" d="M289.1,523.1c1.9-2.6,14.2-3.5,17.3,0.5c0.6,0.7,0.5,2.5,0,3.4c-4,6.4-2.8,12,2.2,17.8c0.8-1.4,1.4-2.3,2.3-3.8
	c0.3,1.2,0.8,2.1,0.7,3c-0.3,6.4-0.8,12.8-1.1,19.2c-0.1,1.4,1.3,3.4,0.7,4.3c-4.9,8.3,1.1,15.7,1.5,23.5c0.2,3.5,0.2,6.9,0.3,10.4
	c0,9.2,3.3,17.2,7,25.6c4.6,10.5,12.4,15.6,21,21.5c5.4,3.7,9.7,11.2,11.2,17.7c1.8,8.3,8.5,11.4,13.1,16.6
	c4.5,5.1,10.2,9.2,15.8,13.1c5.1,3.5,6.1,8.3,6.8,13.8c0.8,5.9,2.1,11.7,3.1,17.6c1.5,8.4,2.9,16.8,4.3,25.3c2,11.7,4.7,23.3,5.7,35
	c0.8,9.3-0.7,18.8-0.7,28.2c0.1,16.1,0.6,32.2,0.8,48.3c0,2.3-1.3,4.5-2.2,7.8c0.2,0.2,1.5,1.7,3.6,4c-2.7-0.3-4.2-0.5-7.3-0.8
	c2.3,1.8,3.6,2.8,4.8,3.8c-0.2,0.5-0.3,1-0.3,1c-0.9-0.2-1.8-0.5-4.5-1.3c2.5,2.3,3.7,3.4,5,4.6c-1.3,1.7-2.6,3.5-4.1,5.5
	c-0.3-2-0.5-3.7-0.8-5.3c-0.3,0-0.7-0.1-1-0.1c-0.1,1.8,0.1,3.8-0.5,5.4c-1.2,3.5,3.2,11.3-6.4,8.7c-4.1,8.5-13.9,9.1-20.3,14.6
	c-4.8,4.1-11.7,5.8-17.8,8.3c-6.7,2.8-13.8,4.9-20.3,8.3c-12.3,6.5-25.6,4.9-38.5,6.3c-3,0.3-6,1.1-9.3,1.7c0.1-1.4,0.1-2.6,0.1-2.3
	c-7.2,1.3-14.4,2.8-21.7,3.8c-4.8,0.6-9.7,0.1-14.5,0.7c-4.8,0.6-9.7,1.5-14.4,3c-7,2.3-13.9,3.4-21.3,4.2c-9,0.9-17.3-0.6-25.9-1
	c-5.7-0.2-11.4-0.6-17-0.7c-0.3,0-0.7,1.6-1.5,3.8c-0.3-3.1-0.5-5-0.6-5.2c-4.2-2.7-8.6,2.4-12.2-3.5c-4-6.5-3.9-13.4,0.2-17.5
	c-1.2-4.1-2.7-7.2-2.9-10.4c-0.8-12.3-1.9-24.6-1.7-36.9c0.2-10.6-2.6-21.7,5.1-31.5c1.7-2.1,0.4-6.7,0.4-10.1
	c-0.1-6.3-2-13.1-0.3-18.8c3-9.7-1.1-18.1-2.9-26.8c-1.4-6.8-1.5-12.8,1.3-19.3c2.6-6.2,2.9-13.4,5.6-19.5c1.4-3.1-0.2-9.6,6.9-9.1
	c0.8,0.1,1.6-3.3,2.8-4.7c2.3-2.9,4.8-5.6,7.4-8.2c1.7-1.7,4.4-2.8,5.2-4.8c2.4-5.7,6.7-9.9,11.6-12.5c6.2-3.2,13.5-4.5,20.6-6.7
	c-1.1-0.8-2-1.5-1.6-1.2c7.2-10,14.3-20,21.6-29.7c2.2-3,3.3-6.4,4.9-9.4c3.2-6,9.3-10.4,13.4-14.7c0.7-7,1.4-14,2.1-21.1
	c0.3-2.8,0.6-5.6,0.8-8.5c0.8-12.3,1.8-24.6,2.2-36.9c0.4-12-0.4-24.1,0.1-36.1c0.6-13.4,3.5-16.6,16.3-19.7
	C276.2,524.1,281.7,524,289.1,523.1z"/>
<path class="st1" d="M227.1,621.9c-4.1-9.3,0.6-18,2.3-26.9c0,8.9,0,17.8,0,26.7C228.7,621.8,227.9,621.9,227.1,621.9z"/>
<path class="st1" d="M228.3,588.5c-1.4-5-2.8-10-4.1-15C231.5,576.8,230.2,582.8,228.3,588.5z"/>
</svg>
