<?xml version="1.0" encoding="utf-8"?>
<!-- Generator: Adobe Illustrator 16.0.0, SVG Export Plug-In . SVG Version: 6.00 Build 0)  -->
<!DOCTYPE svg PUBLIC "-//W3C//DTD SVG 1.1//EN" "http://www.w3.org/Graphics/SVG/1.1/DTD/svg11.dtd">
<svg version="1.1" id="Layer_1" xmlns="http://www.w3.org/2000/svg" xmlns:xlink="http://www.w3.org/1999/xlink" x="0px" y="0px"
	 width="550px" height="1000px" viewBox="0 0 550 1000" style="enable-background:new 0 0 550 1000;" xml:space="preserve">
<style type="text/css">
<![CDATA[
	.st0{fill-rule:evenodd;clip-rule:evenodd;}
	.st1{fill-rule:evenodd;clip-rule:evenodd;fill:#FFFFFF;}
]]>
</style>
<path class="st0" d="M512.5,624.3c-1.4-0.9-2.9-1.8-5-3.1c0,5.4-2.1,12.2,0.4,15.9c6.5,9.9,5.2,21.3,8.5,31.7
	c3,9.4,7.2,18.5,10.5,27.8c0.5,1.5-1.5,3.9-1.2,5.6c1.8,8.7,4.2,17.3,6.1,25.9c0.5,2.4-0.2,5.2,0.4,7.6c0.6,2.4,2.1,4.6,3.7,8
	c-2.7,4.9,0.2,10.6,1.2,17.1c2.1,14.3,6.9,29.1,1.7,44c-1.3,3.7-1.3,8.7,0,12.5c2.3,7.3,6,14.3,9.2,21.7c-1.5,3.3-3.1,7.3-4.9,11.1
	c-1.9,4-4.6,7.8-5.8,12c-3.3,11.2-5.8,22.6-9,33.8c-3.8,13.6-9.6,25.3-22.1,34.2c-4.9,3.5-16.4,2-14.8,13.2
	c-5.4-0.9-4.3,5.5-6.6,6.4c-4.1,1.6-9.2,0.4-13.5,1.7c-2.8,0.8-4.7,5.1-7.5,5.7c-7.7,1.7-15.7,2.4-23.5,3.1c-0.8,0.1-1.9-3-3.6-5.7
	c-1.7,3.8-2.7,6.8-3,6.7c-13.1-3.1-24.5,2.9-36.5,6.2c-9.6,2.7-19.5,1.4-29.2-0.9c-11-2.6-21.9-5.5-33-7.5c-2.5-0.4-5.6,3.6-8.5,3.7
	c-19.2,0.6-38.5,0.6-57.7,1.2c-5.8,0.2-11.7,1.3-17.4,2.5c-1.8,0.4-3.3,2.5-4.9,3.8c-4.5-3.5-27.6-4.4-27.8-1.1
	c-0.2,5.7-3.2,3.3-5.4,3.6c-0.4,0.1-1-0.9-1.6-1.4c-1.2-1-2.9-2.9-3.5-2.7c-3.1,1.6-5.7,4.3-8.9,5.6c-3.7,1.5-7.9,2.3-11.9,2.7
	c-3.9,0.4-7.8,0.1-11.6,0.1c0,2.8,0,5.2,0,8c-5.5-1.3-10.6-2.5-14.3-3.3c-1,2.3-1.8,4.2-2.6,6.2c-0.4-1.2-0.8-2.3-1.6-4.8
	c-0.7,3.4-1.1,5.6-1.9,9.3c-3.2-2.5-5.3-5-7.9-6c-3.4-1.3-9.2-3.1-10.7-1.5c-4.5,4.9-7.8-3.5-11-0.1c-3.6,3.8-7.4,2.6-11.8,3
	c-7.5,0.8-14.6,3.6-22.6,2.7c-5-0.6-10.5,2-15.6,3.4c-1.5,0.4-2.7,1.7-3.8,1c-8,0-16.1,0-23.6,0c-3-1.1-5.9-3.3-8.7-3.2
	c-9.4,0.3-15.1-6.3-19.6-12c-6-7.6-10.3-17-13.4-26.3c-2.1-6.4-0.8-13.8-1.4-20.8c-0.8-10.7-0.3-21.4-2.5-32
	c-1-4.9,2.2-10.6,2.4-15.9c0.3-8,0-16-0.7-24c-1-10.9-3.9-21.6-0.6-32.6c0.6-2.1-0.6-4.8-0.9-7.2c-0.6-4.4-3.8-9.6,3.5-11.6
	c0.5-0.1,0.9-1.1,1-1.7c0.5-4.8,1.3-9.6,1.2-14.4c-0.1-9.3-0.7-18.6-1.2-28.5c1.7,0.7,3,1.2,5.9,2.4c-3-4.6-5.2-7.9-7.4-11.3
	c1.2-0.7,2.9-1.2,3.4-2.3c0.9-2,1-4.2,1.7-7.3c-2.7,0.3-4.7,0.5-7.9,0.8c3-1.7,4.9-2.9,6.7-3.9c-0.6-5.6-7.1-10.7,0.2-16.3
	c1.4-1.1-1.2-6.4-0.5-9.5c2-9.2,7-18.2,1.1-27.7c-0.2-0.4,0-1.1,0.3-1.6c6.2-12.5,4.2-26.1,4.9-39.3c0.4-7.3,1.5-14.6,1.7-21.9
	c0.1-4.6-0.8-9.2-1.1-13.9c-0.1-2.5,0.4-4.9,0.7-8.9c-0.5,0.1,1.3-0.3,2.6-0.5c0.7-13,1.4-26.2,2.2-39.7c-0.4,0-2.2,0-1.8,0
	c1.6-5.8,3.9-11.6,4.7-17.6c1.4-10,2.4-19.9,4.4-29.9c1.9-9.4,0.6-19.8,3.1-29.7c0.4-1.6-2.9-4.2-3.9-7.3c1.8,1.2,3.7,2.3,6.6,4.2
	c-0.3-3.3-0.2-6.3-1-9.2c-0.3-1.2-2.5-1.9-3.8-2.9c0.5-0.6,1-1.3,1.4-1.9c1.2,0.5,2.4,0.9,3.6,1.4c0.3-0.6,0.6-1.1,0.7-1.6
	c0.5-4.5-1.5-9.9,4.8-12.2c0.3-0.1,0.4-1.1,0.4-1.6c-1.4-8.9,4.6-17.7,0.5-26.7c-0.6-1.4,0.7-3.6,1.1-5.4
	c2.6-14.4,5.3-28.9,7.6-43.4c0.2-1-2.8-2.4-4.4-3.8c1.6-0.1,3.2-0.2,5-0.4c0.4-3.9,0.7-7.8,1.2-12.2c-1.5,0.5-3,1.1-4.5,1.7
	c-0.4-0.9-0.9-1.7-0.7-1.8c9.6-10.4,6.5-24.4,8.6-37.3c0.5,0.2-0.7-0.3-2-0.8c6.1-6,11.2-38,6.5-42c7.8-5.3,7.4-13.5,6.5-21.1
	c-0.8-6.4-1.6-6.2,4.6-10.5c0.9-0.6,0.7-3,0.9-4.5c-6.1-0.5-3.3-4.6-2-6.6c5.1-8.1,2.3-17.1-1.7-22.6c-4.4-6-0.6-8.6,0.6-12.7
	c2.8-9.9,5.4-19.9,8.4-29.7c2.1-6.9,4.5-13.7,6.9-20.5c3.6-10,11-17.4,17.4-25.6c4-5.1,8.8-7.1,15-7.9c2.2-0.3,3.7-4.4,5.7-6.7
	c2-2.2,2.2-7,7.8-2.5c2.3,1.8,9.8-2.7,14.9-4.4c0.8-0.2,1.5-0.5,1.4-0.5c9.9,6.8,17.7,2.2,25.1-2.9c0.5-7.3-4.6-15.6,3.6-22.2
	c1.1-0.9,1.1-3.6,1.1-5.5c0-6.6-0.3-13.2-0.2-19.9c0-1.3,1.7-2.5,2.3-3.8c3-7.2,5.3-14.9,9.2-21.7c2.7-4.7,7.6-8.3,11.7-12.1
	c3.2-3,6.7-5.5,11-9.1c5.9-1.7,13.7-3.9,19.8-5.6c4,2.2,7.4,5.7,9.6,5.1c5.3-1.4,8.7,1.4,13,2.7c2.8,0.8,6.8,3.3,11.6,0
	c2.9-2,9.7,1.7,14.8,2.6c1.6,0.3,3.3,0,4.3,0c4.5,10.4,9.4,21.3,13.9,32.4c0.6,1.6-1.1,4-1.4,6.1c-0.3,1.8,0.3,3.8-0.3,5.4
	c-3.5,9.2-0.8,18,1.7,26.8c0.2,0.8,1.1,2.1,0.9,2.2c-4.7,3.7-5.5,9-6.2,14.3c-0.4,3.4-1.7,7.4-0.4,10.2c0.8,1.7,5.6,2.3,8.5,2.2
	c4.5-0.2,11.2,4.7,13.2-4.5c-0.2,1.3-0.3,2.6-0.4,3.1c7.6,1.4,15.5,2.8,23.3,4.1c2.9,0.5,6.8,2,8.7,0.7c6.6-4.3,12.6,0.2,18.8-0.1
	c4.5-0.2,4.9,2.7,7.1,5c2.5,2.7,7.5,3.1,11.4,4.5c0.2,0.1,0.6-0.2,0.8-0.1c5.6,1.8,3.5,10.3,11.1,12c2.7,0.6,3.3,9.8,5.2,15
	c3.2,8.6,7.7,16.9,9.6,25.8c1.8,8.3,1,17.2,1.3,25.8c0.3,7.6-1.7,16.2,1.1,22.7c5.6,12.7,1.8,25.8,4.8,38.4c0.2,1,0.3,2,0.7,2.9
	c2.1,4.8,5.4,9.5,6.2,14.5c2.3,14.3,3.3,28.8,5.4,43.1c1,6.5,3.7,12.7,5.5,19.1c1.3,4.5,2.1,9.2,3.5,13.6c0.6,1.8,2.3,3.2,3.6,4.8
	c2.2,2.6,6.5,4.9,0.9,8.4c-0.6,0.3-0.8,1.9-0.5,2.7c2.2,7.2,4.9,14.3,6.9,21.5c3.6,13,5.8,26,4.9,39.8c-0.5,8.3,2.7,17,4.6,25.4
	c0.2,0.9,2.8,1.2,3.7,1.6c2.8,10.6,5.7,22.1,8.7,33.7c0.9,2.5,1.6,4.9,2.6,7.2c1.6,3.5,3.3,6.9,5.1,10.4c1.7,3.4,3.5,6.7,5.3,10
	c0.4,0.6,1.6,1,1.7,1.5c0.8,4.9,0.9,9.9,2.2,14.6c2.9,10.4,7,20.5,9.5,30.9c2.4,10.1,4.2,20.4,4.7,30.7c0.3,7.7,4,11.7,9.7,15.3
	c1.2,0.7,1.7,2.4,2.5,3.7C513.2,623.6,512.9,623.9,512.5,624.3z M499.5,855.9c0.6-0.4,1.2-0.7,1.8-1.1c0.9-8.1,2-16.1,2.5-24.2
	c0.2-3.7-1.1-7.4-1.4-11.2c-0.6-6.6-0.7-13.3-1.6-19.9c-0.7-5.4-2.6-10.7-3.4-16.2c-1-7.3-0.6-14.8-2.2-22
	c-2.2-10.2-6.1-20.1-8.4-30.3c-1.4-6.4-1.3-13.1-1.6-19.6c-0.3-8.7,0.7-17.6-0.6-26.2c-1.8-12.2-5.1-24.3-8-36.4
	c-1.1-4.6-2.7-9-3.8-13.5c-2.1-8.4-4-16.8-6-25.3c-1.2-4.9-2.1-9.9-3.8-14.6c-2.6-7.5-5.4-14.9-8.8-22.1c-4.1-8.7-8.9-17-13.7-26.2
	c-0.5,0.5,1.7-0.9,1.5-1.5c-1.5-4.8-3.5-9.5-5.4-14.1c-3.7-9.1-8.3-18-11-27.4c-2.2-7.8-2.1-16.2-3.1-24.6c-0.5,1.3-0.9,2.3-1,2.4
	c-1.7-4.1-4.5-8.2-4.8-12.4c-0.3-5.8-1.9-10.6-4.8-15.5c-1.9-3.3-1.7-7.8-3.1-11.4c-4.1-10.1-9.1-19.9-6.1-31.4
	c0.2-0.7-1.4-1.8-1.8-2.9c-1.1-2.3-3.5-5.8-2.7-7c6.8-9.9,0.4-20.1,0.9-30c0.4-8.1-1.9-16.4-3.1-24.6c-1.6-10.9-3.2-21.8-4.8-32.7
	c-0.5-3.6-2.4-7.6-1.4-10.9c2.3-8-9.4-14.2-2.5-22.4c0.1-0.1-0.1-0.5-0.3-0.8c-2.8-4.1-6.7-6.4-3.9-13.9c2.6-7-1.7-16.5-2.8-24.9
	c-1.4-10.3-2.5-20.6-4-30.9c-2.2-15.1-4.5-30.3-6.9-45.4c-0.8-5.1-5.6-6.9-10.5-4c-5-9.1-27.2-15.7-38.2-11.2
	c0.4,1.6,0.7,3.2,1.1,4.8c-0.5,0.6-1,1.2-1.5,1.8c-3.8-2.9-7.5-5.8-11.9-9.2c-4.2,2.3-9.2,5-14.3,7.9c-1-1.2-3.1-6-5.1-5.9
	c-8.4,0.4-15.6-1-21.8-7c-0.6-0.6-3.6,1.3-5.8,2.1c-2.7-7.7-3.3-18.2-8.7-22.4c-8.1-6.3-2.5-9.5-2.2-14.2
	c-0.9-9.6-1.7-19.2-2.7-30.5c2.7-2.7,2.7-16.3-0.2-21.4c-6.7-2.3-11.3-3.8-15.8-5.3c-0.2,0.3-0.4,0.7-0.7,1c3.2,2.3,6.4,4.6,9.6,6.9
	c-2.4,1.4-4.2,2.3-5.6,3.1c-1.4-1.2-3.1-2.6-4.8-4c-0.8,1-2,1.9-2.3,3c-2.1,10.9-4,21.8-6,32.7c-0.1,0.6-0.1,1.3-0.3,1.9
	c-3.4,7.1-9.6,14.1-9.7,21.2c-0.2,15-13.5,20.3-19.1,30.9c-0.5,0.9-1.8,1.7-2.8,1.8c-7.5,0.6-15,1-24,1.5c-2.1,3.2-5.5,8.3-9,13.6
	c-0.4-0.8-0.9-2.7-1.5-2.8c-3.3-0.3-12.7,11-13.7,14.3c-2,6.7,3.6,15.7-6.2,20.1c1.1-0.2,2.1-0.4,3.2-0.5c-0.2,1.1-0.1,2.6-0.7,3.3
	c-2,1.9-5,3.2-6.3,5.4c-3,5-5.2,10.5-7.6,15.8c-4.6,9.8-2.9,17,4.5,19.5c-0.8,1.7-1.7,3.4-2.3,4.6c-3.1-1.2-5.8-2.3-8.9-3.5
	c-0.6,3.5-1.1,5.7-1.4,7.9c-0.4,2.5-0.6,5-1.3,7.4c-0.4,1.4-1.3,3.3-2.5,3.8c-5.3,2.3-8.7,10.7-7,14.5c-2.6,5.2-5.4,9.3-6.7,13.7
	c-2.8,10.1-8.5,21.3-6.2,30.3c2.9,12.1-6.5,21.1-3.5,32c-6,3.9-4.4,9.8-4.7,15.6c-0.5,11.6-1.8,23.1-3.3,34.6
	c-2.2,17-5.1,33.9-7.1,51c-0.9,7.5-8.1,13.5-3.8,22.5c1.7,3.5-1.6,9.4-3,16c-4.7,2.4-0.9,8.4-1.6,13.3c-3.1,5.4-5.8,11.1-7,17
	c-0.8,4.1,0.4,8.6,0.9,14.3c-0.3-0.2,1.3,0.8,2.7,1.8c-1.9,2.6-4.5,4.5-4.6,6.6c-0.8,11.1-0.7,22.2-1.5,33.3
	c-0.6,8.5,3.1,17-3.4,25.6c-3.9,5.1-8.5,11.4-6.5,20.2c1.4,6.2-1.8,13.3-2.3,20c-0.3,3.6,1.2,7.3,1,10.9
	c-0.9,12.9-2.2,25.8-3.5,38.6c-0.2,2.1-0.9,5.8-1.7,5.9c-4.8,0.5-2.5,1.9-2,5c2.7,15.4,5.2,30.9,6.2,46.4c0.5,6.8-2,13.6,6.3,17.2
	c0.8,0.4,1.9,2.2,1.6,2.8c-4.1,10.3,0,20.1,1.2,30.2c1.1,9.5,0.8,19.1,1.6,28.6c0.5,5.4,3.9,11.3,2.5,15.9c-2.6,8.1,1.5,12,4.1,16.9
	c0.7,3.4,1.4,6.8,2,10c-0.4,1.1-1.9,3.3-1.4,4.8c1.3,4.2,4.7,7.9,5.1,12.1c1.3,13.9,5.2,26.7,11.9,39c2.3,4.3,2.7,9.7,3.8,14.2
	c2-0.8,4.6-2.1,4.7-1.9c1.6,2.7,2.8,5.6,4.2,8.7c0.2-0.3,1.1-1.4,1.8-2.3c1.6,1.3,3,2.6,4.6,3.8c1,0.8,2.2,1.3,3.8,2.2
	c0.1-0.1,1.7-1.9,2.6-1.6c6.8,2.4,11.3-2.8,16.8-4.7c2.4-0.9,5.2-1.8,7.6-1.5c9,1.1,18.8-3.3,20.5-8.1c11.9,0,23.1,0,34,0
	c-0.2-1.3-0.4-2.6-0.6-3.8c2,0.6,3.8,1.8,4.9,1.3c9.4-4.2,18.5-0.9,27.9-0.3c5.5,0.4,13.4,0.7,17.4-6.3c0.3-0.5,1.7-0.7,2.4-0.5
	c6.7,1.9,17.4,0.1,22.6-3.8c0.6-0.4,1.5-0.4,2.3-0.7c0.6,1.7,1.1,3.2,1.6,4.8c6.1-1.4,11.8-2.7,18.2-4.1c-0.1-0.1,0.8,1.8,1.8,4.4
	c1.1-2.2,1.9-3.7,2.7-5.5c2.4,2.5,1.8,7.7,8,3c4.4-3.4,12.8-1.6,19.4-2.3c2.3-0.2,4.7-1.6,6.8-1.3c2.2,0.4,7.3,1.4,9,0.7
	c5.6-2.3,11-5.3,16.9-6.5c5.1-1,10.6,0.1,15.9,0.1c6.9,0.1,13.7,0,21.8,0c0.5-0.8,2-3,3.7-5.5c1.9,2.1,3.5,3.8,4,4.4
	c6.2-2.2,11.3-4,18.4-6.5c30.6,5.8,51.5-13.4,72.2-32.9c-0.3-0.9-0.6-1.7-0.9-2.6c1.5,0.5,3.1,1,4.6,1.4c2-3.9,3.4-8.4,6.3-11.5
	c2.4-2.7,9.7-1.4,4.3-9.8c1.1-0.1,2.2-0.2,3.4-0.3C498.6,852.3,499.1,854.1,499.5,855.9z M215,955.1c0.2,0.5,0.3,1.1,0.5,1.6
	c2.1-2.5,4.2-5,6-7.1c-5.3,0-9.9-1-13.7,0.4c-2.6,0.9-10.3,2-6.2,7.4C206.9,956.5,211,955.8,215,955.1z M405.8,291.7
	c1.1-0.1,2.2-0.1,3.2-0.2c0-7.6,0-15.3,0-22.9c-1.5,0-3,0.1-4.5,0.1C405,276.4,405.4,284.1,405.8,291.7z"/>
<path class="st1" d="M499.5,855.9c-0.4-1.8-0.8-3.6-1.3-5.5c-1.1,0.1-2.2,0.2-3.4,0.3c5.4,8.4-1.9,7.1-4.3,9.8
	c-2.9,3.1-4.3,7.6-6.3,11.5c-1.5-0.5-3.1-1-4.6-1.4c0.3,0.9,0.6,1.7,0.9,2.6c-20.7,19.5-41.6,38.8-72.2,32.9
	c-7.1,2.5-12.2,4.3-18.4,6.5c-0.5-0.6-2.1-2.3-4-4.4c-1.7,2.5-3.2,4.7-3.7,5.5c-8.1,0-14.9,0-21.8,0c-5.3,0-10.8-1.2-15.9-0.1
	c-5.8,1.2-11.3,4.2-16.9,6.5c-1.8,0.7-6.9-0.3-9-0.7c-2.1-0.3-4.5,1-6.8,1.3c-6.6,0.7-15-1.1-19.4,2.3c-6.2,4.8-5.6-0.5-8-3
	c-0.9,1.7-1.6,3.3-2.7,5.5c-1.1-2.6-1.9-4.5-1.8-4.4c-6.4,1.4-12.1,2.7-18.2,4.1c-0.5-1.5-1-3-1.6-4.8c-0.8,0.2-1.7,0.2-2.3,0.7
	c-5.2,3.9-15.9,5.7-22.6,3.8c-0.7-0.2-2.1,0-2.4,0.5c-4,7-11.8,6.7-17.4,6.3c-9.4-0.6-18.5-3.9-27.9,0.3c-1.1,0.5-2.9-0.7-4.9-1.3
	c0.2,1.2,0.4,2.6,0.6,3.8c-11,0-22.2,0-34,0c-1.7,4.8-11.5,9.2-20.5,8.1c-2.5-0.3-5.2,0.6-7.6,1.5c-5.5,2-9.9,7.1-16.8,4.7
	c-0.9-0.3-2.5,1.5-2.6,1.6c-1.6-0.9-2.8-1.5-3.8-2.2c-1.6-1.2-3.1-2.5-4.6-3.8c-0.7,1-1.5,2-1.8,2.3c-1.4-3-2.6-6-4.2-8.7
	c-0.1-0.2-2.7,1.1-4.7,1.9c-1.2-4.5-1.5-9.9-3.8-14.2c-6.7-12.2-10.7-25-11.9-39c-0.4-4.1-3.8-7.9-5.1-12.1c-0.5-1.5,1-3.7,1.4-4.8
	c-0.6-3.2-1.3-6.6-2-10c-2.5-4.9-6.6-8.8-4.1-16.9c1.5-4.6-2-10.5-2.5-15.9c-0.8-9.5-0.5-19.1-1.6-28.6c-1.1-10.1-5.3-19.9-1.2-30.2
	c0.3-0.6-0.8-2.4-1.6-2.8c-8.3-3.6-5.8-10.4-6.3-17.2c-1-15.6-3.5-31.1-6.2-46.4c-0.5-3-2.8-4.5,2-5c0.8-0.1,1.5-3.8,1.7-5.9
	c1.3-12.9,2.5-25.7,3.5-38.6c0.3-3.6-1.2-7.3-1-10.9c0.5-6.7,3.7-13.9,2.3-20c-2-8.8,2.7-15.1,6.5-20.2c6.5-8.6,2.8-17.1,3.4-25.6
	c0.8-11.1,0.7-22.2,1.5-33.3c0.2-2.1,2.7-4,4.6-6.6c-1.5-0.9-3-1.9-2.7-1.8c-0.4-5.7-1.7-10.2-0.9-14.3c1.2-6,3.9-11.6,7-17
	c0.8-4.9-3.1-10.9,1.6-13.3c1.4-6.6,4.7-12.5,3-16c-4.4-9,2.9-15,3.8-22.5c2-17,4.9-33.9,7.1-51c1.5-11.5,2.8-23.1,3.3-34.6
	c0.3-5.8-1.4-11.7,4.7-15.6c-3.1-10.9,6.4-19.9,3.5-32c-2.2-9.1,3.4-20.3,6.2-30.3c1.2-4.5,4.1-8.5,6.7-13.7
	c-1.7-3.7,1.7-12.1,7-14.5c1.2-0.5,2.1-2.4,2.5-3.8c0.7-2.4,0.9-4.9,1.3-7.4c0.4-2.2,0.8-4.4,1.4-7.9c3.1,1.2,5.7,2.3,8.9,3.5
	c0.6-1.3,1.4-2.9,2.3-4.6c-7.5-2.5-9.1-9.7-4.5-19.5c2.5-5.3,4.7-10.8,7.6-15.8c1.3-2.2,4.3-3.5,6.3-5.4c0.7-0.7,0.5-2.2,0.7-3.3
	c-1.1,0.2-2.1,0.4-3.2,0.6c9.8-4.4,4.2-13.5,6.2-20.1c1-3.3,10.5-14.6,13.7-14.3c0.6,0.1,1.1,2,1.5,2.8c3.5-5.3,6.9-10.4,9-13.6
	c9-0.5,16.5-0.9,24-1.5c1-0.1,2.4-0.9,2.8-1.8c5.7-10.6,18.9-15.9,19.1-30.9c0.1-7.1,6.3-14.1,9.7-21.2c0.3-0.6,0.2-1.2,0.3-1.9
	c2-10.9,3.9-21.8,6-32.7c0.2-1.1,1.5-2,2.3-3c1.7,1.4,3.4,2.8,4.8,4c1.4-0.8,3.1-1.7,5.6-3.1c-3.2-2.3-6.4-4.6-9.6-6.9
	c0.2-0.3,0.4-0.7,0.7-1c4.5,1.5,9,3.1,15.8,5.3c2.9,5.1,2.9,18.6,0.2,21.4c1,11.3,1.9,20.9,2.7,30.5c-0.3,4.7-5.9,7.9,2.2,14.2
	c5.4,4.2,6,14.7,8.7,22.4c2.1-0.8,5.2-2.7,5.8-2.1c6.2,6,13.4,7.4,21.8,7c2-0.1,4.2,4.8,5.1,5.9c5.2-2.8,10.1-5.6,14.3-7.9
	c4.3,3.4,8.1,6.3,11.9,9.2c0.5-0.6,1-1.2,1.5-1.8c-0.4-1.6-0.7-3.2-1.1-4.8c11-4.5,33.3,2,38.2,11.2c4.9-2.8,9.6-1.1,10.5,4
	c2.4,15.1,4.7,30.2,6.9,45.4c1.5,10.3,2.6,20.6,4,30.9c1.1,8.4,5.4,17.9,2.8,24.9c-2.8,7.5,1,9.8,3.9,13.9c0.2,0.2,0.4,0.7,0.3,0.8
	c-7,8.2,4.7,14.4,2.5,22.4c-0.9,3.2,0.9,7.2,1.4,10.9c1.6,10.9,3.2,21.8,4.8,32.7c1.2,8.2,3.5,16.5,3.1,24.6
	c-0.5,9.9,5.9,20.1-0.9,30c-0.8,1.2,1.6,4.6,2.7,7c0.5,1,2,2.1,1.8,2.9c-3,11.5,2,21.3,6.1,31.4c1.5,3.6,1.2,8.1,3.1,11.4
	c2.9,4.9,4.4,9.7,4.8,15.5c0.3,4.2,3.1,8.3,4.8,12.4c0-0.1,0.4-1,1-2.4c1,8.4,0.9,16.8,3.1,24.6c2.7,9.4,7.3,18.3,11,27.4
	c1.9,4.7,3.9,9.3,5.4,14.1c0.2,0.6-2,2-1.5,1.5c4.9,9.2,9.6,17.5,13.7,26.2c3.4,7.1,6.2,14.6,8.8,22.1c1.7,4.7,2.6,9.7,3.8,14.6
	c2,8.4,3.9,16.9,6,25.3c1.1,4.5,2.8,9,3.8,13.5c2.8,12.1,6.1,24.1,8,36.4c1.3,8.6,0.3,17.4,0.6,26.2c0.2,6.6,0.2,13.3,1.6,19.6
	c2.3,10.2,6.1,20.1,8.4,30.3c1.5,7.1,1.2,14.7,2.2,22c0.7,5.4,2.6,10.7,3.4,16.2c0.9,6.6,1,13.3,1.6,19.9c0.3,3.7,1.6,7.5,1.4,11.2
	c-0.5,8.1-1.6,16.1-2.5,24.2C500.7,855.2,500.1,855.5,499.5,855.9z"/>
<path class="st1" d="M215,955.1c-4,0.7-8.1,1.4-13.4,2.3c-4.1-5.4,3.6-6.4,6.2-7.4c3.8-1.4,8.5-0.4,13.7-0.4c-1.8,2.1-3.9,4.6-6,7.1
	C215.4,956.2,215.2,955.7,215,955.1z"/>
<path class="st1" d="M405.8,291.7c-0.4-7.7-0.8-15.3-1.2-23c1.5,0,3-0.1,4.5-0.1c0,7.6,0,15.3,0,22.9
	C407.9,291.6,406.9,291.7,405.8,291.7z"/>
</svg>
