<?xml version="1.0" encoding="utf-8"?>
<!-- Generator: Adobe Illustrator 16.0.0, SVG Export Plug-In . SVG Version: 6.00 Build 0)  -->
<!DOCTYPE svg PUBLIC "-//W3C//DTD SVG 1.1//EN" "http://www.w3.org/Graphics/SVG/1.1/DTD/svg11.dtd">
<svg version="1.1" id="Layer_1" xmlns="http://www.w3.org/2000/svg" xmlns:xlink="http://www.w3.org/1999/xlink" x="0px" y="0px"
	 width="1000px" height="1000px" viewBox="0 0 1000 1000" style="enable-background:new 0 0 1000 1000;" xml:space="preserve">
<style type="text/css">
<![CDATA[
	.st0{fill-rule:evenodd;clip-rule:evenodd;fill:hsl(359, 54%, 53%);}
]]>
</style>
<path class="st0" d="M414.9,531.5c-0.5-0.4-2.8-2.3,0.1,0.1c9.6-14.3,29.1-33.2,25.5-39.8c-9.5-17.7-28.8-30.2-38.8-39.7
	c-12.4-9.4-19.9-13.4-25.3-19.4c-26.8-30-52.5-61-79.8-90.6c-6.1-6.6-24.6-10.4-24.1-13.3c3.1-17.6,8.1-35.5,16.1-51.5
	c4.9-9.7,16.3-16.2,24.8-24.1c9.4,10.3,18.7,20.7,28.1,30.9c31.3,33.9,62.8,67.6,94,101.6c2.8,3,4,7.5,3.6,6.6
	c16.8,13.5,30,24.9,44.2,35c4.8,3.4,11.9,3.9,18.1,4.8c1.4,0.2,4.9-3.6,4.8-5.4c-0.2-5.3-1.8-10.5-4.2-22.9
	c18-27.6,38.6-61.9,62.2-94c15-20.3,31.7-42.9,53.1-53.5c11-5.5,33.9,13.1,51.4,20.8c3.1,1.3,6,3,10.4,5.1c0.5,6.5,5,18.2,1.1,24.1
	c-8.6,12.8-22.1,22.3-32.6,34c-14.3,15.9-28.2,32.2-41.6,48.9c-17.3,21.6-34.4,43.4-50.4,65.8c-4.8,6.7-5.8,16.1-9,25.7
	c24.3,19.5,49.5,38.9,73.8,59.3c24.9,20.9,49.5,42.3,73.4,64.3c12.9,11.8,27.2,23.8,34.7,38.8c2.9,5.9-10.2,20.8-17.5,30.5
	c-10.5,13.8-21.9,26.9-33.9,39.3c-2.5,2.6-9.2,1-20.6,1.9c4.1-2.9,1.9-1.3-0.3,0.2c-1.6-5.7-1.9-12.3-5-17.1
	c-15.7-23.9-30.2-49.1-48.9-70.4c-26.8-30.4-56.6-58.4-86.3-86.1c-4.1-3.8-18.9-3.5-22.1,0.4c-29.5,35.6-58.6,71.8-85.7,109.2
	c-22.6,31.2-42.2,64.6-64.5,96c-2,2.9-18.1,1-21.6-3.5c-9-11.4-15.2-25.3-21.6-38.7c-13.5-28,5.3-46.6,20.8-65.1
	C352.1,603.5,383.8,567.6,414.9,531.5z"/>
</svg>
