<?xml version="1.0" standalone="no"?>
<svg xmlns="http://www.w3.org/2000/svg" style="isolation:isolate" viewBox="0 0 260 260">
  <defs>
    <clipPath id="a">
      <rect width="260" height="260"/>
    </clipPath>
  </defs>
  <g clip-path="url(#a)">
    <linearGradient id="b" x1="-28.7%" y1="57.1%" x2="120%" y2="40.1%">
      <stop offset="0%" stop-color="#9E9E9E"/>
      <stop offset="100%" stop-color="#424242"/>
    </linearGradient>
    <path d="M99.3 251.8c-.7-.2-15.4-6.5-18.2-20.7-2.3-11.6 3.8-24.7 18.2-39.2 11.7-11.7 16.3-22.3 14-31.5-4-15.8-27.3-22.8-27.7-22.8l1-3.3c1.1.3 25.6 7.5 30.2 25.2 2.6 10.5-2.3 22.2-14.9 34.8-13.5 13.7-19.4 25.8-17.3 36.1 2.4 12.4 15.9 18.2 16 18.2l-1.3 3.2z" fill="url(#b)"/>
    <linearGradient id="c" x1="-23.1%" y1="57.2%" x2="114.8%" y2="38%">
      <stop offset="0%" stop-color="#9E9E9E"/>
      <stop offset="100%" stop-color="#424242"/>
    </linearGradient>
    <path d="M100 252c-4 0-18.6-8.3-22-22.3a32.4 32.4 0 0 1 10.4-29.8c5.3-5 10.2-9 16.7-13.6a40 40 0 0 0 17-22.4c2.2-9.3-.6-17.9-8-23.8A66.3 66.3 0 0 0 83 127.8l.3-3.5c1 0 19.7 2.1 33 13.1a26 26 0 0 1 9 27.3c-2 9-8.7 17.7-18.3 24.6-6.3 4.3-11 8.4-16.1 13.3a29 29 0 0 0-9.5 26.6 29.7 29.7 0 0 0 18.6 19.4v3.3z" fill="url(#c)"/>
    <linearGradient id="d" x1="-19.4%" y1="57.4%" x2="111.1%" y2="36.2%">
      <stop offset="0%" stop-color="#9E9E9E"/>
      <stop offset="100%" stop-color="#424242"/>
    </linearGradient>
    <path d="M100 252c-7 0-22.6-10.2-25.8-26a34.6 34.6 0 0 1 15.4-33c6.3-4 12-7.6 20.9-12.3a37 37 0 0 0 20.8-25.6 25.9 25.9 0 0 0-12.2-27.5c-17.2-10.7-38.7-10.1-39-10.1V114c.8 0 22.9-.7 40.9 10.7a29 29 0 0 1 14 31 41.6 41.6 0 0 1-22.6 28.1c-8.7 4.6-14.4 8-20.5 12.1a31.4 31.4 0 0 0-14 29.4c2.8 14 17.2 23 22.4 23l-.3 3.6z" fill="url(#d)"/>
    <linearGradient id="e" x1="-16.7%" y1="57.7%" x2="109.2%" y2="34.7%">
      <stop offset="0%" stop-color="#9E9E9E"/>
      <stop offset="100%" stop-color="#424242"/>
    </linearGradient>
    <path d="M100 252c-9.8 0-26.6-12-29.6-29.7a37 37 0 0 1 20.5-36c9-4.4 15.6-7.2 25.2-10.9a38 38 0 0 0 24.7-28.9 29.5 29.5 0 0 0-16.8-31c-21.6-11.2-46.6-7.8-46.8-7.8l-.5-3.5c1-.2 26.3-3.5 48.8 8.2a33 33 0 0 1 18.8 34.7 41 41 0 0 1-26.8 31.7c-9.6 3.6-15.8 6.3-24.9 10.6-11.9 5.8-20 19.6-18.5 32.6 2.6 16.5 18.3 26.6 26 26.6l-.1 3.3z" fill="url(#e)"/>
    <linearGradient id="f" x1="-14.8%" y1="58.1%" x2="107.6%" y2="33.7%">
      <stop offset="0%" stop-color="#9E9E9E"/>
      <stop offset="100%" stop-color="#424242"/>
    </linearGradient>
    <path d="M100 252c-13.5 0-30.8-14.6-33.3-33.3a40.3 40.3 0 0 1 25.4-39.2c11-3.9 17.9-6.2 29.4-9.5a39.3 39.3 0 0 0 28.5-32.2c1.6-15-6.3-28-21.3-34.7-26-11.5-54.3-5.6-54.6-5.6l-.6-3.5c1.3-.3 29.6-6.3 56.8 5.8 16.4 7.3 25.2 21.5 23.4 38.2a42.7 42.7 0 0 1-31 35.1 518.5 518.5 0 0 0-29.2 9.5 36.5 36.5 0 0 0-23.1 35.5c1.6 12 14.2 30.2 29.7 30.2l-.1 3.6z" fill="url(#f)"/>
    <linearGradient id="g" x1="-13.5%" y1="58.5%" x2="106.6%" y2="32.9%">
      <stop offset="0%" stop-color="#9E9E9E"/>
      <stop offset="100%" stop-color="#424242"/>
    </linearGradient>
    <path d="M100 252c-15.8 0-34.9-16-37-37a43.1 43.1 0 0 1 30.3-42.2 680 680 0 0 1 33.8-8.2 40.8 40.8 0 0 0 32.4-35.6c1.4-16.8-8.6-31.3-26-38.1-30.4-12.1-61.9-3.4-62.2-3.4l-1-3.3c1.5-.3 33.2-9 64.7 3.3 18.7 7.6 29.6 23.5 28 41.9a44.7 44.7 0 0 1-35.2 38.7 1045 1045 0 0 0-33.6 8 40.5 40.5 0 0 0-27.8 38.5c1.5 15.6 16.4 33.7 33.4 33.8l.2 3.5z" fill="url(#g)"/>
    <linearGradient id="h" x1="-12.5%" y1="59.1%" x2="105.7%" y2="32.5%">
      <stop offset="0%" stop-color="#9E9E9E"/>
      <stop offset="100%" stop-color="#424242"/>
    </linearGradient>
    <path d="M100 252C82.3 252 61 235 59.4 211.2c-1-20 15.9-41.5 35.1-45.3 15.5-3 23.3-4.4 38-6.9a43.1 43.1 0 0 0 36.3-39c1.2-18.7-10.5-34.7-30.5-41.8-34.8-12.6-69.8-1-70.2-1l-1-3.4c1.4-.5 36.4-12 72.4 1 21.6 7.7 34.2 25.2 33 45.6a46.3 46.3 0 0 1-39.3 42.1c-14.7 2.5-22.4 3.9-38 6.9A43.3 43.3 0 0 0 63 211c1.4 17.5 17.5 37.3 37 37.3v3.5z" fill="url(#h)"/>
    <linearGradient id="i" x1="-11.5%" y1="59.5%" x2="105.2%" y2="32%">
      <stop offset="0%" stop-color="#9E9E9E"/>
      <stop offset="100%" stop-color="#424242"/>
    </linearGradient>
    <path d="M100 252c-22.3 0-43-20.9-44.5-44.4a50.2 50.2 0 0 1 40.1-48.3l42.4-5.6a45.2 45.2 0 0 0 40.2-42.4c1-20.6-12.4-38-35-45.5a130 130 0 0 0-78 1.4L63.8 64c.4-.2 39.8-14.9 80.4-1.4 24 7.9 38.3 26.8 37.4 49a48.4 48.4 0 0 1-43.2 45.7 2894 2894 0 0 0-42.2 5.6 46.9 46.9 0 0 0-37.1 44.7c1.2 21.7 20.3 40.8 41 41l-.2 3.4z" fill="url(#i)"/>
    <linearGradient id="j" x1="-10.9%" y1="59.9%" x2="104.6%" y2="31.6%">
      <stop offset="0%" stop-color="#9E9E9E"/>
      <stop offset="100%" stop-color="#424242"/>
    </linearGradient>
    <path d="M100 252c-25-.2-47.1-22.1-48.2-48-.5-24.2 21.4-49 45-51.3 20.3-2 29.3-2.8 46.8-4.2a47.8 47.8 0 0 0 44-46c.6-17.6-9.5-39.8-39.5-49.1a140 140 0 0 0-85.8 3.7L61 53.9c.4-.2 43.1-17.7 88.3-3.7 26.6 8.3 42.7 28.4 42 52.6a51.2 51.2 0 0 1-47.3 49.2c-17.3 1.4-26.2 2.2-46.6 4.2a50 50 0 0 0-42 47.8c.9 23.6 22 44.4 44.7 44.4v3.5z" fill="url(#j)"/>
    <linearGradient id="k" x1="-10.3%" y1="60.2%" x2="104.2%" y2="31.3%">
      <stop offset="0%" stop-color="#9E9E9E"/>
      <stop offset="100%" stop-color="#424242"/>
    </linearGradient>
    <path d="M100 252a53.5 53.5 0 0 1-51.8-51.5c-.4-26.1 24.3-53 49.8-54.5l16.5-1 34.5-2a50.6 50.6 0 0 0 48.1-49.2c.6-24.1-16.8-44.8-44-52.7a151 151 0 0 0-93.7 6l-1.6-3.2c.5-.1 46.6-20.4 96.1-6 28.7 8.3 47 30.4 46.6 56.1a54 54 0 0 1-51.3 52.5l-34.3 2c-4.8.3-10.2.5-16.5 1-23.8 1.4-47 26.6-46.6 50.8a50 50 0 0 0 48.3 48.1l-.1 3.5z" fill="url(#k)"/>
    <linearGradient id="l" x1="-9.9%" y1="60.6%" x2="103.8%" y2="31.1%">
      <stop offset="0%" stop-color="#9E9E9E"/>
      <stop offset="100%" stop-color="#424242"/>
    </linearGradient>
    <path d="M100 252a56.7 56.7 0 0 1-55.5-55.2c-.2-28.4 26.8-56.7 54.6-57.4 10.9-.4 19-.6 26.3-.7l28.8-1a53 53 0 0 0 52-52.4c.4-26.3-18.7-48.4-48.6-56.6-52.9-14.5-101 8-101.6 8.2l-1.5-3.1c.5-.2 49.9-23.5 104-8.6C190 34 210 57.4 209.8 85.1a56.4 56.4 0 0 1-55.5 56c-11.4.4-19.6.5-28.9.9l-26.2.7c-26.1.9-51.5 27.5-51.3 54 .3 28 24.1 51.6 52 51.7v3.5z" fill="url(#l)"/>
    <linearGradient id="m" x1="-9.4%" y1="60.9%" x2="103.4%" y2="30.8%">
      <stop offset="0%" stop-color="#9E9E9E"/>
      <stop offset="100%" stop-color="#424242"/>
    </linearGradient>
    <path d="M100 252A60.1 60.1 0 0 1 40.6 193c0-30.5 29.4-60.4 59.5-60.4 13.9 0 23.3 0 32.6-.2l27-.1a56 56 0 0 0 56-56c0-34-28.7-53.6-53.4-60.1C105.1 1.4 53.6 26.8 53.1 27l-1.6-3.2c.5-.3 53.2-26.3 111.9-10.8 34 8.9 56 33.7 56 63.3a59.6 59.6 0 0 1-59.5 59.6l-27 .1-32.6.2c-27.6 0-56 28.7-56 57 0 29.8 25.6 55.2 55.8 55.2l-.1 3.5z" fill="url(#m)"/>
  </g>
</svg>
