<?xml version="1.0" encoding="utf-8"?>
<!DOCTYPE svg PUBLIC "-//W3C//DTD SVG 1.1//EN" "http://www.w3.org/Graphics/SVG/1.1/DTD/svg11.dtd">
<svg version="1.1" id="component-icon--banners" xmlns="http://www.w3.org/2000/svg" xmlns:xlink="http://www.w3.org/1999/xlink"
	 x="0px" y="0px" width="500px" height="500px" viewBox="0 0 500 500" xml:space="preserve"
	 style="fill:hsl(226, 27%, 90%); enable-background:new 0 0 500 500;">
<path d="M279.2,0c43.2,2.6,86.4,4.9,129.6,8c18.1,1.3,36.2,4.8,54.3,6.9c5.8,0.7,11.7,0.1,16.9,4.2
	c1.3,1,3.7,0.3,5.5,0.3c9.7-0.4,14.4,6.6,14.5,17.3c0.1,11.9-5.8,21.9-7.2,33c-1.7,13.3-1.5,26.8-2.4,40.3c-1,15.5-2.3,31-3.5,46.5
	c-0.1,1-0.2,2.2,0,3.1c5.3,19.5-3.5,22.9-16.3,31.7c-0.6,0.4-1.5,0.6-2,1.2c-7.7,10.9-18.4,8.8-28.8,7.9
	c-27.8-2.5-55.6-6.3-83.4-6.9c-32.2-0.7-64.6,0.7-96.7,2.8c-26.5,1.8-52.8,6-79.2,9c-23.5,2.7-46.5,7.6-68.8,16
	c-4.8,1.8-9.4,4.3-14.1,6.7c-10.1,5.1-20.1,10.4-30.3,15.3C57,248.2,48.1,255.4,40.1,264c-0.5,0.6-1.1,1.2-1.7,1.6
	c-8.1,6-13.7,3.9-15.6-6.4c-1.5-8.1-1.8-16.5-3.2-24.6c-2.2-12.8-5.1-25.5-7.4-38.3c-2.5-13.4-5.3-26.7-7.1-40.1
	c-1.5-11.5-1.8-23.2-2.6-34.8c-0.3-3.7,0.3-7.7-0.6-11.2c-3.5-12.9-2-25.3,3-37c6.8-15.9,12.7-33.4,28.9-41.1
	c7.7-3.6,16.4-5.1,24.7-6.6c25.6-4.7,51.2-9.5,77-13.3C183.1,5.2,231,1,279.2,1.6C279.2,1.1,279.2,0.5,279.2,0z M16,90.6
	c0.6,7.7,1.2,20.1,2.4,32.3c1.5,14.4,3.7,28.7,5.2,43.2c2.2,20.2,3.6,40.4,6.1,60.5c1.3,10.5,2.7,10.7,11.5,6.5
	c21-10.1,41.8-21.1,63.2-30.1c16.5-6.9,33.6-12.9,50.9-16.7c20.9-4.6,42.2-6.9,63.5-9.3c21.6-2.5,43.3-4.2,65.1-5.6
	c20.3-1.3,40.7-2.2,61-2.3c26.6,0,53.2,0.6,79.8,1.7c14.9,0.6,29.7,2.7,44.5,4.2c3.3,0.3,5.9,0.2,6.1-4.7c0.6-21.3,2.1-42.7,2-64
	c-0.1-11.9-2.3-23.9-4-35.8c-0.8-5.6-2.9-10.9-4-16.4c-0.7-3.5-2-5-5.4-3.9c-2.6,0.8-5.6,1.6-8.2,1.1c-12-2.5-23.9-5.9-36-8.1
	c-39.3-7-79.1-8.6-118.8-8.8c-37.3-0.2-74.7,0.4-111.8,3.3c-34.7,2.7-69.3,8.4-103.8,13.8C67.3,54.4,49.5,59,32,64
	C18.9,67.7,17.2,71.4,16,90.6z"/>
<path d="M231.6,488.6c-7.5,0-14.8,0.1-22,0c-17.2-0.4-34.4-1.5-51.7-1.4c-23.9,0.3-47.8,0.9-71.6,2.5
	c-13.9,0.9-27.6,4.2-41.5,6.2c-10.6,1.5-14.7-1.3-12.6-12.5c3.9-20.5-3.4-38.6-7.3-57.4c-4.5-21.7-6.2-43.5-6.5-65.6
	c-0.1-7,0.9-14,1.1-21c0.4-11.2,6.7-19.7,11.1-29c1.1-2.4,4.2-3.7,6.4-5.6c1.2-1,3-1.6,3.5-2.9c4.1-9.5,12.3-13.6,20.3-17
	c22.7-9.5,45.2-19.9,68.5-26.7c29.5-8.6,59.7-13.9,89.6-20.7c6.5-1.5,13-2.8,19.3-5c9-3.1,16.8,2,17.1,12.4
	c0.2,5.3-0.6,10.7-0.6,16.1c0,12.6,0.5,25.3,0.3,37.9c-0.1,4.9-1.9,9.7-2,14.6c-0.3,10.4-0.3,20.8,0.1,31.2
	c0.7,19.7,2,39.5,2.4,59.2c0.3,12.7-1,25.4-0.8,38c0.1,9.9,1.1,19.8,2,29.7c0.5,5.4,0.5,10.2-3.2,14.4c-3,3.4-5.5,7.4-8.6,10.6
	c-5.5,5.5-9.9,4.1-12.3-3.7C232.3,491.6,232,490.2,231.6,488.6z M51.7,462.1c2,0.1,5,0.6,8,0.5c31.7-1.3,63.3-2.9,95-4.1
	c8.9-0.3,17.8,0.2,26.7,0.5c16.9,0.5,33.8,1.4,50.8,1.4c8.7,0,10-2.5,9.3-11.8c-1.1-13.8-2.4-27.5-3.2-41.3
	c-1.6-27.6-3-55.2-4.1-82.8c-0.5-11.5,0-23.1-0.4-34.7c-0.6-20.5-6.7-25.9-24.2-22.1c-19.3,4.2-38.5,8.5-57.7,12.7
	C135,284.2,118,287,101.5,292c-22.4,6.8-43.5,17.3-63.8,29.8c-2.6,1.6-5.3,5.7-5.5,8.8c-0.7,12-2.2,24.3-0.1,35.9
	c4.6,26,11.1,51.6,16.7,77.4C49.9,449.2,50.5,454.8,51.7,462.1z"/>
<path d="M289.7,465.8c0.5-5.1,0.9-10.3,1.6-15.4c2.4-17.3-1.6-34.1-3-51.1c-0.3-3.3,0.2-6.6,0.1-9.9
	c-0.4-9.5-0.9-18.9-1.3-28.4c-0.7-16.6-1.5-33.2-2.1-49.8c-0.1-4.1,0.5-8.3,0.5-12.5c-0.2-7.8-0.3-15.6-1-23.4
	c-0.9-11.1,3.9-20,8.8-28.9c1.4-2.6,3.5-4.9,5.5-7.2c4.4-5.1,9.2-8.7,16.3-8.1c6,0.5,12.1-1.1,18.1-1c21.2,0.2,42.3,0.1,63.5,1.4
	c13.2,0.8,26.2,3.6,39.3,5.8c9,1.5,12.6,6,11.9,16c-0.9,11.7-2.8,23.4-4.1,35.1c-0.5,4.2-0.1,8.6-0.6,12.8
	c-2.4,19.7-1.4,39.1,1.4,58.7c1.9,13.2,1.2,26.9,2.7,40.2c1.2,10.8,3.4,21.5,6,32.1c2.1,8.6-1.9,19.2-10.2,22.9
	c-8.1,3.6-16.4,4.7-25.3,4.9c-23.6,0.6-47.2,3.1-70.8,5.1c-6,0.5-12.1,1.5-17.8,3.5c-6.8,2.4-13.2,6-19.6,9.5
	C294.1,487,290.4,484.7,289.7,465.8z M358,257.3c0-0.3-0.1-0.7-0.1-1c-3.1,0.2-6.3,0.1-9.4,0.6c-9.8,1.6-19.5,4-29.3,5
	c-5.4,0.6-7.9,3.8-8.6,8.4c-1,7-1.2,14.3-1.3,21.4c-0.1,15.1,0.2,30.2,0.1,45.3c-0.2,19.9-2.4,40-0.5,59.6
	c1.7,17.8,0.4,35.1-0.5,52.7c-0.4,8.9,1.4,11,9.5,9.7c23.3-3.7,46.6-7.6,69.9-10.9c16.4-2.3,32.8-3.7,49.2-5.3
	c7.9-0.8,10-5.2,5.5-12.6c-5.8-9.5-8.1-19.7-7.4-31c1.1-16.7,1.9-34-3.9-49.6c-6.6-17.7-7.2-36.4-10.1-54.7
	c-1.8-11.6-0.3-23.9,0-35.9c0.1-5.2-1-9.3-6.2-9.2c-8,0.1-16.1,0.6-24.1,1.7C380,253.1,369,255.4,358,257.3z"/>
<path d="M126.4,72.8c15.9,0,27.2,9.7,31.5,23.5c5,16,1.4,24.5-12.3,32.5c-7.7,4.5-15.4,7.9-24.1,8.4
	c-2.9,0.2-6-0.7-8.8-1.7c-4.6-1.8-6.5-5.7-5.1-10.9c0.9-3.6,1.9-7.3,3.8-10.4c3-5,7.3-8.3,13-5.1c0.7,0.4,1.4,0.5,2.1,0.9
	c4,1.9,8.5,2.4,10.5-2.3c2.1-4.8-1.4-8.7-4.9-11.3c-4.7-3.6-16-3-19.9,1.7c-7.3,8.7-14.5,17.5-20.8,27c-7.6,11.5-2.7,22.3,10.2,23.6
	c7.2,0.7,14.4,0.9,21.5,1.6c1.4,0.1,2.8,1.7,4.2,2.5c-1,1.4-1.7,3.3-2.9,4.2c-3.3,2.3-6.7,5-10.5,6c-11.9,3.1-23.5,8.4-36.2,5.8
	c-4.8-1-7.7-3.4-9.3-8.6c-3.1-9.6-2.8-18,1.2-27.9c6.4-16.1,16.4-29.1,26.7-41.5C104.9,80.4,116.8,73.5,126.4,72.8z"/>
<path d="M365.9,107.7c-0.6-14.3,9.1-25,21.9-25.4c11.2-0.4,22.5-1.3,33.5-3.2c10.7-1.9,15.1,5.6,16.3,14
	c0.6,3.9,1.1,7.9,2,11.7c1.7,6.6-0.8,11.6-6.3,14.5c-5.5,2.9-11,1.5-16.6,1.7c-7.9,0.4-15.7,1.1-23.6,1.6c-4.3,0.3-8.6,0.9-12.9,0.8
	C369,123,366.4,120,365.9,107.7z"/>
<path d="M313.4,83.1c-15.1,0-30.3-1-45.4,0.3c-13.3,1.1-26.5,4.7-39.7,7.3c-5.6,1.1-11.1,2.6-16.7,3.7
	c-5.8,1.2-10.6-1.4-11.6-6c-1-4.4,2.9-12,7.3-13.5c2.7-1,5.5-1.4,8.4-1.7c26-3.3,51.9-6.7,77.9-9.7c8.3-0.9,16.7-0.8,25-0.9
	c4.9,0,9.8,5.8,9.9,11.6c0.1,5.8-4.2,6.2-7.8,7.2c-2.4,0.7-4.8,0.9-7.3,1.4C313.4,82.8,313.4,82.9,313.4,83.1z"/>
<path d="M298.8,92.6c9.7,0,19.4-0.1,29.1,0.1c2.1,0,4.9,0.7,6.1,2.2c1.6,2.2,3.3,6.1,2.6,8.2c-0.7,2.2-4.3,4.2-6.8,4.4
	c-7.9,0.8-15.9,1-23.9,0.9c-25.3-0.5-50.4,1.8-75.2,7.5c-6.4,1.5-13.2,1.7-19.8,1.4c-2.6-0.1-6.5-2.8-7.2-5.1
	c-0.7-2.5,1.1-7.6,3.1-8.8c4.7-2.8,10.1-4.9,15.4-5.4c25.5-2.7,51-4.7,76.5-7C298.7,91.6,298.8,92.1,298.8,92.6z"/>
<path d="M290.9,139c-22.5,2-45,3.8-67.4,5.9c-5.5,0.5-10.9,1.9-16.3,2.3c-4.3,0.4-7.9-1.3-8.8-6.7
	c-0.9-5.3,1.9-8.2,5.6-10.3c1.8-1.1,3.9-1.9,5.9-2.1c10-1.1,20-2.4,30-2.9c22.6-1.1,45.1-1.9,67.7-2.7c1.3-0.1,2.7-0.2,4-0.1
	c5.1,0.2,10.2,4.8,8.9,9.5c-0.8,3-5.3,6.2-8.5,6.8c-6.8,1.3-14,1-21,1.4C290.9,139.7,290.9,139.4,290.9,139z"/>
<path d="M153.7,428.3c-19.2,1.5-38.4,3-57.5,4.7c-5.7,0.5-9.5-4.3-8.5-11.8c1.1-7.8,2.9-15.4,7.3-21.8
	c1.5-2.2,4.6-4,7.1-4.4c8.3-1.2,16.8-1.8,25.2-2.3c12.5-0.7,24.9-1.3,37.4-1.6c2.5-0.1,5.2,0.5,7.4,1.7c4.5,2.4,6,7.2,3.7,11.9
	c-3.4,6.9-6.7,14-11.2,20.1c-2.2,3-6.9,3.9-10.5,5.8C154,429.9,153.9,429.1,153.7,428.3z"/>
<path d="M155.5,329.9c-19.1-3.5-37.2,1.5-55.2,7.4c-5,1.6-10.4,2.2-15.6,2.7c-6,0.5-8-2.3-7-8.7
	c1-6.4,5.8-10.5,13.7-11.9c22.8-4,45.6-8.2,68.4-12.3c5.8-1,9.5,2.2,11.8,10.3c1.6,6-1.7,8.5-6,10
	C162.2,328.5,158.8,329,155.5,329.9z"/>
<path d="M159.8,362.5c-9.2,0-18.5,0.6-27.7-0.1c-12.3-0.9-24.1,1.1-35.8,5.2c-2.7,0.9-5.5,2.4-8.2,2.2
	c-3.4-0.3-7.8-0.9-9.6-3.4c-1.4-2-0.7-7.7,1-10.1c2.2-3.1,6.2-5.9,9.6-6.3c16.6-2,33.2-3.2,49.8-4.5c6.8-0.6,13.6-0.9,20.4-1.2
	c8.2-0.3,11.8,3.4,11.7,12C171.1,360.8,167.1,363.4,159.8,362.5z"/>
<path d="M377.4,420.7c-6,0-12.1-0.1-18.1,0c-1.5,0-3.1,0.5-4.6,1.1c-5.6,2.3-12.3-1.1-10.9-9.1c0.5-2.6-0.5-5.5,0.1-7.9
	c1.5-5.4,3.4-10.7,5.5-16c0.4-1,1.9-1.9,2.9-2.1c11.1-1.7,22.1-3.7,33.3-4.7c3.5-0.3,7.3,1.7,10.9,3c1,0.4,2.4,2.1,2.3,3.1
	c-0.1,4.3-0.2,8.6-1,12.8c-0.8,4-2.6,7.8-3.6,11.7c-1.4,5.4-5.2,6.6-9.5,7c-2.4,0.3-4.9,0-7.3,0C377.4,420,377.4,420.3,377.4,420.7z
	"/>
<path d="M377.5,276.5c7.9,0.9,14.1,1.5,20.3,2.5c2.2,0.3,4.4,1.5,6.2,2.8c1.3,0.9,3,3,2.8,4.1c-0.3,1.6-1.9,3.4-3.4,4.2
	c-10.4,5.3-21.7,4.2-32.7,5.7c-8.1,1.1-16.2,3.1-24.3,4.5c-3,0.5-6,0.8-9,0.5c-1.3-0.2-3-2-3.5-3.4c-2.2-6.7,2.5-16.2,9.2-17.2
	C355,278.3,367,277.5,377.5,276.5z"/>
<path d="M363,327.8c-6.4,0.7-12.8,2.1-19.2,1.9c-3.4-0.1-9.1-2.3-9.5-4.5c-0.7-4,1.2-9,3-13.1c1.6-3.7,4.5-4.9,9-4.2
	c10.7,1.5,21.5,1.5,32.3,2.6c5,0.5,10,1.8,14.9,3.1c1.3,0.4,3.1,2.4,3.1,3.8c0,1.3-1.8,3.3-3.1,3.7c-10,2.9-20.1,5.5-30.1,8.3
	C363.2,328.8,363.1,328.3,363,327.8z"/>
<path d="M363.4,362.5c-4.1,0.3-8.3,1-12.4,0.9c-3.9,0-8-0.3-11.7-1.5c-3.8-1.2-7.5-3.5-7.3-9c0.2-4.9,4.7-11.2,9.1-10.9
	c13.5,0.7,27.1,2.3,40.6,3.5c0.7,0.1,1.5,0.5,2,1.1c2.1,2.2,4,4.6,6,6.9c-2.3,1.9-4.3,4.7-6.9,5.5c-6.2,2.1-12.7,3.2-19.1,4.8
	C363.5,363.5,363.4,363,363.4,362.5z"/>
</svg>
