<?xml version="1.0" encoding="utf-8"?>
<!DOCTYPE svg PUBLIC "-//W3C//DTD SVG 1.1//EN" "http://www.w3.org/Graphics/SVG/1.1/DTD/svg11.dtd">
<svg version="1.1" id="component-icon--catgrounds" xmlns="http://www.w3.org/2000/svg" xmlns:xlink="http://www.w3.org/1999/xlink"
	 x="0px" y="0px" width="500px" height="450px" viewBox="0 0 500 450" xml:space="preserve"
	 style="fill:hsl(226, 27%, 90%);enable-background:new 0 0 500 400;fill-rule:evenodd;clip-rule:evenodd;">
<path d="M0,242.8c8-55,25.8-108.1,50.2-158.3C60.7,63,70.9,39.6,86,20.8c9.2-11.5,12.9-14.3,25.1-5.1
	c10.8,8.1,21.6,15.9,33.3,22.7c47.3,27.6,109,14.2,151.4-18c11.6-8.8,36-34.5,46.4-10.3c10.9,25.5,20.3,53.2,29,79.6
	c17.5,53.1,34.4,117.7,27.5,173.9c-0.3,2.2-8,8-9.5,11.4c-4.3,9.6-16.3,12.3-25.7,14.3c-26.5,5.6-56.5,16.1-83.6,16.6
	c-52.2,1-106.8,14-159.4,6.3c-27.4-4-53.9-10.3-80.1-19.3c-8.7-3-32.2-7.1-36.9-15.5C-1.5,268.6,0.6,252.6,0,242.8
	C1.7,230.9,0.8,255.3,0,242.8z M73.8,127.9c4.3-19.6,10.1-18.8,29.4-19.1c17.8-0.2,35.6-0.6,53.4-0.7c10.8-0.1,84.9-6.7,83.8,8.1
	c-1.3,18.1-5.9,30.8-24.9,31.1c-19.6,0.3-39.1,0.8-58.7,0.9c-18.5,0.2-36.9-0.3-55.4-0.4C80.8,147.7,76.5,150.4,73.8,127.9
	C74.6,124.3,74.4,132.6,73.8,127.9z M258.8,185.8c-34.3-0.7-68.5-1.4-102.8-1.7c-17.8-0.1-35.7-1-53.5-0.6
	c-2.3,0-38.3,3.4-21.7-10.1c9.5-7.7,41.9-1.8,53.7-1.5c17.6,0.4,35.2,1.1,52.8,1.5c17.5,0.4,35.1,0.3,52.6,1.1
	C245.9,174.8,274.7,175.9,258.8,185.8C236,185.3,259.9,185.1,258.8,185.8z M99.3,221.5c29.2,1.9,58.3,4.5,87.6,5.4
	c13.7,0.4,28.7-1,42.2,1.4c4,0.7,7,4.3,6.9,8.4c-0.1,4.9-17,3.1-19.7,3.2c-32.5,0.5-65.2-2.5-97.6-4.7c-11.5-0.8-23.4,2.5-34.7,0.6
	C62.5,232,99.6,214.4,99.3,221.5C108.2,222.1,99.3,221.7,99.3,221.5z M94.7,195.6c22.5,1.1,45,2.2,67.6,2.6
	c6.2,0.1,31.8-3.7,32.1,6.5c0.1,3.9-21.3,3.8-23.9,4c-24.4,1.9-49.1,0.3-73.6,0c-3.1,0-23,0.7-19.2-7.8
	C79.9,196.1,94.7,196.1,94.7,195.6C107.7,196.3,94.7,195.8,94.7,195.6z"/>
<path d="M451,239.5c14.9-0.5,37.2,3.2,46.1,16.9c8.8,13.6-12,32.1-21.1,40c-14.3,12.4-31.6,19.3-48,28.5
	c-12.3,6.9-21.8,27.5-4.1,33.9c24.5,8.8,74.1,33.6,76,64.3c1,15.9-20.1,23.1-32.2,26.1c-14.5,3.5-30.8-4.3-38.9-16.3
	c-8.3-12.2-16.6-25.8-31.5-31.1c-17.1-6-35.8-2.2-51.8-12.5c-31.1-20,20-70.3,38.1-79.7c16.2-8.4,34.2-13.1,51.4-18.8
	c9.3-3.1,43.4-10.3,20.8-20.4c-7.8-3.5-39.6-3.1-40.4-12.5C413.8,238.4,438.6,240.1,451,239.5C466.4,238.9,445.5,239.7,451,239.5z"
	/>
</svg>
