<?xml version="1.0" encoding="utf-8"?>
<!DOCTYPE svg PUBLIC "-//W3C//DTD SVG 1.1//EN" "http://www.w3.org/Graphics/SVG/1.1/DTD/svg11.dtd">
<svg version="1.1" id="component-icon--ofsidebar" xmlns="http://www.w3.org/2000/svg" xmlns:xlink="http://www.w3.org/1999/xlink"
	 x="0px" y="0px" width="500px" height="400px" viewBox="0 0 500 400" xml:space="preserve"
	 style="fill:hsl(226, 27%, 90%);enable-background:new 0 0 500 400;fill-rule:evenodd;clip-rule:evenodd;">
<path d="M0.1,362.7c0-21.5,5.2-42.1,8.9-63c2.1-11.7,3.4-23.6,4.8-35.4c3.3-29.3,6.4-58.6,9.5-88
	c2.8-26.6,7.2-53,8.2-79.9c0.4-12.7,1.7-25.3,0.1-37.9c-0.4-2.9,1.9-6.4-1.9-8.6c-0.6-0.4-1.2-1.2-1.8-1.2c-5.4,0.7-4.8-3.5-5.2-6.8
	c-0.5-4.3-1.5-8.7-1.2-13c0.2-3.1,1.4-6.6,3.2-9c5.8-7.5,14.1-10.3,22.9-11c8.8-0.7,17.6-0.5,26.4-1C87.1,7,100,5.6,113,4.9
	c11.7-0.7,23.4-0.7,35.1-1.2c18.6-0.8,37.2-2,55.8-2.6c15-0.5,30.1-0.1,45.1-0.3c25.7-0.2,51.4-0.6,77.1-0.8
	c11.2-0.1,22.5,0.1,33.7,0.3c18.4,0.3,36.8,0.4,55.2,1c9.5,0.3,18.9,1.5,28.3,2.1c6.2,0.4,12.4,0.1,18.5,0.7
	c8.6,0.8,17.1,2.1,25.7,3.4c3.6,0.6,5.4,3.1,6.6,6.9c2.5,7.9,1.7,16.1,2.2,24.2c0.8,12.5,1.3,25,1.8,37.6c0.5,13,1,26,1.2,39
	c0.3,17.3,0.7,34.5,0.7,51.8c-0.1,33.5-0.2,66.9-0.9,100.3c-0.4,16.1,0.3,32.4-3.3,48.3c-2.9,12.5-6.3,24.8-9.8,37
	c-0.6,2-2.8,4-4.7,4.8c-12.8,5.2-26,8.9-39.8,10c-11,0.9-22.1,1.9-33.1,3c-9,0.9-18,1.8-27,2.9c-10.7,1.4-21.3,3.3-31.9,4.4
	c-9.6,1-19.2,1-28.8,1.7c-10.3,0.8-20.6,2.3-30.9,3c-13.8,0.9-27.7,1.2-41.5,2.1c-11.1,0.8-22.1,2.4-33.1,3.4
	c-11.9,1.1-23.9,2.1-35.8,3.1c-10.9,1-21.8,2-32.7,3.1c-9.9,1-19.7,2.3-29.6,2.8c-14.5,0.7-29,0.7-43.5,1.3
	C63,398.7,52.6,400,42.3,400c-8.4,0-16.9-0.7-25.1-2.6c-10-2.3-16.3-11.3-17.1-22.1C-0.2,371.1,0.1,366.9,0.1,362.7z M313.8,11.6
	c-5.4,0-9.3-0.1-13.2,0c-19,0.3-38.1,0.2-57,1.1c-7.4,0.4-14.3-1.7-22.1-0.2c-11.3,2.2-23.5,1.5-35.3,1.9
	c-12.4,0.4-24.8,0.3-37.2,0.7c-14.2,0.5-28.3,1.3-42.5,2.1C93.2,18,79.9,18.7,66.7,20c-3.5,0.4-8.8,2.5-9.4,4.6
	c-0.9,3.4-0.1,9,2.6,10.8c5.4,3.6,5.1,7.7,4.9,12.1c-0.7,15.4-2.1,30.7-2.5,46.1c-0.4,12.6,1.3,25.4,0.2,37.9
	c-1.6,18.5-5.1,36.9-7.1,55.4c-1.3,12.2-1.3,24.5-2.2,36.7c-0.9,12.2-1.9,24.4-3.3,36.6c-1.2,10.3-3.2,20.6-4.8,30.9
	c-1.7,11.1-3.8,22.2-5.1,33.3c-1.2,9.9-2.4,19.9-2.3,29.8c0,12.3,5.4,18.2,19.5,20.7c9.8,1.7,20.1,1.6,30.3,1.8
	c15.6,0.3,31.2,0.7,46.7,0.1c24.8-1,49.6-2.7,74.4-4.1c18.2-1,36.4-2,54.6-3.2c9.9-0.6,19.8-1.6,28.5-2.3c2.3-6,4.6-11.7,6.5-17.5
	c4.6-13.4,9.3-26.9,13.4-40.4c3.4-11.5,6-23.2,8.8-34.8c1.1-4.4,1.7-8.9,2.5-13.3c2.4-12.6,4.9-25.2,7.2-37.8c1.3-7.3,2-14.7,3.2-22
	c1.3-8.1,3.6-16.1,4.2-24.2c1-13.2,1.9-26.6,1.2-39.8c-0.8-15.5-3.3-30.9-5.3-46.4c-2.9-22.6-11.8-43.8-21.5-64.7
	C309.6,21.3,308.8,17.1,313.8,11.6z M349.9,27.4c2.1,1.1,4.4,2,6.3,3.5c6,4.5,11.9,9.4,17.9,13.9c2.4,1.9,5.1,1.1,6.5-1.8
	c2.8-5.9,5.6-11.8,8.4-17.8c1.3-2.7,4.4-4.1,7.1-2.9c4.4,1.9,5.4,4.5,3.6,9.1c-2.8,7-5.5,14-8.4,20.9c-1.1,2.5-0.1,3.8,1.8,5
	c3,1.9,6.4,3.4,9.1,5.8C407,67.7,411,73,413,79.7c0.6,2,1.5,3.9,2.2,5.9c0.4,1.1,0.9,3,0.6,3.2c-1.1,0.7-2.9,1.5-3.7,1
	c-4.2-2.4-8.2-5.2-12.3-7.9c-5.1-3.4-10-7-15.2-10.2c-1.6-1-3.3-0.3-4.2,1.8c-2.3,5-4.6,9.9-7,14.8c-0.6,1.2-1.2,2.5-2.1,3.3
	c-1.4,1.2-3.9,3.1-4.4,2.7c-1.5-1.2-2.9-3.4-3.2-5.4c-1.2-6.1,0.8-12.1,2.1-18c0.5-2.6,2-4.9,2.7-7.5c0.2-0.8-0.1-2.4-0.7-2.8
	c-1.4-1.2-3.1-2.3-4.8-2.7c-6-1.2-9.2-6.2-13.1-10.4c-3.3-3.6-4.3-8.2-5.6-12.7C342.9,30.9,345.2,28.1,349.9,27.4z M428.3,294.4
	c-9.6,0-19.3-0.5-28.9,0.2c-6.7,0.4-13.3,2.5-19.9,3.6c-7,1.2-13.9,2.4-20.9,3.3c-3.2,0.4-6.6,0.6-9.6-0.2c-2-0.5-4.5-2.8-4.8-4.7
	c-0.3-1.9,1.3-5.3,3-6.2c5.8-3,11.9-5.3,17.9-7.8c9.3-3.8,19.1-1,28.6-2.2c6.9-0.8,13.8-2.1,20.8-2.7c5.7-0.5,11.5-0.8,17.2-0.6
	c8.5,0.3,17,1,25.4,1.9c1.6,0.2,3,1.8,4.5,2.7c-1,1.4-1.7,3.4-3,4c-6.7,2.8-13.4,5.4-20.3,7.6c-3.1,1-6.6,0.9-9.9,1.4
	C428.3,294.6,428.3,294.5,428.3,294.4z M441.3,245.4c-6.4,0-12.9-0.3-19.3,0.1c-6.7,0.4-13.3,1.6-20,2.3c-4.4,0.5-8.9,0.6-13.4,1.3
	c-7.3,1-14.5,2.4-21.8,3.5c-1.6,0.2-3.3,0.5-4.7,0c-1.6-0.6-3.6-2-4-3.4c-0.4-1.5,0.5-4.2,1.7-5c3.2-2.2,6.8-4,10.3-5.5
	c7.8-3.4,15.7-6.2,24.4-6.7c16.3-1,32.4-3.4,48.7-4.2c9.2-0.5,18.4,0.9,27.6,1.7c1.5,0.1,3,1.5,4.4,2.4c-1,1.6-1.6,3.8-2.9,4.6
	c-4,2.4-8,4.8-12.4,6.1c-6.1,1.8-12.4,2.6-18.7,3.8C441.4,245.9,441.3,245.7,441.3,245.4z M447.2,205.2c-12.3,0-24.5-0.3-36.8,0.1
	c-5.8,0.2-11.6,1.9-17.5,2.6c-8.8,1.2-17.6,2.4-26.4,2.9c-1.7,0.1-4.5-3.2-4.9-5.3c-0.4-1.7,1.6-5.1,3.3-5.9
	c9.7-4.1,19.6-7.3,30.2-7.7c8.2-0.3,16.3-1.9,24.5-2.5c8.9-0.6,17.8-1,26.7-1.1c7.3-0.1,14.6,0.4,21.9,0.8c2,0.1,4,0.4,6,0.9
	c1.4,0.4,2.6,1.3,3.9,2c-0.9,1.6-1.4,4-2.8,4.6C466.4,201.1,457.4,205.1,447.2,205.2z M443.6,159.8c-14,1-28.1,1.6-42.1,3
	c-8.4,0.8-16.7,2.9-25.1,4.1c-5.9,0.8-9.6-2.2-9.9-7.1c-0.2-3.2,1.2-5.1,3.9-5.7c5.5-1.2,11-2.1,16.5-2.8c11-1.3,22.1-2,33.1-3.5
	c13.3-1.8,26.6-2.7,40-1.6c1.6,0.1,3.8,0.6,4.7,1.8c0.9,1.2,1,4.9,0.4,5.1c-6.9,3.3-13.9,6.1-20.9,9
	C444,161.5,443.8,160.6,443.6,159.8z"/>
</svg>
