<?xml version="1.0" encoding="utf-8"?>
<!DOCTYPE svg PUBLIC "-//W3C//DTD SVG 1.1//EN" "http://www.w3.org/Graphics/SVG/1.1/DTD/svg11.dtd">
<svg version="1.1" id="icon--grid-layout" xmlns="http://www.w3.org/2000/svg" xmlns:xlink="http://www.w3.org/1999/xlink"
	 x="0px" y="0px" width="500px" height="500px" viewBox="0 0 500 500"  xml:space="preserve"
	 style="fill:hsl(226, 27%, 90%); enable-background:new 0 0 500 500;">
<path d="M351.3,365.3c2.6,0,5.3-0.2,7.8,0c5.2,0.5,8.3,4.2,8.4,9.3c0,5.1-2.5,7.9-8.2,8.4c-3.3,0.3-7,0.8-10-0.5
	c-17.3-7.4-35.6-6.5-53.6-8.6c-13.4-1.6-26.9-2.8-40.3-3.2c-17.5-0.5-35-0.2-52.5-0.1c-15.4,0.2-30.9,0.4-46.3,1.1
	c-9.4,0.4-18.7,1.8-28.1,2.3c-10.5,0.6-16.8-6.1-17.9-17.3c-2.2-21.2-5-42.3-7.2-63.5c-1.6-15.1-3-30.2-3.5-45.3
	c-0.2-7.4,1.6-15,3-22.4c0.9-5,7.2-8.5,14.6-8c28.7,1.9,57.4,4.1,86.1,6.3c16,1.2,31.9,2.3,47.9,3.9c25.8,2.6,51.6,5.5,77.4,8.3
	c2.8,0.3,5.7,0.8,8.5,0.7c7-0.2,11.9,3.5,15.2,9.5c1.3,2.4,2.1,5.7,1.8,8.5c-1.4,15.9-4.6,31.7-4.4,47.5c0.2,15.4-0.6,31.4,6.3,45.9
	c2.3,4.8,1.7,8.7-2.3,12c-1.2,1-2.1,2.4-3.2,3.6C351.1,364.3,351.2,364.8,351.3,365.3z M342.3,365.5c-1.3-4.5-2.6-7.3-2.9-10.2
	c-1.3-17.3-2.8-34.5-3.2-51.8c-0.4-15.2,0.3-30.5,0.7-45.7c0.1-4-0.5-7.1-4.8-8.1c-6.6-1.6-13-4.3-19.6-5c-22.3-2.2-44.6-3.9-67-5.6
	c-23.7-1.8-47.5-3.7-71.3-5.1c-7.2-0.4-14.5,0.6-23,1c7.4,6,13.3,11.8,20.1,16c17.8,11,36.1,21.1,54,32c6.6,4.1,12.5,4,19.2,0.6
	c8.6-4.4,17.3-9.1,26.3-12.3c15.8-5.6,32-10.1,46.5-19.6c2.4-1.6,6.3-1.3,9.4-0.8c5.2,0.9,6.7,6.5,3.1,10.6
	c-5.4,6.1-11.8,10.3-19.6,12c-4.3,1-8.6,2.5-12.8,4c-9.3,3.3-18.6,6.5-27.7,10.1c-6.5,2.6-12.8,5.7-20.7,9.3c5.1,3.4,8.4,6,12,8
	c17.7,9.5,35.6,18.6,53.2,28.4c4.2,2.3,7.8,6.5,10.7,10.6c2.6,3.7,0.3,7.7-4,6.8c-5.8-1.1-11.9-2.6-17.1-5.5
	c-10.4-6-20.3-13.3-30.5-19.8c-3.6-2.3-7.8-3.7-11.6-5.8c-7.1-3.9-13.9-8.6-21.3-11.6c-3.8-1.5-9.2-1.5-12.9,0.1
	c-10,4.3-19.6,9.6-29.1,15.1c-12.6,7.3-25,15.1-37.5,22.6c-4,2.4-8.1,4.8-12.4,6.6c-1.5,0.6-4.2,0.2-5.2-0.9c-1-1.1-1.4-4.3-0.6-5.6
	c3.3-5.1,6.5-10.7,11-14.3c6.2-5,13.3-8.6,20.3-12.4c12.4-6.6,24.9-12.9,37.4-19.4c1.9-1,3.6-2.6,6.5-4.8
	c-33-19.8-64.9-39-97.6-58.6c-0.5,4.7-1.2,8.6-1.3,12.5c-1.1,35.1,4.4,69.5,10.2,103.8c0.8,5,3,6.1,7,5.9
	c10.3-0.3,20.6-0.5,30.9-0.5c22.8-0.1,45.5-0.1,68.3,0c27.9,0.1,55.8-0.2,83.5,4.4C326.1,363.9,333.7,364.5,342.3,365.5z"/>
<path d="M266.8,47.2c-15,1.6-30,3.9-45.1,4.8c-24.6,1.5-49.3,2.1-74,3.1c-1.1,0-2.2,0-3.2,0.3
	c-9.8,2.6-15.2-1.5-14.2-12.1c0.9-9.9,1.6-20,7-29c2.8-4.6,6.1-6.6,10.6-5.4c18.4,5,36.7,1.1,55-0.4c11.1-0.9,22.2-0.3,33.4-0.8
	c20.6-1.1,41.1-2.3,61.7-3.9c12-0.9,24-2.5,36-3.8c4.7-0.5,8.5,3.4,7.3,8.5c-1.4,5.8-3.5,11.5-5.8,17c-2.2,5.2-4.6,10.4-7.7,15
	c-1.5,2.1-4.9,3.7-7.5,3.8c-12.4,0.8-24.8,0.8-37.1,1.5c-5.5,0.3-10.9,1.5-16.3,2.3C266.9,47.7,266.9,47.5,266.8,47.2z"/>
<path d="M259,409.4c14.8,0.5,29.6,1,44.4,1.7c5.5,0.2,10.9,1.2,16.4,1.3c3.8,0,6.3,0.8,6.6,5.4c0.2,4.5-2.5,6.7-6,7.5
	c-5.9,1.3-11.9,2-17.9,3.2c-12.1,2.5-24-1-36-1.3c-18.3-0.6-36.5-1.9-54.8-2.7c-18.7-0.8-37.3-1.3-56-2.3c-2.2-0.1-4.2-2.6-6.3-3.9
	c1.3-2.1,2.1-4.8,3.9-6.1c12.1-8.3,25-11.2,39.4-8.1c10,2.1,20.4,2.5,30.6,3.3C235.2,408.3,247.1,408.8,259,409.4z"/>
<path d="M354.8,462.5c-12.9,0-25.9,0.3-38.8-0.1c-28.1-0.7-56.2-2.1-84.2-2.3c-18.7-0.1-37.5,1.4-56.2,1.9
	c-4.1,0.1-8.5-0.9-12.4-2.4c-4.8-1.8-5.2-7.5-0.5-9.9c4.2-2.1,9-3.8,13.6-3.8c21.9,0,43.7,0.4,65.6,1.1c17.4,0.5,34.8,1.6,52.2,2.4
	c18.3,0.9,36.6,1.4,54.7-2.1c3.5-0.7,7.1-0.8,10.6-0.6c4.1,0.2,6.8,2.6,6.3,7.4c-0.5,4.4-1.1,9.1-7,8.8c-1.2-0.1-2.5,0.2-3.7,0.3
	C354.8,462.9,354.8,462.7,354.8,462.5z"/>
<path d="M169.8,130.2c19.3,0.4,41.5,1.4,63.6,1c14.1-0.2,28.2-3,42.3-3.7c11.1-0.5,22.2,0.4,33.4,1.1
	c3.7,0.2,6.9,2.1,6.6,7.2c-0.2,4.6-2.4,6.6-6.6,7.2c-10.1,1.6-20,1.3-30.1,0.3c-11.7-1.1-23.7,0-35.5,0.3
	c-12.4,0.3-24.7,1.1-37.1,1.4c-16.8,0.4-33.6,0.6-50.4,0.5c-4,0-8.2-1-11.8-2.6c-4.7-2.1-4.7-6-0.2-8.8
	C151,129.5,158.8,128.5,169.8,130.2z"/>
<path d="M156.9,164.2c10.1,1.2,20.2,2.9,30.3,3.5c14.3,1,28.6,1.1,42.9,1.9c14,0.8,27.9,2,41.9,3c3,0.2,6.1,0,8.9,0.8
	c4,1.1,6.5,4.2,5.5,9c-0.9,4.6-4.3,5.9-8.1,5.6c-9.5-0.6-19-1.6-28.5-2.2c-19.5-1.2-39-2.5-58.4-3.1c-11.3-0.3-22.6,1-33.8,0.8
	c-4.5-0.1-9.1-1.5-13.4-3.2c-4.5-1.8-5.1-6.3-1.1-9.2C147,168.4,151.7,166.8,156.9,164.2z"/>
<path d="M156,90.6c9.9,0.5,19.8,1.6,29.7,1.5c17.2-0.3,34.4-1.8,51.6-2.1c9.7-0.2,19.3,0.7,29,1.5
	c3.3,0.3,6,2.2,5.6,6.8c-0.4,4.7-3.1,6.1-6.9,7.4c-13.4,4.4-26.7,0-40.1,0.4c-17.9,0.5-35.8,0.7-53.7,0.9c-10.8,0.1-21.6,0.4-32.3,0
	c-2.3-0.1-6-3-6.3-5.2c-0.3-2.2,2.1-6.4,4.2-7.3c6.1-2.4,12.6-3.5,19-5.1C155.9,89.7,156,90.1,156,90.6z"/>
<path d="M190.5,485.9c26.4-1.2,52.9-2.8,79.3-3.6c11.1-0.3,22.3,0.7,33.4,1.4c4.8,0.3,6.9,3.7,6.6,9.2
	c-0.3,4.7-3,6-6.9,5.9c-1.8-0.1-3.6,0.4-5.3,0c-23.1-5.5-46.4-1.5-69.6-2c-9.2-0.2-18.5-0.3-27.7,0.2c-9.4,0.5-18.7,2.1-28,2.8
	c-3.5,0.3-7.2,0.1-10.5-0.7c-4.6-1.2-5.5-5.2-1.5-7.7c4.5-2.7,9.7-4.6,14.8-5.5c5-0.9,10.3-0.2,15.4-0.2
	C190.5,485.8,190.5,485.9,190.5,485.9z"/>
<path d="M405.5,75.1c9.2,0,18.4,0,27.6,0c13.8-0.1,27.6-0.5,41.4-0.3c5.3,0.1,10.6,1.1,15.6,2.7c1.9,0.6,3.8,4.1,4,6.4
	c0.3,4-1.6,7.9-5.7,8.4c-5.1,0.6-10.3,0.6-15.3,0c-22.8-2.5-45.6-3.6-68.5-0.4c-4.3,0.6-8.9,0.6-13.2-0.2c-3.6-0.6-7.6-2-8-6.9
	c-0.3-3.8,4.5-8.6,9-9.1c4.4-0.5,8.8-0.8,13.2-1.2C405.5,74.7,405.5,74.9,405.5,75.1z"/>
<path d="M460.5,265.8c-13.1-1.6-26.4-3.4-39.8-4.7c-9-0.9-18-1.1-27.1-1.6c-1.4-0.1-3,0.2-4.2-0.4
	c-1.9-0.8-4.1-1.9-5-3.5c-0.4-0.8,1.3-3.7,2.7-4.9c9.5-8,20.8-9.3,32.3-8.3c10.4,1,20.7,3.1,31.1,4.3c8.5,1,17,1.2,25.5,1.9
	c3.7,0.3,6.4,1.9,6.8,6.5c0.4,4.6-1.7,6.8-5.6,7.5C471.7,263.8,466.3,264.7,460.5,265.8z"/>
<path d="M489.7,153.1c-4.5-1.6-8.8-3.7-13.4-4.8c-7.6-1.7-15.3-3.8-23-3.9c-18.1-0.4-36.2,0.2-54.3,0.2
	c-2.8,0-5.7-0.6-8.3-1.7c-1.9-0.8-4.8-3.2-4.6-4.4c0.3-2.4,2.2-5.9,4-6.5c5.4-1.6,11.2-3.1,16.6-2.5c19.4,2.4,38.7,4.4,58.3,4.3
	c8.5-0.1,17,1.1,25.5,2c8.1,0.9,10.6,4.4,9,11.1C498.2,152.9,494.5,153.1,489.7,153.1z"/>
<path d="M470.5,122.1c-9.1-2-18.5-4.8-28.1-6c-8.3-1-16.9-0.4-25.3,0.1c-8.7,0.6-17.5,4.6-26-0.3
	c-1.7-0.9-3.8-2.9-3.9-4.5c-0.1-1.6,1.7-4.1,3.3-5c7.8-4.6,16.3-4.1,24.8-3.8c11.1,0.4,22.3,0.4,33.5,0.5c9.2,0.1,18.3,0.1,27.5,0.4
	c4.4,0.2,8.1,1.7,7.9,7.7c-0.1,6.2-2,8.9-7.9,9.9C474.6,121.7,472.8,121.8,470.5,122.1z"/>
<path d="M420.7,267.9c14.9,1.4,28.1,2.7,41.4,4c6,0.6,8.6,3.6,8.3,8.8c-0.3,4-3.9,6.3-9.4,5.9c-11.5-0.9-23-2-34.5-2.8
	c-6.4-0.4-12.8-0.2-19.1-0.7c-3.6-0.3-8.2-0.3-9.1-5.2c-0.9-5.1,3.7-6.5,6.8-7.3C410.5,269,416.4,268.6,420.7,267.9z"/>
<path d="M54.2,101.9c-7.1-1.6-13.1-3.1-19.2-4.2c-9.2-1.6-18.6-2.6-27.8-4.4c-2.6-0.5-4.8-3-7.2-4.6
	c2.1-2.6,3.9-6.6,6.4-7.3c4.3-1.2,9.1-0.7,13.6-0.2c12.2,1.1,24.4,2.4,36.5,4c6.1,0.8,9.8,7.4,6.5,11.8
	C61.1,99.7,56.9,100.5,54.2,101.9z"/>
<path d="M17.6,209.9c15.1,0.6,30,1,44.9,2c6.7,0.5,9.1,6.1,5.4,12.2c-0.9,1.4-4.1,2.5-5.7,2
	c-16.5-5.4-33.1-6.3-49.9-1.8c-4.5,1.2-10.9-1.7-10.1-4.5c0.9-3.2,4-6.3,6.9-8.1C11.4,210.1,14.8,210.4,17.6,209.9z"/>
<path d="M31.9,110.1c9.9,0.6,19.9,1.2,29.8,1.8c4.6,0.3,6.1,3.2,5.8,7.7c-0.3,4.7-2.9,7-7.1,6.3
	c-5.4-0.8-10.8-2.4-16.2-3c-7.7-1-15.5-1.5-23.3-2.1c-3.9-0.3-7.8-0.3-11.7-0.7c-1.4-0.1-3-0.4-4-1.2c-1.3-1-3.1-3.2-2.8-4.1
	c0.5-1.6,2.5-3.5,3.9-3.6c6.7-0.5,13.4-0.5,20.2-0.6c1.8,0,3.6,0,5.3,0C31.8,110.4,31.9,110.3,31.9,110.1z"/>
<path d="M58,179.6c-0.1,6-2.5,9.2-7.2,8c-12.2-3.2-24.4-1.7-36.6-1.6c-3.8,0-9.1,0.9-9.3-4.7c-0.2-5.1,4.6-6.8,8.9-7.1
	c12-1,24.1-2,36.2-2.6C55.7,171.3,58.1,174.1,58,179.6z"/>
<path d="M22.3,138.2c10.4-0.7,20.9-1.4,31.3-2c7.5-0.4,11.4,3.7,8.8,9.8c-0.9,2.1-4.1,4.5-6.3,4.5
	c-12.7,0-25.5-0.6-38.2-1c-3.9-0.1-9.1,0.9-9.3-4.8c-0.2-5.2,5.1-5.4,8.9-6.1c1.6-0.3,3.2-0.2,4.8-0.3
	C22.3,138.3,22.3,138.3,22.3,138.2z"/>
<path d="M17.4,239.7c10.4,0.7,20.9,1.3,31.3,2c3.9,0.3,6.7,2,7.4,6.6c0.9,5.9-1.1,8.1-6.8,7.3
	c-8.4-1.2-16.8-2.4-25.3-3.2c-3.8-0.3-7.9,1.2-11.5,0.4c-2.6-0.6-4.7-3.6-7.1-5.5c2.1-2.3,3.9-4.9,6.3-6.8c1.4-1.1,3.7-1,5.6-1.5
	C17.4,239.3,17.4,239.5,17.4,239.7z"/>
<path d="M6.7,279.1c3-1.5,5.8-3.8,8.9-4.3c6.3-0.9,12.7-0.7,19.1-1.1c6.9-0.4,13.8-1,20.7-1.2c1.8,0,5,1.1,5.3,2.3
	c0.7,3.1,0.4,6.6-0.2,9.8c-0.1,0.7-3.2,1-4.9,1c-8.3-0.1-16.6-0.4-25-0.5c-5.1,0-10.3,0.8-15.4,0.3c-2.7-0.3-5.3-2.6-7.9-4.1
	C7.1,280.6,6.9,279.9,6.7,279.1z"/>
<path d="M38.3,315.6c-7.8-0.5-15.6-0.8-23.3-1.6c-1.8-0.2-3.4-2.1-5.1-3.2c1.1-1.9,1.8-4.7,3.4-5.5
	c9.5-5,19.6-6.7,29.9-3.9c4.7,1.3,7,8.1,4.3,12.4c-0.7,1.1-2.5,1.8-3.9,2c-1.7,0.2-3.5-0.2-5.3-0.3
	C38.3,315.5,38.3,315.5,38.3,315.6z"/>
</svg>
