
		<svg xmlns="http://www.w3.org/2000/svg" xmlns:xlink="http://www.w3.org/1999/xlink" version="1.1" width="3133.3333333333335" height="973.3333333333334">
			
			<g transform="scale(6.666666666666667) translate(10, 10)">
				<defs id="SvgjsDefs1063"/><g id="SvgjsG1064" featureKey="root" fill="#000" transform="matrix(1,0,0,1,0,0)"/><g id="SvgjsG1065" featureKey="symbol1" fill="#000" transform="matrix(0.14245014245014245,0,0,0.14245014245014245,6.142450142450144,10.142450142450144)"><g><title>background</title><rect x="-1" y="-1" width="702" height="702" style="fill: none;"/></g><g><title>Layer 1</title><g><g><path d="M222,158.3c-31,0.7-57.5,21-79.5,60.8c-23.1,44.8-34.5,94.6-34.3,149.4c0.4,6.6,1.1,7.2,2.2,1.9     c9.3-40.3,19-71.8,29.1-94.6c9.9-22.9,20.9-41.7,32.9-56.2c27.6-32.1,51.5-37.3,71.8-15.6c22.2,25.6,34,68.8,35.4,129.4     c-1.2,81.5-11.9,143.1-32.1,185c-25.3,51-51.3,68-77.7,50.8c-36-28.7-56-92.3-60-190.6c-1.4-3.4-2.7-0.9-3.7,7.5     c-1.9,10.2-3.2,21.4-4,33.3c-3,53.4,4.1,98.7,21.2,135.9c17.5,35.3,40.8,53.2,69.9,53.8c31.4-0.5,60-21,85.9-61.7     c25.8-42.5,42.4-94.3,49.7-155.6c2.7-65.2-6.1-120.7-26.3-166.5c-20.4-43.6-47.1-66-80-67.2"/></g><g><path d="M452,134.1c-16.1-26.4-46.9-39.3-92.4-38.5c-50.3,2.4-99.2,17.4-146.6,45c-5.5,3.6-5.7,4.6-0.6,2.9     c39.6-12.1,71.7-19.5,96.4-22.1c24.8-2.9,46.5-2.8,65.1,0.4c41.6,7.9,58.1,26,49.4,54.4c-11.1,32-42.6,63.8-94.4,95.4     c-71.2,39.7-129.9,61.3-176.2,64.7c-56.9,3.6-84.5-10.4-82.8-41.9C77,248.8,122,199.7,205.1,147c2.2-2.9-0.6-2.7-8.3,0.6     c-9.8,3.5-20.1,7.9-30.9,13.2c-47.7,24.1-83.5,52.9-107.1,86.3c-21.8,32.8-25.7,62-11.7,87.4c16.1,26.9,48.2,41.4,96.4,43.5     c49.7,1.1,102.9-10.4,159.6-34.8c57.8-30.3,101.5-65.6,131-106c27.6-39.5,33.6-73.8,18.2-102.9"/></g><g><path d="M588,321.2c14.8-27.2,10.6-60.3-12.9-99.3c-27.3-42.4-64.7-77.2-112.3-104.4c-5.9-3-6.8-2.7-2.8,0.9     c30.3,28.2,52.7,52.4,67.4,72.4c14.9,20.1,25.7,38.9,32.2,56.6c14,40,6.5,63.3-22.4,69.9c-33.3,6.4-76.5-5-129.8-34     c-69.9-41.8-118-81.9-144.2-120.2c-31.5-47.5-33.2-78.4-5.1-92.7c42.9-16.8,107.9-2.3,195.1,43.4c3.6,0.4,2.1-1.9-4.7-6.9     c-7.9-6.8-16.9-13.5-26.9-20.2c-44.7-29.3-87.5-45.8-128.3-49.6c-39.3-2.5-66.5,8.7-81.6,33.6c-15.3,27.4-11.8,62.5,10.5,105.2     c23.9,43.6,60.5,83.9,109.9,120.8c55.1,34.9,107.6,55.1,157.3,60.4c48,4.1,80.8-7.8,98.2-35.7"/></g><g><path d="M494,532.5c31-0.7,57.5-21,79.5-60.8c23.1-44.8,34.5-94.6,34.3-149.4c-0.4-6.6-1.1-7.2-2.2-1.9     c-9.3,40.3-19,71.8-29.1,94.6c-9.9,22.9-20.9,41.7-32.9,56.2c-27.6,32.1-51.5,37.3-71.8,15.6c-22.2-25.6-34-68.8-35.4-129.4     c1.2-81.5,11.9-143.1,32.1-185c25.3-51,51.3-68,77.7-50.8c36,28.7,56,92.3,60,190.6c1.4,3.4,2.7,0.9,3.7-7.5     c1.9-10.2,3.2-21.4,4-33.3c3-53.4-4.1-98.7-21.2-135.9c-17.5-35.3-40.8-53.2-69.9-53.8c-31.4,0.5-60,21-85.9,61.7     c-25.8,42.5-42.4,94.3-49.7,155.6c-2.7,65.2,6.1,120.7,26.3,166.5c20.4,43.6,47.1,66,80,67.2"/></g><g><path d="M128,369.6c-14.8,27.2-10.6,60.3,12.9,99.3c27.3,42.4,64.7,77.2,112.3,104.4c5.9,3,6.8,2.7,2.8-0.9     c-30.3-28.2-52.7-52.4-67.4-72.4c-14.9-20.1-25.7-38.9-32.2-56.6c-14-40-6.5-63.3,22.4-69.9c33.3-6.4,76.5,5,129.8,34     c69.9,41.8,118,81.9,144.2,120.2c31.5,47.5,33.2,78.4,5.1,92.7c-42.9,16.8-107.9,2.3-195.1-43.4c-3.6-0.4-2.1,1.9,4.7,6.9     c7.9,6.8,16.9,13.5,26.9,20.2c44.7,29.3,87.5,45.8,128.3,49.6c39.3,2.5,66.5-8.7,81.6-33.6c15.3-27.4,11.8-62.5-10.5-105.2     c-23.9-43.6-60.5-83.9-109.9-120.8c-55.1-34.9-107.6-55.1-157.3-60.4c-48-4.1-80.8,7.8-98.2,35.7"/></g><g><path d="M264,556.7c16.1,26.4,46.9,39.3,92.4,38.5c50.3-2.4,99.2-17.4,146.6-45c5.5-3.6,5.7-4.6,0.6-2.9     c-39.6,12.1-71.7,19.5-96.4,22.1c-24.8,2.9-46.5,2.8-65.1-0.4c-41.6-7.9-58.1-26-49.4-54.4c11.1-32,42.6-63.8,94.4-95.4     c71.2-39.7,129.9-61.3,176.2-64.7c56.9-3.6,84.5,10.4,82.8,41.9c-6.9,45.5-51.9,94.6-135.1,147.3c-2.2,2.9,0.6,2.7,8.3-0.6     c9.8-3.5,20.1-7.9,30.9-13.2c47.7-24.1,83.5-52.9,107.1-86.3c21.8-32.8,25.7-62,11.7-87.4c-16.1-26.9-48.2-41.4-96.3-43.5     c-49.7-1.1-102.9,10.4-159.6,34.8c-57.8,30.3-101.5,65.6-131,106c-27.6,39.5-33.6,73.8-18.2,102.9"/></g></g></g></g><g id="SvgjsG1066" featureKey="text1" fill="#000" transform="matrix(2.894774847367795,0,0,2.894774847367795,116.80561593108358,12.52960081227242)"><path d="M1.1035 20 l2.4316 -13.779 l4.4336 0 c3.5938 0 5.3809 2.1191 5.3809 5.2539 c0 3.8379 -2.1875 8.5254 -7.6855 8.5254 l-4.5605 0 z M3.2617 18.3203 l2.5098 0 c4.1211 0 5.6543 -3.8477 5.6543 -6.8164 c0 -2.2266 -1.1523 -3.6035 -3.6914 -3.6035 l-2.6367 0 z M20.214884375 10.166 c2.3145 0 3.8672 1.25 3.8672 3.7012 c0 0.36133 -0.019531 0.76172 -0.10742 1.1816 l-0.097656 0.42969 l-7.5293 0 c-0.029297 0.26367 -0.048828 0.51758 -0.048828 0.78125 c0 1.6602 1.0645 2.4414 2.4609 2.4414 c1.2012 0 2.334 -0.68359 3.0371 -1.7383 l1.582 0.42969 c-0.99609 1.7676 -2.7539 2.793 -4.6289 2.793 c-2.5195 0 -4.1504 -1.4453 -4.1504 -3.9551 c0 -3.0762 2.0703 -6.0645 5.6152 -6.0645 z M20.205084375 11.5137 c-1.8164 0 -3.0078 1.1816 -3.5547 2.6855 l5.7031 0 c0.029297 -0.19531 0.039063 -0.37109 0.039063 -0.53711 c0 -1.4648 -0.88867 -2.1484 -2.1875 -2.1484 z M33.1347625 10.3613 l1.9629 0 l-5.6445 9.6387 l-1.5234 0 l-2.2266 -9.6387 l1.8652 0 l1.4453 7.5586 z M39.287065625 20.18555 c-2.5 0 -4.209 -1.5332 -4.209 -4.0332 c0 -3.0371 2.168 -5.9766 5.7324 -5.9766 c2.5195 0 4.2188 1.5332 4.2188 4.0332 c0 3.0273 -2.1973 5.9766 -5.7422 5.9766 z M39.326165625 18.7012 c2.4219 0 3.9258 -2.334 3.9258 -4.4141 c0 -1.6211 -0.99609 -2.6367 -2.5098 -2.6367 c-2.4219 0 -3.877 2.3633 -3.877 4.4238 c0 1.6309 0.97656 2.627 2.4609 2.627 z M53.193321875 10.1758 c2.2266 0 3.8379 1.5137 3.8379 3.9941 c0 2.9688 -2.1191 6.0352 -5.3613 6.0352 c-1.543 0 -2.7246 -0.81055 -3.1348 -2.0313 l-1.1523 6.6602 l-1.7969 0 l2.5488 -14.473 l1.7285 0 l-0.24414 1.6992 c0.81055 -1.1816 2.1582 -1.8848 3.5742 -1.8848 z M51.386721875 18.6523 c2.334 0 3.8379 -2.2461 3.8379 -4.2773 c0 -1.6797 -1.0547 -2.6563 -2.5 -2.6563 c-2.3242 0 -3.8574 2.3145 -3.8574 4.2383 c0 1.6113 1.0254 2.6953 2.5195 2.6953 z M61.552740625 20.18555 c-2.1582 0 -3.4668 -1.0156 -3.4668 -2.7246 l1.6699 -0.3418 c-0.048828 1.1133 0.70313 1.7578 1.8652 1.7578 c1.1719 0 2.1582 -0.625 2.1582 -1.7676 c0 -0.9082 -0.82031 -1.1426 -2.0703 -1.4746 c-1.3379 -0.35156 -2.5879 -0.81055 -2.5879 -2.3438 c0 -2.002 1.6797 -3.1055 3.7695 -3.1055 c1.8066 0 3.252 0.81055 3.2617 2.5781 l-1.5527 0.26367 c0.048828 -1.123 -0.78125 -1.5527 -1.6797 -1.5527 c-1.1133 0 -2.0898 0.625 -2.0898 1.6797 c0 0.85938 0.89844 1.0547 1.9238 1.3086 c1.4063 0.36133 2.7832 0.84961 2.7832 2.4902 c0 2.0996 -1.748 3.2324 -3.9844 3.2324 z  M79.0429625 20.18555 c-3.4766 0 -5.8691 -2.1191 -5.8691 -5.6543 c0 -4.3555 3.1445 -8.4961 8.125 -8.4961 c2.8223 0 4.9023 1.4258 5.5859 3.7598 l-1.7969 0.58594 c-0.50781 -1.6895 -1.9629 -2.5879 -3.8672 -2.5879 c-3.7793 0 -6.2109 3.2715 -6.2109 6.6211 c0 2.5879 1.709 4.0039 4.1113 4.0039 c2.002 0 3.8672 -0.99609 4.9805 -2.6855 l1.6211 0.80078 c-1.4844 2.334 -3.9844 3.6523 -6.6797 3.6523 z M96.113328125 10.3613 l1.7871 0 l-1.6992 9.6387 l-1.6699 0 l0.20508 -1.7188 c-0.81055 1.2012 -2.1777 1.9238 -3.5938 1.9238 c-2.2266 0 -3.8379 -1.5332 -3.8379 -4.0527 c0 -2.9004 2.1582 -5.9766 5.3516 -5.9766 c1.5625 0 2.7344 0.81055 3.1348 2.0508 z M91.611328125 18.6523 c2.334 0 3.8574 -2.373 3.8574 -4.2188 c0 -1.543 -0.9668 -2.7246 -2.5293 -2.7246 c-2.3242 0 -3.8281 2.2656 -3.8281 4.2871 c0 1.6406 1.0156 2.6563 2.5 2.6563 z M102.5098125 12.001999999999999 c0.66406 -1.0059 1.9434 -1.7285 3.3008 -1.748 l-0.3418 1.7773 c-1.7578 0 -3.0957 0.9375 -3.457 3.0176 l-0.86914 4.9512 l-1.8066 0 l1.709 -9.6387 l1.748 0 z M111.406290625 10.166 c2.3145 0 3.8672 1.25 3.8672 3.7012 c0 0.36133 -0.019531 0.76172 -0.10742 1.1816 l-0.097656 0.42969 l-7.5293 0 c-0.029297 0.26367 -0.048828 0.51758 -0.048828 0.78125 c0 1.6602 1.0645 2.4414 2.4609 2.4414 c1.2012 0 2.334 -0.68359 3.0371 -1.7383 l1.582 0.42969 c-0.99609 1.7676 -2.7539 2.793 -4.6289 2.793 c-2.5195 0 -4.1504 -1.4453 -4.1504 -3.9551 c0 -3.0762 2.0703 -6.0645 5.6152 -6.0645 z M111.396490625 11.5137 c-1.8164 0 -3.0078 1.1816 -3.5547 2.6855 l5.7031 0 c0.029297 -0.19531 0.039063 -0.37109 0.039063 -0.53711 c0 -1.4648 -0.88867 -2.1484 -2.1875 -2.1484 z"/></g><g id="SvgjsG1067" featureKey="text3" fill="#000" transform="matrix(0.8064515550145704,0,0,0.8064515550145704,166.56451619105582,83.70967797343197)"><path d="M11.8 10.84 l1.74 0 l-1.72 9.16 l-1.82 0 l-2.96 -5.22 l-2.96 5.22 l-1.82 0 l-1.72 -9.16 l1.74 0 l1.28 6.76 l2.54 -4.48 l1.88 0 l2.54 4.48 z M34.032 14.379999999999999 c0.14 0.82 0.12 1.28 0.1 1.46 l-7.06 0 l0 0.04 c0.2 1.52 1.34 2.66 2.66 2.68 c0.82 -0.04 1.66 -0.38 2.24 -0.96 l1.44 0.86 c-0.36 0.4 -0.76 0.74 -1.22 1.02 c-0.7 0.42 -1.56 0.64 -2.42 0.68 c-1.2 0 -2.3 -0.5 -3.1 -1.4 c-0.72 -0.78 -1.16 -1.78 -1.24 -2.88 c-0.02 -0.14 -0.02 -0.28 -0.02 -0.42 c0 -0.36 0.04 -0.72 0.12 -1.08 c0.18 -0.84 0.58 -1.6 1.14 -2.22 c0.8 -0.88 1.92 -1.38 3.1 -1.38 c1.2 0 2.3 0.5 3.12 1.38 c0.56 0.62 0.98 1.38 1.14 2.22 z M27.212 14.4 l5.12 0 l-0.02 -0.04 c-0.4 -1.18 -1.42 -1.98 -2.54 -1.98 c-1.1 0 -2.12 0.8 -2.54 1.98 z  M69.21600000000001 11.94 c0.82 0.84 1.28 1.94 1.28 3.14 l0 4.92 l-1.72 0 l0 -4.92 c0 -1.5 -1.2 -2.74 -2.7 -2.74 c-1.48 0 -2.7 1.24 -2.7 2.74 l0 4.92 l-1.72 0 l0 -14.68 l1.72 0 l0 6.4 c0.78 -0.6 1.72 -1.06 2.7 -1.06 c1.18 0 2.3 0.44 3.14 1.28 z M90.628 11.9 l0 -1.06 l1.72 0 l0 9.16 l-1.72 0 l0 -1.06 c-0.86 0.72 -1.94 1.26 -3.08 1.26 c-1.28 0 -2.48 -0.48 -3.4 -1.38 c-0.9 -0.92 -1.4 -2.12 -1.4 -3.4 s0.5 -2.48 1.4 -3.4 c0.92 -0.9 2.12 -1.38 3.4 -1.38 c1.14 0 2.22 0.54 3.08 1.26 z M87.548 18.52 c1.7 0 3.08 -1.4 3.08 -3.1 s-1.38 -3.1 -3.08 -3.1 s-3.08 1.4 -3.08 3.1 s1.38 3.1 3.08 3.1 z M111.82000000000001 10.84 l1.86 0 l-3.72 9.16 l-1.86 0 l-3.72 -9.16 l1.86 0 l2.8 6.88 z M134.052 14.379999999999999 c0.14 0.82 0.12 1.28 0.1 1.46 l-7.06 0 l0 0.04 c0.2 1.52 1.34 2.66 2.66 2.68 c0.82 -0.04 1.66 -0.38 2.24 -0.96 l1.44 0.86 c-0.36 0.4 -0.76 0.74 -1.22 1.02 c-0.7 0.42 -1.56 0.64 -2.42 0.68 c-1.2 0 -2.3 -0.5 -3.1 -1.4 c-0.72 -0.78 -1.16 -1.78 -1.24 -2.88 c-0.02 -0.14 -0.02 -0.28 -0.02 -0.42 c0 -0.36 0.04 -0.72 0.12 -1.08 c0.18 -0.84 0.58 -1.6 1.14 -2.22 c0.8 -0.88 1.92 -1.38 3.1 -1.38 c1.2 0 2.3 0.5 3.12 1.38 c0.56 0.62 0.98 1.38 1.14 2.22 z M127.232 14.4 l5.12 0 l-0.02 -0.04 c-0.4 -1.18 -1.42 -1.98 -2.54 -1.98 c-1.1 0 -2.12 0.8 -2.54 1.98 z  M169.276 11.9 l0 -1.06 l1.72 0 l0 9.16 l-1.72 0 l0 -1.06 c-0.86 0.72 -1.94 1.26 -3.08 1.26 c-1.28 0 -2.48 -0.48 -3.4 -1.38 c-0.9 -0.92 -1.4 -2.12 -1.4 -3.4 s0.5 -2.48 1.4 -3.4 c0.92 -0.9 2.12 -1.38 3.4 -1.38 c1.14 0 2.22 0.54 3.08 1.26 z M166.196 18.52 c1.7 0 3.08 -1.4 3.08 -3.1 s-1.38 -3.1 -3.08 -3.1 s-3.08 1.4 -3.08 3.1 s1.38 3.1 3.08 3.1 z M191.208 11.94 c0.82 0.84 1.28 1.94 1.28 3.14 l0 4.92 l-1.72 0 l0 -4.92 c0 -1.5 -1.2 -2.74 -2.7 -2.74 c-1.48 0 -2.7 1.24 -2.7 2.74 l0 4.92 l-1.72 0 l0 -9.16 l1.72 0 l0 0.88 c0.78 -0.6 1.72 -1.06 2.7 -1.06 c1.18 0 2.3 0.44 3.14 1.28 z M211.26 15.9 c0.28 0.4 0.42 0.88 0.42 1.4 s-0.14 1.02 -0.44 1.44 c-0.28 0.42 -0.68 0.74 -1.22 1 c-0.48 0.22 -1.06 0.34 -1.64 0.34 c-0.32 0 -0.62 -0.04 -0.94 -0.1 c-1 -0.2 -1.94 -0.64 -2.74 -1.32 l1.08 -1.18 c1.06 0.9 1.96 1.08 2.52 1.08 c0.38 0 0.74 -0.08 1.06 -0.22 c0.26 -0.12 0.72 -0.42 0.72 -1.04 s-0.54 -1 -1.78 -1.22 c-0.06 -0.02 -1.58 -0.3 -2.14 -0.62 c-0.84 -0.48 -1.28 -1.22 -1.28 -2.14 c0 -0.5 0.16 -0.98 0.44 -1.4 c0.26 -0.36 0.62 -0.64 1.14 -0.88 c0.48 -0.22 1 -0.34 1.58 -0.34 c0.22 0 0.46 0.02 0.68 0.04 c0.88 0.14 1.74 0.52 2.46 1.1 l-1 1.16 c-0.9 -0.7 -1.68 -0.8 -2.06 -0.8 c-0.36 0 -0.7 0.06 -0.98 0.2 c-0.4 0.2 -0.66 0.56 -0.66 0.92 c0 0.6 0.48 0.92 1.7 1.18 c0.02 0 1.66 0.36 2.12 0.62 c0.54 0.28 0.74 0.5 0.96 0.78 z M234.852 10.84 l1.74 0 l-1.72 9.16 l-1.82 0 l-2.96 -5.22 l-2.96 5.22 l-1.82 0 l-1.72 -9.16 l1.74 0 l1.28 6.76 l2.54 -4.48 l1.88 0 l2.54 4.48 z M257.084 14.379999999999999 c0.14 0.82 0.12 1.28 0.1 1.46 l-7.06 0 l0 0.04 c0.2 1.52 1.34 2.66 2.66 2.68 c0.82 -0.04 1.66 -0.38 2.24 -0.96 l1.44 0.86 c-0.36 0.4 -0.76 0.74 -1.22 1.02 c-0.7 0.42 -1.56 0.64 -2.42 0.68 c-1.2 0 -2.3 -0.5 -3.1 -1.4 c-0.72 -0.78 -1.16 -1.78 -1.24 -2.88 c-0.02 -0.14 -0.02 -0.28 -0.02 -0.42 c0 -0.36 0.04 -0.72 0.12 -1.08 c0.18 -0.84 0.58 -1.6 1.14 -2.22 c0.8 -0.88 1.92 -1.38 3.1 -1.38 c1.2 0 2.3 0.5 3.12 1.38 c0.56 0.62 0.98 1.38 1.14 2.22 z M250.26399999999998 14.4 l5.12 0 l-0.02 -0.04 c-0.4 -1.18 -1.42 -1.98 -2.54 -1.98 c-1.1 0 -2.12 0.8 -2.54 1.98 z M271.51599999999996 10.84 l0 0.94 c0.58 -0.64 2.28 -1.14 3.34 -1.14 l-0.42 1.72 c-1.6 0 -2.92 1.22 -2.92 2.76 l0 4.88 l-1.72 0 l0 -9.16 l1.72 0 z M292.888 15.9 c0.28 0.4 0.42 0.88 0.42 1.4 s-0.14 1.02 -0.44 1.44 c-0.28 0.42 -0.68 0.74 -1.22 1 c-0.48 0.22 -1.06 0.34 -1.64 0.34 c-0.32 0 -0.62 -0.04 -0.94 -0.1 c-1 -0.2 -1.94 -0.64 -2.74 -1.32 l1.08 -1.18 c1.06 0.9 1.96 1.08 2.52 1.08 c0.38 0 0.74 -0.08 1.06 -0.22 c0.26 -0.12 0.72 -0.42 0.72 -1.04 s-0.54 -1 -1.78 -1.22 c-0.06 -0.02 -1.58 -0.3 -2.14 -0.62 c-0.84 -0.48 -1.28 -1.22 -1.28 -2.14 c0 -0.5 0.16 -0.98 0.44 -1.4 c0.26 -0.36 0.62 -0.64 1.14 -0.88 c0.48 -0.22 1 -0.34 1.58 -0.34 c0.22 0 0.46 0.02 0.68 0.04 c0.88 0.14 1.74 0.52 2.46 1.1 l-1 1.16 c-0.9 -0.7 -1.68 -0.8 -2.06 -0.8 c-0.36 0 -0.7 0.06 -0.98 0.2 c-0.4 0.2 -0.66 0.56 -0.66 0.92 c0 0.6 0.48 0.92 1.7 1.18 c0.02 0 1.66 0.36 2.12 0.62 c0.54 0.28 0.74 0.5 0.96 0.78 z"/></g>
			</g>
		</svg>
	