<?xml version="1.0" encoding="utf-8"?>
<!-- Generator: Adobe Illustrator 16.0.0, SVG Export Plug-In . SVG Version: 6.00 Build 0)  -->
<!DOCTYPE svg PUBLIC "-//W3C//DTD SVG 1.1//EN" "http://www.w3.org/Graphics/SVG/1.1/DTD/svg11.dtd">
<svg version="1.1" id="Layer_1" xmlns="http://www.w3.org/2000/svg" xmlns:xlink="http://www.w3.org/1999/xlink" x="0px" y="0px"
	 width="512px" height="512px" viewBox="244 244 512 512" style="enable-background:new 244 244 512 512;" xml:space="preserve">
<style type="text/css">
<![CDATA[
	.st0{fill:none;}
	.st1{fill:#402C94;}
]]>
</style>
<g id="SvgjsG1065" transform="matrix(0.14245014245014245,0,0,0.14245014245014245,6.142450142450144,10.142450142450144)">
	<g>
		<title>background</title>
		<rect x="1669.8" y="1641.7" class="st0" width="3594.2" height="3594.2"/>
	</g>
	<g>
		<title>Layer 1</title>
		<g>
			<g>
				<path class="st1" d="M2811.5,2457.3c-158.7,3.6-294.4,107.5-407,311.3c-118.3,229.4-176.6,484.4-175.6,764.9
					c2,33.8,5.6,36.9,11.3,9.7c47.6-206.3,97.3-367.6,149-484.4c50.7-117.2,107-213.5,168.4-287.7c141.3-164.4,263.7-191,367.6-79.9
					c113.7,131.1,174.1,352.3,181.3,662.5c-6.1,417.3-60.9,732.7-164.4,947.2c-129.5,261.1-262.7,348.2-397.8,260.1
					c-184.3-146.9-286.7-472.6-307.2-975.9c-7.2-17.4-13.8-4.6-18.9,38.4c-9.7,52.2-16.4,109.6-20.5,170.5
					c-15.4,273.4,21,505.4,108.5,695.8c89.6,180.7,208.9,272.4,357.9,275.5c160.8-2.6,307.2-107.5,439.8-315.9
					c132.1-217.6,217.1-482.8,254.5-796.7c13.8-333.8-31.2-618-134.7-852.5c-104.5-223.2-241.2-337.9-409.6-344.1"/>
			</g>
			<g>
				<path class="st1" d="M3989.1,2333.4c-82.4-135.2-240.1-201.2-473.1-197.1c-257.5,12.3-507.9,89.1-750.6,230.4
					c-28.2,18.4-29.2,23.6-3.1,14.8c202.8-62,367.1-99.8,493.6-113.2c127-14.8,238.1-14.3,333.3,2c213,40.4,297.5,133.1,252.9,278.5
					c-56.8,163.8-218.1,326.7-483.3,488.4c-364.5,203.3-665.1,313.9-902.1,331.3c-291.3,18.4-432.6-53.2-423.9-214.5
					c36.4-233.5,266.8-484.9,692.2-754.7c11.3-14.8-3.1-13.8-42.5,3.1c-50.2,17.9-102.9,40.5-158.2,67.6
					c-244.2,123.4-427.5,270.8-548.4,441.9c-111.6,167.9-131.6,317.4-59.9,447.5c82.4,137.7,246.8,212,493.6,222.7
					c254.5,5.6,526.8-53.2,817.2-178.2c295.9-155.1,519.7-335.9,670.7-542.7c141.3-202.2,172-377.9,93.2-526.9"/>
			</g>
			<g>
				<path class="st1" d="M4685.5,3291.3c75.8-139.3,54.3-308.7-66-508.4c-139.8-217.1-331.3-395.3-575-534.5
					c-30.2-15.4-34.8-13.8-14.3,4.6c155.1,144.4,269.8,268.3,345.1,370.7c76.3,102.9,131.6,199.2,164.9,289.8
					c71.7,204.8,33.3,324.1-114.7,357.9c-170.5,32.8-391.7-25.6-664.6-174.1c-357.9-214-604.2-419.3-738.3-615.4
					c-161.3-243.2-170-401.4-26.1-474.6c219.6-86,552.4-11.8,998.9,222.2c18.4,2,10.8-9.7-24.1-35.3
					c-40.4-34.8-86.5-69.1-137.7-103.4c-228.9-150-448-234.5-656.9-254c-201.2-12.8-340.5,44.5-417.8,172
					c-78.3,140.3-60.4,320,53.8,538.6c122.4,223.2,309.8,429.6,562.7,618.5c282.1,178.7,550.9,282.1,805.4,309.3
					c245.8,21,413.7-39.9,502.8-182.8"/>
			</g>
			<g>
				<path class="st1" d="M4204.2,4373.2c158.7-3.6,294.4-107.5,407-311.3c118.3-229.4,176.6-484.4,175.6-764.9
					c-2-33.8-5.6-36.9-11.3-9.7c-47.6,206.3-97.3,367.6-149,484.3c-50.7,117.2-107,213.5-168.4,287.7
					c-141.3,164.4-263.7,191-367.6,79.9c-113.7-131.1-174.1-352.3-181.3-662.5c6.1-417.3,60.9-732.7,164.4-947.2
					c129.5-261.1,262.7-348.2,397.8-260.1c184.3,146.9,286.7,472.6,307.2,975.9c7.2,17.4,13.8,4.6,18.9-38.4
					c9.7-52.2,16.4-109.6,20.5-170.5c15.4-273.4-21-505.3-108.5-695.8c-89.6-180.7-208.9-272.4-357.9-275.5
					c-160.8,2.6-307.2,107.5-439.8,315.9c-132.1,217.6-217.1,482.8-254.5,796.7c-13.8,333.8,31.2,618,134.7,852.5
					c104.5,223.2,241.2,337.9,409.6,344.1"/>
			</g>
			<g>
				<path class="st1" d="M2330.3,3539.2c-75.8,139.3-54.3,308.7,66,508.4c139.8,217.1,331.3,395.3,575,534.5
					c30.2,15.4,34.8,13.8,14.3-4.6c-155.1-144.4-269.8-268.3-345.1-370.7c-76.3-102.9-131.6-199.2-164.9-289.8
					c-71.7-204.8-33.3-324.1,114.7-357.9c170.5-32.8,391.7,25.6,664.6,174.1c357.9,214,604.2,419.3,738.3,615.4
					c161.3,243.2,170,401.4,26.1,474.6c-219.6,86-552.5,11.8-998.9-222.2c-18.4-2-10.8,9.7,24.1,35.3
					c40.5,34.8,86.5,69.1,137.7,103.4c228.9,150,448,234.5,656.9,254c201.2,12.8,340.5-44.5,417.8-172
					c78.3-140.3,60.4-320-53.8-538.6c-122.4-223.2-309.8-429.6-562.7-618.5c-282.1-178.7-550.9-282.1-805.4-309.3
					c-245.8-21-413.7,39.9-502.8,182.8"/>
			</g>
			<g>
				<path class="st1" d="M3026.6,4497.1c82.4,135.2,240.1,201.2,473.1,197.1c257.5-12.3,507.9-89.1,750.6-230.4
					c28.2-18.4,29.2-23.6,3.1-14.9c-202.8,62-367.1,99.8-493.6,113.2c-127,14.8-238.1,14.3-333.3-2
					c-213-40.4-297.5-133.1-252.9-278.5c56.8-163.8,218.1-326.7,483.3-488.4c364.5-203.3,665.1-313.9,902.1-331.3
					c291.3-18.4,432.6,53.2,423.9,214.5c-35.3,233-265.7,484.4-691.7,754.2c-11.3,14.8,3.1,13.8,42.5-3.1
					c50.2-17.9,102.9-40.5,158.2-67.6c244.2-123.4,427.5-270.8,548.4-441.9c111.6-167.9,131.6-317.4,59.9-447.5
					c-82.4-137.7-246.8-212-493.1-222.7c-254.5-5.6-526.9,53.2-817.2,178.2c-295.9,155.1-519.7,335.9-670.7,542.7
					c-141.3,202.2-172,377.9-93.2,526.9"/>
			</g>
		</g>
	</g>
</g>
</svg>
