<?xml version="1.0" ?><svg fill="#FFFFFF" id="Layer_1" style="enable-background:new 0 0 515 515;" version="1.1" viewBox="0 0 515 515" xml:space="preserve" xmlns="http://www.w3.org/2000/svg" xmlns:xlink="http://www.w3.org/1999/xlink"><title/><g id="Layer_2"><g id="Layer_1-2"><path d="M222.3,322.5c8.7,0.1,17.4-1.5,25.5-4.7c11.2-4.5,20.7-12.4,27.2-22.6c6.4-10.1,9.9-22.6,9.9-36.3c0-3.6-0.3-7.2-1-10.8    c-0.3-1.7-1.7-2.9-3.5-2.9h-58.1c-1.9,0-3.5,1.6-3.5,3.5v21.1c0,1.9,1.6,3.5,3.5,3.5h30.4c-0.4,1-0.8,2-1.2,2.9    c-2.2,4.5-5.6,8.4-9.7,11.2c-4.7,3.1-10.9,5.4-19.4,5.4c-9.2,0-18-3.7-24.5-10.3c-13.6-13.9-13.6-36.1,0-50    c6.4-6.6,15.2-10.3,24.5-10.3c4.7,0,9.3,0.9,13.6,2.8c3.1,1.4,6,3.3,8.5,5.7c1.4,1.3,3.5,1.3,4.9,0l16.7-16.1    c1.4-1.3,1.5-3.5,0.1-4.9c0,0-0.1-0.1-0.1-0.1c-5.7-5.3-12.3-9.6-19.5-12.5c-33.4-13.3-71.2,2.9-84.6,36.3    c-13.3,33.4,2.9,71.2,36.3,84.6C205.9,320.9,214.1,322.5,222.3,322.5L222.3,322.5z"/><path d="M301.5,269.8h14.1v14.1c0,1.9,1.6,3.5,3.5,3.5h17.6c1.9,0,3.5-1.6,3.5-3.5v-14.1h14.1c1.9,0,3.5-1.6,3.5-3.5v-17.6    c0-1.9-1.6-3.5-3.5-3.5h-14.1v-14.1c0-1.9-1.6-3.5-3.5-3.5H319c-1.9,0-3.5,1.6-3.5,3.5v14.1h-14c-1.9,0-3.5,1.6-3.5,3.5v17.6    C298,268.2,299.5,269.8,301.5,269.8z"/><path d="M257.5,465.8c115.2,0.1,208.6-93.1,208.8-208.3S373.1,48.9,258,48.7S49.3,141.9,49.2,257c-0.1,55.4,21.9,108.5,61.1,147.7    C149.3,443.9,202.3,465.8,257.5,465.8z M257.5,70.1c103.6-0.1,187.7,83.9,187.8,187.5c0.1,103.6-83.9,187.7-187.5,187.8    C154.2,445.4,70.1,361.5,70,257.9c0-49.8,19.7-97.6,55-132.9C160.1,89.8,207.8,70,257.5,70.1L257.5,70.1z"/></g></g></svg>