<svg xmlns="http://www.w3.org/2000/svg" viewBox="-12 -12 88 88">
  <path d="M61.7 37.3v.3l-.1-.6.1.3A29.3 29.3 0 0 0 60 20a29.7 29.7 0 0 0-16-16A29.5 29.5 0 0 0 32 1.6a32.1 32.1 0 0 0-5.7.5s.2 0 .3.2l-.7-.1.4-.1A18 18 0 0 0 5.2 5.3a17.8 17.8 0 0 0-3 21.3s0-.2.2-.3v.7l-.1-.4a31 31 0 0 0 2 17 29.7 29.7 0 0 0 16 16C23.8 61.2 27.8 62 32 62a28.2 28.2 0 0 0 5.3-.5l-.3-.2.6.1h-.3A17.2 17.2 0 0 0 46 64a17.9 17.9 0 0 0 15.6-26.6zm-29.6 13c-10.8 0-15.6-5.3-15.6-9.2 0-2 1.6-3.5 3.6-3.5 4.6 0 3.4 6.7 12 6.7 4.3 0 6.8-2.4 6.8-4.8 0-1.5-.8-3.1-3.6-3.8l-9.6-2.4c-7.7-1.9-9-6-9-10 0-8.1 7.6-11.1 14.7-11.1 6.6 0 14.4 3.6 14.4 8.5 0 2-1.8 3.2-3.9 3.2-4 0-3.2-5.4-11-5.4-4 0-6.1 1.7-6.1 4.3s3 3.3 5.8 4l7 1.5c7.8 1.8 9.8 6.2 9.8 10.5 0 6.6-5 11.5-15.3 11.5zm4.9 11c0 .2.1.2.3.3l.3-.1zm24.6-23.7l.1-.3-.1-.4zM2.3 26.3l-.1.3.2.4zm24.3-24l-.3-.1H26z" fill="#00aff0"/>
</svg>
