<?xml version="1.0" ?><svg id="Layer_1" style="enable-background:new 0 0 515 515;" version="1.1" viewBox="0 0 515 515" xml:space="preserve" xmlns="http://www.w3.org/2000/svg" xmlns:xlink="http://www.w3.org/1999/xlink"><title/><g id="Layer_2"><g id="Layer_1-2"><polygon points="273.9,291.5 273.9,291.5 273.9,291.5   "/><polygon points="244.6,293.8 244.6,293.8 244.6,293.8   "/><polygon points="277,268.8 277,268.8 277,268.8   "/><path d="M176.8,257.5c0,44.5,36,80.7,80.5,80.7c3.8,0,7.7-0.3,11.5-0.8c23.9,13.9,54.6,5.8,68.6-18.1c9.1-15.6,9.1-34.9,0-50.5    c6.3-44.1-24.3-84.9-68.4-91.2c-7.6-1.1-15.3-1.1-22.8,0c-24-13.9-54.7-5.8-68.6,18.1c-9.1,15.6-9.1,34.9,0,50.5    C177.1,249.9,176.8,253.7,176.8,257.5z M272.8,212.9c3.8,1.1,7.4,2.9,10.5,5.3c2.4,1.8,4.4,4.1,5.9,6.6l0,0    c1.1,1.9,1.7,4.1,1.8,6.3c0,0.7-0.1,1.4-0.4,2.1c-0.3,0.7-0.8,1.4-1.4,2l0,0c-0.5,0.6-1.2,1-1.9,1.4c-0.8,0.3-1.6,0.5-2.4,0.4l0,0    c-0.8,0-1.5-0.1-2.3-0.3c-0.4-0.1-0.8-0.3-1.1-0.6l0,0c-1.4-1.4-2.5-3-3.4-4.7l0,0c-1.8-3.7-4.4-6.9-7.6-9.4    c-1.9-1.4-4-2.4-6.3-2.9c-2.7-0.6-5.5-0.9-8.2-0.9h-0.2c-2.7,0-5.4,0.3-8.1,0.9c-2.4,0.6-4.7,1.6-6.7,2.9l0,0    c-1.9,1.2-3.5,2.8-4.7,4.6c-1.1,1.8-1.7,3.9-1.7,6l0,0c0,1.3,0.2,2.5,0.6,3.7c0.4,1.2,1,2.3,1.8,3.3c1.6,1.9,3.5,3.4,5.7,4.4l0,0    c2.1,1.1,4.3,1.9,6.6,2.6c2.1,0.6,5.5,1.4,10.2,2.5h0.1c5.7,1.2,10.9,2.6,15.6,4.1c4,1.2,7.8,3,11.3,5.2l0,0    c2.8,1.8,5.1,4.3,6.8,7.2l0,0c1.7,3.3,2.5,7,2.4,10.8l0,0l0,0c0.1,5-1.4,9.8-4.3,13.9l0,0c-2.8,4.1-7,7.3-12.8,9.8l0,0    c-5.8,2.4-12.7,3.7-20.9,3.7c-9.9,0-17.8-1.7-23.8-5c-4.2-2.2-7.7-5.4-10.4-9.3l0,0c-1.2-1.7-2.3-3.6-3-5.6    c-0.6-1.7-0.9-3.4-0.9-5.1c0-0.7,0.1-1.4,0.4-2c0.3-0.7,0.7-1.3,1.3-1.8c0.6-0.5,1.3-1,2-1.2c0.8-0.3,1.7-0.4,2.6-0.4    c0.7,0,1.4,0.1,2,0.3c0.6,0.2,1.1,0.5,1.6,0.9c1.3,1.3,2.4,2.9,3,4.6l0,0c1.2,2.9,2.8,5.7,4.6,8.3l0,0c2,2.6,4.6,4.6,7.6,6    c3.4,1.6,7.5,2.3,12.3,2.3c3.1,0,6.2-0.3,9.3-1.1c2.7-0.7,5.3-1.9,7.7-3.5c2.2-1.4,4-3.3,5.3-5.5c1.2-2.2,1.9-4.6,1.9-7.1    c0-1.9-0.3-3.8-1-5.5c-0.7-1.7-1.8-3.3-3.1-4.5c-2.7-2.5-5.9-4.3-9.4-5.3c-3.5-1.1-8-2.2-13.6-3.4l0,0c-6.2-1.3-12.3-3.1-18.1-5.5    c-4.2-1.7-7.9-4.4-10.7-7.9c-1.2-1.6-2.2-3.4-2.8-5.3c-0.7-2.2-1-4.4-1-6.7c0-2.2,0.3-4.4,1-6.5c0.7-2,1.7-4,3-5.7    c2.7-3.6,6.6-6.4,12.1-8.4l0,0c6.3-2.2,13-3.3,19.7-3.1C262.4,210.7,267.7,211.4,272.8,212.9L272.8,212.9z"/><path d="M257.5,465.8c115.2,0.1,208.6-93.1,208.8-208.3S373.1,48.9,258,48.7S49.3,141.9,49.2,257c-0.1,55.4,21.9,108.5,61.1,147.7    C149.3,443.9,202.3,465.8,257.5,465.8z M257.5,70.1c103.6-0.1,187.7,83.9,187.8,187.5c0.1,103.6-83.9,187.7-187.5,187.8    C154.2,445.4,70.1,361.5,70,257.9c0-49.8,19.7-97.6,55-132.9C160.1,89.8,207.8,70,257.5,70.1L257.5,70.1z"/><polygon points="267.6,263.5 267.6,263.5 267.6,263.5   "/><polygon points="237,239.9 236.9,239.8 236.9,239.8   "/></g></g></svg>