<?xml version="1.0" ?><svg id="Layer_1" style="enable-background:new 0 0 515 515;" version="1.1" viewBox="0 0 515 515" xml:space="preserve" xmlns="http://www.w3.org/2000/svg" xmlns:xlink="http://www.w3.org/1999/xlink"><title/><g id="Layer_2"><g id="Layer_1-2"><path d="M193.7,324.7h127.6c17,0,30.7-13.7,30.7-30.7l0,0v-73c0-16.9-13.7-30.7-30.7-30.7c0,0,0,0,0,0H193.7    c-16.9,0-30.7,13.7-30.7,30.7c0,0,0,0,0,0v73C163,311,176.7,324.7,193.7,324.7L193.7,324.7L193.7,324.7z M242.8,281.8v-55.5    l42.1,27.7L242.8,281.8z"/><path d="M257.5,465.8c115.2,0.1,208.6-93.1,208.8-208.3S373.1,48.9,258,48.7S49.3,141.9,49.2,257c-0.1,55.4,21.9,108.5,61.1,147.7    C149.3,443.9,202.3,465.8,257.5,465.8z M257.5,70.1c103.6-0.1,187.7,83.9,187.8,187.5c0.1,103.6-83.9,187.7-187.5,187.8    C154.2,445.4,70.1,361.5,70,257.9c0-49.8,19.7-97.6,55-132.9C160.1,89.8,207.8,70,257.5,70.1L257.5,70.1z"/></g></g></svg>