<?xml version="1.0" encoding="utf-8"?>
<!-- Generator: Adobe Illustrator 16.0.0, SVG Export Plug-In . SVG Version: 6.00 Build 0)  -->
<!DOCTYPE svg PUBLIC "-//W3C//DTD SVG 1.1//EN" "http://www.w3.org/Graphics/SVG/1.1/DTD/svg11.dtd">
<svg version="1.1" id="borders-cats-src" xmlns="http://www.w3.org/2000/svg" xmlns:xlink="http://www.w3.org/1999/xlink" x="0px"
	 y="0px" width="2834px" height="283px" viewBox="0 0 2834 283" enable-background="new 0 0 2834 283" xml:space="preserve">
<path fill="#033649" d="M0,283V161.8c0,0,11.3-15,17-21.5c7.1,21,32.2,33.3,51.9,23.1c15.5-8.1,18.3-32.3,31.2-19.4
	c7.5,7.5,14.6-10.7,19.1-16.3c6.8-8.4,21.7,5.5,29.4,7.6c24.2,6.4,38.6-4.7,59.6-11.7c7.4,18.9,16.8,37,30.6,52.1
	c10.6-15,17.8-31.8,25.9-48.2c5.6-11.3,24.6,10.5,31.2,13.9c17.4,9,25.5,13.5,31.9-6.2c5.1-15.8,7.4-39.2-3.3-53.2
	c-7.4-9.6-27.3-18.7-32.2-27.5c-12.9-23.6,33.4-13,40.9-7.5c13.6,10,22.1,24.1,26.1,40.3c1.1,4.2,0.9,40.9,1.3,41.1
	c10.1-14.6,7.9-15.3,23.4-5.7c21.3,13.5,38.7-3.9,52-17.8c10.2,18.6,20.4,37.3,30.7,55.9c10.4-14.2,17.4-33.2,20.7-50.4
	c3-13.3,14.4-0.6,18.6,2.3c12.1,8.4,9.5-9.4,12.2-17.4c6.4-19.1,24.7-29.2,38.7-42.1c4.4-3.9,34.5-52,38.3-15.8
	c2.2,20.2-17,33.6-30.3,44.5c-7.6,6.1-17.4,11.3-21.1,21c-3.9,10.3-2.1,21.4,10.6,16.1c10-4.1,23.8-29.4,24.5-8.1
	c0.6,19.7,5.1,46.1,15.2,63.1c14.9-11.9,6.6-65.7,29.4-49c11.1,8.1,27.7,9.6,40.8,7.3c12.7-2.3,18.6-14.9,30.1-17.1
	c0.9,13.3-1.4,68.1,15.6,70.4c7.8,1.1,15.9-67.4,18.6-74.7c23,6.6,42.2,26.9,68.1,7.9c12.9-9.5,18.8-19.4,24.6,1.7
	c2.5,9,3.9,31.8,12.7,36.7c6.1-30.3,1.2-34.3,29.1-22.4c24.9,10.6,44.3,0,63.8-14.2c10.6,16.9,13.9,40.2,31.6,51.9
	c12.4-17.4,20.7-36.1,27.8-56.3c9.5-26.8,15.9-4.8,38.6-2c9.6,1.2,19.6-0.1,28.3-4.4c3.8-1.9,14.3-13.5,19.1-12
	c9.6,3,9.7,50.7,17.6,60.6c8.4-6.7,2.4-30.9,8.4-34.2c5.1-2.9,27.9,11.1,35.2,11.6c19.2,1.3,34.8-7.6,51.4-15.9
	c11.8-5.9,14.2,10.8,22.5,16.7c11.1-31.4-26.1-43.4-29-73.4c-2.4-23.8,14.8-60,41.5-63.1c29.9,4.6-21.9,48.5-5.5,71.8
	c9.4,13.2,24.8,28.8,29.1,44.8c1.6,5.8-3.4,45.1-3.1,45.3c8-16,11.5-34.6,16.5-51.8c30.7,19.8,52.8,20.1,74.6-10.7
	c10.6,7.1,16.5,26.4,23.5,36.7c11.3,16.9,29.4,11,48.1,11c-5.5,32.9,28.1,35.2,52.5,25.1c2.1,6.9,4.3,13.7,6.5,20.6
	c14.2-9.5,6.2-36,17.9-43.6c23.4,13.6,57.4,17.2,79.9-0.5c6.9-5.2,12.2,14.4,14.1,18.3c8,15.6,9.1,20.2,26.3,21.5
	c28.7,2.2,22.4-9.7,12.2-32.3c-9.7-21.2-8.5-46.7-0.7-68.4c5.2-14.6,41.5-59.1,61-36.4c9.8,11.5-33.7,40.2-38,54.8
	c-4.7,15.7-1.6,53.4,18.5,58.8c2.5-6.2,6.8-37.9,17.7-32.5c22.9,11.9,42.6,14.7,66.9,5.2c5,17.6-0.8,36.9,15.3,44.9
	c16.5,8,25.7-1,41.4-2.8c14.1-1.7,11.6-3.2,14.6-20.8c2.3-13.1,1.9-25.2,3.1-38.1c0.8-8.2,21,1.6,25,2.3
	c25.3,4.7,47.6-0.7,68.1-15.8c7.9,13.1,7,31.5,17.5,43.2c32.4-39-36.7-86.3,9.5-126.2c9.3-8,44.6-32.8,56.2-16
	c7.1,10.4-32.3,28.2-38.1,34.6c-16.2,17.9-8.1,40.3,1.7,59.5c12.8,24.4-5.2,39.6-6.8,62.8c-1.4,20.3,39.1,3.6,48.3-4.7
	c8.6-7.8,14.7,31.4,18.3,35.9c12.3-12.3,3.8-34.1,15.4-45.7c7.2-7.4,13.8-30,13.8-39.9c18.4,12.9,35.6,18.1,58,12.4
	c3.2-0.8,21.3-10.7,18.7-0.7c-1.4,5-6.5,37.8-0.3,39.9c11-10.2,14.2-46.9,26.5-52.1c8-3.4,20.5,4,29.8,1.8
	c13.7-3.2,26.7-9.8,39.5-15.5c10.8,25.2,7.5,57.6,34.5,73.8c9.6-12.5,18.6-25.5,26.5-39.2c8.8-15.4,7.1-33.9,25.6-27
	c30.2,11.2,55.6,9.2,85.8,0.7c2.4,19.1-0.1,38.1,4.3,57c43.3-33-10.2-59.4,13.5-95.8c8.1-12.4,25.1-23.6,40.2-25.2
	c15.8-1.6,44.5,24.7,24.1,24.7c-16.8,0-27.9-7.3-41.5,8.5c-15.9,18.4,9.6,35,8.6,55.4c-0.4,8.8-21.6,40.3-12.1,41.8
	c24.5,3.4,42.2-3.6,63.1-14c1.4,3.1,2.6,8.3,5.5,10.7c8.1-6.5,12.3-25,16.6-34.3c7-14.8,22.2-4.8,35.5-3
	c14.1,1.7,39.2-17.6,48.5-14.5c6.7,2.2,6.3,50.4,9.3,59.8c20.4-10.2,40.2-34.1,33.3-58.1c-3.8-13.3-60.4-53.3-26.3-62.4
	c16.3-4.4,40.7,33.6,45.1,45.3c5.2,14,7.1,28.7,0.8,42.7c-2.2,4.9-24.9,31-22.1,35.2c8.5,12.6,51.8-4.5,60.9-10.5
	c10.9-6.9,10.6-9.8,17.3,4.6c2.1,5.3,17.1-15.9,18.2-17.1c12.2-14,20.8-36.5,39.1-23.9c22.8,15.7,66.1-11.8,66.1-11.8V283H0z"/>
<path fill="#FFFFFF" d="M1130.7,154.1c41.8,2,34.2,59.8-3.9,64.6C1076.8,225,1085.5,154.1,1130.7,154.1
	C1140.9,154.6,1121,154.1,1130.7,154.1z M1120.8,185.5c0.2-6-12.2-6.8-12.2-0.7C1108.6,190.1,1120.8,192,1120.8,185.5
	C1120.9,182.5,1120.8,187.9,1120.8,185.5z"/>
<path fill="#FFFFFF" d="M71,222.3c0.9,25.6-57.5,59.3-64.8,29.6C-4.3,207.6,71,177.2,71,222.3C71.8,244.3,71,214.2,71,222.3z
	 M55.6,219.2c0-9.3-16-5.1-15.3,1.2C41,227,54.5,225,55.6,219.2C55.6,216.3,55.1,221.8,55.6,219.2z"/>
<path fill="#FFFFFF" d="M441.1,218.2c-1.2,32.4-61.2,55.9-67.5,16.6C367.8,200.2,441.1,179.6,441.1,218.2
	C440.5,234.5,441.1,212.7,441.1,218.2z M416.9,237.9c0-7.8-13.4-6.6-13.4,0.4C403.5,247.2,416.7,245.9,416.9,237.9
	C416.9,234.6,416.8,241.8,416.9,237.9z"/>
<path fill="#FFFFFF" d="M2262.4,218.4c-1.9,33.3-66.5,52.4-62.8,9.5C2202.6,192.8,2252.9,181.5,2262.4,218.4
	C2261.9,227.4,2261.5,214.9,2262.4,218.4z M2220.6,221.3c-9.8,0-13.9,12.9-2.5,12.9C2227.5,234.2,2231.3,221,2220.6,221.3
	C2215.2,221.3,2224.8,221.2,2220.6,221.3z"/>
<path fill="#FFFFFF" d="M2634.6,256.7c-16.2,2.3-20.9-18.7-16.9-30.2c5.9-17.6,22.9-23,38.7-29.3c20.6-8.4,22.1,29.8,16.1,40.2
	C2664.4,251.3,2649.9,256.7,2634.6,256.7C2628.9,257.5,2635.5,256.7,2634.6,256.7z M2656.4,223.1c6.7,0,15.7-10.9,5.7-13.6
	C2651,206.7,2644.5,223.3,2656.4,223.1C2660.9,223.1,2649.7,223.2,2656.4,223.1z"/>
<path fill="#FFFFFF" d="M295.8,212.9c-0.3-28.1,61-51.7,64.7-18.1C364,228.2,302.7,251,295.8,212.9
	C295.7,203.8,296.6,217.3,295.8,212.9z M342.1,209.5c0-8-14.5-6-14.7,1C327.1,219,342.1,217.3,342.1,209.5
	C342.1,206.5,342.1,212.6,342.1,209.5z"/>
<path fill="#FFFFFF" d="M2393.6,228.1c0-41.7,69.9-39.5,63-10.8C2451.2,243.4,2393.6,260.7,2393.6,228.1z M2436.1,229
	c9.9,0.2,12.1-11.6,1.6-11.9C2430,216.9,2427,229,2436.1,229C2440.2,229.1,2432.5,229,2436.1,229z"/>
<path fill="#FFFFFF" d="M971.2,204.2c39.5-0.7,16.1,56.5-17.4,53.4C912.8,253.8,941.5,204.5,971.2,204.2
	C977,204.1,959.5,204.3,971.2,204.2z M968.1,233.6c0,7.3,13.7,6.2,13.7-0.6C981.8,225,967.9,226.3,968.1,233.6
	C968.1,236.4,968,230.6,968.1,233.6z"/>
<path fill="#FFFFFF" d="M1722.7,246c-0.4-38.2,72-38.2,63.6-11.5C1778.9,258.2,1725.2,284,1722.7,246
	C1722.6,235.7,1722.8,247.5,1722.7,246z M1738.3,239.9c-0.4,7.6,12.5,3.6,14.4-0.7C1756.4,230.5,1737.4,230.2,1738.3,239.9
	C1738.2,241.6,1738,236.5,1738.3,239.9z"/>
<path fill="#FFFFFF" d="M1963.3,220.5c-1,30.1-66.8,43.4-62.9,7.2C1903.3,199.8,1963.3,183.5,1963.3,220.5
	C1963.2,223.5,1963.3,210.9,1963.3,220.5z M1941.1,214.5c7.4,0,12.7-10.9,3.3-11.9C1935.3,202.6,1932.7,215.3,1941.1,214.5
	C1944.7,214.5,1939.1,214.7,1941.1,214.5z"/>
<path fill="#FFFFFF" d="M1530.4,208.7c-1.8,27.1-54.2,36.2-62.5,9C1458.3,186.6,1531.2,167.6,1530.4,208.7
	C1529.8,217.7,1530.7,192.9,1530.4,208.7z M1514.8,199.2C1493.5,175.6,1508.6,227,1514.8,199.2
	C1513.9,198.2,1514.2,201.9,1514.8,199.2z"/>
<path fill="#FFFFFF" d="M1177.5,152.7c47.6,0.4,29.9,79.1-10.7,58.2c-14.9-7.7,1.1-21.6-2.5-35.1
	C1159,155.3,1151.4,156.2,1177.5,152.7C1188.4,152.8,1171.6,153.5,1177.5,152.7z M1176.9,181.5c-6.5,0-6.8,8.5-0.1,8.5
	C1183.4,190,1183.5,181.7,1176.9,181.5C1174.1,181.5,1179.7,181.6,1176.9,181.5z"/>
<path fill="#FFFFFF" d="M1312.6,233.2c-2,27.1-53.7,39.7-59,8.7C1248.2,208.7,1308.5,196.9,1312.6,233.2
	C1311.9,242.9,1311.7,225.2,1312.6,233.2z M1284.8,223.9c0-5.7-10.5-5.7-10.5,0C1274.3,229.6,1284.8,229.7,1284.8,223.9
	C1284.8,221.5,1284.8,226.4,1284.8,223.9z"/>
<path fill="#FFFFFF" d="M1660.5,212.7c49.2,3.3,24.9,51.9-12.9,46.1C1609.9,253.1,1630.6,211.4,1660.5,212.7z M1643.7,250.3
	c11.9,0,13.9-14.3,3.1-13.8C1639.5,236.8,1632.6,250.3,1643.7,250.3z"/>
<path fill="#FFFFFF" d="M1912.9,168c-0.5,26.5-55.2,48.7-58.8,13C1851,149.5,1912.9,131.1,1912.9,168
	C1912.8,173.4,1912.9,158.2,1912.9,168z M1874.7,191.6c2.7,5.3,10.6-5.4,9.9-7.7C1880.6,170.5,1863.8,191.6,1874.7,191.6
	C1874.8,191.8,1872.3,191.6,1874.7,191.6z"/>
<path fill="#FFFFFF" d="M436.8,244.3c7.2-15.7,12.1-25.7,2.7-42.1c-5.3-9.3,36.3-5.6,41.5-1.7C509.3,222.2,465.6,268.3,436.8,244.3
	C439.1,239.3,438.6,245.8,436.8,244.3z M452.3,239.8c-1.3,11.7,13.4-1,13.9-1.7C467.8,236.5,452.3,228.1,452.3,239.8
	C452.1,241.6,452.3,237,452.3,239.8z"/>
<path fill="#FFFFFF" d="M726.6,175.6c0-31.1,46.4-37.3,53.1-4.6C784.9,196.8,726.6,214.2,726.6,175.6
	C726.6,167.2,726.6,181.4,726.6,175.6z M749,171.8c-4.1-4.1-9-4-12.2,1.4C733.5,179.3,749,180.9,749,171.8
	C748.7,171.5,749,175.1,749,171.8z"/>
<path fill="#FFFFFF" d="M2333.1,152.9c-0.5,29.7-57.7,43.9-56.3,12.1C2277.8,139.9,2333.1,118,2333.1,152.9
	C2333,159.1,2333.1,151.9,2333.1,152.9z M2323.1,156.9c0.2-7.5-10.6-4.8-12.9-0.9C2304.1,166.5,2322.8,165.2,2323.1,156.9
	C2323.2,153.7,2323,159.7,2323.1,156.9z"/>
<path fill="#FFFFFF" d="M116.7,221.5c-2.1,13.1-7.4,29.3-22.1,33c-22.5,5.8-26.3-3.2-20.2-18.8c4-10.1-7.3-30.7,2.8-34.2
	C91.8,196.4,116.5,202.9,116.7,221.5C115.1,231.6,116.6,213.4,116.7,221.5z M100.4,212c-10.1,0-11.1,11.1-5.3,10.7
	C100.9,222.3,114.6,212,100.4,212z"/>
<path fill="#FFFFFF" d="M902.8,175.7c0,24.3-47.4,51-50.9,18C848.5,162.1,905.7,146.6,902.8,175.7
	C902.8,192.1,903.9,164.6,902.8,175.7z M888,178.1c-6.9,0.3-7.9,9.2-0.4,9.2C894.6,187.1,895.3,177.8,888,178.1
	C885.3,178.2,890.3,178,888,178.1z"/>
<path fill="#FFFFFF" d="M1551.6,230.2c-3.8-0.9-24.4-2.5-22.5-9c4.1-14.1-5.6-33.5,9.6-39.1c12.2-4.5,40.6-1.9,37.6,17.5
	c-1.4,9.3-1.6,15.6-7.7,23.6C1567.6,224.6,1551.6,233.6,1551.6,230.2C1547.1,229.2,1551.6,230,1551.6,230.2z M1553.4,201
	c8.5,0.2,9.5-9.6,1.5-9.6C1548.7,191.4,1545.1,200.8,1553.4,201C1557.4,201.1,1549.9,200.9,1553.4,201z"/>
<path fill="#FFFFFF" d="M1250.2,249.9c-29.8,14.9-58.6-18.3-26.3-37.8c6.4-3.9,35.9-11.9,39.2,0.1
	C1265,219.3,1247.4,236.2,1250.2,249.9C1243,253.5,1248.6,242.1,1250.2,249.9z M1234.3,224.9c6.6,0,7.3-8.6,0.5-8.6
	C1228.5,216.3,1227.6,224.9,1234.3,224.9z"/>
<path fill="#FFFFFF" d="M2721.1,223.7c-1.1,27.8-58.6,43.2-43.7,10.7c6.3-14.1-7.8-29.4,11.8-32.1
	C2702.7,200.5,2720.1,208.5,2721.1,223.7C2720.8,231,2720.6,215.8,2721.1,223.7z M2704.1,215.6c-0.3-9.5-14.6-6.2-14.9,1.6
	C2688.8,224,2704.1,223,2704.1,215.6C2704,212.8,2704.1,218.2,2704.1,215.6z"/>
<path fill="#FFFFFF" d="M514.3,138.8c14.2,0.1,23.6,11.9,19.9,25.5c-4.5,16.7-22.2,20.2-37.1,19.2c-10.8-0.8-11.2-13-11-21.4
	C486.4,147.6,502.3,140.6,514.3,138.8C524.6,138.9,513,139,514.3,138.8z M512.8,157.8c-7.4,0.4-7.5,8.9-0.3,8.6
	C518.3,166.2,518.7,157.5,512.8,157.8C508.8,158,515,157.7,512.8,157.8z"/>
<path fill="#FFFFFF" d="M1036.2,226.8c-0.7,17-16.2,28.7-32.9,27c-25.2-2.5-4.4-14.9-5.4-30.5c-1-15.1-5.5-23.4,15.8-20
	C1027.3,205.4,1033.5,214.2,1036.2,226.8C1035.8,236.8,1035.9,225.4,1036.2,226.8z M1018.9,238.9c8.3,0,8.3-11.8,0.6-11.4
	C1011,227.5,1009.9,238.4,1018.9,238.9C1021.8,238.9,1017,238.8,1018.9,238.9z"/>
<path fill="#FFFFFF" d="M1831.1,233.4c-0.9,38.2-51,21.7-48.5,16.7c4.2-8.6,4.9-32.9,13.1-36
	C1812.1,208.1,1828.1,217.3,1831.1,233.4C1830.8,245.7,1830.8,231.8,1831.1,233.4z M1800.2,244.2c11.5-1.6,7.6-6.4,2.4-11.1
	C1799.3,229.8,1788.3,244.2,1800.2,244.2C1803.1,243.8,1796.3,244.2,1800.2,244.2z"/>
<path fill="#FFFFFF" d="M1439.7,213.2c0.2,24.2-43.3,46-45.9,12.5C1391.7,197.8,1439.7,176.8,1439.7,213.2
	C1439.8,227,1439.7,212.7,1439.7,213.2z M1415.2,213.5c3.9-0.9,6.4-3.2,7.3-6.9C1419.1,196.5,1402.3,211.8,1415.2,213.5
	C1417.9,213.3,1412.9,213.2,1415.2,213.5z"/>
<path fill="#FFFFFF" d="M258.1,200c0.2-14,8.9-24,21.3-29.6c5.5-2.5,42.5,1.7,32.1,11.7c-5.6,5.1-12.2,9.8-16.5,16.2
	c-3.2,4.7-1.9,13.2-6,16.6C277.8,224,259.3,212,258.1,200C258.3,186.1,258.2,201,258.1,200z M285.2,199.2c0.9,0,9.4-4,6.5-6.9
	C284.2,184.3,274.5,198.8,285.2,199.2C288.1,199.2,282.8,199.1,285.2,199.2z"/>
<path fill="#FFFFFF" d="M2498,218.2c-0.3,28.9-56.5,39.7-41.8,8.9c3.8-7.9-0.8-25.8,6.2-28.7C2475,192.9,2498.6,202.6,2498,218.2
	C2497.9,227.2,2498.2,213.4,2498,218.2z M2485.3,225.1c0-6.5-9.5-4.1-12.2-1.5C2463.3,233,2485.3,237.2,2485.3,225.1
	C2485.3,222.1,2485.3,230.2,2485.3,225.1z"/>
<path fill="#FFFFFF" d="M2001.7,216.3c-0.3,35.3-55.6,42.7-37.8,12.9c7-11.6-7.5-25.2,7.7-29.9
	C1982.4,195.9,2002.8,201.8,2001.7,216.3C2001.6,226.6,2002.1,210.9,2001.7,216.3z M1979.9,215.3c8.5,0,8.6-11,0.6-11
	C1973.3,204.3,1971.3,215.3,1979.9,215.3z"/>
<path fill="#FFFFFF" d="M1282,184.6c-29.6,0-28.9-40.1,0.9-40.6C1318,143.3,1313.9,184.6,1282,184.6z M1282.3,168.2
	c0,5.7,10.5,5.7,10.5,0C1292.8,162.5,1282.3,162.5,1282.3,168.2z"/>
<path fill="#FFFFFF" d="M2181,248.5c-37.5,0-12.7-56.3,17.8-53.9c19.3,1.5,3.8,17-0.8,27.2C2191,237.6,2206.1,248.5,2181,248.5z
	 M2187,224c0-9.5-18.9-3.1-16.3,3.5C2173.8,235.5,2187.2,232.9,2187,224C2187,220.7,2187.1,228.8,2187,224z"/>
<path fill="#FFFFFF" d="M2375.6,158.6c2.6,35.8-49.9,22-44,12.5c7.9-12.1-1.3-32.3,18.2-34C2362.3,136,2376.5,145.4,2375.6,158.6
	C2376.5,171,2375.9,154.2,2375.6,158.6z M2359.2,156.4c-8.7,0-9.2,11-1.3,11C2364.6,167.4,2367.6,156.4,2359.2,156.4z"/>
<path fill="#FFFFFF" d="M1074,155.2c0,23-44.2,31.5-48,7.7c-2.4-15.4,13.5-27.2,27.3-27.8C1058.3,134.8,1084.5,149.9,1074,155.2
	C1074,167.4,1074.2,155.1,1074,155.2z M1043,159.2c-7.2,0-9,9.4-1.2,9.4C1048.9,168.8,1050.8,159.4,1043,159.2
	C1039,159.2,1046.6,159.3,1043,159.2z"/>
<path fill="#FFFFFF" d="M941.4,181.3c-0.9,29.7-51.7,34.1-37.9,9.9c5.3-9.4-2.3-29.4,5.6-32.5C925,152.6,938.9,167.1,941.4,181.3
	C941.1,190.7,941.1,179.6,941.4,181.3z M930.4,183.6c-2.8-3.7-14-2.3-11,3.5C922.3,193.8,930.4,188.3,930.4,183.6
	C930.1,183.2,930.4,186,930.4,183.6z"/>
<path fill="#FFFFFF" d="M2784.7,198.4c-30.4-0.5-9.6-45.8,18.7-42.4c14.7,1.8,16.8,18,9.7,28.2
	C2806.1,194.2,2796,196.5,2784.7,198.4C2778.8,198.3,2785.3,198.3,2784.7,198.4z M2790.7,174.2c-3.8,0-18.5,10.5-7.2,12
	C2791.8,187.4,2798.6,173.8,2790.7,174.2C2785.7,174.2,2792.9,174.1,2790.7,174.2z"/>
<path fill="#FFFFFF" d="M776.8,190.3c10.3-21.2-3.2-52.4,31.8-35.8C838.6,168.1,803.1,208.4,776.8,190.3
	C778.6,186.6,784.2,195.4,776.8,190.3z M793.9,179C807.5,167.2,782.3,171.4,793.9,179C795.4,177.7,788.7,175.6,793.9,179z"/>
<path fill="#FFFFFF" d="M1630.6,220.8c-9.7,10.9-11.4,23.8-1,35c-11.6,9.7-42.9,9.9-43.1-11C1586.2,224.9,1614.5,210.7,1630.6,220.8
	C1620.2,232.5,1629,219.8,1630.6,220.8z M1607.8,256.2c8.4,0,11.1-11,1.9-11.3C1602.6,244.7,1598.5,256.2,1607.8,256.2z"/>
<path fill="#FFFFFF" d="M653.3,250.3c-31.5,0-19.7-36.1,6.2-37.1C688.3,211.7,681.2,250.3,653.3,250.3z M661.2,224.7
	c-7.1,0-5.3,9.3,1.1,9.5C670.7,234.4,669.5,224.9,661.2,224.7C657.8,224.7,666.3,224.8,661.2,224.7z"/>
<path fill="#FFFFFF" d="M531.3,179.7c8.5-15.4,3.9-55.2,34.5-35.2C591,160.9,555.3,195.2,531.3,179.7
	C532.8,177,536.7,183.2,531.3,179.7z M557.7,164.6c0-5.7-10.4-5.8-10.4-0.2C547.3,170.1,557.5,170.3,557.7,164.6
	C557.7,162.2,557.6,167,557.7,164.6z"/>
<path fill="#FFFFFF" d="M1391.8,189.5c14.1,2.1,16,3.7,7.2,14.9c-9,11.5-2,26-16.4,30.5C1348.1,245.8,1363.5,195.2,1391.8,189.5
	C1395.2,190,1389.3,190,1391.8,189.5z M1382,208.3c3.3-0.1,5.4-1.8,6.2-4.9C1387.3,194,1372.7,208.3,1382,208.3z"/>
<path fill="#FFFFFF" d="M1348.4,166.6c0.3,24.6-53.1,31.3-34.9,2c7.3-11.7-13.9-21.5,8.1-23.7C1334.4,143.6,1347.1,154,1348.4,166.6
	C1348.5,173.8,1348.3,165.6,1348.4,166.6z M1330.1,174.5c0-5.7-10.4-5.9-10.4-0.2C1319.7,180,1330.1,180.1,1330.1,174.5z"/>
<path fill="#FFFFFF" d="M1852.6,191.8c-23,3.4-54.6-11.4-24.6-34c5.4-4,27.5-10.5,31.4-0.6C1861.2,162,1850.6,181.8,1852.6,191.8
	C1846.6,192.7,1852.4,190.8,1852.6,191.8z M1844.4,183.1c0-7.6-13.8-5-13.6,1.3C1830.8,192,1844.4,192.3,1844.4,183.1
	C1844.4,180,1844.4,186.8,1844.4,183.1z"/>
<path fill="#FFFFFF" d="M665.8,192.6c-28.5-2-20.5-41.9,8.5-36C703.5,162.5,685.3,187.7,665.8,192.6
	C660,192.2,666.2,192.5,665.8,192.6z M664.4,170.3c3.2,0.3,5.1-1,5.8-3.9c0-5.1-11.7-5.8-11.4,0.7
	C660.7,168.2,662.5,169.2,664.4,170.3z"/>
<path fill="#FFFFFF" d="M794.1,236.3c1.6-25.9,45.2-25.6,42-1.5C833.2,256.2,794.1,260.1,794.1,236.3
	C794.5,229.8,794.1,236.6,794.1,236.3z M810.7,235.3c-2.5,0.4-4.3,1.7-5.4,3.9c1.7,2,10.9,7.1,10.9-0.4
	C815,236.7,813.2,235.5,810.7,235.3z"/>
<path fill="#FFFFFF" d="M2054.2,173.9c0-19.3,34.3-32.8,41.9-11.7C2104.8,186.3,2054.2,201.8,2054.2,173.9z M2064.4,163.5
	c0,6.1,11.5,6.5,11.5,0.2C2075.9,157.5,2064.6,156.1,2064.4,163.5C2064.4,165.5,2064.5,160.3,2064.4,163.5z"/>
<path fill="#FFFFFF" d="M130.3,172.6c-0.9-20.8,46.3-22.3,45.1,0.6C174.3,195.3,130.3,196.4,130.3,172.6
	C130.1,168.2,130.3,173,130.3,172.6z M165.5,173.7c0-5.8-10.3-6-10.5-0.2C155,179.1,165.2,179.2,165.5,173.7
	C165.5,171.3,165.4,175.9,165.5,173.7z"/>
<path fill="#FFFFFF" d="M2733.5,176.7c0.9-24.6,54.1-37.4,36.9-10.7c-4.2,6.6-0.8,21.7-8,24C2747.6,195.1,2737.9,191.9,2733.5,176.7
	C2734,162.7,2734.2,179.1,2733.5,176.7z M2756.9,178.1c0-8.7-13.2-7.4-13.2,0.7C2743.7,185.6,2756.9,185.1,2756.9,178.1z"/>
<path fill="#FFFFFF" d="M1023.7,172.5c-21.5,10-49.3-15.5-25.4-31.5c3.1-2.1,37.1-9.5,31.4-0.2
	C1023.6,151,1017.3,160.6,1023.7,172.5C1012.9,177.5,1019.2,164.1,1023.7,172.5z M1006.8,168.5c6.1,0,8.1-9.5,1.4-9.2
	C1001.8,159.5,998.5,168.5,1006.8,168.5z"/>
<path fill="#FFFFFF" d="M570.7,244.8c-31.5,0.5-7.4-44.9,16.9-32.5C611.1,224.5,588.1,244.8,570.7,244.8
	C558.8,245,571.6,244.8,570.7,244.8z M568.8,227.8c-6.6,0-6.6,8.8,0.1,8.6C575.5,236.4,575.4,227.8,568.8,227.8z"/>
<path fill="#FFFFFF" d="M694.4,248.8c-22.5-7-7.9-2.9-10.6-20.5c-1.7-10.9-10.3-19.9,10.5-17.4c13.6,1.6,27.2,11.7,18.7,26.5
	C709.3,243.6,696.1,245.4,694.4,248.8C690.2,247.5,694.5,248.6,694.4,248.8z M701.5,220.8C686.6,226.1,705.5,239.6,701.5,220.8
	C699.8,221.4,702.1,223.6,701.5,220.8z"/>
<path fill="#FFFFFF" d="M204,212.3c28.4,11.1,7.4,39.5-16,32.9c-13.5-3.8-11.3-18.3-3.2-26C188.5,215.8,202.6,213.7,204,212.3
	C205.8,213,203.9,212.4,204,212.3z M194.2,221.3c-6.5,0-6.8,8.6-0.2,8.6C200.5,229.9,200.8,221.3,194.2,221.3z"/>
<path fill="#FFFFFF" d="M2152.2,167.4c-29.6-4.3-16.4-32.9,7-32.9C2188.3,134.5,2172.5,166.1,2152.2,167.4
	C2148.1,166.8,2156.8,167.1,2152.2,167.4z M2161.9,151.4c0-6.6-10.3-4.6-11,1.1C2150.4,156.6,2161.9,157.4,2161.9,151.4z"/>
<path fill="#FFFFFF" d="M632.4,188.2c-34.4-2.4-16.7-47.9,11.7-34.5c7.4,3.3-1.8,15.8-1,21.8C644.6,187.5,647.1,185.8,632.4,188.2
	C623.7,187.6,634.9,187.8,632.4,188.2z M630.2,160.9c-7.1,0-9.1,9.4-2.1,9.8C634.7,170.9,637.9,160.9,630.2,160.9z"/>
<path fill="#FFFFFF" d="M778.5,213.2c3.1,0.1,16.7,0.7,17.9,5.5c0.3,1-9,22.4-9.8,22.6C755.3,248.7,745.6,216,778.5,213.2
	C784.7,213.3,772.6,213.7,778.5,213.2z M781.2,234.3c0-3.8-4.9-5-7.4-2.9C768.6,235.6,780.9,241.7,781.2,234.3
	C781.2,232.2,781.1,236.5,781.2,234.3z"/>
<path fill="#FFFFFF" d="M2551.3,161.3c0,21.6-46,23.3-39,0.8C2516.9,147,2551.8,142.2,2551.3,161.3
	C2551.3,168.3,2551.4,157.4,2551.3,161.3z M2543.9,163.9c-0.3-8.5-13.7-0.1-11.5,1.6C2535,167.7,2543.9,171,2543.9,163.9
	C2543.8,161.2,2543.9,166.9,2543.9,163.9z"/>
<path fill="#FFFFFF" d="M2064.7,244.2c-27.4,0-17.3-27,4-29.1C2095.5,212.3,2086.3,243.1,2064.7,244.2
	C2051,244.2,2070.8,243.9,2064.7,244.2z M2074.4,224.9c-6.8,0-8.6,9-1,9C2079.5,233.9,2080.5,224.9,2074.4,224.9z"/>
<path fill="#FFFFFF" d="M2777.1,247c0-18.3,31-25.8,35.2-5.8C2817,263.7,2777.1,268.7,2777.1,247z M2797.3,238.7
	c0-5.7-10.4-5.9-10.4-0.2C2786.9,244.2,2797.1,244.4,2797.3,238.7C2797.3,236.4,2797.2,241.1,2797.3,238.7z"/>
<path fill="#FFFFFF" d="M207.8,170.7c-0.5,7-7.8,17.7-15.9,16.5c-20.2-4.5-7.1-7.8-13.4-21.5C168.2,143.4,207.8,152.7,207.8,170.7
	C207.4,176.4,207.8,161.9,207.8,170.7z M193.2,167.6c-6.8,0-7.6,8.3-0.7,8.6C198.6,176.2,199.6,167.8,193.2,167.6
	C189.8,167.6,195.8,167.7,193.2,167.6z"/>
<path fill="#FFFFFF" d="M545,204.7c28.9,0.5,9,31.5-2.7,31.1C516.2,234.8,520.5,205.2,545,204.7C550.6,204.8,531.1,205,545,204.7z
	 M543.7,223.5c0-5.6-10.4-5.7-10.4,0C533.3,229.1,543.7,229.2,543.7,223.5z"/>
<path fill="#FFFFFF" d="M2025.8,168.2c0.5-27.6,36.7-18.2,32.7-13c-2.7,3.7-8.5,23.2-11.3,24.9
	C2036,186.8,2027.5,178.8,2025.8,168.2C2026,156.7,2026.1,170.1,2025.8,168.2z M2034.8,158.2c0,7.2,11,5.6,11-0.7
	C2045.8,150.1,2034.8,151.8,2034.8,158.2z"/>
<path fill="#FFFFFF" d="M2564.1,178.5c-13.1-4.4-16.3-26.5-1.6-31C2590.6,138.8,2591.1,178.1,2564.1,178.5
	C2562.6,178,2570.6,178.4,2564.1,178.5z M2578.8,164.4C2562.1,153.8,2564.8,174.9,2578.8,164.4
	C2576.6,163,2577.6,165.3,2578.8,164.4z"/>
<path fill="#FFFFFF" d="M2208.7,151.5c-0.7,19.2-39.6,26.2-30,0.9c2.3-6.1-0.5-11.3,6.3-14.7
	C2194.9,132.7,2206.6,142.3,2208.7,151.5C2208.4,159.4,2208.4,150.2,2208.7,151.5z M2185.8,152.3c0,6,10.5,6,10.5-0.1
	C2196.3,146.6,2185.8,146.6,2185.8,152.3z"/>
<path fill="#FFFFFF" d="M2099.5,242c-15.3-4.3-18.1-34.4,2.9-32.6C2127.4,211.5,2120.6,239.9,2099.5,242
	C2096.3,241.1,2103.6,241.6,2099.5,242z M2104.7,221.7C2089.8,233.2,2119.2,231.7,2104.7,221.7
	C2103.4,222.7,2106,222.6,2104.7,221.7z"/>
<path fill="#FFFFFF" d="M173.6,208.7c3.8-0.2,7.1,0.8,10.1,3c3.6,8.8-14.1,27.5-23.6,27.5C136.2,240.5,154.5,209.1,173.6,208.7
	C175,208.9,162.8,208.9,173.6,208.7z M169.4,220.7c0-5.7-10.5-5.7-10.5,0C158.9,226.4,169.4,226.4,169.4,220.7z"/>
<path fill="#FFFFFF" d="M2781.7,231.6c-6.6,6.6-17.5,45.3-33,15.1C2739.6,228.9,2771,221.6,2781.7,231.6
	C2776.2,237.1,2774.4,224.8,2781.7,231.6z M2769.4,234.9c0-5.7-10.4-5.7-10.4,0C2759,240.5,2769.4,240.6,2769.4,234.9z"/>
<path fill="#FFFFFF" d="M2556.8,218.9c0-16.3,29.5-25.9,33-7.3C2592.9,229,2556.8,237.9,2556.8,218.9
	C2556.8,211,2556.8,226,2556.8,218.9z M2571.3,206.9c-6.6,0-6.7,8.4-0.1,8.6C2577.8,215.5,2577.9,206.9,2571.3,206.9z"/>
<path fill="#FFFFFF" d="M1670.7,184.4c0-21.3,39.1-19.3,35-6.9c-2.7,8.2-8.7,14.9-17.5,16.6C1684.5,194.8,1665.4,187.1,1670.7,184.4
	C1670.7,176.1,1670.5,184.5,1670.7,184.4z M1696.9,181.8c0-5.7-10.4-5.9-10.4-0.2C1686.5,187.2,1696.9,187.5,1696.9,181.8
	C1696.9,179.5,1696.9,184.2,1696.9,181.8z"/>
<path fill="#FFFFFF" d="M2320.5,229.4c-12.6,1.6-38.4-1.2-21.4-19.6c5.4-5.8,14.4-9,22-5.8C2334.3,209.5,2320.8,219.6,2320.5,229.4
	C2315.1,230.1,2320.7,222.8,2320.5,229.4z M2316.4,216.5c0-5.7-10.5-5.5-10.5,0.2C2305.9,222.4,2316.4,222.2,2316.4,216.5z"/>
<path fill="#FFFFFF" d="M2549.7,202.5c14.9,0.9,6,34.2-13.9,28.3C2513.7,224.3,2535.9,201.5,2549.7,202.5z M2544.3,216.7
	c6.6,0,6.6-8.6,0-8.6C2537.7,208.1,2537.8,216.7,2544.3,216.7z"/>
<path fill="#FFFFFF" d="M399.6,169.3c-24.2,0.8-15-34.2,6.5-23.8C422.5,153.5,418.1,168.3,399.6,169.3
	C393.2,169.5,406.7,168.9,399.6,169.3z M406.2,151c0-5.7-10.5-5.5-10.5,0.2C395.7,156.9,406.2,156.7,406.2,151z"/>
<path fill="#FFFFFF" d="M1708.7,169.8c20.2-13.5,38.1,16.7,15,23.4C1696.7,201.1,1712.7,181.8,1708.7,169.8
	C1714.1,166.2,1709.3,171.6,1708.7,169.8z M1720.6,178.7c-6.6,0-6.6,8.8,0.1,8.6C1727.2,187.3,1727.1,178.7,1720.6,178.7z"/>
<path fill="#FFFFFF" d="M2337.4,235.2c-17.7-0.8-13.8-21.7,0-25.5C2361.5,203,2355.4,229.7,2337.4,235.2
	C2328.8,234.8,2339.7,234.5,2337.4,235.2z M2342.8,221.4c0-5.7-10.6-5.5-10.4,0.2C2332.7,227.2,2342.8,227,2342.8,221.4
	C2342.8,219.1,2342.8,223.7,2342.8,221.4z"/>
<path fill="#FFFFFF" d="M430.6,165.5c-6.1-0.8-16.3-14.3-14.6-21C421.5,123.9,466.2,166.5,430.6,165.5
	C428.2,165.2,434.2,165.6,430.6,165.5z M430.9,152.5c6.6,0,6.5-8.7-0.1-8.5C424.2,144,424.3,152.5,430.9,152.5z"/>
<path fill="#012530" d="M1120.8,185.5c0,6.5-12.2,4.7-12.2-0.7C1108.6,178.7,1121,179.6,1120.8,185.5
	C1120.8,187.8,1120.9,182.6,1120.8,185.5z"/>
<path fill="#012530" d="M55.6,219.2c-0.9,5.9-14.7,7.7-15.3,1.2C39.8,214.5,55.6,209.4,55.6,219.2C55.2,221.7,55.6,216.3,55.6,219.2
	z"/>
<path fill="#012530" d="M416.9,237.9c0,8-13.6,9.5-13.4,0.5C403.5,231.5,416.9,230.1,416.9,237.9
	C416.9,241.8,416.9,234.6,416.9,237.9z"/>
<path fill="#012530" d="M2220.6,221.3c10.7,0,6.8,12.9-2.5,12.9C2206.7,234.2,2210.7,221.3,2220.6,221.3z"/>
<path fill="#012530" d="M2656.4,223.1c-12.1,0.2-5.2-16.3,5.8-13.6C2672.3,212.2,2663.1,223.1,2656.4,223.1
	C2649.6,223.2,2660.9,223.1,2656.4,223.1z"/>
<path fill="#012530" d="M342.1,209.5c0,7.7-14.7,9.7-14.7,1.1C327.6,203.7,342.1,201.5,342.1,209.5
	C342.1,212.6,342.1,206.5,342.1,209.5z"/>
<path fill="#012530" d="M2436.1,229c-9.1-0.3-5.9-12.1,1.7-11.9C2448.4,217.4,2445.9,229.2,2436.1,229
	C2432.5,228.9,2440.2,229.1,2436.1,229z"/>
<path fill="#012530" d="M968.1,233.6c0-7.2,13.4-8.6,13.7-0.6C981.8,239.8,968.1,240.9,968.1,233.6z"/>
<path fill="#012530" d="M1738.3,239.9c-0.6-6.4,9.7-9.9,13.7-5.3C1759.2,243.1,1737.3,248.2,1738.3,239.9
	C1738,236.5,1738.1,241.6,1738.3,239.9z"/>
<path fill="#012530" d="M1941.1,214.5c-8.7,0.9-5.6-14.8,3.3-11.8C1953.8,203.7,1948.5,214.5,1941.1,214.5
	C1939.1,214.7,1944.7,214.5,1941.1,214.5z"/>
<path fill="#012530" d="M1514.8,199.2C1508.9,225.9,1492.6,177,1514.8,199.2C1514.2,201.9,1513.8,198.2,1514.8,199.2z"/>
<path fill="#012530" d="M1176.9,181.5c6.6,0,6.5,8.7-0.1,8.5C1170.2,190,1170.3,181.5,1176.9,181.5z"/>
<path fill="#012530" d="M1284.8,223.9c0,5.8-10.5,5.6-10.5,0C1274.3,218.2,1284.6,218.2,1284.8,223.9
	C1284.8,226.4,1284.7,221.5,1284.8,223.9z"/>
<path fill="#012530" d="M1643.7,250.3c-11.1,0-4.3-13.4,3-13.8C1657.5,236,1655.5,250.3,1643.7,250.3z"/>
<path fill="#012530" d="M1874.7,191.6c-7.1,0.3-2-12.5,5.3-11.1C1893.2,182.7,1876.5,195.2,1874.7,191.6
	C1872.3,191.7,1874.8,191.8,1874.7,191.6z"/>
<path fill="#012530" d="M452.3,239.8c0-6.7,11.4-8.7,13.9-2.6C469.1,245.7,451.1,246.9,452.3,239.8C452.3,237,452,241.6,452.3,239.8
	z"/>
<path fill="#012530" d="M749,171.8c-0.1,5-7.7,9.5-11.6,5.2C732.5,171.4,744.6,166,749,171.8C748.9,175.2,748.7,171.4,749,171.8z"/>
<path fill="#012530" d="M2323.1,156.9c-0.1,3.6-11,10.6-13.4,5.1C2305.4,152.5,2323.4,148,2323.1,156.9
	C2323,159.7,2323.2,153.7,2323.1,156.9z"/>
<path fill="#012530" d="M100.4,212c5.3,0,8.9,6.9,3.2,9C89.1,226.4,87.9,212.3,100.4,212C103.6,212,96.7,212.1,100.4,212z"/>
<path fill="#012530" d="M888,178.1c7.3,0,6.9,9-0.3,9.2C880.4,187.6,881,178.1,888,178.1z"/>
<path fill="#012530" d="M1553.4,201c-8.2-0.2-4.9-9.6,1.4-9.6C1562.8,191.4,1561.8,201,1553.4,201C1550,200.9,1557.4,201,1553.4,201
	z"/>
<path fill="#012530" d="M1234.3,224.9c-6.6,0-6-8.8,0.5-8.6C1241.6,216.3,1241,225.1,1234.3,224.9
	C1231.4,224.9,1237.3,225,1234.3,224.9z"/>
<path fill="#012530" d="M2704.1,215.6c0.3,7.2-14.9,8.6-14.9,1.6C2689.5,209.4,2703.8,206.1,2704.1,215.6
	C2704.2,218.2,2704,212.8,2704.1,215.6z"/>
<path fill="#012530" d="M512.8,157.8c5.9-0.3,5.6,8.4-0.2,8.6C505.5,166.9,505.3,158.2,512.8,157.8C515,157.7,508.8,158,512.8,157.8
	z"/>
<path fill="#012530" d="M1018.9,238.9c-9.1,0-7.8-11.4,0.6-11.4C1027.3,227.5,1027.1,238.9,1018.9,238.9z"/>
<path fill="#012530" d="M1800.2,244.2c-9.4,0-3.8-8-1-11.1C1800.4,231.8,1818.1,241.6,1800.2,244.2
	C1796.3,244.2,1803,243.8,1800.2,244.2z"/>
<path fill="#012530" d="M1415.2,213.5c-13-1.7,4.1-17.2,7.3-7C1421.5,210.2,1419.1,212.5,1415.2,213.5
	C1412.9,213.2,1417.9,213.3,1415.2,213.5z"/>
<path fill="#012530" d="M285.2,199.2c-8.5,0-4.8-9.1,1.5-9C296.6,190.5,290.1,199.2,285.2,199.2z"/>
<path fill="#012530" d="M2485.3,225.1c0,5.5-12.1,11.8-14,5.2C2468.7,221.4,2485.3,216.9,2485.3,225.1
	C2485.3,230.1,2485.3,222.2,2485.3,225.1z"/>
<path fill="#012530" d="M1979.9,215.3c-8.6,0-6.6-11.2,0.6-11C1988.5,204.3,1988.4,215.3,1979.9,215.3z"/>
<path fill="#012530" d="M1282.3,168.2c0-5.7,10.5-5.7,10.5,0C1292.8,173.9,1282.3,173.9,1282.3,168.2z"/>
<path fill="#012530" d="M2187,224c0,8.8-13.2,11.4-16.3,3.4C2168.1,220.8,2187,214.5,2187,224z"/>
<path fill="#012530" d="M2359.2,156.4c8.4,0,5.3,11-1.4,11C2349.8,167.4,2350.6,156.4,2359.2,156.4z"/>
<path fill="#012530" d="M1043,159.2c8.8,0,5,9.6-1.2,9.4C1034,168.6,1035.9,159.2,1043,159.2z"/>
<path fill="#012530" d="M930.4,183.6c0,5.1-7.9,9.7-11,3.5C916.3,180.5,927.7,180.9,930.4,183.6C930.4,186,930.1,183.3,930.4,183.6z
	"/>
<path fill="#012530" d="M2790.7,174.2c8.1-0.4,1.2,13.3-7.1,12.1C2772.4,184.8,2786.7,174.2,2790.7,174.2
	C2792.9,174.1,2785.7,174.2,2790.7,174.2z"/>
<path fill="#012530" d="M793.9,179C782.2,171.6,807.6,167.1,793.9,179C788.7,175.7,795.4,177.7,793.9,179z"/>
<path fill="#012530" d="M1607.8,256.2c-9.3,0-5.1-11.4,1.9-11.2C1618.7,245,1616.4,256.4,1607.8,256.2
	C1603.9,256.2,1612.1,256.3,1607.8,256.2z"/>
<path fill="#012530" d="M661.2,224.7c8.4,0,9.4,9.5,1.1,9.5C655.9,234,654.1,224.7,661.2,224.7z"/>
<path fill="#012530" d="M557.7,164.6c0,5.7-10.5,5.5-10.5-0.2C547.2,158.7,557.7,159,557.7,164.6
	C557.7,166.9,557.7,162.2,557.7,164.6z"/>
<path fill="#012530" d="M1382,208.3c-10,0,6.2-14.2,6.2-4.9C1387.4,206.5,1385.3,208.2,1382,208.3z"/>
<path fill="#012530" d="M1330.1,174.5c0,5.7-10.4,5.5-10.4-0.2C1319.7,168.6,1330.1,168.8,1330.1,174.5z"/>
<path fill="#012530" d="M1844.4,183.1c0,9.2-13.6,9-13.6,1.3C1830.8,178.1,1844.4,175.4,1844.4,183.1z"/>
<path fill="#012530" d="M664.4,170.3c-1.9-1.1-3.7-2.1-5.6-3.2c0-6.4,11.4-5.9,11.4-0.7C669.5,169.3,667.6,170.6,664.4,170.3z"/>
<path fill="#012530" d="M810.7,235.3c2.5,0.2,4.3,1.4,5.5,3.5c0,7.6-9.3,2.3-10.9,0.4C806.4,237,808.2,235.7,810.7,235.3z"/>
<path fill="#012530" d="M2064.4,163.5c0.2-7.4,11.4-6.1,11.4,0.2C2075.8,170.1,2064.4,169.5,2064.4,163.5
	C2064.5,160.3,2064.4,165.5,2064.4,163.5z"/>
<path fill="#012530" d="M165.5,173.7c0,5.5-10.6,5.4-10.4-0.2C155.1,167.7,165.5,167.9,165.5,173.7z"/>
<path fill="#012530" d="M2756.9,178.1c0,7-13.3,7.6-13.3,0.7C2743.6,170.7,2756.9,169.4,2756.9,178.1z"/>
<path fill="#012530" d="M1006.8,168.5c-8.3,0-5-9,1.4-9.2C1015,159,1012.8,168.2,1006.8,168.5C1003.8,168.5,1009,168.4,1006.8,168.5
	z"/>
<path fill="#012530" d="M568.8,227.8c6.6,0,6.7,8.4,0.1,8.6C562.3,236.4,562.2,227.8,568.8,227.8z"/>
<path fill="#012530" d="M701.5,220.8C705.6,239.8,686.3,225.9,701.5,220.8C702.1,223.6,699.7,221.4,701.5,220.8z"/>
<path fill="#012530" d="M194.2,221.3c6.6,0,6.3,8.6-0.2,8.6C187.4,229.9,187.6,221.1,194.2,221.3C197,221.3,191.4,221.2,194.2,221.3
	z"/>
<path fill="#012530" d="M2161.9,151.4c0,6-11.4,5.2-10.9,1.1C2151.7,146.8,2161.9,144.8,2161.9,151.4z"/>
<path fill="#012530" d="M630.2,160.9c7.8,0,4.6,10-2,9.8C621.3,170.3,623.1,160.9,630.2,160.9z"/>
<path fill="#012530" d="M781.2,234.3c0,6.2-8.8,3-8.8-0.5C772.4,228.9,781.2,229.4,781.2,234.3C781.2,236.6,781.2,232.2,781.2,234.3
	z"/>
<path fill="#012530" d="M2543.9,163.9c0.2,7.2-9,3.7-11.5,1.6C2530.1,163.2,2543.6,155.8,2543.9,163.9
	C2544,166.9,2543.8,161.3,2543.9,163.9z"/>
<path fill="#012530" d="M2074.4,224.9c6.1,0,4.9,9-1.1,9C2065.6,233.9,2067.6,224.9,2074.4,224.9z"/>
<path fill="#012530" d="M2797.3,238.7c0,5.7-10.4,5.5-10.4-0.2C2786.9,232.8,2797.3,233,2797.3,238.7z"/>
<path fill="#012530" d="M193.2,167.6c6.4,0,5.5,8.8-0.7,8.6C185.6,176.2,186.4,167.6,193.2,167.6z"/>
<path fill="#012530" d="M543.7,223.5c0,5.7-10.5,5.7-10.5,0C533.2,217.7,543.7,217.8,543.7,223.5z"/>
<path fill="#012530" d="M2034.8,158.2c0-6.4,11-8.1,11-0.7C2045.8,163.8,2034.8,165.4,2034.8,158.2z"/>
<path fill="#012530" d="M2578.8,164.4C2565.4,174.4,2561.6,153.4,2578.8,164.4C2577.6,165.3,2576.6,163,2578.8,164.4z"/>
<path fill="#012530" d="M2185.8,152.3c0-5.6,10.4-5.7,10.4-0.1C2196.2,158.3,2185.8,158.3,2185.8,152.3z"/>
<path fill="#012530" d="M2104.7,221.7C2120.5,231.9,2089.8,233.2,2104.7,221.7C2106.1,222.6,2103.4,222.7,2104.7,221.7z"/>
<path fill="#012530" d="M169.4,220.7c0,5.7-10.5,5.7-10.5,0C158.9,215,169.7,215,169.4,220.7C169.4,223.1,169.5,218.4,169.4,220.7z"
	/>
<path fill="#012530" d="M2769.4,234.9c0,5.7-10.4,5.7-10.4,0C2759,229.2,2769.4,229.3,2769.4,234.9
	C2769.4,237.3,2769.4,232.7,2769.4,234.9z"/>
<path fill="#012530" d="M2571.3,206.9c6.6,0,6.5,8.8-0.1,8.6C2564.6,215.5,2564.8,206.9,2571.3,206.9z"/>
<path fill="#012530" d="M1696.9,181.8c0,5.6-10.6,5.6-10.4-0.2C1686.5,175.9,1696.9,176.1,1696.9,181.8z"/>
<path fill="#012530" d="M2316.4,216.5c0,5.7-10.4,5.9-10.4,0.2C2306,211,2316.2,210.9,2316.4,216.5
	C2316.4,218.8,2316.3,214.2,2316.4,216.5z"/>
<path fill="#012530" d="M2544.3,216.7c-6.6,0-6.5-8.6,0-8.6C2550.9,208.1,2550.9,216.9,2544.3,216.7
	C2541.4,216.7,2547.1,216.8,2544.3,216.7z"/>
<path fill="#012530" d="M406.2,151c0,5.7-10.4,5.9-10.4,0.2C395.8,145.5,406,145.4,406.2,151C406.2,153.3,406.1,148.7,406.2,151z"/>
<path fill="#012530" d="M1720.6,178.7c6.6,0,6.5,8.4,0.1,8.6C1714,187.3,1714,178.7,1720.6,178.7z"/>
<path fill="#012530" d="M2342.8,221.4c0,5.7-10.4,5.9-10.4,0.2C2332.2,215.9,2342.6,215.7,2342.8,221.4
	C2342.8,223.8,2342.7,219,2342.8,221.4z"/>
<path fill="#012530" d="M430.9,152.5c-6.6,0-6.7-8.4-0.1-8.6C437.4,143.9,437.5,152.5,430.9,152.5z"/>
</svg>
