<svg xmlns="http://www.w3.org/2000/svg" xmlns:xlink="http://www.w3.org/1999/xlink" viewBox="0 0 1180.7 575.9">
  <defs>
    <style>
      .a{fill:url(#a)}.b{fill:url(#b)}.c{fill:url(#c)}.d{fill:url(#d)}.e{fill:url(#e)}.f{fill:url(#f)}.g{fill:url(#g)}.h{fill:url(#h)}.i{fill:url(#i)}.j{fill:url(#j)}.k{fill:url(#k)}.l{fill:url(#l)}.m{fill:url(#m)}.n{fill:url(#n)}.o{fill:url(#o)}.p{fill:url(#p)}.q{fill:url(#q)}
    </style>
    <linearGradient id="a" x1="49.6" y1="286.4" x2="421.6" y2="286.4" gradientUnits="userSpaceOnUse">
      <stop offset="0" stop-color="#e8759d"/>
      <stop offset="1" stop-color="#c67db6"/>
    </linearGradient>
    <linearGradient id="b" x1="55.2" y1="293.9" x2="404" y2="293.9" xlink:href="#a"/>
    <linearGradient id="c" x1="60.7" y1="301.1" x2="386.2" y2="301.1" xlink:href="#a"/>
    <linearGradient id="d" x1="66.2" y1="308.9" x2="368.3" y2="308.9" xlink:href="#a"/>
    <linearGradient id="e" x1="71.7" y1="316.4" x2="350.6" y2="316.4" xlink:href="#a"/>
    <linearGradient id="f" x1="77.2" y1="323.9" x2="333" y2="323.9" xlink:href="#a"/>
    <linearGradient id="g" x1="82.6" y1="331.2" x2="315.3" y2="331.2" xlink:href="#a"/>
    <linearGradient id="h" x1="88" y1="339" x2="297.6" y2="339" xlink:href="#a"/>
    <linearGradient id="i" x1="93.3" y1="346.3" x2="280.1" y2="346.3" xlink:href="#a"/>
    <linearGradient id="j" x1="98.6" y1="353.8" x2="262.6" y2="353.8" xlink:href="#a"/>
    <linearGradient id="k" x1="103.8" y1="361.6" x2="245.2" y2="361.6" xlink:href="#a"/>
    <linearGradient id="l" x1="108.9" y1="369.1" x2="227.9" y2="369.1" xlink:href="#a"/>
    <linearGradient id="m" x1="113.8" y1="376.6" x2="210.7" y2="376.6" xlink:href="#a"/>
    <linearGradient id="n" x1="118.5" y1="384.1" x2="194" y2="384.1" xlink:href="#a"/>
    <linearGradient id="o" x1="122.7" y1="391.6" x2="178.2" y2="391.6" xlink:href="#a"/>
    <linearGradient id="p" x1="126.3" y1="399.1" x2="165.7" y2="399.1" xlink:href="#a"/>
    <linearGradient id="q" x1="122.7" y1="406.7" x2="160" y2="406.7" xlink:href="#a"/>
  </defs>
  <path d="M197.5 363v-43.3q0-17.4 13.5-28.2 12.4-10 31-10 21.6 0 34.5 11l-9.5 15.1a31.4 31.4 0 0 0-11.6-6.2 43.5 43.5 0 0 0-12.4-2 35.8 35.8 0 0 0-10 1.3 23 23 0 0 0-8.1 4.2q-8 6.5-8 18.6v35.4q0 12.3 7.5 18.7 6.7 5.5 17 5.5a29.3 29.3 0 0 0 18.4-6v-23.5h-18v-17h37.3V385a41.4 41.4 0 0 1-17.9 12.4A58.7 58.7 0 0 1 242 401a56.6 56.6 0 0 1-16.9-2.4 42.2 42.2 0 0 1-14-7.4q-13.6-10.7-13.6-28.3zM295.4 375q0-12.6 10.7-19.5a36.5 36.5 0 0 1 20-5.7h23.4v-5.1q0-7.5-4.2-10.7t-13.1-3.2q-13.8 0-23 7.6l-8.6-13.4q13.8-10.4 32.2-10.4t26.5 7.6q8.2 7.7 8.2 23.4v54.2h-16.2l-1.6-7.3-.5-.4q-14.8 8.4-27 8.4t-19.6-6.8q-7.2-6.8-7.2-18.8zm19.3-.7a8.8 8.8 0 0 0 3.4 7.3 12.3 12.3 0 0 0 7.8 2.7 29.7 29.7 0 0 0 7.3-.8q3-.8 6-1.9a55.3 55.3 0 0 0 10.3-5v-12.8h-20.1q-14.7 0-14.7 10.5zM383 399.8v-84.2h18v8.7q8.7-6.3 14.1-8a33.4 33.4 0 0 1 9.9-1.7q15 0 21.3 12.3 15.7-12.3 27.9-12.3t18.7 7.6q6.5 7.6 6.5 21.7v56h-18v-53.5q0-14.3-12-14.3-7.6 0-19.5 9.2.3 3.8.3 6.8v51.7h-18v-53.7q0-7.8-3.3-10.9a11.3 11.3 0 0 0-8-3 24.1 24.1 0 0 0-9 1.7 61.3 61.3 0 0 0-11 6.2v59.7zM518.3 291.4a10.4 10.4 0 0 1 2.8-7.3 9.4 9.4 0 0 1 13.8 0 11.1 11.1 0 0 1 0 14.7 9.4 9.4 0 0 1-13.8 0 10.4 10.4 0 0 1-2.8-7.4zm1.4 108.4v-84.2h16.8v84.2zM558.1 399.8v-84.2h18v8.5q15.4-9.5 28.1-9.5t19.2 8q6.4 8 6.4 22.1V400h-18v-52.5q0-8.6-3.7-12a13.5 13.5 0 0 0-9.3-3.2q-9.2 0-22.7 8.4v59.2zM644.6 370.1v-24.8q0-14.7 7.7-22.7t19.5-8q12 0 26.2 9.1l1.7-8H716v89q0 14.3-12 22.8-10.5 7.6-25.3 7.6-19.4 0-31.8-12.6l11.2-12.3q8 7.9 20.6 7.9 13 0 17.7-9a18 18 0 0 0 1.6-8v-9q-13.3 8-26 8t-20-8q-7.4-7.9-7.4-22zm18-2.2q0 8.4 3.6 12a12 12 0 0 0 8.8 3.3h.5q10 0 22.5-8v-34.3a55.1 55.1 0 0 0-11.7-6.3 31.1 31.1 0 0 0-11.4-2.5 12.2 12.2 0 0 0-8.7 3.5q-3.6 3.4-3.6 11.8zM199.3 540.7V423.5h19.4v99.7h60.7v17.5zM291.9 432.3a10.3 10.3 0 0 1 2.8-7.4 9.5 9.5 0 0 1 13.8 0 11 11 0 0 1 0 14.8 9.5 9.5 0 0 1-13.8 0 10.3 10.3 0 0 1-2.8-7.4zm1.3 108.4v-84.2h17v84.2zM331.9 511.4v-25q0-14.3 10.7-23 9.7-8 23.5-8 19.6 0 30 10.9l-10.5 13.4q-5.9-5.2-10.4-6.4a30.5 30.5 0 0 0-7.7-1.3 21.5 21.5 0 0 0-6.2 1 15.7 15.7 0 0 0-5.5 3q-5.8 4.6-5.8 13.5v18q0 13 10.8 16.4a21 21 0 0 0 6.5 1 29.5 29.5 0 0 0 8.6-1.6 23.5 23.5 0 0 0 9.2-5.6l11.1 12.4q-6.9 7-14.5 9.2a54.8 54.8 0 0 1-15.1 2.2 45 45 0 0 1-13.8-2 31.5 31.5 0 0 1-11-6q-10-8.4-10-22zM407.3 510.8v-22.2q0-15 10-24.2 10-8.8 25-8.8 15.8 0 25.4 8.7 9.8 8.8 9.8 23.6v16.6h-52.1v4.2q0 12.4 11.4 15.6a23.2 23.2 0 0 0 6.9 1 29.1 29.1 0 0 0 20.5-7.8l10.5 12.5a36 36 0 0 1-15 9.2 56.2 56.2 0 0 1-15.6 2.3 52 52 0 0 1-14.3-1.9A35.3 35.3 0 0 1 418 534q-10.8-8.2-10.8-23.1zm18.3-19.3h33.7V489q0-8.7-5-12.7a19.4 19.4 0 0 0-23.7.2q-5 4.1-5 12.4zM491.9 540.7v-84.2h18v8.5q15.6-9.5 28.4-9.5t19.2 8q6.5 8 6.5 22v55.2H546v-52.5q0-8.6-3.8-11.9a13.6 13.6 0 0 0-9.3-3.3q-9.3 0-22.8 8.4v59.3zM575.6 529.8l10-13.1a40.8 40.8 0 0 0 26.6 9.2 22 22 0 0 0 10.7-2.5q4.7-2.6 4.7-7.4t-3.2-6.9a25.4 25.4 0 0 0-9.3-3.3l-12.4-2.2a41.6 41.6 0 0 1-11.4-3.8q-11.7-5.8-11.7-18.5 0-11.7 9.7-19a33.5 33.5 0 0 1 20.5-6.8 78.5 78.5 0 0 1 19 1.9 43.3 43.3 0 0 1 15 7.3L635 478a42.9 42.9 0 0 0-23.5-6.8q-6.5 0-10.2 3a8.8 8.8 0 0 0-3.7 7 6.2 6.2 0 0 0 3.4 5.9 31.6 31.6 0 0 0 8.8 2.9l11.7 2.3a49.9 49.9 0 0 1 11.7 3.8q12.5 5.8 12.5 19.4a22.6 22.6 0 0 1-10 19.2q-9.4 7-24 7a73.1 73.1 0 0 1-18.1-2.2q-8.9-2.3-18.1-9.7zM663 540.7v-84.2h17v84.2zM701.6 540.7v-84.2h18.2v8.5q15.5-9.5 28.2-9.5t19.3 8q6.5 8 6.5 22v55.2h-18.1v-52.5q0-8.6-3.8-11.9a13.6 13.6 0 0 0-9.3-3.3q-9.3 0-22.8 8.4v59.3zM788.6 511V486q0-14.6 7.7-22.6t19.7-8q12 0 26.3 9l1.7-8h16.4v89.1q0 14.2-12 22.8-10.7 7.5-25.5 7.5-19.6 0-32-12.6l11.3-12.4q8 8 20.7 8 13 0 17.8-9.1a18 18 0 0 0 1.6-8v-8.9Q829 541 816 541t-20.2-8q-7.3-8-7.3-22zm18.2-2.3q0 8.5 3.6 12a12.1 12.1 0 0 0 8.8 3.3h.5q10 0 22.6-8v-34.2a55.5 55.5 0 0 0-11.8-6.4 31.4 31.4 0 0 0-11.4-2.4 12.3 12.3 0 0 0-8.7 3.4q-3.6 3.4-3.6 11.8zM870.9 538.2a12.3 12.3 0 0 1 0-16.4 10.8 10.8 0 0 1 8.5-3.5 11 11 0 0 1 8.5 3.4 11.7 11.7 0 0 1 3.2 8.2 12.1 12.1 0 0 1-3.2 8.2 10.7 10.7 0 0 1-8.4 3.6 11 11 0 0 1-8.6-3.5zM902.4 511.4v-25q0-14.3 10.6-23 9.7-8 23.4-8 19.6 0 30 10.9l-10.6 13.4q-5.8-5.2-10.3-6.4a30.3 30.3 0 0 0-7.6-1.3 21.3 21.3 0 0 0-6.2 1 15.6 15.6 0 0 0-5.6 3q-5.7 4.6-5.7 13.5v18q0 13 10.7 16.4a20.9 20.9 0 0 0 6.5 1 29.2 29.2 0 0 0 8.5-1.6 23.3 23.3 0 0 0 9.2-5.5l11 12.3q-6.7 7-14.4 9.2a54.3 54.3 0 0 1-15 2.2 44.5 44.5 0 0 1-13.7-2 31.3 31.3 0 0 1-10.9-6q-10-8.4-10-22zM977.2 511v-24.6q0-14.3 11-23 10-8 25-8 15.7 0 25.5 8.1 10.4 8.4 10.4 23.1v24.3q0 14.6-11 22.9-10.2 7.7-25 7.7-15.2 0-25.1-7.7-10.8-8.4-10.8-22.9zm18-3.4q0 9.5 5.3 13.4a20.6 20.6 0 0 0 12.6 3.9q11.7 0 16.3-9.3a18.6 18.6 0 0 0 1.6-8v-17.8q0-8.8-5.8-13.4a18.7 18.7 0 0 0-12-3.9q-11.8 0-16.4 9.2a18.8 18.8 0 0 0-1.6 8.1zM1064.2 540.7v-84.2h18v8.7q8.7-6.3 14.2-8a33.4 33.4 0 0 1 9.8-1.7q15.1 0 21.3 12.2 15.8-12.2 28-12.2t18.7 7.5q6.5 7.6 6.5 21.7v56h-18v-53.4q0-14.3-12-14.3-7.7 0-19.6 9.1.4 3.8.4 6.8v51.8h-18V487q0-7.9-3.4-11a11.3 11.3 0 0 0-7.9-3 24.1 24.1 0 0 0-9 1.8 61.3 61.3 0 0 0-11 6.2v59.7z"/>
  <path class="a" d="M103.4 428.7a850.8 850.8 0 0 1-51.6-82.6C28.2 303.1 0 241.5 0 192.7c0-33.5 12.3-58.6 35.7-72.6 33.2-20 82.5-13.5 114.1 3.3 14.4 7.7 58.2 31 101.2 40.2 47.6 10.3 81.4 1 100.2-27.7C394.8 69.7 344 2.5 343.5 2l2.4-2a144.9 144.9 0 0 1 20.9 43c7 23.6 10.3 59.2-13 94.7-19.7 29.8-54.5 39.6-103.5 29-43.3-9.3-87.4-32.8-101.9-40.5-30.8-16.3-78.9-22.8-111.2-3.4C15 136.1 3 160.4 3 192.7c0 48.1 28 109.2 51.4 152A845.4 845.4 0 0 0 106 427z"/>
  <path class="b" d="M103.2 428.2l-1.2-1.6C79.2 394.2 4.8 282.3 5.6 203.8A88.7 88.7 0 0 1 19 154c15.9-23.5 41.5-30.2 60.2-31.7a133.3 133.3 0 0 1 68 13.5c25.8 13.2 59.9 29.1 94.5 36.1 44.5 9 75.8-.2 93.2-27.4 21-32.8 17.6-65.6 11.1-87.3a133.6 133.6 0 0 0-19.6-40l2.5-1.9c2 2.7 49.9 66.1 8.6 130.8-18.2 28.3-50.6 38-96.4 28.7-35-7-69.3-23-95.3-36.3a130.4 130.4 0 0 0-66.4-13.2c-18 1.4-42.7 7.8-57.9 30.3a85.9 85.9 0 0 0-13 48c-.8 77.7 73.2 188.9 95.9 221l1.3 1.9z"/>
  <path class="c" d="M103 427.8l-2.2-3.2C21.4 310.7 10.5 244.3 11 214.8a85.8 85.8 0 0 1 13.2-47.2c15-22.3 39.1-29 56.7-30.6a126 126 0 0 1 63.7 11.4c17.2 8.3 52.9 25.5 88 32 41.3 7.7 70.3-1.4 86.2-27.1 37.1-59.8-8.8-120-9.2-120.6l1.2-2.4c.9 0 .9 0 3.5 3.9 1.3 2 3.4 5.1 5.7 9.2 12.4 22.4 29.2 66.7 1.4 111.5-16.7 26.8-46.7 36.4-89.3 28.5-35.5-6.6-71.5-23.9-88.8-32.2A123 123 0 0 0 81.3 140c-17 1.6-40 8-54.5 29.4-8 11.9-12.3 27.2-12.7 45.5-.6 29 10.3 94.7 89.1 208l2.4 3.4z"/>
  <path class="d" d="M102.8 427.4a118 118 0 0 0-3.2-4.7C29 321 15.6 259.5 16.6 225.8a83.3 83.3 0 0 1 12.8-44.6c14.3-21.2 36.9-27.8 53.3-29.6a119.1 119.1 0 0 1 59.5 9.3l.9.5c18.7 8.4 50 22.5 81.3 27.6 37.6 6 64-3 78.4-27 33.8-56.6-9.6-113.2-10-113.8l2.4-1.9c.4.6 45 58.9 10.2 117.3-15 25.1-42.5 34.7-81.5 28.4-31.7-5.2-63.2-19.4-82-27.9l-1-.4c-30.5-13.8-84.5-17-109 19.1A80.4 80.4 0 0 0 19.6 226c-1 33.2 12.5 94 82.4 195l3.4 5z"/>
  <path class="e" d="M102.6 427l-4.1-6c-52.6-76.5-78.3-138.5-76.3-184.2.7-16.8 4.9-31 12.4-42.1 22.2-33 70.7-35.5 105-21.3l3.2 1.3C177 189 257 222.3 286.6 170.6c30.6-53.4-10.3-106.5-10.7-107l2.3-2c.5.6 42.6 55.3 11 110.4-12.6 22.1-33.8 29.5-56.7 29.5-33.2 0-70.3-15.4-90.9-24l-3.1-1.3a109.4 109.4 0 0 0-53.7-7 66.2 66.2 0 0 0-47.6 27.2 77.6 77.6 0 0 0-12 40.6c-2 45 23.5 106.3 75.8 182.2l4.2 6.3z"/>
  <path class="f" d="M102.4 426.7l-5-7.5c-18.2-26.5-73.4-107-69.7-171.3 1-15.8 5-29.2 12-39.7a66 66 0 0 1 46.4-27.5 104.5 104.5 0 0 1 51 5.2l5 1.9c33.3 12.6 102.6 38.8 128.4-8.6 27.3-50.1-11.2-99.7-11.6-100.2l2.3-2c.5.5 40.3 51.5 12 103.7-27.2 49.7-98 22.8-132.2 10a384 384 0 0 0-5-2 101.4 101.4 0 0 0-49.5-5A63.7 63.7 0 0 0 42.3 210 75 75 0 0 0 30.7 248C27 311.4 82 391.3 100 417.5l5.1 7.7z"/>
  <path class="g" d="M102.2 426.3l-5.8-8.8c-18.5-27-67.6-98.7-63.1-158.6 1-15 4.9-27.1 11.7-37.1 9.4-14 24.2-23.1 42.9-26.5a99 99 0 0 1 46.6 3l6.8 2.3c31.8 10.7 91 30.4 113-12.7 24-47-12-93-12.3-93.5l1.2-2.4c.6 0 1.4 0 6.5 8.3 8.7 14.2 26.7 51.2 7.3 89-11 21.3-30.7 28-51.7 28-23.7 0-49-8.5-65-13.9l-6.8-2.2c-40.1-13-72.7 2.4-86 22.2A71.8 71.8 0 0 0 36.3 259c-4.4 58.8 44.3 130 62.6 156.7 2.9 4.2 5 7.2 6 9z"/>
  <path class="h" d="M102 426c-1.2-2.1-3.6-5.7-6.7-10.1-18.4-27-61.7-90.4-56.5-146 1.3-13.9 5-25.2 11.3-34.6a61.6 61.6 0 0 1 39.4-25.4 94.7 94.7 0 0 1 42.3 1l8.2 2.2c27.8 7.9 79.6 22.5 98.2-16.5 20.8-43.8-12.8-86.3-13.1-86.7l2.4-1.9c.3.4 35 44.4 13.4 89.8-19.7 41.4-73 26.3-101.8 18.2l-8-2.2a91.8 91.8 0 0 0-41-1A59 59 0 0 0 52.7 237a70 70 0 0 0-10.8 33.2c-5 54.5 37.7 117.2 56 144 3.2 4.6 5.6 8 6.8 10.2z"/>
  <path class="i" d="M101.8 425.6c-1.5-2.6-4.1-6.5-7.4-11.3-18.2-26.6-56-82-50-133.4a70 70 0 0 1 11-32.1c17.3-25.7 50.6-29.7 74-25.5l9.2 2c25.6 5.6 68.4 15 83.6-20.1 17.6-40.6-13.5-79.5-13.8-79.9l1.1-2.5c.8 0 1.1 0 5 5.8 8 12.2 25 44.2 10.5 77.8-16.2 37.4-60.6 27.6-87 21.8l-9.1-1.9c-22.4-4.1-54.5-.3-71 24.2-5.6 8.3-9 18.4-10.4 30.8-5.8 50.3 31.6 105 49.5 131.2l7.6 11.5z"/>
  <path class="j" d="M101.7 425.2c-1.8-3.1-4.7-7.2-8.3-12.5C76 387.1 43.3 339.3 50 292a69 69 0 0 1 10.6-29.6c19-28.3 55.4-27.4 66-26.5 3 .2 6.2.7 10 1.2 22.9 3.2 57.4 8 69.4-23.1 14.4-37.5-14.3-72.8-14.5-73.2l1.1-2.5c.8 0 1 0 4 4.4 23.2 33.7 16.3 61.8 12.3 72.3-12.9 33.5-50.3 28.3-72.7 25.1-3.8-.5-7-1-9.8-1.2C116 237.9 81.1 237 63 264c-5.3 7.7-8.5 17-10.1 28.3-6.5 46.3 25.7 93.4 43 118.7 3.6 5.3 6.5 9.5 8.3 12.6z"/>
  <path class="k" d="M101.5 424.8c-2.2-3.7-5.3-8.3-9-13.6-16.6-24.3-44.4-64.9-37.1-108.3a67.7 67.7 0 0 1 10.2-27c11.5-17.2 31.1-26.5 58.2-27.6 3-.2 6.5 0 10.2.1 19.8.7 46.8 1.7 55.7-25.9 11-34.1-14.2-65-15.3-66.4l2.3-2c1.2 1.4 27.5 33.6 16 69.3-9.7 29.8-39.2 28.7-58.8 28-3.7-.1-7.1-.2-10-.1-26 1-44.9 9.9-55.8 26.2-4.8 7.1-8 15.6-9.7 26-7.2 42 20.2 82 36.6 106 3.7 5.3 6.9 10 9 13.8z"/>
  <path class="l" d="M101.3 424.4c-2.5-4.3-5.9-9.1-9.7-14.7-16.4-23.8-38.7-56.3-30.6-95.8 2-9.6 5.2-17.7 9.8-24.5 14-20.8 37.2-25.8 49.7-28.4l.6-.2c2.8-.6 6.3-1 9.9-1.4 16.3-1.8 36.5-4 42.6-28.1 7.8-31.2-15.9-59.4-16-59.7l2.2-2c1 1.2 25 29.7 16.7 62.4-6.6 26.2-28.9 28.6-45.2 30.4-3.5.4-6.9.8-9.6 1.4l-.6.1c-12.9 2.8-34.5 7.4-47.9 27.2a64.3 64.3 0 0 0-9.3 23.5c-7.8 38.1 14.1 70 30.1 93.3 4 5.7 7.3 10.6 9.8 15z"/>
  <path class="m" d="M101 424c-2.8-5-6.5-10.2-10.3-15.8-14.7-21.3-33-47.7-24.2-83.3a68.8 68.8 0 0 1 9.4-22c11-16.2 26.8-22.8 37.3-27.2l5-2.2a90.7 90.7 0 0 1 9-3.3c12.5-4.3 26.8-9 30.2-30.1 4.6-28-15.9-52-16.8-53l2.3-2c1 1 22.3 26.1 17.5 55.5-3.7 22.8-19.6 28.2-32.3 32.5a89.5 89.5 0 0 0-8.6 3.2l-5 2.2c-10.3 4.3-25.7 10.7-36 26.2a65.6 65.6 0 0 0-9 21c-8.6 34.3 8.5 59 23.6 80.8 4 5.7 7.6 11 10.6 16.1z"/>
  <path class="n" d="M100.9 423.7c-3.4-5.9-7.3-11.5-11.2-17-13.4-19.1-27.3-39-17.6-70.8a71.8 71.8 0 0 1 9-19.4c8.3-12.4 19-19.7 27-25a81.5 81.5 0 0 0 7.3-5.3c2-1.8 4.3-3.4 6.5-5 9-6.7 18.5-13.7 19.4-32.3 1.3-25.1-17.3-46.2-17.5-46.4l2.2-2c.2.2 19.7 22 18.4 48.5-1 20.1-11.5 27.8-20.7 34.6-2.2 1.6-4.3 3.2-6.3 5a85.3 85.3 0 0 1-7.6 5.4 89.6 89.6 0 0 0-26.1 24.2 70.1 70.1 0 0 0-8.7 18.6c-9.3 30.4 3.6 48.8 17.3 68.2 3.8 5.5 7.8 11.2 11.3 17.2z"/>
  <path class="o" d="M100.7 423.3c-4-6.8-8-12.5-11.9-18-12.2-17-21.8-30.5-11.1-58.4a83.3 83.3 0 0 1 8.6-17c5.7-8.4 12-15 17.2-20.3a72 72 0 0 0 9-10.6l1.8-2.7c7-11.3 12.7-20.2 10.9-38.6-2.1-22-17.7-39-18.3-39.8l2.2-2c.7.7 17 18.5 19.1 41.5 1.9 19.5-4.2 29.2-11.3 40.5l-1.7 2.7c-2.1 3.4-5.6 7-9.6 11.1-5 5.2-11.3 11.7-16.8 20a79.5 79.5 0 0 0-8.3 16.3c-10 26.3-1.3 38.6 10.8 55.6 3.8 5.3 8 11.3 12 18.2z"/>
  <path class="p" d="M100.5 423a197.3 197.3 0 0 0-12.7-19c-10.8-14.8-16.2-22.2-4.6-46.2a120.4 120.4 0 0 1 8.2-14.3l4-5.7c6.6-9.9 12.5-18.5 14.5-25.8a76.2 76.2 0 0 0-.8-45.4A91 91 0 0 0 90 233.4l2.1-2.1c.2.1 14 14.3 20 34.5 5 17 5.2 30.7.7 47-2.2 7.8-7.8 16.2-15 26.7l-3.9 5.7a117.2 117.2 0 0 0-8 14c-10.8 22.3-6 28.8 4.3 43a202.5 202.5 0 0 1 13 19.2z"/>
  <path class="q" d="M100.3 422.6a168.7 168.7 0 0 0-13.6-20c-11-14.4-10.2-15.6 9.9-45.6 33.7-50.3-23-107.6-23.5-108.2l2.1-2.1c.6.6 59 59.7 24 112-19.8 29.3-19.8 29.3-10 42a172.2 172.2 0 0 1 13.7 20.3z"/>
</svg>
