<?xml version="1.0" standalone="no"?>
<!DOCTYPE svg PUBLIC "-//W3C//DTD SVG 20010904//EN"
 "http://www.w3.org/TR/2001/REC-SVG-20010904/DTD/svg10.dtd">
<svg version="1.0" xmlns="http://www.w3.org/2000/svg"
 width="480.000000pt" height="480.000000pt" viewBox="0 0 480.000000 480.000000"
 preserveAspectRatio="xMidYMid meet">
<metadata>
Created by potrace 1.11, written by Peter Selinger 2001-2013
</metadata>
<g transform="translate(0.000000,480.000000) scale(0.100000,-0.100000)"
fill="#000000" stroke="none">
<path d="M2079 4636 c-2 -2 -42 -7 -89 -10 -47 -4 -94 -9 -105 -11 -11 -2 -38
-6 -60 -9 -65 -8 -116 -17 -190 -33 -38 -8 -78 -16 -89 -18 -66 -14 -225 -59
-301 -85 -50 -16 -94 -32 -100 -33 -79 -24 -225 -87 -225 -98 0 -4 5 -19 11
-32 l11 -24 123 48 c186 74 348 122 590 175 17 4 106 18 320 49 22 4 148 8
280 10 214 3 337 -2 445 -21 19 -3 60 -9 90 -14 163 -26 328 -72 436 -120 133
-60 184 -87 277 -150 227 -153 392 -361 461 -580 78 -246 70 -495 -23 -729
-34 -84 -141 -262 -141 -234 0 5 4 13 8 19 14 17 51 117 73 199 28 104 35 334
14 445 -81 419 -413 761 -889 915 -92 30 -245 66 -331 79 -16 2 -48 7 -70 10
-22 3 -56 9 -75 12 -59 10 -490 13 -580 3 -321 -33 -618 -103 -902 -211 -43
-16 -78 -33 -78 -38 0 -4 8 -18 18 -31 l19 -22 69 27 c210 85 547 170 759 192
33 3 71 8 85 11 45 9 473 11 553 3 229 -25 454 -74 602 -132 297 -117 538
-322 658 -563 75 -150 100 -256 101 -430 1 -200 -20 -297 -100 -460 -43 -87
-124 -211 -124 -189 0 5 4 14 9 20 26 26 83 199 106 319 7 40 7 210 0 260 -24
168 -89 329 -187 465 -93 129 -278 281 -438 361 -367 183 -944 243 -1450 152
-47 -8 -96 -17 -110 -20 -112 -19 -450 -118 -489 -142 -22 -14 5 -74 28 -62
33 18 239 81 356 110 268 66 470 89 750 86 160 -3 376 -22 435 -40 8 -2 31 -7
50 -10 90 -15 267 -71 365 -116 28 -13 52 -23 55 -24 3 0 16 -8 30 -17 14 -8
59 -37 100 -63 97 -62 243 -209 302 -305 102 -165 142 -306 141 -505 0 -122
-4 -152 -27 -230 -33 -111 -82 -218 -137 -296 -23 -32 -44 -59 -46 -59 -2 0 5
17 15 37 83 165 110 411 67 603 -74 328 -317 588 -685 733 -105 41 -335 97
-468 113 -120 14 -165 17 -287 18 -171 3 -336 -9 -475 -34 -30 -5 -68 -12 -85
-15 -70 -12 -93 -17 -150 -32 -33 -8 -69 -17 -79 -19 -11 -2 -62 -18 -113 -35
-95 -31 -105 -41 -81 -78 11 -18 14 -17 92 10 144 50 309 86 576 124 70 11
448 13 515 4 33 -4 83 -10 110 -14 146 -16 379 -80 508 -139 226 -103 395
-264 492 -467 107 -228 109 -509 4 -734 -33 -71 -90 -165 -100 -165 -4 0 2 29
15 64 53 146 67 311 41 466 -8 46 -63 211 -76 226 -5 6 -21 33 -35 60 -14 27
-34 56 -44 65 -11 9 -17 18 -15 21 9 8 -124 137 -197 191 -110 81 -288 165
-422 198 -252 62 -409 80 -661 74 -228 -4 -428 -33 -645 -92 -117 -32 -122
-35 -108 -74 11 -33 9 -32 43 -19 90 34 351 88 520 107 84 9 416 10 500 0 33
-3 85 -11 115 -17 30 -6 71 -13 90 -16 163 -25 407 -124 531 -214 81 -58 188
-170 218 -228 7 -12 17 -20 23 -16 7 4 8 2 4 -5 -4 -6 0 -23 9 -37 24 -38 64
-148 80 -223 18 -85 14 -275 -9 -356 -37 -135 -90 -235 -112 -212 -3 2 2 35
10 73 48 217 2 455 -124 639 -36 52 -145 165 -190 195 -19 14 -41 30 -47 36
-50 49 -342 162 -488 190 -176 34 -276 44 -445 46 -174 2 -262 -7 -540 -57
-39 -7 -131 -33 -137 -39 -10 -10 15 -61 28 -57 57 15 303 61 357 67 37 4 81
8 97 10 51 7 330 5 392 -1 71 -8 235 -35 244 -40 3 -3 21 -6 40 -9 47 -6 208
-60 282 -95 67 -30 157 -86 197 -121 67 -58 120 -111 120 -119 0 -5 7 -14 15
-21 23 -19 87 -137 107 -198 27 -81 40 -169 40 -259 -1 -83 -24 -202 -47 -238
-12 -19 -64 -33 -66 -17 0 4 -2 17 -3 30 -2 12 1 22 4 22 8 0 5 124 -4 175
-15 87 -39 161 -73 224 -44 84 -129 186 -200 242 -82 65 -256 159 -294 159 -8
0 -19 4 -25 8 -22 20 -266 76 -379 87 -33 4 -66 8 -74 11 -37 12 -375 3 -441
-12 -14 -3 -49 -8 -78 -10 -29 -2 -70 -8 -90 -13 -20 -5 -49 -12 -64 -15 -25
-6 -26 -8 -16 -36 6 -19 17 -30 29 -30 10 0 19 3 19 8 0 4 12 7 28 8 24 1 49
5 132 20 35 6 203 17 278 18 36 0 62 5 62 11 0 6 3 6 8 -1 4 -7 52 -14 112
-18 144 -8 178 -14 395 -70 67 -17 117 -36 203 -80 39 -20 72 -34 72 -31 0 3
8 -3 18 -12 10 -10 36 -31 57 -48 22 -16 46 -38 54 -47 8 -9 18 -15 23 -12 5
3 7 1 6 -4 -2 -5 8 -23 22 -39 39 -45 70 -91 70 -103 0 -5 5 -10 10 -10 6 0
10 -6 10 -13 0 -8 7 -28 16 -46 39 -78 63 -245 49 -336 l-6 -45 -48 0 -47 0
-12 73 c-15 88 -36 150 -47 140 -4 -5 -5 -2 -1 5 14 23 -83 175 -149 235 -59
54 -77 68 -117 94 -24 15 -46 26 -50 25 -5 -1 -8 3 -8 9 0 6 -7 8 -16 5 -8 -3
-13 -2 -10 3 10 15 -275 115 -359 126 -27 4 -52 9 -55 10 -9 5 -81 15 -150 20
-36 2 -75 6 -87 9 -13 3 -25 0 -29 -5 -3 -6 -11 -6 -17 -1 -19 14 -119 13
-110 -1 5 -9 3 -9 -8 -2 -14 11 -35 11 -146 1 -141 -13 -156 -20 -145 -69 3
-15 10 -17 40 -13 84 13 133 17 254 21 71 2 133 7 140 11 6 4 8 3 5 -3 -4 -6
18 -10 56 -11 34 -1 73 -4 87 -7 13 -2 42 -7 65 -11 71 -10 191 -37 216 -48 9
-4 20 -6 25 -4 5 1 23 -5 39 -14 17 -8 41 -19 55 -23 44 -13 163 -75 204 -108
71 -53 150 -143 181 -204 17 -32 35 -61 40 -65 6 -4 7 -8 3 -8 -4 0 -1 -17 6
-37 7 -21 16 -64 20 -96 l8 -58 -73 3 c-61 3 -73 6 -75 21 -4 31 -43 107 -55
107 -5 0 -8 4 -5 9 12 19 -125 163 -183 193 -14 7 -32 19 -40 26 -7 7 -20 11
-28 8 -8 -3 -11 -1 -8 4 5 9 -1 12 -21 9 -4 0 -10 3 -13 8 -3 5 -42 23 -86 40
-136 53 -132 51 -177 56 -16 1 -28 6 -28 11 0 4 -9 6 -20 3 -11 -3 -20 -1 -20
5 0 5 -10 8 -22 7 -13 -2 -28 0 -33 3 -6 4 -35 9 -65 13 -30 3 -68 8 -85 10
-51 7 -301 6 -328 0 -16 -4 -24 -12 -22 -23 2 -9 4 -22 4 -28 1 -7 48 -10 149
-9 81 1 157 -2 170 -6 13 -5 22 -5 22 1 0 6 9 6 23 1 12 -5 58 -14 102 -21 74
-11 123 -22 218 -50 20 -6 42 -8 49 -4 6 4 8 3 5 -2 -3 -5 22 -20 56 -33 34
-13 65 -28 68 -33 3 -5 16 -10 27 -11 12 -1 22 -4 22 -7 0 -11 57 -39 65 -32
5 4 5 2 1 -5 -4 -7 2 -17 14 -23 12 -6 35 -26 52 -43 17 -18 35 -31 40 -29 5
1 7 -2 4 -6 -3 -5 5 -21 19 -36 13 -15 24 -27 24 -29 -2 -11 15 -36 22 -31 5
3 6 -2 3 -10 -3 -9 -2 -16 3 -16 5 0 10 -11 11 -24 2 -24 -1 -25 -71 -28 -100
-4 -108 -2 -142 42 -16 22 -34 39 -39 40 -5 0 -14 7 -20 15 -18 23 -128 85
-139 78 -6 -3 -7 -2 -4 4 8 12 -61 46 -75 37 -6 -4 -8 -2 -5 3 6 10 -182 77
-243 87 -14 2 -36 7 -50 10 -72 17 -179 29 -265 30 -62 1 -63 0 -56 -52 1 -5
25 -10 54 -11 66 -2 146 -10 171 -18 14 -4 16 -2 10 8 -6 11 -5 12 7 2 14 -12
58 -23 109 -29 14 -1 26 -3 28 -4 1 -2 7 -4 12 -5 6 -1 11 -3 13 -5 2 -2 35
-10 57 -14 8 -2 32 -10 53 -19 21 -9 45 -18 55 -19 9 -2 19 -6 22 -9 3 -4 34
-21 70 -39 63 -32 129 -78 161 -112 9 -10 20 -14 24 -10 5 4 6 2 2 -4 -4 -6
-59 -10 -154 -9 -118 1 -155 5 -181 19 -18 9 -38 14 -45 10 -7 -4 -9 -3 -4 1
8 10 -121 68 -133 60 -5 -3 -10 -1 -12 3 -1 5 -38 18 -81 30 -49 13 -75 16
-70 9 5 -8 2 -8 -9 0 -8 7 -35 16 -59 19 l-45 6 1 -33 c0 -30 3 -34 30 -37 17
-2 72 -14 123 -28 52 -13 99 -21 105 -17 5 3 7 2 4 -4 -4 -6 12 -15 34 -22 23
-7 39 -14 37 -16 -2 -2 -33 -5 -68 -6 -314 -11 -677 -236 -878 -543 -51 -78
-122 -217 -122 -238 0 -8 -4 -18 -9 -24 -5 -5 -19 -49 -32 -99 -21 -77 -24
-112 -23 -245 1 -133 4 -169 26 -250 98 -365 374 -664 730 -789 105 -36 229
-61 309 -61 l59 0 0 34 c0 28 -5 36 -30 46 -17 7 -48 25 -69 41 -22 15 -42 25
-45 22 -3 -4 -6 -1 -6 4 0 6 -20 32 -45 57 -24 25 -41 46 -38 46 3 0 -1 8 -10
18 -21 23 -57 117 -57 147 0 14 -5 25 -11 25 -5 0 -7 5 -4 10 6 9 10 50 18
153 1 9 5 17 10 17 5 0 7 11 5 25 -3 13 -2 22 2 20 8 -5 33 49 33 71 0 8 4 14
8 14 13 0 39 56 31 65 -4 5 -1 5 6 1 6 -4 12 -3 12 2 0 18 142 196 193 241 9
8 17 22 17 30 0 8 3 12 6 9 3 -4 29 17 57 45 29 29 72 68 97 87 24 19 59 49
78 65 34 30 65 53 199 149 37 27 74 56 81 65 6 8 12 12 12 8 0 -5 12 4 28 18
15 15 47 41 72 58 25 17 51 37 58 44 7 6 49 37 95 68 45 31 114 80 153 108 69
51 213 156 343 249 183 132 217 156 267 190 31 20 69 48 87 62 18 13 70 52
117 86 230 167 384 394 451 664 27 106 34 329 14 439 -89 494 -489 872 -1085
1025 -63 17 -112 27 -230 47 -9 2 -43 6 -75 10 -33 4 -71 9 -85 12 -29 6 -515
15 -521 9z m-534 -2215 c3 -5 2 -12 -3 -15 -5 -3 -9 1 -9 9 0 17 3 19 12 6z
m1233 -220 c-2 -12 -16 -16 -55 -17 -42 -1 -52 2 -56 17 -4 14 2 19 27 21 54
5 87 -3 84 -21z m149 4 c-8 -20 -77 -21 -77 -1 0 10 13 16 38 18 45 4 46 3 39
-17z m117 16 c6 -9 -35 -24 -43 -15 -6 5 18 24 31 24 4 0 9 -4 12 -9z m-1035
-14 c14 -5 30 -9 34 -8 5 1 6 -3 2 -9 -3 -5 -1 -10 4 -10 6 0 11 -4 11 -8 0
-5 -58 -10 -129 -11 -116 -2 -133 0 -176 21 l-48 23 34 5 c65 10 243 8 268 -3z
m356 5 c6 -4 11 -15 13 -24 3 -16 -8 -18 -106 -18 -102 0 -110 1 -131 24 l-23
24 119 1 c65 0 123 -3 128 -7z m235 -11 c9 -18 5 -20 -54 -23 -81 -4 -93 -1
-99 23 -5 18 0 19 69 19 62 0 75 -3 84 -19z m-893 -26 c0 -8 -4 -12 -9 -9 -5
3 -6 10 -3 15 9 13 12 11 12 -6z m-60 -8 c7 0 13 -4 13 -8 0 -4 8 -10 18 -12
13 -4 12 -5 -5 -6 -12 0 -56 -12 -97 -25 -284 -93 -545 -323 -684 -601 -35
-71 -80 -193 -87 -238 -3 -18 -9 -50 -15 -72 -8 -35 -8 -33 -4 20 31 327 267
668 594 859 94 56 200 96 230 89 13 -4 30 -6 37 -6z m1246 -53 c-2 -7 -17 -14
-32 -16 -22 -3 -27 -1 -24 12 3 10 15 16 32 15 17 0 27 -4 24 -11z m-283 -16
c0 -10 -8 -18 -17 -19 -103 -7 -103 -7 -103 16 0 19 5 21 60 21 52 0 60 -2 60
-18z m155 13 c8 -14 -11 -23 -55 -26 -37 -3 -40 1 -31 33 2 7 81 1 86 -7z
m-351 -17 c4 -9 5 -19 3 -21 -11 -10 -156 -13 -162 -3 -3 5 -10 8 -15 5 -4 -3
-7 3 -5 12 2 10 4 18 4 18 1 0 39 1 85 3 71 3 84 0 90 -14z m-251 -8 c8 -8 17
-13 21 -11 3 3 2 0 -4 -7 -5 -6 -24 -13 -42 -14 -18 -1 -63 -5 -100 -7 -56 -4
-70 -2 -87 14 -11 10 -25 19 -31 19 -5 0 -10 4 -10 8 0 4 53 9 119 10 95 2
122 0 134 -12z m-357 -7 c8 -6 20 -9 28 -6 10 4 13 1 9 -9 -3 -8 1 -14 11 -14
31 0 15 -15 -17 -16 -231 -4 -454 -106 -654 -297 -34 -33 -60 -64 -57 -68 3
-5 -1 -9 -8 -9 -14 -1 -21 -9 -95 -120 -78 -116 -134 -250 -158 -378 l-15 -77
5 61 c22 318 251 656 560 829 144 80 353 136 391 104z m1034 -53 c0 -2 -7 -7
-16 -10 -8 -3 -12 -2 -9 4 6 10 25 14 25 6z m-112 -18 c-7 -20 -58 -23 -58 -4
0 11 10 16 31 16 20 0 29 -4 27 -12z m-297 -31 c-13 -16 -127 -21 -136 -7 -11
17 2 24 58 30 58 7 94 -4 78 -23z m169 18 c0 -9 -9 -15 -22 -16 -13 0 -33 -2
-45 -5 -12 -2 -25 1 -28 6 -12 19 7 30 51 30 32 0 44 -4 44 -15z m-370 -20 c0
-10 5 -13 12 -9 6 4 8 3 4 -4 -6 -10 -136 -29 -164 -23 -7 1 -22 11 -32 21
-18 18 -18 19 13 22 18 2 62 4 100 6 56 2 67 0 67 -13z m-260 -21 c0 -8 5 -14
12 -14 14 0 2 -13 -15 -16 -7 -1 -46 -4 -88 -8 -228 -18 -360 -63 -518 -174
-73 -51 -197 -170 -232 -222 -12 -19 -26 -37 -29 -40 -36 -33 -120 -208 -145
-305 -10 -38 -23 -74 -28 -80 -7 -7 -8 -7 -4 0 3 6 8 30 12 53 26 175 147 394
299 540 186 178 371 265 596 278 52 4 96 7 98 9 8 8 42 -9 42 -21z m710 -38
c0 -2 -7 -6 -15 -10 -8 -3 -15 -1 -15 4 0 6 7 10 15 10 8 0 15 -2 15 -4z
m-112 -18 c-5 -14 -68 -23 -68 -10 0 15 13 22 43 22 18 0 27 -5 25 -12z m-138
-11 c0 -17 -86 -37 -100 -23 -16 16 -12 24 18 29 57 9 82 7 82 -6z m-166 -22
c-5 -12 -39 -22 -106 -30 -19 -3 -31 2 -38 15 -9 17 -5 19 37 25 27 4 52 8 58
9 22 6 53 -7 49 -19z m-219 -13 c12 -9 18 -32 8 -33 -5 0 -21 -2 -38 -4 -16
-2 -52 -6 -80 -10 -27 -3 -63 -7 -80 -10 -16 -3 -46 -7 -65 -10 -45 -6 -89
-14 -120 -21 -37 -8 -153 -54 -170 -68 -8 -7 -28 -18 -43 -24 -17 -7 -25 -17
-21 -24 4 -7 3 -8 -4 -4 -15 9 -111 -64 -172 -130 -128 -138 -204 -275 -251
-449 l-18 -70 5 55 c8 74 49 201 91 280 37 70 55 102 63 110 3 3 23 28 45 55
111 141 251 245 409 304 64 24 144 39 251 47 44 3 82 8 84 10 8 7 96 4 106 -4z
m362 -65 c-2 -6 -10 -11 -19 -13 -8 -1 -25 -5 -36 -8 -11 -4 -23 -2 -27 4 -3
5 2 13 12 16 10 3 25 9 33 13 18 10 42 2 37 -12z m108 13 c-27 -12 -35 -12
-35 0 0 6 12 10 28 9 24 0 25 -1 7 -9z m-255 -35 c0 -7 -12 -16 -27 -19 -74
-16 -79 -16 -80 4 -2 20 8 24 69 27 26 1 38 -3 38 -12z m-175 -30 c0 -13 -8
-19 -30 -21 -16 -1 -64 -9 -105 -18 -41 -8 -90 -18 -108 -21 -150 -26 -225
-49 -310 -96 -81 -44 -113 -69 -106 -81 4 -7 2 -8 -4 -4 -17 11 -140 -105
-134 -126 1 -5 -1 -7 -6 -4 -9 5 -59 -58 -95 -119 -55 -95 -107 -231 -107
-281 0 -13 -4 -25 -9 -29 -17 -10 7 130 34 200 71 183 178 326 330 440 49 36
82 55 180 101 32 15 136 38 220 49 28 3 64 8 80 10 17 2 52 7 80 10 27 3 51 8
53 10 10 10 37 -5 37 -20z m280 -44 c-6 -11 -55 -20 -55 -10 0 8 15 14 42 16
10 1 16 -2 13 -6z m-127 -23 c-3 -7 -14 -14 -26 -16 -12 -2 -22 -7 -22 -12 0
-5 -6 -7 -14 -4 -20 8 -9 32 17 37 41 8 49 7 45 -5z m-148 -39 c-7 -11 -14
-19 -16 -16 -3 3 -21 1 -41 -5 -19 -5 -44 -11 -55 -13 -10 -2 -53 -14 -96 -25
-42 -12 -88 -24 -102 -26 -70 -13 -160 -46 -154 -56 4 -6 3 -8 -4 -4 -12 7
-102 -33 -102 -46 0 -4 -5 -8 -11 -8 -17 0 -87 -57 -147 -119 -92 -95 -167
-225 -206 -356 -11 -39 -15 -44 -15 -22 -1 35 40 159 75 230 27 53 84 134 139
196 17 18 29 38 27 43 -1 5 1 7 6 4 7 -4 53 28 117 82 49 42 209 99 325 118
14 2 32 5 40 7 36 9 116 21 123 19 4 -1 7 1 7 6 0 4 23 8 50 9 48 3 50 2 40
-18z m110 -60 c0 -3 -11 -9 -25 -11 -25 -5 -35 7 -12 15 19 6 37 4 37 -4z
m-129 -33 c-6 -7 -37 -21 -69 -30 -31 -10 -73 -24 -92 -31 -19 -8 -73 -26
-120 -41 -47 -15 -87 -31 -88 -36 -2 -4 -8 -6 -12 -3 -29 18 -259 -132 -243
-158 3 -6 2 -7 -4 -4 -33 21 -207 -253 -216 -341 -2 -15 -6 -33 -10 -38 -3 -6
-7 -29 -8 -52 -2 -22 -6 -39 -9 -37 -15 9 10 159 37 223 30 74 47 108 81 162
41 64 152 182 199 211 18 12 30 26 27 31 -4 6 -2 8 4 4 15 -9 63 15 55 28 -3
6 -3 8 1 4 5 -4 31 2 59 13 42 17 183 55 272 74 11 3 32 7 48 11 15 3 27 9 27
12 0 4 16 8 36 9 28 1 33 -1 25 -11z m-41 -94 c0 -8 -88 -52 -103 -52 -3 0
-37 -14 -74 -31 -170 -77 -275 -133 -304 -160 -17 -16 -33 -29 -36 -29 -3 0
-31 -27 -62 -61 -68 -74 -146 -216 -129 -236 8 -11 7 -12 -6 -7 -11 4 -16 0
-17 -15 -2 -23 -5 -40 -9 -43 -2 -2 -4 -18 -4 -35 -1 -18 -5 -35 -8 -39 -7 -6
-2 65 7 111 10 51 34 113 67 178 18 34 31 66 30 70 -1 5 2 6 7 3 5 -3 17 7 26
22 30 46 138 146 183 167 23 11 42 23 42 28 0 4 4 7 9 7 5 0 22 5 38 11 15 6
29 10 31 10 1 -1 16 6 32 14 17 9 30 14 30 12 0 -3 55 15 123 39 67 23 123 43
125 43 1 1 2 -3 2 -7z m-120 -136 c0 -2 -7 -7 -16 -10 -8 -3 -12 -2 -9 4 6 10
25 14 25 6z m-41 -20 c-2 -2 -46 -28 -96 -58 -51 -31 -89 -59 -85 -63 4 -5 2
-5 -4 -2 -17 10 -137 -85 -194 -154 -57 -68 -115 -182 -104 -201 4 -7 3 -9 -2
-5 -4 4 -14 -9 -20 -30 -8 -25 -12 -31 -13 -17 -1 12 6 41 14 65 9 24 13 49
10 57 -2 7 -1 11 4 8 11 -7 23 22 14 36 -3 6 -1 8 4 5 15 -9 24 18 11 31 -7 7
-4 10 8 9 12 -1 19 4 18 15 -1 10 2 15 7 13 9 -6 35 35 30 50 -1 6 0 7 3 4 9
-8 102 84 97 95 -2 5 1 6 6 3 6 -4 23 5 39 18 16 14 34 25 40 25 6 0 23 9 37
20 15 12 29 21 31 21 22 2 46 13 46 21 0 5 4 7 8 4 5 -3 22 4 38 14 24 16 66
28 53 16z m-139 -174 c-48 -32 -79 -65 -73 -75 3 -6 1 -7 -4 -4 -13 8 -65 -42
-57 -54 3 -5 -3 -6 -12 -2 -14 5 -16 3 -11 -11 4 -9 3 -15 -2 -12 -5 3 -20 -9
-35 -26 -27 -33 -35 -54 -14 -42 7 4 8 3 4 -5 -4 -6 -11 -9 -16 -6 -11 7 -32
-30 -23 -39 3 -3 1 -6 -6 -6 -7 0 -9 -4 -6 -10 3 -5 2 -10 -3 -10 -15 0 -42
-74 -30 -81 5 -4 3 -9 -5 -12 -39 -15 24 137 97 233 27 36 56 69 63 73 7 5 10
14 7 20 -4 7 -4 9 1 5 14 -13 45 11 39 30 -4 13 -3 14 4 4 7 -11 11 -11 23 0
21 20 63 47 74 47 6 1 -1 -7 -15 -17z m-150 -192 c8 -5 11 -10 5 -10 -5 0 -17
5 -25 10 -8 5 -10 10 -5 10 6 0 17 -5 25 -10z m-438 -45 c-2 -14 -6 -25 -8
-25 -2 0 -4 11 -4 25 0 14 4 25 9 25 4 0 6 -11 3 -25z m448 -31 c0 -8 -19 -13
-24 -6 -3 5 1 9 9 9 8 0 15 -2 15 -3z m-26 -25 c3 -3 -4 -5 -14 -6 -11 -1 -20
2 -20 7 0 8 25 8 34 -1z m-20 -35 c3 -8 2 -12 -4 -9 -6 3 -10 10 -10 16 0 14
7 11 14 -7z m6 -44 c0 -5 -5 -10 -11 -10 -5 0 -7 5 -4 10 3 6 8 10 11 10 2 0
4 -4 4 -10z m-42 -25 c-1 -14 -6 -25 -11 -25 -5 0 -6 7 -3 16 3 9 6 20 6 25 0
5 2 9 5 9 3 0 4 -11 3 -25z m-156 -10 c-2 -14 -6 -25 -8 -25 -2 0 -4 11 -4 25
0 14 4 25 9 25 4 0 6 -11 3 -25z m150 -39 c7 4 8 2 4 -5 -9 -13 -26 -5 -25 12
0 9 2 8 6 -1 2 -6 10 -9 15 -6z"/>
</g>
</svg>
