<?xml version="1.0" standalone="no"?><!-- Generator: Gravit.io --><svg xmlns="http://www.w3.org/2000/svg" xmlns:xlink="http://www.w3.org/1999/xlink" style="isolation:isolate" viewBox="0 0 1000 600" width="1000" height="600"><defs><clipPath id="_clipPath_YxHTYLqEpxIWYs8OAiVU75TdSn5nkNPP"><rect width="1000" height="600"/></clipPath></defs><g clip-path="url(#_clipPath_YxHTYLqEpxIWYs8OAiVU75TdSn5nkNPP)"><g style="isolation:isolate" id="Layer 1"><rect x="73" y="318" width="157" height="157" transform="matrix(1,0,0,1,0,0)" fill="rgb(0,0,0)"/><rect x="327" y="178" width="224" height="224" transform="matrix(1,0,0,1,0,0)" fill="rgb(0,0,0)"/><rect x="177" y="25" width="73" height="73" transform="matrix(1,0,0,1,0,0)" fill="rgb(0,0,0)"/><rect x="615" y="52" width="64" height="64" transform="matrix(1,0,0,1,0,0)" fill="rgb(0,0,0)"/><rect x="615" y="445" width="106" height="106" transform="matrix(1,0,0,1,0,0)" fill="rgb(0,0,0)"/><rect x="809" y="126" width="113" height="113" transform="matrix(1,0,0,1,0,0)" fill="rgb(0,0,0)"/><rect x="756" y="278" width="65" height="65" transform="matrix(1,0,0,1,0,0)" fill="rgb(0,0,0)"/></g></g></svg>