<?xml version="1.0" encoding="utf-8"?>
<!-- Generator: Adobe Illustrator 16.0.0, SVG Export Plug-In . SVG Version: 6.00 Build 0)  -->
<!DOCTYPE svg PUBLIC "-//W3C//DTD SVG 1.1//EN" "http://www.w3.org/Graphics/SVG/1.1/DTD/svg11.dtd">
<svg version="1.1" id="Layer_1" xmlns="http://www.w3.org/2000/svg" xmlns:xlink="http://www.w3.org/1999/xlink" x="0px" y="0px"
	 width="595.3px" height="841.9px" viewBox="0 0 595.3 841.9" style="enable-background:new 0 0 595.3 841.9;" xml:space="preserve"
	>
<style type="text/css">
<![CDATA[
	.st0{fill-rule:evenodd;clip-rule:evenodd;}
	.st1{fill-rule:evenodd;clip-rule:evenodd;fill:#FFFFFF;}
]]>
</style>
<path class="st1" d="M1133.8,1256.5c1.7-1.6,3.4-3.3,5-4.9c2.6-2.2,0.8-4-0.4-6c-0.1-0.7-0.3-1.3-0.2-2c0.2-0.4,0.6-0.8,0.8-1.2
	c3.1-5.4,4.1-5.4,7.3-0.2c0.6,0.9,0.4,2.8,2.3,2.6c1.4-2.2,2.9-4.3,4.3-6.5c0.7-2.3,1.9-2.4,3.6-1c0.4,1.2,0.8,2.4,1.3,3.5
	c3.4,1.8,1.6,3.9,0.2,5.8c-1.4,2-2.4,3.9-0.3,6c0.4,0.4,0.8,0.8,1.2,1.2c0.8,1.1,1.5,2.9,0.8,3.7c-3.2,3.5-1.2,7.6-1.9,11.3l0.1-0.2
	c-1.1,3.7-0.6,8.3-5.4,10.1c-1,0.4-1.1,1.6-1.2,2.6c-0.6,2.3-3.2,2.7-4.4,4.4c-5,0-10,0-15,0c-1.4-1.2-2.6-2.5-1.5-4.5
	c1.8-2.5,1.7-5.2,0.5-8c-2.1-5,0.6-9.8,6.3-11.3C1133.8,1260.3,1133.8,1260.3,1133.8,1256.5z"/>
<path class="st0" d="M1239.8,1249.8c2.9,4,5.8,7.9,8.9,12c0.1-0.1-2.2,1.7-4.5,3.5c-0.3-1.7-0.5-3.2-0.9-5.9c-0.9,2-1.3,2.9-1.6,3.6
	c-1.3-0.5-2.7-1.2-4.1-1.8c0,1.8,0,3.7,0,6c-1.2-0.7-2.1-1.3-4.8-3c0.1,0.3-0.7-1.5-3.4-7.3c0.6,8.7,0.8,13,1,14.6
	c6.4,5.1,12,9.5,17.5,13.9c-9.3,0-18.7,0-28,0c1.8-2.1,3.6-4.3,5.6-6.8c0.7,0.4,1.9,0.9,6.7,3.4c-5.2-4.9-7.5-7-10-9.4
	c-1.1,1.2-2.2,2.4-5.1,5.3c1.7-3.3,2.3-4.5,2.9-5.8c-2.6,0.7-5.1,1.4-8.6,2.4c4.5-4.2,7.8-7.2,11.1-10.3c-1-1.5-2.1-3-4.2-5.9
	c2.8,1.4,3.9,1.9,5.1,2.5c-0.8-1.5-1.5-3.1-1.8-3.7c-4.5,2.2-8.3,4-12.2,5.9c-0.3-0.5-0.6-1-0.8-1.5c1.8-1,3.6-2.1,7.5-4.2
	c-1.4-1.7-2.8-3.5-4.3-5.4c-0.6,0.5-1.2,0.9-1.8,1.4c2.2,1.8,4.4,3.6,7.2,5.9c-0.3-2.8-0.5-4.4-0.7-5.9c3.3,1.9,6.3,3.7,9.3,5.4
	c1.9-1.3,4-2.3,6.3-2.6c0.5,0,0.9,0,1.4,0c3.2,1,5.1,0.2,4.9-3.5C1238.3,1251.4,1238.7,1250.4,1239.8,1249.8z"/>
<path class="st0" d="M1133.8,1256.5c2.2,1.3,4.4,2.7,6.4,3.9c-0.4,0.1-1.2,0.3-3.3,0.7c3.8,0.6,6.3,1,7.3,1.2
	c-4.4,1.8-9.2,3.9-17.2,7.2c5.5,1.4,7.2,1.9,9.6,2.5c-1.3,2.6-3,6-4.7,9.5c-2.7,0.3-5.2-0.2-7.6-1.5c-2-1.1-4-1.4-5.8,0.7
	c-2.4,2.8-5.3,0.2-7.9,0.5c-3.2,1.6-5.9,4.1-9.7,4.4c-2,0-4,0-6,0c-1.7-2.7-4.7-1.7-7.1-2.4c-0.4-0.2-0.9-0.4-1.3-0.6
	c-0.9-0.5-1.8-0.9-2.7-1.1c-1.8-0.5-4-0.4-4.3-3.1c-0.3-2.6,1.2-3.9,3.2-4.9c1.6-0.3,3.3,0.2,4.9-0.6c3.8,1,7.6,1.7,11.5,1.7
	c2.9-2.9,6-5,10.5-4.4c2.4,0.3,3.7-2.4,5.8-3.3c1.5,0.3,3,0.7,6.8,1.6c-3.3,0.4-4.2,0.5-7,0.9c3.1,1.5,4.8,2.3,4.7,2.3
	c3.9-4.6,7.4-8.6,10.8-12.6c-0.6-1.2-0.8-2.3,1.1-2.3C1132.4,1256.6,1133.1,1256.6,1133.8,1256.5z"/>
<path class="st1" d="M1109.9,1278.2c1.4-0.8,2.9-1.6,4.7-2.5c0.3,1.7,0.6,3.2,1.9,9.8c0-7.4,0-9.6,0-12.5c1.7,0.2,4.3,0.5,7.2,0.9
	c-0.6,0.9-1.2,1.6-1.7,2.4c3.5,1.2,6.9,2.4,10.6,3.7c-0.1,0.2-0.4,0.9-0.7,1.6c0,1.4,0,2.7,0,4.1c-4,0-8,0-12,0
	c-0.3-0.4-0.7-0.4-1,0c-1,0-2,0-3,0c-1-0.6-2.1-0.7-3.2-0.9C1108,1283.7,1107.5,1282.4,1109.9,1278.2z"/>
<path class="st0" d="M1021.8,1285.7c-0.1-0.8-0.2-1.5-0.3-2.6c0.7-0.5,1.9-1.4,4.3-3.3c0.1-1.8,0.2-3.8,0.3-7.2
	c0.5,2,0.7,2.9,1.1,4.4c1.1-1.3,1.8-2.3,0.7-0.9c4.3,0,6.6,0,9.1,0c-1-1.5-2-2.9-2.9-4.3c1.2,0.3,3.3,0.4,3.3,0.8
	c0.2,2.6,0,5.2,0,7.9c0,1.7,0.2,3.4,0.4,5.2c-2.7,0-5.3,0-8,0c-0.3-0.4-0.7-0.4-1,0C1026.5,1285.7,1024.1,1285.7,1021.8,1285.7z"/>
<path class="st1" d="M1146.8,1285.7c1.1-1.7,2.3-3.5,3.4-5.2c0.4-3.2,1.2-5.3,5.3-3.5c2.1,0.9,5.1,1.2,7.4-0.9
	c1.2-1.1,2.6-0.5,3.9-0.4c1,3.3,2,6.7,2.9,10C1162.1,1285.7,1154.4,1285.7,1146.8,1285.7z"/>
<path class="st1" d="M1258.8,1111.7c0,5.3,0,10.7,0,16c-1.1,1.1-0.7,3.5-2.9,3.8c-3.4,0.1-2.8-3.2-3.9-4.8c-7.1-1.5-7.7-2.4-6.1-9
	l-0.1,0.1c0.9-0.8,3.3-0.4,1.8-2.9c-1.9-3-0.4-4.4,2.4-2.9C1253.1,1113.9,1255.8,1110,1258.8,1111.7z"/>
<path class="st0" d="M1258.8,1206.7c-3.2-3.5-6.4-6.9-9.7-10.4c-0.6,0.7-1.2,1.3-1.8,2c-1.6-2.3-3.3-4.5-5.6-7.7
	c2.7,0.6,4.3,0.9,6.7,1.5c-1.7,0.5-2.6,0.7-4.8,1.3c3.4,0.8,5.6,1.4,8.3,2c-0.7-1.4-1.3-2.5-1.7-3.1c2.7,1.1,5.6,2.3,8.5,3.4
	C1258.8,1199.4,1258.8,1203,1258.8,1206.7z"/>
<path class="st0" d="M1245.8,1223.8c1.3,0.3,2.6,0.5,4.2,0.9c0.7-1,1.7-2.5,3.3-5c-0.2,3.5-0.3,5.8-0.4,8c2-1.7,3.9-3.3,5.9-5
	c0,4,0,8,0,12c-0.7,0.7-1.4,1.3-2.5,1.4c-2.3-0.3-5,1.2-7-1.2c-2-2.5-1.9-5.8-3.6-8.4C1245.2,1225.5,1245.1,1224.6,1245.8,1223.8z"
	/>
<path class="st0" d="M1258.8,1111.7c-3.4,0.1-6.8,0.1-10.2,0.3c-0.5,0-1,0.7-1.5,1.1c1.2,1.2,2.5,2.4,4.5,4.3
	c-2.4,0.1-4.1,0.2-5.9,0.3c0.4-0.6,0.8-1.3,1.2-1.9c-1.6,0.5-3.3,0.9-5.1,1.4c1.8-2.4,4.1-5.4,4.4-5.8c5.7-1.2,9.2-2,12.6-2.7
	C1258.8,1109.7,1258.8,1110.7,1258.8,1111.7z"/>
<path class="st0" d="M1258.8,1252.7c-3-1.6-5.9-3.2-8.8-4.8c1.8-2.3,3.3-4.2,4.8-6.1c1,0,2.1-0.4,3.1,0c0.3,0.3,0.6,0.5,0.9,0.8
	C1258.8,1246,1258.8,1249.3,1258.8,1252.7z"/>
<path class="st1" d="M1255.3,1130.9c1.2-1.1,2.3-2.1,3.5-3.2c0,3,0,6,0,9c-0.7,0-1.4,0-2.2,0c-1.5,0.6-3.3,0.9-3.7,3
	c-1.7,0-3.4,0-5.1-0.1c-0.7-1.2-2.1-1.6-2.9-2.6c-1.6-1.9-1.3-4.1,1-4.8C1248.8,1131.1,1251.9,1129.3,1255.3,1130.9z"/>
<path class="st0" d="M1001.3,1274.9c2.2,3.6,4.3,7.2,6.5,10.8c-1,0-2,0-3,0c1.7-1.2,3.4-2.4,8.8-6.2c-7.5,2.3-10.2,3.1-17.3,5.2
	c5.1-3.6,6.5-4.5,5.6-3.9c-0.5-1.1-1.3-3.1-2.1-5.2C1000.1,1275,1000.6,1274.7,1001.3,1274.9z"/>
<path class="st0" d="M859.8,1285.7c4-2.6,8-5.1,15.4-9.9c-3.3,6-4.3,7.9-5.4,9.9C866.5,1285.7,863.1,1285.7,859.8,1285.7z"/>
<path class="st1" d="M1109.9,1278.2c2,2.5,3.9,5,5.9,7.5c-5,0-10,0-15,0c0.8-0.9,1.6-1.8,2.5-2.8
	C1105.6,1281.2,1107.8,1279.7,1109.9,1278.2z"/>
<path class="st0" d="M1187.8,1285.7c0.6-1.7,1.2-3.4,1.9-5.4c1.3,1.1,2.8,2.4,4.9,4.2c-0.6-3.5-1.1-5.9-1.5-8.3
	c0.7-0.1,1.4-0.2,2.1-0.3c0.2,3.3,0.4,6.5,0.6,9.8C1193.1,1285.7,1190.4,1285.7,1187.8,1285.7z"/>
<path class="st0" d="M1080.8,1285.7c-1.7-2.4-3.4-4.7-5.1-7.1c0.7-2.2,2.8-2.7,3.6-1c1.5,3.3,3.6,3.2,6.3,2.5c1.1-0.3,1.6,1,2.2,1.7
	l-0.1-0.1c1.1,1.7,0.2,2.9-1,4.1C1084.8,1285.7,1082.8,1285.7,1080.8,1285.7z"/>
<path class="st1" d="M1086.8,1285.7c0.3-1.4,0.6-2.7,1-4.1c2.3,1.4,4.7,2.7,7,4.1C1092.1,1285.7,1089.4,1285.7,1086.8,1285.7z"/>
<path class="st0" d="M1254.6,1182.3c1.4,1.8,2.8,3.6,4.2,5.4c0,2,0,4,0,6C1257.4,1189.9,1256,1186.1,1254.6,1182.3
	c-0.2,0.2-0.5,0.3-0.8,0.5C1254.1,1182.6,1254.3,1182.5,1254.6,1182.3z"/>
<path class="st1" d="M1257.9,1242.7c-1-0.3-2.1-0.6-3.1-0.9c-0.4-1.1-0.7-2.1-1.1-3.2c-1.6-2.5,0.8-3,2-4c1,0,2.1,0,3.1,0
	c0,0.7,0,1.3,0,2c-0.6,0.7-0.6,1.3,0,2c0,1,0,2,0,3C1258.5,1242,1258.2,1242.4,1257.9,1242.7z"/>
<path class="st0" d="M1258.8,1238.7c0-0.7,0-1.3,0-2C1258.8,1237.3,1258.8,1238,1258.8,1238.7z"/>
<path class="st0" d="M1257.9,1242.7c0.3-0.3,0.6-0.7,0.9-1c0,0.3,0,0.7,0,1C1258.5,1242.7,1258.2,1242.7,1257.9,1242.7z"/>
<path class="st1" d="M1028.8,1285.7c0.1-0.2,0.1-0.5,0.2-0.7c0.3,0.2,0.5,0.5,0.8,0.7C1029.5,1285.7,1029.1,1285.7,1028.8,1285.7z"
	/>
<path class="st0" d="M1118.8,1285.7c0.2-0.2,0.4-0.5,0.7-0.7c0.1,0.2,0.2,0.5,0.3,0.7C1119.4,1285.7,1119.1,1285.7,1118.8,1285.7z"
	/>
<path class="st0" d="M329.4,202.8c0.8-0.4,1.9-1,3.1-1.6c4.8,6.6,9.6,13.2,15.3,20.9c-0.5,2.1,0.1-0.3,0.8-3.3
	c7.8,12.2,15.1,23.7,25.2,39.6c-2.3-2.5,0.2-1.1,0.6,0.9c5.4,21.7,13.3,43.3,14.9,65.3c2,26.9,0.7,54.4-3.1,81.1
	c-3,20.9-9.8,42-19,61c-11.2,23.1-23.9,46.8-41.4,65.2c-15.6,16.5-37.9,27.2-58.4,38.3c-17.9,9.7-37.4,16.5-56.4,24.1
	c-4.8,1.9-10.4,1.8-15.5,2.5c-3.6,1.5-7.4,3-15.1,6.1c-7.8,1-19.1,2.4-30.4,3.9c0-0.4-0.1-0.9-0.1-1.3c-6,1.3-12.1,2.6-19.6,4.3
	c-2.7,0-7.4,0.5-12.1-0.1c-4.8-0.7-9.4-2.4-14.2-1.8c-25.9-2.7-51.9-5.3-79.5-8.1c1.3-2.8,0.6-1.3,0.1-0.2
	c-12.5-4.4-24.7-11.6-37.3-12.6c-24-1.9-44.2-12.1-62.6-25.3c-24.2-17.4-44.8-4.3-66.7,3.4c-16.4,5.8-32.9,11.5-49.6,16
	c-22.3,6-44.6,12.1-67.3,15.7c-20,3.2-40.5,3.3-60.9,4.2c-12.4,0.6-24.8,0.5-37.1,0.1c-5.9-0.2-11.8-2.1-17.7-3.1
	c-2.1-0.4-4.2-0.5-7.2-0.7c-4.6-2.5-10.4-5.7-16.2-8.8c0,0.1,0,0.1-0.1,0.2c-3.7-2.1-7.3-4.1-8.9-5c-9.5-8.5-17.4-15.6-25.3-22.7
	c0.1,0,0.2-0.1,0.2-0.1c-5.2-4.3-10.3-8.6-13.2-11c-8.3-8.6-14.4-15-20.5-21.5c-0.3,0.4-0.7,0.9-1,1.3c-1.5-2.6-2.9-5.2-4.4-7.8
	c-1.3,0.7-2.6,1.3-3.9,2c-11-29.4-21.9-58.9-32.1-86.1c1.8-2.5,1.3-1.7,1.2-1.7c-0.7-3.3-1.5-7-2.3-10.8c0.3,0,1.3,0.3,2,0.4
	c-0.6-1.7-1.7-3.5-1.6-5.2c0.1-1.7,1.3-3.4,2.2-5.7c-0.4-1.7-1-4.4-2.7-11.6c2.2-14.8,4.9-32.9,7.5-51.1c0.2,0-0.9,0.2,0.7-0.1
	c2.3-8,4.9-17.3,7.5-26.6c-0.4-0.1-0.8-0.2-1.1-0.3c3.9-15.4,7.8-30.8,10.9-43.2c5.7-11,10.2-19.8,14.7-28.5
	c0.4,0.3,0.9,0.5,1.3,0.8c2.2-5.5,4.4-11.1,6.1-15.3c3.4-3.7,6.3-6.8,9.1-9.9c-1-0.9-2-1.9-3-2.8c10-9.8,19.9-19.5,30.3-29.7
	c1.5,1.8,0.8,1,0.9,1.1c7.6-7.3,15.1-14.3,22.7-21.6c-0.4,0.9-0.6,1.7-0.9,2.5c0.4,0.3,0.7,0.5,1.1,0.8c1.1-2,2.3-4.1,3.1-5.5
	c8.4-5.6,16.4-11.4,24.9-16.5c10.5-6.3,21-12.8,32.2-17.8c10.4-4.6,21.7-7.3,30.6-10.2c1.3-2.7,2.2-4.6,2.3-4.6
	c2.2,0.9,4.3,2,7.2,1.5c-0.9-0.3-1.7-0.6-4.4-1.5c6.4-0.8,11.1-1.4,15.8-2c-0.7-0.3-1.4-0.7-1.9-1c14.8-3.7,29.5-7.3,42.3-10.5
	c0.7,0.1-0.7-0.1-4.9-0.8c17.6-2.9,32.7-5.3,47.7-7.9c11-1.9,21.8-5.5,32.8-6c10.9-0.5,22,3.6,32.7,2.8c20.1-1.5,34.6,9.9,50.7,18.4
	c6.7,3.6,14.9,4.2,21.9,7.4c13.2,6,25.9,12.9,38.9,19.3c7.9,3.9,16.1,7.3,24.1,11c8.2,3.8,16,8.6,24.5,11.1c3.5,1,8.6-2.6,12.8-4.5
	c12.3-5.5,25.2-10.1,36.7-17c26.5-15.8,55-23.7,85.5-23.4c17.6,0.2,35.1,4.2,52.7,6.1c12.4,1.3,25.3,0.2,37.3,3.1
	c12.1,2.9,23.8,8.5,34.8,14.5c10.2,5.7,19.8,12.9,28.6,20.6c4.2,3.8,5.7,10.5,8.9,15.6c3.6,5.6,7.9,10.8,11.5,16.4
	C329.8,198.9,329.3,200.9,329.4,202.8z"/>
<path class="st0" d="M-1450.5-446c-0.4-2.3-0.3-1.4-0.6-3.4c-6.4-1.8-13.6-3.9-15.2-4.4c-22.9-9.5-40.4-16.7-57.9-23.9
	c0.2-0.5,0.4-1,0.5-1.5c-8.6-3-17.2-6.1-25.9-9.2c-0.3,0.7,0.1-0.2-0.2,0.5c-7.4-3.9-14.4-7.5-22.7-11.8c1.6,1.8,2.1,2.5,3.1,3.6
	c-2.1-1.5-3.6-3.3-5.3-3.6c-8.7-1.4-17.6-1.8-26.1-3.9c-3.3-0.8-5.1-6.4-8.4-8.1c-2.5-1.3-6.4,0.2-9.7,0.5c-0.3,0-0.8,0.3-0.9,0.1
	c-5.2-5.5-11-10.6-15.2-16.8c-2-3-2.7-10.2-0.8-11.9c6.5-5.7,14.5-9.7,21.8-14.5c2.1-1.4,3.9-3.5,5.7-5.4c1.7-1.7,3-3.9,4.9-5.2
	c8.4-5.2,17-10,25.5-15c0.6-0.3,1.3-0.4,4.9-1.4c-0.4,0.6,1.4-1.4,2.2-3.7c0.4-1.1-1.3-2.8-2.5-5.3c-0.4,0.7,0.5-0.7,2-3
	c1.1,2.4,1.8,4,2.6,5.8c0.3-0.8,0.5-1.7,1-3c0.9,1.2,1.7,2.3-0.8-1.2c6-1.9,12.5-4.1,19-6.2c-0.9,0-1.7,0-2.6,0
	c4.2-1.6,8.8-2.6,12.5-5c9.3-6,18.2-12.5,27.1-19.1c11.2-8.2,21.9-17.2,33.5-24.9c9.5-6.3,19.4-13.4,30.2-16.2
	c17.3-4.4,24,1.1,29.4,18.7c-1-0.5-1.8-0.9-3-1.5c3,12.7,7,25.1,8.7,37.8c1.7,12.2,0.5,24.8,1.6,37.2c1.9,21.4,5.2,42.7,6.9,64.1
	c1.2,16.1,0.8,32.2,1.1,48.4c0.1,4.5,1,9.1,0.8,13.6c-0.2,3.7-0.4,9.8-2.4,10.6c-3.5,1.5-8.5,0.4-12.5-0.8
	C-1429.6-438.6-1440.7-442.7-1450.5-446z"/>
<path class="st0" d="M-1253,555.9c-15.2-18.4-29.4-27.1-36.4-54.9c36.6,14.5,92.6,21.4,131.8,14.8c54.8-9.2,71.4-64.7,105.9-99
	c10.9,43.7,11.3,105.7-19.1,142c-7.3,8.8-85.1,32-113.2,29.7C-1202,587.1-1259.7,556.3-1253,555.9
	C-1257.9,549.9-1255.5,556-1253,555.9z"/>
<g>
	<path class="st0" d="M-1152-564.7c-7.3,4.3-14.7,8.6-21.9,13.1c-0.4,0.2,0.7,2.7,1.2,4.7c-3.3-1.3-5.9-2.3-8.6-3.3
		c0.4,0.9,0.7,1.8,0.8,2c-10,5.9-19,11.3-18.9,26.2c0,3.9,3.1,30.5-14.5,15.6c-15.9-33.5,2.1-53.3,23.7-70.8
		c6.7-3.9,13.4-7.7,20-11.9c14.1-9,29.3-16.8,41.2-28.1c3.3-3.1-1.6-17.8-6-25.4c-7.9-13.6-22.3-13-34.9-9.1
		c-8.7,2.6-16.2,9.6-24.3,14.4c-3.5,2-7.4,3.4-10.2,7.1c-1.3,0.6-3.3,0.9-3.8,1.9c-8.6,19.3-24.7,17.3-40.9,14.1
		c-1.8-0.4-4.1-3.9-4.2-6c-0.2-6.2-1.7-13.9,1.3-18.3c8.8-12.8,19.3-24.6,29.7-36.2c2.6-2.9,7.5-3.6,11.3-5.6c1.3-0.7,2.2-2,6.4-5.9
		c20.3-15.1,46.3-6.1,75.3-1.3c12,15.2,26.5,33.6,40.6,51.5c-0.5,5.4,0.1,11.2-1.7,16.1c-3.7,9.6-8.7,18.6-13.4,27.8
		c-2.2,4.4-4.9,8.6-7.6,12.7c-0.8,1.2-2.7,2-4.2,2.1c-1.7,0.1-3.5-0.8-7.6-1.9c-7.6,4.5-17.5,10.3-27.4,16.1
		C-1151-563.7-1151.5-564.2-1152-564.7z"/>
	<path class="st0" d="M-1190-372.8c-8.5-3.6-18.9-5.5-25.3-11.6c-5.1-4.9-6.9-14.9-7.2-22.8c-0.3-9.8,0.8-20.3,4.5-29.2
		c2-4.9,10.2-7.4,15.9-10.5c4.8-2.5,9.9-5.8,14.9-6c6.6-0.2,15.2,0.1,19.6,4c6.9,6.1,12.6,14.9,16,23.6c2.9,7.4,4.7,17.6,1.8,24.3
		c-3,7.1-11.7,12.1-18.6,16.9C-1174.3-379.9-1181.4-377.2-1190-372.8z"/>
</g>
<path class="st0" d="M1255.3,1130.9c-3.1,1.4-6.1,2.9-8.8,4.2c0.2,0.7,0.7,2.6,1.2,4.6c-1.4,1-2.7,2-4.4,3.3
	c-1.4-1.6-3.5-4.2-5.8-6.9c0.5-1.3,1.5-3.4,2.4-5.4c-2.8-0.4-5.4-0.8-4.2-0.7c2.8-3.3,6.4-7.8,10.1-12.2c0.1,2.2,0.3,4.4,0.7,10.8
	c1.1-5.3,1.3-6.3,1.8-8.4c0.4,2,0.6,3.1,1.1,6c1-3.5,1.5-5.3,3-10.7C1253.8,1122.7,1254.5,1126.8,1255.3,1130.9z"/>
<path class="st0" d="M1187.7,1168.7c2.7-3.2,6.1-7,9.4-10.9c1.8,3,3.7,6,6.1,10c-3.7,0-5.8,0-7.3,0c0.3-2.6,0.5-4.9,0.8-7.2
	c-0.7-0.2-1.4-0.4-2.1-0.6c-1.8,5.7-3.7,11.4-6.6,20.2c1.9-1.8,0.8-0.8-4.5,4.2c-0.9-8.8-1.6-15.1-2.3-21.3c1.4-0.3,2.7-0.5,4.1-0.8
	C1186.5,1165.5,1187.7,1168.5,1187.7,1168.7z"/>
<path class="st0" d="M1087.4,1273.7c-1.5,0.3-3,0.6-4.5,1c-1.9,1-3.2,0.4-3.9-1.5c2.4-0.5,4.9-1,8.6-1.8c-2.9-1.4-5.4-2.6-6.3-3
	c-0.4-1-0.1-0.2,0.2,0.5c1.2-0.7,2.5-1.4,3.7-2.1c0.9-2.1,2-2.3,3.2-0.2c3.1-1.6,6.2-3.1,9.3-4.7c-0.7-0.2-1.4-0.5-2-0.7
	c3.1-1.3,6.1-2.6,9.4-3.9c0.6,2,1.3,3.9,2,6.3c-3,0-5.5,0-8.7,0c2.2,1.9,3.6,3.1,5.1,4.3c1.5,2.1,1.1,2.6-2.2,3.3
	c-2.7-1.7-5-0.4-7,1.2C1092,1274,1089.9,1274.5,1087.4,1273.7z"/>
<path class="st0" d="M1078.5,393.7c1-3.3,1.8-6.8,2.2-6.8c5,0.6,9.9,1.6,14.8,2.6c-2.8,2.4-5.3,5.6-8.6,6.8
	C1084.9,397,1081.8,394.8,1078.5,393.7z"/>
<path class="st0" d="M1092.7,1224.7c-3.7,2.7-7.4,5.4-11.1,8.1c-0.7-1.2-1.5-2.5-2.2-3.7c0.8-2.5,1.7-5,2.2-6.6
	c0.5,0.2,2.1,1.3,2.6,1c1.2-0.9,1.8-2.4,3.4-5c1.8,0.5,5,1.3,8.2,2.1C1097,1223.7,1096,1225.1,1092.7,1224.7z"/>
<path class="st0" d="M1226.7,1252.6c-2.6-0.1-5.1-0.1-7.7-0.2c0.5-2.6,1-5.3,2.4-12.7c0.9,6.7,1.1,8.4,1.3,10
	c1.8-3.7,3.4-6.9,4.5-9.2c-2.6-0.8-6.3-1.9-9.9-3c2.1-2.7,4.2-5.5,6.3-8.1c0.2,3.4,0.3,5.8,0.4,6.7c3.6,2.1,6.2,3.6,9.3,5.4
	c-2.8,0.8-5.8,1-6,1.7c-0.5,2.4,0.2,5,0.4,7.6C1228.3,1251.8,1227.6,1252.3,1226.7,1252.6z"/>
<path class="st0" d="M1190.7,1251.8c0.8-2.3,1.6-4.6,2.5-7.5c0.5,0.8,1.5,2.4,2.8,4.4c3.1-3.5,6.3-7.3,10-11.4
	c-1.1-0.9-0.4-0.4,0.2,0.2c0.4,0,0.7,0.1,0.9,0.5c0,0.9-0.9,1.2-1.4,1.8c-1.3,3.5-2.6,7-3.9,10.5c0.4,0.1,0.8,0.3,1.2,0.4
	c0.7-1.7,1.5-3.5,3.3-7.8c0,5.4,0,7.8,0,11.9c0.1,0.2,1,2.3,1.7,3.8c-3.2-1.2-6.8-2.4-10.4-3.7
	C1195.2,1254.2,1192.3,1254.5,1190.7,1251.8z"/>
<path class="st0" d="M1157.7,1268.8c-2.8-3-5.5-6-8.3-9c3.8,3.1,7.6,6.3,11.3,9.4c-0.6-5.1-1.3-10.3-1.9-15.4
	c2.3-0.8,4.5-1.5,8.3-2.8C1163.8,1257.2,1160.8,1263,1157.7,1268.8z"/>
<path class="st0" d="M1196.3,1262.9c-1.3,0.4-2.7,0.8-6,1.7c3.3,2.5,5.4,4.2,7.2,5.6c-2.9,0.5-7.4,1.2-12.2,2c0.4,1.3,0.9,2.6,2,5.9
	c-2.2-2.9-3.2-4.2-4.9-6.4c-2.2,2.4-5.3,5.8-4.7,5.1c-3.6,1.8-2.2,1.1-4.4,2.3c4.7-5.8,7-8.9,9.6-11.7c0.4-0.4,2.5,0.8,4.8,1.5
	c0.7-1.3,2-3.7,3.3-6.2C1192.8,1260.6,1194.6,1260.6,1196.3,1262.9z"/>
<path class="st0" d="M1186.4,1217.8c1.9,4.6,3.9,9.1,5.5,13c-9.3-0.7-14-1-19.4-1.4c6-2.7,11.3-5,15.8-7c-0.8-1.8-1.4-3.2-2-4.6
	L1186.4,1217.8z"/>
<path class="st1" d="M1196.3,1262.9c-1.8-0.1-3.6-0.1-5.4-0.2c-0.4-0.4-0.8-0.8-1.1-1.2c-3.9-4.6-3.9-5,1.1-9.9l-0.1,0.1
	c1-0.5,1.9-1.2,3-1.6c2.3-0.9,4.7-1.7,7-2.6c-1.3,1.3-2.8,2.4-3.7,3.9c-0.4,0.8,0.4,2.2,0.7,3.4
	C1197.3,1257.5,1196.8,1260.2,1196.3,1262.9z"/>
<path class="st0" d="M1163.9,1276.6c-0.5,1.8-1.1,3.6-1.7,5.8c-1.4-0.9-3.1-2.1-5-3.4c-0.1,0.1-0.6,0.8-1.4,1.8
	c-1-1.6-1.9-3-2.8-4.3c-1,1.4-1.9,2.6-2.7,3.8c1.2-2.1,2.4-4.3,3.6-6.4c0.4,0.2,0.7,0.4,1.1,0.7c1-2,2-4.1,3-6.1c0,2,0,3.9,0,7.6
	c1.9-1.2,4.2-2.7,6.9-4.5c0,0,1,1,2,2.1c0.3,0.2,0.4,0.4,0.3,0.6c-0.1,0.2-0.2,0.3-0.3,0.3l0,0.1
	C1165.9,1275.6,1166.3,1278.1,1163.9,1276.6z"/>
<path class="st0" d="M1061.4,1191.9c-0.1-2.7-0.4-6.6-0.5-10.5c0-0.6,0.3-1.7,0.6-1.7c5.2-0.8,10.4-1.5,15.7-2.1
	c-3.4,3.3-6.7,6.8-10.2,10C1065,1189.4,1062.7,1190.9,1061.4,1191.9z"/>
<path class="st1" d="M1101,1269.2c0.8-0.5,1.5-0.9,2.3-1.4c0.9,0,1.7-0.1,2.6-0.1c2.9,1.2,5.2-1.8,8.1-1c0.4,0.1,0.9,0.1,1.3,0.2
	c-2.6,2.7-5.3,5.4-10.1,10.3c-0.7-3.7-0.4-2.3-0.2-1c-1.5,0.5-2.9,1-4.3,1.5c-3.4,1.8-5.5-0.2-6.6-2.8c-1.2-3,1.9-3.5,3.6-4.6
	C1098.7,1269.7,1099.9,1269.4,1101,1269.2z"/>
<path class="st0" d="M1252.5,1167.3c-1.8-1.1-2.8-1.7-3-1.8c0.8-1.5,1.3-2.6,1.9-3.7c-2.4-0.4-4.8-0.8-7.2-1.2c-0.3,2.3-0.7,4.5-1,7
	c-1.5-0.5-3.4-1.2-4.8-1.7c2-2.5,4.1-5,6.3-7.7c-2.4-0.7-4.7-1.3-7.1-2c0.1-0.2,0.1-0.4,0.2-0.6c4.6,1.1,9.2,2.2,14.7,3.5
	C1252.5,1159.4,1252.5,1162.9,1252.5,1167.3z"/>
<path class="st0" d="M1236.3,1154.1c-4.4-5.5-5.2-6.5-5.7-7.1c-2.1,2.4-4,4.6-7.9,9.1c1.8-4.2,2.3-5.6,3.1-7.3
	c0.5,0.4,1.2,0.9,1.6,1.2c2.1-4,4.2-7.9,7.8-14.6C1235.4,1141,1235.7,1145.2,1236.3,1154.1z"/>
<path class="st0" d="M1131.7,1256.7c-0.4,0.8-0.7,1.6-1.1,2.3c-1.1,0.6-2.3,1.3-2.4,1.3c-3.1-1.8-5.9-3.5-9.9-5.8
	c3.4,0.4,5.7,0.6,7.9,0.8c-0.6-1.2-1.4-2.7-2.1-4.1c2.6-0.2,5.3-0.4,7.7-0.6C1131.7,1253.2,1131.7,1255,1131.7,1256.7z"/>
<path class="st0" d="M1052.1,1248.9c2.3-0.9,4.6-1.8,9.1-3.5c-6.4-1.4-10.4-2.3-15.5-3.5c1.8-1.1,4.1-3.3,6.7-3.7
	c1.6-0.3,3.7,2,5.8,3.2c-0.1,0.1-0.7,0.8-0.9,1c1.6,1.4,3.1,2.8,7.1,6.3c-6,0-9.2,0-12.5,0L1052.1,1248.9z"/>
<path class="st0" d="M1092.7,1224.7c1-1.4,2.1-2.8,3.2-4.2c2.7-0.9,5.3-1.7,8-2.6c0.3,0.7,0.6,1.4,0.8,2.1c-2.2,1.1-4.3,2.3-6.3,3.3
	c0.6,0.5,1.6,1.4,1.4,1.2c-1.8,3-3.3,5.4-4.7,7.7C1094.6,1230.8,1093.6,1227.7,1092.7,1224.7z"/>
<path class="st0" d="M1157.3,1226.6c-1,2.2-2.1,4.3-3.1,6.5c0,0,0,0,0,0c-1.1-2.4-2.2-4.8-4.5-10c0.5,4.1,0.6,5.2,0.8,6.3
	c-0.7-0.2-1.4-0.4-2.1-0.7c0.9-3.3,1.7-6.6,2.6-9.9c1.3,0.5,2.7,0.9,4,1.4c-1.2,1.4-2.5,2.8-3.7,4.1c1.8,0.7,3.8,1.5,5.8,2.2
	L1157.3,1226.6z"/>
<path class="st0" d="M1197,1127.8c5.2-0.6,10.5-1.2,15.7-1.8c-0.1,0.8-0.2,2.2-0.3,3.9c2.7-0.6,5.2-1.2,8.1-1.9
	c-0.1,1.5-0.2,2.9-0.3,5.2c-1.4-1.8-2.3-2.8-2.3-2.9c-3.4,0.5-6,1.3-8.4,1c-1-0.1-1.6-2.8-1.7-2.9c-4-0.3-7.4-0.5-10.8-0.8
	L1197,1127.8z"/>
<path class="st0" d="M1181.5,1210.4c-1.9,0.2-4,0.1-5.7,0.8c-0.5,0.2-0.1,2.7-0.1,4.4c-1.5,0.2-3.7,0.6-4.4,0.7
	c1.5-3.7,3-7.5,4.5-11.3c2-2.3,4-4.6,6-6.9c2.2,2.5,4.4,4.9,6.6,7.4C1186.1,1207.1,1183.8,1208.7,1181.5,1210.4z"/>
<path class="st0" d="M919.7,1269.3c0,3.4,0,5.3,0,8.4c0.7,0.3,2.7,1.1,4.8,2.1c-1.6,1.5-3.4,3.2-4.7,4.4c-0.8-3.2-1.5-6.4-2.3-9.7
	c-2.5,2.4-4.7,4.4-6.8,6.4c-0.6-0.6-1.1-1.2-1.7-1.9C912.2,1276.2,915.3,1273.4,919.7,1269.3z"/>
<path class="st0" d="M1088.3,1266.5c-1.1,0.1-2.1,0.1-3.2,0.2c-1.5-2.8-3-5.6-4.4-8.5c-0.7-1.5-1.2-3.1,2.3-3.7
	c-0.3,1.9-0.5,3.8-1,7c3.1-2.9,5-4.6,6.8-6.3C1088.7,1258.8,1088.5,1262.7,1088.3,1266.5z"/>
<path class="st0" d="M1214.2,1174.5c1.7-1.9,3.3-3.7,4.7-5.3c1.9,4,3.1,6.7,6.2,13.3c-5.7-3.6-8.6-5.4-11.5-7.2
	C1213.6,1175,1213.8,1174.7,1214.2,1174.5z"/>
<path class="st0" d="M1154.2,1172.8c-0.1-0.5-0.4-1.5-0.6-2.4c2,1.7,3.9,3.4,9.7,8.4c-9.2-1.8-14.1-2.7-19-3.7
	c0.2-1.5,0.4-3,0.6-4.5c1.2,2.1,2.3,4.1,2.9,5.2C1150.4,1174.6,1152.1,1173.8,1154.2,1172.8z"/>
<path class="st1" d="M913,1228.2c0.3,3.7,0.5,7.5,0.8,11.2c-1.1-0.7-2.1-1.4-3.2-2.2c-3.8-1.6-1.4-5.9-3.5-8.2c2-0.8,4-1.6,6-2.5
	C913.3,1227.2,913.4,1227.7,913,1228.2z"/>
<path class="st0" d="M1184.3,1152.7c-0.6-1.2-1.2-2.2-1.9-3.6c1.3,0.2,2.2,0.4,3.7,0.7c-1.4-2.4-2.6-4.4-3.6-6.1
	c2.3-0.2,4.7-0.4,7.1-0.6c1.6,0.8,3.5,1.9,7.1,3.9c-4,0.5-6.2,0.8-4,0.5C1187.7,1150.5,1186.2,1151.5,1184.3,1152.7z"/>
<path class="st0" d="M1148.7,1244.7c-2.2-1.7-4.5-3.4-6.3-4.8c-0.7,0.8-2.1,2.3-3.4,3.8c-0.4,0.3-0.6,1-1.2,1.1
	c0.6-3.3,1.2-6.6,1.9-10.9c1.2,2,1.7,3,2.3,4c0.9-0.5,1.8-1.1,2.7-1.6C1146,1239.1,1147.3,1241.9,1148.7,1244.7z"/>
<path class="st0" d="M986.4,1263c1.4-0.1,2.8-0.2,3.6-0.2c-0.5-2.2-1-4.5-1.5-6.8c2.9,3.1,5.3,5.6,7.9,8.5c0.3-1.3,0.5-2,0.7-2.9
	c0.3,0.2,0.6,0.4,0.6,0.5c-0.7,3.3-1.3,6.6-3,14.6c-0.4-6.8-0.5-8.4-0.6-10c-0.6,0.6-1.3,1.1-0.4,0.3
	C990.8,1265.4,988.6,1264.2,986.4,1263c0.2,0.2,0.3,0.4,0.4,0.7C986.7,1263.4,986.6,1263.2,986.4,1263z"/>
<path class="st0" d="M913.1,1169.2c-1.7-0.7-0.5-0.2,1.2,0.5c-2.1,3.9-4.2,7.9-6.4,11.8c-0.4-0.2-0.8-0.4-1.2-0.6
	c0.9-1.9,1.7-3.9,2.8-6.3c-3,0.2-5.8,0.4-9.8,0.7C904.2,1173.3,907.6,1171.7,913.1,1169.2z"/>
<path class="st0" d="M1244.2,1179.4c3.5,1,6.9,1.9,10.4,2.9c0,0,0,0,0,0c-2.4,1.8-4.8,3.6-7.8,5.8c0.3-1.5,0.6-3.5,1.2-6.4
	c-1.5,0.1-4.6,0.2-7.7,0.4c-0.2-0.5-0.4-0.9-0.5-1.4C1241.2,1180.3,1242.7,1179.9,1244.2,1179.4c-0.1-0.3-0.2-0.6-0.3-0.9
	C1244,1178.9,1244.1,1179.2,1244.2,1179.4z"/>
<path class="st0" d="M1157.7,1252.6c-0.5,0.3-1.1,0.6-1.2,0.7c-1.3-1.2-2.9-2.7-3-2.8c1.6-3.6,2.9-6.6,4.3-9.6
	c1.6,3.2,3.2,6.4,4.8,9.6c-0.8,0.3-1.6,0.7-2.5,1c-0.5-0.9-1-1.8-2-3.7C1158,1249.9,1157.8,1251.2,1157.7,1252.6z"/>
<path class="st0" d="M1248.4,1237.9c-4.7-1.3-9.5-2.5-14.3-3.8c0.9-2.1,1.8-4.3,2.7-6.5c0.8-0.5,1.4-1.2,2.5-1.2
	c2.3,0.6,4.2,1.7,4.7,4.2c0.4,2.2,2.7,2.6,3.9,4.1C1248.7,1235.7,1249.1,1236.7,1248.4,1237.9z"/>
<path class="st0" d="M1110.7,1244.3c0,0-0.6-1.2-1-2c1.8-1.4,3.5-2.7,8.2-6.3c-4.8,1.2-5.9,1.5-8.3,2.1c1.5-1.4,2.2-2.6,2.7-2.5
	c2.7,0.4,5.4,1.2,8.5,1.9c-0.1,0.2,0.4-0.7-0.1,0.2C1118.5,1239.2,1114.5,1241.8,1110.7,1244.3z"/>
<path class="st0" d="M1188.4,1209c1.2-2.8,2.5-5.5,3.7-8.3c0.8,1.2,1.6,2.4,2.4,3.7c1.1-1.3,2.5-2.9,6.2-7.3
	c-2.1,5.6-3,7.9-3.8,10.2c-1.7-1-3.4-2-5.3-3C1190.9,1205.4,1189.7,1207.1,1188.4,1209c0.2,0.2,0.3,0.5,0.5,0.8
	C1188.7,1209.5,1188.5,1209.2,1188.4,1209z"/>
<path class="st0" d="M1045.9,1253.7c-1.1-0.2-2.2-0.4-9.5-1.9c8.3-1.5,12-2.1,15.7-2.8c0,0-0.2-0.2-0.2-0.2c-1,2-2.1,4-3.2,6
	c-0.2-0.4-0.5-0.5-1-0.3c-0.4-0.1-0.7-0.2-1.1-0.3C1046.3,1254.2,1046.1,1254,1045.9,1253.7z"/>
<path class="st0" d="M677.2,1267.8c-1.4,4.7-2.3,7.9-3.3,11.1c-0.8,0-1.6,0-2.4-0.1c0-3-0.5-6.2,0.3-9
	C672.1,1268.8,675.3,1268.5,677.2,1267.8z"/>
<path class="st0" d="M1244.2,1179.5c1-3.4,2.1-6.8,4.7-15.6c0.6,7.7,0.8,9.3,0.9,11.2c0.9-0.4,2.1-1,3.1-1.5c0.4,1.6,0.9,3.2,1,3.8
	C1251.3,1177.8,1247.7,1178.6,1244.2,1179.5C1244.2,1179.4,1244.2,1179.5,1244.2,1179.5z"/>
<path class="st0" d="M1226,1172.6c-1-0.3-2-0.6-2.7-0.8c1.3-1.7,2.5-3.2,4.1-5.2c1.8,0.4,4.9,1.2,7.5,1.8c-1.5,2.3-2.8,4.3-4.1,6.3
	C1228.8,1175,1227.3,1174.2,1226,1172.6z"/>
<path class="st0" d="M1088.3,1243.2c2.1-3.1,4.1-6.1,6.2-9.2c0.6,0.5,1.2,1,1.8,1.5c-2,2.1-3.9,4.2-6.6,7.1
	c1.6,3.1,3.9,7.2,6.1,11.4c-0.4,0.2-0.8,0.4-1.1,0.7C1092.5,1250.8,1090.4,1246.9,1088.3,1243.2l-0.4,0.1L1088.3,1243.2z"/>
<path class="st0" d="M1167.8,1173.3c-2-0.2-4.1-0.3-10.6-0.9c5.4-0.8,6.4-1,7.3-1.1c-0.3-2-0.7-3.9-1-6c-0.7,0.9-1.3,1.6,0.1-0.2
	c0.4,0.2,3.3,0.7,4.5,2.3c0.9,1.2-0.3,4-0.6,6.1L1167.8,1173.3z"/>
<path class="st0" d="M1189.3,1233.1c1.7-0.5,3.7-1,6.2-1.6c-0.4,2-0.7,3.5-1.1,5.5c2.7,0,5,0,9.8,0c-4.4,1.1-6.7,1.7-8.8,2.2
	c1,0.5,2,1,3.7,1.7c-1.1,0.7-2.4,1.6-2.4,1.5C1194.2,1239.5,1191.9,1236.5,1189.3,1233.1z"/>
<path class="st1" d="M1239.8,1249.8c1.4,2.4,2.9,4.8,3.9,6.4c-2.4,1-3.8,1.4-4.9,2.2c-1.7,1.3-3.3,2.8-4.9,4.2c-0.5-1.7-1-3.3-1.5-5
	c2.6-2.1,3-5.6,5.3-7.9C1238.4,1249.7,1239.1,1249.8,1239.8,1249.8z"/>
<path class="st0" d="M1190.8,1251.6c-0.4,1.7-0.7,3.4-1.7,7.7c-0.2-0.7,0.2,0.8,0.6,2.3c-2.6-1.1-5.2-2.3-7.8-3.4l0,0
	C1184.9,1255.9,1187.9,1253.8,1190.8,1251.6z"/>
<path class="st0" d="M1251.8,1203.6c-0.7,2.3-1.5,4.7-2.3,7.2c-0.5-0.1-1-0.2-1.5-0.4c0.2-1.5,0.4-3.1,0.7-4.6
	c-4,2.2-7.7,4.4-12.7,7.1c1.5-2.7,2.2-3.9,2.5-4.4C1243.1,1206.9,1247.4,1205.2,1251.8,1203.6z"/>
<path class="st0" d="M913,1228.2c0-0.5,0-1,0-1.6c-0.3-1.1-0.6-2.3-0.8-3c4.7-1,8.9-1.8,13.1-2.7c0.1,0.7,0.1,1.3,0.2,2
	c-1.9,0.7-3.9,1.4-7.4,2.7C917,1226.2,915,1227.2,913,1228.2z"/>
<path class="st0" d="M1226.7,1201.2c1.2,1.1,2.5,2.2,3.7,3.4c2-3.4,4-6.9,5.9-10.2c0.5,0.3,2.2,1.3,3.6,2.1c-3.2,2.6-6.8,5.6-10.9,9
	c-0.2-0.2-1.8-2-3.4-3.8C1226,1201.6,1226.4,1201.4,1226.7,1201.2z"/>
<path class="st0" d="M1226,1172.6c1.6,0.7,3.2,1.4,4.8,2.2c1.3,2,2.6,4,3.7,5.8c-1.9,0-4.1,0-6.8,0
	C1227.3,1178.5,1226.6,1175.6,1226,1172.6z"/>
<path class="st0" d="M1217.1,1155.1c0-4.4-0.7-7.9,0.2-10.7c0.7-2.1,3.5-3.6,6.9-6.7C1221.3,1144.8,1219.2,1149.8,1217.1,1155.1z"/>
<path class="st0" d="M1136.6,1165.5c-1.3-1.5-3.3-3.8-8.1-9.4c3.8,0.7,2.6,0.5-0.1,0c3.6-1.4,6-2.3,8.2-3.2
	C1136.6,1156.1,1136.6,1160.5,1136.6,1165.5z"/>
<path class="st1" d="M1226.7,1252.6c0.3-0.6,0.6-1.2,0.9-1.9c1.7,0,3.5,0,5.2,0c3.8,2.1,3.8,2.5-0.7,6.9c-2.1,0.4-4.3,0.8-6.4,1.2
	C1226.1,1256.8,1226.4,1254.7,1226.7,1252.6z"/>
<path class="st0" d="M888.9,1278c0.7,1.2,1.3,2.1,1.8,3.1c-4.3-1.7-8.2-3.2-13-5.1c3.3-0.3,5.1-0.4,9.9-0.8
	c-0.3-0.1,2.5,0.9,7.6,2.9C891.5,1278,890.3,1278,888.9,1278z"/>
<path class="st0" d="M475.2,256c-1.2,2.3-2.1,4.2-3,6.1c-1.4-1.5-3.7-2.8-3.9-4.4c-0.2-1.1,2.3-2.9,3.9-3.9
	C472.5,253.6,474.1,255.2,475.2,256z"/>
<path class="st0" d="M1113.9,1266.7c-2.1,1.3-4.3,2.6-7,4.3c-0.3-1-0.7-2.1-1.1-3.2c0.9-1.3,1.8-2.6,2.4-3.4c2-0.6,3.9-1.2,6-1.9
	C1114.2,1263.2,1114.1,1264.9,1113.9,1266.7z"/>
<path class="st0" d="M1197.1,1127.6c0,1.7,0,3.3,0,5c-0.8-0.4-2.8-1.3-5.1-2.3c-0.2,1-0.4,2.2,0.3-1.6c-0.5,1,1.3-2.3,3.7-6.9
	c0.4,2.2,0.7,4,1,5.8C1197,1127.8,1197.1,1127.6,1197.1,1127.6z"/>
<path class="st0" d="M926.2,1272.7c3.2-2.2,5.8-4,8.6-5.9c0.3,2.7,0.7,5.5,1,8.2C932.7,1274.2,929.9,1273.6,926.2,1272.7z"/>
<path class="st0" d="M1238.4,1227.6c-0.6,0-1.1,0-1.7,0c0.8-1.3,1.6-2.7,2.8-4.6c-1.8-0.2-3.2-0.4-4.6-0.6c0.1-0.3,0.2-0.7,0.3-1
	c1.7,0.5,3.3,1,9,2.6c-2.5,0.3-0.5,0.1,1.5-0.2c0.3,0.5,0.6,1,1,1.5C1245.4,1231.3,1241.3,1227.1,1238.4,1227.6z"/>
<path class="st1" d="M1079,1273.2c1.3,0.5,2.6,1,3.9,1.5c-0.6,1.4-1.1,2.9-0.8,2c2.7,2.3,4.2,3.7,5.8,5c-1.2,0-2.3,0-6.9,0
	c0,0-2.6-1.6-5.2-3.1l0.2,0.1c-1.5-2.3,0.3-2.6,1.8-3C1078.1,1274.9,1078.5,1274,1079,1273.2z"/>
<path class="st0" d="M1156.6,1237.2c-1.2,0.3-2.4,0.7-3.6,1c-1.8-0.9-3.6-1.7-7.2-3.5c3.6-0.7,6-1.1,8.4-1.6l0,0
	c2.1,0.4,4.3,0.9,6.5,1.3C1159.4,1235.4,1158,1236.3,1156.6,1237.2z"/>
<path class="st0" d="M1201.9,1220.7c-3.2-0.5-6.4-1-9.5-1.5c0.2-0.9,0.3-1.7,0.5-2.6c1.9-0.2,3.8-0.4,6.3-0.6
	c0.4,0.8,1.5,2.8,2.6,4.8L1201.9,1220.7z"/>
<path class="st0" d="M1217.7,1228.8c-2.8-0.9-6.4-2.2-10.9-3.7c3.5-0.9,6.8-1.7,10.2-2.5C1217.3,1225.1,1217.6,1227.7,1217.7,1228.8
	z"/>
<path class="st0" d="M609.9,1229.5c-1.2-0.4-2-0.6-3-0.9c1.6-1,2.8-1.8,4.1-2.7c2.2,3.5,4.4,6.9,6.4,10c-2.6-1.4-5.6-3.1-8.7-4.7
	C608.3,1231.8,609.1,1230.7,609.9,1229.5z"/>
<path class="st0" d="M986.4,1263c-0.6,2.2-1.3,4.4-1.9,6.5c-1.3-1.1-2.4-2.8-3.1-2.6c-1.1,0.3-2.1,1.7-2.9,2.7
	c-0.1,0.1,1.1,1.2,1.8,1.9c-2,0-4,0-10.1,0C977.9,1267.5,982.1,1265.2,986.4,1263L986.4,1263z"/>
<path class="st0" d="M1167.8,1173.3c0,0-0.2,0.2-0.2,0.2c2.5-3.3,4.9-6.6,7.4-10c1,0.9,2.1,1.9,3.1,2.8c-2,1.4-4,2.8-6,4.3
	c-0.2-0.1,0.6,0.4,1.9,1.2c-2.5,1.3-4.7,2.5-7.8,4.1C1167,1174.6,1167.4,1173.9,1167.8,1173.3z"/>
<path class="st0" d="M1117.4,421.9c-7.9,0-10.3,0-12.6,0c0.2-1.7,0.4-3.5,0.7-5.2C1107.8,417.6,1110,418.6,1117.4,421.9z"/>
<path class="st0" d="M1187.3,1191.7c-1.8,2-3.6,4.1-6.2,7c0.1,0.1,0.8,1.4,1.6,2.6c-0.3,0.1-0.6,0.3-0.9,0.4
	c-0.7-1.4-2.3-3.3-1.8-4.1c1.5-2.8,3.7-5.2,5.7-7.8C1186.2,1190.5,1186.8,1191.1,1187.3,1191.7z"/>
<path class="st0" d="M1102.7,1174.9c1.2,3.5,2.4,6.9,3.6,10.4c-0.6,0.1-1.1,0.1-1.7,0.2c-1.7-3.1-3.4-6.3-5-9.4
	C1100.6,1175.7,1101.7,1175.3,1102.7,1174.9z"/>
<path class="st0" d="M907,1229.1c1.2,1,2.4,2,1.9,1.6c0.9,3.5,1.3,5,1.7,6.6c-3.1-1.7-6.3-3.3-9.6-5.1
	C902.8,1231.3,904.9,1230.2,907,1229.1z"/>
<path class="st0" d="M1168.2,1254.7c-1.1-5.7-1.7-9.3-2.4-12.9c1,1.3,2.2,2.5,3.1,3.8c0.1,0.2-1,1.2-1.6,1.9c1.1,0.4,2.5,0.9,4,1.5
	c0,0,0.2,0.3,0.2,0.5C1170.7,1250.7,1169.9,1251.9,1168.2,1254.7z"/>
<path class="st0" d="M1248.4,1237.9c-0.5-0.6-1-1.2-1.6-1.9c-0.5-1.5-2-2.8-0.8-4.7c2.3-0.4,3.4,1.4,4.8,2.7
	c1.6,0.2,3.2,0.4,4.9,0.6c-0.7,1.3-1.4,2.7-2,4C1251.9,1238.4,1250.1,1238.2,1248.4,1237.9z"/>
<path class="st0" d="M1123.9,1177.7c1.1,3.9,1.8,6,3,10.1c-3.4-1.7-5.5-2.7-7.5-3.7C1120.7,1182.2,1122,1180.3,1123.9,1177.7z"/>
<path class="st0" d="M921.8,1258.8c-1.1-1-2.1-2-6.3-5.8c6.8,3.2,10.2,4.9,13.6,6.5c0.1-0.3,0.2-0.6,0.3-0.9
	c-0.1,0.3-0.1,0.6-0.2,0.9c-2,1.3-4,2.7-6,4C919.5,1262.9,921.7,1260.5,921.8,1258.8z"/>
<path class="st0" d="M1077.7,1275.7c-0.6,1-1.2,2-1.8,3c-1.7-0.6-3.3-1.2-5-1.8c0.9-0.8,1.8-1.6,3.6-3.1c-2.4-0.9-4.5-1.7-6.6-2.5
	c-0.3-0.9,0.1-1.5,1-1.8c2.4,0.9,4.8,1.7,7.5,2.8C1076.5,1272.7,1077.1,1274.2,1077.7,1275.7z"/>
<path class="st0" d="M1047,1210.6c-1.8-3.6-3.4-6.8-6.7-13.2c4.5,5.2,6.4,7.4,9.1,10.4c-0.8,0.7-2.9,2.7-5,4.6
	c-0.2-0.6-0.3-1.2-0.5-1.8C1044.7,1210.6,1045.5,1210.6,1047,1210.6z"/>
<path class="st0" d="M1232.1,1257.6c0.2-2.3,0.5-4.6,0.7-6.9c1.6-0.3,3.2-0.7,4.8-1c0.4,1.6,0.8,3.3,2.3,9.7c-1.7-5.3-1.9-5.9-2-6
	c-1.8,1.4-3.7,2.8-5.6,4.3L1232.1,1257.6z"/>
<path class="st0" d="M936.4,1276.7c0.8-1.4,1.6-2.8,2.4-4.2c2.1,1.2,4.1,2.4,6.2,3.7c0.2-0.5,0.6-1.6-0.2,0.5
	C944.1,1276.7,940.8,1276.7,936.4,1276.7z"/>
<path class="st0" d="M817.6,1259.1c0,0.7,0,1.9,0,2.6c-3,0-6,0-10.3,0c2.3,1.6,3.3,2.3,4.7,3.2c-0.8,0.3-1.5,0.7-1.6,0.6
	c-1.1-1.8-2.2-3.7-3.2-5.4C811.3,1259.8,814.1,1259.5,817.6,1259.1z"/>
<path class="st0" d="M1086.7,1242.6c0.5,0.2,1,0.4,1.6,0.5c0,0,0,0,0,0c0,1.9,0,3.8,0,6c-3.9-2.4-7.6-4.7-11.3-7
	C1080.3,1240.1,1083.5,1240.9,1086.7,1242.6z"/>
<path class="st0" d="M1015.5,1177.1c3.3,0,6.5,0,9.8,0c-0.9,1.1-1.8,3.3-2.6,3.2c-2.6,0-5.3-0.9-7.9-1.4
	C1015,1178.4,1015.3,1177.8,1015.5,1177.1z"/>
<path class="st0" d="M921.8,1258.8c0.5,1.6,0.9,3.1,1.4,4.7c1,1.9,2.1,3.7,3.6,6.4c-1.7-0.3-3.6-0.3-3.7-0.6
	C922.5,1265.8,922.2,1262.3,921.8,1258.8z"/>
<path class="st0" d="M1018.8,1234.5c-1.5,0.6-0.2,0.1,2.1-0.9c-2.3-0.7-4.1-1.1-4.1-1.3c0.3-2.3,0.9-4.6,3.5-6.2
	C1019.7,1229.7,1019.1,1233.2,1018.8,1234.5z"/>
<path class="st0" d="M1107.9,1253.7c3.4-2.7,4.9-3.9,6.6-5.3c-0.4,2.2-0.7,4.1-1.3,7.2c-2.4-1.9-4.4-3.5-6.3-5
	c0.9-1.1,1.9-2.2,2.8-3.3c0.4,0.3,0.7,0.5,1.1,0.8C1110.2,1249.2,1109.6,1250.3,1107.9,1253.7z"/>
<path class="st0" d="M1182,1258.1C1182,1258.1,1182,1258.1,1182,1258.1c-2.1,0.7-4.1,1.4-5.4,1.8c-0.1-1.1-0.3-3.3-0.5-5.5
	c0.7,0.1,1.6,0.2,4.9,0.6C1180.9,1254.5,1181.5,1256.3,1182,1258.1z"/>
<path class="st0" d="M1201.7,1220.9c0.5-1.9,1.1-3.8,1.6-5.8c1,0.9,1.9,1.8,2.9,2.8c-0.7,3.2-1.4,6.4-3,14.1
	c-0.7-6.6-1-8.9-1.2-11.3C1201.9,1220.7,1201.7,1220.9,1201.7,1220.9z"/>
<path class="st0" d="M1138.4,1245.8c1.8,0.4,3.5,0.8,5.3,1.2c-1.6,1.6-3.2,3.1-4.9,4.7c-0.2-2-0.4-3.9-0.6-5.9L1138.4,1245.8z"/>
<path class="st0" d="M902.5,1214.4c-3.5,0-7.1,0-10.6,0c-0.2-0.4-0.5-0.7-0.7-1.1c3.6,0,7.3,0,10.9,0
	C902.2,1213.6,902.3,1214,902.5,1214.4z"/>
<path class="st0" d="M664.8,1221.8c-2.4,0.7-4.3,1.4-7.6,2.4c0.2-1.3,0.6-3.5,1-5.6C660.3,1219.6,662.4,1220.7,664.8,1221.8z"/>
<path class="st0" d="M1186.4,1217.8l-0.2,0c0.2-1.3,0.4-2.6,0.5-3.8c0.5,0.7,1.1,1.4,1.6,2.2c0-2.4,0-4.8,0-7.2c0,0,0.1,0,0.1,0
	c0.4,2.8,0.9,5.6,1.1,8.4C1189.6,1217.4,1187.5,1217.7,1186.4,1217.8z"/>
<path class="st0" d="M1085.6,1164.7c3.4,1.2,6.2,2.1,10.7,3.7c-4.2,0.4-7,0.6-10.2,0.9C1085.9,1167.7,1085.7,1165.9,1085.6,1164.7z"
	/>
<path class="st0" d="M999.1,1240.3c1.4-4,2.2-6.5,2.3-6.4c2.6,0.7,5.2,1.7,6.6,4.9c-1.4-0.9-2.8-1.9-4.7-3.2
	C1003.2,1235.8,1002.2,1236.9,999.1,1240.3z"/>
<path class="st0" d="M924.9,1236c0.5-2.7,0.9-5.7,1.4-8.6c1.4,1.2,2.9,2.4,4.3,3.6C928.8,1232.6,927.1,1234.1,924.9,1236z"/>
<path class="st0" d="M1001.3,1274.9c-0.5,0.3-0.9,0.5-1.4,0.8c-0.7,0.4-1.5,0.8-5.2,2.7c1.9-2.9,2.6-5.1,4.1-5.9
	c1-0.5,3.1,0.9,5.7,1.8C1003.1,1274.5,1002.2,1274.7,1001.3,1274.9z"/>
<path class="st0" d="M662,1240.2c-6.1,1-9,1.4-11.9,1.9c1.2-1.3,2.1-3.4,3.6-3.9C655.1,1237.7,657,1238.9,662,1240.2z"/>
<path class="st1" d="M1086.7,1242.6c-3.3-0.1-6.5-0.3-9.8-0.4c0-0.9-0.1-1.8-0.1-2.6c2.1-1.7,4.8-0.4,7.3-1.2
	c2.1-0.7,1.2,3.2,2.7,4.4L1086.7,1242.6z"/>
<path class="st0" d="M1214.2,1174.5c-0.2,0.3-0.4,0.5-0.6,0.8c-2.2-1.1-4.3-2.1-6.9-3.4c1.6-1,3.5-2.2,5.2-3.3
	C1212.6,1170.6,1213.4,1172.6,1214.2,1174.5z"/>
<path class="st0" d="M897.6,1243.7c-0.8,2.5-1,4.6-2,6.1c-0.6,0.9-2.5,1-4.4-0.5c2.2-0.3,4.3-0.7,9.5-1.5c-4.6-0.6-6.3-0.8-8.3-1
	C893.7,1246,895,1245.3,897.6,1243.7z"/>
<path class="st0" d="M1068.8,1269.6c-0.3,0.6-0.7,1.2-1,1.8c-1.2,0.6-2.5,1.2-3.7,1.9c-0.7-0.7-1.4-1.4-2.1-2.1
	c2.6-3.5,5.1-7,7.7-10.5c1.1,1.1,2.3,2.3,3.4,3.4C1071.7,1265.9,1070.3,1267.7,1068.8,1269.6z"/>
<path class="st0" d="M896.9,1239.7c3,0.3,6.1,0.6,9.1,0.9c-0.3,0.9-0.6,1.7-0.9,2.6c-3.2-0.8-6.4-1.6-9.7-2.3
	C895.9,1240.5,896.4,1240.1,896.9,1239.7z"/>
<path class="st0" d="M936.1,1236.5c-0.8,1.7-1.7,3.7-2.5,5.5c-1.3-2.3-2.7-4.7-4.3-7.6C931.2,1235,933.6,1235.7,936.1,1236.5z"/>
<path class="st0" d="M1086.8,1242.8c-1-1.3-2.1-2.6-3.3-4.2c-1.1,1-2.3,2-3.2,2.8c-1.3-0.7-2.4-1.2-3.5-1.8c2.7-0.7,5.4-1.8,8.2-2
	C1085.5,1237.6,1086.2,1241,1086.8,1242.8z"/>
<path class="st0" d="M1218.3,1244.9c-1.6,3-2.8,5.5-4.1,7.9c-1.1-1.2-2.3-2.4-4.5-4.7c2.2,0.9,3.1,1.3,5.1,2.1c-1-1.8-1.5-2.7-2.1-4
	C1214.8,1245.7,1216.6,1245.3,1218.3,1244.9z"/>
<path class="st0" d="M1021.5,1262c1.1,2.4,2,4.7,3.4,8c-3.4-1.1-5.2-1.7-6.4-2.1C1019.1,1266.7,1019.9,1265,1021.5,1262z"/>
<path class="st0" d="M929.1,1259.4c0.8-4.2,1.5-8.3,2.1-11.8c1.3,0.8,2.8,1.5,3.3,1.8C932.7,1252.8,931,1256.1,929.1,1259.4
	C929.2,1259.5,929.1,1259.4,929.1,1259.4z"/>
<path class="st0" d="M1205.8,1239.8c0.2-0.8,0.5-1.5,0.7-2.3l0.2-0.4c2,1.5,4,3,6,4.6c-0.7,0.9-1.3,1.7-2,2.6
	C1209.1,1242.8,1207.4,1241.3,1205.8,1239.8z"/>
<path class="st0" d="M659.6,1258.6c-1.7-3.4-3.4-6.8-6.2-12.3c3.6,4.3,5.9,7,8.2,9.7C661.5,1255.9,660.7,1257.1,659.6,1258.6z"/>
<path class="st0" d="M849.3,1269.2c0,4.4,0,8.8,0,13.2c-0.4-0.1-0.8-0.1-1.3-0.2c0-4.2,0-8.5,0-12.7
	C848.5,1269.4,848.9,1269.3,849.3,1269.2z"/>
<path class="st0" d="M1193.6,1106.6c0.3,1.1,0.8,2.9,1.4,5.1c-2.9-0.6-5.1-1.1-6.9-1.5C1189.9,1109.1,1191.7,1107.9,1193.6,1106.6z"
	/>
<path class="st0" d="M1206.7,1237.1c0,0-0.2,0.4-0.2,0.4c0,0-0.2,0-0.2,0c-0.9-1.1-1.9-2.2-4.8-5.5c-0.3,1.5,0.1-0.4,0.4-1.9
	c1.9,0.9,3.6,1.6,5.4,2.5C1207.2,1233.7,1206.9,1235.4,1206.7,1237.1z"/>
<path class="st0" d="M625.5,1242.4c-2.6,1.8-5.3,3.6-7.9,5.3c-0.3-0.5-0.7-1-1-1.5c2.6-1.9,5.1-3.8,7.7-5.7
	C624.7,1241.2,625.1,1241.8,625.5,1242.4z"/>
<path class="st0" d="M1252,1279.2c-1.4-2.9-2.5-5.4-4.1-8.8c2.4,1.2,3.8,1.9,4.5,2.2C1252.3,1274.3,1252.2,1276.2,1252,1279.2z"/>
<path class="st0" d="M1101.7,1208.7c2.5,0.8,5.1,1.7,7.6,2.5c-0.2,0.6-0.5,1.3-0.7,1.9c-2.5-0.9-5-1.9-7.5-2.8
	C1101.3,1209.8,1101.5,1209.3,1101.7,1208.7z"/>
<path class="st0" d="M1115.2,1214.8c3.5,2.3,7,4.7,10.5,7c-0.3,0.4-0.6,0.8-0.8,1.1c-3.6-2.3-7.3-4.6-10.9-7
	C1114.4,1215.6,1114.8,1215.2,1115.2,1214.8z"/>
<path class="st0" d="M1052.7,1217.2c-1.8,2.5-4.1,5.6-6.4,8.7c0.4-1.4,0.5-3.6,1.6-5C1049.2,1219.2,1051.4,1218.2,1052.7,1217.2z"/>
<path class="st0" d="M1230.9,1102.2c-0.3,3.1-0.6,5.6-0.9,8.7c-1.8-1.2-3.5-2.4-4.2-2.9C1227.4,1106.3,1228.7,1104.8,1230.9,1102.2z
	"/>
<path class="st0" d="M1106.3,1172.4c-0.2-2-0.2-3.2-0.5-7.3c1.6,5.1,2.3,7.5,3.3,10.8c-2.9-2.1-5.1-3.7-7.3-5.4
	c0.2-0.3,0.4-0.5,0.5-0.8C1103.3,1170.4,1104.3,1171.1,1106.3,1172.4z"/>
<path class="st0" d="M1252.9,1139.6c1.2-1,2.5-2,3.7-3C1255.4,1137.7,1254.1,1138.7,1252.9,1139.6z"/>
<path class="st0" d="M1163.9,1276.6c1-0.7,1.9-1.3,2.9-2c0,0.3,0.1,0.7,0.1,1C1165.8,1276,1164.8,1276.3,1163.9,1276.6z"/>
<path class="st0" d="M1138.4,1245.8l-0.2-0.1c-0.1-0.3-0.3-0.6-0.4-0.9c0.4-0.4,0.8-0.7,1.2-1.1
	C1138.7,1244.4,1138.5,1245.1,1138.4,1245.8z"/>
<path class="st0" d="M1166.7,1274.6c0-0.3,0-0.6,0-0.8c0.1,0.2,0.2,0.4,0.3,0.6C1167,1274.4,1166.8,1274.5,1166.7,1274.6z"/>
<polygon class="st0" points="1157.3,1226.6 1157.1,1226.6 1157.3,1226.4 "/>
<path class="st0" d="M1045.9,1253.7c0.3,0.2,0.6,0.4,0.8,0.6C1046.4,1254,1046.2,1253.8,1045.9,1253.7z"/>
<path class="st0" d="M1047.8,1254.5c0.3,0.1,0.6,0.2,1,0.3C1048.4,1254.7,1048.1,1254.6,1047.8,1254.5z"/>
<path class="st0" d="M1142.7,1267.3c1.9,0.8,0.7,0.3-1.1-0.5c2.1-0.4,3.6-0.7,7.3-1.3c-2.5,3.8-4.2,6.3-5.9,8.8c-1.1-1-2.3-2-3.4-3
	C1140.7,1269.7,1142,1268.1,1142.7,1267.3z"/>
<path class="st1" d="M1101,1269.2c-0.1,2.8-0.2,5.6-0.3,8.5c-2.7,0-5.4,0-12.1,0c3-0.9,1.4,0.1,0.8-0.4c-1-0.8-1.4-2.4-2.1-3.6
	c0.2-1.2,0.4-2.5,0.7-5c0.6,2.1,0.9,3.1,0.2,0.5C1093.4,1269.2,1097.2,1269.2,1101,1269.2z"/>
<path class="st1" d="M1250.8,1234.1c-1.2-0.3-2.4-0.6-3.7-0.9c-0.1,0.8-0.2,1.9-0.3,2.9c-3.1-1.3-6.1-2.6-9.2-3.8
	c0.3-0.9,0.6-1.8,0.9-2.7c1,0.5,2,1.1,4.9,2.6c-2.6-2.3-3.8-3.4-5-4.5c2.8-0.8,5.6-1.6,8.4-2.3
	C1248.1,1228.2,1249.5,1231.1,1250.8,1234.1z"/>
<path class="st1" d="M6.9,565.1c-5.4-1.3-10.5-1.3-14.3-3.6c-15.1-9.1-30.3-18.2-44.3-28.7c-11.2-8.4-20.7-19-31-28.6
	c-0.2-0.2-0.6-0.1-0.9-0.2c9.5-13.7-6.8-8-9.3-12.6c-5-9.2-10.8-18.4-13.8-28.4c-3.7-12.2-7.2-25.3-6.5-37.8
	c1.3-22.1,4.5-44.4,9.5-66c3.3-14.6,9.5-29,17-42c11.8-20.5,24.3-40.8,39.1-59.2c13.2-16.5,29.5-30.6,45.2-44.9
	c9-8.2,18.9-16,29.6-21.7c21.7-11.7,43.3-24.6,66.6-31.8c18.5-5.8,39.4-4.1,59.3-5.2c4.6-0.3,9.2,1.6,10.5,1.8
	c9.4-1.3,14.8-2.7,20.3-2.6c15.9,0.2,32.1-1,47.5,2c17,3.3,33.9,9,49.4,16.8c10.6,5.3,19.7,14.9,27.4,24.2
	c17.7,21.3,35.5,42.7,50.6,65.8c7.4,11.4,11.1,26.5,12.6,40.3c2.3,21,3.5,42.5,1,63.4c-2.2,19-7.9,38.2-15.6,55.7
	c-8.4,19.1-19.1,37.9-32.4,53.9c-12.6,15.2-29.8,26.5-45,39.4c-8.4,7.1-16.1,15.5-25.5,20.9c-8.7,5-19.2,6.9-29,10
	c-9.3,2.9-18.6,6.1-28.1,8.1c-17.1,3.6-34.4,6.2-51.5,9.6c-11.9,2.4-23.6,7.1-35.6,8.1c-13.7,1.2-27.6,0.1-41.4-1.1
	c-19.3-1.7-38.4-4.5-57.7-6.6C9,563.8,7.3,564.9,6.9,565.1z"/>
<path class="st1" d="M-345.6,570.2c-0.7,1.4-1.3,2.5-1.8,3.6c-1.5-1-2.9-1.9-4.5-3c0-0.1-0.1,0.6-0.5,1.9c-0.7-2-1.2-3.5-1.6-4.8
	c-1.2,1-2.7,2.9-3.2,2.7c-24.9-11.3-49.8-22.8-76-34.9c3-3.5,2.3-2.7-0.6,0.8c-12.9-18.8-28.2-35.4-36.7-54.9
	c-9-20.7-11.9-44.1-16.5-66.6c-1.5-7.4-0.2-15.3,1.8-22.8c0-2.2,0-4.4,0-6.9c0,0-1.1,0.2-2.3,0.3c1.4-5,2.8-9.8,4.2-14.6
	c0.2,0.1-0.6-0.2-1.4-0.4c5.4-19.1,10.8-38.3,18.5-65.6c5.7-12.9,14.6-33.1,23.3-52.9c3.2,0.7,2.3,0.5,1.5,0.3
	c3.4-4.8,6.7-9.6,12.5-17.9c6.6-7.3,16-17.9,25.5-28.4c0.3,0.3,0.7,0.6,1,0.9c3-2.7,5.8-5.8,9.1-8.1c13-8.8,25.8-18.1,39.3-25.9
	c14.3-8.3,29-16.1,44.2-22.4c18.2-7.6,37-14.1,55.9-19.6c12.8-3.7,26.3-4.7,39.4-7.3c12.1-2.4,24-6.8,36.2-7.5
	c10.6-0.7,21.6,2,32.2,4c13.3,2.5,27,4.2,39.5,9.1c16.9,6.6,33.1,15.2,49,24c10,5.5,19.6,12.1,28.1,19.6c6,5.3,11.7,12.5,14.1,19.9
	c1,3.1-6.8,9.1-10.6,13.7c-13.4,16.3-27.2,32.3-40.1,48.9c-7.6,9.8-14.1,20.5-20.8,31c-6.2,9.5-13.7,18.6-17.7,29.1
	c-7.6,19.8-13.4,40.4-19.3,60.8c-3.5,12.2-6.5,24.6-8.6,37.1c-1.5,8.7-1.8,17.7-1.3,26.5c1.2,20.5,3.2,40.9,5.1,61.3
	c1.5,15.5-9.8,30.6-25,33.6c-3.2,0.6-5.7,4.1-8.8,5.7c-14.6,7.4-28.8,15.9-44,21.6c-14.9,5.6-30.8,9.5-46.5,11.8
	c-11.3,1.7-23.2-1.3-34.8-0.5c-7.9,0.5-15.7,5.6-23.5,5.7c-11,0.2-22-2.3-33-4C-345.1,575.3-345.2,572.2-345.6,570.2z"/>
<path class="st1" d="M-66.1,556.5c-1.4-1.9-2.7-3.8-4.1-5.6c-1.2,1.2-2.1,2-2.9,2.8c0.5-3.5,0.9-7.1,1.6-12.8
	c3.2,6.3,5.4,10.5,7.5,14.6C-64.6,555.9-65.4,556.2-66.1,556.5z"/>
<path class="st1" d="M24.8,583.5c0.1-1.1,0.4-2.8,1.3-9.3c0.9,6,1.1,7.1,1.3,8c4.1-0.2,8.2-0.4,12.3-0.6c0,0.6,0.1,1.2,0.1,1.9
	C34.9,583.5,30,583.5,24.8,583.5z"/>
<path class="st1" d="M262,542.7c-1.6,2.5-3.3,4.9-4.9,7.4c-0.6-0.5-1.2-0.9-1.8-1.4c1.5-2.5,3-5,4.5-7.4
	C260.5,541.7,261.3,542.2,262,542.7z"/>
<path class="st1" d="M264.9,544.8c2.3-1.8,4.5-3.7,6.8-5.5c0.5,0.7,1.1,1.3,1.6,2c-2.3,1.8-4.5,3.7-6.8,5.5
	C266,546.2,265.5,545.5,264.9,544.8z"/>
<g>
	<path class="st0" d="M-493.5,1310.9c1.3,0.9,2,1.3,4.5,3c-26,7.9-50.5,15.4-86.5,26.4c-16.7,1.2-45.6,3.2-74.6,5.2
		c-0.2-1-0.5-1.9-0.7-2.9c-6.2-2.3-12.3-4.6-17.9-6.7c1.2-2.9,1.9-4.5,2.6-6.1c-1.8-0.5-3.7-1.1-5.6-1.6c0.6,3.1,1,5.3,1.7,9.1
		c-24.9-8.6-48.5-16.6-72.1-24.7c1.2-1.3,2.3-2.6,3.5-3.8c-4.1-2.6-8.2-5.4-12.4-7.8c-0.5-0.3-1.9,0.8-3.2,1.4
		c0.2-1.2,0.5-2.5,0.3-1.5c-8.9-10.6-16.8-20-24.5-29c-0.3,0.1,0.5-0.1,1.9-0.5c-1.7-0.4-2.8-0.7-3.6-0.9c0.4-1.5,1.7-3.4,1.2-4.5
		c-7.4-16.1-15.1-32.2-23.9-50.6c-2.3-41.3-4.6-83.8-7-126.2c1.4-0.1,2.8-0.2,4.2-0.2c0.2,0.6,0.3,1.1-0.4-1.3
		c18.3-55,35.1-113.2,84.5-155c-2.1-0.6-3.4-1-4.8-1.4c0.2-0.6,0.2-1.3,0.5-1.4c1.4-0.6,2.8-1.2,4.3-1.6c4-1,8.3-1.3,11.9-3.2
		c1-0.6-0.3-5.4-0.4-8.3c0-1,0.1-2.2,0.6-3c0.3-0.4,2.1-0.5,2.4-0.1c1.5,2.3,2.7,4.7,3.1,5.4c34.3-8.3,69.2-16.7,99.6-24
		c11.8,1.6,19.3,2.7,26.8,3.6c19.7,2.3,39.5,4.2,59.2,6.9c11.2,1.6,23.8,1.8,32.8,7.4c22.1,13.9,43.9,28.9,63,46.5
		c13.6,12.5,23.7,29.3,33.3,45.4c10,16.8,20.8,34.3,25.2,52.9c4.1,17.4,0.2,36.7-0.3,55.1c-0.1,4.1-0.7,8.3-0.8,9.5
		c0.2,2.2,0.1,1.4-0.1-1.1c-19.7,69.7-50.8,131-104.2,177.6c0,0.7,0-0.5,0-5.1c-1.4,4.7-1.8,6.2-1.6,5.4
		C-479.3,1303.5-486.3,1307.1-493.5,1310.9z"/>
	<path class="st0" d="M-392.5,1386.1c0.2,4.1,0.3,6.1,0.4,8.5c-0.8,0.2-2.2,0.5-4.5,1C-395.4,1392.6-394.3,1390.1-392.5,1386.1z"/>
	<path class="st1" d="M-721.5,1286.5c-6.9-5.9-14.1-11-20-17.3c-4.8-5-8.2-11.4-12.8-18c-3.2-7.6-6.9-16-10.3-24.5
		c-28.8-71.6-28.8-141.6,9.6-214.1c5.7-11.9,12.7-26.9,20-41.7c2-4.1,5-7.8,6.5-10c12.6-7.2,22.8-12.9,32.9-18.7
		c-0.1-0.5-0.3-1-0.4-1.5c2-1.4,3.8-3.1,6-4.1c9-4.3,17.7-10.4,27.2-12.3c22.4-4.5,45.1-8,67.8-10.1c16.8-1.5,33.8-0.8,50.7,0
		c11.5,0.6,22.9,3,34.3,4.8c1.4,0.2,3.5,2,3.6,3.3c0.2,1.8-1.1,3.8-2.4,7.9c4.5-0.8,9.7-3.5,13.3-2.1c10.8,4.3,22.5,8.3,31,15.7
		c15,13.2,28,28.7,41.3,43.6c5.7,6.4,10.1,13.9,15.3,20.8c0.6,0.9,2.2,1,0.7,0.4c31.8,43.6,17.6,84.9-0.1,124.4
		c-11.7,33-11.4,68.5-41.5,94c2.2-0.2,1-0.1,0.2,0c-0.1,1.8-0.2,3.5-0.4,6.1c-1.1-2-1.5-3-1.2-2.2c-11.1,13.2-22.5,26.8-35.7,42.5
		c-0.8-3.3-0.5-2.3,0.1,0.6c-19.9,10.5-40.2,21.3-60.6,32.2c-0.6-0.8-1.3-1.5-1.9-2.3c-2.7,0.2-5.5,0.3-8.4,0.5
		c0.6,0.7,1.3,1.4,1.3,1.5c-14,2.3-28.2,4.7-42.7,7.1c-0.6,0.4-1.6,1.1-2.6,1.8c-0.4-1-0.8-2.1-1-2.5c-3.2,0.9-6.7,1.8-10.2,2.8
		c0.4,0.8,0.7,1.5,1.1,2.3c-2.5,0.5-4.9,1-7.4,1.6c0.1-1,0.3-1.9,0.2-1.2c-8.5,0-17.3,0-26.1,0c-0.4-1.2-0.8-2.6-0.8-2.8
		c-2.3,0.6-4.7,1.6-7.1,1.7C-680.6,1317.9-699.4,1299-721.5,1286.5z"/>
	<path class="st1" d="M-680.5,924c4.3-2.4,8.6-4.7,12.8-7.1c0.6,1.4,1.3,2.8,1.9,4.2c-4.6,1.8-9.3,3.5-13.9,5.3
		C-679.9,925.6-680.2,924.8-680.5,924z"/>
	<path class="st1" d="M-746.4,975.6c1.9-3.2,3.7-6.4,5.7-9.5c0.2-0.4,2.3-0.2,2.4,0.2c0.3,0.8,0.4,2.2-0.1,2.9
		c-1.6,2.8-3.5,5.4-5.3,8C-744.6,976.7-745.5,976.2-746.4,975.6z"/>
	<path class="st1" d="M-722.2,949.1c2.8-3.4,5.6-6.7,8.4-10c0.9,0.7,1.7,1.4,2.6,2.1c-2.8,3.3-5.6,6.5-8.4,9.8
		C-720.6,950.4-721.4,949.7-722.2,949.1z"/>
	<path class="st1" d="M-615.5,910.7c-5.1,0-10.1,0-15.2,0c0-0.5,0-1,0-1.4c5.1-0.5,10.2-1.1,15.3-1.6
		C-615.5,908.6-615.5,909.7-615.5,910.7z"/>
</g>
<path class="st1" d="M660.3,309.8c1.3,2.6,2.7,5.2,4,7.8c-1.4,0.3-3.9,1.1-4,0.9c-1-2.5-1.7-5.2-2.5-7.8
	C658.7,310.4,659.5,310.1,660.3,309.8z"/>
<path class="st1" d="M842.3,753c-1.2-4.2-1.9-6.9-3.7-13.2c4,4.6,6.1,6.2,7,8.3C845.9,749,843.8,750.9,842.3,753z"/>
<path class="st0" d="M201.8,421.8c-10.9-2.2-20.1-3.5-29-6.1c-25.5-7.4-35.9-34.7-27.7-58.4c2.8-8.1,5.7-16.6,10.6-23.4
	c9.7-13.3,22.3-23.4,39.9-23c15,0.4,30.8-0.8,44.8,3.6c20.2,6.3,27.5,25.2,25.8,44.4c-1.3,14.3-6.5,29.9-14.8,41.4
	c-5.8,8-19.8,10.2-30.3,14.7C214.2,417.8,206.9,420,201.8,421.8z"/>
<path class="st1" d="M252.5,369.7c0.9-3.4,1.7-6.6,2.9-11.1c1,2.4,1.5,3.6,2.2,5.2c0.7-1.3,1.2-2.4,1.8-3.4c0.7,0.3,1.4,0.6,2.2,0.9
	c-4.3,10.2-8.5,20.4-13.5,32.2c-3.4-5.9-5.2-9.2-7.1-12.5c1.7-0.1,3.3-0.2,5-0.3c0-2.4-0.3-5,0.1-7.3c0.4-2.5,1.6-4.9,2.4-7.4
	C249.5,366.9,250.5,367.9,252.5,369.7z"/>
<path class="st1" d="M236.2,393.3c-1.3,2.6-2.4,4.9-3.6,7.1c-1.2-1.1-2.5-2.1-3.7-3.2c0.8-0.9,1.6-1.8,2.6-2.9c0,0-0.9-0.5-1.7-0.9
	c0.7-1,1.6-2.2,2.4-3.4c-0.2-0.2-0.5-0.4-0.7-0.5c-0.4,0.6-0.9,1.1-1.3,1.7c-0.3-0.3-0.6-0.6-0.9-0.8c1.2-1.4,2.5-2.8,2.5-2.8
	c3.8,0.9,5.9,1.4,8.6,2.1C238.6,391.2,237,392.6,236.2,393.3z"/>
<path class="st1" d="M216.2,391c-1.9-3.2-3.4-5.2-4.2-7.3c-0.2-0.6,1.6-1.9,2.4-2.8c1.8,2.1,3.6,4.2,5.2,6.4
	C219.9,387.4,218.4,388.7,216.2,391z"/>
<path class="st1" d="M210.6,390.6c-0.7,2.9-1.4,5.8-2.1,8.7c-1.3-0.3-2.5-0.6-3.8-0.9c0.8-2.8,1.7-5.6,2.5-8.4
	C208.4,390.2,209.5,390.4,210.6,390.6z"/>
<path class="st1" d="M217.5,408.1c-4.2,2.7-4.9,3.2-5.6,3.6c-0.1-1.8-0.8-3.8-0.2-5.4c0.4-1.3,2.3-2,4.2-3.5
	c0.3,1.7,0.6,3.5,0.9,5.4C215.6,408.3,214.4,408.4,217.5,408.1z"/>
<path class="st1" d="M257.9,358.9c-1.5-2.1-2.9-4.1-4.4-6.2c1.2-0.4,3.2-1.4,3.6-1c1.4,1.6,2.2,3.7,3.3,5.5
	C259.5,357.8,258.7,358.4,257.9,358.9z"/>
<path class="st1" d="M221.1,396.3c-3.4,1.8-5.5,2.8-8,4.2c0.4-1.5,0.4-3.6,1.4-4.4c1.5-1.2,3.7-1.6,5.6-1.9
	C220.5,394.1,221.2,396.6,221.1,396.3z"/>
<g>
	<path class="st0" d="M-1578.2-2.9c3.7-8.1,7.4-16.2,10.3-22.4c8.5-11.4,16.1-21.5,23.8-31.8c0.4-0.1,1.8-0.6,3.6-1.2
		c-1.6-2-2.7-3.4-1.2-1.5c3.8-7.8,6.5-13.4,9.3-19c-0.4-1.1,0.1,0.4,1.5,3.6c1.5-3.8,2.4-5.9,3-7.5c8.7-7.5,17.3-15,22.1-19.1
		c11.3-5.8,18.5-9.6,25.9-13.4c-0.3-0.9-0.7-2-1.1-3c1.1-0.5,2.3-1,3.9-1.7c0-0.1,0.2,0.8,0.3,1.9c8.3-4.3,16.2-8.5,23.6-12.3
		c-0.7-2.2-0.2-0.6,0.5,1.5c0.6-1.4,0.8-2.1,1.2-2.9c0.4,0.7,0.7,1.4,0,0c15.2-5.4,30-10.6,46.6-16.5c-1.5-0.8-0.1,0.6,1,0.4
		c8.8-1.6,17.5-3.6,25.8-6.4c43.7-15.8,85.9-2.3,129.5,5c-0.4,1,0,0.1-0.2,0.5c31.8,17.8,63.7,35.6,96.9,54.1
		c-3.3,2.9-4,3.5-3.2,2.8c10,10.6,20,21.3,30.4,32.3c25.8,53.7,23.8,110,11,164.4c-27.5,74.4-81.8,120.5-148.1,155.2
		c-29.4,17.4-61.7,23.6-97.1,25.4c1.4,1.6,0.5,0.6,1,1.1c-4.9,0-8.4,0-10.4,0c-4.5,0.7-7.8,2.1-10.8,1.7
		c-28.1-3.9-57.9,5.9-85.5-9.6c-10.3,0.8-21.7,1.6-33.3,2.5c0.2-0.7,0.6-1.8-0.1,0.4c-13.7-4.3-27.3-8.5-38.9-12.1c0-6,0-8.1,0-7.7
		c2.2-4,3.6-6.4,5.7-10.1c-4.3,0.7-6.8,1.2-10.2,1.8c1.6,1.1,2.6,1.8,5.3,3.8c-2.6-0.8-3.3-1-3.9-1.1c-3.1-0.4-6.3-0.8-6.8-0.9
		c-8.7-5.3-14.8-9-20.9-12.7c0.1-0.1,0.1-0.2,0.2-0.3c0.6,0.4,1.3,0.7,7,3.9c-6.8-7.2-9.8-10.4-12.1-12.8c-0.7,0.3,0.4-0.1,0.4-0.2
		c-0.8-2.5-1.7-4.9-2.6-7.3c-0.7,0.6-1.3,1.2-2.2,2.1c-0.8-2.4-1.7-5.1-2-6.1c-4.4-8.2-7.8-14.4-11.9-22c-0.1,0-2.2-0.3,0.1,0
		c-3.7-5.8-5.9-9.4-8.1-12.9c-0.3-0.5-0.6-1-0.9-1.5c-0.1-0.1-0.3,0-0.5,0c0.3-0.5,0.8-0.9,1-1.4c1.1-2.2,2.2-4.5,3.4-6.9
		c-0.4-0.1-1.6-0.2-0.7-0.1c-2.7-12-5.2-23.1-7.7-34.3c-0.8,0.1-1.6,0.2-2.3,0.3c0-5.8,0-11.6,0-19.2c-1.5,2-2.1,2.8-5.2,6.8
		c3.1-7.4,4.7-11.2,6.5-15.4c-1-0.1-2.5-0.2-5.3-0.5c2.3-0.5,3.5-0.7,3-0.7c0-4.8,0-9,0-15.6c1.6,1.4,0.7,0.6,1.3,1.1
		c0.3-4.1,0.5-6.9,0.7-9.8c0.3,0.1,1.7,0.6,3.7,1.3c-0.7-4.7-1.3-9.1-2-13.7c0.6,0,1.9,0-1.9,0c7.3-21.2,13.9-40.6,20.6-60
		c0.8,0.3,1.6,0.5,2.3,0.8c2.2-6.5,4.5-13,6.7-19.6C-1576.9-2.1-1577.6-2.5-1578.2-2.9z"/>
	<path class="st1" d="M-1525.3-23.3c0.4-1.9,1-4.5,1.7-7.6c0,0,0.9,0,0.8,0c0.5-2.1,0.9-3.6,1.2-5.3c1.9,1.2,3.4,2.1,4.9,3
		c0.2-0.3,0.4-0.6,0.6-0.9c-1-0.7-2-1.3-4.6-3.1c3.1,0.4,4.4,0.6,5.6,0.8c-1.5-1.5-3-2.9-4.5-4.4c10.9-10.3,21.8-20.5,32.7-30.8
		c0.2,0.3,0.4,0.7,0.6,1c5.5-3.8,10.9-7.6,16.6-11.6c0.1,0.1,0.7,1.1,2.8,4.1c0-4.1,0-6,0-8.6c5.4-3.8,11.8-8.2,18.3-12.7
		c0,0.1,0.6,1-0.1-0.1c14.6-6,28.7-11.8,39.3-16.1c25.7-6.3,47.4-11.7,71.3-17.5c0.4,0.1,2.8,0.4,4.4,0.6c3.3-0.8,6.3-1.8,9.3-2.2
		c0.6-0.1,1.5,1.8,1.4,1.7c12.5,1.4,24.4,2.7,36.6,4.1c-0.1-0.5-0.3-1.5-0.5-2.5c0.8,0.2,1.6,0.3,2.5,0.5c-0.5,2.8-1.1,5.6-1.9,9.9
		c2.6-2.9,5.1-5.7,6.4-7.1c7.2,0,12.9,0,18.1,0c5.4,0.9,10,1.7,15.9,2.7c-2.8,1.3-4.1,1.9-5.5,2.5c0.3,0.6,0.5,1.2,0.8,1.8
		c3-1.8,6-3.6,9.1-5.4c0.2,0.4,0.4,0.7,0.6,1.1c-0.7,0.4-1.3,0.9-2.1,1.4c1.4,0.7,2.7,1.5,5.8,3.1c-3.1,0.8-5,1.3-7,1.8
		c0.9,0.9,1.8,1.7,2.6,2.6c2.7-2.3,5.4-4.6,9.8-8.4c9.6,5.8,21,12.7,32.5,19.6c-0.5,0.8-1,1.5-1.5,2.3c-1.1-1-2.1-2-3.2-3
		c-0.9,0.6-1.7,1.2-2.6,1.8c2.4,3.6,4.7,7.1,7.1,10.7c1.5-0.8,0.8-0.4,0.7-0.3c4.5,3.3,9.1,6.7,10.7,7.9
		c10.8,5.1,18.1,8.6,23.3,11.1c7.6,11.1,14.3,20.9,21,30.8c1.1-0.3,2.2-0.6,3.2-0.9c5,14.1,10,28.2,15,42.4
		c-0.3,0.1-0.5,0.3-0.8,0.4c1.5,7.8,3.9,15.5,4.4,23.4c0.4,6-1.8,12.1-2.1,18.3c-0.3,6,0.5,12.1-1.8,18.3
		c-0.8,7.1-1.4,14.3-2.3,21.4c-0.3,2.5-1.7,4.9-2.3,7.4c-0.2,0.6,1.2,1.5,1.3,2.4c0.2,1.6,0.6,3.6,0,5c-4.2,9.9-8.7,19.6-13.2,29.3
		c-0.4,0.7-2.2,0.8-3.9,1.3c1.2,0.5,2.1,0.9,2.9,1.2c-2,1.5-4,3-5.9,4.5c0.9,0.8,1.9,1.5,2.8,2.3c-12.5,13.4-24.9,26.7-38,40.7
		c-0.4-1.6-0.6-2.3-0.7-2.7c-1.1,0.3-2.3,0.5-0.7,0.2c-4.6,5.5-8,9.5-12.9,15.2c0.5-3.4,0.7-4.6,1-6.4c-3.7,4.3-6.9,8.1-10.3,12.1
		c-0.3-0.4,0.2,0.3,0.8,1.4c-1.3-0.3-2.3-0.5,0.3,0.1c-14.5,8.5-26.7,15.7-40.1,23.5c-0.1,0-1.7,0.6-3.5,1.2c0-0.7,0.1-1.6,0.3-6.4
		c-2.7,5.6-3.8,7.8-5.2,10.7c-1.8-0.2-5.1-0.6-9.1-1c-6.2,3.1-14.1,7.1-22.6,11.4c0.9-2.2,1.6-3.8,0.9-2.2
		c-15,4.5-32.7,9.8-50.5,15.1c-0.2-0.6-0.5-1.2-0.7-1.8c-13.7,2.7-27.3,5.4-43.3,8.5c-2.8-0.3-7.4-0.9-11.9-1.5
		c0.4,0.8,0.9,1.9,1.4,2.9c-2.4,0.7-4.8,1.3-7.8,2.2c0.9-1.6,1.3-2.3,2-3.5c-10,0-19.6,0-31.2,0c1-1.9,0.3-0.6-0.7,1.4
		c-0.5-2.5-0.8-4.2-0.9-4.3c0-0.2,0.1,1.1,0.2,2.2c-5,0-9.6,0-14.5,0c0.2-0.8,0.4-1.9,0.5-2.4c-5,0-10.1,0-15.5,0
		c0.1-1.7,0.2-3,0.3-3.6c-2.6-0.5-4.7-1-6.9-1.4c0,0.4-0.1,0.8-0.1,1.2c-8-1.4-15.9-2.7-23.5-4c0,0,0.4,0.8,1.1,2.3
		c-4.2-2.2-7.7-4-11.2-5.9c0.7-1.1,1.5-2.2,2.7-4.1c-1.7,1.3-3,2.3-4.4,3.3c-0.2-0.6-0.4-1.5-0.8-3c-0.4,1.6-0.8,2.7-1.3,4.7
		c-0.9-1.9-1.3-2.9-1.2-2.6c-2.5-0.3-4.1-0.5-6.9-0.9c2.1-1.7,3.1-2.5,1.7-1.4c-6.7-4.2-13.9-8.7-21.5-13.5c0.8-0.7,1.7-1.5,0.8-0.7
		c-4.7-5.2-9.5-10.3-15.5-16.9c0.9,0.4-0.9,0.2-1.4-0.7c-3.8-6.8-7.4-13.8-9-16.9c-6.5-17-11.3-29.8-16.2-42.7
		c-10.8-29.2-9.3-57.6,2.8-87c11.3-27.6,20-56.1,42.6-74.2c0.4,0-2.8,0-11.1,0C-1530.6-21.7-1528.1-22.5-1525.3-23.3z"/>
	<path class="st1" d="M-1527.2,243.9c-1.8,1.6-3.6,3.1-5.3,4.6c-1.2-1.6-3.4-3.2-3.3-4.6c0.2-2.4,1.8-4.8,2.8-7.1
		C-1531.2,238.9-1529.4,241.1-1527.2,243.9z"/>
	<path class="st1" d="M-1113.8-36.4c-4.5,4.2-6.2,5.9-8,7.6c-1-2.5-1.9-5.1-2.9-7.6C-1122.2-36.4-1119.7-36.4-1113.8-36.4z"/>
	<path class="st1" d="M-1572,211.3c2.9,0.3,5.9,0.7,8.8,1c-0.2,1.1-0.3,3.1-0.5,3.1c-2.9,0-5.8-0.2-8.7-0.3
		C-1572.3,213.8-1572.1,212.5-1572,211.3z"/>
	<path class="st1" d="M-1535.4,236.6c-1.8,1-3.5,2.2-5.4,2.9c-0.3,0.1-1.4-2.1-2.1-3.2c2.1-0.7,4.1-1.4,6.2-2.1
		C-1536.3,235-1535.9,235.8-1535.4,236.6z"/>
	<path class="st0" d="M-1491.9,232.8c5.6-4.6,8.9-7.3,12.4-10.3c0.6,3,1.1,5.5,1.6,8C-1481.8,231.2-1485.7,231.8-1491.9,232.8z"/>
	<path class="st0" d="M-1208.5-102.7c-3.1-1.6-6.3-3-9.2-4.8c-0.2-0.1,1-2.6,2.5-6.4c0.7,3.9,0.9,5.2,0.9,5c3.1,1.4,5.2,2.4,7.3,3.4
		C-1207.6-104.6-1208-103.7-1208.5-102.7z"/>
</g>
<g>
	<path class="st0" d="M-934,295.3c-1.3,3.3-34.9,8.3-40,4.2c-8.8,2.1-14.9,3.5-22.9,5.5c-6.9-0.8-16.4-2-27.3-3.3
		c0.7-0.6-0.4,1.2-1.4,1.1c-25-2.5-49.9-5.2-76.9-8.1c1.5-2.8,0.7-1.3,0,0c-12.6-4.5-25-12.3-37.7-12.9
		c-25.8-1.3-44.7-16.7-66.4-26.5c-21.2-9.5-37-24.8-47.6-44.6c-4.4-8.3-4-19.4-5.2-29.3c-1.6-13.3-3.5-26.7-3.8-40.1
		c-0.3-10.4,1.2-20.8,2.8-31.1c1.4-9,3.8-17.9,6.1-26.8c5.5-21,10-42.3,17.3-62.7c4.2-12,12.3-22.8,19.7-33.4
		c13.9-19.9,28.5-39.4,43-58.9c7.8-10.5,15-21.9,24.5-30.6c12-10.9,26-19.7,39.3-29.2c7.9-5.7,15.7-11.8,24.3-16.3
		c15.5-8.1,31-17.6,47.7-21.9c24.6-6.4,50.1-10.4,75.5-12.4c17.3-1.4,35.2,1.5,52.6,4.1c18.9,2.9,37.9,6.4,56.2,12.1
		c8.2,2.5,15.5,10,21.6,16.7c12,13.2,22.9,27.4,34.1,41.3c1,1.2,0.8,3.4,1.2,5.4c0.4-0.2,1.6-0.7,2.8-1.3c4.8,6.6,9.7,13.2,14.6,20
		c-1.4,1.6,0,0,1.1-1.2c4.4,5.6,8.9,11.3,10.8,13.7c5.2,9.4,8.3,15.1,11.7,21.3c0.4,0.3,2,0.9,2.8,2.1
		c34.5,49.9,13.1,209.4-32.2,259.4c-20,22.1-43.4,37.8-69.1,50.5C-879.2,274.4-905.2,283.5-934,295.3z"/>
	<path class="st1" d="M-959.8-149.4c5.7-0.7,11.1-2,16.4-1.9c15.9,0.2,32.1-1.1,47.5,1.9c17,3.3,33.9,9,49.4,16.8
		c10.7,5.4,20,15,27.8,24.4c17.6,21.1,35.3,42.5,50.2,65.5c7.6,11.7,11.3,27,12.9,41.1c2.4,20.8,3.4,42.2,1.1,62.9
		c-2.1,18.7-7.6,37.7-15.3,54.9c-8.7,19.3-19.6,38.3-33.1,54.6c-12.5,15-29.6,26.3-44.6,39.2c-8.2,7-15.8,15.4-25,20.6
		c-9,5.1-19.7,7.6-29.9,10.2c-22.8,5.8-45.7,11.1-68.6,16.4c-16.7,3.9-33.3,8.8-50.2,10.7c-12.5,1.4-25.5-0.9-38.3-2.2
		c-19.1-2-38-5.6-57.2-6.6c-23.3-1.1-40.8-12.7-57.3-27.3c-10.7-9.4-21.8-18.3-32.2-28.1c-1.9-1.8-0.8-6.7-1.4-10.1
		c-0.3-2-1.7-5.7-1.9-5.6c-16.7,4.5-16.8-11-20.2-19c-12.6-30.1-14.6-62.4-8.1-93.7c4.6-22.1,14.4-43.4,24.2-63.9
		c8.4-17.3,18.8-34,30.8-49.1c12.6-15.9,27.5-30.2,42.6-44c14.5-13.3,29.1-27.7,46.2-37c25.9-14.2,50.8-32.8,83.1-30.7
		c15.2,1,30.4,1,45.6,1.2C-963.3-148-961.5-148.9-959.8-149.4z"/>
	<path class="st1" d="M-1198.1,236.8c2.9,5.5,5.1,9.7,7.4,13.9c-0.7,0.4-1.5,0.7-2.2,1.1c-1.3-1.9-2.7-3.8-4-5.7
		c-1.4,1-2.5,1.7-3.7,2.5C-1199.9,245.1-1199.1,241.6-1198.1,236.8z"/>
	<path class="st1" d="M-1102.4,278.7c0.3-1.4,0.6-3,1.6-7.9c0.8,4.5,1.1,5.7,1.2,6.4c4.2,0,8.2,0,12.3,0c0,0.5,0,1,0.1,1.5
		C-1092.1,278.7-1096.9,278.7-1102.4,278.7z"/>
	<path class="st1" d="M-871.6,243.5c1.5-2.4,3.1-4.9,4.6-7.3c0.7,0.5,1.3,1.1,2,1.6c-1.6,2.4-3.3,4.9-4.9,7.3
		C-870.5,244.5-871.1,244-871.6,243.5z"/>
	<path class="st1" d="M-861.9,239.7c2.2-1.8,4.4-3.5,6.6-5.3c0.5,0.7,1.1,1.3,1.6,2c-2.2,1.9-4.5,3.7-6.7,5.6
		C-860.9,241.2-861.4,240.4-861.9,239.7z"/>
</g>
<g>
	<path class="st0" d="M-1421.6,53.1c1.8-4.6,2.9-9.2,5.2-13.2c2.7-4.8,5.4-10.4,9.7-13.2c13.1-8.3,26.2-19.5,40.6-21.7
		c13.7-2.1,30.3,3,43.1,9.7c10.5,5.5,21.1,16.8,24.8,27.8c4,11.9,1.5,26.7-0.6,39.9c-2.7,17.4-17.5,25.4-32.1,29.6
		c-11.2,3.2-24.7,3.6-35.8,0.4c-12.7-3.7-26-10.6-34.9-20.1c-8.8-9.3-12.6-23.5-18.5-35.6C-1420.9,55.3-1421.4,53.7-1421.6,53.1z"/>
	<path class="st1" d="M-1306.3,59.5c-1.2-3.5-2.3-7-3.5-10.5c0.6-0.2,1.1-0.4,1.7-0.6c1.4,3.5,2.9,7,4.3,10.5
		C-1304.6,59-1305.5,59.3-1306.3,59.5z"/>
</g>
<g>
	<path class="st0" d="M-925.3,116.8c-11.1-2.2-20.3-3.5-29.2-6c-24.7-7.2-36-34.6-27.2-58.7c3.1-8.5,6-17.7,11.4-24.6
		c10.6-13.6,24.3-22.9,42.8-21.7c13.8,1,28.3-0.3,41.1,3.9c20.3,6.6,27.4,25.3,25.6,44.5c-1.3,14.3-6.6,29.8-15,41.2
		c-5.9,8-19.9,10.1-30.4,14.5C-913.1,112.8-920.4,115.1-925.3,116.8z"/>
	<path class="st1" d="M-879.4,57.7c2.3,4.2,3,5.5,4.4,8.1c1.2-4.2,2.1-7.3,3.3-11.4c1,1.8,1.6,3,2.4,4.4c0.6-1.2,1.1-2.1,1.6-3.1
		c0.7,0.3,1.5,0.6,2.2,0.9c-4.4,10.1-8.7,20.2-13.6,31.7c-3.2-5.7-5.1-9-6.9-12.3c1.5,0.3,3,0.6,4.6,0.9
		C-880.9,71.5-880.3,66.2-879.4,57.7z"/>
	<path class="st1" d="M-891,88.6c-1.2,2.4-2.3,4.7-3.4,6.9c-1.2-1-2.5-2.1-3.7-3.1c0.8-0.9,1.6-1.9,2.6-2.9c-0.1,0-1.1-0.6-1.4-0.9
		c0.7-1.2,1.5-2.4,2.2-3.6c-0.2-0.1-0.5-0.3-0.7-0.4c-0.4,0.6-0.8,1.1-1.3,1.7c-0.3-0.3-0.6-0.5-0.9-0.8c1.2-1.4,2.4-2.8,2.4-2.7
		c3.8,0.8,5.8,1.2,8.5,1.8C-888.4,86.2-889.9,87.6-891,88.6z"/>
	<path class="st1" d="M-919.8,77.7c4.1-1.1,6-2.2,6.6-1.7c2.2,1.7,4.1,4,6,6.1c-0.8,0.6-1.9,2-2.3,1.8
		C-911.6,82.9-913.7,81.4-919.8,77.7z"/>
	<path class="st1" d="M-919.2,83.4c1.9,3.3,3.2,5.5,4.4,7.6c-2.7,1.1-4.7,1.8-7.8,3C-921.5,90.6-920.6,87.8-919.2,83.4z"/>
	<path class="st1" d="M-911,97.6c0.3,2.2,0.5,4,0.8,5.7c-1.2,0.1-2.4,0.2-1,0.1c-2.3,2-3.1,2.7-3.9,3.3c-0.1-1.8-0.7-3.8-0.2-5.4
		C-914.9,100.1-913,99.3-911,97.6z"/>
	<path class="st1" d="M-905.8,91.5c-3.3,1.7-5.4,2.7-8,4c0.3-1.4,0.2-3.5,1.2-4.3c1.5-1.2,3.7-1.8,5.6-2.1
		C-906.6,89.1-905.8,91.5-905.8,91.5z"/>
	<path class="st1" d="M-869,54c-1.5-2-3-4.1-4.6-6.1c1.2-0.4,3.2-1.5,3.6-1.1c1.4,1.6,2.3,3.7,3.4,5.6
		C-867.4,52.9-868.2,53.5-869,54z"/>
</g>
<g>
	<path class="st0" d="M-2002.9,1051.1c3.9-8.4,7.7-16.9,10.7-23.4c8.9-11.9,16.8-22.4,24.8-33.1c0.4-0.1,1.9-0.6,3.7-1.3
		c-1.7-2.1-2.9-3.5-1.2-1.5c3.9-8.1,6.8-14,9.6-19.8c-0.5-1.1,0.2,0.4,1.5,3.8c1.6-4,2.5-6.1,3.2-7.8c9-7.8,18-15.6,23-19.9
		c11.8-6.1,19.3-10,27-14c-0.3-0.9-0.7-2.1-1.1-3.2c1.2-0.5,2.4-1,4-1.8c0-0.1,0.2,0.9,0.4,1.9c8.6-4.5,16.9-8.8,24.6-12.8
		c-0.7-2.3-0.2-0.7,0.5,1.6c0.6-1.5,0.9-2.2,1.2-3.1c0.4,0.8,0.8,1.5,0,0c15.8-5.6,31.3-11.1,48.5-17.1c-1.6-0.8-0.1,0.6,1,0.4
		c9.1-1.7,18.2-3.7,26.9-6.6c45.5-16.5,89.5-2.4,134.8,5.2c-0.4,1,0,0.1-0.2,0.5c33.2,18.5,66.3,37.1,100.9,56.4
		c-3.5,3-4.2,3.6-3.4,2.9c10.4,11,20.8,22.2,31.6,33.7c26.9,55.9,24.7,114.5,11.5,171.2c-28.6,77.5-85.2,125.5-154.3,161.6
		c-30.7,18.1-64.2,24.6-101.1,26.4c1.5,1.7,0.5,0.6,1,1.2c-5.1,0-8.7,0-10.9,0c-4.7,0.8-8.1,2.2-11.3,1.7c-29.3-4-60.3,6.1-89-10
		c-10.7,0.8-22.6,1.7-34.7,2.6c0.2-0.7,0.6-1.9-0.1,0.4c-14.2-4.4-28.4-8.9-40.5-12.6c0-6.3,0-8.4,0-8.1c2.3-4.2,3.8-6.7,5.9-10.5
		c-4.5,0.8-7.1,1.2-10.6,1.8c1.7,1.2,2.7,1.9,5.6,3.9c-2.7-0.8-3.4-1.1-4.1-1.2c-3.3-0.5-6.5-0.9-7.1-0.9
		c-9.1-5.5-15.4-9.4-21.8-13.2c0.1-0.1,0.1-0.2,0.2-0.3c0.7,0.4,1.3,0.7,7.3,4c-7.1-7.5-10.2-10.8-12.6-13.3
		c-0.7,0.3,0.4-0.1,0.4-0.2c-0.8-2.6-1.7-5.1-2.7-7.6c-0.7,0.7-1.4,1.3-2.3,2.2c-0.8-2.5-1.7-5.3-2.1-6.3c-4.6-8.5-8.1-15-12.4-22.9
		c-0.1,0-2.3-0.4,0.1,0c-3.8-6.1-6.1-9.7-8.4-13.4c-0.3-0.5-0.6-1.1-1-1.6c-0.1-0.1-0.3,0-0.5,0c0.4-0.5,0.8-1,1.1-1.5
		c1.2-2.3,2.3-4.7,3.5-7.2c-0.5-0.1-1.7-0.2-0.8-0.1c-2.8-12.5-5.4-24.1-8-35.7c-0.8,0.1-1.6,0.2-2.4,0.3c0-6.1,0-12.1,0-20
		c-1.6,2.1-2.2,2.9-5.4,7c3.3-7.7,4.9-11.7,6.8-16c-1.1-0.1-2.6-0.2-5.5-0.5c2.4-0.5,3.6-0.8,3.2-0.7c0-5,0-9.4,0-16.3
		c1.7,1.4,0.8,0.6,1.3,1.1c0.3-4.2,0.5-7.2,0.7-10.2c0.3,0.1,1.7,0.6,3.8,1.4c-0.7-4.9-1.4-9.5-2.1-14.3c0.6,0,2,0-1.9,0
		c7.6-22.1,14.5-42.3,21.4-62.5c0.8,0.3,1.6,0.5,2.4,0.8c2.3-6.8,4.6-13.6,7-20.4C-2001.6,1051.9-2002.3,1051.5-2002.9,1051.1z"/>
	<path class="st1" d="M-1947.9,1029.8c0.5-2,1.1-4.7,1.8-7.9c0,0,0.9,0,0.8,0c0.5-2.2,0.9-3.8,1.3-5.5c2,1.2,3.5,2.2,5.1,3.1
		c0.2-0.3,0.4-0.6,0.6-0.9c-1.1-0.7-2.1-1.4-4.8-3.2c3.2,0.4,4.5,0.6,5.8,0.8c-1.6-1.5-3.1-3-4.7-4.6c11.4-10.7,22.7-21.4,34.1-32.1
		c0.2,0.3,0.4,0.7,0.6,1c5.7-4,11.4-7.9,17.3-12.1c0.1,0.1,0.8,1.1,2.9,4.3c0-4.3,0-6.3,0-8.9c5.7-3.9,12.3-8.5,19.1-13.3
		c0,0.1,0.6,1-0.1-0.1c15.2-6.2,29.9-12.3,40.9-16.8c26.8-6.6,49.4-12.1,74.2-18.2c0.5,0.1,3,0.4,4.6,0.6c3.4-0.9,6.5-1.8,9.7-2.3
		c0.7-0.1,1.6,1.9,1.5,1.8c13,1.4,25.4,2.8,38.1,4.2c-0.1-0.6-0.3-1.6-0.5-2.6c0.9,0.2,1.7,0.3,2.6,0.5c-0.6,2.9-1.1,5.9-2,10.3
		c2.7-3,5.3-5.9,6.6-7.3c7.5,0,13.5,0,18.8,0c5.7,1,10.4,1.8,16.6,2.8c-2.9,1.3-4.3,2-5.7,2.6c0.3,0.6,0.6,1.3,0.8,1.9
		c3.1-1.9,6.3-3.7,9.4-5.6c0.2,0.4,0.4,0.7,0.6,1.1c-0.7,0.5-1.4,0.9-2.2,1.4c1.5,0.8,2.8,1.5,6.1,3.3c-3.2,0.8-5.2,1.4-7.3,1.9
		c0.9,0.9,1.8,1.8,2.7,2.7c2.8-2.4,5.6-4.8,10.2-8.8c10,6,21.9,13.2,33.8,20.4c-0.5,0.8-1.1,1.6-1.6,2.4c-1.1-1.1-2.2-2.1-3.4-3.2
		c-0.9,0.6-1.8,1.2-2.7,1.8c2.5,3.7,4.9,7.4,7.4,11.1c1.6-0.8,0.9-0.4,0.7-0.3c4.7,3.5,9.5,7,11.2,8.2c11.2,5.3,18.9,9,24.3,11.5
		c7.9,11.6,14.9,21.8,21.9,32c1.1-0.3,2.2-0.6,3.4-1c5.2,14.7,10.4,29.4,15.6,44.1c-0.3,0.1-0.5,0.3-0.8,0.4
		c1.6,8.1,4,16.1,4.6,24.3c0.4,6.3-1.9,12.6-2.1,19c-0.3,6.3,0.5,12.5-1.9,19c-0.8,7.4-1.4,14.9-2.4,22.2c-0.4,2.6-1.8,5.1-2.4,7.7
		c-0.2,0.7,1.3,1.6,1.4,2.5c0.2,1.7,0.6,3.7,0,5.2c-4.4,10.3-9,20.4-13.8,30.5c-0.4,0.8-2.3,0.8-4.1,1.3c1.2,0.5,2.1,0.9,3,1.3
		c-2.1,1.6-4.1,3.1-6.2,4.7c1,0.8,1.9,1.6,2.9,2.4c-13,13.9-26,27.8-39.6,42.4c-0.4-1.6-0.6-2.4-0.7-2.8c-1.1,0.3-2.4,0.6-0.7,0.2
		c-4.8,5.7-8.4,9.9-13.4,15.9c0.6-3.5,0.8-4.7,1.1-6.6c-3.9,4.5-7.2,8.4-10.7,12.6c-0.3-0.5,0.2,0.3,0.9,1.4
		c-1.4-0.3-2.4-0.6,0.3,0.1c-15,8.8-27.8,16.3-41.7,24.5c-0.1,0-1.8,0.6-3.7,1.2c0-0.7,0.1-1.6,0.3-6.7c-2.8,5.9-3.9,8.1-5.4,11.2
		c-1.9-0.2-5.3-0.6-9.5-1.1c-6.5,3.3-14.7,7.4-23.5,11.9c0.9-2.2,1.6-4,1-2.3c-15.6,4.7-34.1,10.2-52.6,15.8
		c-0.2-0.6-0.5-1.2-0.7-1.9c-14.2,2.8-28.4,5.6-45.1,8.9c-2.9-0.4-7.7-1-12.4-1.5c0.4,0.9,0.9,1.9,1.4,3c-2.5,0.7-5,1.4-8.1,2.3
		c0.9-1.6,1.4-2.4,2-3.6c-10.5,0-20.4,0-32.5,0c1-2,0.3-0.6-0.8,1.5c-0.5-2.6-0.9-4.3-0.9-4.5c0-0.3,0.1,1.1,0.2,2.3
		c-5.2,0-10,0-15.1,0c0.2-0.9,0.4-2,0.6-2.5c-5.2,0-10.5,0-16.1,0c0.1-1.8,0.2-3.1,0.3-3.8c-2.7-0.6-4.9-1-7.2-1.5
		c0,0.4-0.1,0.8-0.1,1.3c-8.3-1.4-16.6-2.8-24.5-4.2c0,0,0.4,0.8,1.1,2.4c-4.3-2.3-8-4.2-11.7-6.1c0.8-1.2,1.5-2.3,2.8-4.3
		c-1.8,1.3-3.2,2.4-4.5,3.4c-0.2-0.6-0.4-1.6-0.8-3.2c-0.5,1.6-0.8,2.8-1.4,4.9c-0.9-1.9-1.4-3-1.2-2.7c-2.6-0.3-4.2-0.6-7.2-0.9
		c2.2-1.8,3.2-2.6,1.8-1.5c-6.9-4.3-14.5-9.1-22.4-14c0.8-0.7,1.7-1.5,0.9-0.7c-4.9-5.4-9.9-10.8-16.1-17.6c1,0.4-0.9,0.2-1.5-0.7
		c-4-7.1-7.7-14.4-9.3-17.6c-6.7-17.7-11.8-31-16.9-44.4c-11.3-30.4-9.6-60,2.9-90.6c11.8-28.8,20.9-58.4,44.4-77.3
		c0.4,0-2.9,0-11.5,0C-1953.4,1031.6-1950.8,1030.7-1947.9,1029.8z"/>
	<path class="st1" d="M-1949.8,1308.2c-1.9,1.6-3.7,3.2-5.5,4.8c-1.2-1.6-3.5-3.3-3.4-4.8c0.2-2.5,1.9-5,2.9-7.4
		C-1954,1303-1952.2,1305.2-1949.8,1308.2z"/>
	<path class="st1" d="M-1519.3,1016.3c-4.7,4.4-6.5,6.1-8.3,7.9c-1-2.6-2-5.3-3-7.9C-1528.1,1016.3-1525.5,1016.3-1519.3,1016.3z"/>
	<path class="st1" d="M-1996.5,1274.2c3.1,0.4,6.1,0.7,9.2,1.1c-0.2,1.1-0.3,3.2-0.5,3.2c-3,0-6.1-0.2-9.1-0.3
		C-1996.8,1276.8-1996.7,1275.5-1996.5,1274.2z"/>
	<path class="st1" d="M-1958.4,1300.6c-1.8,1-3.6,2.3-5.6,3c-0.3,0.1-1.4-2.2-2.2-3.3c2.2-0.7,4.3-1.5,6.5-2.2
		C-1959.3,1298.8-1958.9,1299.7-1958.4,1300.6z"/>
	<path class="st0" d="M-1913.1,1296.6c5.8-4.8,9.2-7.6,12.9-10.7c0.6,3.1,1.2,5.7,1.7,8.3
		C-1902.6,1294.9-1906.7,1295.6-1913.1,1296.6z"/>
	<path class="st0" d="M-1617.9,947.2c-3.2-1.6-6.5-3.2-9.6-5c-0.2-0.1,1-2.7,2.6-6.7c0.7,4.1,1,5.4,0.9,5.2c3.2,1.5,5.4,2.5,7.6,3.5
		C-1617,945.2-1617.5,946.2-1617.9,947.2z"/>
</g>
<g>
	<path class="st0" d="M-1114.1,1367.4c-1.3,3.3-34.9,8.3-40,4.2c-8.8,2.1-14.9,3.5-22.9,5.5c-6.9-0.8-16.4-2-27.3-3.3
		c0.7-0.6-0.4,1.2-1.4,1.1c-25-2.5-49.9-5.2-76.9-8.1c1.5-2.8,0.7-1.3,0,0c-12.6-4.5-25-12.3-37.7-12.9
		c-25.8-1.3-44.7-16.7-66.4-26.5c-21.2-9.5-37-24.8-47.6-44.6c-4.4-8.3-4-19.4-5.2-29.3c-1.6-13.3-3.5-26.7-3.8-40.1
		c-0.3-10.4,1.2-20.8,2.8-31.1c1.4-9,3.8-17.9,6.1-26.8c5.5-21,10-42.3,17.3-62.7c4.2-12,12.3-22.8,19.7-33.4
		c13.9-19.9,28.5-39.4,43-58.9c7.8-10.5,15-21.9,24.5-30.6c12-10.9,26-19.7,39.3-29.2c7.9-5.7,15.7-11.8,24.3-16.3
		c15.5-8.1,31-17.6,47.7-21.9c24.6-6.4,50.1-10.4,75.5-12.4c17.3-1.4,35.2,1.5,52.6,4.1c18.9,2.9,37.9,6.4,56.2,12.1
		c8.2,2.5,15.5,10,21.6,16.7c12,13.2,22.9,27.4,34.1,41.3c1,1.2,0.8,3.4,1.2,5.4c0.4-0.2,1.6-0.7,2.8-1.3c4.8,6.6,9.7,13.2,14.6,20
		c-1.4,1.6,0,0,1.1-1.2c4.4,5.6,8.9,11.3,10.8,13.7c5.2,9.4,8.3,15.1,11.7,21.3c0.4,0.3,2,0.9,2.8,2.1
		c34.5,49.9,13.1,209.4-32.2,259.4c-20,22.1-43.4,37.8-69.1,50.5C-1059.4,1346.4-1085.4,1355.6-1114.1,1367.4z"/>
	<path class="st1" d="M-1139.9,922.7c5.7-0.7,11.1-2,16.4-1.9c15.9,0.2,32.1-1.1,47.5,1.9c17,3.3,33.9,9,49.4,16.8
		c10.7,5.4,20,15,27.8,24.4c17.6,21.1,35.3,42.5,50.2,65.5c7.6,11.7,11.3,27,12.9,41.1c2.4,20.8,3.4,42.2,1.1,62.9
		c-2.1,18.7-7.6,37.7-15.3,54.9c-8.7,19.3-19.6,38.3-33.1,54.6c-12.5,15.1-29.6,26.3-44.6,39.2c-8.2,7-15.8,15.4-25,20.6
		c-9,5.1-19.7,7.6-29.9,10.2c-22.8,5.8-45.7,11.1-68.6,16.4c-16.7,3.9-33.3,8.8-50.2,10.7c-12.5,1.4-25.5-0.9-38.3-2.2
		c-19.1-2-38-5.6-57.2-6.6c-23.3-1.1-40.8-12.7-57.3-27.3c-10.7-9.4-21.8-18.3-32.2-28.1c-1.9-1.8-0.8-6.7-1.4-10.1
		c-0.3-2-1.7-5.7-1.9-5.6c-16.7,4.5-16.8-11-20.2-19c-12.6-30.1-14.6-62.4-8.1-93.7c4.6-22.1,14.4-43.4,24.2-63.9
		c8.4-17.3,18.8-34,30.8-49.1c12.6-15.9,27.5-30.2,42.6-44c14.5-13.3,29.1-27.7,46.2-37c25.9-14.2,50.8-32.8,83.1-30.7
		c15.2,1,30.4,1,45.6,1.2C-1143.5,924-1141.6,923.1-1139.9,922.7z"/>
	<path class="st1" d="M-1378.3,1308.8c2.9,5.5,5.1,9.7,7.4,13.9c-0.7,0.4-1.5,0.7-2.2,1.1c-1.3-1.9-2.7-3.8-4-5.7
		c-1.4,1-2.5,1.7-3.7,2.5C-1380,1317.2-1379.3,1313.7-1378.3,1308.8z"/>
	<path class="st1" d="M-1282.5,1350.8c0.3-1.4,0.6-3,1.6-7.9c0.8,4.5,1.1,5.7,1.2,6.4c4.2,0,8.2,0,12.3,0c0,0.5,0,1,0.1,1.5
		C-1272.2,1350.8-1277,1350.8-1282.5,1350.8z"/>
	<path class="st1" d="M-1051.8,1315.5c1.5-2.4,3.1-4.9,4.6-7.3c0.7,0.5,1.3,1.1,2,1.6c-1.6,2.4-3.3,4.9-4.9,7.3
		C-1050.6,1316.6-1051.2,1316.1-1051.8,1315.5z"/>
	<path class="st1" d="M-1042,1311.8c2.2-1.8,4.4-3.5,6.6-5.3c0.5,0.7,1.1,1.3,1.6,2c-2.2,1.9-4.5,3.7-6.7,5.6
		C-1041,1313.3-1041.5,1312.5-1042,1311.8z"/>
</g>
<g>
	<path class="st0" d="M-1144.8,1106.9c-5.6,3.3-11.1,6.5-16.6,10c-0.3,0.2,0.5,2,0.9,3.6c-2.5-1-4.5-1.8-6.5-2.5
		c0.3,0.7,0.5,1.4,0.6,1.5c-7.5,4.5-14.4,8.5-14.3,19.9c0,2.9,2.4,23.1-11,11.8c-12.1-25.4,1.6-40.4,17.9-53.6c5-3,10.2-5.8,15.1-9
		c10.7-6.8,22.2-12.7,31.2-21.3c2.5-2.4-1.2-13.5-4.5-19.2c-6-10.3-16.9-9.8-26.5-6.9c-6.6,2-12.2,7.3-18.4,10.9
		c-2.7,1.5-5.6,2.6-7.7,5.4c-1,0.5-2.5,0.7-2.8,1.4c-6.5,14.6-18.7,13.1-31,10.6c-1.4-0.3-3.1-2.9-3.2-4.5c-0.2-4.7-1.3-10.6,1-13.9
		c6.7-9.7,14.6-18.6,22.5-27.4c2-2.2,5.7-2.8,8.5-4.2c1-0.5,1.7-1.5,4.8-4.4c15.4-11.4,35.1-4.6,57.1-1c9.1,11.5,20.1,25.5,30.7,39
		c-0.4,4.1,0.1,8.5-1.3,12.2c-2.8,7.2-6.6,14.1-10.1,21.1c-1.7,3.3-3.7,6.5-5.8,9.6c-0.6,0.9-2.1,1.5-3.2,1.6
		c-1.3,0.1-2.7-0.6-5.7-1.5c-5.8,3.4-13.3,7.8-20.8,12.2C-1144.1,1107.7-1144.4,1107.3-1144.8,1106.9z"/>
	<path class="st0" d="M-1173.6,1252.2c-6.4-2.7-14.3-4.2-19.2-8.8c-3.9-3.7-5.2-11.3-5.4-17.3c-0.3-7.4,0.6-15.4,3.4-22.1
		c1.5-3.7,7.8-5.6,12.1-7.9c3.6-1.9,7.5-4.4,11.3-4.6c5-0.2,11.5,0.1,14.9,3c5.3,4.7,9.5,11.3,12.1,17.9c2.2,5.6,3.5,13.3,1.4,18.4
		c-2.2,5.3-8.8,9.2-14.1,12.8C-1161.7,1246.9-1167,1248.9-1173.6,1252.2z"/>
</g>
<path class="st0" d="M-630.9,1141.5C-631.2,1141.3-632.3,1140.4-630.9,1141.5c4.6-6.7,13.8-15.7,12.2-18.8
	c-4.5-8.4-13.7-14.3-18.4-18.8c-5.9-4.4-9.5-6.3-12-9.2c-12.7-14.2-24.9-28.9-37.8-43c-2.9-3.2-11.7-5-11.4-6.3
	c1.4-8.4,3.8-16.9,7.6-24.4c2.3-4.6,7.7-7.7,11.7-11.4c4.4,4.9,8.9,9.8,13.3,14.7c14.9,16.1,29.8,32.1,44.6,48.2
	c1.3,1.4,1.9,3.6,1.7,3.1c8,6.4,14.3,11.8,21,16.6c2.3,1.6,5.6,1.9,8.6,2.3c0.7,0.1,2.3-1.7,2.3-2.6c-0.1-2.5-0.8-5-2-10.9
	c8.6-13.1,18.3-29.4,29.5-44.6c7.1-9.6,15.1-20.3,25.2-25.4c5.2-2.6,16.1,6.2,24.4,9.9c1.5,0.6,2.8,1.4,4.9,2.4
	c0.2,3.1,2.4,8.6,0.5,11.4c-4.1,6.1-10.5,10.6-15.5,16.1c-6.8,7.5-13.4,15.3-19.7,23.2c-8.2,10.2-16.3,20.6-23.9,31.2
	c-2.3,3.2-2.7,7.6-4.3,12.2c11.5,9.2,23.5,18.5,35,28.1c11.8,9.9,23.5,20.1,34.8,30.5c6.1,5.6,12.9,11.3,16.5,18.4
	c1.4,2.8-4.8,9.9-8.3,14.5c-5,6.5-10.4,12.7-16.1,18.7c-1.2,1.2-4.4,0.5-9.8,0.9c1.9-1.4,0.9-0.6-0.2,0.1c-0.8-2.7-0.9-5.8-2.4-8.1
	c-7.5-11.3-14.3-23.3-23.2-33.4c-12.7-14.4-26.8-27.7-40.9-40.8c-1.9-1.8-9-1.7-10.5,0.2c-14,16.9-27.8,34-40.7,51.8
	c-10.7,14.8-20,30.7-30.6,45.5c-1,1.4-8.6,0.5-10.3-1.6c-4.3-5.4-7.2-12-10.2-18.3c-6.4-13.3,2.5-22.1,9.9-30.9
	C-660.7,1175.7-645.7,1158.6-630.9,1141.5z"/>
<path class="st0" d="M-871-535.6C-871.3-535.8-872.3-536.7-871-535.6c4.6-6.7,13.8-15.7,12.2-18.8c-4.5-8.4-13.7-14.3-18.4-18.8
	c-5.9-4.4-9.5-6.3-12-9.2c-12.7-14.2-24.9-28.9-37.8-43c-2.9-3.2-11.7-5-11.4-6.3c1.4-8.4,3.8-16.9,7.6-24.4
	c2.3-4.6,7.7-7.7,11.7-11.4c4.4,4.9,8.9,9.8,13.3,14.7c14.9,16.1,29.8,32.1,44.6,48.2c1.3,1.4,1.9,3.6,1.7,3.1
	c8,6.4,14.3,11.8,21,16.6c2.3,1.6,5.6,1.9,8.6,2.3c0.7,0.1,2.3-1.7,2.3-2.6c-0.1-2.5-0.8-5-2-10.9c8.6-13.1,18.3-29.4,29.5-44.6
	c7.1-9.6,15.1-20.3,25.2-25.4c5.2-2.6,16.1,6.2,24.4,9.9c1.5,0.6,2.8,1.4,4.9,2.4c0.2,3.1,2.4,8.6,0.5,11.4
	c-4.1,6.1-10.5,10.6-15.5,16.1c-6.8,7.5-13.4,15.3-19.7,23.2c-8.2,10.2-16.3,20.6-23.9,31.2c-2.3,3.2-2.7,7.6-4.3,12.2
	c11.5,9.2,23.5,18.5,35,28.1c11.8,9.9,23.5,20.1,34.8,30.5c6.1,5.6,12.9,11.3,16.5,18.4c1.4,2.8-4.8,9.9-8.3,14.5
	c-5,6.5-10.4,12.7-16.1,18.7c-1.2,1.2-4.4,0.5-9.8,0.9c1.9-1.4,0.9-0.6-0.2,0.1c-0.8-2.7-0.9-5.8-2.4-8.1
	c-7.5-11.3-14.3-23.3-23.2-33.4c-12.7-14.4-26.8-27.7-40.9-40.8c-1.9-1.8-9-1.7-10.5,0.2c-14,16.9-27.8,34-40.7,51.8
	c-10.7,14.8-20,30.7-30.6,45.5c-1,1.4-8.6,0.5-10.3-1.6c-4.3-5.4-7.2-12-10.2-18.3c-6.4-13.3,2.5-22.1,9.9-30.9
	C-900.8-501.4-885.8-518.5-871-535.6z"/>
<path class="st0" d="M-1737.7,1219c-0.4-2.3-0.3-1.4-0.6-3.4c-6.4-1.8-13.6-3.9-15.2-4.4c-22.9-9.5-40.4-16.7-57.9-23.9
	c0.2-0.5,0.4-1,0.5-1.5c-8.6-3-17.2-6.1-25.9-9.2c-0.3,0.7,0.1-0.2-0.2,0.5c-7.4-3.9-14.4-7.5-22.7-11.8c1.6,1.8,2.1,2.5,3.1,3.6
	c-2.1-1.5-3.6-3.3-5.3-3.6c-8.7-1.4-17.6-1.8-26.1-3.9c-3.3-0.8-5.1-6.4-8.4-8.1c-2.5-1.3-6.4,0.2-9.7,0.5c-0.3,0-0.8,0.3-0.9,0.1
	c-5.2-5.5-11-10.6-15.2-16.8c-2-3-2.7-10.2-0.8-11.8c6.5-5.7,14.5-9.7,21.8-14.5c2.1-1.4,3.9-3.5,5.7-5.4c1.7-1.7,3-3.9,4.9-5.2
	c8.4-5.2,17-10,25.5-15c0.6-0.3,1.3-0.4,4.9-1.4c-0.4,0.6,1.4-1.4,2.2-3.7c0.4-1.1-1.3-2.8-2.5-5.3c-0.4,0.7,0.5-0.7,2-3
	c1.1,2.4,1.8,4,2.6,5.8c0.3-0.8,0.5-1.7,1-3c0.9,1.2,1.7,2.3-0.8-1.2c6-1.9,12.5-4.1,19-6.2c-0.9,0-1.7,0-2.6,0
	c4.2-1.6,8.8-2.6,12.5-5c9.3-6,18.2-12.5,27.1-19.1c11.2-8.2,21.9-17.2,33.5-24.9c9.5-6.3,19.4-13.4,30.2-16.2
	c17.3-4.4,24,1.1,29.4,18.7c-1-0.5-1.8-0.9-3-1.5c3,12.7,7,25.1,8.7,37.8c1.7,12.2,0.5,24.8,1.6,37.2c1.9,21.4,5.2,42.7,6.9,64.1
	c1.2,16.1,0.8,32.2,1.1,48.4c0.1,4.5,1,9.1,0.8,13.6c-0.2,3.7-0.4,9.8-2.4,10.6c-3.5,1.5-8.5,0.4-12.5-0.8
	C-1716.7,1226.5-1727.9,1222.4-1737.7,1219z"/>
</svg>
