<?xml version="1.0" encoding="utf-8"?>
<!DOCTYPE svg PUBLIC "-//W3C//DTD SVG 1.1//EN" "http://www.w3.org/Graphics/SVG/1.1/DTD/svg11.dtd">
<svg version="1.1" id="illustrationCrownFormula" xmlns="http://www.w3.org/2000/svg" xmlns:xlink="http://www.w3.org/1999/xlink" x="0px" y="0px"
	 width="1000px" height="400px" viewBox="0 0 1000 400" style="enable-background:new 0 0 1000 400;" xml:space="preserve">
<style type="text/css">
<![CDATA[
	.st0{fill-rule:evenodd;clip-rule:evenodd;fill:white;}
]]>
</style>
<path class="st0" d="M35.4,42.4c-2.8-3-6.4-1.7-8.5-2.4c-2.7-1.5-3-3.3-4.1-4.6c0.9-3.7,4.9-6,5.1-9.9c4.9-0.5,9.6-1.3,14.4-1.3
	c4-0.1,6.7,2.3,7.4,5.6c0.2,1.3,0,2.7,0,4.1c-1.6,1.4-3.2,2.8-4.7,4.2c4.2,7.6,7.7,9.4,27.3,13.9c3.5-1.3,4.7-4.1,5.9-6.7
	c3.5-7.7,6.7-15.5,10.1-23.3c0.6-1.4,1.7-2.7,2.5-4.1c-3.4-1.4-6.2-3.3-7.6-6.3c0.9-4.9,3.7-8.7,8.8-11.4c13.5-0.7,14.5-0.4,18,7
	c-0.7,5.3-6.2,6.5-10.9,8.8c4,6.6,4.9,13.8,9.2,20.1c1.9,2.9,4.3,5.5,6.3,8.3c2.6,3.6,7.2,4,11.6,5.1c9.4-6.7,16.5-15.3,26.6-21.6
	c0-3.2,0.2-6.3,0-9.4c-0.3-4.1,2.8-7.4,7.4-6.3c3.4,0.8,6.7,0.7,10,1.2c6.3,1,8.9,8.2,4.9,12.5c-3.6,3.8-8.4,5.8-13.3,7.5
	c-3.3,3-3.2,6.9-3.7,10.1c-1.5,10.7-7,20.5-9.1,31c-1.3,6.4-3.8,12.6-4.5,19.2c-0.7,6.6-1.5,13.4-4.2,19.9c-0.3,0.8-0.5,1.9-0.1,2.6
	c2.5,4.5,0.8,9.6,2.5,14.2c1.2,3.3,1.4,7-0.4,10.4c-1.5,2.9,0.4,6.2-2,9c-1.2,1.4-1.3,3.4-2.6,4.7c-5.6,5.9-5,12.3-2.3,18.8
	c3.9,9.1,6.8,18.3,9.5,27.6c0.8,2.8,1.8,5.5,3.3,8.1c3.2,5.8,4.8,12,6,18.1c1,5.2,3.1,10.1,4.6,15.1c2,6.8-0.8,11.2-8.9,12.7
	c-8.8,1.6-17.7,2.9-26.9,4.5c-4.9,5.8-6.1,12.3-4.6,19.9c7.8-1.3,14.6-4.5,22-6.9c1.4-0.2,1.9,2,4.1,1.1c0.8,3.4-0.3,6.7,2.6,8.7
	c-2.6,4.3-6.9,4-10.5,4.6c-2.8,0.5-5.8,0.1-8.7,0.1c-4.4,0-8.9-0.5-12.5,1.4c-4.2-0.8-3.5-4-5.1-5c1.2-8.7-0.9-16-5.2-22.9
	c-11,1.6-21.6,1.7-32.6,0c-0.8,0.4-2.1,1.1-2.2,2.2c-0.5,4.9,0.3,15.8,4.5,21.4c-2,1.8-1.1,4.4-2.2,7.2c-8.7,2.4-18.2-0.9-26.2,2.6
	c-5-3-6.8-6.9-7.9-11c-0.5-1.7,0.6-3,2.8-3.9c3.8,1.3,8.3,1.2,12.4,2.8c3.9,1.6,8.1,2.6,12.1,3.8c2.4-1.8,0-3-0.5-4.2
	c-1.8-4.5-1.9-9.3-4-13.9c-2.7-5.9-7.7-8.7-13.7-9.5c-4.7-0.6-8.9-2.1-13.4-3.1c-6.7-1.5-13.4-3.1-19.9-5.3
	c-14.2-4.7-17.3-13.9-12-24.3c3.8-7.4,9.6-14.1,13.1-21.5c3.2-6.9,9-12.2,13-18.5c3.5-5.4,5.8-11.1,7.3-16.9c1.2-4.4-0.8-9.4-4-13.1
	c-4.1-4.8-6.1-10-7.3-15.6c-0.4-1.7-0.6-3.7-0.1-5.3c2-6.1,4.4-12,6.6-18.1c1.4-3.9,3.3-7.7,5.2-11.5c1.9-3.6,1-7.9,0.4-11.8
	c-0.3-1.7-0.3-3.3-0.2-5c0.3-4.4,0.9-8.8-0.7-13.2c-0.7-2.1-0.4-4.4-0.5-6.6C35.3,59.7,35.4,51.1,35.4,42.4z M62.1,224
	c-3,1-4.6-0.1-6-1.6c-2.2-2.3-3.6-4.9-4.6-7.6c-3.8-9.6-12-15.8-22-21c-4.6,4.9-7.5,10.3-10.6,15.6c-3.8,6.7-8.6,13-11.2,20.1
	c-2.5,7.1,0.2,12.2,8.3,14.9c5.5,1.8,11.1,3.6,16.7,5.1c12.2,3.2,24.5,5.6,37.4,5.7c2.1,0,4.1,0,6.2,0.7c5,1.5,10.5-0.3,15.4,1.6
	c8.5-1.1,16.9-2.4,25.6-2.4c0.8,0,1.6,0,2.4-0.1c7.6-1.3,15.2-2.3,22.7-4c3.8-0.8,8.5-0.9,10.7-5.7c-4.2-6.7-4.4-14.9-6.8-22.6
	c-1.6-5.4-2.9-11-7-15.7c-5.4,1.1-7.5,4.9-10.2,8c-6.1,7-13.8,12.2-20.2,15c-7.9,1.1-6.1-5.6-11.3-4.8c-0.1-2.2-1.3-4.2,1.4-6.3
	c4,1,8.1-1,12.5-1.6c3.1-0.4,7.3-0.1,9.9-3.1c5.5-6.3,11.2-12.5,13.1-20.5c0.6-2.3,0.5-4-0.1-6.2c-1.7-5.7-4.5-11.1-5.4-16.9
	c-0.2-1.3-0.9-3-3.4-3.9c-2.2,0.2-4.5,1.3-6.5,2.6c-6.9,4.5-14.8,7.1-23.2,8.8c-4.4,0.9-8.7,1.2-13.1-0.2c-2.7-0.8-5.6-1.7-8.3-1.6
	c-4.7,0.1-8.7-1.3-12.6-2.9c-3.9-1.6-7.7-3.4-11.6-5.1c-4.8,3.8-9.2,7.5-11.3,12.8c3.7,6.2,7.2,12.5,11.3,18.6
	c3.4,5,7.6,9.5,15.2,10.6c1.7,0.3,3.6,0.9,3.9,1.7C70,218.4,62.6,219.7,62.1,224z M113.2,96c-3.4,0-7.4,0.8-10.7-0.2
	C95,93.8,88,97.1,80.7,96.4c-3.5,2.3-7.7,0.4-11.5,1.5c-18.2,5.3-31.9,14.5-36.7,31c-1,3.4-2.3,7-1.6,10.3c1.9,9.9,9.2,17.4,19,22.4
	c8.7,4.4,17.8,8.6,28.5,9.9c10.1,1.3,19.5,1.5,28.9-2.4c3.7-1.6,7.3-3.2,10.7-5.2c9.1-5.5,17.8-11.2,17.6-22
	c3.7-8.4,1-16.7-2.1-24.5c-2.5-6-6.2-12.2-12.5-16.4C118.5,99.4,116.2,97.6,113.2,96z M42,45.8c-0.3,19.8-1.4,38.4,2,56.7
	c1.6,0.4,2.2-0.4,3.1-0.8c7.3-3.7,14.6-7.6,23.2-8.9c7.2-1,14.5-1.5,21.7-2c5-0.3,10.1,0.3,15-0.4c5.1-0.6,9.1,0.6,13.1,2.8
	c4.2,2.3,8,5,11.6,8.5c5.8-8,7-17.1,10.3-25.5c5-12.5,9.4-25.3,12.4-38.3c0.2-1,0.3-2.2-1.6-3.8c-12.7,9.4-23.6,20.4-36.1,29.8
	c-3.9-1.3-5.8-3.7-6.6-6.5c-0.7-2.7-2.3-4.9-3.6-7.3c-3.5-6.2-5.7-12.6-7.9-19.1c-0.8-2.4-0.6-5.6-4.5-7.3
	c-7.9,12.5-11.6,26.3-19.4,39C60.5,62.2,52.5,53.6,42,45.8z M170.2,20.7c-2.1-2-4.7-4.1-8.3-3.1c-3.3,1-3.2,3.6-2.3,5.8
	c1.4,1.8,3.5,2.2,5.2,3.1C167.5,25.3,170.8,24.5,170.2,20.7z M101.8,5.6C97,5.5,94.2,6.4,90.4,9.1c-1.1,0.8-1.4,1.8,0,2.7
	c5.7-0.8,7.2-1.2,11.7-3.9C102,7.4,101.9,6.7,101.8,5.6z M38.9,34.5c0.9-1.5,2.8-2.5,2.4-4.8c-2.8-0.6-5.6-0.4-9-0.1
	c0.5,1.8-2.9,2.5-1,4.9C33.8,34.5,36.3,34.5,38.9,34.5z"/>
<path class="st0" d="M716.1,32.8c-0.7-7.8,0.1-13.8,8.2-17.5c1.8,0,4.3,0,6.9,0c4.3,1.8,7.5,4.8,10.2,8.3c0,1.7,0,3.5,0,5.1
	c-1.1,1.5-2.3,2.9-3.3,4.3c-1.7,2.4-3.8,4-7.3,4.3c-3.7,0.3-5.2,2.5-6.6,5.6c-4.1,9.1-4.2,19-8.1,28.1c-1,2.4,1.5,4.1,0.7,6.9
	c-2.7,9.8-3.9,19.9-1.2,30c1.2,4.5-0.6,9.3,2,13.7c0.2,0.4,0.2,1.1,0,1.5c-2.9,5.2-2.9,10.8-3.7,16.3c-0.8,5.6-5,10.2-8.1,14.6
	c1.3,7.6,5,14.2,5.3,21.6c0.1,3.2,2.1,6.4,3.2,9.6c3.1,9.2,5.4,18.6,9.4,27.7c3.6,8.1,5.8,16.7,6,25.5c0.1,4-2.9,7.4-1.6,11.5
	c-6.2,4.2-12.8,6.4-20.3,6.7c-5.8,0.2-11.4,1.7-17,4.3c1.3,7.1-4.3,13.1-3.6,20.4c5.4,1.4,8.4-2.3,12.3-3.7
	c4.1-1.5,8.9-1.2,12.2-4.2c2,1.2,4.1,2.1,4.3,4.4c0.2,2.2-0.3,4.4,1.1,6.5c1.1,1.7,0.8,3.8,0.2,5.7c-4.4,2-9.1,2.6-13.9,2.2
	c-4.4-0.3-8.4,0.3-12,2.7c-1.7-1.6-4.3-0.8-6.1-2c-3.9-2.5-5.4-6.3-4-10.9c0.5-1.5,1.1-3,0.5-4.3c-2.5-5.7-1-12.1-4.5-18.1
	c-4.1,2.2-8.3,0.2-12.5,0.1c-4.2-0.1-8.5,0-12.7,0c-3.3,3.3-4.1,7.4-3.9,10.9c0.2,3.6-3,6.5-1.3,10.6c1.3,3.1-1.8,7.2,0.1,10.5
	c-1.5,2.5-3.8,2.3-5.6,1.9c-4.5-1-8.6-1.3-13.3-0.1c-3.6,0.9-7.8,0.2-11.5,0.2c-5.5-3.9-1.1-7.3-0.2-10.9c2.5-0.9,4.8-1.8,7.3-2.7
	c4.7,1.8,9.6,2.2,14.7,1.6c2.5-3.5-0.1-6.6-0.6-9.9c-0.5-3.2-0.1-6.4-0.1-10c-4.2-1.8-8.7-2.2-13.3-2.3c-5.9,0-11.7-0.1-17.6-1.2
	c-4.7-0.9-8.3-2.5-11.9-5.8c3.3-4.7,1.7-10.2,3.2-15.4c1.4-5.2,3.3-10.2,5.3-15.1c4.9-12.4,7.1-25.4,12.1-37.7
	c-1.1-7.4,4.4-13.4,6-20.3c1.3-5.6,1.3-10.4-2.6-15.2c-4.4-5.4-4.7-12.2-3.7-19.4c0.8-6.1,1.4-12.1,5.2-17.2
	c-1.1-9.5-3.9-18.8-2.9-28.5c3.9-2.8,7.4-6.2,11.8-8.2c6.8-3.3,9.1-9,11.9-14.4c2.1-3.9,3-8.2,3.5-12.6c0.7-6.1,4.5-11.4,6.4-17.2
	c0.2-0.5,0.1-1,0.3-1.9c-2.1-3.2-6.4-4.9-9.7-7.5c-0.4-3-3-5.4-2.1-8.7c3.2-5.7,10.3-6.8,16.1-9.9c2.1-0.1,3.8,1.9,6.2,1.3
	c1.9,1.5,2.3,3.9,4.6,4.9c0,3.6,0,6.8,0,9.9c-1.3,3-4.5,4.5-6.4,6.8c0.3,10.2,11.1,22.2,28.6,31.5C696.5,48.5,704.5,39.1,716.1,32.8
	z M699.3,161.6c-7.2,3.7-13.9,8.5-22.5,9.1c-8.5,0.5-17.1,0.9-25.5-0.1c-8.2-1-15.2-5.5-23-8.9c-3.1,6.3-4.2,12.8-6,19
	c-0.3,1.2-0.4,2.6,0.1,3.7c1.6,3.3,3,6.8,5.3,9.7c5.9,7.6,12.1,15,20.2,21.3c2.1-0.2,4.3,0.5,6.5-0.5c5.3-2.4,8.9,0,12.9,3.7
	c-5.6,2.4-3.2,8.5-8.1,11c-17-6.5-28-19.9-43.1-29.1c-1.5,10.3-5.9,19.2-8.8,28.4c-1.5,4.7-2.4,9.4-3.7,14c-0.7,2.7-1,5.8,1.6,9.2
	c3.2-0.4,6,2,9.9,2c6.1-0.1,12.4-0.9,18.4,1.2c0.9,0.3,2.4,0.2,3.3-0.3c2.6-1.5,5.5-0.9,8.3-0.9c6.2-0.1,12.5-0.5,18.7,0.1
	c6.4,0.6,12.6-0.4,19-0.2c5.6,0.2,11.2,0.4,16.6-1.4c6.7-2.2,14.1-2.3,20.1-5.1c2.9-3.2,3.3-6.5,3.3-10c0-6.7-2-13-4.2-19.2
	c-2.9-8.3-6.8-16.3-8.3-24.8c-2.9-0.4-4,1.3-5,2.7c-4.5,5.8-7.4,12.4-13,17.7c-0.9,0.9-1.6,2.4-2,3.9c-1.5,6.2-3.2,6.9-11.5,5.8
	c-0.3-4.2,0-8.6-2.1-12.3c0.7-1.7,1.7-2.6,3-3c7.7-2.4,13.4-6.6,16.4-13.4c1.1-2.5,2.6-4.7,4.2-7c2.7-3.9,4.8-8.6,3.5-13.2
	C702.6,170.3,702,165.9,699.3,161.6z M663.1,164.8c14.1,0.9,25.7-2.5,34.5-11.5c4.9-4.9,9.3-10.3,9.8-17.2
	c0.7-8.5-2.5-15.1-9.6-21.4c-9.2-8.2-19-14.2-32-16c-7.3-1-14.8-1.1-22-0.1c-6.9,0.9-11.6,5.4-15,10.7c-3.6,5.5-5.2,11.5-7.1,17.6
	c-3.9,12.9,2.7,21.9,12.5,29.5C642.4,162.5,652.3,166.3,663.1,164.8z M655.6,34.4c-6.9,11.1-7.5,23-10,34.9
	c-5.8,5.3-11.5,11.3-19.1,15.7c-1.7,1-3.2,2.7-2.9,4.3c1,4.5-0.7,9.2,1.3,13.5c0.2,0.5,1.2,0.7,2.2,1.3c2.7-5.7,8.4-8.6,13.8-11.8
	c6.4,0,13-0.4,19.4,0.1c11.4,1,22.4,3.3,31.2,10.5c3.4,2.8,7.3,5,11.2,7.5c4-11.9,6-23.6,7.7-35.2c1.8-11.6,6.8-22.8,6.9-35.5
	c-8,4.3-14.9,8.7-19.6,14.7c-2.9,3.6-6.6,6.6-9.3,10.4c-1.9,2.7-5,4.8-9.6,3.1c-0.9-0.9-2.2-2-2.1-3.6c0.1-2.7-1.4-4.9-3.3-6.5
	c-4.7-4-7.3-9.2-10.7-13.9C660.7,40.7,658.2,37.8,655.6,34.4z M658.9,9.6c-6.8-0.1-9.7,1.6-12.5,7.5c0.8,1.3,1.6,2.5,2.4,3.8
	c3.4,0,6.7,0,9.7,0C662.3,17,662.4,13.3,658.9,9.6z M722.9,30.9c6,2,10.1,0.8,11.5-3.2c1.4-3.9-0.6-5.9-7.9-7.7
	C722.4,22.7,722,26.4,722.9,30.9z"/>
<path class="st0" d="M372.9,112.2c7.9,8.8,16.2,17.5,23.7,26.6c6,7.4,13.5,13.7,18.6,21.6c6,9.3,12.2,18.6,17.7,28.2
	c4.5,7.7,3.8,15.5-1.9,22.9c-4.3,5.6-6.8,11.7-6.9,18.6c-0.1,6-2,11.4-8.8,15.2c-5,2.8-8.9,7.2-13.6,11.2c0.7,3.8-2.5,7.2-1.6,11.4
	c-7.7,6.4-16.9,10.8-25.3,16.1c-6.7-2.1-5.9-7.5-6.7-11.6c-1-5.1-2.7-10.3-1.7-15.9c-3.7-1-7.1-0.5-11-0.5
	c-0.6,3.5,0.1,6.8,0.3,10.2c0.5,10.1,8,16.6,14.5,23.8c0.1,0.1,0.1,0.4,0.2,0.6c-0.9,2-3.7,1.6-4.7,2.9c-4-1.3-3.9-5.9-8.4-6.8
	c-1.4,2.1,2.1,5.1-1.6,6.7c-1.8,0.8-3.5,0.4-5.3-1.6c0-3.8,0-8.2,0-13.2c-6.6,0.8-12.8,1.9-18.5,0.9c-1.8-2.2-0.6-3.5,0.9-4.8
	c2.7-1,5.7-0.4,8.6-0.5c3-0.1,5.7-0.6,8.6-2.1c0-4.5,0-9.1,0-14.6c-0.2-0.1-1-1-1.9-1.2c-2.9-0.3-5.9-0.6-8.7-0.4
	c-2.8,0.2-5.3-2.9-8.2-0.3c-0.5,0.4-2.2,0.3-3-0.2c-3-1.5-6.2-0.5-9.7-0.9c0,7.1,0,13.7,0,20.7c6.3,3.9,14.3,5.6,20.5,12
	c0.3,1,0.7,3.2-2.6,5.1c-2.1-0.5-4.1-1.1-5.8-3.4c-2.9-4.1-8-5.5-13.4-6.5c0.2,4.4,3.1,8,2.3,11.9c-1.8,1.1-3.4,0.8-4.9,0.7
	c-4.1-4.3-2.5-9.6-3.2-15.1c-7,0.4-12.1,3.9-17.6,6.8c-3-0.2-4.9-1.3-4.5-4.8c5.2-2.1,10.6-4.5,16.2-6.3c5.2-1.7,6.8-4.6,6.3-9.1
	c-0.4-3.5-0.1-7-0.1-10.2c-5.5-3.8-11.8-4.9-17.9-6c-6.1-1.1-8.1-3.6-8.2-9.2c0-2.8,0-5.6,0-8.2c-10.2-8.3-23.1-14.2-27.6-26.7
	c-7.2-3.7-11.7-8.6-15.3-16.6c0.7-1.7,2.2-2.8,4-3.1c10.8-2.1,19.4-7.8,28.4-13c7.6-4.5,12.6-10.8,16.1-17.5c2.3-4.3,3-9.6,4.3-14.5
	c1.8-6.5,4.4-12.7,11.9-16.3c4.5-2.2,7-6.2,9.9-9.8c1.3-1.7,0.5-3.6,0.6-5.5c-6.9-9.5-15.9-16.7-28.4-18.7c-2.7-2.3-2.4-4.6-1.9-7.3
	c5.7-3.4,9.4-8.8,15.5-12.4c9.4-5.5,17.6-12.4,28.1-16.5c3.5-1.4,6.5-4,9.4-6.3c2-1.5,3.9-2.4,6.7-1.8c5.7,6,4.1,13.4,4.6,20.9
	c7.5,0,14.2-4,22-2.4c1.3,4.1-2.2,6.3-4.4,9.2c0.3,3-0.7,6.3,0.5,9.9c8.6,0.3,17.3,0.4,25.9,4.9C386.3,96.2,377.8,102.7,372.9,112.2
	z M423.4,210.9c5.6-2.8,5.3-8.2,7.2-12.6c1.4-3.2-2.4-4.9-3.5-7.5c-0.8-1.9-2.2-3.7-3.1-5.6c-4.6-8.9-11.8-16.4-16.3-25.4
	c-0.6-1.2-2-2.2-3.2-3.1c-3.9-2.9-6.5-6.7-9.3-10.3c-1.7-2.3-3.3-4.8-5.5-6.7c-8.5-7.4-14.3-16.9-24-23.6
	c2.1-10.4,11.5-16.3,18.1-24c-1.2-0.7-2.1-1.6-3-1.6c-5.5,0.2-10.7-2-16.3-1c-2.8,0.5-5.6,0-8-2.7c0.6-5.2,6.2-8.8,8-14.2
	c-8-1.8-13.7,3.1-20.1,4.6c-2.9-1.4-4-3.2-4.1-5.9c-0.2-4,1.5-7.7,2.5-11.4c0.6-2,1.4-3.9-0.1-5.8c-0.5,0-0.8-0.2-1-0.1
	c-13,7-25.6,14.6-37.8,22.7c-3.5,2.3-7.1,4.8-8.4,9.1c5.5,3.5,12.7,4.9,17.2,9.7c4.4,4.7,10.2,8.6,12.9,14.2
	c-1.7,7.3-6.7,12.7-12.5,17.6c-3.1,2.6-6,5.3-8.9,8c-1.1,1-2.3,1.9-2.6,3.4c-1.7,8.8-5.7,17.2-4.9,26.4c0.1,1.6,0,3.3-0.4,4.8
	c-1.9,7.5-1.2,15.3-2.1,22.8c-0.7,5.2-0.3,10.4-1.1,15.4c-0.9,5.6-2,10.8,0.3,16.3c0.5,1.1-0.1,2.2-0.5,3.3
	c-1.7,5.5-1.8,10.9,2.2,16.5c6.8,1.5,13.8,3.7,20.9,4.5c7.1,0.8,14.5,0.2,21.7,0.2c7,0,14.1,0.7,21.1-0.2c1.3-3.4,3.5-6.7,2-10.6
	c-2.8-7.1-4-14.6-6.1-21.9c-2-6.8-3.6-13.9-9.7-19.1c0.3-3.3,1.9-4.9,4.6-4.4c4,2.8,5.6,6.1,6.5,9.4c2.3,7.7,5.6,15.1,7.1,23.1
	c1.5,8,6.5,15.5,6.2,24c0,0.8,1.2,1.6,1.3,2.5c0.5,2.7,1.4,5.4,2.1,8c0.7,2.3-0.8,4.5,0.8,6.9c1.4,2.2,1.9,5.1,3.5,8.7
	c6.5-4.6,13.1-7.9,18-13.4c-1.1-6.9,2.1-13.6,1.8-20.6c-0.2-4.7-2.7-9-1.8-13.7c0.5-2.6-0.4-5.1-1.8-7.3c-3.9-6.4-5.1-13.4-6.3-20.1
	c1.2-1.8,2.8-2.5,4.7-2.8c0.5,0.6,1.3,1.1,1.4,1.7c0.3,6.1,2.6,11.6,5.2,17.2c2.2,4.7,3.4,9.5,3.3,14.7c-0.1,3.6,1.1,7.2,2.3,10.7
	c0.3,1,0.4,3,3.4,2.9c3.1-2.9,7.3-5.5,9.6-8.7c3-8.7,0.6-16.6-3.1-23.7c-3-5.6-5.6-11.3-8.3-17c-1.4-2.9-3.1-5.9-2.3-9.3
	c0.1-0.4,0.4-0.8,0.6-1.2c1-0.6,2-0.4,3.5-0.2c1.2,6.7,6.4,12.2,7.9,19c0.3,1.3,0.8,3,3.2,3.7C420.4,207.9,421.8,209.7,423.4,210.9z
	 M287.5,195.9c-1.7-8.7,2.2-16,1.2-24c-12.9,5.3-22,15.1-35,18.8c-0.9,3.8,3.3,4.9,3.5,7.4c9.7,1.5,17.5-1.7,25.2-5.3
	C283.9,193.7,285.2,194.5,287.5,195.9z M285.3,196.6c-7.3,3-13.9,5.8-20.6,8.6c1.2,3.7,4.1,6.1,6.7,9.7c4.5-3.6,9.9-4.7,14.5-7.7
	C284.6,203.9,285.8,200.6,285.3,196.6z M283.7,224.2c0-3.6,0-6.1,0-8.6c-3.3-0.5-5.3,0.3-6.4,3.2C279.3,220.4,281.1,222,283.7,224.2
	z"/>
<path class="st0" d="M921.8,270c-6.1-3.6-1.9-9.5-6-13.3c-2.9,2.7-4.2,6.1-7.5,8c0,3,0,5.7,0,8.7c1.6,2.5,3.9,3.8,7.8,4.3
	c6.5,1,12.7,3,18.7,4.6c1.2,2.7,0.1,4.2-2.2,5.5c-5.9-2-11.9-4.7-18.7-4.2c-1.8,4.5,3.1,5.7,4.4,8.4c0.8,3.1-2.1,4.3-4.1,6
	c-6.8-4-4.9-11.6-9.3-17c-3-0.7-6.1-0.9-9.5,0.5c-2.9,1.2-6.1,0.8-7.7-2.8c3.2-5,11.2-1,14.7-5.5c0.2-0.7,0.6-1.4,0.6-2.1
	c0.1-1,0.3-2.4-0.3-2.9c-2.3-1.9-0.1-4.1-0.9-6.1c-0.8-2.4-3.2-3.7-4.8-3.3c-3.1,0.8-6.2,0.4-9.2,1c-2.1,0.4-4,1.6-6.2,2.6
	c-0.7,5.4-3,10.4-2.5,15.9c0.3,2.7,1.4,4.3,4.4,5.5c6.1,2.4,12,5.1,17.3,8.9c-1.1,2.7-4.1,2.9-6.7,4.1c-4.8-3-8.3-8.9-16.1-7.2
	c0.9,5.4,0.9,5.4-1.7,11.2c-1.6,0.4-3.3,0.6-4.9-0.2c-2.5-4.5,3.4-8.9-0.2-14c-8.2,0.2-16.8,1.6-25.3,5c-0.4-5.4,0.1-6,3.9-6.8
	c8-1.5,16-3.2,24-4.8c0.4-6.3-0.6-12.3,2.7-18.1c-4.6-1.1-8.5-1.4-12.1-3.1c-1.5-2.1-0.1-4.7-1.1-7.3c-3.1-2.2-7,0.1-10.8-1.2
	c-4.1-2-6-6.1-7.2-10c-1-3.1-2.6-5.1-5.5-6.9c-3.9-2.4-5.1-6.4-7.3-10.3c-1.3-1.4-4.1,0.1-6.3-1.5c-7.8-7.9-7.2-17.3-4.4-26.9
	c1.5-2.1,3.8-2,6.1-1.8c10.2,0.6,20.1-2.3,30.3-1.6c2.9,0.2,6-1.1,8.9-1.9c2.3-0.6,3.9-2,4.6-4c3.3-9.7,7.3-19.3,9.1-29.4
	c0.1-0.7-0.1-1.5-0.1-2.2c-13.1-3.8-27.4-4.3-39.7-11.5c-4.1,1.1-8.6,2.3-12.9,4.7c0.3,3.1,2.9,6,0.7,10.2c-4.1,4.6-10,8.2-18.7,7.3
	c-3.5-3-7.7-5.7-9.3-10.5c0.4-2.6,2.7-5.1,1.7-8.2c4.4-2.2,7.4-6,12.7-4.9c5.7-9.9,11.1-19.4,19.2-27.6c2.3-2.3,4.8-4,7.3-5.9
	c4.7-3.5,8-8.1,12.9-11.4c13.5-9.1,27.3-17.8,41.9-25.4c6.3-3.3,12.5-7.1,19.8-9.1c2.6-0.7,5-0.5,7.5-0.7c1.9-0.1,3,1.1,4.6,2
	c0,7.2,0.9,14.2,2.1,21.7c8,0,15.6,0,23.2,0c2.5,0,5.3-0.5,6.9,2.8c-0.5,2.6-2.8,5-5.4,7.2c-5.2,4.6-7.4,7.9-9,12.9
	c1.9,1.4,4.3,0.9,6.4,0.7c9.9-0.9,19.5,2.4,29.2,1.6c2.2,4.8,2.2,6.3-1.9,8.8c-5.7,3.4-10.2,7.8-14.9,12c-4.6,4.2-8.4,8.9-11.6,14.1
	c-5.4,9.1-3.9,18.1-1,27.3c0.3,0.9,1.1,1.7,1.9,2.4c7.3,6.4,13.7,14,22.9,18.4c7.2,3.5,12.5,9.1,20.3,12.4c0.7,1.6,1.5,3.6,2.3,5.7
	c-2.9,3.5-3,8.3-7.3,11.3c-3.9,2.8-7.5,6-10.9,8.8c-0.2,2.4-0.2,4.1-0.6,5.8c-1.4,6.3-5,11.1-12,13.9c-4,1.6-8.2,3.1-8.8,8
	c-0.2,1.6-2.6,3.4-4.5,4.2c-5.6,2.6-10.9,5.4-17.8,5.7C932.7,269.1,927.2,270.4,921.8,270z M946,262.6c3.4-2.5,6-4.4,7.6-5.7
	c1.5-8.1-0.1-14.7-3.6-21c-1.7-3.1-2.4-6.7-3.6-10c3.8-1.6,5.2-1.4,5.8,1.1c1.8,7.5,6.3,14.2,7.6,22.1c6.8-3.3,13.8-5.6,15.5-11.5
	c-0.7-6.5-3.6-11.1-7.2-15.6c-2.7-3.4-4.8-7.1-6.8-10.8c-0.7-1.3-1.4-3.4,1.7-4.8c5.7,6.5,8.5,14.8,14.7,20.7c1.6,0.2,2.7,0,3.6-0.7
	c4.3-3.2,7.4-7.3,10.2-11.5c3-4.5,2.4-6.1-2.3-9.3c-2-1.3-4.2-2.4-6.3-3.7c-11.2-6.8-22-14-31.7-22.5c-4.1-3.6-6-8.2-7.1-12.9
	c-1.3-5.5,0.5-11.2,2.5-16.4c4.5-11.7,12.7-21.5,23.5-29.5c1.6-1.2,3-2.7,4.5-4.1c-8.4-3.9-14.2-4.3-24.2-2.6
	c-5.1,0.9-10.5,2-15.5-1.9c5.3-6.9,8.5-14.6,16.2-21.2c-9.7,0.3-18.1-1.1-26.4,1.4c-2.2,0.7-4.5,0.1-6.1-2.2
	c-0.4-2.4-0.1-4.8,0.9-7.5c1.8-4.8,3.6-9.8,1.6-14.8c-2.4-1.2-4,0.3-5.7,0.9c-18.3,6.4-33.6,17.2-50,26.3c-2.1,1.2-4.9,2.6-4.8,5.6
	c7.9,4.6,17.9,5.8,24.4,12.4c5.4,0.9,7.9,5.9,12.4,7.2c4.2,1.2,5.8,3.3,7.2,6.5c-3.6,9.4-11.4,17.6-12.2,27.9
	c-2.2,1.2-4,2.3-5.9,3.3c-1,4.3-1,9-3.1,12.8c-4.7,8.6-5.1,17.9-7.3,26.9c-1.8,7.2-5.4,14.5-3.8,22.2c-2.1,2.9-1,6.2-1.7,9.3
	c-1.2,4.6,0.4,9.3-1.4,14c-1.5,3.9,0.3,8.1,2.2,12c1.5,0.7,2.9,1.3,3.4,1.5c14.1-1.7,26.8-5,40.1-6c0.3-4.8,0-9.1-1.3-13.4
	c-1.2-3.9-1.3-8.3-1.5-12.3c-0.2-4.3-5.6-7.6-3.1-12.1c3.4-0.5,5.5,0.4,6,3.1c1.1,6,4.6,11.6,3.5,17.9c-0.2,1-0.1,2,0.1,3
	c2,8,4.5,15.9,5,24.2c0.1,1.6,1.3,2.6,2.5,3.3C933.2,265.2,939.7,263,946,262.6z M823.3,142.1c4.8-1.3,9.1-3.2,13.6-3.6
	c4.8-0.5,8.9-2.6,13.6-3.3c4.6-0.6,9.2-2.8,13.7-2.6c4.9,0.2,8.1-4.8,13-2.7c0.8,2.2,0.2,3.8-1.7,4.8c-2.1,1.1-4.4,1.8-7.1,2.1
	c-5.7,0.6-11.5,1.2-16.2,5.2c11.2,2.3,21.9,4.6,33.3,6.9c3.4-5.7,6.6-11.2,9.9-16.7c0.7-1.2,0.8-2.3,0.9-3.5
	c0.3-2.2-0.7-3.9-2.7-5.1c-10.9-6.3-22-12.3-33.7-17.4c-1.6-0.7-3.9-1.1-4.8-0.4c-3.1,2.6-7.5,2.9-10.7,5.5
	c-9.6,7.9-15.3,17.9-21.1,27.9C822.9,139.9,823.3,141,823.3,142.1z M871.9,192.6c-4.1,2.2-6.7,1.6-9.1,2.1c-2.7,0.5-5.1,2.2-8,0.5
	c-4.3,2.1-9.5-0.4-13.8,2.1c-3.7,2.1-7.7,2.7-11.5,0.2c-4.6,5.3-4.1,12.7,1,18.9c5.1-0.4,9.6-2.6,14-4.3c4.4-1.7,8.8-2.8,13.5-4.3
	c0.8,1.5,3.1,1.9,1.7,4.2c-4.1,1.5-10.1,0.9-11.9,5.9c-3.5,0.8-7.4-0.4-9.3,3.1c0.8,2,1.6,4,2.4,6.1c7.8,1.9,14.6-1.6,22.5-2.2
	C867.6,214.8,867,204.1,871.9,192.6z M861.8,244.3c1.3-4.4,2.1-9.1,1.9-13.9c-5.8-1.3-9.3,1.8-12.9,3.3c-2.3,5,4.4,6.8,3.3,10.9
	C857,245,859.2,245.2,861.8,244.3z M822.9,154.5c-0.7-1.3-1-1.9-1.4-2.5c-0.3-0.6-0.6-1.3-1.1-2.1c-1.9,0.6-3.2-0.7-4.8-1
	c-5.8-1.2-7.5,0.1-7.6,6.1c2.1,1.4,4.2,2.8,6.8,4.6c1.2-1.9,3.5-1.6,4.9-2.8C820.7,156,821.6,155.4,822.9,154.5z"/>
<path class="st0" d="M559.6,182.3c-0.3,4.1-1.1,8-3.7,11.9c-2,0-3.9,0.2-5.7,0c-5.9-0.6-11.7,0.5-17.2,1.9c-3.2,0.8-6.2,0.9-9.4,0.9
	c-4.2,0.1-8.5-0.3-12.2,2.2c-2.8,1.9-6-0.2-9,0.3c-5.4,0.9-11.1-0.1-16.5,1.7c-1,0.3-2-0.4-3.2-1.4c-1-3.3-0.3-6.9-0.4-10.1
	c1.1-1.9,2.7-3,4.1-2.2c3.4,1.8,6.4,0.6,9.7-0.1c9.4-1.9,19.3-1.9,28.2-5.6c7,0.9,13.6-2,20.5-1.5c2.4,0.2,5,0.5,7.1-0.2
	C555.2,178.9,557,180.1,559.6,182.3z"/>
<path class="st0" d="M486.8,164.9c-4.6-5-3-9.3,0.3-13.6c3-1.1,6-0.7,8.8-0.5c8.6,0.6,16.9-0.9,25.3-1.6c3.7-0.3,7.8-0.2,11-1.6
	c3.9-1.6,7.9-1.1,11.7-1.7c4.1-0.7,8.7,0.5,13.4,1c1.5,2.5-0.7,6,2.4,8c-1,1.6-1.8,2.8-2.7,4.2c-2.9,0-5.9,0.2-8.8,0
	c-7-0.7-13.8,0.6-20.4,1.8c-4.8,0.9-9.4,1-14.2,1c-7.4-0.1-14.7,0.4-21.8,2.7C490.5,165,488.8,164.8,486.8,164.9z"/>
<path class="st0" d="M50.5,374.7c2.1-1.1,3.7-0.7,5-0.7c5.1,2,6.5,6.8,10.5,9.6c3.7,2.6,7.7,3.8,12,4.2c12.2,1.3,23.7-1.4,34.3-6.1
	c6.5-2.9,11.9-7.7,16.9-12.6c0.9-0.9,1.5-1.9,1.8-2.4c3.7,0.4,4.6,2.2,5.8,3.5c0.6,1.4-0.4,2.5-1.2,3.2c-5,4.7-9.8,9.4-15.2,13.7
	c-3.3,2.6-7,5.6-10.8,6.8c-4.7,1.5-9.7,3.3-15,3.7c-8.9,0.7-17.5-0.7-25.7-3.3c-6.3-2-11.5-5.6-15.2-10.7c-1-1.4-2.1-2.7-3.2-4
	C50.5,378.2,50.5,376.5,50.5,374.7z"/>
<path class="st0" d="M303.9,393.4c-3.1,0.3-4.3-0.8-5.3-2.5c2.5-5.9,6.6-10.8,13.2-13.9c1.9-0.9,3.8-1.8,5.2-3.2
	c6.1-5.8,13.6-7.8,22.4-7c0.8,0.1,1.6,0.1,2.4,0c11.4-0.9,20.2,3.3,27.9,10.3c2.1,1.9,5,3.4,7.2,5.6c0.8,2.5,1.1,4.9-2.7,6.7
	c-3.5-3-8.2-4.7-12-8c-7.3-6.2-16-7.3-26.3-5.1C322.9,379.2,313.8,386.8,303.9,393.4z"/>
<path class="st0" d="M879.4,372.5c2.6,2.4,6.1,4.1,9.1,6.7c5.1,4.4,12.3,6.3,19.7,6.6c3.1,0.1,6.2-0.1,9.3,0.1
	c10,0.6,17.1-3.6,22.7-10.3c3.3-3.9,7-7.5,9.4-11.6c4-1.5,4.2,1.6,5.8,3.3c-6.4,7.7-11,16.7-21.3,21.7c-10.6,5.1-22,6.7-33.9,5.3
	c-7.8-0.9-15-3.3-20.6-8.6c-3.1-2.9-4.5-6.1-3.9-10C876,374.1,877.2,373.1,879.4,372.5z"/>
<path class="st0" d="M629.7,381.9c1.8-2.7,4.2-2.1,6.3-2c1.9,0.3,1.5,2.3,2.6,2.7c5.2,1.9,9.1,5.5,14.1,7.5c2.8,1.1,5.8,1.7,9,1.6
	c3-0.2,6.3-0.6,8.8,1.1c12.5-5.7,24.7-11.6,30.8-23.1c3-0.7,4.7,0.3,6.2,2.7c-7.2,12.1-17.8,21.4-33,26.1c-9.2,2.9-18.8,1.4-27-2.7
	C640.7,392.5,633.5,388.7,629.7,381.9z"/>
<path class="st0" d="M82.4,354.8c-6.2,7.1-11.9,8.5-18.3,3.6c-1.7-2.7-3.4-5.6-2.1-9c3.8-4.7,8.8-7.3,15.7-6.4
	c2,0.6,3.2,2.2,4.6,3.8C82.4,349.4,82.4,352.2,82.4,354.8z"/>
<path class="st0" d="M113.8,361.1c-3.7,0.8-6.6-1.4-9.8-1.7c-3-2.7-4.2-5.9-3.3-10.1c4.5-1.8,8.3-5.8,14.6-4.8
	c1.9,0.9,3.2,2.3,4.1,3.8C120.5,353.7,119.2,358.1,113.8,361.1z"/>
<path class="st0" d="M323.6,334.8c1.1,0.7,2.2,1.2,3.6,1.2c1.3,0,2.6,0.1,3.8,0.2c2.8,2,2.6,5.1,4.2,7.4c-3.1,7.5-9.9,8.6-17.8,7.7
	C312.9,344.3,313.4,342.8,323.6,334.8z"/>
<path class="st0" d="M361.6,336c4.4,1.9,4.8,5.3,6,8.3c-2.5,5.6-7.8,7.6-14,8.5c-3.8-1-4.8-4-6.5-6.6
	C352.2,338.6,354.2,337.1,361.6,336z"/>
<path class="st0" d="M636.6,361.3c5-9.9,9.4-11.7,19-8.1c1.6,2.5,0.3,5.1,0.7,7.5C647,368.2,641.4,368.4,636.6,361.3z"/>
<path class="st0" d="M676.8,357.2c3.8-4.6,8.4-6.1,14.2-5.3c2,1,3.4,2.5,4.7,4.1c-0.7,4.5-3.7,7.6-7.6,10.1
	c-3.9,1.7-6.8-1.4-10.2-1.3C676,362.3,677.1,359.8,676.8,357.2z"/>
<path class="st0" d="M935.1,358.6c-2.2,1.8-4,3.3-5.7,4.7c-9.7,0.3-9.8,0.2-9-8c5.8-3.7,7.7-4.4,13.6-4.8
	C936.3,352.8,935.2,355.5,935.1,358.6z"/>
<path class="st0" d="M893.7,350.6c2.8,2.3,6.1,4.3,6.6,8.2c-1,1.8-2.8,3.2-5.3,4.6c-2.5,0-5.2,0-8,0
	C882.4,355.8,882.6,355.5,893.7,350.6z"/>
<path class="st0" d="M88.9,121.1c-3.3,2.8-6.8,1.5-9.6,1.7c-2.9-1.6-3.3-3.9-4.5-5.9c1.7-2.5,3.4-4.9,5.7-6.9
	C89.2,112.3,89.6,112.8,88.9,121.1z"/>
<path class="st0" d="M107.8,120.2c4.1,0.5,8.7-1.9,11.5,2.6c-0.9,3.6-4.2,5.8-7.1,8.3c-2,1.7-4.3,1.6-6.5,0.7
	c-2.6-1.1-2.5-3.4-1.8-5.2C104.9,124.3,106.5,122.3,107.8,120.2z"/>
<path class="st0" d="M654.6,122.7c0.6-3.2-1.2-6.5,2-9.1c2.8-1.7,6.7,0.8,9.1-2c4.1,5.7,3.5,8.2-3.5,14.4
	C658.9,127.1,657.1,125,654.6,122.7z"/>
<path class="st0" d="M683.7,120.2c3.5,0.8,6.6,1.5,8.3,4.9c-0.4,3.8-3.1,6.3-7.6,7.1c-4.2,0.7-5.9-1.9-6.9-5.3
	C678.4,124.5,679.8,122,683.7,120.2z"/>
<path class="st0" d="M338.4,88.2c0.1,6.1-1,7.2-7.8,7.6c-1.5-1.4-3-2.9-3.1-5.1c0.6-2.2,2.6-3.3,4.4-4.4
	C334.7,85.8,336.4,87.4,338.4,88.2z"/>
<path class="st0" d="M322,85.9c-4.1,0.6-5.3-1.8-7.3-3.5c0.7-2.2,1.6-4.2,3.5-5.7c3.1-0.8,5.8-0.9,7.6,2.1
	C326.2,82.1,324.2,84.3,322,85.9z"/>
<path class="st0" d="M905.1,111.7c-5.3-4.3-5.1-8,0.3-12.9c3.8,1.3,8,2.1,9,6.3c-0.6,1.4-1.2,2.8-1.8,4.2
	C910.1,110.1,907.5,110.9,905.1,111.7z"/>
<path class="st0" d="M886.4,102.7c0-3.6,0-6.7,0-10.1c1-1.7,3-3.1,5.3-4.2c1.6,0.6,3.2,1.1,4.6,1.6c1.5,2.8,0.6,5.3,0.7,7.8
	C894.5,100.5,892.3,103.6,886.4,102.7z"/>
</svg>
