<?xml version="1.0" encoding="utf-8"?>
<!DOCTYPE svg PUBLIC "-//W3C//DTD SVG 1.1//EN" "http://www.w3.org/Graphics/SVG/1.1/DTD/svg11.dtd">
<svg version="1.1" id="illustrationContentFromKinglands" xmlns="http://www.w3.org/2000/svg" xmlns:xlink="http://www.w3.org/1999/xlink" x="0px" y="0px"
	 width="1000px" height="500px" viewBox="0 0 1000 500" style="enable-background:new 0 0 1000 500;" xml:space="preserve">
<style type="text/css">
<![CDATA[
	.st0{fill-rule:evenodd;clip-rule:evenodd;}
]]>
</style>
<path class="st0" d="M259.4,497.9c-2.6-0.2-4.9-1.1-6.7-0.5c-5.3,1.8-8.4-1.4-12.1-3.9c-2.6-1.8-5.7-3-8.2-4.8
	c-1-0.7-1.8-2.4-1.9-3.7c-0.3-17.3-0.5-34.6-0.7-51.9c-0.1-9-0.3-18.1-0.7-27.1c-0.3-7.5-0.8-15-1.2-22.5
	c-0.6-11.4-1.2-22.9-1.9-34.3c-0.8-13-1.7-26-2.4-39c-0.1-1.4,0.9-2.9,1.7-4.2c1.5-2.2,3.9-4.1,4.9-6.4c1.6-3.5,4.2-3.9,7.5-3.7
	c5.3,0.3,10.6,0.3,15.9,0.7c1.6,0.1,3.2,0.6,4.6,1.3c3.5,1.9,6.7,4.3,10.3,5.9c3.3,1.5,3.9,4,4,6.9c0.3,9.6,0.4,19.2,0.7,28.9
	c0.2,7.5,0.7,15.1,0.9,22.6c0.1,2.1-0.3,4.2-0.3,6.2c0.2,16.2,0.4,32.5,0.7,48.7c0.1,2.7,0.9,5.3,1.1,8c0.2,3.3,0,6.7,0.1,10.1
	c0.4,8.9,0.8,17.7,1.2,26.6c0.4,8.1,0.8,16.2,1.2,24.3c0,0.6-0.2,1.4-0.7,1.7c-2.3,2.1-4.5,4.3-7.2,6c-2.3,1.4-5.1,2.1-7.7,3.1
	C261.3,497.1,260,497.6,259.4,497.9z M225.3,309.4c0.3,1.9,0.6,3,0.6,4c-0.1,4.1-0.8,8.2-0.4,12.3c0.7,8.5,2.2,17,3,25.6
	c0.7,8.5,0.9,17,1.3,25.5c0.4,8,0.9,16.1,1.2,24.1c0.5,10.1,0.9,20.3,1.2,30.4c0.2,5.2,0,10.3,0,15.5c0.2,9.5,0.4,18.9,0.6,28.4
	c0,2.2-0.3,4.5,0.1,6.7c0.3,1.9,0.9,4.3,2.3,5.5c2.7,2.3,6,3.9,9.3,5.9c0.2-1.5,0.5-2.5,0.5-3.4c-0.3-9.1-0.7-18.1-0.8-27.2
	c-0.1-10.5-0.1-21,0-31.5c0-2.5,0.3-5,0.2-7.4c-0.4-9.6-1.1-19.2-1.5-28.9c-0.2-6,0-12-0.2-18c-0.3-9.3-0.8-18.6-1.1-28
	c-0.2-5.6-0.3-11.3-0.7-16.9c-0.2-4-0.7-7.9-1.3-11.9c-0.2-1.1-0.6-2.6-1.5-3.1C234.2,314.6,229.9,312.2,225.3,309.4z M226.4,308.1
	c4.6,2.4,9,5.8,13.8,6.8c5.7,1.2,11.9,0.5,17.9,0.5c1.4,0,3.3,0.1,4.1-0.7c2.3-2.2,4.1-4.9,6.2-7.4c-4.4-4.3-9.6-7-15-8.3
	c-5.2-1.2-11-0.5-16.5-0.9c-2.2-0.1-3.5,0.7-4.7,2.3C230.5,302.9,228.6,305.3,226.4,308.1z M247.6,496.4c3.3,0.2,3.4,0.2,3.5-1.7
	c0.2-3,0.3-6.1,0.3-9.1c0-1.2-0.5-2.4-0.2-3.5c1.5-5.2,0.4-10.4,0.4-15.5c0-4.4-0.5-8.7-0.7-13.1c-0.2-7.1-0.4-14.3-0.5-21.4
	c-0.1-2.9,0.1-5.9,0-8.9c-0.1-5.1-0.5-10.2-0.5-15.3c0.1-11.2,0.4-22.4,0.4-33.6c0-7.5-0.2-14.9-0.3-22.4c-0.1-6-0.2-12.1-0.3-18.1
	c0-4.7,0-9.3-0.1-14c0-0.7-0.8-1.4-1.2-2.1c-0.4,0.7-1.2,1.4-1.2,2.1c0.1,3,0.5,6,0.5,9c0,9.4-0.4,18.7-0.3,28.1
	c0.1,9.5,0.7,19.1,0.8,28.6c0.1,7.8-0.4,15.5-0.4,23.3c0,3.9,0.4,7.8,0.6,11.7c0.2,5.5,0.4,10.9,0.6,16.4c0.2,3.7,0.7,7.4,0.5,11.1
	c-0.2,6.4-0.8,12.8-1.1,19.2c-0.1,2.3,0.5,4.6,0.5,6.9c0.1,4.4-0.1,8.7,0,13.1C249.3,490.2,250.6,493.4,247.6,496.4z M254,475.9
	c0.3,0,0.6,0,1,0c0-2.2,0-4.4,0-6.6c-0.2-7.9-0.6-15.7-0.6-23.6c0.1-8.9,0.6-17.9,0.9-26.8c0.1-4.1,0.4-8.1,0.3-12.2
	c-0.1-6.5-0.4-12.9-0.6-19.4c-0.2-6.8-0.4-13.7-0.6-20.5c0-1.7,0.1-3.4,0.1-5.2c-0.2-6.1-0.5-12.2-0.7-18.4
	c-0.3-8.1-0.4-16.2-0.7-24.3c0-0.2-0.2-0.5-0.3-0.7c-0.3,0-0.6,0-0.9,0c0,1.8,0,3.5,0,5.3c0.2,8.6,0.4,17.1,0.6,25.7
	c0.1,3.4-0.1,6.7,0,10.1c0.1,9.9,0.5,19.7,0.5,29.6c0,12.5-0.6,25-0.5,37.5c0.1,11.1,0.9,22.1,1.3,33.2c0.2,4.7,0,9.3,0,14
	C253.7,474.5,253.9,475.2,254,475.9z M246.1,411.6c0.2,0,0.4,0,0.6-0.1c0-5.3,0.1-10.6,0-15.8c-0.1-7.2-0.5-14.4-0.6-21.6
	c-0.1-9.5,0-19.1,0.1-28.6c0-2.7,0.4-5.5,0.4-8.2c-0.1-6.1-0.3-12.3-0.6-18.4c0-0.5-1.3-1.2-2-1.2c-0.9,0-1.9,0.5-2.7,0.8
	c0.4,2.8,0.9,5.4,1,8.1c0.6,9,1.3,17.9,1.6,26.9c0.5,12.3,0.6,24.5,1,36.8C245.1,397.4,245.7,404.5,246.1,411.6z M259.4,448.6
	c0.4,0,0.8-0.1,1.2-0.1c0.4-10.3,1-20.7,1.1-31c0.1-11.4-0.4-22.8-0.5-34.2c-0.1-9.3-0.1-18.5,0-27.8c0-4.3,0.4-8.6,0.3-12.9
	c-0.2-7.7-0.6-15.4-0.9-23.2c0-0.6-0.2-1.1-0.4-2.7c-1,1.1-2,1.6-2,2.2c-0.1,1.9,0,3.8,0.1,5.7c0.3,3.2,0.9,6.3,1,9.5
	c0.2,4.9,0,9.7,0.1,14.6c0.2,15,0.4,30,0.6,44.9c0,3.1,0,6.1,0,9.2c0,3.1,0,6.3,0.1,9.4c0.1,3.8,0.6,7.6,0.5,11.4
	C260.3,432,259.8,440.3,259.4,448.6z M257.5,317.8c-0.7-0.1-1.3-0.2-2-0.4c-0.3,1.2-1,2.4-0.9,3.6c0.2,5.8,0.8,11.7,1,17.5
	c0.2,6.8,0,13.7,0.1,20.5c0,4.3,0.2,8.7,0.3,13c0.1,2.7,0.3,5.4,0.4,8.1c0.4,8.8,0.8,17.6,1.1,26.4c0.1,5.1-0.1,10.3-0.2,15.4
	c0,1.4-0.1,2.8-0.2,4.1c0.3,0.1,0.7,0.1,1,0.2c0.3-1.2,0.8-2.5,0.8-3.7c0-5.6-0.2-11.2-0.2-16.8c0-4,0.3-8,0.2-12
	c-0.2-5.1-0.9-10.1-1.1-15.2c-0.2-5-0.1-10.1,0-15.2c0-9.3,0-18.7,0-28C257.5,329.5,257.5,323.7,257.5,317.8z M246.5,467
	c2.8-13,0.1-26.1,0.8-39.2c-0.3,0-0.6,0-0.8,0C246.5,440.9,246.5,453.9,246.5,467z M259.4,481.9c1.5-1.9,1.5-19,0-21.2
	C259.4,467.8,259.4,474.8,259.4,481.9z M257.6,438.3c-0.3,0-0.5,0-0.8,0c0,6.1,0,12.1,0,18.2c0.3,0,0.5,0,0.8,0
	C257.6,450.4,257.6,444.4,257.6,438.3z"/>
<path class="st0" d="M195,500c-0.6-1-1.1-1.8-1.6-2.7c-0.7,0-1.5-0.3-2.1,0c-6.6,3.4-9.4-2.7-13.7-4.9c-5.8-2.9-3.3-8.1-3.8-12.4
	c-0.5-5-0.3-10.1-0.6-15.2c-0.5-7.8-1.4-15.5-1.8-23.3c-0.4-8.2-0.4-16.3-0.7-24.5c-0.4-12.9-0.8-25.7-1.3-38.6
	c-0.2-3.9-0.8-7.7-1.1-11.6c-0.2-2.1,0-4.3-0.1-6.4c-0.8-12-1.5-24-2.5-36.1c-0.3-3.9-1.2-7.8-1.6-11.8c-0.1-0.7,0.6-1.7,1.1-2.3
	c3.3-3.4,6.7-6.6,10-10c1.2-1.2,2.1-2.2,4.4-2.1c4.8,0.2,9.7-0.4,14.5-0.7c0.7,0,1.6,0.1,2,0.5c3.9,4.1,7.8,8.2,11.7,12.4
	c0.3,0.3,0.6,0.8,0.6,1.3c0.1,4.9,0,9.8,0.2,14.7c0.3,5.2,0.9,10.5,1.3,15.7c0.2,3.1,0.4,6.2,0.5,9.3c0.2,13.3,0.5,26.6,0.6,39.9
	c0.1,7.3,0,14.6,0,21.9c0,10.6-0.1,21.3,0,31.9c0.1,10.9,0.4,21.7,0.6,32.5c0,0.7,0.3,1.3,0.4,2c0.1,2.5,0.3,4.5-2.6,6.3
	c-3.2,2-5.4,5.4-8.1,8c-1.3,1.2-3,2-4.4,3.2C196.2,497.9,195.8,498.8,195,500z M181.5,492.9c0.4-0.3,0.7-0.5,1.1-0.8
	c0-5.2,0-10.3,0-15.5c0-8,0.2-16.1,0-24.1c-0.3-11.1-0.8-22.2-1.2-33.2c-0.2-4-0.6-8-0.6-12c-0.1-9.1,0-18.2-0.1-27.4
	c-0.1-6.3-0.5-12.5-0.5-18.8c0-4.9,0.6-9.9,0.5-14.8c-0.2-6.7-0.7-13.4-1.2-20.1c-0.2-2,0.1-4.9-1.1-5.9c-3.3-2.6-7.3-4.5-11.4-6.8
	c0.5,4.9,0.8,9,1.2,13.1c0.3,3.6,0.7,7.1,1.1,10.7c0.5,5.3,1.1,10.5,1.4,15.8c0.2,5-0.1,10,0.2,15c0.4,8.5,1.2,17,1.8,25.4
	c0.1,1.4,0,2.9,0,4.3c0.2,6.8,0.5,13.7,0.6,20.5c0.1,3.8-0.1,7.6,0,11.4c0.3,7.4,0.8,14.8,1.3,22.2c0.2,2.4,0.7,4.7,0.9,7.1
	c0.4,4.8,0.8,9.6,0.9,14.4c0.1,4.2-0.3,8.4-0.4,12.6c0,0.4,0.4,1,0.7,1.3C178.1,489.2,179.8,491,181.5,492.9z M168.2,310.8
	c2.5,1.4,4.4,2.1,5.9,3.3c4.2,3.3,8.9,4.7,14.4,4.2c2.4-0.2,4.8-0.1,7.2-0.2c0.5,0,1.2-0.5,1.5-0.9c1.8-2.3,3.6-4.5,5.3-6.9
	c0.4-0.6,0.6-1.9,0.2-2.5c-3.7-6.3-17.2-10.6-23.6-6.8C175,303.4,171.9,307.3,168.2,310.8z M182.8,322.6c0.3,0,0.6,0,1,0
	c0.2,4.7,0.6,9.3,0.7,14c0.1,6.4,0,12.9,0,19.3c0,7.2,0,14.4,0.2,21.6c0.3,11.3,0.7,22.6,1,34c0.1,5.8-0.1,11.6,0.1,17.4
	c0.2,5.3,1.1,10.6,1.1,15.8c0,9.9-0.3,19.9-0.6,29.8c0,0.9,0,1.8,0,2.7c0.4,6.2,3.1,12.6-0.9,18.6c2.7,1.4,3.4,1.1,3.4-1.8
	c0-8.1,0-16.2,0-24.3c0-10.6,0.1-21.2-0.1-31.9c-0.1-4.8-0.7-9.7-1.2-14.5c-0.3-3.6-1.1-7.1-1.2-10.7c-0.1-5.1,0.5-10.3,0.5-15.4
	c0-5.4-0.5-10.8-0.6-16.3c-0.2-9-0.2-18-0.3-26.9c0-2.9-0.3-5.7-0.3-8.6c0-4.5,0.1-9,0.1-13.5c0-3.9,0-7.8,0-11.6
	c-4.5-0.5-4.6-0.5-4.5,3.4c0.1,2.7,0.5,5.4,0.7,8.1c0.2,0,0.5,0,0.7,0C182.8,328.8,182.8,325.7,182.8,322.6z M195.8,342
	c-0.3,0-0.6,0-0.8,0c-0.1,3-0.4,6-0.4,9c0.1,10.1,0.4,20.2,0.6,30.2c0.2,9.5,0.5,19,0.6,28.5c0,6.2-0.5,12.3-0.6,18.5
	c-0.1,6.5,0,13.1,0,19.6c0,3.3-0.1,6.6,0,9.9c0.1,7.3,0.2,14.6,0.4,22c0.1,4.1,0.4,8.2,0.7,12.3c0.9-0.5,1.3-1.1,1.3-1.8
	c0.1-3.7,0.2-7.4,0.1-11.1c-0.1-8-0.5-16-0.6-24c0-2.1,0.6-4.2,0.5-6.2c-0.2-4.4-1.1-8.7-1-13.1c0.1-9.3,1-18.7,1-28
	c0-11.2-0.8-22.5-1.2-33.7c-0.3-9.8-0.4-19.6-0.6-29.3C195.8,343.8,195.8,342.9,195.8,342z M187.3,319.3c0,7.8-0.1,14.7,0,21.7
	c0.2,10,0.7,20.1,0.9,30.1c0,1.7-0.6,3.4-0.5,5c0.3,6.2,1,12.4,1.1,18.6c0.2,7.2-0.3,14.4-0.1,21.6c0.2,6,0.9,11.9,1.4,17.9
	c0.1,1.8,0,3.6,0,5.3c0.7-3.1,0.7-6.1,0.7-9.1c0.1-4.5,0.6-9,0.5-13.6c-0.1-4.9-0.9-9.7-1.1-14.6c-0.2-4.3,0.1-8.5-0.1-12.8
	c-0.3-6-1-11.9-1.1-17.9c-0.1-4.7,0.5-9.5,0.5-14.2c0-6-0.4-12.1-0.6-18.1c-0.1-5.7,0-11.4-0.1-17.1
	C188.8,321.4,188,320.6,187.3,319.3z M193.3,420.5c0-7.5,0.1-15.8,0-24.2c-0.1-7.9-0.5-15.9-0.6-23.8c-0.1-12.8,0-25.5-0.1-38.3
	c0-3.2-0.3-6.4-0.7-9.6c-0.2-1.5-0.7-3-1-4.5c-0.3,0-0.6,0.1-0.9,0.1C192.3,353.9,190.1,387.7,193.3,420.5z M191.5,458.6
	c-0.3,0-0.6-0.1-0.9-0.1c0,9.7,0,19.4,0,29.1c0.3,0,0.6,0,0.9,0C193.2,478,191,468.3,191.5,458.6z M195.2,320.2
	c-0.2-0.1-0.4-0.3-0.5-0.4c-0.5,0.7-1.3,1.5-1.3,2.2c0.3,5.7,0.9,11.4,1.3,17.1c0.2,0,0.3,0,0.5,0
	C195.2,332.8,195.2,326.5,195.2,320.2z"/>
<path class="st0" d="M837.6,304.7c3.6,6.7,3,14.2,2.3,21.7c-0.5,6.4-2.7,12.1-6.3,17.5c-4.1,6.2-10,10.2-17.1,12.5
	c-5.7,1.9-11.5,3.3-17.3,4.9c-1.7,0.4-2.3,1.1-2.3,2.9c0,6.1-4.4,10-10.7,11.3c-6,1.2-10.4-1.4-15.4-3.5c-5.5-2.4-8.4-7-11.6-11.2
	c-7.7-10.1-14.7-20.7-22.2-31c-5-6.8-9.8-13.8-15.6-19.9c-5.4-5.6-12-10.2-18.2-15.1c-2.6-2.1-5.5-3.9-8.2-5.9
	c-0.3-0.2-0.5-1-0.4-1.2c0.6-0.7,1.2-1.8,2-1.9c8.2-1.7,16.6-3,24.7-5.1c8.2-2.1,16.3-5,24.4-7.7c8.8-2.8,17.7-5.4,26.4-8.7
	c7.1-2.7,14.1-5.9,20.5-9.8c6.6-4,12.6-9.1,18.7-13.8c1.4-1,2.3-2.5,3.6-3.7c2.7-2.6,3.5-2.4,6.2-0.1c3.5,3,7.3,5.7,10.8,8.7
	c3.2,2.6,6.5,5,9.2,8c1.6,1.8,2.1,4.6,2.9,7c2.1,7,4.2,14.1,3.8,21.5c-0.4,6.3-1.8,12.1-6.2,17C840.3,300.7,839.2,302.6,837.6,304.7
	z M789,260.1c3.3,10.3,2.4,20.7-1.6,24c2.6-7.7,2.8-15-0.4-22.5c-1.6,0.7-3,1.5-4.5,2c-2,0.6-2.7,1.7-2.6,3.8c0.2,3,0.2,6.1,0,9.1
	c-0.1,1.9-0.7,3.7-1.1,5.5c-0.3,0-0.6-0.1-0.8-0.1c0.3-5.3,1.8-10.7-1.1-15.8c-2.1,1-4.2,1.9-6.2,2.8c-0.8,4.5,1.1,9.4-2,13.7
	c0-4.4,0-8.5,0-13.4c-2.9,0.9-5.2,1.6-7.8,2.4c0,4.5,0,8.6,0,12.7c-0.2,0-0.5,0-0.7,0c-0.3-3.9-0.7-7.7-1-11.6c-7,0.5-8,1.7-7.2,7.9
	c0.2,1.5-0.4,3.2-0.6,4.7c-0.3,0-0.6-0.1-0.9-0.1c0-1.6,0.2-3.2,0-4.7c-0.2-1.6-0.9-3.2-1.4-4.8c-0.8,0.2-1.4,0.5-2,0.6
	c-2.7,0.4-4.4,1.2-3,4.3c0.5,1.2,0.1,2.7,0.1,4.1c-3.3-7.1-3.3-7.1-9.1-5.1c0,1.9,0,3.8,0,5.7c-2.5-0.9,0.1-5.7-5-4.6
	c-3.9,0.8-2.2,4.1-4,6.1c-0.7-1.7-1.3-3.1-1.7-4.3c-6.9,1.7-13.3,3.4-20.6,5.2c1.2,1,1.9,1.9,2.8,2.3c3.9,1.9,8.1,3.4,11.9,5.6
	c9.8,5.5,19.4,11.4,29.1,16.9c2.4,1.4,5.1,3.6,7.4-0.3c0.1-0.1,0.6,0,1.4,0.1c-0.5,1.6-0.9,3-1.3,4.6c0.9,0.6,1.9,1.2,3.7,2.4
	c1.3-1.6,2.5-3.1,3.8-4.7c-0.3,1.4-0.9,2.6-1.4,3.9c-0.3,1-0.9,2.6-0.5,2.9c1.3,1.2,3,2.5,4.8,0.8c1.8-1.7,3.4-3.6,5.3-5.8
	c0.3,4.2-3.6,5.8-5.7,9.4c2,0.6,3.9,1.8,5.2,1.4c2-0.7,3.7-2.4,5.2-4c1.4-1.4,2.3-3.3,3.4-4.9c-0.2,5.2-5.2,7.3-7.8,11
	c1.9,1.8,3.3,4.5,6.4,2.6c3.5-2.1,6.3-4.8,7.8-8.7c0.4-1.2,0.5-2.4,0.8-3.7c0.3,0.1,0.5,0.2,0.8,0.3c0.3,6.8-5.3,10.2-9.3,14.6
	c3,3.1,5.2,3.7,8.3,1.4c5.3-3.8,10.4-8,11.8-14.8c0.1-0.4,0.8-0.6,1.3-0.9c0.3,0.3,0.6,0.5,1,0.8c-1.9,3.2-3.4,6.7-5.7,9.4
	c-2.3,2.7-5.5,4.6-8.2,7c-0.8,0.7-1.8,2.3-1.5,2.6c0.8,0.9,2.1,1.6,3.3,2c0.5,0.2,1.4-0.2,2-0.5c2.5-1.4,5.2-2.5,7.2-4.4
	c5-4.8,11.7-8.3,12.7-16c0.1-0.4,0.1-0.9,0.2-1.3c0.5,0.4,1,0.9,1.5,1.3c-3,10.9-12.7,16.5-21.8,23.1c1.5,0.7,2.5,1.5,3.5,1.5
	c4-0.2,7.9-1.2,11.1-3.7c0.9-0.7,1.4-1.7,2.3-2.3c7.4-4.6,11.6-11.3,13.8-19.4c0.3-1,0.9-2,1.3-3c-1.6,15-11.7,23.7-24.7,30.6
	c1.6,0.3,2.8,1,3.9,0.7c4.6-1,9.3-1.8,13.5-3.6c3.8-1.6,7.2-4.2,10.3-6.9c7.6-6.7,10.3-15.4,9.5-25.2c-0.2-1.9-1.4-3.7-2-5.2
	c-6.8,2.3-12.8,4.8-19.1,6.4c-3.7,1-7.9,0.4-11.7,1.2c-6.8,1.5-13.4-0.2-20-1.1c-3.5-0.5-7-1.3-10.5-2.1c-8-1.6-16-3.2-24-5
	c-0.8-0.2-1.3-1.2-2-1.8c0.1-0.2,0.3-0.5,0.4-0.7c3.7,0.6,7.3,1.1,11,1.7c6.9,1.1,13.7,2.6,20.6,3.2c7,0.7,14.1,0.9,21.1,0.6
	c7.1-0.3,14-2.2,19.6-6.7c8.8-7.2,13.9-16.6,16.1-27.5c2.8-13.6-3.3-24.1-12.2-33.7c-3.4,1.5-3.4,1.5-1.5,4.1
	c0.2,0.3,0.3,0.7,0.5,1.1c3.3,5.5,5.3,11.5,6.6,17.7c1,4.9,1.3,9.6-0.4,14.4c-0.3,0.9-1.2,1.5-2.1,2.5c0.6-3,1.3-5.2,1.5-7.5
	c0.5-9.3-1.6-17.9-6.7-25.8c-2.5-3.9-3.2-4.1-7.1-1.1c0.6,1.2,1.3,2.4,1.9,3.6c4.3,8.2,5.3,17.1,5,26.1c-0.1,1.9-1.4,3.7-2.2,5.6
	c-0.2-4.5,0.5-8.7,0.4-12.9c-0.3-7-2.2-13.7-5.9-19.7c-0.4-0.7-2.2-0.9-3.3-0.7c-1.5,0.3-2.3,1.2-1.5,3.1c1.3,2.9,2.5,5.9,3,8.9
	c0.8,4.9,1.1,9.9,1.3,14.9c0.1,2.4-1.6,5.4-2.7,5.9c1.5-10.5,1.8-21-4.6-30.7c-2.1,1.4-4,2.6-5.3,3.4c1.1,5.6,2.7,10.9,3.1,16.3
	c0.5,7-1.5,13.1-4.4,15.7c2-6.7,3.7-13.1,2.6-19.8c-0.5-3-1.5-5.9-2.6-8.8c-0.3-0.7-2.1-1.5-2.9-1.3
	C792.3,257.9,790.8,259.1,789,260.1z M779.9,346.6c-4.1,8.1-12.6,7.8-20.6,9.9c9.3,5,17.1,1.4,25.1-1.8c-5,4.5-11.5,5.4-17.7,6.9
	c3,3,7,3.1,10.9,2.7c6.8-0.7,9.8-5.4,7.4-11.5c-0.7-1.8-1.6-3.7-2.7-5.3c-2.7-3.7-5.3-7.4-8.6-10.6c-3.4-3.4-7.5-6.3-11.3-9.3
	c-8.1-6.2-15.9-12.8-24.4-18.5c-6.7-4.5-14-8.1-21.1-12c-3-1.7-6.2-3.2-9.2-4.8c-0.1,0.2-0.3,0.5-0.4,0.7c3.9,3.5,7.8,7,11.7,10.5
	c1.7-0.5,3.5-1,5.3-1.5c0.1,0.4,0.2,0.7,0.3,1.1c-1.4,0.6-2.8,1.2-4.1,1.8c0.9,1,1.7,1.8,2.6,2.8c2.1-1,4.2-2,6.3-2.9
	c0.2,0.4,0.4,0.7,0.5,1.1c-1.8,1-3.7,2.1-5.5,3.2c2.9,4.3,6.3,0,10.4,0.2c-2.5,1.6-4.3,2.8-6.1,3.9c0.8,0.9,1.5,1.8,2.4,2.8
	c2.4-1.1,4.7-2.1,6.9-3.1c0.1,0.2,0.2,0.5,0.3,0.7c-1.9,1.5-3.8,3-5.7,4.5c0.3,0.4,0.5,0.9,0.8,1.3c3.2-1.2,6.3-2.5,10.2-3.9
	c-2.1,3.2-5.2,3.9-8.1,5.3c0.5,0.8,0.9,1.6,1.4,2.4c2.1-0.5,4.2-0.7,6-1.5c1.9-0.8,3.6-2.2,5.4-3.3c-1,4.7-6.3,4.4-9.3,7.3
	c1,0.9,2,2.3,2.7,2.2c4.3-0.8,8.2-2.4,11.4-6.6c0,3.8-2.6,4.7-4.4,5.8c-2,1.2-4.4,1.7-7,2.7c0.9,0.7,1.6,1.6,2.3,1.7
	c5.2,0.7,9.1-1.8,12.8-4.8c-2.4,4.7-7.7,5.2-11.8,7.4c1.1,2.6,2.7,2.9,5.4,2.1c4.3-1.2,8.1-2.9,11.3-6.7c0.1,1,0.3,1.8,0.1,1.9
	c-4.2,2.7-8.5,5.3-12.9,8.2c0.2,1.8,2.1,1.5,3.7,1.3c4.9-0.6,9.5-1.9,11.3-7.2c1.7,1.8,2,2.3,0.3,3.5c-2.8,1.9-6,3.3-9.1,4.9
	c-1.1,0.6-2.2,1-3.3,1.5c0.1,0.3,0.2,0.7,0.3,1c3,1.3,6.2,0.5,8.9-0.8c2.8-1.3,5.2-3.4,8.3-5.4c-2.7,7.5-10.2,6.6-15.8,9.6
	c8.4,3.9,14-1.9,20.5-4.3c-2.4,2.3-5,4.2-7.9,5.5c-2.9,1.3-6,2.1-9.1,3c0.1,0.3,0.2,0.6,0.3,1C765.5,354.1,773.6,353.7,779.9,346.6z
	"/>
<path class="st0" d="M472.8,207.1c-0.4-0.6-1.4-1.4-1.5-2.3c-0.6-4-1.2-8.1-1.2-12.2c0.1-9.3-1.2-18.6,1.1-27.8
	c0.8-3.2,0.3-6.7,1.4-9.7c2.6-7.3,6-14.4,8.7-21.8c1.9-5.2,3.5-10.5,5-15.8c1.3-4.4,2.6-8.9,3.6-13.4c0.9-4.3,1.5-8.6,2-12.9
	c0.4-3.4,0.7-6.8,0.7-10.2c0.1-4.1,0.2-8.3-0.2-12.4c-0.4-4.4-1.1-8.9-1.8-13.3c-0.4-2.3-0.7-4.7-1.7-6.9c-4.1-8.9-1-14,5-19.5
	c6.1-5.7,13.5-9.2,22.4-9c5.4,0.1,10.9-0.8,16.2-0.4c3.6,0.3,7.1,2.3,10.7,3.5c7.1,2.3,13.7,5.8,18.8,11.1
	c6.5,6.8,11.2,14.8,12.2,24.2c0.7,6.3,1,12.7,0.5,19c-0.4,4.5-2,8.8-6.3,12.1c-7.4,5.7-14.1,12.2-21.1,18.2
	c-4.8,4.1-9.8,8-14.5,12.3c-3.9,3.5-7.4,7.4-11,11.2c-6.4,6.7-12.8,13.3-18.9,20.2c-4.7,5.2-9.8,10.3-13.3,16.3
	c-4.7,8-8.3,16.7-12.1,25.2C475.7,197.4,474.5,202.2,472.8,207.1z M523.1,90.9c-0.3-0.2-0.6-0.3-0.9-0.5c0.1-0.7,0.2-1.5,0.4-2.2
	c0.9-3.7-1.3-8.9-4.6-11.2c-3.8-2.6-8.1-3.4-12.4-2.6c-2.8,0.5-5.7,1.9-8,3.6c-0.9,0.7-0.4,3.2-0.5,4.9c-0.1,1.7-1,4-0.2,4.8
	c1,1,3.5,0.6,5.2,1.1c7.4,2.2,11.8,7.6,15.6,13.7c0.3,0.5,0.3,1.4,0.1,2.1c-0.2,0.6-0.8,1.1-1.3,1.7c-0.4-0.5-0.9-1-1.1-1.6
	c-0.5-1.1-0.6-2.6-1.4-3.4c-2.1-2.3-4.3-4.5-6.7-6.5c-3.4-2.8-10.6-1.7-11.5,0.6c-1,2.8-1.4,5.9-2,8.7c7.1,2.8,14.3,4.8,16.2,13
	c-1.7-0.7-3.3-1.6-4.4-2.9c-3.2-3.4-7.2-3.9-11.5-2.9c-2.9,0.7-2.4,3.6-3.2,5.5c-0.4,1-0.8,2-1,2.5c4.3,2.8,8.5,5.5,13.1,8.4
	c-1.3,1.2-2,1.8-3,2.7c-2.1-5-6.2-6.5-10.7-5.1c-2,0.7-3.1,4-4.7,6.1c0.1,0.3,0.3,0.6,0.4,0.9c4.7-0.3,5.9,3.1,7.4,6.4
	c-1.6-0.1-3-0.5-4.4-1c-2.3-0.8-4.7-1.1-6.1,1.3c-1.2,2-3.3,4.4,0.5,6.4c0.9,0.5,1,2.2,1.5,3.4c-1.2,0.4-2.4,1.2-3.5,1.1
	c-2.4-0.2-2.8,1.6-3.2,2.9c-0.2,0.9,0.6,2.3,1.3,3.1c1,1.1,2.3,1.8,3.5,2.7c-0.1,0.2-0.1,0.5-0.2,0.7c-2,0.2-4,0.4-5.9,0.5
	c-0.3,2.8-0.6,5.3-0.9,7.9c1.9,0.6,3.6,1.2,5.2,1.7c-1,3.5-6.6,3.2-5.8,7.7c0.6,3.3,0.5,6.6,0.7,10c1-0.6,1.5-1.3,1.9-2.1
	c2.8-5.8,4.8-12.2,8.6-17.3c7.1-9.7,15-19,23.2-28c7.3-8,15.5-15.2,23.3-22.7c1.2-1.2,2-2.9,3.5-3.8c6.6-4.1,8.8-11.2,12.3-17.2
	c3-5.2,4.7-11.4,5.5-17.4c0.9-6.5,1-13.1-0.6-19.7c-1.5-6.3-5-11.3-8.7-16.1c-3.8-5.1-9-9-16.4-8.2c-3.2,0.3-6.3,0.6-9.5,1.2
	c-10.1,2-17.9,11.5-18.7,18.8c1-0.2,2-0.6,3-0.6c6.4-0.1,12.9-0.4,19.2,0.1c7.5,0.6,14,3.4,18.8,9.3c5.8,7.2,6.4,14.8,2.3,23
	c-0.4-1.3-1.1-2.4-1-3.6c0.1-2.7,1.3-5.5,0.9-8.1c-1.2-8.1-6.3-13.6-14-16.5c-10.1-3.8-19.8-1.9-29,3.1c-0.8,0.5-1.7,1.6-1.8,2.5
	c-0.3,2.3-0.1,4.6-0.1,7c0.7,0.1,1.1,0.2,1.4,0.2c5.5-0.8,10.9-0.2,16.1,1.3c2.4,0.7,4.7,2.3,6.5,4c3.3,3.3,2.6,7.9,3.2,12.1
	C525,89.3,523.7,90.2,523.1,90.9z"/>
<path class="st0" d="M282.6,453.3c0-6.7,0.1-13.4,0-20.1c-0.4-17.4-0.9-34.9-1.2-52.3c-0.1-5.2,0.6-10.4,0.5-15.7
	c-0.3-17.9-0.8-35.7-1.2-53.6c0-0.8-0.5-1.5-0.5-2.3c-0.2-2-0.4-3.8,2.1-5.1c1.9-0.9,3.6-2.4,4.9-4.1c3.5-4.4,8.3-5.4,13.6-6.3
	c5.6-1,9.8,1.8,14.5,3.4c3.8,1.3,7.6,3,11.3,4.6c0.8,0.4,1.9,1.4,1.9,2.1c-0.3,6.6-0.8,13.2-1.1,19.8c-0.1,3.1,0.2,6.2,0.3,9.3
	c0.1,2,0.2,4,0.2,6c-0.2,8.3,0.2,16.6-0.8,24.7c-0.9,6.7-0.8,13.4-1.1,20.1c-0.4,9.9-0.7,19.9-1.3,29.8c-0.5,7.5-1.6,14.9-2.1,22.3
	c-0.4,5.3-0.2,10.5-0.4,15.8c-0.1,2.5-0.4,5-0.6,7.5c-0.4,5-0.9,10-1.2,14.9c-0.3,3.4-0.4,6.8-0.6,10.2c0,0.4,0,1-0.2,1.1
	c-4.4,2-6.7,7.6-12.8,7c-2.7-0.3-5.6,0.1-8.3,0.6c-4.4,0.9-7.9-1.6-11.8-2.8c-2.8-0.9-4.5-6-4.3-9c0.4-4,0.1-8.1,0.1-12.2
	c0-5.3,0-10.6,0-15.9C282.5,453.3,282.5,453.3,282.6,453.3z M283.2,308.7c-0.2,0.2-0.5,0.4-0.7,0.7c0.2,2.5,0.7,4.9,0.7,7.4
	c0,5.2-0.6,10.4-0.4,15.6c0.2,9.1,0.9,18.1,1.1,27.2c0.1,6.6-0.6,13.3-0.5,19.9c0.2,14.8,0.8,29.6,1.2,44.4c0.1,6.2-0.1,12.4,0,18.6
	c0.1,6.7,0.5,13.5,0.6,20.2c0,5,0,10.1-0.7,15.1c-0.8,5.9,4,7.8,7.4,11.6c-0.2-2.2-0.4-3.5-0.4-4.8c0.1-3.1,0.5-6.3,0.6-9.4
	c0.3-11.2,0.4-22.4,0.7-33.5c0.1-3.9,0.4-7.8,0.7-11.7c0.3-4.5,1-8.9,1.1-13.4c0.1-4.7-0.5-9.4-0.5-14.1c0-2.7,0.5-5.4,0.5-8.1
	c0.1-4.2-0.2-8.3-0.2-12.5c0-5.1,0.1-10.3,0.2-15.4c0.1-3.7,0-7.4,0.2-11c0.2-3.9,1-7.7,1-11.6c-0.1-7.2-0.6-14.4-1.3-21.6
	c-0.3-3.2,0.4-7.1-3.6-9.1C288.2,311.8,285.7,310.2,283.2,308.7z M306.9,443.8c0.2,0,0.4,0,0.6,0c0.3-1.9,0.8-3.7,0.9-5.6
	c0.7-11.5,1.3-23,1.9-34.5c0.2-3.6,0-7.1,0.2-10.7c0.7-10.4,1.7-20.7,2.2-31.1c0.3-5-0.2-10.1-0.3-15.2c0-2.7,0.3-5.3,0.3-8
	c-0.1-4.8-0.4-9.6-0.5-14.4c-0.1-3,0-6,0-9c-0.4,0-0.8,0-1.2,0c0,13.5-0.3,27-1.9,40.5c-0.6-1-0.6-2-0.6-3c0.2-3.5,0.5-7.1,0.6-10.6
	c0.2-6.6-0.1-13.2,0.5-19.8c0.6-7,0.4-7.5-6.7-7.1c-0.2,0-0.3,0.2-0.5,0.3c-0.3,0-0.6,0-0.8,0c0,8.5,0.1,16.9,0,25.3
	c-0.1,5.3-0.5,10.6-0.6,16c-0.1,4,0,7.9,0,11.9c-0.2,8.1-0.4,16.1-0.6,24.2c-0.2,6-0.5,12.1-0.6,18.1c-0.3,10.8-0.4,21.6-0.7,32.3
	c-0.1,4-0.4,8-0.6,12c-0.2,3-0.5,6-0.6,9c-0.3,7.9-0.4,15.9-0.6,23.8c-0.1,3.3,2.8,2,4.4,2.2c0.5,0,1.7-1.5,1.8-2.3
	c0.2-4.5,0.1-8.9,0.1-13.4c0-3.2-0.1-6.5,0.1-9.7c0.4-5.1,1.4-10.1,1.7-15.1c0.3-5.1,0.1-10.1,0-15.2c-0.1-3.3-0.7-6.6-0.5-9.9
	c0.4-6.7,1.4-13.3,1.8-20c0.6-9.2,0.9-18.4,1.2-27.6c0.2-6.6,0.4-13.1,0.5-19.7c1,0.4,1.4,0.8,1.4,1.3c-0.1,2.3-0.5,4.6-0.6,6.9
	c-0.5,10.7-0.9,21.3-1.2,32c-0.2,5.3,0,10.6-0.1,15.9c-0.1,5.6-0.6,11.3-0.7,16.9C306.8,434.9,306.9,439.4,306.9,443.8z
	 M301.1,315.9c-4.1,0.1-4.7,0.6-4.6,3.8c0.1,3.5,0.6,7,0.6,10.5c-0.1,13-0.3,26.1-0.6,39.1c-0.1,6.3-0.6,12.7-0.6,19
	c0,7.5,0.6,14.9,0.5,22.4c-0.1,9.5-0.7,19.1-1.2,28.6c-0.3,6.2-1,12.3-1.2,18.5c-0.4,10.3-0.5,20.6-0.6,30.9c0,0.7,0.6,1.3,0.9,2
	c0.3-0.1,0.6-0.2,1-0.3c0-1.2,0-2.4,0-3.6c0-7.3-0.3-14.6,0.1-21.8c0.6-13.2,1.7-26.5,2.4-39.7c0.3-4.6-0.2-9.3,0.1-13.9
	c0.4-7.8,1.5-15.6,1.7-23.4c0.3-12.4,0.1-24.8,0.1-37.1c0-4.1-0.1-8.2,0.1-12.2C300,331.2,300.6,323.7,301.1,315.9z M324.3,303.5
	c-8.3-4-16.2-7.6-25.3-6.5c-2,0.2-4.7-0.4-6,0.5c-2.9,2.1-5.1,5-7.6,7.5c-1.4,1.4-0.7,2.5,0.6,3.2c4.4,2.6,8.7,5.8,14.4,4.6
	c1.2-0.2,2.5-0.2,3.8,0C312.8,313.8,318.1,308,324.3,303.5z M307.1,455.5c-1.7,11.5-3.1,22.9-1.9,34.4c0.6,0.4,1.1,0.8,1.7,1.3
	c0.2-0.8,0.6-1.7,0.7-2.5c0.1-3,0.2-6.1,0.1-9.1c0-1.6-0.5-3.1-0.6-4.7C307.1,468.3,307.1,461.9,307.1,455.5z"/>
<path class="st0" d="M885.1,325c-0.1-5.8,3-9.1,6.8-11.5c2.8-1.8,3.7-2.8,1.6-5.8c-5.6-8.4-3.4-16.7,0.9-25
	c3-5.7,7.2-10.3,12.6-13.8c1.8-1.2,3.9-2.2,6-2.8c4.4-1.2,8.9-2.2,13.4-3c1.9-0.3,3.9,0.4,5.8,0.5c1.1,0,2.5,0,3.2-0.6
	c5.5-4.5,11.6-8,18.5-9.6c4.2-0.9,8.6-1.1,12.9-1.3c8.2-0.4,15.7,2.2,22.2,6.7c5.1,3.6,10.4,7.7,10.8,14.6c0.1,1.6-0.8,3.4-1.7,4.9
	c-2.7,4.6-6,9-8.4,13.7c-3.4,6.6-6.5,13.4-9.3,20.3c-2.4,5.8-4.5,11.8-6.1,17.9c-1,3.8-1,7.9-1.4,11.9c-0.3,3-0.8,6-0.6,9
	c0.5,5.5,0.3,11.2,2.5,16.5c0.3,0.8,0.6,1.8,0.5,2.6c-0.2,1.5-1.3,2.3-2.8,1.3c-8.3-5.2-17.6-8.1-26.8-11.4
	c-12.7-4.7-26.2-6.4-38.9-10.6c-9.6-3.1-18.3-8.4-21-19.1C885.5,328.4,885.3,326.3,885.1,325z M980.3,307
	c-4.9-4.4-10.7-6.2-16.8-7.6c-2.8-0.6-5.7-1-8.6-1.4c0-0.3,0-0.7,0-1c1-0.4,2.1-1.2,2.9-1c7.4,1.5,14.8,2.8,21.5,6.5
	c0.6,0.3,2.4-0.2,2.8-0.8c1-1.8,1.6-3.8,2.4-6c-2.4-1.9-4.7-3.8-7.1-5.4c-4.9-3.3-10.4-5.1-16.2-6.2c-0.7-0.1-1.3-1.2-1.9-1.8
	c0.9-0.2,1.7-0.6,2.6-0.7c0.6-0.1,1.2,0.3,1.8,0.5c7,2.7,14,5.5,21,8.2c0.7,0.3,2.3,0.2,2.6-0.2c1.4-2,2.1-4,0.6-6.6
	c-2.5-4.2-6.2-7.2-10.4-9.5c-3.6-2-7.4-3.9-11.3-5.1c-2.6-0.8-5.6-0.2-8.4-0.5c-0.7-0.1-1.4-0.8-2.1-1.2c0.6-0.6,1.1-1.3,1.8-1.6
	c0.5-0.3,1.2-0.1,1.9-0.1c6.8,0,12.9,2.3,18.6,5.5c4.8,2.7,9.3,5.8,14.3,8.9c0.3-2.8,0.4-5.6,0.8-8.3c0.6-4.2-1.1-7.4-4.4-10
	c-4.6-3.6-9.8-5.4-15.5-6.7c-5-1.1-9.3,0.4-13.7,1.8c-2.2,0.7-4.4,1.6-6.2,3c-10,7.6-13.7,17.9-12.5,29.9c0.2,2.6,0.7,5.1,1.2,7.6
	c0.8,4.3,1.5,8.6,2.7,12.7c1,3.5,2.7,6.8,3.9,10.2c0.3,0.7-0.4,1.8-0.6,2.7c-0.5-0.6-1.2-1.2-1.6-1.9c-0.3-0.5-0.5-1.1-0.7-1.7
	c-2.5-6.7-4.8-13.4-7.6-20c-1.7-3.9-3.7-7.8-6.2-11.2c-2.9-4.1-7.2-5-11.7-3.1c-5.5,2.3-9.8,6.2-13.4,10.7
	c-3.2,4.1-5.2,8.7-4.5,14.1c5.2,1.5,6,1.2,8.6-3.2c0.1-0.2,0.3-0.3,0.4-0.4c3.5-6.3,9.3-10.1,15.2-14.1c1.3,1.5,1.7,2.8-0.5,3.8
	c-4.4,1.9-6.4,5.8-7.9,9.7c-2.4,6.2-2.2,6.3,3.5,9c1.8,0.9,3,0.7,4.1-1.1c1.5-2.4,3.1-4.7,4.7-7c0.5,0.2,0.9,0.4,1.4,0.7
	c-0.4,1-0.6,2.2-1.2,2.9c-3.9,4.2-3.9,6.1-0.2,9.4c3.1,2.7,4.8,2.4,6.9-1.1c0.6-1.1,1.7-1.9,2.5-2.9c0.4,0.3,0.8,0.6,1.2,0.8
	c-0.5,0.7-1,1.5-1.4,2.2c-1,2-3.6,3.8-1.7,6.3c1.9,2.4,4.1,4.5,6.2,6.7c1-1.3,1.9-2.5,2.7-3.7c0.4,0.1,0.7,0.1,1,0.2
	c-0.1,1,0.2,2.3-0.3,3c-1.8,2.5-0.5,4.4,0.9,6.4c0.8,1.1,1.5,2.2,2.2,3.3c0.3-0.3,0.5-0.6,0.8-0.8c1.2-0.8,2.4-1.5,3.6-2.3
	c0.3,0.2,0.5,0.4,0.8,0.5c-0.3,1-0.6,1.9-0.8,2.9c-0.1,1.1-0.5,2.7,0.1,3.3c4.7,4.6,9.6,9,14.5,13.4c0.3-0.2,0.5-0.4,0.8-0.6
	c-0.2-2.2-0.6-4.3-0.7-6.5c-0.1-4.4-0.1-4.3-4.7-5.2c-0.8-0.2-1.5-1-2.3-1.5c1-0.3,2-0.8,2.9-0.8c1.5,0,2.9,0.4,4.4,0.6
	c0.6-7.3,0.6-7.3-7.2-8.9c0.7-2.4,0.9-2.4,4-1.6c1.5,0.4,3.5,2.1,4.6-0.8c1.4-3.9,1.1-5-2.6-6.1c-3.8-1.2-7.7-2.2-12.5-3.6
	c1.4-0.6,2.5-1.5,3.3-1.4c3,0.6,6,1.3,8.9,2.4c3.8,1.3,4.5,1,6.4-4.2c1-2.8-1.5-3.6-3.2-4.2c-4.3-1.5-8.8-2.5-13.2-3.8
	c-0.7-0.2-1.3-0.9-2-1.4c0.9-0.2,1.8-0.8,2.5-0.6c5.7,1.5,11.3,3.2,17.3,5C977.3,312.2,978.7,309.8,980.3,307z M931.6,336
	c0.8,13.4-0.4,14,4.6,17.1c0.6-2.8,1.3-5.6,1.9-8.5c0.3,0.1,0.6,0.1,0.9,0.2c0.6,4.3-0.7,9.4,5.9,11.5c-0.2-2-0.4-3.4-0.6-5
	c1.1,0,2,0,2.9,0c1.2,6.3,4.4,9.1,9.8,8.6c-0.3-0.7-0.5-1.3-0.8-1.8c-2.7-4-5.2-8.2-8.2-12c-5.5-7-11.2-14-17-20.7
	c-1.8-2.1-4.2-3.8-6.7-5.3c-4.9-2.8-9.8-4.3-15-1.1c-4.6,2.8-5.2,7.6-5.8,12.2c-0.8,6.3,2.6,10.9,7.6,15.6c-0.3-1.6-0.4-2.3-0.5-3.1
	c-0.7-4.7-2-9.4-1.9-14.1c0.1-2.7,2.1-5.7,3.9-8c1.1-1.5,3.3-1.4,5,0.7c-4.7,0.6-4.8,0.6-6,4.9c-1.7,6.1-0.2,11.8,2.9,17.3
	c1.3,2.4,2.7,4.8,6.1,5.4c-4.6-8-4.7-19.6-0.7-22.1c0,2.9-0.5,6,0.1,9c0.6,2.9,2,5.8,3.5,8.4c1.4,2.6,3.4,4.9,5.1,7.3
	C929.8,346.5,927.2,340.7,931.6,336z"/>
<path class="st0" d="M99.7,354.7c0.4,6.4,0.7,11.4,0.9,16.5c0.2,4.2,0.3,8.3,0.2,12.5c-0.1,4.3-0.6,8.6-0.5,12.9
	c0.2,6.5,0.9,13.1,1.2,19.6c0.3,9.3,0.4,18.5,0.7,27.8c0.1,3.7,0.8,7.4,1.3,11.1c0.2,1.7,0.4,3.4,0.5,5.1c0.4,6.4,0.8,12.8,1.3,19.2
	c0.1,1.6,0.9,3.2,1,4.9c0.1,1.1-0.2,2.7-0.9,3.2c-3.6,2.6-7.4,4.9-11.2,7.3c-0.4,0.3-1.1,0.3-1.7,0.3c-4.9-0.2-10-1.1-14.7,0.5
	c-4.6,1.6-7-0.7-9.5-3.8c-1.4-1.8-3.4-3.3-5.4-4.5c-2.9-1.8-2-4.6-2.1-7c-0.6-7.9-0.9-15.8-1.2-23.8c-0.1-3-0.1-6-0.2-9
	c-0.4-13.4-0.8-26.8-1-40.2c-0.1-5.6,0.2-11.2,0.4-16.9c0.3-6.9,1.2-13.8,1-20.7c-0.4-10.3,4.9-19,7.5-28.4
	c1.3-4.8,2.3-9.6,3.4-14.4c0.8-3.7,1.4-7.4,2.2-11.5c0.3,0.1,1.5,0.1,1.9,0.7c1.5,2.4,2.7,4.9,4.1,7.4c4.3,7.9,8.6,15.8,13.1,23.6
	c1.2,2,2.8,3.8,4.1,5.8c0.4,0.6,0.4,1.3,0.5,2c-0.7-0.2-1.8-0.3-2.2-0.8c-2.7-3.6-5.2-7.3-8-10.9c-2-2.5-4.2-4.9-6.6-7.1
	c0.4,8.1,4.3,15.4,4.6,23.3c-3.9-9.2-6.1-18.9-10.4-27.9c-0.4,0.1-0.8,0.2-1.3,0.3c-0.7,5.1-1.6,10.1-2,15.2
	c-0.3,4.9,0.1,9.7-0.1,14.6c-0.1,3.2,2.2,4,4.5,5c1.9,0.9,3.6,0.4,4.8-1.4c0.9-1.3,1.7-2.6,2.8-3.7c0.6-0.5,2-1,2.6-0.7
	c3.8,2.1,8.3,1,10.5-2.6C96.5,356.9,98,356.1,99.7,354.7z M68.3,363.6c-1.9,0.6-3.6,1.1-5.3,1.8c-0.6,0.2-1.2,1-1.2,1.5
	c-0.4,5.2-1.1,10.3-1.1,15.5c0,15.9,0.3,31.9,0.6,47.8c0.3,12,0.8,24.1,1.2,36.1c0.1,3.7,0.8,7.5,0.5,11.2
	c-0.4,4.5,1.4,7.7,4.7,10.5c0.6,0.5,1.1,1.2,1.8,1.7c0.8,0.6,1.7,1,2.6,1.4c0.4-1,1.1-1.9,1.1-2.9c0.1-4.2,0.2-8.3,0-12.5
	c-0.3-8.4-0.8-16.8-1.2-25.2c-0.6-12.2-1.4-24.4-1.9-36.6c-0.4-10-0.5-19.9-0.7-29.9c0-2.5,0-5.1,0-7.6c0-1,0-2-0.1-3
	C69,370.2,68.7,367.1,68.3,363.6z M71.3,371.1c-0.2,0-0.3,0-0.5,0c0,0.8-0.2,1.6-0.1,2.3c0.4,12.1,0.8,24.1,1.3,36.2
	c0.3,7.9,0.9,15.7,1.2,23.5c0.5,9.6,0.9,19.3,1.3,28.9c0.1,3.3,0,6.7,0.2,10c0.3,5.2,0.7,10.4,1.1,15.6c0.1,1.5,0.5,3.1,0.7,4.6
	c0.3,0,0.5,0,0.8,0c0-2.6,0-5.2,0-7.8c0-3.8-0.2-7.5-0.2-11.3c0-1.8,0.6-3.6,0.5-5.3c-0.5-7-1.2-13.9-1.7-20.9
	c-0.5-6.6-1-13.3-1.2-19.9c-0.3-8.7-0.5-17.4-0.6-26.2c-0.1-10.4,0-20.9,0-31.3c0-0.7-0.2-1.4-0.3-2.1c-0.4,0-0.7,0-1.1,0
	c0,5.4,0,10.8,0,16.2c-0.4,0-0.7,0-1.1-0.1C71.3,379.5,71.3,375.3,71.3,371.1z M84.3,365.3c-0.2,0-0.4,0-0.6-0.1c-0.1,1-0.4,2-0.4,3
	c0.2,8.2,0.4,16.4,0.6,24.7c0,1.4-0.3,2.9-0.3,4.3c0.3,6.2,0.5,12.4,0.9,18.6c0.6,8.8,1.2,17.5,1.9,26.3c0.2,2.1,0.5,4.2,0.6,6.2
	c0.3,5.3,0.5,10.6,0.9,16c0.3,4.7,0.8,9.4,1,14.1c0.2,3.9,0,7.8,0.1,11.7c0,0.7,0.5,1.5,1.1,2.9c0.4-1.4,0.7-1.9,0.7-2.4
	c-0.2-3.3-0.5-6.5-0.6-9.8c-0.1-3.4,0.1-6.7-0.1-10.1c-0.2-3.6-0.9-7.1-1.1-10.7c-0.3-4.1-0.5-8.2-0.6-12.3c-0.1-3,0.1-6.1-0.1-9.1
	c-0.3-4.8-0.9-9.6-1.2-14.4c-0.7-14.5-1.3-29.1-1.9-43.6C84.9,375.4,84.6,370.4,84.3,365.3z M79.3,368.2c-0.4-0.1-0.9-0.2-1.3-0.2
	c-0.2,1.8-0.5,3.6-0.5,5.4c0.1,4.6,0.5,9.2,0.6,13.8c0.1,6.8-0.1,13.5,0.1,20.3c0.5,12.7,1.2,25.3,1.8,38c0.1,2.3,0.4,4.7,0.7,7
	c0.6-5.7,1.3-11.4,1.1-17.1c-0.3-7.8-1.3-15.5-1.7-23.3c-0.3-4.8,0-9.6-0.1-14.3C79.9,387.8,79.6,378,79.3,368.2z M85.2,491.7
	c0.3,0,0.5,0.1,0.8,0.1c0.1-0.4,0.4-0.9,0.4-1.3c0-5.9,0-11.9,0-17.8c0-4,0.2-7.9-0.1-11.9c-0.4-6.5-1.2-12.9-1.8-19.3
	c-0.1-0.8-0.2-1.6-0.3-2.4c-0.3,0-0.6,0.1-0.9,0.1C82.5,456.7,84.5,474.2,85.2,491.7z M78.1,444.5c0-5.2,0.1-9.7,0-14.3
	c-0.3-8.6-0.8-17.2-1.1-25.8c-0.2-4.7,0-9.5,0-14.3c0-1.4-0.3-2.8-0.4-4.2C75.1,405.4,74.9,424.6,78.1,444.5z M68.8,343
	c-3.1,7-6.4,13.7-7.1,21.8c1.4-0.7,2.1-1.2,2.9-1.4c3.6-0.6,3.7-2.9,3.6-5.7c0-3.8,0.4-7.6,0.6-11.4C68.9,345.1,68.8,344.1,68.8,343
	z M78.9,447.2c-0.4,0-0.7,0-1.1,0c0,3.1-0.1,6.2,0,9.2c0.2,4,0.8,8,0.9,12c0.2,7.5,0.1,15,0.2,22.4c0,0.5,0.7,1.1,1.1,1.6
	c0.2-0.1,0.5-0.2,0.7-0.3C80.1,477.2,79.5,462.2,78.9,447.2z"/>
<path class="st0" d="M107.9,133.6c0.7-0.6,1.3-1.6,2-1.6c8.2-0.1,16.4-0.3,24.6,0c4.8,0.2,8.1-1.4,11.2-5.7c2.3-3.2,5.4-5.8,7.9-8.7
	c5.7-6.6,9-14.3,11.6-22.4c1.8-5.6,11.8-9.3,17-6.4c1.4,0.8,2.7,2.5,3.4,4c2.1,4.5,2.2,4.6,6.7,2.9c1.8-0.7,3.7-1.2,5.5-1.8
	c3.5-1,5.6,0.4,5.5,4c-0.1,1.9-0.3,3.8-0.7,5.6c-0.4,1.7,0.2,2.2,1.9,2.4c3.9,0.5,7.7,1.1,11.5,1.8c4.1,0.8,5.8,4.9,4,8.5
	c-2.9,5.8-8.3,8.9-14,11.4c-9.7,4.3-20.2,5.6-30.7,6.8c-5.8,0.6-11.6,1.5-17.4,2.5c-0.7,0.1-1.6,1.2-1.7,2
	c-0.6,4.1-1.1,8.2-1.3,12.3c-0.2,5.7,0,11.5-0.1,17.2c-0.1,5.7-0.6,11.4-0.5,17.2c0.1,6,0.4,12.1,1.2,18.1
	c1.2,8.6,2.7,17.2,4.5,25.8c0.5,2.4,2.2,4.6,3.2,6.9c0.4,1,0.9,2.5,0.4,3.4c-1.9,4.3-4.2,8.5-6.3,12.8c-2.5,5.1-5,10.3-7.6,15.4
	c-0.6,1.2-1.6,2.1-2.1,2.7c-6.9-0.9-13.4-1.9-20-2.7c-4.2-0.5-8.4-0.9-12.6-1.2c-1.1-0.1-2.2,0.5-3.3,0.5c-2.4-0.1-4.7-0.4-7.1-0.5
	c-1.3-0.1-2.5-0.2-3.8,0c-1,0.1-2.5,1.2-2.9,0.9c-1.5-1.2-3.2-2.6-3.9-4.3c-3.2-6.8-5.8-13.7-9-20.4c-1.9-4-4.6-7.7-6.7-11.3
	c2.2-8,4.7-16,6.6-24.2c0.7-3.1-0.2-6.6,0.3-9.8c0.5-3.1,1.8-6.2,2.8-9.2c0.8-2.5,1.7-5,2.7-7.5c0.5-1.4,1.2-2.7,1.9-4.3
	c-1.1,0.3-2.2,0.7-3.3,1c-0.4-1.4-0.7-2.6-1-4.1c0.8-0.1,1.5-0.3,2.2-0.3c3.9,0.2,5.2-2.4,6-5.3c3-11.1,6-22.1,8.9-33.2
	C105.7,132.7,106.9,133.4,107.9,133.6c-3.3,12.4-6.6,24.8-10,37.3c0.3,0.2,0.6,0.5,0.9,0.7c4.4-1.1,8.7-2.3,13.1-3.4
	c0.4,2,0.2,3.1-1.9,3.2c-1.7,0.1-3.5,0.3-5.2,0.6c-6.2,1-8.1,2.6-9.1,7.2c3.3,0.2,6.7,0,9.8,0.8c3.9,1,6.9,2.5,11.5,0.3
	c5.7-2.7,11.6,1,13.2,7.2c1,4.1,0.6,8.6,0.8,12.9c0.2,4.1-2.2,7-5.2,9.2c-5.6,4.1-11.3,3.2-17.1-2.2c-4,5.7-13.5,7.1-20.4,3
	c-1.8,7.2-3.7,14.3-5.6,21.7c1.6,0,3.2,0.1,4.7,0c7.2-0.6,14.4-1.4,21.6-1.7c5.5-0.2,11,0.3,16.5,0.5c2.7,0.1,5.4,0.4,8,0.6
	c8.2,0.7,16.5,1.4,25.2,2.2c-0.7-2-1.4-3.4-1.7-4.8c-1.1-4.5-2.4-9-3.2-13.6c-0.6-3.5-0.6-7.2-0.8-10.7c-0.4-6.8-0.9-13.6-0.9-20.5
	c0-7.7,0.6-15.4,0.9-23.2c0.2-4.9,0.4-9.8,0.6-14.7c0.1-2.9,0.4-5.7,0.6-9c-5.7-1-11.2-2.3-16.7-2.8c-6.2-0.6-12.5-0.5-18.7-0.7
	C115.2,133.7,111.6,133.7,107.9,133.6z M95.5,261.5c0.9-1.2,1.6-2.6,2.8-3.6c1.6-1.3,3.6-2.2,5.2-3.5c0.6-0.5,0.7-1.6,1.1-2.4
	c-0.3-0.2-0.5-0.3-0.8-0.5c-1.6,0.9-3.3,1.8-4.9,2.7C94.5,256.6,94.5,256.5,95.5,261.5c1,2.4,2,2.6,4.2,0.7c2.1-1.9,4.8-3.1,7.3-4.6
	c-1.5-2-1.5-2.1-3.5-0.9C100.8,258.2,98.2,259.9,95.5,261.5z M166.8,99.3c1.6,0.5,3,1,4.4,1.4c-2.5,1.1-5.6,0.4-6.6,3.5
	c1.8,0.5,3.5,1,5.1,1.5c-2.8,0.9-5.9,0.1-7.4,3.3c1.8,0.4,3.4,0.8,5.1,1.2c0,0.3,0,0.6,0,1c-4.3-1.1-7.3,0.6-9.4,3.6
	c1.6,0.5,3,1,4.5,1.5c-0.1,0.2-0.2,0.5-0.3,0.7c-4.2-0.5-6.5,0.4-7.6,2.8c1.7,1,3.4,2,5,3c-6.9-1.4-6.9-1.4-10,3.4
	c1.3,0.4,2.6,0.8,4.8,1.5c-7.7,1.4-7.7,1.4-9.8,5c2.3,0.4,4.4,1.2,6.3,0.9c7.2-1.2,14.1-3.5,20.2-7.4c0.2-0.1,0.3-0.5,0.5-0.6
	c-0.7-0.4-1.4-0.8-2.6-1.4c3.1-0.5,5.7-1,8.9-1.6c-1.4-1-1.9-1.4-2.5-1.7c0.2-0.4,0.4-0.7,0.6-1.1c1,0.3,2.2,1.1,3.1,0.8
	c1.1-0.3,1.8-1.5,3-2.7c-1.6-0.5-2.5-0.8-3.7-1.2c2.6-1.7,6.6,1.6,7.8-2.7c-1.2-0.6-2.4-1.1-3.6-1.7c0.1-0.3,0.2-0.5,0.3-0.8
	c1.7,0.3,3.5,0.7,5.5,1c0.4-0.5,1.1-1.2,2-2.2c-1.2-0.2-2-0.4-3-0.6c1.2-2.8,5.9,1.7,5.7-3c-1-0.3-2-0.7-3-1
	c0.1-0.4,0.1-0.7,0.2-1.1c1.6,0.2,3.3,0.4,5.6,0.7c0.3-0.8,0.8-2.1,1.3-3.4c-5-1.3-9,0.4-12,2.9c-6,5.1-11.4,10.9-17.1,16.4
	c-0.8,0.7-1.8,1.2-2.7,1.8c-0.3-0.3-0.6-0.6-0.9-0.9c0.6-0.9,1.1-2,1.8-2.8c3.5-3.5,7.3-6.7,10.5-10.4c2.1-2.4,4.3-4.9,4.5-8.5
	c0.3-4-1.7-6.7-6.7-8.4c-2.4-0.8-6,1.3-7.3,3.9c2.7,0.2,5.5,0.5,8.2,0.8c0,0.4,0,0.8,0,1.2C172.6,97.5,169.4,96.6,166.8,99.3z
	 M87,198.7c0,0.4,0,0.8,0,1.2c0.6,4.5,1.9,8.9,6.6,10.6c3.6,1.3,7.9,0.2,10.7-2.3c5.5-5,8.7-11.3,6.5-18.7c-2.1-7.3-8.1-10.3-15.5-6
	C89.6,186.9,87.5,192.4,87,198.7z M120.4,181.9c-1.7,0.5-3.7,0.8-5.2,1.7c-1.3,0.8-3.1,2.7-2.8,3.5c1.9,5.3,0.5,10.1-1.3,15
	c-1.5,3.9,0.1,6.1,4.1,7.5c5.2,1.7,12.2-1.5,13.2-7.4c0.7-4.5,0.5-9.2-0.2-13.7C127.6,184.4,124.4,182.3,120.4,181.9z M191.3,121.7
	c0.3,0.1,0.6,0.1,0.9,0.2c-0.8,2-1.7,4.1-2.5,6.3c3.2,0.5,5-1.7,6.3-3.6c0.8-1.3,0.2-3.4,0.2-5.4c0.4,0.3,1.5,0.8,1.5,1.3
	c0.1,2.2-0.2,4.3-0.3,6.5c3.5,0.2,3.2-4,5.9-5.7c-0.1,1.5-0.3,2.7-0.4,3.8c0.3,0.2,0.6,0.3,0.9,0.5c1.3-1.3,3.2-2.5,3.6-4.1
	c0.4-1.7-0.5-3.8-0.8-5.6c3.5,0.8,2.1,4.2,2.8,7.4c1-1.8,1.6-2.9,2.3-4.1c1.6-2.9,0.7-6.1-2.1-7.8c-4.2-2.4-11.1-2.1-14.8,0.7
	c-5,3.7-9.6,8-15.1,11c-2.9,1.6-5.3,3.9-8.1,6c6,1.5,9.1-2,12-6.1c0.3,0.3,0.5,0.5,0.8,0.8c-1.1,1.8-2.1,3.6-3.3,5.4
	C186,129.7,188.6,127.7,191.3,121.7z M116.1,258.9c1.3-4.9,1.8-8.8,0-12.7c-0.1-0.3,0.6-1,1-1.5c1,4.9,0.8,9.6,2.2,14
	c0.3,0,0.6-0.1,0.9-0.1c0.1-2.6,0.3-5.1,0.4-7.7c0.3,0,0.7,0,1,0c0,1.7-0.1,3.4,0,5.1c0.1,1.5-1,3.9,2.5,3.9c0-3,0-6,0-8.9
	c0.6,2.6,0.8,5.1,1.3,7.7c0.1,0.7,1,1.2,1.5,1.9c0.3-0.7,0.9-1.3,1-2c0.4-3.5,0.6-7,0.9-10.6c0.1,0,0.2,0,0.3,0
	c0.2,4.2,0.5,8.4,0.7,12.5c0.5,0.1,0.9,0.1,1.4,0.2c0.8-1.5,1.9-3,2.3-4.6c0.6-2.5,1.1-5,1.2-7.6c0.2-4.2-1-5.4-5.6-5.4
	c-4.4,0-8.8,0.1-13.1,0.7c-5.5,0.7-6.3,1.9-6.3,7.4c0,0.5,0,1,0,1.5c-0.2,2.5,0.9,3.9,4,4.2c0-2.2,0-4.4,0-6.5
	C115.8,252.7,113.3,256,116.1,258.9z M89.9,243.4c-0.3-0.2-0.6-0.5-0.9-0.7c0.5-0.6,1-1.3,1.6-1.7c3.7-2.1,7.4-4.2,11.1-6.3
	c-5.6,0-9.7,2.8-13.5,6.3c-0.3,0.3-0.5,1.2-0.3,1.6c1.1,2.2,2.3,4.3,3.3,6.1c4.2-2.4,8.2-4.8,12.3-7c4.2-2.2,8.5-4.2,13-6.4
	c-6.7-1.7-11.1,2.5-15.9,4.9c-2.7,1.4-6.3,2.3-7.3,6c-0.1,0.3-1.4,0.2-2.1,0.3c4.5-5.7,11-8.5,17.3-11.9
	C105.1,234.6,94.7,238.9,89.9,243.4z M120.6,235.9c-8.7,3-17.3,6.3-24.9,11.6c-4,2.8-4.5,4.2-1.8,8.2c3.4-2.2,6.8-4.4,10.2-6.5
	c-0.2-0.4-0.4-0.7-0.7-1.1c-3.1,1.8-6.2,3.7-9.3,5.5C101.9,246.2,111.2,241,120.6,235.9z M153.1,255.2c-0.8,0.4-1.5,0.6-2,1
	c-3.6,2.4-7.1,4.9-10.8,7.3c-0.6,0.4-1.8,0.4-2.3,0c-1.6-1-4.5-0.5-6.3,1.7c4.4-1.7,8.6,3.1,12.5-1.1
	C146.9,261.1,152.4,260.7,153.1,255.2z M159.7,239.9c-0.2-0.4-0.5-0.8-0.7-1.1c-1.5,0.6-3,1.1-4.4,1.9c-3.2,1.8-6.4,3.5-9.4,5.6
	c-0.6,0.4-0.2,2-0.3,3.1c0.7-0.1,1.6,0.1,2.1-0.3c2.5-1.7,4.8-3.6,7.2-5.4C156,242.3,157.9,241.1,159.7,239.9z M154.8,238.6
	c-0.2-0.3-0.3-0.7-0.5-1c-3.2,1.1-6.4,2.2-9.6,3.4c-1,0.4-1.9,1.2-2.7,2c-0.4,0.4-0.2,1.3-0.3,2c0.8,0.1,1.6,0.4,2.3,0.2
	c1-0.4,1.9-1.1,2.9-1.7C149.6,241.9,152.2,240.3,154.8,238.6z M100.3,263.1c0.1,0.4,0.3,0.7,0.4,1.1c0.6,0,1.2,0,1.8,0
	c3-0.2,5.9-0.6,7.8-3.3c0.4-0.5,0.4-1.4,0.3-2.1c0-0.1-1.1-0.5-1.5-0.3C106.1,260,103.2,261.6,100.3,263.1z M129.4,236
	c-0.1-0.3-0.2-0.6-0.3-0.9c-4.7,1.7-9.5,3.3-14.2,5c0.1,0.3,0.2,0.6,0.3,0.8C121,242.2,125,238.6,129.4,236z M158.3,244.4
	c-0.3-0.3-0.6-0.6-1-0.9c-4.4,2.4-9,4.6-11.3,9.3c0.2,0.3,0.5,0.5,0.7,0.8C150.6,250.4,154.5,247.4,158.3,244.4z M147.2,238.3
	c-0.2-0.4-0.4-0.8-0.6-1.3c-3.1,1.3-6.3,2.6-9.4,3.9c0.2,0.4,0.4,0.9,0.6,1.3C141.7,242.7,143.8,239,147.2,238.3z M141.2,237.9
	c-3.1-1.5-8,0.2-9,3.3C135.2,240,138.2,238.9,141.2,237.9z M86.9,240c2.6-1.7,5.1-3.4,7.6-5c-0.2-0.3-0.3-0.6-0.5-0.9
	c-2.8,1.2-5.5,2.4-8.5,3.6C86.1,238.7,86.5,239.3,86.9,240z M149.6,262.8c-0.2-0.2-0.3-0.4-0.5-0.6c-1.8,1.2-3.5,2.4-5.3,3.6
	c0.1,0.2,0.1,0.4,0.2,0.6c1.5,0,2.9,0,4.4,0C148.9,265.2,149.2,264,149.6,262.8z M156.5,248.1c-2.4,1.9-4.3,3.2-6.3,4.8
	c1.6,0.4,2.6,0.7,3.9,1C154.8,252.2,155.5,250.5,156.5,248.1z M116.6,263.2c2.1,0,4.4,0,7.5,0C120.2,261.2,117.9,261.4,116.6,263.2z
	 M116.1,261.1c-3.1-2-4.2,0.2-5.7,1.8C113.2,264.9,114,261.9,116.1,261.1z"/>
<path class="st0" d="M614.4,240.3c-1.7-3.8-2.7-8-5.2-11c-4.5-5.4-10.8-8.5-17.9-9.9c-8.8-1.8-17.8-2.4-26.5-1
	c-6.1,1-11.7,4.4-17.6,6.7c-0.8,0.3-2.1,0.7-2.6,0.4c-6.2-4-10.2-9.6-12.2-16.5c-2-6.7,0.5-12.8,2.9-19c3.3-8.8,10.7-11.9,19.2-13.8
	c2.2-0.5,4.5-1,6.3-2.1c1.1-0.6,1.6-2.4,2.1-3.8c1.2-3.5,2.1-7,3.2-10.5c1.8-5.5,7.1-7.2,11.7-8.9c8.8-3.1,18.1-4.7,27-0.2
	c6.3,3.2,11.2,8,12.9,15.2c0.7,3.1,2,6.2,3.3,9.1c0.3,0.6,1.7,1,2.7,1.1c9,0.4,17,3.9,24.5,8.2c7.8,4.4,9.7,18.1,3.9,25.1
	c-4.1,4.9-9.5,8.1-15.1,11.4c-8.1,4.6-16.8,8.9-21,18C615.8,239.5,614.7,240.1,614.4,240.3z M635.5,215.1c0.3-0.4,0.9-0.7,1.1-1.2
	c2.2-6.2,0.7-10.9-4.7-14.7c-6.7-4.8-17.2-3-18.9,6.5c-0.5,2.6-0.1,5.4,0.1,8.1c0.2,2.6,0.6,5.2,1,7.8c-0.3,0.2-0.7,0.3-1,0.5
	c-1.2-1.7-2.4-3.5-3.6-5.2c-1.1,0.4-2.3,0.8-3.4,1.2c-0.1-0.3-0.3-0.5-0.4-0.8c1.4-1,2.9-2,4.2-2.9c-0.1-2.1-0.2-4.3-3.2-3.4
	c-1.8,0.5-3.3,1.9-4.9,2.9c-0.2-0.3-0.4-0.5-0.6-0.8c1.6-1.1,3-2.5,4.8-3.4c4.2-2.1,4.3-2.2,3-7.5c-3.1,1.8-5.9,3.4-9.3,5.4
	c1.9-3,4.1-4.9,7.2-5.9c3.8-1.2,3.9-1.4,2.6-6.2c-4.1,1.7-8,3.4-12.1,5.1c3.2-4.5,8.8-5,13.2-7.2c0-1.2,0-2.4,0-4
	c-5.1,1.2-10.2,1.9-14.2,5.2c3.4-5.4,9.9-4.9,14.8-7.2c0-1.3,0-2.5,0-3.8c-6.9-0.4-12.8,2-18.6,5.1c5.3-4.5,11.9-6,18.7-7.3
	c0-1,0-1.9,0-3c-4-2-8-0.4-11.6,0.7c-3.6,1.1-7.8,1.8-10,5.7c0-1,0.1-2.1,0.6-2.4c3.4-1.7,6.8-3.6,10.4-4.8c3.2-1.1,6.7-1.4,9.8-2
	c0-3.7-2.1-5.3-5.1-4.7c-5.9,1.2-12.1,2-16.4,7.5c0.6-4.4,7.6-7.6,19-9.1c-1.2-4.6-3.9-6.1-8.4-5c-5.9,1.4-11.3,3.6-14.5,9.7
	c0.2-5.6,8.2-10.1,19.2-11.3c-0.5-3.7-3.5-5.5-6.8-4.2c-0.7,0.3-1.3,0.6-2,0.8c-6.9,1.7-11.3,5.9-13.7,12.2
	c-0.2,0.5-0.9,0.8-1.3,1.2c2-9,8.5-13.6,17-16.1c-2.6-1.4-8.3-1.7-10.5-0.7c-1.7,0.8-3.3,1.5-5,2.2c-5.8,2.4-9,7.4-8.3,13
	c0.7,5.4,3.7,9.5,7.5,13.1c1.3,1.3,2.7,2.5,4,3.7c-0.2,0.2-0.3,0.5-0.5,0.7c-0.7-0.3-1.4-0.5-2-0.9c-3-2-5.7-4.4-8.8-5.9
	c-6.2-3.1-12.2-7.5-19.7-2.2c-3.9,2.8-6.2,5.9-6.2,10.5c0,1.5,0.2,3.1-0.1,4.5c-1.3,5.5,0.5,10.5,2.8,15.2c1.4,2.9,4.8,3.5,8,4.2
	c-2.8-13.2-2.6-21.2-0.3-23.8c-0.1,5-0.7,10.8-0.2,16.5c0.5,5.3,1.7,8.6,6.7,6.5c1.3-6.6,2.6-12.9,3.9-19.2c0.3,0.1,0.5,0.1,0.8,0.2
	c-0.8,4.2-1.4,8.5-2.3,12.7c-1.2,5.4,0.3,7,6.5,6.1c-0.2-6.1-0.2-12.2,4.2-17.2c-2.3,5.9-4.1,11.8-2.2,18c1.8,0.2,3.2,0.4,4.6,0.5
	c1.2-5.3,1-10.8,5.7-14.7c-0.3,1.1-0.9,2.1-1.2,3.2c-0.9,3.5-1.7,7.1-2.3,10.7c-0.1,0.6,1.2,1.7,2,2.2c0.9,0.5,2.1,0.4,2.9,0.6
	c1-3.5,1.9-6.8,2.8-10.2c0.3,0.1,0.5,0.1,0.8,0.2c0,4-3.8,8.5,2.2,12.2c0.5-2,0.7-3.4,1.2-4.8c0.5-1.3,1.2-2.6,1.8-3.9
	c0.2,0.1,0.4,0.2,0.6,0.3c-0.6,2.8-1.1,5.5-1.7,8.3c3.5,1.8,3.7,1.7,6.8-2.4c0.2,0.8,0,1.6,0,2.4c0,0.9,0,2.4,0.5,2.7
	c4.1,1.9,7.2,4.9,10.5,7.8c3.5,3.2,3.5,2.8,7.6-0.2c2.2-1.6,1.8-2.8,0.3-4.3c-0.5-0.5-1.4-0.8-2.1-1.2c0.4-0.4,0.8-0.8,1.1-1.2
	c1.4,1.2,2.7,2.4,4.2,3.7c3-1.5,3.2-2,0.8-4.4c-1.8-1.9-3.8-3.4-5.7-5.1c1.7,0.5,3.8-1.4,5.5,1.1c1.3,1.9,3.1,3.4,5.1,5.5
	c-0.4-5.8-5.4-8-8.4-12.1c5.1,0.4,6.6,5.2,10.7,6.6c0.7-5.7-3.6-9-5.5-13.3c1.7-1.8,2.9-0.6,3.6,0.8
	C632.1,208,633.7,211.5,635.5,215.1z"/>
<path class="st0" d="M11.2,326.7c2.1,5.7,3.6,10.9,5.8,15.8c2.7,5.8,6,11.3,9.2,16.9c1.9,3.2,3.9,6.7,6.6,9.2c1.9,1.8,1.8,3.4,2,5.4
	c0.8,7.3,1.7,14.7,2.4,22c0.6,6,0.8,12,1.4,18c0.4,4.2,1.2,8.5,1.7,12.7c0.3,2.6-0.1,5.3,0.2,7.9c1.2,10.7,2.4,21.4,3.7,32.1
	c0.7,5.4,1.6,10.8,2.2,16.2c0.1,0.8-0.6,1.8-1.1,2.6c-1.5,2.4-3.2,4.6-4.6,7c-1,1.8-2.3,2.3-4.4,2c-5.1-0.8-10.2-1.3-15.3-2.1
	c-1.2-0.2-2.5-0.9-3.5-1.7c-2.5-1.8-4.6-4.4-7.4-5.6c-3.6-1.5-2.8-4.5-3.6-6.9c-0.5-1.7-0.1-3.6-0.2-5.5
	c-0.4-11.3-0.7-22.6-1.3-33.9c-0.6-10.2-1.6-20.3-2.5-30.5c-0.6-7.7-1.3-15.4-1.9-23.1c-0.3-4.3-0.7-8.6-0.9-12.9c0-1,0.9-2,1.2-3.1
	c2.1-7,4.6-14,6.2-21.2c1.4-6.5,1.9-13.2,2.9-19.7C10.3,327.7,10.9,327.1,11.2,326.7z M17.6,487.3c-0.6-4.7-1.2-8.6-1.6-12.6
	c-0.9-8.4-1.7-16.9-2.5-25.3c-0.1-0.9,0.3-1.8,0.4-2.6c0.1-0.9,0.1-1.8,0-2.6c-0.4-4.9-0.9-9.9-1.3-14.8c-0.3-4-0.1-8-0.5-12
	c-0.7-8-1.6-16.1-2.5-24.1c-0.5-4.9-1.2-9.7-1.9-14.6c-0.1-0.6-0.9-1.3-1.5-1.6c-1.2-0.6-2.6-1-4.2-1.6c0.7,5.7,1.6,11.1,2,16.5
	c0.6,8.3,0.9,16.6,1.3,24.9c0.2,4,0.4,8,0.7,12c0.8,10.3,1.7,20.5,2.5,30.8c0.5,5.9,0.9,11.8,1.3,17.7
	C9.9,482.2,13.5,484.3,17.6,487.3z M10.5,347.6c-0.4,8.1-0.8,15.8-1.2,23.5c-0.2,3.6,1.3,6.3,4.7,7.8c2.3,1,4.5,0.6,6.5-1
	c2-1.5,0.7-3.1,0.3-4.6c-0.4-1.4-1.3-2.7-1.7-4.1c-2-6.6-3.8-13.3-5.8-19.9c-0.2-0.7-0.6-1.5-0.9-2.2
	C11.8,347.3,11.2,347.4,10.5,347.6z M14.9,381.1c-0.3,0-0.6,0.1-0.9,0.1c2.4,36.5,4.7,73,9.9,109.3c0.3-1,0.4-2,0.3-3
	c-0.2-3.1-0.4-6.2-0.6-9.3c-0.1-1.7,0.1-3.5-0.1-5.2c-1.2-9.7-2.6-19.3-3.7-29c-0.5-4.6-0.4-9.3-0.7-13.9c-0.5-6.7-1.4-13.3-1.8-20
	c-0.4-8-0.4-15.9-0.8-23.9C16.4,384.5,15.5,382.8,14.9,381.1z M31.5,370.9c-5.1-7.7-9.7-14.6-14.4-21.5c1,9.1,2.9,17.8,7.1,26.4
	C27.1,373.9,29.5,372.3,31.5,370.9z M28.8,488.4c-0.1-1.3-0.2-2.7-0.3-4c-0.2-4.5-0.3-9.1-0.7-13.6c-0.9-9.4-2.3-18.8-3-28.2
	c-0.9-12.1-1.4-24.1-1.9-36.2c-0.3-7.8-0.4-15.6-0.7-23.4c0-0.4-0.5-0.8-0.8-1.2C22.3,417.4,24.1,453,28.8,488.4z M30.9,491.5
	c0.3,0,0.6,0,0.9-0.1c1.3-10.2-0.5-20.3-1.4-30.4c-0.9-10.4-2.1-20.8-3.2-31.2c-0.3,0-0.6,0-0.9,0.1C27.8,450.5,29.4,471,30.9,491.5
	z M7.4,355.4c-0.1,0-0.3-0.1-0.4-0.1c-1.7,5.4-3.4,10.8-5,16.3c-0.2,0.7,0.3,2,1,2.4c1.1,0.8,2.6,1.2,4.4,2.1
	C7.4,368.7,7.4,362,7.4,355.4z M20,489.7c0.5,0,1.1-0.1,1.6-0.1c-1.7-14.4-3.3-28.9-5-43.3c-0.3,0-0.6,0.1-0.9,0.1
	C15.3,461,19.3,475.2,20,489.7z M21.1,439.6c0.4,0,0.7,0,1.1-0.1c-0.8-13.8-1.7-27.6-2.5-41.3c-0.4,0-0.8,0-1.2,0.1
	C19.4,412,20.2,425.8,21.1,439.6z M15.6,440.7c0.1,0,0.3,0,0.4,0c0-4.1,0.2-8.3,0-12.4c-0.2-4.1-0.8-8.1-1.2-12.2c-0.4-4-0.6-8-1-12
	c-0.3,0-0.5,0.1-0.8,0.1C13.9,416.4,14.7,428.6,15.6,440.7z M9.9,378.1c-0.1,0.2-0.3,0.3-0.4,0.5c1.2,8,2.4,15.9,3.6,23.9
	c0.1-7.3-0.3-14.6-1-21.8C12,379.8,10.7,378.9,9.9,378.1z M18.6,395.8c0,0,0.1-0.1,0.1-0.1c0-4.9,0-9.8,0-15
	c-0.7,0.4-1.1,0.5-1.1,0.6C17.9,386.2,18.3,391,18.6,395.8z"/>
<path class="st0" d="M360.1,39.2c-1.4-4.9-2.6-9.4-4.1-13.9c-0.9-2.7-0.3-4.9,1.5-6.9c2.6-3.1,5.2-6.8,9.8-6.6
	c3.8,0.2,7.7,1.1,11.3,2.4c3.9,1.4,7.7,3.3,11.1,5.6c2.4,1.7,4.1,4.4,6,6.8c3.9,5,7,10.9,11.7,14.9c5.2,4.4,10.3,9.8,18.7,9.2
	c4.8-0.3,9.6,0.8,14.5,1.1c1.8,0.1,3.7-0.3,5.6-0.2c0.9,0.1,2.4,1,2.4,1.5c-0.1,1.2-0.5,2.9-1.4,3.5c-2.2,1.6-4.6,3-7.2,3.9
	c-8.8,3.2-15.4,9-21.4,15.6c-5.8,6.4-11.4,13-17.3,19.4c-4.1,4.4-9.8,6.2-15.7,6.6c-4.1,0.3-8.6,0.5-12.5-0.7
	c-8-2.3-11.8-6.9-12.3-15c-0.3-4.9-0.1-4.8-5.1-6.2c-7.7-2.2-14.6-5.7-17.1-13.8c-0.8-2.6-0.9-5.7-0.4-8.4c0.7-3.5,1-7.2,3.5-10.2
	c4.1-5,9.4-7.4,15.7-8.2C358.4,39.5,359.5,39.3,360.1,39.2z M361.7,48.9c-0.3-0.2-0.6-0.5-0.9-0.7c-2.1,1.6-4.3,3-6.2,4.8
	c-6.2,6.1-4.9,11.6-0.7,17.1c3.8,5,10.1,7.4,16.2,8.8c3.1,0.7,6.5,0,9.8,0.2c2.3,0.1,4.9-0.9,7.4,1.1c-1.2,0.9-2.4,2.4-3.2,2.3
	c-3.1-0.6-4.9,1.4-7,2.6c-3.3,1.9-4.6,4.5-3.9,7.6c0.5,2.4,4.4,5.8,7.2,6.2c-2.4-4.1-2.6-5.8-1-7.8c0.1,7.2,4.4,7.4,10.2,6.3
	c-4-3.4-5.6-6.9-4.2-9.2c1.4,4.7,3.7,7.5,7.1,8.2c2.7,0.6,4.8-0.4,6.4-2.6c-9.8-9.5-9.8-9.5-8.3-13c0.7,1.7,1.2,4,2.4,5.9
	c4.2,6.3,8.3,6.7,12.3,1.2c-5.3-2.9-9.6-6.5-8.7-13.1c0.8,2,1.4,4.1,2.5,6c3.5,6.1,7.8,6.6,11.1,2c-3.3-3.2-6.5-6.2-9.6-9.4
	c-0.5-0.6-0.3-1.8-0.4-2.8c3,4.9,7,7.9,12,10c0.3-0.6,0.5-1.1,0.8-1.5c2.2-2.9,2-2.6-1.3-4c-2-0.9-4.2-2.9-5-4.8
	c-1.7-4.2-2.7-8.7-4-13.2c-2.6-1.4-3.4-0.1-3.1,2.6c0.3,2.9,0.6,5.8,0.9,9.1c-0.7-1-1.4-1.6-1.5-2.3c-0.5-2.9-1.2-5.9-1.2-8.8
	c0-2.4-0.8-3.4-3.3-3.3c-2.7,5.7-1.8,11.6-1,17.5c-2.7-6-2.6-12.2-1.2-18.4c-3.1-2.5-4.1-1.4-5.4,1.7c-0.4,1-0.7,2.1-0.6,3.2
	c0.2,3.3,0.5,6.7,0.9,10.5c-3.2-6-3.5-11.8-1.2-17.6c-3.3-1.1-4.4-0.6-4.8,2.5c-0.7,5.1-1.1,10.3-1.7,16.2
	c-0.3-3.9-0.8-7.2-0.7-10.5c0.1-3.4,0.8-6.8,1.2-10.3c-3.1,0.8-4.9,3.9-5,8.5c-0.1,3.4,0,6.9,0,10.4c-0.3,0-0.5,0-0.8,0
	c-1.8-6.4,0.1-12.9,0.8-19.6c-5.8,0.7-5.9,4.9-6.2,8.5c-0.4,3.7-0.1,7.5-0.1,11.3c-3-6.7-1.5-13.3,0.8-19.9c-4-0.3-8.2,3-8.9,6.7
	c-1,5.4-1.4,10.7,0.8,16.1c-0.7-0.2-1.3-0.4-1.4-0.8C358.4,63.1,357.2,55.8,361.7,48.9z M391.2,32.2c-3.9-2.4-6.2-2.3-10.3,0.3
	c-6.7,4.2-5.2,9.8,0.9,12.6c6.7,3,13.6,5.8,18.6,7.9c2.6-1.7,4.4-2.7,6-4c0.8-0.6,1.2-1.5,1.8-2.3c-1.2,0-2.5-0.3-3.6,0
	c-2.6,0.8-5.1,2-7.7,3c-0.2-0.3-0.4-0.6-0.5-0.9c2.9-1.6,5.9-3.2,9.2-5c-5.4-4.2-9.9,2-14.8,0.1c3.3-1.2,6.6-2.4,9.9-3.6
	c0.4-0.4,0.7-0.7,1.1-1.1c-2.4-2.1-4.8-4.2-6.6-5.9c-5.8,1.8-10.6,2.9-13.7,6.9c-0.4,0.5-1.4,0.5-2.2,0.7c0.3-0.7,0.5-1.6,1-2
	C384,36.6,387.7,34.4,391.2,32.2z M418.5,66.9c-0.4-0.7-1.2-1.4-1.2-2c0.2-4-2.5-4.9-5.8-5.4c-1.5-0.2-3-0.8-4.5-0.8
	c-0.6,0-1.4,1.1-1.7,1.8c-0.2,0.5,0,1.2,0.1,1.9c0.9,4.3,1,9,5.9,11.3c1.4,0.7,3.1,1,4.4,1.4c5.7-4.8,11.4-9.5,17.1-14.3
	c-0.1-0.2-0.1-0.4-0.2-0.6c-3.2,0.6-6.4,1.1-10.1,1.8c-0.5-0.3-1.6-0.9-2.8-1.5C419.3,62.4,419,64.5,418.5,66.9z M423.9,56.9
	c0-0.4,0-0.7,0.1-1.1c-3.9-1.9-7.7-3.9-11.6-5.8c-3-1.4-7.2,1-7.9,4.9C410.9,55.6,417.4,56.3,423.9,56.9z"/>
<path class="st0" d="M618,426.3c-2.7,0-6.1,0.1-9.5-0.1c-0.9,0-1.8-0.8-2.5-1.4c-5-4.4-9.7-9.3-15.1-13.2c-3.7-2.7-8.2-4.5-12.5-6.4
	c-4-1.7-8.5-2.4-12.2-4.6c-6.5-3.8-12.5-8.5-14.8-16.1c-2.6-8.7,5.3-20,14.6-21.3c4.8-0.7,9.4-2.9,14.5-2.6c1.3,0.1,3.1-2,4-3.5
	c3.2-5.5,7.1-10,13.7-11.6c8.4-2,16.7-3.1,24.3,2.1c2.4,1.6,4.7,3.6,6.2,6c4.5,7.3,8,14.7,7.2,24c-0.5,5.3-0.9,10.7-2.5,15.6
	c-2.9,8.9-6.2,17.7-11.7,25.6C620.2,420.8,619.4,423.2,618,426.3z M578.4,402.1c1.5-6.6,8.9-12,13-9.3c-5.6-0.5-8.3,2.7-10.3,6.8
	c-0.8,1.6-0.7,3,1.4,3.9c1.8,0.7,3.1,1.6,4.6-0.6c1.4-2.1,3.3-3.9,5.1-5.6c1.8-1.7,2.6-1.7,4.7-0.6c-5.2,1.4-8.9,5.4-8.4,9.5
	c1.6,0.6,3.3,1.3,5.1,2c1.6-4.1,4.9-5.8,8.9-6.6c-1.5,1.2-3.2,2.1-4.7,3.2c-2.2,1.5-2.3,4-0.3,5.1c2.1,1.1,2.7-0.8,3.6-1.8
	c1.4-1.5,2.6-2.2,4.6-1.2c-1.8,1.4-3.4,2.8-5.1,4.1c2.3,2.5,4.3,3.4,6.6,0.5c0.6-0.8,2.1-1,3.2-1.4c-0.6,2.6-5,2.2-3.5,5.1
	c1.3,2.4,4,1.9,6.3,0c-0.4,5.4-0.2,6.1,2.4,8.4c1.8-2.1,3.5-4.2,1.5-6.5c1.3-1.4,2.3-2.5,3.7-4c-1.5-0.5-2.4-0.7-3.3-1
	c5.6-3,5.6-3,6.2-5.9c-1.6,0-3.2,0-4.8,0c0-0.3,0-0.6,0-0.9c2-0.2,4-0.3,6.4-0.5c0.2-0.4,0.7-1.4,1.7-3.3c-3.2-0.5-6-0.9-8.7-1.3
	c2.7-1.8,5.8-1.3,9-0.1c0.9-1.9,1.7-3.7,2.7-6c-1.9-0.2-3.7-0.7-5.3-0.5c-1.6,0.2-3.1,1-4.7,1.5c0.5-2.6,3.4-3.3,10.5-2.6
	c2.1-5,2-5.3-3.3-6.2c-1.6-0.3-3.5,0.4-5.2,0.6c-0.7,0.1-1.3,0.3-1.9,0.5c2.9-2.7,6.5-2.3,9.9-2.5c1-0.1,2.5-0.9,2.7-1.6
	c0.2-0.8-0.7-2.4-1.5-2.6c-2.9-0.8-5.9-1.4-9-1.7c-3.2-0.3-6.2,0.2-7.7,3.8c0-3.3,2-5,5.8-5c4.1,0.1,8.2,0.5,13.2,0.8
	c-1.6-1.5-2.6-3.1-4.1-3.7c-5.8-2.3-11.7-3.1-17.2,1.3c1.8-3.3,4.7-4.7,8.3-4.5c3.4,0.2,6.8,0.9,10.1,1.3c-1.8-4.3-6.4-3.9-10-4.9
	c-5.8-1.6-11.1-0.5-14.1,5.5c0.8-5.2,3.6-7.8,8.5-7.4c4.5,0.3,8.9,1.4,13.6,2.2c-0.3-0.7-0.5-1.6-1.1-2.3c-3.4-3.9-8-5.9-13-5.8
	c-8.8,0.1-16.1,9.5-14.4,18.1c0.8,3.8,2.4,7.5,3.5,11.3c0.2,0.8,0,1.7-0.1,3.3c-3.2-2.7-5.3-4.7-5.9-8.1c-0.5-3-1.8-5.9-5-7.8
	c-4.8-2.9-9.7-4.6-15.3-3.6c-4.4,0.8-8.6,1.9-11.8,5.3c-2.7,3-4,6.8-2.8,9.1c6.2-9.2,17.1-14.2,20.5-9.4c-1.9,0.1-3.7,0.3-5.6,0.3
	c-6,0.3-12.4,5.9-13.5,10.7c-0.4,1.6-1.6,3.9,1.2,5.1c0.8-1.4,1.5-2.7,2.2-4c2.2-4.3,5.5-7.3,10.2-8.9c2.4-0.8,4.5-0.6,6.3,0.8
	c-1.7,0.1-3.5,0-5.2,0.3c-4.4,0.9-7.5,3.7-9.8,7.2c-3.1,4.7-2.6,6.9,1.4,8.6c0.2-0.2,0.5-0.3,0.7-0.5c0.3-0.4,0.7-0.8,1-1.2
	c3.6-5.2,7.6-9.8,14.3-11.1c1.3-0.3,2.8,0,4.2,0c-8.1,1-13.4,5.5-16.3,10.5c-1.8,3.1-1.5,3.8,2,4.9
	C576.8,401.6,577.5,401.8,578.4,402.1z"/>
<path class="st0" d="M409.9,220.5c-5.1,1.2-10.6-1-15.7-3.4c-4-1.9-7-5.7-10.1-9c-1.4-1.5-2.1-2.5-4.5-1.8c-1.6,0.5-3.8,0.2-5.4-0.4
	c-8.5-3.4-13.5-8.5-11.8-18.8c0.4-2.2,0.4-4.4,0.7-6.5c0.3-2.4,3.3-4.2,5.9-3.9c4.8,0.6,9.7,1.2,14.1-1.1c2.2-1.2,4.2-2.8,6.1-4.4
	c7.8-6.1,11.5-14.6,13.9-23.6c0.5-1.9-0.4-4.1-0.5-6.2c0-1,0.2-2,0.7-2.8c0.3-0.5,1.1-1.1,1.6-1c0.5,0,1.1,0.7,1.4,1.3
	c5.1,9.2,11.2,17.5,20.9,23c7.1,4,12.9,9.6,16,17.4c2.3,5.9-0.2,10.5-4,14.3c-2.6,2.7-5.1,6-9.6,6.5c-0.5,0.1-1.2,1.5-1.2,2.3
	c-0.5,6.6-2.8,12.4-8.2,16.8c-0.9,0.7-2.1,1.2-3.2,1.3C415.1,220.7,413,220.5,409.9,220.5z M400.9,175.8c-0.3,0.2-0.7,0.5-1,0.7
	c-1.6-2.1-3.3-4.2-5.4-6.9c-0.6,4.9,0.7,8.6,3.2,12.2c-1.6-0.9-3-2-3.8-3.4c-1-1.5-1.4-3.3-2.2-5.2c-3.4,4.4-2.9,8.2,0.8,11.6
	c-3,0.6-4.1-0.7-5.3-6.8c-0.7,0.3-1.4,0.7-2.1,1c0.3,0,0.7-0.1,1-0.1c-1.9,5,1.1,8.5,3,12.4c-3.7-2.1-5.3-5.5-6.1-9.5
	c-4.1,5.2-3.7,9.4,1.1,11.4c2.4,1,5.1,1.5,7.7,1.8c4.3,0.4,7.8-0.8,9.4-5.4c1.8-5.1,4.5-9.9,4.2-15.5c-0.1-1.4,0.5-2.9,1-4.2
	c0.3-0.7,1.1-1.2,2.3-2.4c0.3,2.4,0.6,3.8,0.5,5.1c-0.4,4-0.8,8-1.6,11.9c-0.5,2.5-1.7,4.9-2.6,7.4c-1.2,3.3-3.1,6.5-3.5,9.9
	c-0.6,5.2,0.2,5.7,5.5,6.7c5.3,1,10.6-1.6,13.4-7.2c-2.5,1.4-4.3,2.6-6.3,3.4c-2,0.8-4.1,1.2-6.2,1.8c11.4-5.8,14.8-8.2,15.8-11.3
	c-4.5,2.2-8.9,4.3-13.3,6.5c-0.1-0.2-0.2-0.5-0.4-0.7c13.9-8.8,13.9-8.8,13.5-11.2c-2.2,1.3-4.3,2.8-6.5,3.9
	c-2.1,1.1-4.3,1.9-6.4,2.8c12.9-10,12.9-10,12.3-11.8c-3.5,1.8-7.1,3.7-10.6,5.6c-0.1-0.2-0.3-0.5-0.4-0.7c2.9-2,5.8-3.9,8.7-5.9
	c1.7-1.2,2.2-2.6,0.4-4.2c-3.2,2.2-6.5,4.4-9.7,6.7c2.2-2.8,4.8-5,7.4-7.2c1.5-1.3,2.3-2.8,0.9-4.5c-2.5,1.3-5.1,2.7-7.6,4
	c-0.2-0.3-0.4-0.6-0.5-0.9c1.6-1.2,3.2-2.3,4.8-3.5c1.7-1.3,2.7-2.9,0.9-5.2c-1.5,1.2-2.9,2.3-4.3,3.5c-0.2-0.2-0.5-0.4-0.7-0.6
	c0.5-0.8,0.9-1.9,1.6-2.4c2.3-1.8,3.1-3.7,0.8-5.8c-1.4,0.9-3,1.9-4.6,2.9c-0.2-0.3-0.4-0.5-0.6-0.8c1.4-1.3,2.8-2.5,4.4-4
	c-0.6-1-1.2-1.9-2-3c-1.5,1.3-2.8,2.4-4,3.5c-0.2-0.2-0.4-0.4-0.7-0.6c1.3-1.7,2.6-3.4,3.7-4.9c-0.9-1.7-1.6-3.2-2.5-4.6
	c-0.8-1.3-1.9-1.6-2.7,0.1c-0.6,1.4-1,3.1-2,4.2c-1.2,1.4-1,2.1,0.1,3.3c1,1,1.5,2.4,2.3,3.6c-0.3,0.2-0.7,0.5-1,0.7
	c-1-1.2-2-2.3-3-3.6c-3.7,3.7,0.8,6.6,0,10.4c-1.2-1.7-2.3-3.2-3.7-5.2C396.6,169.9,398.6,172.9,400.9,175.8z M433.6,173.7
	c-1.5,2.7-2.9,5.3-4.5,7.8c-0.2,0.4-0.9,0.5-1.4,0.7c-0.1-0.5-0.4-1.2-0.2-1.6c0.6-1,1.4-1.9,2.2-2.9c2.2-2.8,2.5-5.4,0.8-7.9
	c-3.6,7.4-3.6,7.4-5.7,7c4-5.5,4.3-6.7,2.3-9.7c-1.8,1.5-1.3,4.9-4.7,5.5c3.8-7.1,3.9-6.8,0.8-8.3c-0.5,0.9-0.9,1.8-1.6,3.1
	c-1.4-5.6-1.4-5.6-6.4-8.6c0.4,0.8,0.6,1.4,0.9,2c3,7.3,6.1,14.6,8.9,22c1.5,4.1,2.2,8.4,3.2,12.6c6.6-1.3,9.9-8.6,8.1-16.1
	c-1.4,2.2-2.7,4.7-4.3,6.9c-0.4,0.6-1.6,0.7-2.4,1c0.2-0.7,0.3-1.5,0.7-2.2c1.4-2.4,3-4.7,4.5-7C435.9,176.3,435.1,175,433.6,173.7z
	"/>
<path class="st0" d="M470.5,296.7c0-12,3.2-20.8,10-28.3c3.2-3.6,7.8-5.2,12.6-6.3c6.7-1.5,13.4-1,19.9,0.4c3.3,0.7,6.4,2.2,9.4,3.5
	c2.1,0.9,3.8,0.4,5.3-0.8c8.1-6.6,16.9-6,26.1-2.9c6.1,2.1,10.9,5.9,14.2,11c1.7,2.6,2.3,6.1,3.1,9.2c1.6,6.8-0.8,13.3-2.8,19.4
	c-2.2,6.7-6.7,12.5-13.4,16.5c-3.9,2.3-7.3,5.5-11.2,7.9c-5.9,3.7-12.3,6.7-17.7,11.3c-6,5.1-9.6,11.3-11.6,18.6
	c-0.3,1.1-1.4,1.9-2.2,2.8c-0.9-0.7-2.3-1.2-2.6-2.1c-1.8-4.8-4.8-8.2-9.3-10.9c-4.6-2.7-8.7-6.1-12.7-9.7
	c-4.6-4.1-8.3-9.1-10.8-14.7c-2-4.5-3.9-9.1-5.1-13.9C470.9,303.4,470.8,299,470.5,296.7z M475.1,289.2L475.1,289.2
	c-0.6,1.6-1.1,3.3-1.8,5.7c13.9-6.7,18.6-7.2,23.4-2.5c-1.1-0.4-1.6-0.5-2.1-0.7c-5.7-2.5-11-1-16.1,1.8c-5.2,2.8-6.5,7.4-3.4,12.1
	c6.5-8.2,13.6-10.1,20.4-5.4c-2.4-0.2-4.7-0.3-6.8-0.7c-4.4-0.9-8.2,0.9-11.1,5.4c-2.4,3.8-2.3,4.2,1.1,8.3c2.9-2.1,5.6-5,8.8-6
	c3.3-1,7.2-0.2,10.8-0.2c-2.8,0.6-5.7,0.4-8.5,0.7c-4.2,0.4-7.3,2.9-8.8,6.6c-1.4,3.4,1.4,5.7,3.8,8.3c2.7-4.2,6.3-6.5,11.4-5.7
	c-4.1,0.2-7.3,1.9-9,5.6c-0.3,0.7-0.4,1.9,0,2.3c1.7,1.7,3.7,3.2,5.6,4.8c2.9-3.6,7.2-4.9,9.6-2.7c-0.6-0.1-1-0.2-1.3-0.1
	c-2,0.9-4.1,1.8-6.1,2.7c0.6,1.2,1.2,2.5,2,3.6c0.6,1,1.3,1.8,2,2.7c4-3.4,5.6-3.5,6.6-1.6c-1.3,0.5-2.8,0.8-3.9,1.5
	c-0.4,0.3-0.4,2.1-0.1,2.2c1.5,0.6,3.1,1,4.6,1.4c0.7,0.2,1.5,0.3,2.2,0.4c0,0.2,0,0.5,0,0.7c-1,0.3-2,0.6-3.3,1
	c1.1,1.2,1.9,2.2,2.6,3c1.9-0.6,3.5-1,5.7-1.6c-3.2,4.7-3.2,4.7-2,5.8c3.3-2,5.3-4.2,3-8.2c-0.8-1.4-0.8-3.2-1.1-4.8
	c1.1,1.1,1.6,2.3,2.2,3.5c0.6,1.2,1.1,2.5,1.7,3.8c2.6-3.3,2.6-3.3,0.9-15.8c1,2.9,1.7,5.9,2.6,8.9c0.2,0.7,0.8,1.2,1.2,1.8
	c0.6-0.5,1.7-1.1,1.8-1.6c0.2-2.9,0.2-5.9,0.2-8.8c0-0.7,0-1.4,0-2.1c0.3,0,0.6,0,0.9-0.1c0.5,3.2,1.1,6.4,1.6,9.9
	c6.9-4.6,2.8-11.1,4.1-16.6c0.6,3.9,1.2,7.7,1.9,11.6c0.4,0.1,0.8,0.1,1.2,0.2c1.3-1.6,3.5-3.1,3.8-4.9c0.5-2.9-0.2-6-0.4-8.9
	c-0.2-2.2-0.6-4.4-0.9-6.7c0.3,0,0.6-0.1,0.9-0.1c1,5.5,2,11.1,3,16.7c3.5-1.5,4.2-4.2,4.6-7.4c0.5-4.6-0.9-8.9-2.2-13.2
	c-0.2-0.5,0-1.1,0-1.7c0.3,0,0.5,0,0.8,0c1.4,5.7,2.7,11.5,4.1,17.5c0.4-0.2,1.6-0.5,1.8-1.1c0.7-2.3,1.9-4.9,1.6-7.1
	c-0.6-4.1-2.2-8-3.4-11.9c-0.8-2.5-1.8-5-2.7-7.4c0.5-0.1,0.9-0.3,1.4-0.4c2.4,7.8,4.8,15.6,7.3,23.8c0.7-1,2.2-2.2,2.5-3.7
	c1.7-7.7,0.9-15.1-3.9-21.9c-0.4-0.5,0-1.4,0-2.2c0.4-0.1,0.8-0.2,1.3-0.3c1.5,3.7,3.5,7.3,4.4,11.1c0.9,3.8,0.8,7.8,1.1,11.7
	c0.3-0.1,0.6-0.1,0.9-0.1c4.3-11.5,0.1-21.4-6.9-30.9c8,6.6,10.4,15.2,10.4,24.9c1.4-2.2,2.8-4.4,3.4-6.8c1.4-6.3,0.9-12.5-3.2-17.9
	c-2.4-3.2-5.3-6-9.5-7c-6.6-1.7-12.9-0.6-19.3,1.2c-7.5,2.1-13.4,6.4-17.2,12.9c-4,6.8-6.9,14.1-7.9,22c-0.2,1.6-0.9,2.9-3.1,1.9
	c0.2-0.9,0.5-1.8,0.7-2.6c1.9-10.5,4.7-20.9,9-30.7c0.9-2.2,0.7-4-1.4-5.2c-2.8-1.7-5.7-3.4-8.7-4.8c-5.1-2.3-10.4-3.3-16-2
	c-4.5,1-7.5,3.7-10,7.3c2.9-1.4,5.5-2.7,8.1-3.8c5.1-2.2,10.5-1,15.7-1.1c2.3,0,6.8,4.9,7.3,7.5c-5.1-5.9-11.6-7.4-18.6-6
	c-10.5,2.2-14.1,4.8-15.8,10.4c16.4-9.8,26.3-6,28.9,0.2c-3.4-3.1-7.1-4.8-11.7-5c-5.7-0.3-10.1,2.8-15,4.9
	c-3.7,1.6-3.9,4.6-4.4,7.6C473.9,288.5,474.7,288.8,475.1,289.2z"/>
<path class="st0" d="M120,425.6c1.3-1.5,3.3-2.8,3.3-4.1c-0.1-1.5-1.8-3-2.8-4.5c0.8-0.9,1.6-1.7,2.6-2.7c-0.8-1.4-1.7-2.9-2.7-4.6
	c1.1-1,2.2-1.9,3.4-2.9c-0.7-1.3-1.5-2.7-2.2-4c-0.9-1.7-2.3-3.5,0.4-5.1c0.4-0.3,0.4-2.2-0.1-2.9c-2.4-3.8-2.5-3.7,1-6.2
	c-0.5-1-1.3-2-1.6-3.1c-0.3-0.9-0.5-2.3,0-2.9c2.1-2.6,0.9-4.7-0.4-7.1c-0.6-1.1-0.8-3.4-0.4-3.6c3.7-2,1.4-4.4,0.4-6.4
	c-0.9-1.8-1.9-3.1,0.4-4.5c0.3-0.2,0.5-1.4,0.3-1.6c-2.9-2.3-1.3-3.9,0.9-5.4c-1.2-2.5-2.2-4.8-3.4-7.3c3.2-1.8,1.8-4,0.4-5.9
	c-1.6-2.1-3.5-3.9-0.5-6.4c0.2-0.2-0.5-2.1-1.2-2.7c-1.3-1.2-2.3-2.2-1-4.1c0.4-0.5,0.1-1.6-0.1-2.3c-0.3-1.6-0.7-3.1-0.6-4.7
	c-3.6-4-3.6-7.2-0.1-10.8c1.5-1.5,4-2.7,6.2-2.9c6-0.6,12-0.2,17.8,1.8c0.8,0.3,1.9,1,2,1.6c0.5,2.8,2,4.7,4.1,6.7
	c2.8,2.6,1.8,5.7-2.1,8.5c1.4,1.4,5.1,0.9,4.2,4.1c-0.5,2-1.6,3.8-2.5,5.6c4.1,3.1,4.1,3.1,1.2,7.2c-1,1.3-0.9,2.5,0.8,3
	c2.8,0.8,2.5,2.1,1,3.8c-0.6,0.7-1.1,1.4-1.6,2.2c-1,1.3-1.6,2.4,0.8,3c1.2,0.3,2.1,1.3,1,2.8c-0.8,1.1-1.3,2.4-1.9,3.7
	c-0.6,1.1-1.2,2.2-1.8,3.3c4.8,2.9,5,5.7,0.2,8.8c0.9-2.3,1.6-4.3-1.4-4.8c-2-0.3-4.1-0.9-6.1-0.7c-3.6,0.4-7.2,1.5-10.6-0.9
	c4.8,0.7,9.4,0.4,14.1-1.4c3.1-1.2,4-3.7,4.9-6.1c0.6-1.5-1.4-2.6-3.3-2.6c-3.8,0.2-7.7,0.4-11.5,0.6c-1,0-1.9-0.2-2.9-0.3
	c0-0.3-0.1-0.5-0.1-0.8c0.5-0.2,1.3-0.6,1.6-0.4c3,1.7,5.7,0.7,8.4-0.6c0.4-0.2,0.8-0.3,1.2-0.2c3,0.3,5-0.8,6-3.6
	c0.2-0.7,1.1-1.2,1.6-1.8c-5.5-4.9-12.5-2.3-18.7-4.2c0.8-0.2,1.6-0.7,2.4-0.7c2.5,0.1,5,0.2,7.5,0.6c4.2,0.7,6.5-1.9,8.5-4.7
	c1.1-1.4,1.1-2.9-1.4-3.3c-1.6-0.3-3-1.5-4.6-1.7c-3.9-0.5-7.8-0.8-12.2-1.1c0.4-0.5,0.8-1.2,1.2-1.3c3.9-0.1,7.8-0.1,11.7-0.1
	c1.2,0,2.4,0.1,3.8,0.2c0.5-0.9,1-1.9,2-3.8c-3.3,0-6.3-0.5-9,0c-5.6,1.1-11.1,0.3-16.6-0.7c-0.7-0.1-1.6,0.2-2.4,0.3
	c0.2,0.8,0,1.8,0.5,2.2c2.1,1.8,1.9,3.7,0.4,6c5.8,3,11.8,2.6,17.8,1.8c0,0.4-0.1,0.7-0.1,1.1c-5.5,0-11,0-16.8,0
	c0.4,0.6,1,1.4,1.4,2.3c0.5,1.3,1.7,2.5,0.1,4c-1.3,1.1-0.4,2.2,0.9,2.7c4,1.7,8.3,2.3,12.7,1.7c1.6-0.2,3.3-0.3,5-0.4
	c0,0.4,0,0.8,0,1.2c-6,0-12,0-18,0c1.5,1.7,1.9,3.5-0.4,4.9c0.8,4.8,4.9,5.3,8.4,5.5c3.5,0.2,7.1-0.7,10.9-0.8
	c-2,0.6-3.9,1.5-5.9,1.8c-2.3,0.3-4.6,0.2-6.9,0c-2.2-0.1-4.4-0.5-6.9-0.9c0.2,5.6,3.8,7.5,7.8,8.1c3.7,0.6,7.6,0.1,11.2,0.1
	c-1.4,2.8-9.2,2.7-16.6-0.5c-0.7,0.8-1.6,1.6-2.2,2.5c-0.4,0.6-0.8,1.5-0.6,2.1c1.4,5.1,6.1,8.5,11.7,8.7c2.7,0.1,5.4-0.2,8.3,0.2
	c-0.9,0.3-1.9,0.9-2.8,1c-4.1,0.3-8,0-11.8-1.7c-1.1-0.5-2.5-0.2-3.8-0.2c0,1.3-0.1,2.7,0.2,3.9c1.4,5.6,6.4,6.4,11.1,7.1
	c3.1,0.5,6.3,0.1,9.9,0.1c-3.9,2.3-7.6,1.8-11.5,0.6c-3.5-1-7-1.9-11.3-3c1.3,2.3,2.2,3.6,2.7,5.1c0.3,0.6,0.2,1.9-0.3,2.2
	c-3.2,2.1-0.6,3.1,1,3.5c3.6,1.1,7.3,1.7,11,2.5c0.7,0.2,1.5,0.2,2.2,0.6c-4.9,1.5-9.4-0.5-14.4-1.5c0.7,1.7,1.3,3.2,1.9,5
	c-1,0.5-2,1.1-3.1,1.6c3.1,9.8,9.7,8.9,21.1,10c-3.4,0-6.9,0.3-10.3-0.1c-3.4-0.4-6.6-1.6-10.4-2.6c0.3,1,0.4,1.9,0.9,2.6
	c2.3,3.2,1.9,4.4-2,5.5c0.3,2.8,1.4,4.7,4.7,5.2c4.4,0.7,8.6,1.6,13,0.1c1-0.3,2.2,0,3.3,0c0,0.3,0,0.7,0,1c-6,0-12,0-18,0
	c-0.6,0-1.6,0.4-1.7,0.7c-0.3,1.2-0.5,2.5-0.2,3.6c1.7,6.2,7.1,6.8,12.5,7.1c2.1,0.1,4.3,0,6.4,0.3c-6.3,1.3-12.4,0.6-19-1.1
	c0.5,1,1.3,2,1.5,3.1c0.3,1.5,1,3.5,0.3,4.6c-2.2,3.7-0.9,5.6,2.2,7c2.4,1,5.4,1,8.2,1.3c1.4,0.2,2.9,0,4.3,0.6c-4.6,0-9.3,0-14.4,0
	c-0.5,0.4-1.5,1.3-2.4,2c1.3,8.3,8,9.2,14.5,10c2.8,0.4,5.6,0.3,8.4,0.4c-3.9,2.6-11.3,1.5-22.3-3.3c-0.7,0.6-1.3,1.2-1.6,1.3
	c3.5,5.7,8.7,7.7,15,7.5c5.5-0.2,11.9-2.1,14-8.5c-2.6-2-5-3.3-8.8-2.6c-2.7,0.6-5.8-0.6-9.3-1c4.1,0,7.5,0,10.9,0
	c4.2,0,6.2-2.6,7.8-5.8c-1-0.5-1.9-1.1-2.4-1.3c0.2-2.1,1.1-4.1,0.4-5.3c-1-1.9-3.3-2.2-5.6-1.6c-3.8,0.9-7.6,1.8-11.4,0.1
	c-0.6-0.3-1.2-0.6-1.7-1.1c8.2,1.6,15.7,1.7,19.7-8.1c-3.3-0.7-6.3-1.7-9.5-2.1c-3.1-0.4-6.2-0.1-9.3-0.1c0-0.5,0-0.9,0-1.4
	c1,0,2,0,3.1,0c3.6-0.2,7.3-0.1,10.9-0.8c1.3-0.3,2.2-2.4,3.1-3.7c0.6-0.9,0.8-2,1.3-3.2c-3.2-0.8-3.5-2.7-1.5-5.4
	c-6.1-0.3-11.7-0.6-17.4-0.9c-0.1-0.4-0.1-0.8-0.2-1.3c9.3,2.3,15.6-0.5,18.3-9.8c-4.1-1.3-8.1-1.5-12.4-0.2c-1.6,0.5-3.5,0.1-6,0.1
	c5.2-1.6,9.4-2.9,13.6-4.4c1-0.4,1.8-1.5,2.4-2.5c0.6-1,0.8-2.2,1.2-3.5c-4.8-3.8-11.7-0.5-16.8-4.1c6.6,1,13.1,1.9,17.8-4.3
	c-1.5-1.9-2.8-3.4-4.3-5.2c-5.1,0.1-10.9,2-16-1.8c7,4.5,12.7,0,19-2.1c-3.5-2.9-3.5-3-0.6-6.9c-6-2.4-12.8,0.9-18.3-2.7
	c6.5,2.1,12.4-0.1,18.3-2.1c0.5-0.2,1.7,0.5,1.8,0.8c0.1,1.6,0.6,3.7-0.3,4.7c-1.8,2.2-1.6,3.3,0.9,4.4c0.4,0.2,0.6,0.6,1,1
	c-0.6,1.3-1.4,2.6-1.9,3.9c-0.3,0.7-0.5,2-0.2,2.2c3.4,2.3,1.2,4.7,0.4,7.3c3,1.3,1.9,3.5,1,5.5c-1,2.3-2.1,4.1,0.5,6.4
	c0.9,0.8,0.3,3.7-0.2,5.5c-0.5,1.8-1.6,3.5-2.4,5.3c4.2,1.7,4.2,1.8,2.2,5.4c-0.4,0.7-0.5,2.2,0,2.5c2.4,1.8,1.5,3.9,0.3,5.5
	c-1.8,2.3-2.2,3.7,1,5c2.3,1,1.4,2.9,0.6,4.3c-1.5,2.3-2.3,4.4,0.6,6.3c0.4,0.3,0.3,1.6,0.1,2.3c-0.3,1-0.9,2-1.4,3
	c4.2,3,0.7,5.7,0,7.7c2.1,2.3,4.3,4.2,5.7,6.5c1,1.7,1.1,3.9,1.3,6c0.3,3.4,0.4,6.8,0.7,10.2c0.1,1.9-6.5,13.4-8.2,13.6
	c-2.6,0.3-5.2,0-7.8-0.1c-1.8,0-3.7-0.2-5.5,0c-4.3,0.5-8.1,0-11.5-3.3c-3-3-6.7-5.2-10-7.9c-0.7-0.6-1.5-1.7-1.5-2.5
	c0-2.9,0.3-5.8,0.7-8.7c0.1-0.7,0.8-1.7,1.5-2c2.3-1.2,3.1-2.9,4-5.4c1.1-3,1.2-5.1-0.4-7.7c-0.3-0.5,0.5-2.1,1.2-2.4
	c2.6-1.1,1.7-2.6,0.7-4.1c-1.3-1.8-1.3-3.4,0.4-5.1c1.4-1.3,1.8-2.7,0-4.4c-1.4-1.4-3.4-3.3-0.3-5.3c0.3-0.2-0.4-1.7-0.6-2.7
	c-0.3-1.2-1-2.5-0.9-3.6C121.7,429.3,121.9,429.4,120,425.6z M124.4,319.4c5-0.6,10.1-0.6,14.3-4.2c2.2-1.9,2.5-3.9-0.2-5.2
	c-1.5-0.7-3.3-1.4-4.9-1.4c-4.3,0-8.6,0.2-12.9,0.6c-2.7,0.2-5.2,3.2-5.2,5.7c0,2.1,2.2,4.1,5.2,4.5
	C121.9,319.6,123.1,319.4,124.4,319.4z M118.4,321.8c-0.8,2.3,0.9,4.1,3.6,4.9c2.9,0.9,6,1.8,9,1.8c3.5,0,7-0.9,10.4-1.4
	c0.3-1.3,0.5-2.2,0.8-3.6c-4.8,0.2-9.6,0.4-14.5,0.7c6.1-1.5,12-2.9,18-4.3c0-0.5,0-0.9,0-1.4c-1.1-0.4-2.3-1.3-3.4-1.1
	c-3.5,0.6-6.9,1.8-10.4,2.4C127.6,320.4,123.3,321,118.4,321.8z M120.1,475.9c1.2,1,2,2,3.1,2.6c3.3,2,5.9,5.3,10.9,3.9
	c3.8-1.1,8.1-0.5,12.1-0.9c1.4-0.2,3.1-0.9,4.1-1.9c1.8-1.9,3.3-4.1,4.5-6.3c0.6-1.2,2-3.1-0.8-4.6c-2.9,6.3-8.1,10.1-15,10.4
	c-6.2,0.2-13.3,1.3-16.8-6.6C121.3,473.9,120.7,474.8,120.1,475.9z M118.7,477.7c-1.4,8.1,5.6,11,9.5,15.8c0.1-2.6-0.2-5.1-0.7-7.6
	c-0.2-1.2-0.6-2.7-1.5-3.4C123.9,480.8,121.4,479.5,118.7,477.7z M146.4,484.1c-0.6,0.1-1.1,0.2-1.7,0.2c0.6,4.3,1.3,8.6,1.9,12.9
	c0.5-0.1,0.9-0.1,1.4-0.2C147.5,492.8,146.9,488.4,146.4,484.1z M149.7,496.7c1.2-4.3,0-8.5-1-12.7
	C146.3,488.4,149.7,492.4,149.7,496.7z M141.1,496.6c0.5,0,0.9-0.1,1.4-0.1c-1.3-3.9,0.2-8.2-2.2-11.8c-0.3,0-0.6,0.1-0.8,0.1
	C140,488.7,140.6,492.7,141.1,496.6z M143.8,496.8c1.8-2.6,0.9-9.7-1.8-12.7C142.7,488.6,143.2,492.6,143.8,496.8z M138.4,496.6
	c0.3,0,0.5,0,0.8-0.1c-0.1-4,1-8.2-2.2-11.7C137.4,488.7,137.9,492.6,138.4,496.6z M135.8,484.8c-0.4,0-0.8,0.1-1.2,0.1
	c0.4,3.8,0.8,7.6,1.2,11.5c0.4,0,0.8-0.1,1.2-0.1C136.6,492.5,136.2,488.6,135.8,484.8z M133.5,494.9c0.3,0,0.6-0.1,0.9-0.1
	c-0.3-3.2-0.7-6.4-1-9.6c-0.4,0-0.8,0.1-1.2,0.1C132.6,488.5,133.1,491.7,133.5,494.9z"/>
<path class="st0" d="M276.2,171.5c-0.2,3.6-0.6,6.4-0.5,9.2c0.3,6.9,3.3,12.9,8,17.9c3.6,3.8,8.3,6.7,12.5,9.9
	c1,0.8,2.3,1.4,3.6,1.7c6,1.6,9.4,5.7,8.4,11.8c-0.5,3.6-1.7,7.5-3.9,10.4c-3.4,4.5-8.9,5-14.3,4.5c-2.1-0.2-4.2-0.9-6.3-1
	c-1.1-0.1-2.4,0.4-3.2,1.1c-7.1,6.5-20.3,6.7-25.2,1c-1.9-2.1-2.8-4.2-2-6.7c0.5-1.7,0.2-2.1-1.4-2.8c-7-2.8-13.3-6.4-16.6-13.7
	c-2-4.4-2.2-8.7-0.6-13c0.9-2.5,2.7-4.8,4.1-7.1c0.9-1.4,2.1-1.7,3.7-0.8c7.6,4.2,13.3,0.7,19.1-4.1c3.9-3.2,5.8-7.5,8.4-11.5
	c1.2-1.8,2.4-3.6,3.7-5.3C274.2,172.4,275.1,172.1,276.2,171.5z M271.2,200.9c0.3-0.2,0.6-0.4,0.8-0.6c0.6,0.5,1.5,1,1.7,1.6
	c0.4,1.5,0.5,3.1,0.7,4.7c1,7.8,3,15.4,7.7,22c2,2.8,4.7,5.8,8.7,4.6c4.6-1.5,8.5-4.4,11.1-8.5c0.5-0.8,0.1-2.2,0.1-3.2
	c-0.3-0.2-0.7-0.4-1-0.6c-2.2,6.9-7.6,8.6-13.9,8.7c4.7-1.6,9.9-2.4,12.3-7.7c0.7-1.5,1.3-2.7-0.9-3.5c-2.3,2.9-4.8,5.5-8.7,6.7
	c2.6-2.3,4.9-4.2,7.1-6.4c0.5-0.5,0.3-1.7,0.4-2.5c-0.9,0-2.1-0.2-2.8,0.2c-2,1.1-3.8,2.8-5.9,3.7c-2.1,0.8-4.5,2-7.7,0.1
	c6.2,0.2,10.7-1.5,13.8-6.1c-1.2-0.7-2-1.3-2.9-1.8c-2.4,3.1-7.4,4.7-12.2,3.5c0.9-0.3,1.4-0.5,1.9-0.7c2.4-0.8,4.9-1.4,7.2-2.4
	c0.7-0.3,0.8-1.6,1.2-2.5c-1-0.2-2-0.7-2.8-0.5c-3.2,0.7-6.4,1.7-9.6,2.6c-0.1-0.2-0.1-0.4-0.2-0.6c3.3-1.2,6.7-2.5,10.1-3.8
	c-1.5-2-1.5-2-3-0.7c-1.5,1.3-3.1,2.7-5.6,0.8c1.7-0.6,3.3-1,4.5-1.7c0.7-0.4,0.9-1.5,1.4-2.2c-0.8-0.2-1.7-0.5-2.5-0.5
	c-1.6,0.1-3.2,0.3-4.8,0.5c0-0.2,0-0.5,0-0.7c1.8-0.5,3.6-1,5.6-1.5c-1.7-2.5-3.2-4.6-4.5-6.5c-2.1,0.4-3.8,0.7-5.6,1.1
	c0-0.2-0.1-0.4-0.1-0.5c1.7-0.6,3.5-1.2,5.9-2.1c-1.8-2-3.1-3.5-4.4-5c2.9-2.4-1.4-5.5-0.2-8.4c-2.5,3.2-2.9,6.6-1.4,9.5
	c-2.9,1.2-3.2,2.4-1.3,4.7c-1,0.6-3.9,8.5-3.4,9.5c0.1,0.3,0.4,0.4,0.6,0.7c0.7,0.9,1.4,1.9,2,2.9c-0.1,0.2-0.3,0.3-0.4,0.5
	c-1-0.7-2-1.5-3-2.2c-0.2,0.1-0.4,0.2-0.6,0.3c1.2,1.9,2.3,3.7,3.5,5.6c-0.2,0.1-0.4,0.3-0.6,0.4c-1-1.1-2-2.1-3.2-3.4
	c-1.8,4.3,2.3,5.5,3.6,8.2c-1.5-1-3-2-4.5-3c-0.3,0.4-0.6,0.8-0.9,1.2c2.2,1.8,4.3,3.7,6.5,5.5c-0.2,0.2-0.3,0.5-0.5,0.7
	c-1.8-1.1-3.7-2.1-6-3.5c1.1,4.2,4.7,5.8,6.8,8.7c-1.7-1-3.3-2.1-5.7-3.6c3.5,5.9,9.8,8.6,14,6.6
	C274.6,220.6,272.6,210.8,271.2,200.9z M242.6,206.7c-0.3,0.8-0.9,1.5-0.8,2.1c1.1,4.9,3.1,9.3,8.2,11.7c4,1.9,5.3,1.6,7.8-1.9
	c0.4-0.5,0.7-1,0.9-1.6c1.3-3.6,2.7-7.2,3.9-10.8c2.3-6.9,4.6-13.8,6.9-20.6c-0.2-0.1-0.3-0.2-0.5-0.3c-1.3,1.5-2.6,3-3.8,4.4
	c0.4,0.9,0.7,1.7,1,2.4c-1.3,0.1-2.5,0.2-3.9,0.3c0.7,1.6,1.1,2.6,1.4,3.6c-0.2,0.1-0.4,0.2-0.6,0.3c-0.8-0.6-1.5-1.2-2.3-1.8
	c-0.3,0.1-0.6,0.2-0.9,0.3c0.6,2,1.2,3.9,1.8,5.9c-0.1,0.1-0.2,0.1-0.3,0.2c-1.1-1.4-2.2-2.8-3.5-4.4c-1.9,3.3,1.6,4.6,2.1,7
	c-1.2-0.7-2.3-1.6-2.9-2.7c-0.9-1.5-1.6-2.4-3.3-0.8c1.3,2.3,2.7,4.5,4,6.8c-1.6-0.9-2.7-2.2-3.8-3.5c-2-2.5-2-2.5-4.1-1.7
	c2,3.1,3.9,6,5.8,9c-4.3-1.1-4.8-5.5-7.3-8.9c-0.4,1.2-1.1,2-0.9,2.6c1,3.8,2.8,7.2,6.5,9.3c-2-1-3.9-2.2-5.2-3.8
	c-1.4-1.7-2.3-3.8-3.5-5.7c-0.3,0.1-0.5,0.3-0.8,0.4c-0.4,5.4,1.9,9.4,7,12.1C245.9,215.7,244.4,211.3,242.6,206.7z M292,234.4
	c8.8-1.4,12.1-3.8,11.7-8.1C299.9,228.9,296.1,231.6,292,234.4z"/>
<path class="st0" d="M206,6.6c2.9-3.9,7.3-5.4,12-6.4c4-0.8,6.8,1.1,8.9,3.8c1.2,1.7,1.3,4.1,2.3,6c0.7,1.3,1.9,3,3.2,3.4
	c7.9,2,12.5,8.1,11.8,16.1c-0.5,5.5-4.3,9.4-9.7,11.5c-7.8,3-16,5.1-23,10.1c-2.9,2.1-5.5,4-6.2,7.7c-0.1,0.7-0.9,1.4-1.4,2
	c-0.4-0.8-1.1-1.6-1.2-2.4c-0.5-7.4-3.3-14.1-8.1-19.8c-2.7-3.2-6-5.9-8.8-9c-2.9-3.2-3.2-7.2-3.3-11.2c0-0.5,0.1-1,0-1.5
	c-0.7-2.7-1.3-5.4,0.6-7.7c2.7-3.3,6.2-5.9,10.6-6.9c1.3-0.3,3,0.5,4.4,1C200.7,4.2,203.2,5.3,206,6.6z M217.1,18.1
	c-2-3.7-5.6-4.8-9.4-5.7c-0.5-0.1-1.6,0.3-1.7,0.6c-0.2,0.8-0.4,2,0,2.6c0.7,0.9,1.9,1.5,2.9,2.1c1.7,1.1,3.4,2.1,5.1,3.1
	c-0.1,0.2-0.2,0.4-0.4,0.6c-2.9-1.4-5.9-2.8-8.9-4.2c-0.3,0.4-0.6,0.7-0.8,1.1c-0.4,1.1-0.8,2.1-1.2,3.2c1.2,0.4,2.5,0.8,3.7,1
	c1.8,0.3,3.7,0.3,5.5,0.9c1.3,0.4,2.4,1.5,3.6,2.3c-0.2,0.2-0.3,0.4-0.5,0.6c-3.5-3.2-8.3-1.9-12.4-3.2c-2.6,3,0.2,6.1-0.4,8.7
	c2.3,0.5,4.2,0.8,6,1.2c-0.1,0.3-0.1,0.6-0.2,0.9c-1.7-0.2-3.5-0.3-5.2-0.5c0,1.4,0,2.4,0,3.3c2.1,0.3,4,0.6,5.9,0.8
	c0,0.3,0,0.6,0,0.9c-1,0.1-2.2,0.5-3.1,0.2c-2.2-0.8-2.6,0.4-2.2,1.8c0.3,1.2,1.4,2.2,2.2,3.3c-2.9,2.5,0.3,5,0.4,7.7
	c0.3,0.1,0.6,0.1,0.9,0.2c1.1-2.1,2.2-4.3,3.2-6.2c0.3,0.4,0.8,1.2,1.3,1.9c0.3,0,0.6,0,0.9,0c0.4-1.6,0.7-3.2,1.2-5.2
	c0.7,1.1,1.2,1.9,1.8,2.8c4.6-0.8,2.2-5,4.2-8.1c0.2,2.4,0.3,3.9,0.4,5.6c1.1-0.1,2-0.1,2.8-0.2c0.6-3.9,1.1-7.6,1.6-11.2
	c0.2,0,0.4,0,0.6,0c0,3.4,0,6.7,0,10.8c4.4-4.6,2.6-9.4,3-14c0.7,1.9,1.1,3.8,1.2,5.7c0.1,2,0,4.1,0,6.5c4-2.9,2.2-7.2,3.2-10.6
	c0.3,0.1,0.5,0.1,0.8,0.2c0,2.8,0,5.6,0,8.4c3.8-4.5,3.9-9.1,0.1-14.3c5.1,2.2,3.5,6.4,4.7,9.6c2.6-2.8,2.5-6.7,0-11
	c-1.9-3.4-5.8-5.2-10-4.5c0,0.5,0,1-0.1,1.5c-2.5,9.3-9.7,15.6-15.7,22.7c-0.2,0.3-1.1,0.1-1.7,0.2c0.1-0.5,0-1.1,0.3-1.5
	c2.9-3.6,6-7.1,8.8-10.8c2.8-3.8,5.3-7.6,5.4-12.7c0.1-6.5-4.7-11.2-10.1-12.4c-1-0.2-2.2,0.7-3.2,1.1c0.7,0.6,1.2,1.3,2,1.8
	c2.3,1.8,4.7,3.5,7,5.2c-0.2,0.2-0.3,0.4-0.5,0.6c-2.2-1.4-4.4-2.7-6.6-4.2c-2.6-1.8-4.2-0.3-5.9,1.6
	C213.5,12.6,216.5,14.7,217.1,18.1z M187.2,25.2c2.2-1.7,4.1-3.1,6-4.6c-4.8,4.8-5.5,6.6-2.9,8.8c1.7-1.4,3.3-2.9,5-4.3
	c0.2,0.2,0.4,0.4,0.6,0.6c-1.5,1.6-3,3.2-4.8,5.1c1,0.9,1.8,1.6,2.6,2.3c0.9-0.5,1.6-0.9,2.6-1.4c-1.3,3.4,0,6.6,2.7,8.1
	c-0.2-5.4-0.8-11.1-0.6-16.8c0.2-5-1.7-8.8-5.2-11.9c-1.1-0.9-3.6-1-5.1-0.5c-1.4,0.5-2.2,2.4-3.3,3.6c0.2,0.2,0.5,0.3,0.7,0.5
	c1.4-0.6,2.8-1.2,4.3-1.8c0.2,0.2,0.5,0.4,0.7,0.6c-2.4,1.6-5.8,2.7-4.1,7.3c1-1.4,1.6-2.4,2.4-3.3c0.8-0.8,1.9-1.4,2.9-2.1
	C190.4,18.8,185,19.9,187.2,25.2z"/>
<path class="st0" d="M235.9,137.2c-0.2-0.3-0.8-1-1.1-1.8c-1.9-4.5,0.4-8.6,1.4-12.8c2.2-8.7,1-17.1-3-24.8
	c-1.7-3.2-5.6-5.3-8.5-8.1c-0.8-0.8-1.8-1.9-1.8-3c-0.4-9.5,10.5-14.3,17.8-11.2c1.1,0.5,2.2,1.1,3.5,1.7c4.7-3.2,9.7-7,15.9-5.2
	c6,1.7,9.7,6,9.9,12.5c2.8-0.4,5.3-1,7.9-1.2c4.9-0.3,9,2.8,9.6,7.4c0.5,4.1,0.9,8.5-2.5,11.9c-1.9,2-4.3,3.7-6.7,5.1
	c-6.2,3.4-12.7,6.3-18.9,9.6c-4.8,2.6-9.9,5.1-14,8.5C241.8,128.9,239.3,133.1,235.9,137.2z M271,108.5c0.3,0.1,0.6,0.1,0.9,0.2
	c2.5-3.5,2.9-7.5,2.6-11.7c0.3,0,0.5,0,0.8,0c0,3.1,0,6.2,0,9.7c4.3-2.7,5-6.2,3.5-10.5c1,0.1,1.7,0.2,1.9,0.3
	c0.2-1.1,0.4-1.9,0.6-2.7c0.3,0,0.5,0,0.8,0c0.2,2.3,0.3,4.6,0.5,6.9c1.2-1,1.9-2,2.4-3.2c1.6-3.5-0.3-6.5-2.7-8.3
	c-1.4-1.1-4.6-0.9-6.6-0.2c-5.6,2.1-9.7,6.1-12.6,11.2c-0.7,1.3-1.9,2.3-2.9,3.5c-0.4-0.2-0.7-0.5-1.1-0.7c0.5-1.3,0.9-2.7,1.6-4
	c1.9-3.7,3.9-7.4,5.7-11.1c0.4-0.8,0.4-2.4-0.1-2.9c-2.4-2.5-5-4.9-7.8-6.9c-3.7-2.7-9.8,0.1-10.7,4.6c7.4-3.4,14-2.9,15,1.3
	c-6.6-3.3-13.6-2.2-15,1.9c4.2,0.2,8.5,0.4,12.8,0.6c0,0.3,0,0.7,0,1c-4.4-0.1-9.1-1.8-13.1,1.7c4.1,1,8.6-1.1,12.9,2.1
	c-3.6,0-6.6-0.1-9.6,0.1c-0.7,0.1-1.3,1.3-2,2c0.8,0.5,1.6,1.4,2.5,1.5c2.2,0.2,4.5,0.1,6.8,0.1c-8.7,1.1-8.7,1.1-8.3,4.2
	c2.3,0.1,4.7,0.2,7,0.3c0,0.3,0,0.7,0,1c-1.4,0-2.9-0.2-4.2,0.1c-1.1,0.2-2.1,1-3.2,1.6c0.8,0.5,1.6,1,2.3,1.6
	c0.2,0.2,0.4,0.5,0.4,0.5c-1.1,0.5-2.9,0.8-3.2,1.7c-1.9,4.8-3.5,9.6-5.2,14.5c-0.3,0.8-0.8,1.6-1.2,2.4c-0.7,1.1-1.4,2.3-2.1,3.4
	c0.2,0.2,0.4,0.3,0.6,0.5c2.2-1.6,4.4-3.3,6.3-4.8c0-1.6,0-2.8,0-4.1c0.3,0,0.5,0,0.8,0c0.3,1.2,0.5,2.3,0.8,3.4
	c4.7-1.3,1-5.2,3.4-7.8c0.1,2.1,0.2,3.6,0.3,5.2c4.4-1.5,1-6.1,4.2-8.5c-0.2,2.3-0.4,4.2-0.6,6c0.3,0.1,0.5,0.3,0.8,0.4
	c0.8-1.2,1.9-2.3,2.5-3.5c0.6-1.3,0.7-2.8,1.1-4.6c2.5,1.3,0.6,3.4,1,5.5c3.6-2.2,1.9-6.2,4.3-9.1c0,2.5,0,4.6,0,6.9
	c5.3-1.4,3.5-6,5.2-9.1C271,104.3,271,106.4,271,108.5z M241,120.5c1.4-4,3.5-7.6,3.7-11.2c0.5-8.4,0.9-17-2.5-25.2
	c-2-4.8-5.3-7.1-10.7-6.2c-3.6,0.6-6.6,5-5.1,9c1.6-1.4,2.7-3.5,4.4-4.8c2.9-2.2,4.1-2.1,5.7-0.3c-6.4,0.9-7.6,1.9-8.4,7.5
	c1.3-1.2,2-2.1,3-2.7c0.8-0.5,1.8-0.6,2.7-0.9c0.1,0.3,0.3,0.5,0.4,0.8c-2.3,0.7-3.8,1.9-3.5,4c2-0.9,3.8-1.7,5.6-2.5
	c0.2,0.3,0.3,0.7,0.5,1c-0.8,0.3-1.7,0.5-2.2,1.1c-0.7,0.7-1,1.8-1.5,2.7c0.8-0.1,1.6-0.1,2.5-0.2c1.6-0.2,3.1-0.5,4.7-0.8
	c0,0.2,0.1,0.4,0.1,0.6c-1.8,0.9-3.6,1.7-5.4,2.6c0.1,0.3,0.2,0.7,0.3,1c0.7-0.1,1.5-0.3,2.2-0.3c1.1,0,2.2,0,3.3,0.1
	c0.1,0,0.2,0.7,0.2,0.8c-0.9,0.3-1.8,0.6-2.7,0.9c-0.3,0.1-0.5,0.3-1.2,0.9c1.3,1.2,2.5,2.3,3.6,3.2c-0.5,0.7-1,1.5-1.5,2.2
	c1.3,0.7,2.6,1.4,3.7,2c-3.9,2.7-3.9,2.7-1.9,4.5C241,113.8,241,116.8,241,120.5z"/>
<path class="st0" d="M267.1,138.3c6.8-1.6,12.4,1.1,18.1,3.1c9.2,3.2,16.7,8.5,21.9,16.5c2.3,3.5,4.9,7.1,4.4,11.8
	c-0.7,7.3-5.2,10.5-11.9,9.5c-7.8-1.2-10.2-4.5-11.5-12.5c-0.9-5.6-3.5-10.6-7-15.3c-3.4-4.6-7-8.9-12.6-11.1
	C268,140.1,267.7,139.1,267.1,138.3z M274.2,139.9c0.3-0.2,0.6-0.5,1-0.7c0.9,1.7,1.6,3.5,2.9,4.9c5,5.7,9.7,11.6,11.6,19.2
	c1.5,5.9,2.1,8.5,9.8,8.8c4.3,0.2,7.7-2.7,7.4-6.8c-2.3,2.6-5,3.8-8.6,2.5c2.1-0.8,4.2-1.1,5.6-2.3c1.2-1.1,1.6-3.1,2.3-4.7
	c-0.5-0.3-1-0.7-1.5-1c-0.7,1-1.4,2.2-2.3,3.1c-0.8,0.7-1.9,1.2-2.9,1.7c-0.1-0.2-0.3-0.4-0.4-0.7c4.5-3.8,6.6-5.4,2.7-8.3
	c-1.3,1.4-2.6,2.8-4,4.2c-0.2-0.2-0.4-0.4-0.6-0.6c0.9-1.4,1.9-2.8,2.6-4.3c0.3-0.6-0.1-1.4-0.1-2.1c-0.8,0.2-1.9,0.1-2.4,0.6
	c-1.1,0.9-1.9,2.1-3.3,3.7c0-3.2,3.9-4.7,2.1-7.2c-1,1.2-2.1,2.3-3.5,3.8c0.2-3,0.3-4.8,0.4-6.7c-0.4-0.1-0.7-0.1-1.1-0.2
	c-0.8,1-1.6,2.1-2.6,3.5c-0.4-2.3,1.9-5.5-2.5-5.2c-0.3,0.8-0.5,1.6-0.9,2.7c-1.6-1.8,0.2-6.9-3.6-4.6
	C279,142,276.6,141,274.2,139.9z"/>
<path class="st0" d="M249.1,310.6c-1.6-0.3-3.4-0.2-4.8-0.9c-1.3-0.6-2.2-2-3.2-3c1.1-1,2.2-2.7,3.4-2.8c2.7-0.2,5.6,0.1,8.2,0.7
	c1.1,0.3,2.7,2.1,2.6,3c-0.2,1.1-1.9,2.1-3.1,2.7c-0.8,0.4-2,0.1-3.1,0.1C249.1,310.4,249.1,310.5,249.1,310.6z"/>
<path class="st0" d="M185.9,305.1c1.7,0.4,3.4,0.7,5,1.4c1.5,0.6,1.7,3.2,0.4,4.2c-2.4,2-7.9,1.7-9.9-0.7c-0.6-0.7-0.8-2-0.5-2.8
	c0.3-0.7,1.5-1.3,2.4-1.6c0.7-0.3,1.7-0.1,2.5-0.1C185.8,305.4,185.9,305.3,185.9,305.1z"/>
<path class="st0" d="M307,319.3c-0.6,6.5-1.2,13-1.7,19.4c0,0.2-0.1,0.4-0.1,0.6c0.1,5.9,0.3,11.9,0.3,17.8c0,5.5-0.1,11.1-0.3,16.6
	c-0.3,5.9-0.9,11.8-1.2,17.7c-0.3,6.5-0.5,13.1-0.6,19.6c0,3.3,0.6,6.6,0.5,9.9c-0.1,10.5-0.3,21-0.6,31.4
	c-0.3,9.4-0.8,18.9-1.3,28.3c-0.1,1.5-0.6,2.9-1.6,4.4c-0.1-0.6-0.3-1.2-0.2-1.9c0.2-8.4,0.4-16.8,0.6-25.2
	c0.2-6.9,0.4-13.9,0.6-20.8c0.1-4.1,0.5-8.2,0.6-12.3c0-3.1-0.6-6.2-0.5-9.3c0.3-9.7,0.7-19.5,1.3-29.2c0.5-8,1.4-16,1.7-24.1
	c0.2-5.2-0.4-10.4-0.2-15.6c0.3-9.2,1.1-18.3,1.6-27.5C306.3,319.3,306.7,319.3,307,319.3z"/>
<path class="st0" d="M311.6,306.1c-2.6,4.4-9.9,4.4-13.6,1.7c-0.6-0.5-1-1.9-0.8-2.6c0.3-1,1.2-2.1,2.1-2.6
	C302.9,300.8,308.4,302,311.6,306.1z"/>
<path class="st0" d="M137.3,220.2c-0.8,1.9-1.5,3.7-2.6,6.1c-1.9-0.8-4.2-1.5-6.3-2.5c-3.8-1.7-7.5-3.6-11.9-3c-0.3,0-0.9-0.3-1-0.5
	c0-0.4,0.1-1.1,0.4-1.2c0.9-0.4,1.9-1,2.8-0.9c5.9,0.3,11.7,0.8,17.6,1.3C136.6,219.5,136.9,219.8,137.3,220.2z"/>
<path class="st0" d="M120.7,170c3.6-0.7,4.8,1.9,6.5,3.2c3.4,2.7,6.6,5.7,9.8,8.6c0.7,0.6,1.6,1.1,2,1.9c0.4,0.7,0.1,1.7,0.2,2.5
	c-1.1-0.2-2.5,0-3.1-0.6c-4.4-4.3-8.7-8.7-13.1-13C122.3,171.9,121.7,171.2,120.7,170z"/>
<path class="st0" d="M149.1,142.2c0.3,0.9,0.8,1.8,0.7,2.8c-0.1,3.1-0.5,6.2-0.5,9.3c0,2,0.5,4.1,0.8,6.1c0.1,0.5,0.5,1,0.3,1.4
	c-0.5,1.2-1.2,2.3-1.8,3.5c-0.4-1.1-1.2-2.2-1.2-3.3c-0.1-5.3-0.1-10.7,0-16c0-1.2,0.5-2.4,0.8-3.6
	C148.6,142.2,148.8,142.2,149.1,142.2z"/>
<path class="st0" d="M143.8,145.7c0.3,0.5,1,1,1,1.5c0.4,4.4,0.6,8.7,0.8,13.1c0,0.4-0.5,0.8-0.8,1.2c-0.4-0.4-1.2-0.8-1.2-1.2
	c-0.4-4.8-0.6-9.6-0.9-14.4C143.2,145.9,143.5,145.8,143.8,145.7z"/>
<path class="st0" d="M102.6,204.6c-1.8,1.6-3.1,2.7-4.3,3.8c-0.8-1-2.6-2.3-2.3-2.9c0.6-1.4,2-2.6,3.4-3.6
	C99.5,201.7,101,203.2,102.6,204.6z"/>
<path class="st0" d="M116.2,207.5c-0.5-4,0.3-5.8,2.8-5.8c1.9,0,2.8,1.2,2.6,3C121.5,206.8,119.4,207.9,116.2,207.5z"/>
<path class="st0" d="M384.3,42.5c3.7-1.7,7.3-3.4,11-5c0.6-0.2,1.5,0.3,2.3,0.5c-0.6,0.4-1.1,0.8-1.7,1.1c-3,1.6-6.1,3.2-9.1,4.7
	c-0.6,0.3-1.4,0.2-2.2,0.2C384.5,43.5,384.4,43,384.3,42.5z"/>
<path class="st0" d="M475.1,289.2c2.4-1.8,4.6-4.1,7.3-5.3c5.3-2.3,10.9-2.2,16.3,0.4c0.6,0.3,1.2,0.7,1.2,1.4
	c-2.7-0.7-5.4-1.6-8.1-2c-5.5-0.8-10.2,1.4-14.6,4.4C476.5,288.5,475.7,288.7,475.1,289.2L475.1,289.2z"/>
<path class="st0" d="M210.4,28.7c-2.4-0.1-5-0.3-7.4-0.4C205.6,26.1,208,26.3,210.4,28.7z"/>
</svg>
