<?xml version="1.0" encoding="utf-8"?>
<!-- Generator: Adobe Illustrator 16.0.0, SVG Export Plug-In . SVG Version: 6.00 Build 0)  -->
<!DOCTYPE svg PUBLIC "-//W3C//DTD SVG 1.1//EN" "http://www.w3.org/Graphics/SVG/1.1/DTD/svg11.dtd">
<svg version="1.1" id="Layer_1" xmlns="http://www.w3.org/2000/svg" xmlns:xlink="http://www.w3.org/1999/xlink" x="0px" y="0px"
	 width="1000px" height="500px" viewBox="0 0 1000 500" style="enable-background:new 0 0 1000 500;" xml:space="preserve">
<style type="text/css">
<![CDATA[
	.st0{fill-rule:evenodd;clip-rule:evenodd;}
]]>
</style>
<path class="st0" d="M172.8,0c3,0.5,6.1,1.1,9.1,1.6c2.2,0.4,4.5,0.6,6.7,0.9c-0.2,4.2-2.1,5.5-5.7,5.4c-9.1-0.4-18.2-0.6-27.3-0.8
	c-6.8-0.2-13.5-0.4-20.3-0.5c-2.9,0-5.7,0.5-8.6,0.4c-6.2-0.1-12.4-0.6-18.6-0.6c-4,0-8,0.8-12.4,1.3c1.6,5.3,3.1,11.1,5,16.7
	c2.6,7.5,6.1,14.7,8.4,22.2c3.6,11.8,6.5,23.8,9.6,35.7c1,3.6,1.8,7.2,2.7,10.8c2.6,10.2,5.3,20.3,7.9,30.5
	c3.2,12.1,6.7,24.2,9.5,36.4c2.9,12.8,5,25.8,7.4,38.7c1.4,7.6,2.5,15.2,3.9,22.8c0.5,2.7,1.6,5.3,2,8c0.1,1-0.9,2.1-1.4,3.1
	c-0.7,0-1.4-0.1-2-0.1c-1.4-4.9-3.1-9.8-4.2-14.8c-2.6-11.5-5-23-7.5-34.6c-2.5-11.1-4.9-22.2-7.6-33.2c-2.9-11.8-6.1-23.6-8.9-35.4
	c-2.5-10.7-4.5-21.5-7.1-32.1c-1.8-7.4-4.2-14.8-6.5-22.1c-3.9-12.2-8-24.4-12.5-37c-1.4,5.6-7.1,4.4-11.4,6c2,4.6,4.3,9,5.8,13.5
	c4.8,14.8,9.4,29.7,14,44.6c2.5,8.2,5.3,16.4,7.1,24.8c1.8,7.9,2.4,16.1,3.8,24.1c0.8,4.6,2.2,9.1,3.2,13.7
	c1.8,8.1,3.5,16.3,5.3,24.4c1.2,5.2,2.5,6.3,9.7,7.6c-1.3,1.7-2.2,4.3-3.6,4.5c-8,1.2-9.3,0.6-10.5-3.9c-2.3-8.8-5-17.5-6.7-26.3
	c-2.1-10.6-2.9-21.4-5-31.9c-1.7-8.6-4.1-17.1-6.5-25.7C96.5,86.9,93.1,75,89.5,63.3c-2.3-7.3-5.2-14.4-7.9-21.6
	c-0.8-2-1.6-4.5-5.2-2.6c-0.7,0.3-1.9-0.1-2.9-0.3c-4.9-0.6-6.1,0.6-5,4.7c5,18.3,10.3,36.6,14.6,55c2.9,12.1,4.2,24.5,6.3,36.7
	c1,5.9,1.8,11.9,3.1,17.7c0.3,1.4,2.6,2.5,4.1,3.6c1.4,1,3.1,1.8,5.2,2.9c-1.8,1.3-3.2,3.2-4.3,3.1c-3.5-0.4-7-1.2-10.2-2.5
	c-0.8-0.3,0-3-0.5-4.4c-3.9-10.6-3-21.6-3.7-32.4c-0.4-6.2-3.1-12.3-4.7-18.4c-2.8-10.7-6.6-21.3-8-32.1c-1.1-8.5-4.4-16.3-5.9-24.6
	c-0.3-2-2.1-3.8-2.9-5.1c-3.9-0.3-7.3-0.6-10.9-0.8c0.2,3,0.7,6.4,0.8,9.8c0.2,7.5,0.2,15.1,0.2,22.6c0,5.4-0.4,10.7-0.4,16.1
	c0,6.5,0.7,13,0.4,19.4c-0.2,3.6-1.8,7.2-2.8,10.7c-0.6,2.1-0.1,3.2,2.8,3.7c3.7,0.6,7.4,1.9,10.9,3.2c0.8,0.3,1.6,2.2,1.3,3
	c-0.4,0.9-2.1,2.2-3,2.1c-5.2-0.5-10.3-1.5-15.5-2c-4.9-0.4-4.6-4.6-4.1-6.2c4.1-12,3.9-24.2,3.9-36.5c0-5.6,1.5-11.2,1.5-16.9
	c0-8.1-0.6-16.1-1.1-24.2c-0.2-3.4-1.1-6.9-1.2-10.3c0-0.7,2.3-2.1,3.1-1.9c3.1,0.8,6.1,2.1,9.2,3.1c1.3,0.4,2.7,0.6,4.3,0.8
	c-0.3-1.9-0.5-3.7-0.9-6.2c5.9,0.3,11.3,0.6,16.6,0.8c-0.5-2.4-1.1-4.7-1.4-7.1c-0.5-4.2,1.3-5,5.7-4c3.7,0.9,7.8,0.8,13.1,1.2
	c-1.7-4.3-2.6-8.1-4.6-11.5C88,9.7,88.6,8.2,90,6.4c0.6-0.8,1-1.6,1.5-2.6c3-0.4,6.5-0.5,9.6-1.5c7.5-2.5,14.9,0.2,22.4-0.5
	c6.2-0.6,12.5-0.1,18.8-0.2c9.5-0.2,18.9-0.5,28.4-0.8c0.5,0,0.9-0.5,1.4-0.7C172.3,0,172.5,0,172.8,0z"/>
<path class="st0" d="M0,54.8c1.2-4.4,2.5-8.7,3.5-13.1c0.8-3.7,1.1-7.6,2-11.3c0.2-0.9,1.8-1.7,3-2c0.4-0.1,2.1,1.4,2,1.9
	c-2.6,9-1.4,18.6-6.2,27.2C4,57.9,3.5,58.2,2,59.8c-0.7-1.2-1.4-2.3-2-3.4C0,55.8,0,55.3,0,54.8z"/>
<path class="st0" d="M776.3,135.1c7.2-2.1,14-4,20.7-6c6.2-1.9,12.3-3.9,18.6-5.7c3.5-1,7.1-2.5,10.7-2.5c1.7,0,3.6,2.8,5,4.6
	c1.4,1.7,2.2,3.8,3.4,5.6c1.5,2.2,3.1,4.4,4.9,6.4c0.8,0.9,2.2,1.8,3.2,1.8c11.2-0.1,22.5,0.2,33.7-0.9c11.9-1.1,23.6-3.5,35.5-5.2
	c4.4-0.7,8.9-1,13.4-1.7c6.5-1.1,13.1-2.1,19.5-3.6c15.1-3.5,29.1-9.2,42.2-16.8c2.5-1.4,5.6-3.6,8.4-1.6c3.4,2.5,5.1,6,4.3,10.5
	c-1.5,8.5-2.7,17.1-3.4,25.8c-0.9,11.6-0.9,23.3-2,34.9c-0.7,7.3-3.2,14.4-4.4,21.7c-0.9,5.2-1.1,10.5-1.6,15.8
	c-1.4,13.1-3,26.2-4.4,39.2c-0.5,5.3-0.3,10.6-1,15.9c-1.2,9.8-3,19.6-4.2,29.4c-0.9,6.9-1.3,13.8-2,20.7c-0.2,1.8-0.6,3.5-0.8,5.3
	c-1.2,10.6-2.7,21.2-3.4,31.9c-0.6,8.9,0,17.8-0.2,26.8c-0.2,10.6-0.7,21.2-0.7,31.8c0,4.5,0.6,9,1.6,13.5c0.8,3.7,1.4,7.2-1.9,10.1
	c-0.3,0.3-0.7,0.7-0.7,0.9c1.1,6-4.1,5.2-7.9,5.5c-9.4,0.9-18.9,1.3-28.3,2.5c-8.1,1.1-16.1,2.9-24.1,4.6
	c-12.3,2.5-24.5,5.1-36.7,7.9c-6.1,1.4-12,3.3-18.1,4.9c-6.9,1.8-13.8,3.4-20.6,5.3c-15.7,4.4-31.4,8.6-46.9,13.4
	c-9.1,2.9-17.7,6.9-26.6,10.3c-2.6,1-5.5,1.7-8.3,2c-3.1,0.4-6.1-2.1-5.9-4.9c0.4-7,1-14,1.5-21c0.4-4.6-0.4-8.6-4.8-12
	c-1.7-1.3-2-4-3.1-6c-0.8-1.5-1.9-2.9-2.6-4.1c-5.8,1.7-11.2,3.6-16.7,4.9c-10.8,2.6-21.6,5.3-32.6,7.3c-17,3.1-34.1,6-51.3,8.5
	c-14.5,2-29.2,3.3-43.8,4.7c-6.6,0.6-13.4,0.6-20,1.2c-4.6,0.4-9,1.6-13.6,2.2c-2.9,0.4-6,0.2-8.9,0.5c-8.8,0.7-17.5,1.4-26.3,2.3
	c-3.4,0.4-6.8,1.8-10.2,2c-3.7,0.2-7.5-0.2-11-1.2c-3-0.8-2.2-3.4-1.3-5.3c5.2-10.4,4.5-21.5,5.5-33.2c-5.4,0.3-10.1,0.6-14.9,1
	c-6.5,0.5-13.1,0.6-19.5,1.5c-5.8,0.8-11.4,2.5-17.2,3.4c-3.7,0.6-7.6,0.8-11.4,0.3c-0.9-0.1-2.3-3.6-1.8-5.2
	c2.8-8.7,6.2-17.1,9-25.8c2.5-7.8,4.7-15.7,6.8-23.5c2-7.6,3.5-15.2,5.3-22.8c2.3-9.2,5-18.4,7.2-27.7c1.2-5.4,2.1-10.9,2.5-16.3
	c0.5-6.2,0.1-12.4,0.5-18.6c0.9-11.5,2-23,3.1-34.5c0.8-7.8,1.9-15.5,2.6-23.3c0.2-2.8-0.5-5.6-0.5-8.4c0.1-7.6,0.5-15.2,0.5-22.8
	c0.1-14.2-0.3-28.4,0.1-42.6c0.4-12.4,1.5-24.9,2.6-37.3c0.5-6.2,1.8-12.4,2.4-18.7c0.2-1.5-0.3-3.1-1-4.5c-1.3-2.6,0.3-3.6,2.4-4.8
	c6-3.7,13-2.3,19.5-3.2c5.6-0.8,11.5,0.1,17.3-0.2c16.2-0.9,32.5-1.8,48.7-3.1c14.7-1.2,29.5-2.8,44.1-4.8
	c9.1-1.2,18.1-3.1,27.1-5.1c13.1-2.8,26.2-5.8,39.3-9c7.6-1.8,15.1-4.3,22.8-6.1c5.1-1.2,9.4,1.6,8.2,6.9c-1.3,6-1.4,12.2-2.1,19.2
	c6.1-1.5,11.8-2.5,17.3-4.2c6.4-1.9,12.5-4.6,18.9-6.4c2.7-0.7,5.9-0.2,8.8,0.2c3.1,0.4,5,1.8,6,5c2.3,7.2,5.6,14.1,8.6,21
	C772.9,129,774.8,132.2,776.3,135.1z M738.1,137.2c0.9,8.5,1.5,16.2,2.5,23.9c1.2,9.6,2.9,19.1,3.9,28.8c1.2,11.9,1.8,23.8,2.8,35.6
	c0.7,8.5,1.7,16.9,2.5,25.4c0.9,9.5,1.8,19.1,2.7,28.6c0.7,6.5,1.8,13,2.2,19.5c0.5,7.3,0.2,14.6,0.5,21.8
	c0.5,16.1,1.3,32.3,1.7,48.4c0.2,9.1,0.1,18.3,0,27.4c-0.1,5.1-0.9,10.2-0.8,15.2c0.1,5.5,1.3,11,1.4,16.5
	c0.1,7.9-0.3,15.9-0.6,23.8c-0.2,6.3-0.6,12.6-0.9,19c-0.3,5.7-0.7,11.5-0.8,17.2c-0.1,4,2.3,5.6,6,4.3c5.8-2,11.4-4.4,17.2-6.4
	c9.1-3.1,18.2-6.2,27.4-9c10.5-3.2,21.2-6,31.8-8.9c10.9-3,21.8-6.2,32.8-9c11.3-2.9,22.8-5.4,34.2-8.1c6.5-1.5,13-3.4,19.6-4.4
	c13.3-2,26.7-3.6,39.3-5.2c0-3.4-0.1-6.6,0-9.8c0.1-3.2,0.7-6.4,0.7-9.6c-0.1-13.2-0.8-26.4-0.5-39.6c0.2-10.5,1.6-20.9,2.5-31.4
	c0.9-10.8,1.2-21.7,3-32.4s3.5-21.4,4.2-32.2c0.5-7.4,4.1-14.4,3.2-22.1c-0.5-4.1,0.7-8.4,1.1-12.7c0.8-7.5,1.8-15.1,2.5-22.6
	c0.2-2-0.3-4-0.4-6.1c0-0.3-0.1-0.7,0-0.9c1-2.8,2.8-5.6,3-8.5c0.7-8.5,0.7-16.9,1.1-25.4c0.3-6.6,0.3-13.3,1-19.8
	c0.8-7.8,2.5-15.5,3.4-23.3c0.9-7.7,0.3-15.5,4.3-22.7c0.2-0.4,0.4-1.1,0.2-1.5c-0.8-1.3-1.4-3-2.7-3.7c-0.7-0.4-2.7,0.5-3.9,1.1
	c-3.9,2.2-7.5,5.1-11.7,6.8c-7.7,3.2-15.7,6.1-23.8,8.4c-7.9,2.3-16,4.2-24.2,5.7c-9.8,1.8-19.7,3.2-29.7,4.4
	c-11.1,1.4-22.3,2.6-33.5,3.4c-6.6,0.5-13.3,0-19.9,0.1c-5.4,0.1-10.8,0.8-16.2,1c-5.8,0.3-11.6,0.9-17.3,0.3
	c-13.5-1.4-26.8-3.6-40.3-5c-7.6-0.8-15.3-0.4-22.5-3.6C744.7,138.7,741.7,138.2,738.1,137.2z M518,477c8.5-0.7,15.9-1.4,23.2-2
	c5.8-0.4,11.8-0.3,17.6-0.9c13.8-1.4,27.5-3.1,41.3-4.6c6.9-0.8,13.9-1.4,20.8-2.2c10.1-1.3,20.3-2.4,30.4-4.1
	c13-2.3,25.9-5,38.9-7.6c4.6-0.9,9-3.2,13.5-3.2c4.5-0.1,8.1-0.9,11.5-3.2c0.4-0.3,1.3,0.2,1.9,0.1c6.4-1.3,12.8-2.6,19.1-3.9
	c-1-1.8-1.8-3-2.4-4.3c-2.1-4.6-4-9.4-6.3-14c-2.3-4.6-5.3-8.9-7.7-13.4c-1.6-3-2.5-6.2-4.3-9.1c-3.1-4.9-6.9-9.5-9.9-14.4
	c-5.9-9.9-11.1-20-17.2-29.8c-4.1-6.6-9.7-12.4-13.7-19c-4.3-7.2-8.5-14.2-15.6-19.7c-2.2-1.7-3.9-4-5.4-6.2
	c-5.2-7.9-9.8-16.1-15.5-23.6c-4.5-5.9-10.3-11-15.6-16.4c-1.1-1.1-2.7-1.7-3.8-2.7c-8.3-8.8-16.2-17.9-24.9-26.3
	c-6.6-6.4-15.4-11.3-21.3-18.1c-4.3-4.9-9.7-8.4-14.3-12.7c-1.2-1.2-3.3-10.3-2.2-11.1c2.9-2.2,5.8-4.8,9.3-5.9
	c6.7-2,13.9-2.9,20.8-4.6c10-2.5,19.9-5.3,29.9-8c7.3-2,14.9-3.3,21.8-6c11.6-4.5,24.6-4.5,36-9.6c4.8-2.2,10.6-2.6,15.8-4.1
	c4.6-1.4,9-3.4,13.7-4.8c5.4-1.6,11-2.6,16.5-4.1c3.4-0.9,6.6-2.2,10.2-3.4c0-1.9,0.5-4.6-0.1-7c-1.5-5.7-0.4-10.3,5.6-13.3
	c2.1-1,4.8-1.8,7.1-1.5c4.7,0.5,9.2,2,13.9,2.7c5.3,0.8,10.7,1.1,15.5,1.6c-4.9-8.5-9.8-16.5-14-24.7c-1.5-3-2.6-5.6-7-4.9
	c-0.3,0.6-0.6,1.3-0.5,1.3c-3,0.3-5.6,0.3-8,0.9c-6.7,1.7-13.3,3.8-20,5.6c-3.5,0.9-7.1,1.7-10.7,2c-6.6,0.4-12.1,3.7-18.8,4.4
	c-9.3,1-18.2,4.4-27.4,6.1c-10.9,2.1-21.9,3.7-32.9,5.2c-11.1,1.5-22.2,2.6-33.3,4c-5.7,0.7-11.4,1.7-17.2,2.3
	c-10.7,1.1-21.5,2.2-32.2,3.1c-6.6,0.5-13.2,1-19.8,0.7c-5.7-0.2-6.8,0.5-5.8,5.6c0.7,3.7,1.6,7.4,1.7,11.1
	c0.3,8.2-0.3,16.4,0.2,24.5c0.8,12.1,2.3,24.1,3.5,36.2c0.6,6.7,1.6,13.4,1.7,20.1c0.2,14.7,0,29.4-0.2,44
	c-0.1,4.7-1.3,9.3-1.2,13.9c0.1,7.3,1.4,14.5,1.3,21.7c0,6.5-1.2,13-1.6,19.6c-0.7,12.3-1,24.6-2,36.8c-1,11.8-2.8,23.6-4.1,35.5
	c-0.8,6.9-1.3,13.9-1.9,20.8c-0.8,8.7-1.8,17.4-2.6,26.1C518.9,464.5,518.5,470.7,518,477z M731.5,159.7c-5.5,2.2-9.9,4.1-14.4,5.7
	c-7.3,2.6-14.6,5.2-22,7.5c-6.5,2-13.3,3.5-19.9,5.2c-3.9,1-7.6,2.5-11.5,3.4c-6.7,1.6-13.5,2.7-20.2,4.3c-4.6,1.1-9.1,3-13.7,4.3
	c-10.8,3-22,5.1-32.8,8.4c-6,1.8-12.3,4.6-19.5,2.9c-4.6-1.1-6.8,1.8-4.2,5.5c6.2,8.8,12.6,17.5,19.5,25.8
	c5.1,6.1,11.4,11.5,17,17.4c7.5,8.1,14.7,16.4,22.3,24.4c8,8.5,16.1,17,21.6,27c0.3,0.5,0.5,0.9,0.8,1.4
	c8.9,12.4,20.1,23.3,28.3,36.2c5.3,8.3,11.2,16.3,16.1,24.9c6.7,11.9,14.2,23.4,21.1,35.3c4.3,7.3,7.6,15,12.1,22.2
	c5.4,8.6,9.2,17.7,13,26.8c0.7,1.6,1.1,3.2,1.7,4.8c0.7-0.1,1.4-0.1,2.2-0.2c0-4.7,0.1-9.5,0-14.2c-0.3-7.7-0.8-15.4-1-23
	c-0.2-5.5,0-11-0.1-16.6c-0.1-4.4-0.9-8.8-0.7-13.2c0.3-6.7,1.6-13.5,1.6-20.2c0-11-0.5-21.9-1.1-32.9c-0.4-7.5-1.5-14.9-2.3-22.4
	c-0.9-8.9-1.9-17.7-2.9-27.5c-1.5,1.9-2.6,2.9-3.3,4.1c-2.7,4.4-4.8,9.1-8.1,13.1c-2.4,3-5.4,6.3-10.5,6c-4.5-0.3-9-0.8-13.4-1.3
	c-1.3-0.1-2.8-0.3-3.7-1.1c-6.3-5.3-12.9-10.4-18.4-16.4c-6.6-7.1-9.3-15.5-8.1-24.9c0.8-6.3,2.3-12.1,5.3-17.8
	c2.6-4.9,9.3-10.2,15.5-10.7c3-0.3,6-0.8,8.8-1.6c1.2-0.3,2.5-1.4,3-2.4c1.8-4,2.7-8.4,4.9-12.2c4.8-8.6,13.6-13.9,22.5-19.9
	C735.2,185.6,733.4,173.1,731.5,159.7z M705.5,92.1c-2.5,0.4-4.9,0.4-7,1.1c-4.1,1.3-7.9,3.5-12,4.4c-11.3,2.5-22.8,4.5-34.2,6.6
	c-12.1,2.3-24.3,4.6-36.5,6.7c-6.9,1.2-13.8,2.3-20.8,3.1c-6.7,0.8-13.4,1.4-20.1,1.8c-9.7,0.6-19.4,1.1-29.2,1.6
	c-7.1,0.3-14.2,0.6-21.3,0.8c-6.4,0.2-12.9,0-19.3,0.4c-1.7,0.1-4,1.2-4.9,2.4c-2.4,3.2-1.4,7.8-5.1,10.7c-0.1,0.1,0.1,0.5,0.1,0.7
	c0.1,5.6,0.1,11.2-2.2,16.7c-1.2,3.1-0.9,6.7-1.1,10.1c-0.4,6-0.6,11.9-0.9,17.9c-0.4,10.1-0.8,20.3-1.3,30.4
	c-0.1,2.1-0.4,4.2-0.4,6.4c-0.1,6,0,12.1-0.1,18.1c-0.2,8.6-0.6,17.2-0.9,25.8c-0.3,7.4-0.6,14.7-0.9,22.1c-0.1,2-0.3,4-0.3,6
	c0,3.9,0.4,7.8,0.2,11.7c-0.3,4.6-1.1,9.2-1.6,13.8c-0.2,1.6,0.2,3.3-0.1,4.9c-1.4,6.8-3.4,13.5-4.2,20.3
	c-0.7,6.6-1.1,13.2-3.6,19.6c-2.2,5.6-3.6,11.5-5,17.3c-0.7,3-0.9,6.1-1.2,9.2c-0.2,1.7,0.5,3.7-0.4,5c-4.7,7.6-6.6,15.9-9.2,24
	c-3.5,11.1-7.3,22.1-11.1,33.2c19.1-1.9,37.8-3.8,57.1-5.7c0.4-3.4,0.8-7.9,1.6-12.4c1.5-9.2,3.6-18.4,4.7-27.6
	c1.2-9.5,1.5-19.2,2.5-28.7c1-9.6,2.3-19.1,3.5-28.7c1.1-8.6,2.3-17.3,3.3-25.9c0.3-2.6,0.3-5.4,0-8c-0.3-3.7-1.3-7.3-1.4-11
	c-0.3-9.2-0.5-18.4-0.1-27.6c0.3-6.8-3.5-13.6-0.3-20.5c0.2-0.4-0.3-1-0.3-1.5c-0.3-4.2-0.9-8.4-0.9-12.6c0-6.5,0.6-13.1,0.3-19.6
	c-0.3-7.9-1.2-15.9-1.7-23.8c-0.3-5.2-0.1-10.4-0.2-15.6c0-2.9,0.4-5.8,0-8.6c-0.6-5.2-1.6-10.3-2.6-15.4c-0.7-3.5-2.6-7,0.6-10.3
	c0.2-0.2,0.2-0.7,0.1-1.1c-1.4-3.7,1-4.2,4.3-4.2c5.2,0,10.3,0.3,15.4-0.1c10.1-0.8,20.1-2,30.2-3c5.6-0.6,11.3-0.9,17-1.6
	c6.1-0.7,12.2-1.5,18.3-2.4c5.4-0.8,10.8-1.6,16.3-2.4c6.5-1,12.9-2,19.4-3c2-0.3,4-0.5,6-0.8c4.6-0.9,9.2-2.1,13.9-2.9
	c7-1.1,14.1-1.6,21.1-2.8c5.2-0.9,10.3-2.6,15.5-3.9c3.8-1,7.7-1.9,10.7-2.6C705.5,103.7,705.5,98,705.5,92.1z M713.4,238.4
	c-5,0.4-8.5,0.6-12,1.1c-6.8,1.1-11.7,4.5-13.7,10.4c-1.8,5.3-3.7,10.6-4.1,16c-0.4,5.1,1.4,10.2,5.9,14.2c3,2.6,5.8,5.4,8.7,8.1
	c2.3,2.2,4.2,4.8,6.9,6.6c8.2,5.4,15.6,4.4,21.3-1.7c3.3-3.5,6.2-7.7,8.1-12c2.7-6.3,5.1-13,0.9-19.6c-3.8-5.9-7.3-12.1-12.1-17.4
	C720.8,241.4,717.7,237.1,713.4,238.4z M736.7,204.6c-2.3,2-3.9,3.6-5.7,4.8c-6.1,4.1-9.6,9.7-11.9,15.8c-1.1,3-1.8,6.6,3.3,8.7
	c2.8,1.1,5.2,3.7,7.1,6c4.3,5.4,8.1,11.2,12.9,17.8C740.5,239.8,738.7,223.1,736.7,204.6z M798.7,137.2c12.1,3.9,23.6,3.8,35.5,2
	c-3.5-4-6.4-7.5-9.5-10.8c-0.4-0.4-1.8-0.4-2.6-0.2c-2,0.5-4,1.3-6,2C810.3,132.5,804.5,134.9,798.7,137.2z"/>
<path class="st0" d="M333.7,383.5c3.9-0.2,7.8-0.4,11.7-0.5c0.3,0.5,0.5,1.1,0.8,1.6c-1.9,1.3-3.6,2.8-5.6,3.7
	c-4.2,1.9-8.4,3.8-12.9,5.2c-1.6,0.5-5,0.5-5.3-0.2c-0.8-1.6-0.6-3.7-0.3-5.6c0.3-1.9,1.5-3.8,1.8-5.7c2.3-14.5,4.6-28.9,6.7-43.4
	c0.6-3.9,0.5-8,0.8-11.9c0.6-7.5,1.5-15.1,1.8-22.6c0.3-5.9,0.3-11.8,0-17.7c-0.4-8.3-1.1-16.5-1.6-24.7c-0.1-1.4,0.7-2.8,0.7-4.1
	c-0.1-3.2-0.6-6.4-0.8-9.6c-0.2-3-1-6-0.5-8.9c1.7-8.6-2.5-16.3-4.3-24.4c-2.4-10.2-5.3-20.4-8.2-30.5c-1.3-4.5-2.9-9-4.3-13.5
	c-0.1-0.2-0.4-0.5-0.3-0.7c0.6-6.2-3.6-11.4-5.5-17c-3.3-9.5-7.8-18.6-11.4-27.9c-2.9-7.6-5.3-15.3-8-22.9
	c-2.2-6.3-4.5-12.6-9.5-17.8c-0.9-0.9-0.1-3-0.1-5.3c-0.1-0.1-0.9-0.9-1.7-1.6c-2.6-2.1-2.8-3.3,0.7-5.5c9.3-5.9,19.6-5.5,30.1-4.6
	c1.4,0.1,2.8-0.4,4.2-0.6c5.5-0.8,11.2-2.8,16.5-2.2c9.8,1.2,18.8-1.6,27.5-3.9c7.6-2,15.4-1.1,22.8-3.2c6.6-1.8,13.5-2.6,20.4-3.6
	c5.3-0.8,10.8-0.9,16-1.8c6.5-1.1,12.8-2.8,19.2-4.2c9.2-2,18.4-4.1,27.6-5.9c4.2-0.8,8.6-0.8,12.8-1.3c4.8-0.5,9.6-1.5,14.5-1.7
	c8.4-0.4,16.7-0.5,25.1-0.4c1.1,0,2.8,1.6,3.1,2.7c0.8,3.5,1.2,7.2,1.4,10.8c0.1,1.1-0.9,2.2-1.4,3.4c-1-0.6-2.5-1.1-3-2
	c-1.1-2.2-1.7-4.6-2.6-7.3c-4.7,0.5-9.6,1-14.6,1.7c-9,1.2-18,2.4-27,3.9c-8.6,1.4-17.2,3.3-25.8,4.9c-2,0.4-4.1,0.3-6.1,0.5
	c-15.3,1.5-30.6,2.9-45.8,4.7c-14.7,1.8-29.2,4.2-43.9,6.2c-9.3,1.2-18.6,2-27.9,3.2c-5.1,0.6-10.1,1.7-15.1,2.4
	c-3.9,0.5-7.8,0.7-12.5,1.2c1.2,4.1,2.5,8.2,3.6,12.3c1.4,5.1,2.5,10.2,3.9,15.3c0.5,2,1.4,3.9,2.2,5.9c0.2,0.5,0.6,1.2,0.4,1.4
	c-2.7,3.1,0.1,5.7,0.9,8.5c1.4,5.2,4.1,9.9,5,15.5c1,6.9,5.2,13.4,7.6,20.2c2.6,7.2,4.7,14.6,7,21.9c1.3,4.2,2.5,8.3,3.7,12.5
	c2.6,9.4,5.5,18.7,7.5,28.2c1.4,6.7,1.5,13.7,2.2,20.6c0.9,8.7,1.9,17.5,2.6,26.2c0.3,4.6,0.1,9.2,0,13.7c0,2.3-0.4,4.7-0.5,7
	c-0.2,9.6-0.2,19.3-0.3,28.9c-0.1,5.4,0.3,10.8-0.2,16.2c-1.2,12.6-2.8,25.2-4,37.8c-0.3,3.2,0,6.4-0.2,9.5
	C334.8,378.7,334.2,381.1,333.7,383.5z"/>
<path class="st0" d="M404.1,422.3c4.5-1.1,8.5-1.8,12.3-3.1c5.2-1.9,10.1-4.5,15.4-6.3c2.8-0.9,6.1-0.5,9-0.7
	c1.4,7.2-3.3,12.4-11.2,12c-8.4-0.4-15.7,2.4-23.1,5.2c-6.2,2.4-9.3,0.3-9.9-5.6c-0.9-8.3,0.7-16.4,1.3-24.5
	c0.2-3.2-0.6-6.5-0.4-9.8c0.4-5.9,1.3-11.8,1.7-17.8c0.5-8.6,0.7-17.3,1-25.9c0.1-3.7,0.5-7.3,0.4-11c-0.8-19-1.8-37.9-2.6-56.9
	c-0.3-7.6-0.5-15.2-1-22.9c-0.3-5.3-1.5-10.5-1.6-15.8c-0.2-9.1-1.1-18-3.5-26.9c-1.1-4.1-2.5-8.2-3.5-12.3c-0.2-0.9,0.2-2,0.3-3
	c0.1-0.9,0.5-1.9,0.2-2.6c-3.6-8.5-3.1-17.6-4.8-26.3c-2.3-11.6-5.4-23-8.8-34.4c-1.3-4.5-4.6-8.4-6.8-12.7
	c-0.4-0.9,0.1-2.1,0.1-2.6c-2.7-1.8-5.1-3.4-7.6-5c3.8-4.5,8.5-3.5,12.5-3.8c7.4-0.5,14.8-0.5,22.3-0.8c6.4-0.3,12.8-0.4,19.1-1
	c10.5-1.1,21.1-2.4,31.5-3.9c6-0.9,12-2.3,18-3.4c5.2-1,10.4-1.9,15.7-2.7c4.2-0.7,8.5-0.9,12.6-1.7c7.1-1.4,14.1-3.4,21.3-4.5
	c6.9-1,14.1-0.9,21-1.9c4.9-0.7,10.2-1.5,14.4-3.7c3.3-1.6,6.5-1.1,9.7-1.9c10.4-2.7,20.9-4.9,31.2-7.7c7.4-2,14.5-4.8,21.7-7.1
	c1.5-0.5,3.2-0.4,5.3-0.6c0.4-0.6,1-2.3,2.2-3c1.8-1.1,4.9,1.2,4.3,3.4c-2.4,8.9,0.6,17.6,0.1,26.4c-0.1,1,0.3,2.3-0.2,3.1
	c-0.6,0.9-1.8,1.8-2.9,1.9c-0.6,0.1-2-1.4-2.1-2.3c-0.5-7-0.7-13.9-1-20.9c0-0.5-0.2-1-0.4-2.1c-4.1,1.3-8,2.6-11.9,3.8
	c-2.7,0.8-5.5,1.4-8.2,2.1c-7.4,2.1-14.8,4.3-22.3,6.3c-3.6,0.9-7.3,1.5-10.9,2.2c-8.7,1.7-17.5,3.4-26.2,4.9
	c-10.8,1.9-21.6,3.5-32.4,5.4c-8.1,1.4-16,3.3-24.1,4.7c-10,1.7-20,3.4-30.1,4.5c-4,0.4-7.7,1.8-11.2,2.1
	c-6.2,0.5-12.2,1.7-18.4,2.1c-5.6,0.3-11,1.6-16.6,2.2c-4.4,0.4-8.8,0.2-13.1,0.5c-2.3,0.2-4.5,0.9-7.2,1.5c0.6,4,1.2,8.1,1.8,12.3
	c0.9,7.1,1.5,14.1,2.8,21.2c1,5.6,2.7,11.1,4.1,16.6c0.1,0.2,0.2,0.6,0.1,0.7c-3.7,4.4-0.2,9-0.5,13.5c-0.2,3,1.8,6,2.5,9.1
	c1.9,8.8,3.6,17.6,5.3,26.4c1,5.3,2,10.7,2.6,16c0.6,5.4,0.6,10.9,1,16.3c0.2,2.4,1,4.7,1.5,7.1c0.1,0.6,0.2,1.3,0.2,1.9
	c0.2,5.6,0.5,11.2,0.5,16.8c0,3.7-0.8,7.3-0.6,11c0.8,11.6,2.2,23.2,3,34.8c0.3,5-0.5,10.1-0.5,15.2c-0.1,4.1,0.5,8.1,0.3,12.2
	c-0.2,4.2-0.9,8.4-1.4,12.6c-0.6,5.5-1.1,11-1.5,16.6c-0.3,4.6-0.5,9.3-0.6,13.9c-0.1,4.5,0.1,8.9-0.1,13.4
	C404.9,410.8,404.5,416.1,404.1,422.3z"/>
<path class="st0" d="M448.7,40.2c0-8.2-5.4-4.1-8.3-3.9c-9.6,0.6-19.2,1.7-28.8,2.9c-12.7,1.7-25.3,3.8-38,5.5
	c-11,1.5-22.1,2.6-33.1,4.1c-10.7,1.5-21.4,2.9-31.9,5.3c-13.6,3.1-27.5,4.3-41.4,5.5c-6.4,0.5-12.7,2.1-19.3,3.3
	c3.4,6,7.1,11.6,9.6,17.6c2.5,6.1,3.7,12.6,5.7,18.9c0.8,2.7,2.1,5.2,3,7.9c1.2,3.6,2.3,7.1,3.4,10.7c1.5,4.9,3.1,9.8,4.4,14.8
	c1.6,6.2,2.7,12.4,4.3,18.5c1.2,4.6,3.1,9,4.3,13.6c1.2,4.6,1.8,9.3,2.7,14c1.3,6.6,2.5,13.1,3.8,19.7c0.1,0.5,0.5,0.9,0.6,1.4
	c0.6,6.8,1.2,13.6,1.8,20.4c0.8,8.5,1.8,16.9,2.5,25.4c0.3,3.5,0,7.1,0.1,10.6c0.5,13.3,1.3,26.6,1.5,40c0.1,4.6-1,9.2-1.6,13.7
	c-0.8,6-1.6,12-2.5,18.1c-0.9,6.6-2.1,13.2-2.9,19.8c-0.7,5.4-1.1,10.8-1.6,16.2c-0.3,3.9-0.6,7.8-0.9,11.7c0,0.4,0.2,0.7,0.4,1.4
	c6.5-1.6,12.9-3.2,19.5-4.9c0.5,1.3,0.9,2.3,1.6,4.2c-10.5,0.8-17.8,9.5-29.6,8.8c0.8-5.2,1.6-9.7,2.1-14.2
	c0.5-4.6,0.5-9.3,0.9-13.9c0.5-6.6,1.3-13.1,1.7-19.7c0.4-5,0.3-9.9,0.8-14.9c0.2-2.5,1.3-5,1.6-7.5c0.8-8,1.3-16,2-23.9
	c0.3-3.2,0.7-6.4,1.8-9.4c0.8-2.2-0.5-3.1-1.3-4.8c-1-1.9,0.3-4.7,0.2-7.1c-0.2-6.4-0.4-12.8-0.9-19.2c-0.7-8-1.9-16-2.5-24.1
	c-0.4-4.4,0.4-8.9-0.2-13.3c-0.9-7.6-2.3-15.2-3.6-22.8c-0.3-2-1.1-4-1.5-5.9c-3.6-15.1-6.9-30.3-10.8-45.4
	c-2.4-9.3-5.1-18.5-8.6-27.5c-2.7-7-6.7-13.8-10.6-20.4c-3.9-6.7-8.1-13.2-12.5-19.6c-1.8-2.6-4.7-4.6-6.7-7c-0.9-1-1.7-3.1-1.2-3.8
	c1-1.3,3-2.7,4.8-2.9c17.5-1.2,34.5-5.4,52.3-5.1c6.7,0.1,13.5-2.5,20.2-3.8c6.6-1.3,13.2-2.7,19.9-3.7c10.9-1.7,21.9-3.3,32.9-4.6
	c10.4-1.3,20.9-2,31.3-3.3c6.3-0.8,12.4-2.2,18.7-3c8.6-1.2,17.3-2,25.9-3.2c4.6-0.7,9.1-2.1,13.7-2.9c1.3-0.2,4.1,0.4,4.1,1
	c0.5,2.6,0.5,5.4,0.1,8.1C452.6,38.2,450.7,38.9,448.7,40.2z"/>
<path class="st0" d="M299.7,22.6c-0.9,5.6-4.9,5.8-8.4,6.2c-8.2,1-16.5,1.5-24.7,2.5c-9.1,1.1-18.1,2.7-27.2,3.8
	c-5.8,0.7-11.6,0.9-17.4,1.6c-12.6,1.5-25.3,3-37.9,4.7c-7.6,1-15.1,2.3-22.7,3.4c-1.8,0.3-3.7,0-5.4,0c2.5,3.4,4.8,6.3,7,9.3
	c2.1,2.9,5.4,5.7,5.9,8.8c0.8,5.3,6.3,6.3,9,9.7c2.8,3.6,6.8,6.4,9.8,9.9c7.7,9.2,14.1,18.9,19.3,29.5c3.1,6.3,5.4,12.8,7.2,19.3
	c2.6,9.6,4,19.4,5.6,29.2c1.6,10.4,3.3,20.9,4.1,31.4c0.6,7.4-0.2,14.8-0.6,22.2c-0.4,7.4-1.2,14.8-1.7,22.2
	c-0.5,7.8-0.6,15.6-1.5,23.4c-1,8.8-2.8,17.6-4.1,26.3c-0.9,6.3-1.7,12.7-2.4,19c-0.4,3.7-0.4,7.6-1,11.3c-0.3,1.8-1.9,3.4-2.7,4.8
	c9.2,4.4,21.6,3.9,28.2,13.5c-1.6,1-2.7,1.8-3.6,2.4c-7.9-3.1-15-7.4-24-7.8c-4-0.2-9-0.3-10.6-5.2c-0.2-0.8-1.4-1.3-0.8-1.7
	c1.3-3.8,2.8-7.5,3.8-11.3c2-7.5,4-15,5.5-22.6c2.1-10.5,4.1-21.1,5.5-31.7c1.1-8.3,1-16.7,1.5-25c0.8-11.7,2-23.3,2.5-35
	c0.2-4.6-1.1-9.2-1.6-13.9c-0.6-5.1-0.9-10.3-1.8-15.4c-1.9-11-3.8-21.9-6.3-32.8c-3.6-16.3-12.6-30.6-22.9-44.2
	c-5.9-7.9-13.4-14.6-21.7-20.7c-7.9-5.8-14-13.3-23.2-17.9c-3.2-1.6-1.7-5.8-0.9-8.6c0.3-1.2,3.6-2.1,5.7-2.5
	c5.3-1,10.7-1.6,16.1-2.4c7.3-1,14.6-2.2,21.9-3.1c11.8-1.4,23.6-2.6,35.5-4c11.2-1.2,22.4-2.5,33.6-3.8c11.9-1.3,23.8-2.7,35.7-4.1
	c1.9-0.2,3.7-0.7,5.6-0.8C295.4,22.5,297.4,22.6,299.7,22.6z"/>
<path class="st0" d="M266.3,352.7c1.5,3.4-1.3,4.1-3.2,4.8c-4.6,1.7-9.3,3.2-14.1,4.4c-3.6,0.9-7.4,1.1-12.2,1.7
	c-2.2-1.4-2.2-4.1-1.5-7.7c1.2-6.2,3.8-12.1,5-18.3c1.2-6.4,1.9-13,3.7-19.3c2.1-7.3,1.2-14.6,1.1-21.9c-0.1-5.9,1.6-11.8,2.2-17.8
	c1-9.9,3.4-19.7,4.3-29.6c0.9-9.3,0.9-18.7,1.1-28.1c0.2-7.9,0.2-15.8,0-23.8c-0.1-4.7-1-9.5-1.3-14.2c-0.3-3.5,0.1-7.1-0.4-10.6
	c-1.9-11.9-3-24-6.4-35.5c-3.7-12.4-9-24.4-17-35.3c-3.4-4.6-5.9-9.8-10.2-13.8c-3.8-3.5-7.9-6.7-11.8-10.2c-3-2.7-5.4-6.2-9-8.2
	c-4.7-2.6-9.1-6.2-15.2-6.9c-1.4-0.2-3.7-2.6-3.5-3.7c0.2-1.4,2.4-3.5,4-3.8c6.3-1.2,12.8-1.6,19.2-2.5c13.6-2,27.1-4.2,40.7-6.3
	c5.3-0.8,10.6-1.4,15.8-2.3c8.2-1.4,16.4-3.9,24.6-4c12.4-0.1,24.5-1.5,36.6-3.6c1.2-0.2,2.6,1,4,1.5c-0.9,1.1-1.7,3.1-2.8,3.3
	c-9.6,1.5-19.2,2.6-28.8,3.8c-8.1,1-16.3,1.7-24.5,2.9c-8.7,1.2-17.3,2.7-26,4.1c-12.4,2-24.9,4.1-38.6,6.3c2.6,2.7,4.5,5.9,7.4,7.1
	c3.7,1.5,2.8,3.8,1.8,5.3c-1.1,1.7-0.8,2.4,0.6,3.5c4,3.4,8.1,6.7,11.7,10.4c3.1,3.3,5.6,7.1,8.2,10.9c2.7,4.1,5.5,8.1,7.7,12.5
	c3,5.9,5.5,11.9,8.1,18c1.8,4.3,3.6,8.5,4.8,13c1.5,5.6,2.4,11.4,3.3,17.1c1.1,6.8,2,13.7,2.6,20.6c0.5,5.7,0.6,11.4,0.9,17.1
	c0.3,5.9,0.7,11.8,0.7,17.7c0,5.3-0.5,10.6-0.7,15.9c-0.3,7.5-0.2,15-1,22.4c-0.8,8.1-2.7,16.2-3.6,24.3c-0.5,3.9-2.4,7.6-1,11.9
	c0.9,2.8-0.4,6.2-0.5,9.3c-0.3,5.6-0.1,11.3-1,16.8c-1.7,9.7-0.2,19.4-1.7,29.1c-0.5,3.5-1.4,6.9-1.6,10.4c-0.1,1.6-0.2,3.8,3.6,3
	C256.7,353.1,261.6,353.1,266.3,352.7z"/>
<path class="st0" d="M259,14.6c-3.2,0.6-6.4,1.7-9.7,1.8c-5.4,0.1-10.9-0.9-16.3-0.6c-14.7,0.9-29.3,2.3-44,3.2
	c-5,0.3-10.1-0.2-15.1-0.2c-6.9,0.1-13.8,0.4-20.7,0.8c-6.2,0.4-12.5,1.1-18.7,1.5c-4.5,0.3-9.1,0.4-14.2,0.6
	c2.3,5.5,4.9,11,6.9,16.7c3.1,8.4,6.2,16.9,8.5,25.5c2.8,10.4,4.6,21,7,31.4c2.4,10.2,5.1,20.4,7.4,30.7c1.5,6.5,2.4,13.1,3.7,19.6
	c2.4,11.9,4.8,23.9,7.4,35.8c1.7,7.6,3.9,15.1,5.6,22.6c0.5,2.3,0.2,4.7,0.5,7c1.7,11.8,3.8,23.5,5.3,35.4c1.3,10.5,2.1,21,2.8,31.6
	c0.2,3,1.1,4.7,4,6.5c3.1,1.9,5.3,5,7.5,7.8c0.7,1,0.1,2.7,0.1,3.8c-7.2-4-13.8-7.4-20-11.4c-2-1.3-3.6-4.2-3.8-6.6
	c-1-8.4-1.6-16.8-1.9-25.2c-0.3-8.3,0.4-16.6-0.2-24.8c-0.6-8.7-2.1-17.3-3.4-26c-1.4-9.6-2.9-19.2-4.5-28.8
	c-1-6.1-2.4-12.1-3.6-18.1c-1.4-7.2-2.8-14.3-4.4-21.5c-1.5-6.7-3.4-13.4-4.8-20.1c-2.1-9.6-3.9-19.3-5.8-29
	c-2.5-12.3-5.2-24.6-10.3-36.3c-3.2-7.4-5.6-15.1-9.2-22.3c-5.3-10.7-1.5-10.7,9-10.3c6.2,0.2,12.4-0.7,18.7-1.1
	c2.2-0.1,4.4-0.2,6.6-0.4c6.5-0.5,13-1.2,19.5-1.4c5.8-0.1,11.7,0.5,17.6,0.5c4.5,0,9-0.6,13.5-0.8c6.7-0.3,13.3-0.4,20-0.7
	c5.9-0.2,11.8-0.7,17.6-0.7c5.6,0,11.2,0.4,16.8,0.8c1.5,0.1,3,0.6,4.4,1C258.9,13.3,258.9,14,259,14.6z"/>
<path class="st0" d="M368.4,405.7c3.8-1,7.3-1.9,10.9-2.6c0.7-0.1,2.4,0.6,2.4,1.1c0.1,0.8-0.3,2.1-1.1,2.6
	c-3.7,2.6-7.4,5.2-11.3,7.5c-1.2,0.7-3.2,0.5-4.7,0.2c-1.3-0.3-2.4-1.2-3.2-1.6c1-10.3,1.9-20.5,2.9-30.7c0.1-0.6-0.1-1.4,0.1-1.9
	c3.7-7.8,3.9-16.1,5.5-24.3c1.6-8.3,1.2-16.5,1.6-24.7c0.5-10.8,1.9-21.6,2.4-32.4c0.2-4.8-0.5-9.6-0.9-14.4
	c-0.3-3.3-0.7-6.6-1.1-9.9c-0.5-5-0.7-10.1-1.5-15.1c-1.5-9.6-3.2-19.2-4.9-28.8c-1.2-6.4-2.4-12.8-3.9-19.2
	c-2.4-10.6-5-21.2-7.7-31.7c-2.9-11.4-5.8-22.8-9.2-34.1c-2.6-8.5-6-16.9-9.4-25.3c-1.8-4.6-4.5-8.8-6.4-13.4
	c-0.9-2.2-0.9-4.7-1.3-7.1c4.8-0.6,6.3,0.4,8.2,4.7c1.4,3.3,2.9,6.6,4.3,9.9c3.9,9.2,8.2,18.2,11.4,27.5c2.8,8.1,3.5,16.9,6.9,24.8
	c3.1,7.3,3.8,15,6.5,22.3c1.6,4.2,1.3,8.9,2.1,13.3c0.8,4,2.1,7.9,2.9,11.9c1.2,6,2.1,12.1,3.3,18.1c1.2,6.1,2.4,12.3,3.7,18.4
	c0.2,1,0.6,2,0.7,3c0.6,5.7,1.3,11.5,1.8,17.3c0.3,4,0.4,8,0.5,12.1c0.1,2.1,0.5,4.3,0.3,6.4c-0.7,10.5-1.7,21-2.3,31.5
	c-0.4,5.9,0.1,11.9-0.4,17.9c-0.8,8.6-2.7,17.1-3.3,25.7c-0.7,10-5.8,19.3-4.8,29.6C369.9,398.1,368.8,402.1,368.4,405.7z"/>
<path class="st0" d="M583.2,72.7c-2.2,2.9-3.7,3-6.2-0.1c-2.5-3.1-5-6-5.8-9.9c-0.4-2-1.6-2.6-4.8-1.7c-6.3,1.8-13,2.2-19.6,3.2
	c-1.9,0.3-3.7,0.4-5.5,0.8c-10.5,2.6-21,5.3-31.5,7.9c-0.7,0.2-1.6-0.1-2.4-0.1c-2.8,0.1-5.8-0.7-8,2c-0.6,0.7-2.3,0.9-3.6,1.1
	c-10.7,1.1-21.4,1.9-32,3.2c-8.2,1-16.3,2.9-24.6,3.7c-10.2,1-20.1,3.2-30.1,4.6c-9.9,1.4-19.8,1.8-29.7,3.5
	c-16,2.8-31.8,6.9-48.2,7.6c-3.1,0.1-4.2-0.5-5.7-3.3c2-2.9,4.6-3.6,8.7-3.6c6.1,0,12.1-1.6,18.2-2.5c7.3-1.1,14.5-2.1,21.8-3.1
	c10.6-1.5,21.2-2.9,31.7-4.7c8.6-1.5,17-3.9,25.6-5.2c7.8-1.1,15.8-1,23.7-1.9c8.6-0.9,17-2.4,25.6-3.6c4-0.6,8.1-0.8,11.9-1.8
	c4.5-1.2,9.2-1.4,13.5-3.6c2.6-1.3,6.5-0.5,9.7-1.1c5.3-1.1,10.4-2.7,15.7-3.9c4.3-0.9,8.8-2.3,13.1-2.1c5.1,0.2,9-2.1,13.5-3.1
	c5.6-1.3,11.2-2.4,16.9-3.5c2.6-0.5,4.9,0.9,3.7,3c-3.3,5.9,1.6,10.2,2.9,15.1C581.8,70.8,582.6,71.7,583.2,72.7z"/>
<path class="st0" d="M408.5,157.2c4-0.5,7.4-1.2,10.8-1.4c9.1-0.5,18.2-0.8,27.3-1.2c7.8-0.4,15.7-0.8,23.5-1.3
	c1.2-0.1,2.4-0.4,3.8-0.7c3.6,5.3,0.7,10.1-6.9,10.1c-6.4-0.1-12.9-1.1-19.2-0.5c-6.8,0.5-13.5,2.5-20.3,3.6
	c-3.7,0.6-7.5,0.6-11.2,1c-3.6,0.4-4.9-1.5-5.7-4.1C410.3,161.2,409.6,159.8,408.5,157.2z"/>
<path class="st0" d="M29.6,101c2,2.1,4.9,3.8,4.6,4.9c-0.7,2.6-3.4,2.4-6.1,1.4c-2.2-0.8-4.6-1.2-7.6-1.9c1.1-1.6,1.9-2.6,2.5-3.7
	c0.7-1.2,1.6-2.4,1.7-3.7c0.8-7.2,1.2-14.4,2-21.6c0.7-5.9,1.9-11.7,2.4-17.5c0.5-6,0.2-12.1,0.7-18.2c0.1-1.6,2.5-4.5,3.2-4.4
	c2.7,0.5,4.3,2.1,3.6,5.4c-1,4.9-0.6,10-1.4,14.9c-1.5,10.2-3.5,20.3-4.9,30.4C29.8,92,29.8,97.1,29.6,101z"/>
<path class="st0" d="M23.8,34.8c-2.7,14.1-5.4,27.7-8.1,41.7c-0.2-0.1,0.1,0,0.4,0.3c1.4,1.2,3,2.2,4.2,3.6c0.2,0.2-0.9,2-1.6,2.1
	c-3,0.4-6.1,0.6-9.1,0.3c-0.5,0-0.7-2.8-0.8-3.6c1.3-3.9,3-7.3,3.6-10.8c1.7-9.5,2.9-19.2,4.6-28.7C17.4,37.1,18,33.8,23.8,34.8z"/>
<path class="st0" d="M424.3,243.9c2.1-3.4,5.8-3.9,9.5-4.5c10.2-1.7,20.4-2.7,30.7-1.8c0.6,0.1,1.7,1.3,1.6,1.5
	c-0.5,0.8-1.3,1.8-2.2,1.9c-10.1,1.5-20.3,2.9-30.4,4.3C430.3,245.7,427,246.8,424.3,243.9z"/>
<path class="st0" d="M421.2,208.6c0-1,0-2,0-3c2.7-3.3,36-6.7,41.9-4.3C461.4,203.4,427.6,209.3,421.2,208.6z"/>
<path class="st0" d="M202.5,155.7c-1.7,1.6-2.4,2.9-3.3,3c-7.2,1.2-14.4,2.2-21.6,3.2c-2.1,0.3-4.4,0.9-6.4,0.7
	c-1.9-0.2-3.5-1.5-5.3-2.3c1.6-1.3,3-3.2,4.9-3.7c3.4-0.8,7-0.8,10.5-0.9C187.9,155.6,194.5,155.7,202.5,155.7z"/>
<path class="st0" d="M460.1,261c-10.4,1.8-20.8,3.5-31.2,5.3c-1.9-4.3-1.1-5.3,3.7-6.5c8.1-2.1,16.3-2.7,24.6-1.7
	c1,0.1,1.9,1,2.9,1.5C460.1,260,460.1,260.5,460.1,261z"/>
<path class="st0" d="M192.7,141c-1.7,0.7-3.3,1.9-5.1,2.1c-6.3,0.6-12.7,1.1-19.1,1.2c-1.5,0-3-1.5-4.5-2.3c1.4-0.9,2.8-2.5,4.3-2.6
	c6.3-0.5,12.6-0.7,18.9-0.8c1.7,0,3.4,0.6,5.2,0.9C192.5,140,192.6,140.5,192.7,141z"/>
<path class="st0" d="M453.6,219.1c-10,4.4-21.2,3.7-31.7,5.7c-1.9-2.8,0-3.4,2-3.9C433.6,218.8,443.4,217.4,453.6,219.1z"/>
<path class="st0" d="M200.4,172c-0.3,3.9-3.5,4.4-5.9,4.7c-6.5,0.9-13.1,1.3-19.6,1.9c-0.4,0-1.1-0.4-1.3-0.8
	c-0.3-0.8-0.7-2-0.3-2.4c1.1-0.9,2.6-1.9,4-2C184.8,172.8,192.3,172.5,200.4,172z"/>
<path class="st0" d="M188.6,120.8c-6.2,0.5-12.3,3.7-18.6,0.7c-0.5-0.3-0.6-1.3-0.8-2C181.5,116.9,186.1,117.2,188.6,120.8z"/>
<path class="st0" d="M872.5,295.7c-6.3,8.2-14.8,13.5-25.8,16.8c-14.4,4.2-23.4-1.9-29-10.8c-7.2-11.5-8.7-24.2-2.9-36.5
	c5.1-10.7,12.4-20.6,24.6-26.3c6.1-2.9,12.7-2.2,18.8,0.9c3.5,1.8,7.4,3.2,10.2,4.5c3.5-3.3,6.3-8.1,10.4-9.3
	c5.6-1.6,11.1-5.1,17.7-3.3c4.5,1.3,9.3,1.8,13.6,3.5c7.2,2.9,10.3,9,11.6,15.2c2.7,12.2,2.8,24.6-2.6,36.3
	c-2.3,4.9-6.1,9.3-9.5,13.8c-2.7,3.5-13.7,4.7-17.9,3.3c-4.9-1.6-9.6-3.5-14.3-5.4C875.5,297.6,874,296.6,872.5,295.7z M840.7,307.3
	c2.2-0.7,4.3-1.6,6.6-2.2c5.8-1.5,10.7-4.3,14.7-8.4c6.3-6.6,10-14.3,11.7-22.6c1.2-5.6,0.7-11.1-2.5-16.6
	c-4.4-7.4-11.3-11.6-19.9-13.1c-4.6-0.8-9.7,1.1-14.6,1.8c-0.1,0-0.2,0.2-0.3,0.3c-6.5,5.9-12.7,11.9-16.1,19.7
	c-2.6,6-3.9,12.3-2.4,18.5c1.1,4.6,4.3,8.7,6.3,13.1C827.2,304.6,832.8,307.4,840.7,307.3z M893.8,238.7c-7.6-1.1-12.9,3.7-18.4,7.8
	c-2.7,2-3.2,4.6,0.1,7.1c1.5,1.2,2.7,3,3.3,4.7c3.2,9.2,2.3,18.3-1.6,27.1c-1.8,4-1,6.4,3.4,8.1c3.4,1.3,7,2.2,10.6,3.2
	c8.8,2.6,14.4,0.5,18.9-6.6c2.5-3.9,3.3-8.2,4.6-12.5c2.4-8.2,2.2-16,0.1-23.9C912.4,243.9,905.3,238.7,893.8,238.7z"/>
<path class="st0" d="M781.2,209.1c-1.2-2.3-2-3.9-2.9-5.6c1.6-0.6,3.2-1.6,4.9-1.7c9.7-0.5,19.5-0.7,29.2-1.2
	c9.5-0.5,19-1.4,28.4-1.8c7.6-0.3,15.2-0.1,22.4-0.1c1.1,1.4,2.3,2.4,2.8,3.7c0.6,1.5,1.4,4,0.6,4.6c-2.6,2-5.4,5.2-9.2,4.1
	c-8.8-2.7-17.5-0.6-26.2-0.3c-9.2,0.3-18.3,2.3-27.4,3.6c-5.8,0.8-11.6,1.7-17.4,2.3c-1.7,0.2-4.8-0.4-5.1-1.1
	C780.7,213.3,781.2,210.8,781.2,209.1z"/>
<path class="st0" d="M780.5,402.1c-2.6-3.8-2.3-4.6,2.2-5.4c5.6-0.9,11.3-1.5,17-2.3c6.1-0.9,12.2-1.9,18.4-2.7
	c8.2-1,16.4-2.2,24.6-2.7c11.2-0.6,22.5-0.8,33.8-0.8c4,0,8,1.1,12,1.7c0.6,3.7-0.5,4.2-4.3,4c-7.6-0.4-15-2.4-22.9-0.5
	c-5,1.2-10.7-0.1-16,0.3c-10.1,0.9-20.1,2.3-30.1,3.6c-10.8,1.4-21.7,3-32.5,4.5C782,401.9,781.4,402,780.5,402.1z"/>
<path class="st0" d="M881.5,368.1c-0.6,4.8-2.1,5.7-6.6,5.7c-6.1,0.1-12.3,0.7-18.4,0.8c-5.5,0.1-11-0.4-16.5-0.3
	c-2.8,0-5.6,0.9-8.4,1.2c-10.5,1-21.1,1.9-31.6,3.1c-4.5,0.5-9,1.5-13.5,2.5c-2.8,0.6-4.8,0-5.1-2.4c-0.3-2.2,0.6-4.1,3.9-4.3
	c4.2-0.2,8.5-0.8,12.7-1.1c8.3-0.8,16.6-1.9,24.9-2.3c12.4-0.6,24.8-0.5,37.2-1C867.3,369.8,874.3,368.8,881.5,368.1z"/>
<path class="st0" d="M785.2,358.7c1.9-4.4,7.6-6.2,13.4-5.9c7.1,0.3,14.2-0.1,21.2-0.3c2.9-0.1,5.7-0.7,8.6-0.9
	c5.9-0.4,11.8-0.7,17.8-1.1c5.7-0.3,11.4-0.5,17.1-0.8c1.3-0.1,2.5-0.5,3.8-0.6c1.2,0,2.7-0.1,3.6,0.5c1.8,1.1,2.3,2.6,0,4
	c-0.6,0.4-0.7,1.5-1.2,2.1c-0.5,0.5-1.7,1.3-1.9,1.1c-4.8-3.1-10.1-1-15.1-0.9c-8,0.1-16,0.4-24.1,0.8c-12.7,0.7-25.4,1.6-38.1,2.4
	C788.6,359.4,787,358.9,785.2,358.7z"/>
<path class="st0" d="M871,332.6c-1.6,2.1-2.5,3.2-2.7,3.5c-9.1,0.4-17.4,0.8-25.7,1.1c-3.5,0.1-7.2-0.6-10.6,0
	c-12.2,2.1-24.5,1.4-36.8,1.6c-3.6,0-7.1-0.1-10.7,0.1c-2.9,0.2-4.8-0.6-5.5-4c1.3-0.5,2.8-1.5,4.4-1.5c8.3,0.1,16.6,0.9,24.8,0.7
	c14.6-0.5,29.1-1.5,43.7-2.3c4.6-0.3,9.1-0.6,13.7-0.6C867.3,331.1,868.9,332,871,332.6z"/>
<path class="st0" d="M858.6,431.9c-4.5-3.6-4.3-5,1.4-6.9c5.1-1.7,10.2-3.4,15.4-4.7c5.5-1.4,6.3-0.6,5.3,4.6c-0.1,0.3,0,0.6,0,1.2
	c0.9,0.2,1.7,0.2,2.5,0.5c1.9,0.6,5,1,5.4,2.1c0.9,2.4,1.5,5.4-2,7.2c-3.9,2.1,1.5,3.5,0.1,6.1c-1.8,2.3-5,2.2-7.4,0.1
	c-4.8-4.2,1.6-6.7,2.9-10.2c-3-1.6-8.1-0.6-8.7-5.1c0,0-2.2-0.1-3.2,0.3C866.3,428.6,862.5,430.3,858.6,431.9z"/>
<path class="st0" d="M938.3,197.6c4-0.4,8-0.9,12-1.2c1.5-0.1,3.1,0.3,4.6,0.8c0.3,0.1,0.5,2.1,0.1,2.3c-1.2,0.5-2.6,0.7-4,0.9
	c-4.1,0.4-8.2,0.9-12.3,1.2c-5,0.3-10,0.5-14.9,0.6c-0.8,0-1.6-0.9-2.4-1.4c0.6-0.6,1.1-1.7,1.8-1.8c5-0.6,10-1,15.1-1.5
	C938.2,197.5,938.3,197.5,938.3,197.6z"/>
<path class="st0" d="M788.9,416.1c10.6-5.8,20.7-3,30.8-2c0.1,0.5,0.1,1.1,0.2,1.6c-10.4,1.3-20.8,2.5-31.6,3.8
	C788.6,417.5,788.9,416.3,788.9,416.1z"/>
<path class="st0" d="M782.8,427.8c5.6-5.4,22.7-7.3,31.3-3.3c-2.5,0.9-4,1.7-5.6,2c-6.8,1.1-13.5,2.2-20.3,3
	C786.6,429.6,785,428.5,782.8,427.8z"/>
<path class="st0" d="M658.5,349.2c-6.4-1-11.9-2.3-17.5-2.5c-12.6-0.3-25.2-0.6-37.8,0.1c-13.3,0.7-26.5,2.5-39.7,3.8
	c-3.8,0.4-7.6,0.7-11.4,0.6c-0.9,0-2.5-1.7-2.6-2.7c-0.2-2,0.8-2.2,3.5-2.1c5.8,0.2,11.6-0.9,17.5-1.3c7.9-0.6,15.8-1.2,23.8-1.7
	c7.3-0.5,14.7-1.3,22-1.3c11.4,0.1,22.7,0.8,34.1,1.4c2.2,0.1,4.4,0.3,6.4,0.8C661.2,345.5,661.4,346.9,658.5,349.2z"/>
<path class="st0" d="M655.5,328c-3,4.8-6.7,1.6-9.8,2c-1.2,0.2-2.5-0.5-3.8-0.5c-14.9,0.2-29.8,0.2-44.6,0.9
	c-7.1,0.3-14.1,2.1-21.1,2.9c-5,0.6-10,0.8-15,0.7c-1.2,0-2.4-2-3.5-3.1c1.3-0.7,2.5-2,3.8-2.1c6-0.5,12-0.6,18-0.9
	c15.7-0.8,31.4-1.7,47.2-2.3c6.9-0.3,13.7-0.3,20.6,0.1C649.8,325.8,652.4,327.1,655.5,328z"/>
<path class="st0" d="M665.9,402.4c-0.5-3.6-4.7-3.3-8.4-3.1c-3.5,0.2-6.8,1.9-10.7,0.1c-1.4-0.6-4.3,1.4-6.6,2c-1,0.3-2.3,0-3.4-0.1
	c0.4-1.1,0.5-2.8,1.4-3.3c4.1-2.4,8.4-4.5,12.7-6.5c0.7-0.3,2.1,0.7,3.2,1.1c1.8,0.7,3.6,2.1,5.3,1.9c3.7-0.3,7.2-1.3,10.1,1.8
	c0.4,0.4,1.9,0.2,2.9,0.1c6.3-0.5,12.3-0.2,17.5,3.5c0.4,0.3,0.4,0.9,0.6,1.3c-3.2,3.5-6.9,0.9-10.3,1
	C675.6,402.3,670.9,402.3,665.9,402.4z"/>
<path class="st0" d="M619.3,311.5c-7.7,0-15.4-0.3-23.1,0.1c-10.7,0.5-21.4,1.7-32.1,2.3c-1.5,0.1-4.1-0.9-4.6-1.9
	c-1-2.1,1-2.7,3.2-2.9c4.6-0.4,9.2-1.2,13.8-1.4c11-0.4,22-0.6,33.1-0.8c3.4-0.1,6.9,0,10.3,0.5c0.9,0.1,2.1,1.8,2.1,2.8
	c0,0.8-1.4,1.7-2.2,2.6C619.7,312.3,619.5,311.9,619.3,311.5z"/>
<path class="st0" d="M595.1,408.3c-5.3,0.4-10.2,0.9-15.2,1c-4,0.1-5.7-1.7-5.3-5.3c-2.3,0.7-4.5,1.5-6.9,2
	c-0.8,0.2-2.4-0.3-2.6-0.7c-0.3-0.8,0-2,0.6-2.6c3.5-3.3,8.1-3.8,12.7-3.3c1.1,0.1,2.3,1.7,3,2.8c1.2,2,2.5,2.6,5.2,2.3
	c3.7-0.3,7.5,0.1,11.3,0.4c0.9,0.1,2.4,0.8,2.5,1.4c1.3,5.5,6.9,5.4,11.2,7c0.5,0.2,1.1,0.2,2.7,0.6c-1.4,1-2.1,1.9-2.9,2
	C604.5,416.1,597.9,415.8,595.1,408.3z"/>
<path class="st0" d="M590,365.3c-0.6,0.5-1.2,1.4-1.9,1.5c-10.2,0.6-20.5,1.2-30.7,1.7c-0.7,0-1.6-1-2.4-1.7
	c2.4-2.6,4.8-3.5,8.8-3.1c5.8,0.5,11.8-0.4,17.7-0.5c2.9,0,5.7,0.4,8.6,0.6C590.1,364.3,590,364.8,590,365.3z"/>
<path class="st0" d="M742.5,331.2c-9.7,3-19.3,6-27.6,11.4c-1.5,1-3.5,2-5.3,2.1c-1.5,0.1-3.2-1.1-4.8-1.7c0.8-1,1.4-2.5,2.5-3
	c5.2-2.4,10.5-4.7,15.9-6.7c4.8-1.8,9.7-3.1,14.6-4.5C740.9,328,741.9,328.7,742.5,331.2z"/>
<path class="st0" d="M717,362.4c-2.6-5.3,2-7.1,4.3-8.5c5.2-3.2,10.6-7.2,18.1-5C731.1,352,724.1,356.7,717,362.4z"/>
<path class="st0" d="M728.2,371.9c1.9-0.4,3.6-0.7,5.3-1.1c1.4-0.3,2.8-0.8,4.3-0.9c1-0.1,2.1,0.4,3.2,0.7c-0.5,1-0.7,2.4-1.5,2.9
	c-3.7,2-7.5,3.9-11.4,5.5c-1.1,0.5-2.8-0.2-4.3-0.4c0.4-1.1,0.7-2.3,1.4-3.2C726,374,727.3,372.8,728.2,371.9z"/>
<path class="st0" d="M719.5,261.4c1.2,0.6,2.6,1.4,4.1,2.1c4.3,1.7,7,5.4,6.3,8.7c-0.7,3.1-4,6.4-7.2,8.3c-3.9,2.4-9.5-2.1-10-7.7
	C712.2,267.9,713.8,263.7,719.5,261.4z"/>
<path class="st0" d="M852.9,282.4c-3.2,0-6.3-2.9-6.4-5.7c-0.1-4.1,4.7-9.8,8.3-9.8c3.4-0.1,7.6,3.3,7.6,6.1
	C862.5,277.2,857.2,282.5,852.9,282.4z"/>
<path class="st0" d="M888,275c1.4-3.3,2.1-6,3.6-8.3c1.8-2.7,7.5-4,9.6-2.7c2.4,1.5,3.6,6.4,2.1,9c-0.9,1.7-1.9,3.5-3.3,4.8
	c-2.1,2-4.4,5.2-8.1,3C890,279.7,889.3,277.1,888,275z"/>
</svg>
