<?xml version="1.0" encoding="utf-8"?>
<!DOCTYPE svg PUBLIC "-//W3C//DTD SVG 1.1//EN" "http://www.w3.org/Graphics/SVG/1.1/DTD/svg11.dtd">
<svg version="1.1" id="illustrationKonigoSorgenSoitie" xmlns="http://www.w3.org/2000/svg" xmlns:xlink="http://www.w3.org/1999/xlink" x="0px" y="0px"
	 width="1000px" height="1000px" viewBox="0 0 1000 1000" style="enable-background:new 0 0 1000 1000;" xml:space="preserve">
<style type="text/css">
<![CDATA[
	.st0{fill-rule:evenodd;clip-rule:evenodd;}
	.st1{fill-rule:evenodd;clip-rule:evenodd;fill:#999999;}
	.st2{fill-rule:evenodd;clip-rule:evenodd;fill:#FFFFFF;}
	.st3{fill-rule:evenodd;clip-rule:evenodd;fill:#666666;}
]]>
</style>
<path class="st1" d="M222.7,459.4c-2.2-3.3-2.8-6.7-2.4-10.4c0.4-4.2-0.9-8.4,0-12.7c0.4-1.7-0.6-3.3-1.3-4.6
	c-2.8-4.8-3-10.2-4-15.4c-1-4.9-0.9-9.9-1.4-14.8c-0.4-4.1-0.4-8.2-0.9-12.1c-1.1-1-2.2-1.1-3-0.3c-2.2,2-5.2,2.9-6.9,5.6
	c-1.5,2.5-5.5,2.2-6.4,5.2c-0.8,2.7-1.2,5.5-2.6,8.1c-2.3,4-2,8.7-3.2,13c-1.9,7-3.5,14.2-5,21.3c-0.7,3.1-1.7,6.2-0.8,9.4
	c0.4,1.2-0.2,2.1-0.5,3.1c-0.8,2.4-1.2,4.8-1.7,7.3c-1.7,9.8-5.3,19.2-7.2,28.9c-3.4,6.1-4.6,13.1-8.2,19.1
	c-3.1,5.3-6.7,10.2-12,13.6c-5.6,3.7-12.3,3.3-17.5-1.1c-3.8-3.3-7.2-6.8-9.8-11.2c-2-3.4-2.2-3.4-5.8-4.7c-0.7,1.2-1.4,2.5-2.3,4.2
	c-3.8,0.3-6,4-9.4,5.9c-1.7,1-2.9,2.5-3.9,4.3c-3.2,5.2-4.5,11.2-7.2,16.7c-0.3,0.6-0.3,1.4-0.2,2.1c0.2,2.6-0.8,4.5-2.9,6
	c-0.1,3.1-0.7,6-1.7,9c-1.3,3.6-1.3,7.7-2.4,11.5c-2.1,7-5,13.7-7.4,20.5c-1,3-3.7,4.8-6.2,6.3c-2.4,1.4-4.9,3-8.4,2.1
	c-2.4-0.7-5.5,0.5-8.3,0.5c-2.3,0-4.1-0.7-5.8-2.5c0.3-1.6,1.4-2.6,2.7-2.8c3.3-0.5,6.2-2.3,9.6-2.5c3.5-0.1,6.8-1.3,7.7-5.9
	c0.3-1.8,1.9-3.4,2.9-5c2.7-4.3,3.7-9.2,4.9-14c1.2-4.7,2.4-9.3,4.3-13.7c1.5-3.4,1.6-7.4,2.9-10.8c4.6-11.9,8-24.3,14.9-35.2
	c0.4-0.6,0.4-1.4,0.6-2c1.4-3.8,2.2-7.8,5.2-10.9c1.2-1.2,1.5-3.2,2.3-4.8c0.7-1.4,1-3.2,3.1-3.8c3.5,0.1,4.5,4.8,7.8,4.9
	c0.9,3.7,2.3,6.6,3.8,9.4c1.9,3.6,4,7.1,5.6,10.8c2.2,5,5.8,8.4,10.7,10.4c4.8,0.2,7.5-3.5,11-5.7c0.8-0.5,1.2-1.2,1.5-2.1
	c2.4-7.4,7.5-13.6,8.4-21.6c0.3-2.7,2.3-5.2,2.9-8c1.6-6.4,3.7-12.6,4.6-19.2c0.3-2.1,1-4,1.5-6.1c1.8-7.3,2.7-14.7,3.6-22.2
	c0.2-1.5,0.7-2.8,1-4.2c1.7-6.5,3.1-13.1,4.4-19.8c0.6-3.3,1.9-6.5,3.3-9.6c1.9-4,4.3-7.7,6.1-11.8c2.3-5.2,6-9.1,9.9-13
	c3-3,6.8-4.3,10.2-6.1c6.3,2.2,7.4,3.7,7.5,10.2c0.1,6.3,0.1,12.7,0,19c-0.1,2.8,0.9,5.3,1.6,7.8c0.5,1.8,1.8,3.5,3.5,3.8
	c2.9,0.4,4,2.7,5.5,3.9c7.5,4.4,13.1-0.3,19.3-3c1.2-2.2,2.7-4.3,5.6-5c1.9-0.5,2.7-2.8,4-3.9c1.9-0.7,3.7-0.2,5.4-0.3
	c1.8-0.1,3.3-0.4,5.1-1c3.9-1.4,8-2.4,12-3.2c1.6-0.3,3.5-0.3,5.2,0.6c1.6,0.9,3.5,0.6,5.2,0.3c7.8-1.6,15.6-2.3,23.5-2.2
	c3.1,0,6.1-1.4,9.2,0.1c7.1-2.3,14.4-0.4,21.5-1c1.9-0.2,3.8,0.2,5.7,0.7c6.8,1.7,13.7,2.7,20.8,2.6c5.9-0.1,11.9-0.7,17.8,0.9
	c2.3,0.6,5,0.5,7.1-1.3c0.9-0.8,1.9-0.9,3-0.8c7.2,0.4,13.8-1.6,20.4-4.2c3-1.2,6.2-2.4,9.6-2.3c1.1,0,2-0.5,3-0.9
	c5.8-2.1,11.9-2.8,17.9-3.4c2.6-0.2,4.8-0.9,6.2-3.4c0.8-1.6,2.3-2.6,3.7-3.7c2.9-2.3,5.8-4.7,5.9-9.1c0-1.2,0.9-2.3,1.4-3.4
	c3.9-8.4,6.5-17.2,6.8-26.6c0.1-2.5,2.1-4.7,0.6-7.7c-3.1-1.4-6.9-2.2-9.8-4.9c-1.7-1.5-3.3,0-5.1,0c-2.5-2.3-5-4.4-8.8-4.2
	c-1.6,0.1-3.2-1.2-4.9-1.9c-5.5-2.2-11-4.5-16.6-6.6c-3.2-1.2-5.5-3.7-8.4-5.3c-8.1-4.4-16.9-6.8-25.4-9.7
	c-4.5-1.5-8.6-3.7-12.7-5.9c-4.7-2.5-8.8-5.9-13.8-7.8c-7.4-2.8-14.2-6.7-21.7-9.2c-4.2-1.4-8.4-3.1-12.2-5.9
	c-1.9-1.4-4.4-2.2-6.6-3c-6.3-2.4-7.2-3.1-7-10.7c5.1-0.5,10.1-1.2,14.2,3.3c0.9,1,2.4,1.4,3.7,1.9c5.2,1.7,9.6,5.2,14.7,7.1
	c0.8,0.3,1.3,1.1,1.9,1.6c2,0,3.8,0,5.8,0c2.5,3.9,7.2,3.9,10.9,5.6c3.7,1.7,7.1,3.8,10.8,5.5c4.6,2.1,9.5,3.3,14.3,4.8
	c6.2,1.8,12.4,3.5,18.6,5.2c0.7,0.2,1.4,0.7,2,0.6c4.3-0.8,7.9,1.4,11.7,2.6c2.9,0.9,5.6,1.7,8.7,1.9c2.7,0.2,5.5,1.2,8,2.3
	c2.6,1.2,5.3,1.1,7.7,0.4c3-0.9,6-0.9,8.9-0.4c1.6,0.3,3,0.2,4.5-0.2c3.2-0.9,6.4-1.7,9.8-1.4c0.6,0.1,1.3-0.4,2.2-0.7
	c1.3-4.6,2.7-9.2,2.6-14.1c-0.1-2.3,0.3-4.6,0.9-6.9c1.5-5.9,2.6-11.8,5-17.4c0.6-1.4,0.9-2.8,0-4.1c-5-7.3-9.5-15-17.7-19.3
	c-2.5-1.3-4.3-4.1-6.3-6.4c-1.6-1.9-3.3-3.6-5.3-5.2c-2.6-2.1-5.2-4.3-7.1-6.9c-2-2.6-4.3-4.7-6.6-7c-2.8-2.7-5.4-5.5-8-8.3
	c-3.3-3.5-6.9-6.7-10.4-10c-0.5-0.5-1.2-0.8-1.6-1.4c-4.3-6.4-10.7-10.7-16.3-15.7c-0.4-0.4-0.8-0.7-1.1-1.1c-2.3-3.4-5.3-6-8.4-8.6
	c-2.4-2.1-4.3-4.8-6.2-7.3c-4.3-5.8-9.8-10.3-14.5-15.7c-0.5-0.5-0.9-1.1-1.6-2c2.3-2.4-0.3-6.8,3.9-8.8c2.4,1.4,4.5,2.8,6.4,5.3
	c3.2,4.2,7.2,7.8,10.8,11.7c3.8,4.2,7.5,8.6,10.9,13.3c3,4.1,6.6,7.7,10.7,10.8c4.6,3.5,8.9,7.5,13.3,11.3c4.5,3.8,9,7.5,13.5,11.2
	c0.8,0.7,1.6,1.6,2.5,1.9c4.4,1.6,7.9,4.9,12.1,6.9c1.9,0.9,3.7,2,5.4,3.3c6.2,4.9,12.8,9.5,19.4,13.7c2.3,1.5,5,2.5,7.3,4.1
	c1.8,1.2,3.7,1,5.8,0.9c1.4-2.9,2.8-5.7,4.9-8.1c1.5-1.7,0.2-3.9,1.2-6.6c1.6-1.5,3-4.1,4.2-6.9c2-4.6,5.3-8.4,8.2-12.4
	c2.8-3.8,4.9-7.8,6.8-12.1c-0.9-4.3-3.7-7.4-7-9.7c-4.6-3.1-7.5-7.5-10.2-12c-2.4-4-5.4-7.5-8.2-11.1c-3-3.7-5.6-7.8-9.7-10.5
	c-1-0.6-1.6-1.9-2.2-3c-3-5.9-7.1-10.9-11.1-16.1c-2.6-3.4-6-5.9-8.4-9.4c-2.3-3.4-5-6.5-7.6-9.6c-2-2.3-3.5-4.9-5-7.6
	c-1.8-3.2-4.3-6-5.7-9.6c-0.8-2.1-1.1-4.1-0.6-5.9c1.7-1.9,3.5-1,5.1-1.1c2.5,2.5,4.4,5.3,6.1,8.1c0.3,0.5,0.4,1.2,0.7,1.4
	c4.6,2.8,6.1,8.2,10.1,11.5c1.9,1.6,3.1,3.8,4.2,6.1c1.5,2.9,4,5.2,5.8,7.9c1.7,2.6,3.6,4.9,6.2,5.8c3.4,6.4,8,11,13.5,15.2
	c4.2,3.2,8.4,6.3,12.4,9.7c0.7,0.5,1.1,1.3,1.9,1.7c6,3.2,11.7,7.1,17.2,11.1c2.5,1.8,5.3,2.8,8,3.7c2.3-0.8,3.2-3.1,4.3-4.7
	c3.5-5.3,8.2-9.3,12-14.2c3-3.9,7-6.5,10.4-9.8c1.9-1.9,3.7-3.7,5.2-5.9c1.4-2.1,2.6-4.2,5.5-4.6c1.4-0.2,2-1.9,2.6-2.8
	c0-0.7,0.1-1.2,0-1.4c-4.9-7.2-6.4-15.7-8.2-24c-0.6-2.5-0.9-4.9-2.6-6.9c-0.1-0.1-0.3-0.3-0.3-0.4c-2.3-6.9-4.7-13.8-6.7-20.8
	c-1.7-5.8-3.2-11.7-4.5-17.6c-0.9-4.1-2.7-8-3.7-12c-0.2-0.8-0.2-1.8-0.2-2.5c1.6-2.2,3.5-2.6,5.9-2c2,1.3,3,3.5,3.6,5.7
	c1.2,4.3,3.3,8.2,3.6,12.8c0.2,4.4,2.6,8.5,4.1,12.7c2.1,5.8,4,11.8,6.9,17.3c2.9,5.6,4.8,11.9,9,16.8c0.8,0.9,1,1.9,1.2,2.9
	c0.8,3.2,3,5.2,5.7,6.8c2,1.1,4,1.2,6-0.1c4.5-3.1,9-6.3,13.5-9.2c1.7-1.1,3.5-2.2,5.4-3.1c4.1-1.9,8.3-3.9,11.2-7.9
	c5.5-2.5,11.2-5.1,16.6-7.5c1.3-2.3,0.5-4.8,2.4-6.4c1.1-1,0.6-2.7,0.6-4.2c0-3.1-0.1-6.1,1.1-9c1-2.5,1.1-5.2,1.1-8
	c0-3.4-0.3-6.8,0.9-10.2c0.6-1.6,0.2-3.6-0.4-5.3c-0.6-1.6-0.7-3.2,0.2-4.7c1.2-2.1,1.2-4.4,1.5-6.8c0.7-4.9,1.2-10,5.7-13.4
	c2.4,0,4.4,0.8,5.8,3.2c-1.6,5.9-0.7,12.3-1.8,18.3c-1.2,6.4-0.1,12.6,0.8,18.7c0.9,6.1,1.2,12.4,3.3,18.2c3.3,0.4,6,0.5,8.6-1.1
	c0.6-0.4,1.3-0.8,1.9-0.8c6.6-0.4,12.6-3,18.4-5.9c0.5-0.2,1-0.7,1.4-0.6c3.9,0.6,7.2-1.6,10.6-2.7c1.8-0.6,3.5-0.5,5.2-0.6
	c3.7-0.1,7.3,0.3,11-1c2.2-0.8,4.9-0.3,7.4-0.1c3.6,0.3,7-0.1,10.2-2.1c5.8,2.3,11.6,5.4,18.2,2.1c2.7,1.5,5.8,1.3,8.8,1.9
	c3.1,0.6,6.1,1.6,9.3,1.3c1.8-0.2,3.4,0.5,5.1,1c2.1,0.7,4.2,1.1,6.7,0.6c3.8-0.7,7.6,0.7,11.2,2.2c3.6,1.5,7.2,2.8,11.1,2.9
	c0.5,0,1.2,0,1.5,0.3c3.8,2.9,8.6,3,12.7,5c0.8,0.4,1.5,0.8,2.2,1.3c2.8,1.9,5.9,2.9,9.3,3.2c5.7,0.6,11.3,2,17,3.1
	c2.7,0.5,4,2.7,5.7,4.5c-0.5,2.1-1.1,3.9-3.2,4.7c-0.3,0.1-0.7,0.2-1,0.2c-5.3-0.3-10.3-1.9-14.9-4.7c-1-0.6-2.2-0.8-3.1-0.3
	c-2.7,1.6-5.4,0.6-7.6-0.6c-2.9-1.5-6.1-2-9.1-3c-3.2-1.1-6.4-1.9-9.7-2.5c-1.6-0.3-3.1-0.4-4.7-0.5c-1.1,0-2.3,0.2-3.1-0.3
	c-4.7-3-10-2.9-15.2-3.1c-2.1-0.1-4.3,0.3-6.1-1.2c-2.9-2.5-6.6-2.7-9.9-2.8c-5.8-0.2-11.5-1.5-17.3-1.3c-5.9,0.1-11.8-0.4-17.7,0
	c-1.6,0.1-3.2,0.3-4.7,0c-3.6-0.8-6.5,1.5-9.7,2c-3.2,0.6-6.7-0.5-9.7,1.9c-1,0.8-2.8,1.7-4.4,1.1c-1.2-0.5-2.1,0.2-2.9,0.8
	c-2.6,1.8-5.6,2.4-8.5,2.7c-4,0.4-7.4,2-11,3.4c-3.9,1.5-7.8,2.9-11.6,5.1c-2.1,1.2-5,2-7.4,2.3c-5,0.6-8.7,3.7-12.9,5.9
	c-7,3.5-12.7,8.9-19.5,12.8c-1.6,0.9-3.2,1.4-4.8,2.3c-1.5,0.8-3.3,1.3-4,3.3c-0.2,0.6-0.8,1.4-1.4,1.6c-5.7,1.6-9,6.6-13.3,10.2
	c-7.9,6.6-15.1,14-21.9,21.8c-1.1,1.2-2.7,0.9-3.5,2.2c-4.2,7.4-9.8,13.7-16.6,20.3c-0.7,3.2-3.7,6.3-6,9.9
	c-3.1,5-6.1,10.1-8.7,15.3c-2.6,5.1-5,10.6-6.7,16.2c-1.2,3.8-3.1,7.2-4.4,10.9c-1.7,4.9-2.9,9.8-4.1,14.8c-1,4.5-2.1,8.9-2.5,13.6
	c-0.5,6.5-1.3,13.1-3.4,19.3c-0.1,0.3-0.5,0.7-0.4,1c0.5,6.4-2.7,12.7-0.6,19.2c0.2,0.5,0.3,1.1,0.1,1.6c-2,5.7,0.3,11.5-0.9,16.5
	c1.7,5,4.5,7.3,9.1,7.9c2.7,0.4,5.3,1.8,7.9,2.7c6.1,2.1,12.3,1.8,18.6,0.5c1.7-0.4,3.5-0.9,5.1,0.2c0.6,0.4,1.4,0.6,2,0.3
	c2.8-1.6,5.9-1,8.8-0.9c7.4,0.4,14.7-0.8,22.1-1.2c7.5-0.5,14.9-1.9,22.3-3.2c3.1-0.6,5.9-2.3,9.1-2.5c6.9-0.4,12.8-4.7,19.7-5.2
	c8-3.7,16.8-4.3,25-7.5c2.7,1.4,4.5,3.3,5.2,6.5c-4.1,2.6-8,5-13,5.3c-5.8,0.4-11.4,2.2-16.7,4.7c-6.2,3-12.9,4.4-19.5,6
	c-2.2,0.5-4.5,0.6-6.5,1.9c-0.6,0.4-1.3,0.6-2,0.6c-2.5,0.1-4.8,0.3-7.1,1.8c-1,0.7-2.7,0.4-4.4,0.6c-1,0.9-2.2,1.9-3.3,2.9
	c-1.4,0.2-2.6,0.1-3.9-0.6c-4.4,2.3-9,4.6-14.3,3.9c-2.8-0.4-5.5,1.4-8.2,0.2c-0.3-0.1-0.7,0-1,0.2c-3.2,2-6.7,2.8-10.5,3
	c-1.6,0.1-3.2,1.2-5,1c-5.9-0.8-11.5,1.1-17.2,2.3c-2.3,0.5-4.4,0.9-6.7,1c-1.9,0.1-3.5,0.4-4.3,2.4c0.8,3.2,2.9,5.6,4.3,8.5
	c2,4.2,3.9,8.4,5.8,12.6c1.1,2.4,2.3,4.7,4.8,6.1c2.3,1.3,3.1,3.9,3.6,6.3c0.7,3.4,2.6,5.9,5.3,7.7c1.8,1.2,3.3,2.7,4.9,4
	c5.2,4.3,9.5,9.3,13.7,14.6c1.5,2,4.1,3.1,6.2,4.5c1.2,0.8,2.5,1.3,3.1,2.8c1.8,4.8,6,7.5,9.3,10.8c2.1,2.1,5.1,3.3,5.6,6.7
	c3.4,1.7,5.2,5.3,8.3,7.4c2.2,1.4,3.9,3.4,5.5,5.7c2.8,4.1,6.5,7.5,10.3,10.6c1.7,1.4,3.1,2.7,4.3,4.5c1.3,2.1,2.2,4.5,4.8,5.5
	c0.6,0.2,1,1.4,1.4,2.2c0.5,0.9,0.8,1.9,1.2,2.9c2.8,6.5,6.6,12.2,11.9,16.9c2.3,2,4.3,4.2,5.5,7.5c4.5,0.9,6.2,5.3,9,8.4
	c1.7,1.9,3.2,3.7,5.8,4.6c0.6,2.5,2.5,4.2,3.6,6.3c1.8,3.3,4.1,6.1,6.5,8.9c3.6,4.3,6.3,9.4,10.8,12.9c1.4,1.1,2.5,2.4,3.3,4.1
	c0.9,1.8,2.4,3.2,4.4,2.9c3,3.5,4.8,7.9,9,10c0.2,0.1,0.3,0.2,0.4,0.4c3.7,5.4,8.3,10.2,10.8,16.4c2.2,5.6,0.2,9.8-5.5,10.9
	c-2.6,0.5-5.1,1-7.6,2.1c-1.4,0.7-3.1,0.5-5,0c-2.6-3-6.1-5.5-9.1-8.5c-3.7-3.7-7.8-7.2-10.3-11.9c-0.2-0.5-0.6-1.2-0.9-1.3
	c-2.8-0.7-3.7-3.5-5.5-5.3c-1.7-1.7-3.3-3.5-4.5-5.7c-1.3-2.4-4-3.9-5.5-6.3c-3.8-5.8-9.6-9.4-14.8-13.5c-1.5-1.2-3-2.4-4.3-3.8
	c-2.8-3-5.5-6-9.3-7.8c-1.7-0.8-3.1-2.4-4.3-4c-3.6-4.7-8.7-7-13.9-9.1c0.2-0.6,0.4-1.2,0.5-1.8c-0.2-0.4-0.3-0.9-0.5-1.1
	c-5.2-3.4-9.2-8.3-15-10.7c-3.5-1.5-7.2-2.9-10.6-4.7c-5.6-3-11.4-5.4-17.4-7.2c-8.2-2.5-16.3-4.9-24.6-7.2
	c-2.8-0.8-5.8-1.1-8.8-1.6c-2.2-0.4-4.1,0.6-6.3,1.2c-1.6-0.7-3.2-1.3-5.1-2.1c-3.3,2.1-7.4-0.1-11.2,1.6c-4.6-2.8-9.9-2.4-14.8-1.3
	c-5,1.1-10,1.9-14.9,2.6c-2.8,0.4-4.7,2.1-7.3,2.6c-3.2,0.6-6.3,1.4-9.2,3.5c-2.2,1.6-5.6,2.1-8.4,1.8c-1.4,0.6-2.3,1.5-2.9,2.6
	c-1,2-2.4,3.3-4.7,4c-1.6,0.5-3.2,1.8-4.1,3.2c-2.3,3.7-6.5,5.9-7.8,10.4c-0.2,0.8-0.6,1.8-1.2,2.3c-2.5,2.3-4.8,4.5-5.3,8.2
	c-0.1,0.9-1.7,1.7-2.5,2.5c-1.5,5.6-4,10.7-6.4,15.8c-2.4,4.9-3.3,10.1-4.4,15.3c-0.3,1.6-0.9,3.1-1.2,4.6
	c-0.9,5.2-3.3,10.2-1.2,15.7c-0.3,8.2,3.4,15.5,4.5,23.4c0.2,1.4,0.7,2.8,1.3,4c1.6,3,3.1,5.8,3.1,9.5c0,1.9,1,4.5,3.5,5.6
	c1.2,0.5,2.1,1.8,2.8,3.2c0.7,1.4,1.4,3.1,2.5,4.1c6.2,5,9.1,12.6,14.2,18.4c0.9,1.1,1.7,2.4,3,3c1.6,0.8,2.4,2.1,3,3.6
	c1.2,2.8,3.2,4.7,5.6,6.3c1.1,0.7,2,1.5,2.8,2.4c4.4,4.6,8.8,9.3,13.2,13.8c3.2,3.4,6.2,7.3,9.3,10.8c3.5,4,6,9.3,11.4,11.4
	c1,0.4,1.3,1.6,2,2.4c1,1.3,2,2.6,3.3,3.5c5.6,3.8,10.8,8.3,16.2,12.3c1.9,1.4,3.4,3.1,4.8,4.9c1.6,2,3.5,3.6,6.2,3.7
	c1.7,0,2.9,0.8,4.3,2.1c-1.6,2.1-3.1,4.2-3.7,6.3c-1.5,1.7-3.4,1.1-4.5,2.6c-5.6-2.3-11.5-3.4-16.2-7.7c-3.4,0.2-6.9-0.3-10.1-1.8
	c-2.2-1-4.6-0.1-7.5-0.8c-1.4-1-3.2-2.2-4.1-5c-0.7-2.3-3.2-4.1-5-6c-5.4-5.6-10.9-11.1-16.3-16.8c-2.4-2.5-5.9-3.2-8.3-5.6
	c-1-1-2.4-1.7-3.2-2.8c-2.3-3.6-5.7-5.1-9.7-5.8c-2.2-3.3-4.8-6.3-8.2-8.7c-2.1-1.5-3.9-3.9-5.8-5.9c-4.6-4.9-9.6-9.4-15.3-12.9
	c-1.6-1-2.9-1.5-4.7-1.8c-2-0.3-4.3-0.5-5.7-2.3c-1.4-1.7-3.4-2.4-5.3-3.3c-3.9-1.7-7.3-4-10.2-7.2c-2.4-2.6-5.7-3.9-8.8-4.3
	c-4-0.5-6.6-3-9.7-4.9c-1.2-0.7-2.1-1.7-3.6-2.1c-3.8-1.1-7.7-2.3-10.7-5.3c-1.1-1.1-2.8-0.6-3.9-1.3c-5.4-3.3-11.8-4.3-17.5-6.7
	c-2-0.9-3.7-2-5.1-3.3c-4.1-1.2-8.3-1.3-12.2-3.1c-3.2-1.5-7.2-1.5-10.8-1.6c-7.6-0.2-15.2-0.1-22.8-0.1c-1.4,0-2.8-0.3-4.1,0.6
	c-2.9,1.9-5.9,3.1-9.4,2.8c-0.9-0.1-2,0.7-2.9,1.3c-2.4,1.7-5,2.4-8,1.8c-1.3,1.3-2.6,2.5-4.2,4c-3.8,0.7-8,1.5-11,4.8
	c-1.1,1.2-2.7,0.7-4.3,1.3c-1.6,5-8.3,5-10.4,10.2c-3.4,0.4-5.7,3.2-8.9,5.2c-0.6,0.8-0.2,2.4-1.4,3.5c-4.6,4.2-7.9,9.5-12,14.1
	c-4.2,4.8-9,8.9-13.6,13.1c-5,4.6-9.5,9.7-13.5,15.2c-0.8,1.1-1.6,2.5-2.7,3.2c-4.7,2.8-7.7,7.3-11.5,10.9c-4.1,3.9-7.9,8-12.2,11.7
	c-2.1,1.8-4.5,4.1-4.7,7.5c-3.3,1.8-6.1,3.7-6.7,7.8c-0.2,1.4-1.3,2.5-2.3,3.5c-1.1,1.1-2.1,2.4-3.4,4c0,0-0.5,0.1-1,0.4
	c-3,1.6-5.8,1.2-8.3-1.2c-2.7-2.6-3.4-6.3-2.2-9.5c1-2.7,1.5-5.4,2.1-8.2c0.4-1.7,1.4-3.3,2.3-5c5.5-2.6,9.2-7.1,12.6-12.2
	c2.3-3.6,5-6.8,7-10.7c0.8-1.5,2.1-2.8,3.4-4c2.7-2.4,4.8-5.3,4.2-9.4c5.2-4.7,9.2-10.3,11.9-16.8c0.3-0.6,0.7-1.2,1.2-1.7
	c4.4-4.1,4.7-4.8,5.1-10.4c5.8-6.7,7.4-15.9,13.6-22.6c-0.1-3.1,0.8-6.2,1.9-9.1c2.4-6.1,4.9-12.2,7.5-18.2
	c1.7-3.9,3.9-7.6,3.3-12.1c-0.1-0.8,0-1.8,0.4-2.6c2-4.1,2.1-8.6,2.6-13c0.4-3.4,0.8-6.8,1.8-10c0.6-1.9,0.3-3.5-0.4-5.1
	c1.5-3.3,3.6-6.5,2.2-10.4c-0.3-0.8-0.1-1.4,0.3-2c0.5-0.8,0.7-1.8,0.5-2.6c-1.7-5.6-0.2-11.9-3.4-17.1c-1.9-3.1-2-6.4-1.9-9.9
	c0-1.1-0.1-2.2,0-3.3c0.5-5.9-1-11.7-1.9-17.4C221.2,463.8,221.7,461.6,222.7,459.4z"/>
<path class="st3" d="M627.4,760.4c-6.6-0.3-11.8,1.1-16.9,3.2c-0.9,0.4-2.1,0.2-3.1,0.2c-2.1-0.1-4.2,0.1-6.2,1
	c-2.3,1-4.7,1.3-7.2,1.2c-5.6-0.1-11.1,1-16.7,1.8c-4.8,0.7-9.8,1.2-14.6-0.7c-0.8-0.3-1.6-0.9-2.4-0.9c-5.9,0.5-11.4-1.6-17.1-2.4
	c-0.7-0.1-1.6,0.2-2.1-0.1c-4.9-2.8-10.4-3.9-15.8-5.4c-4.2-1.2-7.7-4.3-12.2-4.3c-0.6,0-1.4-0.4-1.9-0.8c-6.2-4-13-6.9-19.3-10.8
	c-3.8-2.3-7.3-4.8-11.5-6.3c-0.8-0.3-1.7-0.5-2.6-0.8c-0.9-1.1-1.2-2.9-3.3-3.9c-0.8-0.1-2.2-0.3-3.7-0.5c-1.3-3.2-3.3-5.5-6.7-6.3
	c-1.7-3.2-5.4-3.9-7.6-6.4c-4.9-5.8-11.3-9.7-17.3-13.9c-1.9-1.3-3.6-2.8-5.3-4.3c-3-2.4-5.8-5-9.6-6.4c-2.6-1-4.6-3.7-6.9-5.7
	c-3.4-2.9-7.2-5.1-11.7-5.7c-2.3-3.1-4.3-6.5-8.4-7.6c-2.1-3.9-6.3-5-9.7-6.9c-3.3-1.8-6.5-4.2-10.7-3.8c-1.6-2.9-4-4.2-7.2-4.5
	c-2.5-0.3-4.8-2.2-7.3-2.9c-4.4-1.1-8.7-2.3-12.9-4.1c-1.1-0.5-2.4-0.6-3.6-0.5c-2.5,0.2-4.4-1-6.4-2c-2-0.9-4.1,1.1-6.1,0.2
	c-2.3-1.1-4.7-1.3-7.1-1.9c-4.4-1.2-7.9-0.7-12.4,1.5c-3.7-3.3-8.1-2.1-12.4-1.5c-1.2,0.2-2.4,0.8-3.6,0.5c-4.1-1.1-7.9,0-11.6,1.6
	c-0.6,0.3-1.3,0.7-2,0.7c-5.5-0.1-10.7,1.8-15.8,3.4c-4.8,1.5-8.9,1.1-13-1.8c0-1.5,0-2.9,0-4.1c1.8-4,5.6-4.5,8.8-5.8
	c6.1-2.6,12.5-4.6,19.2-4.9c2.7-0.1,5.4-1,8.1-1.5c4.4-0.9,8.9-1.2,13.1-0.1c3.3,0.9,5.8,0.7,7.8-1.2c1.7-0.3,2.4,0.5,3.3,1.1
	c2.1,1.4,4.4,2.1,7,2c2.1-0.1,4.3,0.1,6.4,0c8.2-0.6,16,1.3,23.7,3.8c2.7,0.9,5.3,1.8,8.2,1.7c3.1-0.1,5.7,1.8,8.3,3.1
	c6.6,3.5,12.9,7.8,20.2,9.7c2.6,0.7,4.3,2.3,6.1,4c2.6,2.6,5.6,4.2,9.1,4.9c1.9,0.4,3.4,1.3,4.9,2.8c6.4,6.4,13.4,11.9,21.8,15.5
	c2.2,1,4,2.9,6.6,3.3c2.6,4.3,6,7.6,10.4,10.2c2.4,1.4,4.1,3.9,6.1,6c0.8,0.8,1.4,1.9,2.3,2.3c5.9,2.3,9.6,8.4,16.1,9.7
	c0.8,0.2,1,0.9,1.5,1.4c2.7,2.7,5.4,5.3,8.3,7.8c1.3,1.1,2.9,1.9,4.4,2.9c2.2,1.4,4.7,2.6,6.6,4.3c1.7,1.5,3.5,2.2,5.6,2.2
	c4.7,6.2,11.8,7.7,18,10.7c6.5,3.2,13.5,3.1,20.5,3.5c6.7,5.2,11.1,5.1,18.3,2c3.9,2.6,8.2,3.2,12.6,0.5c1.7-1,3.8-0.8,5.7-0.6
	c2.8,0.2,5-0.6,7.5-1.7c2.8-1.2,5.1-3,7.7-4.5c0.4-0.3,1.1-0.5,1.3-0.9c2.8-6.4,8.3-11.5,7.5-19.5c-0.3-3.2-1.2-5.7-3.6-7.4
	c-1.2-0.9-2.2-1.8-2.6-3.2c-1.4-4.8-4.5-8.4-7.6-12c-2-2.2-3.7-4.5-5.1-7.3c-1.9-4-4.8-7.5-7.5-10.9c-2-2.5-4.5-4.6-6.3-7.3
	c-0.5-0.7-1.1-1.6-1.9-1.9c-4.3-1.7-6.8-5.6-9.5-9c-2.4-3.1-5.2-5.5-8.4-7.1c-6.1-3.1-10.6-8.2-15.9-12.2c-2.9-2.2-5-5.5-7.2-8.5
	c-3.9-5.2-8.6-9.9-11.4-16c-0.1-0.3-0.2-0.8-0.5-0.9c-6.7-4.5-9.7-12.8-16.4-17.2c-1.3-0.9-2.2-2.1-4-2.2c-2.4-0.1-3.4-1.9-3.5-4.3
	c-0.2-0.3-0.4-0.6-0.7-0.8c-5.9-2.4-11.4-5.3-14.5-11.5c-3.1-1.7-4.7-4.8-6.8-7.4c-5.3-6.9-10-14.1-11.2-23.1
	c-2.8-4.1-1.5-9.1-2.9-13.5c-0.5-1.7-0.3-3.5,0.2-5.3c0.9-3.2,0.9-6.6,0.7-10c-0.1-1.5,0.4-2.8,0.9-4.1c0.9-2.5,2.1-4.9,2.4-7.6
	c0.1-1.5,0.8-3.5,2.3-4c2.7-1,3.3-3.5,4.5-5.8c2.3-1.2,4-3.1,5.6-5.4c1.7-2.5,4.1-4.5,6.2-6.6c3.1-3.2,6.2-6.3,9.3-9.5
	c2-2.1,4.1-3.8,7-4.6c1.2-0.3,2.4-0.9,3.3-1.6c5.1-4.5,11.5-5.6,17.8-6.9c2.2-0.4,4.4-1.1,6.7-1.2c9.1-0.4,17.5,2.8,26,5.2
	c6.2,1.8,12.3,3.8,18.3,5.9c1.5,0.5,2.7,1.6,4.1,2.3c5.4,3,10.1,6.7,14.5,11.1c3.2,3.2,6.9,5.9,11.3,7.5c4.1,1.5,8.1,3.4,10.1,8
	c0.4,0.9,1.3,1.8,2.2,2.3c5.7,3,10,7.8,15.2,11.4c3.8,2.7,6.6,6.4,10.1,9.3c1.6,1.4,3.1,2.8,5,4c4.9,3,8.2,7.8,12.5,11.6
	c1.5,1.3,3,2.4,4.5,3.7c5,4,10.7,7.4,13.9,13.4c0.9,1.6,2.9,2.5,4.2,3.9c4.5,4.5,8.8,9.3,13.5,13.6c6.8,6.2,12.9,13.1,18.8,20.1
	c4.5,5.4,8.7,11.2,12.9,16.9c2.9,3.8,5.5,7.8,8.4,11.6c1,1.4,2.1,2.8,3.6,3.8c3.7,2.4,5.5,6.5,7.7,10.1c1.2,2.1,2.7,3.7,4.4,5.2
	c1.2,1.5-0.4,4.3,2.2,5.1c2.1,4.7,5.4,8.7,7.4,13.3c1.3,2.8,2,6,3.7,8.7c4.7,7.4,8.7,15.3,12.2,23.4c2.3,5.2,4,10.6,6.6,15.7
	c0.4,0.9,0.2,2.1,0.3,3.2c0.1,1.3-0.3,2.7,0.2,3.7c2.4,4.5,1.6,8.8,0.1,13.4c-0.6,1.9-0.6,4.2-1.2,6.2c-0.5,1.6-0.8,3.1-2,4.2
	c-0.6,0.6-1.3,1.3-1.3,2.3c0.1,3.6-2.4,5.5-5,7c-1.8,1.1-3.1,2.2-3.7,4.3c-0.3,1-1,2.1-1.8,2.6c-4.1,2.8-6.7,7.2-11,9.8
	c-0.9,0.5-1.4,1.4-2.1,2.2c-4,4.7-8,9.4-13.8,12.3c-3.7,1.8-7.1,4.4-9.8,7.7c-0.9,1.1-2,1.9-3.3,2.7c-5.2,3.2-10.6,5.9-16.4,7.9
	c-0.7,0.2-1.3,0.5-2,0.6c-3.1,0.4-6.2-0.4-9.3-0.2c-3,0.1-5.9,0-8.9-0.5c-4.8-0.9-9.7-1.3-14.5-2.4c-0.7-0.2-1.5-0.3-2.1,0
	c-4,1.5-7.9,1-11.9,0.2c-1.8-0.4-3.9-0.5-5.7,0.4c-0.3,0.2-0.8,0.4-1,0.3c-5.3-2.5-9.7,1.8-14.6,2c-4.4,0.1-8,2.2-12,3.5
	c-6,2-12.1,3.4-18.3,4.3c-3.2,0.4-6.4,2.3-9.7,0.2c-0.4-0.2-1.1-0.2-1.5,0.1c-2.6,1.5-5.1,1.1-7.3-0.5c-4.4,2.6-8.6,2.6-13.2,1.7
	c-3.5-0.7-7.3,0.3-10.9-0.2c-1.2-0.2-2.6,0.3-3.5-0.7c-1.9-2-4.1-1.7-6.4-1.6c-3.3,0.2-6.7,0.4-9.7-1.5c-1.8-1.2-3.8-0.2-5.7-0.8
	c-3.1-1.1-6.3-1.9-9.4-3.2c-6.6-2.8-13.6-4.3-20.4-6.6c-4.1-1.4-8.3-2.3-12.3-3.9c-7.4-2.9-15.1-5.3-22.4-8.6
	c-0.8-0.3-1.7-0.3-2.6-0.4c-1.2-0.1-2.4,0-3.6-0.7c-4.3-2.7-9.5-3.5-13.5-6.8c-2.3-1.9-5.8-1.3-8.8-2.8c-2.7-3.1-6-5.9-10.4-7.1
	c-0.6-0.2-1.3-0.6-1.8-1.1c-1.6-1.7-3.7-2.8-5.8-3.6c-4.1-1.7-7.9-3.8-11-7c-1.7-1.8-4.4-0.8-6.1-2.8c-1.3-1.6-3.5-2.3-5.5-3
	c-1.4-0.5-3.3-0.5-4.3-1.9c-3.4-5-8.7-6.9-13.8-9.2c-2.1-0.9-4.1-2-5.6-3.9c-3.3,0.4-6-0.3-7.8-3.4c-0.5-0.8-1.8-1.1-2.7-1.5
	c-4.7-2-9.1-4.5-12.9-8c-2.4-2.2-5.4-3.2-8.4-4.1c-5.1-1.5-9.9-3.6-14.6-6c-2.2-1.1-4.3-2.3-7-2c-1.9,0.3-3.2-1.4-4.9-1.8
	c-4.1-1-8.2-1.8-12-3.5c-0.8-0.3-1.8-0.2-2.6-0.1c-5.9,0.7-11.4-1.4-17-2.6c-0.7-0.2-1.3-0.6-2-0.6c-6,0.5-11.9-1.7-17.9-1.2
	c-1.6,0.1-3.2,0.2-4.7-0.5c-0.8-0.3-1.8-0.6-2.6-0.3c-3.6,1.2-7.2,0.1-10.8-0.2c-5.6-0.4-11.1,0.9-16.7,3.2
	c-2.3-0.8-4.9-1.9-7.7-0.1c-0.9,0.6-2.4,0.1-3.7,0.2c-1,0-2.1-0.1-3.1,0.4c-4.2,2.2-9,2.6-13.3,4.4c-1.7,0.7-3.4,0.7-5.4,0.3
	c-1.3-2.4-3.4-4.3-4.2-7.3c0.8-3.5,3.5-3.4,6.4-3.4c3.2-3.5,7-5.5,11.9-5.5c2.6,0,5.2-1.7,7.9-2.4c3.7-0.9,7.8,0,11.2-2.4
	c0.3-0.2,1,0,1.5,0.1c3.9,1.1,7.6,0.4,11.3-0.8c4.3-1.5,8.7-1,13-0.4c0.8,0.1,1.6,0.8,2.5,0.6c6-0.9,11.8,1.7,17.8,0.9
	c0.8-0.1,1.9,0,2.6,0.5c3,2.1,6.3,2.1,9.7,1.9c4.1-0.3,7.8,1.7,11.8,2.3c6.5,1,12.8,3.2,19.3,4.6c6.2,1.3,12.7,2.8,18.1,6.5
	c1.7,1.1,3.5,0.2,5,1c0.5,2.9,2.7,4,4.8,5.2c10.3,5.6,21,10.3,31.8,14.7c0.8,0.3,1.6,0.8,2.3,1.2c7.2,4.4,15.1,7.3,21.8,12.5
	c0.5,0.4,1.2,0.6,1.9,0.9c9.3,3.6,17.7,9.1,26.2,14.2c3.7,2.3,8,3.5,11.7,5.9c4.8,3.2,10.1,5.4,15.5,7.5c0.9,0.3,1.8,0.8,2.5,1.8
	c0.7,1.2,2,2.1,3.5,2c3-0.1,5.3,1.4,7.6,3.1c2.2,1.6,5.1,1.9,7.7,3.1c7.4,3.5,15,6.6,22.6,9.6c2.1,0.8,4.3,1.3,6.5,1.7
	c3.3,0.6,6.7,1.5,9.3,4.4c2.4,2.6,6.1,2.1,9.2,3c4.5,1.4,9.5,0.2,13.7,3.1c1.7-0.7,3.3-1.6,5-0.4c1.1,0.7,2.4,0.6,3.6,0.4
	c5.3-0.8,10.6-0.4,15.7,0.2c6.6,0.9,12.7-0.8,19-1.5c3.2-0.3,6.2-2,9.5-2.4c1.5-0.2,3.1-0.7,4.6-0.6c3.8,0.4,7.4-0.5,10.5-2.6
	c2.6-1.8,5.6-1.8,8.4-2.8c2.2-0.7,4.4-1.2,5.9-3.2c1-1.3,2.4-1.8,4-2.4c3.9-1.4,8-2.7,10.9-6.1c0.3-0.4,0.5-0.9,1-1.7
	C634.8,771.1,632.8,763.9,627.4,760.4z"/>
<path class="st3" d="M531.3,333.5c1.6-0.3,2.8-0.3,4,0.3c0.2,0.3,0.4,0.6,0.4,1c0.3,2.3-0.3,4.7,0.8,6.9c0.3,0.6,0.4,1.5,0.2,2.1
	c-2,6.2-3.7,12.4-9.2,16.9c-4.9,4-10.9,5.8-15.7,9.7c-1.4,1.1-2.9,2-4.6,3.2c-2,0-4.3,0-6.8,0c-4.1-6-1.5-13.8-5.1-19.8
	c1.1-2.7,1.5-5,0.5-7.8c-1.1-3.3-1.2-7-1.3-10.5c-0.2-9.4,0-18.8-0.2-28.2c-0.1-4.5,0.7-9,1.2-13.4c0.2-2.6,1.8-4.9,2.3-7.6
	c0.6-3.2,0.8-6.4,0.8-9.6c0-3.5,0.4-6.7,2.7-9.5c1.2-1.5,1.7-3.6,1.6-5.6c-0.3-3.1,0.2-6.5,1.4-9c2.4-4.9,3.1-10.7,7.1-14.8
	c0-1.6,0.1-3,0-4.4c-0.2-2.1,0.5-4.1,2-5.4c1.6-1.4,2.3-3.1,2.8-5c1-4.1,3.6-7.3,5.4-11c4.4-9,9.5-17.8,14.8-26.4
	c0.9-1.5,1.6-3.2,3.8-4c2,1.8,4.4,3.2,7.4,3.6c0,5.2-1.1,9.7-4.4,13.7c-5.2-0.6-9.3,2.1-13.7,3.9c0.3,5.6,5.2,5.3,8.3,7.3
	c0,2.2,0,4.4,0,6.8c-2.6,2-5.4,4-9.2,3.7c-3-0.2-5.4,1.2-7.7,3c-1.3,1.1-2.6,2.2-3.9,3.3c2.4,3.1,2.4,3.1,13.2,3.7
	c1.4,4.1-1.2,8-0.7,11.9c-6.5,3.1-13.9,2.3-20.1,5.3c1.1,5.7,2.8,7.2,7.1,5.9c2.7-0.8,5.5-0.2,8.2-1.6c1.8-0.9,3.5,0.5,3.8,2.5
	c0.3,1.6,0.4,3.2-0.4,4.9c-3.9,2.8-8.7,3-13.2,4.3c-2.7,0.8-5.4,1.5-8,2.5c-1.1,0.4-2.2,1.2-2.6,2.6c0.4,2.1,1,4.1,3.3,5.2
	c3.9-0.6,7.6-2.1,11.5-3.2c2.7-0.8,5.5-1.4,7.9,0.7c1.5,3.8-0.5,7.1-1.1,10.8c-2.8,1.6-5.6,3.3-9.1,3.2c-2.7-0.1-4.6,2.4-7.2,2.5
	c-0.2,0.9-0.4,1.4-0.4,2c0,1.4,0.2,2.9,0.3,4.3c1.6,1.3,3.4,1.3,5,0.4c3.2-1.9,6.7-1.7,10.1-2.8c2.2,3.2,3.8,6.2,2,10.1
	c-0.5,1-0.2,2.5-0.3,4c-3.4,1.7-6.8,3.5-9.1,6.8c-3.3,0.6-5.8,3.1-8.9,4.1c-4.6,1.5-5.1,2.9-3.7,8.1c4.6,1.9,7.9-1.8,11.8-2.8
	c4-1,6.9-4.2,10.6-5.5c2.8,0.4,3.9,2.3,4.9,4.6c1.1,2.6,1.6,5,0.6,7c-1.7,1.9-2.8-0.7-4,0.6c-2.7,2-4.8,5.1-8.3,6.2
	c-3.2,1-5.9,3.3-9.1,4.1c-3.4,0.9-4.5,3.7-7.1,5.1c1.1,3.5,3.2,5,6.6,5.1c1.9-2.8,5.1-4.1,8-5.4C523.7,342,527.7,338.1,531.3,333.5z
	"/>
<path class="st3" d="M405.9,489.4c-2.5,0.2-4.2,0.5-5.4,3.4c-1.2,2.9-3,6-5.7,8.1c-1.2,0.9-2.1,1.9-2.3,3.5c0,0.4-0.1,0.9-0.3,1
	c-2.8,1.8-2.9,5.1-3.9,7.8c-1,2.7-2.1,5.2-4.3,7.3c-1.4,1.4-2,3.3-2.4,5.3c-0.6,2.8-1.7,5.4-2.9,8c-1.4,3.3-2.8,6.6-2.4,10.3
	c0.1,1.2-0.6,2-1.3,2.8c-1.2-0.5-1.7-1.3-1.7-2.5c0-5.8,0-11.6,0-17.3c0-0.9,0.2-1.8,0.6-2.6c1.5-2.8,1.8-5.7,1.5-8.8
	c-0.5-4.8,0.4-9.2,4.5-12.8c-3.4-3.2-2.7-6.4-0.4-9.7c0.6-0.8,1-1.9,1.2-2.9c1.2-4.7,4-8.6,6.7-12.4c0.8-1.2,1.7-2.2,2.2-3.6
	c0.6-1.5,1.5-2.9,3.6-3.4c-1-4.5,3.3-6.2,5.2-9.2c1.5-2.4,2.7-5.4,5.8-6.6c0.8-0.3,1.6-1.7,1.6-2.6c-0.1-4.5,3.2-6.8,6-9
	c2.4-1.9,4-3.8,4.1-6.7c1.9-1.4,4.1-1.9,5.1-4.7c0-1.8,0-4.2,0-6.4c1.5-1.2,3.1-2.4,3.1-4.2c-0.1-5.5,2.5-9.9,5.4-13.8
	c0.3-2.5-2.4-3.4-2.1-6.1c2.9-0.2,5.4-3,8.6-0.6c0.9-1.2,1.6-2.1,2.3-2.9c4.9-0.9,9.7-2.5,15.1,0.6c2.7,3-0.8,5.1-2.4,7.6
	c-0.2,5,0.9,10.6-4.8,12.4c-1.2,2.6,0.5,4.1,0.5,6.3c-1.5,2.4-3.8,4.8-3.3,8.4c0.1,0.5-0.3,1-0.6,1.5c-1.7,2.6-3.2,5.2-3.8,8.5
	c-0.4,2.2-2.6,4.1-3.8,6.1c-1.1,1.8,0.6,3.5-0.9,4.9c-1.3,1.2-2.5,2.5-3.7,3.8c-0.4,0.5-0.9,1.3-0.8,1.9c0.5,2.7-1.2,5-2.6,6.1
	c-3.2,2.5-4.6,6.2-7,9.2c-2.5,3-5.7,5-8.5,7.6C409.4,484.7,407.7,486.8,405.9,489.4z"/>
<path class="st3" d="M262.8,532.7c0.1,4.5,0.4,9.4-1.4,13.3c-2,4.2-3.5,9-7,12.4c-0.5,0.5-1.2,0.8-2,0.2c-0.6-0.7-0.4-1.5-0.1-2.4
	c0.3-0.8,1-1.8,0.8-2.5c-1.7-4.7,0.2-9.3,0.1-14c0-4.7,0.1-9.4,0-14.1c-0.2-4.5,0.9-9-0.9-13.4c-0.3-0.7,0-1.4,0.4-2
	c0.8-1.3,0.7-2.8,0.4-4.2c-1.4-7.1-1.5-14.2,0-21.4c0.3-1.5,0.3-3.2-0.4-4.8c-1.3-3.2-0.8-6.4,0.7-9.4c1-1.9,1.6-3.9,2.4-5.9
	c0.3-0.9,1-1.8,0.4-2.5c-1.9-2.4-0.2-4.7,0.5-6.6c0.9-2.7,1.9-5.2,2.2-8.1c0.3-2.8,1.1-5.7,2.5-8.1c3.3-5.6,4.7-12.2,9.3-17.3
	c2-2.1,3.2-5,6.3-5.9c0.8-4.9,4.4-6.3,8.4-6.7c2-0.2,3.9-0.8,5.5-1.5c4.6-2,9.3-2.7,14.1-3.6c4.6-0.9,8.5,0.4,12.8,1.4
	c-1.8,2.3-1.8,2.3-6.3,2.6c-4.5,3.2-7.4,8.1-11.6,11.6c-0.4,0.3-0.7,0.8-0.9,1.3c-3.1,7.5-8.2,13.6-12.9,20
	c-1.4,1.9-2.3,4.4-3.3,6.6c-1,2.2-1.9,4.3-4.5,3.9c-0.8,1.7-0.4,3-0.5,4.5c0.8,1,1.7,2.1,2.7,3.3c-2.5,7.4-6.6,14.4-5.9,22.7
	c-0.7,1.3-1.4,2.6-2.2,3.9c0.3,2.8-0.4,5.6,0.7,8.5c1,2.5-0.4,5-1,7.3c-0.8,2.9-1.4,5.9-1.8,8.9c-0.4,3.5-1.8,6.9-3.2,10.1
	c-1.1,2.5-2.4,4.8-2.1,7.6C265.2,530.4,263.5,531.3,262.8,532.7z"/>
<path class="st3" d="M324.1,533.9c-4.1-0.9-6.1,3.6-9.8,3.6c-1,1.1-0.5,2.2-0.7,3.7c-1.4,1.4-2.9,3-4.6,4.6
	c-2.2-2.9-2.3-3.9,0.1-5.1c2.2-1.1,3.6-2.2,3.4-4.8c-0.2-2.2,2.3-2.6,3.2-4.8c-0.1-2.4,0.2-5.2,3.3-6.9c-0.7-3.5,1.6-6.6,1-10.6
	c1.4-1,3-2.2,4.4-3.3c-0.5-5,0.7-9.1,2.3-13.1c0.8-2,1.1-3.7-0.3-5.5c2.6-4.5,3.2-9.5,3.5-14.1c0.4-6.1,1.6-11.9,2.8-17.7
	c0.3-1.6,0.4-3.2-0.2-4.8c-1.7-4.3-0.5-8.5,1-12.5c0.9-2.7,2.5-5.2,3.2-7.9c1.7-6,5.7-10,10.3-13.7c1-0.8,1.6-1.8,2.3-2.8
	c2.7-3.9,5.2-8.1,10.1-9.8c1.1-0.4,1.9-1.6,3.2-2.7c5.5,2.9,12.2-0.2,18.3,2.8c-1.6,6.8-7.9,9.4-10.8,14.9c0.4,4.7-1.9,8.8-4.4,12.7
	c-2.9,4.4-5.5,9-8.7,13.3c-1.9,2.4-4.2,5.3-4,9.1c0.1,1.4-1.2,2.2-1.7,3.2c-1.9,3.6-4.2,7.2-3.1,11.6c0.4,1.5-1.3,2-1.4,3.7
	c1.5,2.3,1,4.8-0.2,7.3c-1.2,2.6-2.2,5.4-2,8.2c0.4,5.2-1.1,9.6-5.2,12.8c-0.1,1.5-0.3,2.7-0.2,4c0.1,2.3-0.5,4.2-2.2,5.8
	c-3,2.9-5.1,6.3-6.4,10.3c-0.3,1-1,2-1.8,2.6C327,529.5,325.5,531.4,324.1,533.9z"/>
<path class="st2" d="M579.4,420.8c-2.2,1.9-4.6,2.4-7-0.4c-2.7-3.1-6-5.4-8.1-9.6c-3.1-6.1-6.9-8.3-11-8.3c-3.5,0-6.2-2.8-9.2-5
	c-7.7-5.6-15.6-10.3-23.4-15.3c-0.6-0.4-1.2-0.9-1.7-1.3c-0.1-1.6,0.1-3.1,0.9-3.2c5.4-0.6,10.6-0.6,16,1.4c5.1,2,10.3,3.2,15.4,5.4
	c3.6,1.6,7.1,3.8,10.5,6.5c0.4,0.3,1,0.5,1.2,1.1c4.5,9.4,10.8,14.8,16,22.4C580,416.1,580.2,418.2,579.4,420.8z"/>
<path class="st3" d="M587.5,130.6c-2.3-1-2.4-2.8-1.8-4.6c0.5-1.3,1-3,2.3-3.5c3.9-1.5,5.9-5.3,9.1-7.6c1.6-1.1,3.1-2.2,5.1-2.7
	c1.7-0.5,3.2-1.4,4.7-2.3c0.7-0.4,1.1-1.4,1.9-1.8c1.1-0.5,2.3-0.8,4-1.3c-0.5,2.3-1.3,4.6-3.1,5.1c-4.1,1.1-5.5,5.1-8.7,7.2
	c-3,2-5.4,5.1-8,7.8C591.5,128.5,590,130.1,587.5,130.6z"/>
<path class="st3" d="M580.8,139.9c-4.5,5.4-8.1,11.5-13.9,15.6c-2.1,0.4-3.3-0.6-3.5-2.8c-0.2-3.3-0.1-6.2,3.3-8.3
	c3.6-2.2,5.6-6.2,8.8-9.4C577,136.6,579,137.3,580.8,139.9z"/>
<path class="st3" d="M556.7,174.1c-2.9,0.2-5.4,0-7.4,1.1c-1.6-0.8-2-1.7-1.4-3.2c1.6-4.3,3.7-8.3,6.1-12c3.7-0.5,4.7,3.2,7.1,3.8
	c0.2,1.1,0.3,1.9-0.4,2.3C557.9,167.7,557,170.5,556.7,174.1z"/>
<path class="st2" d="M308,547.5c-0.2,0.7-0.7,1-1.3,1.2C306.8,547.5,306.8,547.5,308,547.5z"/>
<path class="st2" d="M524.1,572.6c3.2-4.3,5-9.2,7-14.1c2.5-1.2,4.3-3.2,6-5.6c1.7-2.3,3.5-5.1,6.7-5.9c0.5-0.1,1.1-0.4,1.4-0.7
	c3.4-5.3,9-6.4,14.3-8c1.2-0.4,2.6-0.5,3.4-1.3c3.1-3.2,7-2.5,10.8-3.1c4.3-0.7,8.7-0.5,13-1.5c3.5-0.9,7-0.9,10.2,0.8
	c1.7,0.9,3.4,1,5.1,1c5.1-0.1,9.5,2.1,13.8,4.4c0.6,0.3,1.2,0.9,1.6,1.4c3.6,4.7,7.9,8.7,11.8,13c0.8,0.9,1.5,1.9,2.2,3
	c3.7,6.3,7.9,12.2,12.6,18.2c0,1.3,0,2.9,0,4.7c1.7,1.9,3.9,3.6,5.2,6.2c0.5,5.6-0.8,11.1-1.6,16.7c-0.8,5.5-2.7,10.5-5.1,15.1
	c-2.1,4.1-4.4,8.5-7.8,12c-1.7,1.8-3.9,3.1-4.8,5.7c-0.2,0.5-0.7,1-1.1,1.1c-5.6,1.3-8.4,6.9-13.4,9.2c-5.4,6.6-13.4,6.8-20.8,8.6
	c-3.2,0.8-6.5,1.5-9.7,1.9c-3.4,0.4-6.9,1-10.3-0.4c-0.8-0.3-1.7-0.4-2.6-0.3c-3.1,0.2-6,0-8.4-2.3c-0.2-0.2-0.6-0.5-0.9-0.5
	c-5.8,0.4-10.1-3.4-14.8-5.7c-3.8-1.9-7.1-4.1-9.8-7.7c-2.7-3.7-5.1-7.7-8.4-11.1c-1.9-2-2.3-5.2-3.3-7.8c-1.6-4.5-2.7-9.2-3.3-13.9
	c-0.5-4.1-1.5-8.1-1.4-12.3c0.2-5.2,0.6-10.3,2-15.3C524.2,576.3,524,574.6,524.1,572.6z"/>
<path class="st2" d="M594.1,522.5c-1.4,1.3-3,1.9-4.9,1.7c-3.6-0.4-7.4,0-10.9,0.3c-4.2,0.4-8.5,0.3-12.7,2.2c-3,1.4-6.6,2.2-10,2.9
	c-4.6,0.8-8.1,4.1-12.6,5c-3.4,4.3-8.6,6.6-12,11c-3.2,4.2-7.6,7.4-10.4,12c-3.2,5.3-6.7,10.5-7.2,17c-0.2,2.2-1.3,4.4-2,6.6
	c-1.4,4.5-1,9.2-1,14.5c-1.5-0.6-3.1-0.8-4.2-1.6c-3.6-2.8-8-4.4-11.7-7c-3.4-2.4-6.8-5.1-10.2-7.5c-6.8-4.8-11.5-11.4-15.1-18.9
	c-1.3-2.7-2.9-5.2-4.1-8c-2-5-2.5-10.3-3.4-15.6c-0.5-2.9,0.4-6.1,1.1-9c1.9-8.1,4.8-15.8,10.7-22.3c5.2-5.7,10.9-10.7,16.2-16.2
	c4.5-4.7,9.7-8.5,15.8-11.1c2.7-1.2,5.7,0.1,8.1-1.8c2.9,1.2,5.8-0.3,8.7-0.3c5.5,0.1,10.7,1.6,15.9,3c7.1,1.9,14,4.4,20.8,7
	c3.7,1.4,7.3,3.5,10.2,6.4c2.7,2.6,6.3,4.5,7.5,8.7c0.3,1,1.7,1.8,2.7,2.5c2.8,2,5.1,3.9,6.6,7.3c1.1,2.5,3.7,4.6,6.1,6.3
	C594.1,519,594.5,520.4,594.1,522.5z"/>
<path class="st0" d="M545.3,587.3c-0.9-7.6,1-14.4,6.9-19.8c2.2-5.1,7.5-6.8,11.3-10.1c0.8-0.7,1.9-1.4,2.8-1.4
	c5.2,0.1,9.6-2.9,14.6-3.9c5.9-1.2,13.4,1.6,16.4,7c1.1,2.1,2.3,4,4.1,5.6c1,0.8,1.7,2,1.8,3.2c0.2,3.2,2.1,5.6,3.8,8.5
	c-1.5,1.7-1.2,3.9-1.1,6c0.2,3.1-0.7,5.7-3.1,7.7c-1.4,1.2-2.4,2.7-3.1,4.3c-0.7,1.6-1.9,2.6-3.4,3.1c-5.8,1.8-11.4,4.4-17.5,5.1
	c-0.8,0.1-1.6,0.7-2.4,0.9c-2.6,0.5-5.2,0.7-7.7,0c-3.7-1.1-7.3-2.5-10.9-3.7c-4-1.4-7.4-3.6-9.1-7.7
	C547.9,590.2,546.5,589.4,545.3,587.3z"/>
<path class="st0" d="M493.1,542.7c-2.7-2.4-5.2-4.9-7.8-7.3c-4.6-4.1-4.2-9.3-3.3-14.4c0.6-3.4,1.8-7,3.6-9.9c1.8-3,4.6-5.3,7.2-7.8
	c0.7-0.7,2-0.7,2.8-1.2c4.8-2.9,10.3-4,15.3-6.6c1.3-0.7,3.1-0.4,4.7-0.4c2,0.1,3.9,1.1,6.1,0c1.2-0.6,2.5,0.3,3.4,1
	c4.8,3.2,8.5,7.3,9.5,13.3c0.7,4.5-0.1,8.9-1.3,13.2c-0.2,0.7-0.6,1.4-1.1,1.8c-3.2,3-5.6,6.8-8.2,10.3c-3.1,4.2-7.9,5.1-12.3,6.8
	c-2.6,1-5.4,1.5-8.3,1.2C500,542.4,496.5,542.3,493.1,542.7z"/>
<path class="st2" d="M573.9,586.7c-2.9,1.6-6.2,1.7-7.8,4.6c-4.1,0.6-7.1-0.1-8.3-4.6c-0.4-1.6-1.9-3-2.9-4.6
	c0.7-3.9,1.6-7.6,5.3-9.8c1.4-4.2,6-4,8.4-7c2.4,0.6,4.6,1.2,6.7,1.7c2,4.1,4.5,7.9,2.6,13.4C576.7,582.1,574.4,583.7,573.9,586.7z"
	/>
<path class="st2" d="M500.3,510.3c2.2,0.2,3.3-2.1,5.5-2.2c3.2,1.2,4.8,5.1,8.3,5.6c0.5,1.7,0.7,3.1,0.1,4.7
	c-0.8,0.4-1.8,0.8-2.7,1.2c-0.6,2.7-1.9,5-3.4,7.7c-4.5-0.3-7.4,3.9-11.7,4.8c-2.3-1.4-3.1-3.3-3.3-5.8c-0.2-4.8,0.2-9.3,4.6-12.3
	C498.8,513.1,499.3,511.7,500.3,510.3z"/>
</svg>
