<svg aria-hidden="true" width="0" height="0" style="position:absolute"><symbol fill="#dfe2ec" fill-rule="evenodd" clip-rule="evenodd" viewBox="0 0 500 450" id="12f2934da218cc8340be97382902b61f" xmlns="http://www.w3.org/2000/svg"><path d="M0 242.8c8-55 25.8-108.1 50.2-158.3C60.7 63 70.9 39.6 86 20.8c9.2-11.5 12.9-14.3 25.1-5.1 10.8 8.1 21.6 15.9 33.3 22.7 47.3 27.6 109 14.2 151.4-18 11.6-8.8 36-34.5 46.4-10.3 10.9 25.5 20.3 53.2 29 79.6 17.5 53.1 34.4 117.7 27.5 173.9-.3 2.2-8 8-9.5 11.4-4.3 9.6-16.3 12.3-25.7 14.3-26.5 5.6-56.5 16.1-83.6 16.6-52.2 1-106.8 14-159.4 6.3-27.4-4-53.9-10.3-80.1-19.3-8.7-3-32.2-7.1-36.9-15.5-5-8.8-2.9-24.8-3.5-34.6 1.7-11.9.8 12.5 0 0zm73.8-114.9c4.3-19.6 10.1-18.8 29.4-19.1 17.8-.2 35.6-.6 53.4-.7 10.8-.1 84.9-6.7 83.8 8.1-1.3 18.1-5.9 30.8-24.9 31.1-19.6.3-39.1.8-58.7.9-18.5.2-36.9-.3-55.4-.4-20.6-.1-24.9 2.6-27.6-19.9.8-3.6.6 4.7 0 0zm185 57.9c-34.3-.7-68.5-1.4-102.8-1.7-17.8-.1-35.7-1-53.5-.6-2.3 0-38.3 3.4-21.7-10.1 9.5-7.7 41.9-1.8 53.7-1.5 17.6.4 35.2 1.1 52.8 1.5 17.5.4 35.1.3 52.6 1.1 6 .3 34.8 1.4 18.9 11.3-22.8-.5 1.1-.7 0 0zM99.3 221.5c29.2 1.9 58.3 4.5 87.6 5.4 13.7.4 28.7-1 42.2 1.4 4 .7 7 4.3 6.9 8.4-.1 4.9-17 3.1-19.7 3.2-32.5.5-65.2-2.5-97.6-4.7-11.5-.8-23.4 2.5-34.7.6-21.5-3.8 15.6-21.4 15.3-14.3 8.9.6 0 .2 0 0zm-4.6-25.9c22.5 1.1 45 2.2 67.6 2.6 6.2.1 31.8-3.7 32.1 6.5.1 3.9-21.3 3.8-23.9 4-24.4 1.9-49.1.3-73.6 0-3.1 0-23 .7-19.2-7.8 2.2-4.8 17-4.8 17-5.3 13 .7 0 .2 0 0zM451 239.5c14.9-.5 37.2 3.2 46.1 16.9 8.8 13.6-12 32.1-21.1 40-14.3 12.4-31.6 19.3-48 28.5-12.3 6.9-21.8 27.5-4.1 33.9 24.5 8.8 74.1 33.6 76 64.3 1 15.9-20.1 23.1-32.2 26.1-14.5 3.5-30.8-4.3-38.9-16.3-8.3-12.2-16.6-25.8-31.5-31.1-17.1-6-35.8-2.2-51.8-12.5-31.1-20 20-70.3 38.1-79.7 16.2-8.4 34.2-13.1 51.4-18.8 9.3-3.1 43.4-10.3 20.8-20.4-7.8-3.5-39.6-3.1-40.4-12.5-1.6-19.5 23.2-17.8 35.6-18.4 15.4-.6-5.5.2 0 0z"/></symbol></svg>