<svg aria-hidden="true" width="0" height="0" style="position:absolute"><symbol fill="#dfe2ec" fill-rule="evenodd" clip-rule="evenodd" viewBox="0 0 500 400" id="726f0426e2f8a2b81bbd5d1763861a1a" xmlns="http://www.w3.org/2000/svg"><path d="M.1 362.7c0-21.5 5.2-42.1 8.9-63 2.1-11.7 3.4-23.6 4.8-35.4 3.3-29.3 6.4-58.6 9.5-88 2.8-26.6 7.2-53 8.2-79.9.4-12.7 1.7-25.3.1-37.9-.4-2.9 1.9-6.4-1.9-8.6-.6-.4-1.2-1.2-1.8-1.2-5.4.7-4.8-3.5-5.2-6.8-.5-4.3-1.5-8.7-1.2-13 .2-3.1 1.4-6.6 3.2-9 5.8-7.5 14.1-10.3 22.9-11 8.8-.7 17.6-.5 26.4-1 13.1-.9 26-2.3 39-3 11.7-.7 23.4-.7 35.1-1.2 18.6-.8 37.2-2 55.8-2.6C218.9.6 234 1 249 .8c25.7-.2 51.4-.6 77.1-.8 11.2-.1 22.5.1 33.7.3 18.4.3 36.8.4 55.2 1 9.5.3 18.9 1.5 28.3 2.1 6.2.4 12.4.1 18.5.7 8.6.8 17.1 2.1 25.7 3.4 3.6.6 5.4 3.1 6.6 6.9 2.5 7.9 1.7 16.1 2.2 24.2.8 12.5 1.3 25 1.8 37.6.5 13 1 26 1.2 39 .3 17.3.7 34.5.7 51.8-.1 33.5-.2 66.9-.9 100.3-.4 16.1.3 32.4-3.3 48.3-2.9 12.5-6.3 24.8-9.8 37-.6 2-2.8 4-4.7 4.8-12.8 5.2-26 8.9-39.8 10-11 .9-22.1 1.9-33.1 3-9 .9-18 1.8-27 2.9-10.7 1.4-21.3 3.3-31.9 4.4-9.6 1-19.2 1-28.8 1.7-10.3.8-20.6 2.3-30.9 3-13.8.9-27.7 1.2-41.5 2.1-11.1.8-22.1 2.4-33.1 3.4-11.9 1.1-23.9 2.1-35.8 3.1-10.9 1-21.8 2-32.7 3.1-9.9 1-19.7 2.3-29.6 2.8-14.5.7-29 .7-43.5 1.3-10.6.5-21 1.8-31.3 1.8-8.4 0-16.9-.7-25.1-2.6C7.2 395.1.9 386.1.1 375.3c-.3-4.2 0-8.4 0-12.6zM313.8 11.6c-5.4 0-9.3-.1-13.2 0-19 .3-38.1.2-57 1.1-7.4.4-14.3-1.7-22.1-.2-11.3 2.2-23.5 1.5-35.3 1.9-12.4.4-24.8.3-37.2.7-14.2.5-28.3 1.3-42.5 2.1-13.3.8-26.6 1.5-39.8 2.8-3.5.4-8.8 2.5-9.4 4.6-.9 3.4-.1 9 2.6 10.8 5.4 3.6 5.1 7.7 4.9 12.1-.7 15.4-2.1 30.7-2.5 46.1-.4 12.6 1.3 25.4.2 37.9-1.6 18.5-5.1 36.9-7.1 55.4-1.3 12.2-1.3 24.5-2.2 36.7-.9 12.2-1.9 24.4-3.3 36.6-1.2 10.3-3.2 20.6-4.8 30.9-1.7 11.1-3.8 22.2-5.1 33.3-1.2 9.9-2.4 19.9-2.3 29.8 0 12.3 5.4 18.2 19.5 20.7 9.8 1.7 20.1 1.6 30.3 1.8 15.6.3 31.2.7 46.7.1 24.8-1 49.6-2.7 74.4-4.1 18.2-1 36.4-2 54.6-3.2 9.9-.6 19.8-1.6 28.5-2.3 2.3-6 4.6-11.7 6.5-17.5 4.6-13.4 9.3-26.9 13.4-40.4 3.4-11.5 6-23.2 8.8-34.8 1.1-4.4 1.7-8.9 2.5-13.3 2.4-12.6 4.9-25.2 7.2-37.8 1.3-7.3 2-14.7 3.2-22 1.3-8.1 3.6-16.1 4.2-24.2 1-13.2 1.9-26.6 1.2-39.8-.8-15.5-3.3-30.9-5.3-46.4-2.9-22.6-11.8-43.8-21.5-64.7-2.3-5-3.1-9.2 1.9-14.7zm36.1 15.8c2.1 1.1 4.4 2 6.3 3.5 6 4.5 11.9 9.4 17.9 13.9 2.4 1.9 5.1 1.1 6.5-1.8 2.8-5.9 5.6-11.8 8.4-17.8 1.3-2.7 4.4-4.1 7.1-2.9 4.4 1.9 5.4 4.5 3.6 9.1-2.8 7-5.5 14-8.4 20.9-1.1 2.5-.1 3.8 1.8 5 3 1.9 6.4 3.4 9.1 5.8C407 67.7 411 73 413 79.7c.6 2 1.5 3.9 2.2 5.9.4 1.1.9 3 .6 3.2-1.1.7-2.9 1.5-3.7 1-4.2-2.4-8.2-5.2-12.3-7.9-5.1-3.4-10-7-15.2-10.2-1.6-1-3.3-.3-4.2 1.8-2.3 5-4.6 9.9-7 14.8-.6 1.2-1.2 2.5-2.1 3.3-1.4 1.2-3.9 3.1-4.4 2.7-1.5-1.2-2.9-3.4-3.2-5.4-1.2-6.1.8-12.1 2.1-18 .5-2.6 2-4.9 2.7-7.5.2-.8-.1-2.4-.7-2.8-1.4-1.2-3.1-2.3-4.8-2.7-6-1.2-9.2-6.2-13.1-10.4-3.3-3.6-4.3-8.2-5.6-12.7-1.4-3.9.9-6.7 5.6-7.4zm78.4 267c-9.6 0-19.3-.5-28.9.2-6.7.4-13.3 2.5-19.9 3.6-7 1.2-13.9 2.4-20.9 3.3-3.2.4-6.6.6-9.6-.2-2-.5-4.5-2.8-4.8-4.7-.3-1.9 1.3-5.3 3-6.2 5.8-3 11.9-5.3 17.9-7.8 9.3-3.8 19.1-1 28.6-2.2 6.9-.8 13.8-2.1 20.8-2.7 5.7-.5 11.5-.8 17.2-.6 8.5.3 17 1 25.4 1.9 1.6.2 3 1.8 4.5 2.7-1 1.4-1.7 3.4-3 4-6.7 2.8-13.4 5.4-20.3 7.6-3.1 1-6.6.9-9.9 1.4-.1-.1-.1-.2-.1-.3zm13-49c-6.4 0-12.9-.3-19.3.1-6.7.4-13.3 1.6-20 2.3-4.4.5-8.9.6-13.4 1.3-7.3 1-14.5 2.4-21.8 3.5-1.6.2-3.3.5-4.7 0-1.6-.6-3.6-2-4-3.4-.4-1.5.5-4.2 1.7-5 3.2-2.2 6.8-4 10.3-5.5 7.8-3.4 15.7-6.2 24.4-6.7 16.3-1 32.4-3.4 48.7-4.2 9.2-.5 18.4.9 27.6 1.7 1.5.1 3 1.5 4.4 2.4-1 1.6-1.6 3.8-2.9 4.6-4 2.4-8 4.8-12.4 6.1-6.1 1.8-12.4 2.6-18.7 3.8.2-.5.1-.7.1-1zm5.9-40.2c-12.3 0-24.5-.3-36.8.1-5.8.2-11.6 1.9-17.5 2.6-8.8 1.2-17.6 2.4-26.4 2.9-1.7.1-4.5-3.2-4.9-5.3-.4-1.7 1.6-5.1 3.3-5.9 9.7-4.1 19.6-7.3 30.2-7.7 8.2-.3 16.3-1.9 24.5-2.5 8.9-.6 17.8-1 26.7-1.1 7.3-.1 14.6.4 21.9.8 2 .1 4 .4 6 .9 1.4.4 2.6 1.3 3.9 2-.9 1.6-1.4 4-2.8 4.6-8.9 4.5-17.9 8.5-28.1 8.6zm-3.6-45.4c-14 1-28.1 1.6-42.1 3-8.4.8-16.7 2.9-25.1 4.1-5.9.8-9.6-2.2-9.9-7.1-.2-3.2 1.2-5.1 3.9-5.7 5.5-1.2 11-2.1 16.5-2.8 11-1.3 22.1-2 33.1-3.5 13.3-1.8 26.6-2.7 40-1.6 1.6.1 3.8.6 4.7 1.8.9 1.2 1 4.9.4 5.1-6.9 3.3-13.9 6.1-20.9 9-.2-.6-.4-1.5-.6-2.3z"/></symbol></svg>