<svg aria-hidden="true" width="0" height="0" style="position:absolute"><symbol fill="#dfe2ec" viewBox="0 0 500 500" id="7bc70ad6fc1d7323312def268db02755" xmlns="http://www.w3.org/2000/svg"><path d="M279.2 0c43.2 2.6 86.4 4.9 129.6 8 18.1 1.3 36.2 4.8 54.3 6.9 5.8.7 11.7.1 16.9 4.2 1.3 1 3.7.3 5.5.3 9.7-.4 14.4 6.6 14.5 17.3.1 11.9-5.8 21.9-7.2 33-1.7 13.3-1.5 26.8-2.4 40.3-1 15.5-2.3 31-3.5 46.5-.1 1-.2 2.2 0 3.1 5.3 19.5-3.5 22.9-16.3 31.7-.6.4-1.5.6-2 1.2-7.7 10.9-18.4 8.8-28.8 7.9-27.8-2.5-55.6-6.3-83.4-6.9-32.2-.7-64.6.7-96.7 2.8-26.5 1.8-52.8 6-79.2 9-23.5 2.7-46.5 7.6-68.8 16-4.8 1.8-9.4 4.3-14.1 6.7-10.1 5.1-20.1 10.4-30.3 15.3-10.3 4.9-19.2 12.1-27.2 20.7-.5.6-1.1 1.2-1.7 1.6-8.1 6-13.7 3.9-15.6-6.4-1.5-8.1-1.8-16.5-3.2-24.6-2.2-12.8-5.1-25.5-7.4-38.3-2.5-13.4-5.3-26.7-7.1-40.1-1.5-11.5-1.8-23.2-2.6-34.8-.3-3.7.3-7.7-.6-11.2-3.5-12.9-2-25.3 3-37 6.8-15.9 12.7-33.4 28.9-41.1 7.7-3.6 16.4-5.1 24.7-6.6 25.6-4.7 51.2-9.5 77-13.3C183.1 5.2 231 1 279.2 1.6V0zM16 90.6c.6 7.7 1.2 20.1 2.4 32.3 1.5 14.4 3.7 28.7 5.2 43.2 2.2 20.2 3.6 40.4 6.1 60.5 1.3 10.5 2.7 10.7 11.5 6.5C62.2 223 83 212 104.4 203c16.5-6.9 33.6-12.9 50.9-16.7 20.9-4.6 42.2-6.9 63.5-9.3 21.6-2.5 43.3-4.2 65.1-5.6 20.3-1.3 40.7-2.2 61-2.3 26.6 0 53.2.6 79.8 1.7 14.9.6 29.7 2.7 44.5 4.2 3.3.3 5.9.2 6.1-4.7.6-21.3 2.1-42.7 2-64-.1-11.9-2.3-23.9-4-35.8-.8-5.6-2.9-10.9-4-16.4-.7-3.5-2-5-5.4-3.9-2.6.8-5.6 1.6-8.2 1.1-12-2.5-23.9-5.9-36-8.1-39.3-7-79.1-8.6-118.8-8.8-37.3-.2-74.7.4-111.8 3.3-34.7 2.7-69.3 8.4-103.8 13.8C67.3 54.4 49.5 59 32 64c-13.1 3.7-14.8 7.4-16 26.6z"/><path d="M231.6 488.6c-7.5 0-14.8.1-22 0-17.2-.4-34.4-1.5-51.7-1.4-23.9.3-47.8.9-71.6 2.5-13.9.9-27.6 4.2-41.5 6.2-10.6 1.5-14.7-1.3-12.6-12.5 3.9-20.5-3.4-38.6-7.3-57.4-4.5-21.7-6.2-43.5-6.5-65.6-.1-7 .9-14 1.1-21 .4-11.2 6.7-19.7 11.1-29 1.1-2.4 4.2-3.7 6.4-5.6 1.2-1 3-1.6 3.5-2.9 4.1-9.5 12.3-13.6 20.3-17 22.7-9.5 45.2-19.9 68.5-26.7 29.5-8.6 59.7-13.9 89.6-20.7 6.5-1.5 13-2.8 19.3-5 9-3.1 16.8 2 17.1 12.4.2 5.3-.6 10.7-.6 16.1 0 12.6.5 25.3.3 37.9-.1 4.9-1.9 9.7-2 14.6-.3 10.4-.3 20.8.1 31.2.7 19.7 2 39.5 2.4 59.2.3 12.7-1 25.4-.8 38 .1 9.9 1.1 19.8 2 29.7.5 5.4.5 10.2-3.2 14.4-3 3.4-5.5 7.4-8.6 10.6-5.5 5.5-9.9 4.1-12.3-3.7-.3-1.3-.6-2.7-1-4.3zM51.7 462.1c2 .1 5 .6 8 .5 31.7-1.3 63.3-2.9 95-4.1 8.9-.3 17.8.2 26.7.5 16.9.5 33.8 1.4 50.8 1.4 8.7 0 10-2.5 9.3-11.8-1.1-13.8-2.4-27.5-3.2-41.3-1.6-27.6-3-55.2-4.1-82.8-.5-11.5 0-23.1-.4-34.7-.6-20.5-6.7-25.9-24.2-22.1-19.3 4.2-38.5 8.5-57.7 12.7-16.9 3.8-33.9 6.6-50.4 11.6-22.4 6.8-43.5 17.3-63.8 29.8-2.6 1.6-5.3 5.7-5.5 8.8-.7 12-2.2 24.3-.1 35.9 4.6 26 11.1 51.6 16.7 77.4 1.1 5.3 1.7 10.9 2.9 18.2zM289.7 465.8c.5-5.1.9-10.3 1.6-15.4 2.4-17.3-1.6-34.1-3-51.1-.3-3.3.2-6.6.1-9.9-.4-9.5-.9-18.9-1.3-28.4-.7-16.6-1.5-33.2-2.1-49.8-.1-4.1.5-8.3.5-12.5-.2-7.8-.3-15.6-1-23.4-.9-11.1 3.9-20 8.8-28.9 1.4-2.6 3.5-4.9 5.5-7.2 4.4-5.1 9.2-8.7 16.3-8.1 6 .5 12.1-1.1 18.1-1 21.2.2 42.3.1 63.5 1.4 13.2.8 26.2 3.6 39.3 5.8 9 1.5 12.6 6 11.9 16-.9 11.7-2.8 23.4-4.1 35.1-.5 4.2-.1 8.6-.6 12.8-2.4 19.7-1.4 39.1 1.4 58.7 1.9 13.2 1.2 26.9 2.7 40.2 1.2 10.8 3.4 21.5 6 32.1 2.1 8.6-1.9 19.2-10.2 22.9-8.1 3.6-16.4 4.7-25.3 4.9-23.6.6-47.2 3.1-70.8 5.1-6 .5-12.1 1.5-17.8 3.5-6.8 2.4-13.2 6-19.6 9.5-15.5 8.9-19.2 6.6-19.9-12.3zM358 257.3c0-.3-.1-.7-.1-1-3.1.2-6.3.1-9.4.6-9.8 1.6-19.5 4-29.3 5-5.4.6-7.9 3.8-8.6 8.4-1 7-1.2 14.3-1.3 21.4-.1 15.1.2 30.2.1 45.3-.2 19.9-2.4 40-.5 59.6 1.7 17.8.4 35.1-.5 52.7-.4 8.9 1.4 11 9.5 9.7 23.3-3.7 46.6-7.6 69.9-10.9 16.4-2.3 32.8-3.7 49.2-5.3 7.9-.8 10-5.2 5.5-12.6-5.8-9.5-8.1-19.7-7.4-31 1.1-16.7 1.9-34-3.9-49.6-6.6-17.7-7.2-36.4-10.1-54.7-1.8-11.6-.3-23.9 0-35.9.1-5.2-1-9.3-6.2-9.2-8 .1-16.1.6-24.1 1.7-10.8 1.6-21.8 3.9-32.8 5.8zM126.4 72.8c15.9 0 27.2 9.7 31.5 23.5 5 16 1.4 24.5-12.3 32.5-7.7 4.5-15.4 7.9-24.1 8.4-2.9.2-6-.7-8.8-1.7-4.6-1.8-6.5-5.7-5.1-10.9.9-3.6 1.9-7.3 3.8-10.4 3-5 7.3-8.3 13-5.1.7.4 1.4.5 2.1.9 4 1.9 8.5 2.4 10.5-2.3 2.1-4.8-1.4-8.7-4.9-11.3-4.7-3.6-16-3-19.9 1.7-7.3 8.7-14.5 17.5-20.8 27-7.6 11.5-2.7 22.3 10.2 23.6 7.2.7 14.4.9 21.5 1.6 1.4.1 2.8 1.7 4.2 2.5-1 1.4-1.7 3.3-2.9 4.2-3.3 2.3-6.7 5-10.5 6-11.9 3.1-23.5 8.4-36.2 5.8-4.8-1-7.7-3.4-9.3-8.6-3.1-9.6-2.8-18 1.2-27.9C76 116.2 86 103.2 96.3 90.8c8.6-10.4 20.5-17.3 30.1-18zM365.9 107.7c-.6-14.3 9.1-25 21.9-25.4 11.2-.4 22.5-1.3 33.5-3.2 10.7-1.9 15.1 5.6 16.3 14 .6 3.9 1.1 7.9 2 11.7 1.7 6.6-.8 11.6-6.3 14.5-5.5 2.9-11 1.5-16.6 1.7-7.9.4-15.7 1.1-23.6 1.6-4.3.3-8.6.9-12.9.8-11.2-.4-13.8-3.4-14.3-15.7zM313.4 83.1c-15.1 0-30.3-1-45.4.3-13.3 1.1-26.5 4.7-39.7 7.3-5.6 1.1-11.1 2.6-16.7 3.7-5.8 1.2-10.6-1.4-11.6-6-1-4.4 2.9-12 7.3-13.5 2.7-1 5.5-1.4 8.4-1.7 26-3.3 51.9-6.7 77.9-9.7 8.3-.9 16.7-.8 25-.9 4.9 0 9.8 5.8 9.9 11.6.1 5.8-4.2 6.2-7.8 7.2-2.4.7-4.8.9-7.3 1.4v.3zM298.8 92.6c9.7 0 19.4-.1 29.1.1 2.1 0 4.9.7 6.1 2.2 1.6 2.2 3.3 6.1 2.6 8.2-.7 2.2-4.3 4.2-6.8 4.4-7.9.8-15.9 1-23.9.9-25.3-.5-50.4 1.8-75.2 7.5-6.4 1.5-13.2 1.7-19.8 1.4-2.6-.1-6.5-2.8-7.2-5.1-.7-2.5 1.1-7.6 3.1-8.8 4.7-2.8 10.1-4.9 15.4-5.4 25.5-2.7 51-4.7 76.5-7 0 .6.1 1.1.1 1.6zM290.9 139c-22.5 2-45 3.8-67.4 5.9-5.5.5-10.9 1.9-16.3 2.3-4.3.4-7.9-1.3-8.8-6.7-.9-5.3 1.9-8.2 5.6-10.3 1.8-1.1 3.9-1.9 5.9-2.1 10-1.1 20-2.4 30-2.9 22.6-1.1 45.1-1.9 67.7-2.7 1.3-.1 2.7-.2 4-.1 5.1.2 10.2 4.8 8.9 9.5-.8 3-5.3 6.2-8.5 6.8-6.8 1.3-14 1-21 1.4-.1-.4-.1-.7-.1-1.1z"/><path d="M153.7 428.3c-19.2 1.5-38.4 3-57.5 4.7-5.7.5-9.5-4.3-8.5-11.8 1.1-7.8 2.9-15.4 7.3-21.8 1.5-2.2 4.6-4 7.1-4.4 8.3-1.2 16.8-1.8 25.2-2.3 12.5-.7 24.9-1.3 37.4-1.6 2.5-.1 5.2.5 7.4 1.7 4.5 2.4 6 7.2 3.7 11.9-3.4 6.9-6.7 14-11.2 20.1-2.2 3-6.9 3.9-10.5 5.8-.1-.7-.2-1.5-.4-2.3zM155.5 329.9c-19.1-3.5-37.2 1.5-55.2 7.4-5 1.6-10.4 2.2-15.6 2.7-6 .5-8-2.3-7-8.7 1-6.4 5.8-10.5 13.7-11.9 22.8-4 45.6-8.2 68.4-12.3 5.8-1 9.5 2.2 11.8 10.3 1.6 6-1.7 8.5-6 10-3.4 1.1-6.8 1.6-10.1 2.5zM159.8 362.5c-9.2 0-18.5.6-27.7-.1-12.3-.9-24.1 1.1-35.8 5.2-2.7.9-5.5 2.4-8.2 2.2-3.4-.3-7.8-.9-9.6-3.4-1.4-2-.7-7.7 1-10.1 2.2-3.1 6.2-5.9 9.6-6.3 16.6-2 33.2-3.2 49.8-4.5 6.8-.6 13.6-.9 20.4-1.2 8.2-.3 11.8 3.4 11.7 12 .1 4.5-3.9 7.1-11.2 6.2zM377.4 420.7c-6 0-12.1-.1-18.1 0-1.5 0-3.1.5-4.6 1.1-5.6 2.3-12.3-1.1-10.9-9.1.5-2.6-.5-5.5.1-7.9 1.5-5.4 3.4-10.7 5.5-16 .4-1 1.9-1.9 2.9-2.1 11.1-1.7 22.1-3.7 33.3-4.7 3.5-.3 7.3 1.7 10.9 3 1 .4 2.4 2.1 2.3 3.1-.1 4.3-.2 8.6-1 12.8-.8 4-2.6 7.8-3.6 11.7-1.4 5.4-5.2 6.6-9.5 7-2.4.3-4.9 0-7.3 0v1.1zM377.5 276.5c7.9.9 14.1 1.5 20.3 2.5 2.2.3 4.4 1.5 6.2 2.8 1.3.9 3 3 2.8 4.1-.3 1.6-1.9 3.4-3.4 4.2-10.4 5.3-21.7 4.2-32.7 5.7-8.1 1.1-16.2 3.1-24.3 4.5-3 .5-6 .8-9 .5-1.3-.2-3-2-3.5-3.4-2.2-6.7 2.5-16.2 9.2-17.2 11.9-1.9 23.9-2.7 34.4-3.7zM363 327.8c-6.4.7-12.8 2.1-19.2 1.9-3.4-.1-9.1-2.3-9.5-4.5-.7-4 1.2-9 3-13.1 1.6-3.7 4.5-4.9 9-4.2 10.7 1.5 21.5 1.5 32.3 2.6 5 .5 10 1.8 14.9 3.1 1.3.4 3.1 2.4 3.1 3.8 0 1.3-1.8 3.3-3.1 3.7-10 2.9-20.1 5.5-30.1 8.3-.2-.6-.3-1.1-.4-1.6zM363.4 362.5c-4.1.3-8.3 1-12.4.9-3.9 0-8-.3-11.7-1.5-3.8-1.2-7.5-3.5-7.3-9 .2-4.9 4.7-11.2 9.1-10.9 13.5.7 27.1 2.3 40.6 3.5.7.1 1.5.5 2 1.1 2.1 2.2 4 4.6 6 6.9-2.3 1.9-4.3 4.7-6.9 5.5-6.2 2.1-12.7 3.2-19.1 4.8-.2-.3-.3-.8-.3-1.3z"/></symbol></svg>