<svg aria-hidden="true" width="0" height="0" style="position:absolute"><symbol fill="#dfe2ec" viewBox="0 0 500 500" id="f6e2001f92a0ab11a4f59546a28b821c" xmlns="http://www.w3.org/2000/svg"><path d="M351.3 365.3c2.6 0 5.3-.2 7.8 0 5.2.5 8.3 4.2 8.4 9.3 0 5.1-2.5 7.9-8.2 8.4-3.3.3-7 .8-10-.5-17.3-7.4-35.6-6.5-53.6-8.6-13.4-1.6-26.9-2.8-40.3-3.2-17.5-.5-35-.2-52.5-.1-15.4.2-30.9.4-46.3 1.1-9.4.4-18.7 1.8-28.1 2.3-10.5.6-16.8-6.1-17.9-17.3-2.2-21.2-5-42.3-7.2-63.5-1.6-15.1-3-30.2-3.5-45.3-.2-7.4 1.6-15 3-22.4.9-5 7.2-8.5 14.6-8 28.7 1.9 57.4 4.1 86.1 6.3 16 1.2 31.9 2.3 47.9 3.9 25.8 2.6 51.6 5.5 77.4 8.3 2.8.3 5.7.8 8.5.7 7-.2 11.9 3.5 15.2 9.5 1.3 2.4 2.1 5.7 1.8 8.5-1.4 15.9-4.6 31.7-4.4 47.5.2 15.4-.6 31.4 6.3 45.9 2.3 4.8 1.7 8.7-2.3 12-1.2 1-2.1 2.4-3.2 3.6.3.6.4 1.1.5 1.6zm-9 .2c-1.3-4.5-2.6-7.3-2.9-10.2-1.3-17.3-2.8-34.5-3.2-51.8-.4-15.2.3-30.5.7-45.7.1-4-.5-7.1-4.8-8.1-6.6-1.6-13-4.3-19.6-5-22.3-2.2-44.6-3.9-67-5.6-23.7-1.8-47.5-3.7-71.3-5.1-7.2-.4-14.5.6-23 1 7.4 6 13.3 11.8 20.1 16 17.8 11 36.1 21.1 54 32 6.6 4.1 12.5 4 19.2.6 8.6-4.4 17.3-9.1 26.3-12.3 15.8-5.6 32-10.1 46.5-19.6 2.4-1.6 6.3-1.3 9.4-.8 5.2.9 6.7 6.5 3.1 10.6-5.4 6.1-11.8 10.3-19.6 12-4.3 1-8.6 2.5-12.8 4-9.3 3.3-18.6 6.5-27.7 10.1-6.5 2.6-12.8 5.7-20.7 9.3 5.1 3.4 8.4 6 12 8 17.7 9.5 35.6 18.6 53.2 28.4 4.2 2.3 7.8 6.5 10.7 10.6 2.6 3.7.3 7.7-4 6.8-5.8-1.1-11.9-2.6-17.1-5.5-10.4-6-20.3-13.3-30.5-19.8-3.6-2.3-7.8-3.7-11.6-5.8-7.1-3.9-13.9-8.6-21.3-11.6-3.8-1.5-9.2-1.5-12.9.1-10 4.3-19.6 9.6-29.1 15.1-12.6 7.3-25 15.1-37.5 22.6-4 2.4-8.1 4.8-12.4 6.6-1.5.6-4.2.2-5.2-.9s-1.4-4.3-.6-5.6c3.3-5.1 6.5-10.7 11-14.3 6.2-5 13.3-8.6 20.3-12.4 12.4-6.6 24.9-12.9 37.4-19.4 1.9-1 3.6-2.6 6.5-4.8-33-19.8-64.9-39-97.6-58.6-.5 4.7-1.2 8.6-1.3 12.5-1.1 35.1 4.4 69.5 10.2 103.8.8 5 3 6.1 7 5.9 10.3-.3 20.6-.5 30.9-.5 22.8-.1 45.5-.1 68.3 0 27.9.1 55.8-.2 83.5 4.4 7.2 1.4 14.8 2 23.4 3zM266.8 47.2c-15 1.6-30 3.9-45.1 4.8-24.6 1.5-49.3 2.1-74 3.1-1.1 0-2.2 0-3.2.3-9.8 2.6-15.2-1.5-14.2-12.1.9-9.9 1.6-20 7-29 2.8-4.6 6.1-6.6 10.6-5.4 18.4 5 36.7 1.1 55-.4 11.1-.9 22.2-.3 33.4-.8 20.6-1.1 41.1-2.3 61.7-3.9 12-.9 24-2.5 36-3.8 4.7-.5 8.5 3.4 7.3 8.5-1.4 5.8-3.5 11.5-5.8 17-2.2 5.2-4.6 10.4-7.7 15-1.5 2.1-4.9 3.7-7.5 3.8-12.4.8-24.8.8-37.1 1.5-5.5.3-10.9 1.5-16.3 2.3 0-.4 0-.6-.1-.9zM259 409.4c14.8.5 29.6 1 44.4 1.7 5.5.2 10.9 1.2 16.4 1.3 3.8 0 6.3.8 6.6 5.4.2 4.5-2.5 6.7-6 7.5-5.9 1.3-11.9 2-17.9 3.2-12.1 2.5-24-1-36-1.3-18.3-.6-36.5-1.9-54.8-2.7-18.7-.8-37.3-1.3-56-2.3-2.2-.1-4.2-2.6-6.3-3.9 1.3-2.1 2.1-4.8 3.9-6.1 12.1-8.3 25-11.2 39.4-8.1 10 2.1 20.4 2.5 30.6 3.3 11.9.9 23.8 1.4 35.7 2zM354.8 462.5c-12.9 0-25.9.3-38.8-.1-28.1-.7-56.2-2.1-84.2-2.3-18.7-.1-37.5 1.4-56.2 1.9-4.1.1-8.5-.9-12.4-2.4-4.8-1.8-5.2-7.5-.5-9.9 4.2-2.1 9-3.8 13.6-3.8 21.9 0 43.7.4 65.6 1.1 17.4.5 34.8 1.6 52.2 2.4 18.3.9 36.6 1.4 54.7-2.1 3.5-.7 7.1-.8 10.6-.6 4.1.2 6.8 2.6 6.3 7.4-.5 4.4-1.1 9.1-7 8.8-1.2-.1-2.5.2-3.7.3-.2-.3-.2-.5-.2-.7zM169.8 130.2c19.3.4 41.5 1.4 63.6 1 14.1-.2 28.2-3 42.3-3.7 11.1-.5 22.2.4 33.4 1.1 3.7.2 6.9 2.1 6.6 7.2-.2 4.6-2.4 6.6-6.6 7.2-10.1 1.6-20 1.3-30.1.3-11.7-1.1-23.7 0-35.5.3-12.4.3-24.7 1.1-37.1 1.4-16.8.4-33.6.6-50.4.5-4 0-8.2-1-11.8-2.6-4.7-2.1-4.7-6-.2-8.8 7-4.6 14.8-5.6 25.8-3.9zM156.9 164.2c10.1 1.2 20.2 2.9 30.3 3.5 14.3 1 28.6 1.1 42.9 1.9 14 .8 27.9 2 41.9 3 3 .2 6.1 0 8.9.8 4 1.1 6.5 4.2 5.5 9-.9 4.6-4.3 5.9-8.1 5.6-9.5-.6-19-1.6-28.5-2.2-19.5-1.2-39-2.5-58.4-3.1-11.3-.3-22.6 1-33.8.8-4.5-.1-9.1-1.5-13.4-3.2-4.5-1.8-5.1-6.3-1.1-9.2 3.9-2.7 8.6-4.3 13.8-6.9zM156 90.6c9.9.5 19.8 1.6 29.7 1.5 17.2-.3 34.4-1.8 51.6-2.1 9.7-.2 19.3.7 29 1.5 3.3.3 6 2.2 5.6 6.8-.4 4.7-3.1 6.1-6.9 7.4-13.4 4.4-26.7 0-40.1.4-17.9.5-35.8.7-53.7.9-10.8.1-21.6.4-32.3 0-2.3-.1-6-3-6.3-5.2-.3-2.2 2.1-6.4 4.2-7.3 6.1-2.4 12.6-3.5 19-5.1.1.3.2.7.2 1.2zM190.5 485.9c26.4-1.2 52.9-2.8 79.3-3.6 11.1-.3 22.3.7 33.4 1.4 4.8.3 6.9 3.7 6.6 9.2-.3 4.7-3 6-6.9 5.9-1.8-.1-3.6.4-5.3 0-23.1-5.5-46.4-1.5-69.6-2-9.2-.2-18.5-.3-27.7.2-9.4.5-18.7 2.1-28 2.8-3.5.3-7.2.1-10.5-.7-4.6-1.2-5.5-5.2-1.5-7.7 4.5-2.7 9.7-4.6 14.8-5.5 5-.9 10.3-.2 15.4-.2v.2zM405.5 75.1h27.6c13.8-.1 27.6-.5 41.4-.3 5.3.1 10.6 1.1 15.6 2.7 1.9.6 3.8 4.1 4 6.4.3 4-1.6 7.9-5.7 8.4-5.1.6-10.3.6-15.3 0-22.8-2.5-45.6-3.6-68.5-.4-4.3.6-8.9.6-13.2-.2-3.6-.6-7.6-2-8-6.9-.3-3.8 4.5-8.6 9-9.1 4.4-.5 8.8-.8 13.2-1.2-.1.2-.1.4-.1.6zM460.5 265.8c-13.1-1.6-26.4-3.4-39.8-4.7-9-.9-18-1.1-27.1-1.6-1.4-.1-3 .2-4.2-.4-1.9-.8-4.1-1.9-5-3.5-.4-.8 1.3-3.7 2.7-4.9 9.5-8 20.8-9.3 32.3-8.3 10.4 1 20.7 3.1 31.1 4.3 8.5 1 17 1.2 25.5 1.9 3.7.3 6.4 1.9 6.8 6.5.4 4.6-1.7 6.8-5.6 7.5-5.5 1.2-10.9 2.1-16.7 3.2zM489.7 153.1c-4.5-1.6-8.8-3.7-13.4-4.8-7.6-1.7-15.3-3.8-23-3.9-18.1-.4-36.2.2-54.3.2-2.8 0-5.7-.6-8.3-1.7-1.9-.8-4.8-3.2-4.6-4.4.3-2.4 2.2-5.9 4-6.5 5.4-1.6 11.2-3.1 16.6-2.5 19.4 2.4 38.7 4.4 58.3 4.3 8.5-.1 17 1.1 25.5 2 8.1.9 10.6 4.4 9 11.1-1.3 6-5 6.2-9.8 6.2zM470.5 122.1c-9.1-2-18.5-4.8-28.1-6-8.3-1-16.9-.4-25.3.1-8.7.6-17.5 4.6-26-.3-1.7-.9-3.8-2.9-3.9-4.5-.1-1.6 1.7-4.1 3.3-5 7.8-4.6 16.3-4.1 24.8-3.8 11.1.4 22.3.4 33.5.5 9.2.1 18.3.1 27.5.4 4.4.2 8.1 1.7 7.9 7.7-.1 6.2-2 8.9-7.9 9.9-1.7.6-3.5.7-5.8 1zM420.7 267.9c14.9 1.4 28.1 2.7 41.4 4 6 .6 8.6 3.6 8.3 8.8-.3 4-3.9 6.3-9.4 5.9-11.5-.9-23-2-34.5-2.8-6.4-.4-12.8-.2-19.1-.7-3.6-.3-8.2-.3-9.1-5.2-.9-5.1 3.7-6.5 6.8-7.3 5.4-1.6 11.3-2 15.6-2.7zM54.2 101.9c-7.1-1.6-13.1-3.1-19.2-4.2-9.2-1.6-18.6-2.6-27.8-4.4-2.6-.5-4.8-3-7.2-4.6 2.1-2.6 3.9-6.6 6.4-7.3 4.3-1.2 9.1-.7 13.6-.2 12.2 1.1 24.4 2.4 36.5 4 6.1.8 9.8 7.4 6.5 11.8-1.9 2.7-6.1 3.5-8.8 4.9zM17.6 209.9c15.1.6 30 1 44.9 2 6.7.5 9.1 6.1 5.4 12.2-.9 1.4-4.1 2.5-5.7 2-16.5-5.4-33.1-6.3-49.9-1.8-4.5 1.2-10.9-1.7-10.1-4.5.9-3.2 4-6.3 6.9-8.1 2.3-1.6 5.7-1.3 8.5-1.8zM31.9 110.1c9.9.6 19.9 1.2 29.8 1.8 4.6.3 6.1 3.2 5.8 7.7-.3 4.7-2.9 7-7.1 6.3-5.4-.8-10.8-2.4-16.2-3-7.7-1-15.5-1.5-23.3-2.1-3.9-.3-7.8-.3-11.7-.7-1.4-.1-3-.4-4-1.2-1.3-1-3.1-3.2-2.8-4.1.5-1.6 2.5-3.5 3.9-3.6 6.7-.5 13.4-.5 20.2-.6h5.3c0-.2.1-.3.1-.5zM58 179.6c-.1 6-2.5 9.2-7.2 8-12.2-3.2-24.4-1.7-36.6-1.6-3.8 0-9.1.9-9.3-4.7-.2-5.1 4.6-6.8 8.9-7.1 12-1 24.1-2 36.2-2.6 5.7-.3 8.1 2.5 8 8zM22.3 138.2c10.4-.7 20.9-1.4 31.3-2 7.5-.4 11.4 3.7 8.8 9.8-.9 2.1-4.1 4.5-6.3 4.5-12.7 0-25.5-.6-38.2-1-3.9-.1-9.1.9-9.3-4.8-.2-5.2 5.1-5.4 8.9-6.1 1.6-.3 3.2-.2 4.8-.3v-.1zM17.4 239.7c10.4.7 20.9 1.3 31.3 2 3.9.3 6.7 2 7.4 6.6.9 5.9-1.1 8.1-6.8 7.3-8.4-1.2-16.8-2.4-25.3-3.2-3.8-.3-7.9 1.2-11.5.4-2.6-.6-4.7-3.6-7.1-5.5 2.1-2.3 3.9-4.9 6.3-6.8 1.4-1.1 3.7-1 5.6-1.5.1.3.1.5.1.7zM6.7 279.1c3-1.5 5.8-3.8 8.9-4.3 6.3-.9 12.7-.7 19.1-1.1 6.9-.4 13.8-1 20.7-1.2 1.8 0 5 1.1 5.3 2.3.7 3.1.4 6.6-.2 9.8-.1.7-3.2 1-4.9 1-8.3-.1-16.6-.4-25-.5-5.1 0-10.3.8-15.4.3-2.7-.3-5.3-2.6-7.9-4.1-.2-.7-.4-1.4-.6-2.2zM38.3 315.6c-7.8-.5-15.6-.8-23.3-1.6-1.8-.2-3.4-2.1-5.1-3.2 1.1-1.9 1.8-4.7 3.4-5.5 9.5-5 19.6-6.7 29.9-3.9 4.7 1.3 7 8.1 4.3 12.4-.7 1.1-2.5 1.8-3.9 2-1.7.2-3.5-.2-5.3-.3v.1z"/></symbol></svg>