<?xml version="1.0" standalone="no"?><!-- Generator: Gravit.io --><svg xmlns="http://www.w3.org/2000/svg" xmlns:xlink="http://www.w3.org/1999/xlink" style="isolation:isolate" viewBox="0 0 1000 70" width="1000" height="70"><defs><clipPath id="_clipPath_kp1sEXgFYVfr1YyS5Aii1FWVB8QDrmLY"><rect width="1000" height="70"/></clipPath></defs><g clip-path="url(#_clipPath_kp1sEXgFYVfr1YyS5Aii1FWVB8QDrmLY)"><path d=" M 116.418 11.211 C 91.791 44.095 39.925 45.963 11.194 14.2 L 0 2.242 L 0 36.621 L 0 71 L 184.701 71 C 286.194 71 428.358 71 500 71 C 572.015 71 713.806 71 815.299 71 L 1000 71 L 1000 36.621 L 1000 2.242 L 988.806 14.2 C 960.448 45.589 909.328 44.095 883.955 11.584 L 874.627 0 L 866.418 11.211 C 855.224 26.158 832.463 37.368 813.06 37.368 C 792.537 37.368 766.791 24.663 758.582 10.837 C 754.851 4.858 751.119 0 750 0 C 748.881 0 745.522 4.858 742.164 10.837 C 734.328 24.289 707.463 37.368 686.94 37.368 C 667.91 37.368 645.522 26.532 633.582 11.211 L 624.627 0 L 616.045 11.584 C 605.597 25.784 581.343 36.995 561.94 37.368 C 542.537 37.368 516.418 24.663 508.582 10.837 C 504.851 4.858 501.119 0 500 0 C 498.881 0 495.522 4.858 492.164 10.837 C 484.328 24.289 457.463 37.368 436.94 37.368 C 417.91 37.368 395.522 26.532 383.582 11.211 L 374.627 0 L 366.418 11.211 C 355.224 26.158 332.463 37.368 313.06 37.368 C 292.537 37.368 266.791 24.663 258.582 10.837 C 254.851 4.858 251.119 0 250 0 C 248.881 0 245.149 4.858 241.418 10.837 C 233.209 24.663 207.463 37.368 186.94 37.368 C 167.91 37.368 145.522 26.532 133.582 11.211 L 124.627 0 L 116.418 11.211 Z " fill="#42c0ff"/></g></svg>