<?xml version="1.0" encoding="utf-8"?>
<!-- Generator: Adobe Illustrator 16.0.0, SVG Export Plug-In . SVG Version: 6.00 Build 0)  -->
<!DOCTYPE svg PUBLIC "-//W3C//DTD SVG 1.1//EN" "http://www.w3.org/Graphics/SVG/1.1/DTD/svg11.dtd">
<svg version="1.1" id="Layer_1" xmlns="http://www.w3.org/2000/svg" xmlns:xlink="http://www.w3.org/1999/xlink" x="0px" y="0px"
	 width="200px" height="200px" viewBox="0 0 200 200" style="enable-background:new 0 0 200 200;" xml:space="preserve">
<style type="text/css">
<![CDATA[
	.st0{fill-rule:evenodd;clip-rule:evenodd;}
	.st1{fill-rule:evenodd;clip-rule:evenodd;fill:#939598;}
	.st2{fill-rule:evenodd;clip-rule:evenodd;fill:#FFFFFF;}
	.st3{fill-rule:evenodd;clip-rule:evenodd;fill:#D1D3D4;}
]]>
</style>
<path class="st0" d="M120.1,22c5.6-0.4,9.1-5.7,14.2-6c2.8-0.2,8.7-3.8,11.2-5.4c5.4-3.3,8.7-5.8,7.5,3.3c-2.5,4.4,3.2,14.2,0.7,18
	c-3.1,4.7,3.6,21,3.9,26.7c0.3,5.6,2.5,12.2,2.1,17.6c1.4,2.5,3.8,14.2,3.3,16.9c-1.3,6.8,6.4,20.5,9,27.2
	c5.4,13.9,12.9,27.9,19.8,41.1c4.1,7.8,7.7,21.1,7.9,29.7c0.1,6.9,1.8,9-5.1,9c-11.6,0-23.3,0-34.9,0c-41.6,0-83.2,0-124.7,0
	c-10,0-20,0-29.9,0c-9.3,0-3.3-4.9-0.6-9.4c1.4-11.8,5.4-22.2,5.7-34.3c0.3-11.1,2.4-21.9,2.7-33c0.2-6.4,1.8-12.6,2.1-19.1
	c0.2-4.5,0.5-11.4,2.7-15.3c4.9-9.2,2.9-25.6,3.8-35.6c0.9-10.3,4.8-22.5,8.2-32.1c2.7-7.6,4.6-26.3,13.9-19.7
	c3,2.1,5.3,8.4,7.8,11.2c3.7,1.6,5.9,6.4,8.8,9.2C75,35.6,105,37,120.1,22C121.6,21.9,119.4,22.7,120.1,22z"/>
<path class="st3" d="M16.6,128.1c0,17.9-4.2,35.9-4.7,54c-0.2,8.1-3.8,17.7,9.1,14.8c5.7-1.3,12.2-0.6,18-0.7c2.9,0,13.7,2,15.8,0.6
	c5.7-3.8,16.3,1.6,22.5-1c5-2.1,11.8,1.6,16.6-1.2c6.7-0.4,13.4-0.3,20-0.3c20.9,0.2,41.9-0.2,62.9-0.1c8.6,0,21.5,3.8,16.9-10.2
	c-0.9-2.9-1.2-7.4-1.4-10.4c-0.2-5.2-4.7-8.9-5.7-13.6c-1.5-7.4-7.8-14.3-11.1-20.9c-3.6-7.2-8-14.1-10.4-21.9
	c-2.5-8.3-5.8-16.2-6.7-24.9c-0.7-7.8-1.5-18.8-4.1-26c-2.6-7.2-3.2-16.5-3.4-24.1c-1.2-4.2-0.6-9.7-2.4-13.6
	c-1.8-3.8,1.9-11.5-0.4-14.9c0.6,0.9-33.8,15.3-37,17.8c-10.8,4.9-18.1,6.8-29.4,5.9c-6-0.4-18.8-2.1-21.4-8.8
	c-0.9-2.2-7.7-8.9-10.1-10.5c-4.6-3.1-6.7-11-11.8-13.4c-4.2,2.3-7.5,26.8-7.8,31.4c-0.6,10.3-4.3,20.1-5,30.4
	c-0.6,10-2.9,20.6-5.4,30.2C20.1,105.3,20,120,16.6,128.1C16.6,128.9,16.9,127.3,16.6,128.1z"/>
<g>
	<path class="st0" d="M129,110.6c1.3-1.8,4.1-4.2,5.5-1.2C136.9,114.4,129.8,117.4,129,110.6C129.3,110.1,129.2,111.9,129,110.6z"/>
	<path class="st0" d="M67.7,124c-1.4,2.1-3.5,6.6-6,2C60,122.7,66.1,118.6,67.7,124C67,125.1,67.2,122.4,67.7,124z"/>
	<path class="st0" d="M126,123.4C120.1,136.1,118.1,113.3,126,123.4C125.5,124.5,125.4,122.6,126,123.4z"/>
	<path class="st0" d="M49.7,112.3c1.2-2.5,6.7-1.1,5.9,1.8C54.2,119.5,50.8,115.1,49.7,112.3C50.3,111,50,112.9,49.7,112.3z"/>
	<path class="st0" d="M137.8,121C148.7,126.3,125.6,126.7,137.8,121C138.5,121.3,136.8,121.4,137.8,121z"/>
	<path class="st0" d="M48.8,130.1c-2.5-1.4-3.5-7.2,0.6-6C52.3,125,51.6,129.3,48.8,130.1C48.4,129.9,49.9,129.8,48.8,130.1z"/>
</g>
<g>
	<path class="st0" d="M110.9,77.9c-7.4-3.9-17.8-8.7-17.5-18.8c0.1-5.5,20.5-10.4,23.4-15.1c8.3-13.5,12.7,2.1,12.8,9.6
		C129.8,66.4,124,78.3,110.9,77.9C109.5,77.1,112.6,77.9,110.9,77.9z"/>
	<path class="st0" d="M76.8,66.9C74.6,76.1,64,86.3,54.5,79.6c-6.7-4.7-5-10.6-5-17.6c0-4.1-3.6-18.5-1.6-21.3
		c4.8,0,15.5,7.6,18.4,10.8C71.8,52.6,84.9,60.1,76.8,66.9C76.2,69.5,77.2,66.6,76.8,66.9z"/>
	<path class="st2" d="M126.7,49.3c-4.4-6.3-11,1-16.4,3.9c-6,3.2-14.7,10.3-8.3,16.6c5.6,3.1,15.3,10.1,19.4,0.2
		c1-2.5,3.8-5.3,5.1-7.9C128.8,57.7,127.3,53.9,126.7,49.3C125.9,48.2,126.8,50,126.7,49.3z"/>
	<path class="st0" d="M114.1,67.2c-4.3,1.2-6.6-1-4.7-5.2C113.9,59.6,119.5,63.4,114.1,67.2C113.2,67.4,115.3,66.3,114.1,67.2z"/>
	<path class="st2" d="M57.4,78.7c10.4,1.8,12.2-6.3,17.1-13c0.5-5.8-13.5-15.9-18.7-17c0.4,0.1-4.5-2.8-3.6-0.7
		c1.4,3.3-0.3,8.2,0,11.8C52.7,65.2,53,75.1,57.4,78.7C61.6,79.4,57,78.4,57.4,78.7z"/>
	<path class="st0" d="M66.4,63.5c3.6,3.3-1.7,8.2-5.6,4.6C59.2,63.4,63.3,63.2,66.4,63.5C67.7,64.7,66,63.5,66.4,63.5z"/>
</g>
<g>
	<path class="st0" d="M80.3,97.5c13.5-0.6,25.6-5.1,30.5,12.3c0.6,9.7-5,11-12.5,11c-7.7,0-8.7,0.8-7.7,9.1
		c1.8,15.8,6.7,9.7,18.6,9.2c9.8-0.4,33-6.2,40,3.5c-5.7,3.1-14.8-1.4-21.2-1.5c-9.7-0.1-19.1,0.7-28.2,3.2
		c-9.7,2.6-13.8-9-23.9-3.7c-6.3,3.3-16.3,3.5-21.7,8.5c-2.1,1.9-5,3.6-6.3,0.4c-0.7-1.7,9.1-4.6,10.2-4.6c7.6-6,17.5-8.1,26.8-8.7
		c3.7-1.8,2-9.3,1.9-12.4c-0.1-7.2-5.3-4.8-10-7.1C65.9,111.2,72.2,101,80.3,97.5C81.5,97.4,79.2,98,80.3,97.5z"/>
	<path class="st1" d="M73.8,108.8c2,7.9,10.9,6,17,7.1c6.3,1.2,14.7,4.7,14.7-6.3C105.4,93.4,77.2,95.5,73.8,108.8
		C73.9,109.1,74.2,107.4,73.8,108.8z"/>
</g>
</svg>
