<?xml version="1.0" encoding="utf-8"?>
<!-- Generator: Adobe Illustrator 16.0.0, SVG Export Plug-In . SVG Version: 6.00 Build 0)  -->
<!DOCTYPE svg PUBLIC "-//W3C//DTD SVG 1.1//EN" "http://www.w3.org/Graphics/SVG/1.1/DTD/svg11.dtd">
<svg version="1.1" id="Layer_1" xmlns="http://www.w3.org/2000/svg" xmlns:xlink="http://www.w3.org/1999/xlink" x="0px" y="0px"
	 width="200px" height="225px" viewBox="0 0 200 225" style="enable-background:new 0 0 200 225;" xml:space="preserve">
<style type="text/css">
<![CDATA[
	.st0{fill-rule:evenodd;clip-rule:evenodd;}
	.st1{fill-rule:evenodd;clip-rule:evenodd;fill:#FFFFFF;}
]]>
</style>
<path class="st0" d="M141.7,210.3c-2.9-0.6-3.5-5-7.1-3.9c-1.4,5.8,0.9,11.6-0.9,17.4c-6.1-0.4,0.8-15.6-4.2-17.5
	c-2.9,2.1-5.8,4.3-8.6,6.5c0.6-3.6,2.1-6.9,4.9-9.3c7.1-6.3,2-10.8,0.2-18.7c-2-8.9-2.5-26.1-16.1-16.7c-7.3,5.1-9.9,16.4-10.3,24.3
	c-0.4,6.8-1.9,10.8,2.1,16.8c2.5,3.7,5.7,7.9,4.9,12.7c-4.3-3.1-7.1-7.9-11-11.5c-0.9-0.1-5.7,12.7-6.8,14.3
	c-4-0.5,2.1-13.4-0.4-15.3c-6.7,2-11.5,6.7-19,6.9c1-6,16.8-9.9,21.2-13.2c5.5-4.2,9.1-25.7,6.5-32c-5.8,0.4-7.9,3.1-13.2-0.6
	c-4.6,0-3.5-1.9-7.8-1c-6,4.3-10.7,10.3-17.1,13.9c-9.6,5.4-9.3-6.9-16.3-9.1c-10.8-3.3-17-7.5-23.5-17c-3.9-5.7-0.6-7.7-7.8-10.1
	c-4.7-1.6-7.8-0.2-10-5.3c-3.4-8.2-0.4-16.6,1.5-25c2.1-9.1,28,4.6,35.7,1.6c14.2-5.6,39.5-3.5,30.5-25.4c3-2.1-5.1-6.6-6.7-8
	c-5.4-4.5-3.8-3.7-11-2.2c-16.9,3.6-15.9-0.7-9.3-14.1c6.9-14,17.1-22.4,25.7-34.6c14.5-20.7,32.3-25.7,55.6-33.3
	c6.7-2.2,6.6,3.5,7.5,8.4c1.3,7.6,7.3,4.1,12.8,6c3.2,1.1,1.7,14,0.4,15.9c2,3.1,7.7,1.3,9,5.4c1.3,4.1-4.2,9.9-5.8,13.5
	c2.9,4.7,0.6,11.7,1.5,17c0.8,4.3,2.4,11.9,1.4,15.7c5.7,4.6,10.3,10.6,16.1,15c8.9,6.8,15.1,7.7,19.7,18.5
	c6.9,16.1,21.3,28.8,9.2,45.1c-11,14.8-15.5,33.5-25.5,48.8c-8.6,13-10.6,0.6-13.7-7.2c-3.4-8.7-5.7-17.8-9.7-26.3
	c-1.6-3.4-10.7-22.2-15.7-9.8c-2.7,6.7-1.4,22.3,2.4,28.5C136.1,200.4,142.3,203.4,141.7,210.3z"/>
<path class="st1" d="M171.4,198c-1.6,0-0.9,3.9-3.2,1.2c0.4-4.7,3.7-10.1,4.8-14.9c2.1-9.1,1.5-12.9-0.9-21.7
	c-1.2-4.2-18.4-33.5-16.6-34.1c11-3.6,24.6,49.2,25.4,49c7.1-8.3,9.1-15.1,6.3-25.5c-2.7-9.8-13.5-14.7-16.4-24.2
	c-1.4-4.7-2.4,4.1-4.9-5c-2.4-8.8,6.7,1.1,8.1,3c3.4,4.6,12.3,19.4,17,21.3c2.8-18.4-14.8-37.7-28-47.3c-4.7-3.4-11-8.2-15.1-12.1
	c-7-6.7-6.6-12.2-6.1-21.7c0.6-9.2,1.6-17.8,6.8-25.8c4.2-6.5-15.5-0.5-12.8-11.1c1.4-3.7,5.2-5.7,6-9.6c-1.9-2.1-8.8-2.4-11.6-2.2
	c-15.5,1.2-1.5-6.7-5.7-12.6C112.6,8,98.2,11,87.9,17.9c-7.6,5-9.8,9.7-13.9,17.8c-5.4,11,3,6.9,8.9,13.2c3.5,3.7,10.1,5.8,14.2,9.3
	c5.8,5.1,8.6,10.1,12.9,16.1c0,8.5-5.5,26-8.8,32.6c-2.5,1.5-3.4-2-4.6,1.9c-1.3,4.1-2.4,8.4-3.4,12.6c-2.5,11-8.4,29.3-5.6,40.8
	c1.6,6.5,35.6-2.4,40.9-4.2c15.3-5.3-14.5-28.1-7-31.6c12.2,17.8,26.5,36.3,31.9,57.6c1.2,4.6,3.6,8.5,5,13.1
	c2.1,6.6,0.8,13,7.9,9.7c3.6-1.7,6.1-9.6,5.9-9C171.1,197.7,171.5,197.7,171.4,198z"/>
<path class="st1" d="M52.6,143.2c4.7,6-22.5,3.2-26.4,4.5c-8.3,2.7-3.6,10.2,0.3,14.1c6.6,6.6,9.7,4.9,18.2,2.5
	c2.3-0.7,23-8.9,18.3-1.8c-6.8,3.4-21.7,1.2-14.1,12c5.7,8.1,5.7,8.3,13.7,1.7c3.5-2.9,7.3-5.2,11-7.7c2.4-1.6,9.3-1.1,10-2.1
	c-5.3-14.2,5.4-35.4,2.1-50.2c-3.4-15-6.2-6.2-16.5-1.6c-8.6,3.8-23.4,8-32.9,7.4c-6.5-0.4-16.2,1.1-21.9-2
	c-12.2-6.6-6.7,8.4-7.9,12.9C1.9,151,42.9,142.8,52.6,143.2C52.9,143.6,50.1,143.1,52.6,143.2z"/>
<path class="st1" d="M83.8,97.8c18.2,2.8,12.4-18.6,22.9-21.3c-4.3-14-23.4-29-38.1-30c-3.6,1.8-35.1,27-25.9,33.2
	c14-4.6,30.4-5,45-4.9c9.9,0,11,7.1,1.7,6.2C83.8,80.4,68,73.6,64,81.6C70.3,87.3,76.4,93.4,83.8,97.8
	C86.9,98.3,76.2,93.3,83.8,97.8z"/>
<circle class="st0" cx="108.8" cy="44.4" r="4.8"/>
<circle class="st0" cx="92.1" cy="35.8" r="4"/>
</svg>
