<?xml version="1.0" encoding="utf-8"?>
<!-- Generator: Adobe Illustrator 16.0.0, SVG Export Plug-In . SVG Version: 6.00 Build 0)  -->
<!DOCTYPE svg PUBLIC "-//W3C//DTD SVG 1.1//EN" "http://www.w3.org/Graphics/SVG/1.1/DTD/svg11.dtd">
<svg version="1.1" id="Layer_1" xmlns="http://www.w3.org/2000/svg" xmlns:xlink="http://www.w3.org/1999/xlink" x="0px" y="0px"
	 width="400px" height="500px" viewBox="0 0 400 500" style="enable-background:new 0 0 400 500;" xml:space="preserve">
<style type="text/css">
<![CDATA[
	.st0{fill-rule:evenodd;clip-rule:evenodd;}
]]>
</style>
<g>
	<path class="st0" d="M217.2,291.2c0.6-4.6,2.6-2.5,1.3-9c-0.6-3-0.8-12,0.4-14.5c4.3-8.5,8.8-17.1,15.2-24.3
		c-7.7-1.9-20.5,9.4-27.2,12.9c-2.2-3,4.5-5.2,6.3-6.2c1.5-2.6-2-2-2.3-3.8c0.4-0.8,7.2-6.1,7.8-6.4c-1.2-3.2,3.4-8.4,5.5-10.6
		c6.7-7,22.5-13.1,25.8-22.6c-2.4-1.7-5.3,5.7-8.3,5.2c4.7-6.4,11.1-9.5,14.1-17.6c3.5-9.6,14.2-22,2.8-29.1
		c-2.9-1.8-7.2-2.6-10.3-4c-7.7,2.7-13.1-3.2-19.3-7.7c-0.9-1.4-1.7-6.4-4.5-6.6c-4.6-0.3-6.1,11.3-10.1,12.3
		c1.1-9.4,14.5-21.2,5.6-31.4c-3.9-4.5-36.8-15.5-37.4-11.4c0-0.3,6.9-5.4,7.4-5.6c-1.4-1.2-13.1-1.1-4.2-2.6
		c-1.2-2.5-14.6-2.2-17.8-2.8c-8.5-1.4-17.6-0.5-22.5,8.2c-5.1,9.2-6.1,34.7,1.2,42c2.7-2,0.7-7.5,3.4-10.5
		c3.6-4.2,4.8-10.7,8.9-14.6c6.3-6.1,20.3-1.1,15.1-10.3c0.4-4.1,12.5,8,13.2,8.3c5.8,2.3,12.3,6.9,15.3,12.4
		c4.7,8.6-1.5,10.5-3.4,18.6c-1.4,6,7.2,8.6,12.2,13.1c14.5,12.8-13.6,27.1-23.4,30.5c-9.1,3.2-17.8,8.4-26.3,13.1
		c-5.9,3.3-12.3,12.9-18.1,14.7c-5.9,1.8-3.5,9.7-2.2,13.7c5.4,4,14.3,6.6,20.8,3.3c5.2-2.6,13.2-2.6,18.8-4.2
		c8.9-2.6,8.5,7.9,7.2,12.8c0,7.5-2.9,14.9-2.7,22.2c0.3,13.7,6.2,9.8,14.2,2.5c22.8-20.6,8.9,12.3,11.6,12.7
		c-4.6-6.5,0.3-19.3-12.6-8.9c-3.8,3.1-8.8,10.5-14,7c-2.8-9.2,0-18-0.8-27.4c-0.1-1.6,5.2-13.9-0.4-12.8c-3.9,0.7,1.6,4.6-1.5,6.3
		c-1-1-1.9-2-2.7-3.1c-3,5.5-3.3,13.6-7.3,18c-0.4-0.1,3-18.6,4.3-21.1c-4.3-4.3-11.7-0.9-16.5,1.5c-5.8,2.8-12.9-0.3-18.5,1.6
		c-6.1,2.1-15.4,6.3-22.2,5.3c-6-0.9-5.3,5.6-10,7.5c-5.5,0.4-12.5-12.3-14.8-16.4c-7.4-13.1-15.1-28.3-17.2-42.7
		c4.1-0.6,1.3-12-1.3-12.6c-1.9-0.5-3.7-3.1-4.9-4.4c-2-6.7-7.6-5.8-13.5-7.3c-7.8-1.9-15.6-3-23.4-4.8c-3.3-0.8-25.3-1.4-23.2-5.5
		c6.8-2.3,19.7,1.5,26.7,2c4.9,0.4,23.5-0.1,27,3.3c5.7-0.2,11.7-1.1,16.8-3.3c4,5.4-1.9,3.3,0.3,7.6c-1.3,3.7,1.6,6.2,0.9,7.3
		c-1.4,2.3-6.9-2.9-9.3-2.7c-4.2,2.9,7.9,8.7,8.4,9.6c0.7,7.6-0.9,20,4.2,29.2c3.5,6.3,7.1,12.2,11.2,18.2c2.9,4.3,4.2,12,8.1,15.1
		c2.8-6,9.5-11.9,11.6-17.8c-0.2-1.4-15.5-11.3-17.9-14c-8.8-9.7-17.1-20.3-13.8-34.2c-2.3,2.4,11.7,27.6,13.3,30.9
		c4.8,4.1,9.4,12.6,16.8,12.6c4-2.4-2.9-2.2,4.2-1.8c2.9,0.2,4.7,3.3,4.5,5.6c2.1,0.5,4,0.1,5.8-1.1c-0.8-3.5-8,1.2-2-5.5
		c1.6-1.8,10.7-9.6,13.2-7.7c6.7-6.5,17.8-10.6,16.4-20.5c3.8,0.9,2.9,3.5,4,6.4c4.6-2.7,9.5-4.9,14.5-6.7c3.4-3.5,12.2-8.9,17-9.8
		c0.1,1.1,0,2.2-0.2,3.2c5.3-2.6,13.6-8.7,15.4-16.3c1.4-5.9-13.6-19-18-22.8c-2.6-2.3-9.8-7.5-4.6-11.2c-0.9-3.9,3.4-8.3,5.7-11.3
		c0-4.3-6.2,1.4-6.6-3.1c1,0.2,1.9,0,2.7-0.5c-4.6-2.3-4.1,6.9-6.7,7.8c-7-0.9-1.3-10.2-3-13.4c-4-3.2-14.9,5-17.5,7.5
		c-5.6,5.5-8.6,16.5-5.8,23.8c2.3,5.8,4,4-0.8,6.7c-2.3,1.3-3.2,7.1-6.4,3.7c2.5-3.6,6.2-10.9-1-12.7c-1.8,3.4-8.2,11.2-5.4,15.5
		c2,0,1.3-3,2.1-4c3.7,4.2-0.3,6.4-3,6.6c-1,0.1,12.2,13.2,15.4,14.3c1.8-4.2-4.2-7.5-2.2-11.6c0.2,0.4,3,5.2,3.1,5
		c-0.1,0.2-3-14,2.7-8.6c0.2,0.4,1.5,7.8,1.2,7.1c2.1,5.1,6.3,11.2,7.6,16.3c-1.5,0.7-2.6,0.1-3.3-1.7c-2.9,3.6,5.8,7,6.7,9.6
		c-4.7,3.1-8.3-8.2-11.7-2.2c-1.3,2.3-4.4,5-6.5,7.1c-0.2,0,4.9-12.1,1.7-15.4c-4.5-4.7-15.4-13.8-22.1-13.9c-3-4-5.6-5.1-1.4-9.6
		c3.6-3.9,3.1-9.6,7.1-13.1c1.8-5.8-2.8-12.3,1-18.1c4.7-7.2,0.3-21.7,3.3-30.1c3.8-10.7,7.8-11,18.8-9.1
		c10.3,1.7,20.1,2.4,30.1,5.9c2.1,0.7,13.5,7.3,13.6,8.8c-1.4,1.5-7.1-1-7.1-0.3c0,1.9,17.9,5.4,20,6.9c3.9,2.9,9.6,9.7,9.1,14.3
		c2.2,3.6,2.6,7.9,3.8,11.9c4.4,2.1,7.4,6.4,12.2,8c2.4,0.1,26.6-0.9,20.6,2.5c2.3,1,8.6-1.9,8.5,1.3c-0.1,3.3,3.2,4.7-0.1,8.1
		c-5.3,5.2-9.1,22.8-11.7,30.1c-1.8,4.9-12.8,22.7-7.7,26.6c6,4.6,5.5-1.3,12.4-1.5c0.7,0.7-15.9,24.8-17.3,30.3
		c-0.9,3.6-5,33.3-0.2,36.2c3.6,1.4-0.6-10.3,1.8-11c2.4,1.3,5.1,2.2,7.8,2.7c3.3-0.2,7.4-1.4,10.6-0.8c1.7,2.6,2.3,9.8,1,12.5
		c2.7,4.1,2.7,10.6,4.8,15.5c4.9,11.4,11.9,14.4,22.6,10.8c8.4,4.8-3.5,23.6-0.2,30c2.7,5.2,2.6,12.9,4.8,18.6
		c3.6,9.3,7.2,10.6,15.9,15.6c5.9,3.4,12.1,6.1,17.7,9.5c5.7,1.4,12.6-1.7,17.4,3c3.8,3.8,2.7,10.8,3.5,15.6c1.8,11,1.8,7,10.6,4.3
		c8.2-2.5,6.9-19.1,16.6-18.8c2.6,5.6-5,13.8-3,20.2c2.9,3.7,15.2-20.2,16.1-21.9c11.1-0.9-0.9,11.7,3.2,15.2
		c-4.5,5.9-14.8,24.7-6.7,32.1c7.1,6.6-3.8,11.2-7.8,12.9c-8.5,3.7,3.5,12.1-4.4,13.1c-4.7,0.6-1.2,2.4-5,4.6c-3.1,0-6,0.2-9-0.6
		c-6.1-1.6-11-6.6-17.4-7.8c-3.8-0.7-17.2,0.2-12.7-7.9c1.9-3.5,6.8-8.9,9.6-11.4c-23.9-13.3,8.7-14.2,2.2-23.7
		c3-8.4-13.6-19.6-16.4-14.9c-13.6,4.3-30.4-7-39.5-15.1c-4.8-4.2-8.4-9.4-13.7-12.9c-4.5,0.8-8.2,9.2-11.2,9.2
		c-2.8-3.6-5.7-5.9-9.4-10.7c-2.1-0.5-2.8,3.5-4.5-1.4c-2.8-7.9-6.7-11.9-14.7-11.9c-2.9,0.5-7.4,3.1-8.8,5.5
		c-4.8,8-4.7,0.6-10.2,1.9c-1.1-0.7,0.2-11.8,0.2-13.2c-0.9-2.4-8.7-10.3-6.2-12.2c12.4-9.3,8.7,14.4,9.2,20.3
		c2.6,0.9,13.3-9,17.7-9.7c9.9-1.6,10.7,3.5,14.7,10.4c1.8,3.1,5.8,11.5,9.9,10.2c4.6,0.8,3.2,5.2,7.2-0.7c3.7-5.6,6.8-0.1,9.8,2.3
		c7.6,6.2,17.6,12.5,24.1,19.7c7-0.7,14.7,4,21.8,3.9c7.5-0.1,17.5,2.7,21.2,10c6.3-2.5-0.8-14.3-4.6-15.8c-4.1-2.2-10.9-2.9-15.2-5
		c-14.9-7.4-33.5-13.3-36.3-31.8c-1.5-9.9-0.5-20.2,1.8-29.9c2-8.4-5.9-4.3-11.6-7.3c-6.7-3.5-10.3-10.4-13.9-16.6
		c-4.2-7.2-2.4-14.7-5.2-21.9c-6.1-0.5-13.1,6.4-12.2,12.3c0.2,1.2-1.1,6.1-1.7,7.1c1.1,4.6,3.2,6.2,5,10.1
		c-5.7,6.4-7.8-11.5-8.5-12.7c-3.9-7.3-2.4-22.4-2.6-30.9c-0.2-9.7,1.3-16.8,4.5-26.1c0.6-1.9,7-9.9,3.9-11.4
		c-6.5-3.2-7.7-8.4-5.5-14.9c-5.7-4.5-5.5,18.7-12.5,12.7c-9.4,4.3,7.1-8.6,6.9-12.6c1.2,2.7-38.3,30.9-5.1,20.3
		c14.1-4.5-7.1,18-7.7,20.1c-1.1,3.9-5.9,9.4-4.1,13.3c-1.3,3.9,0.5,7.7-0.7,11.8c2.8,2.1,1.8-2.1,2-2.6c5-1.8-0.5,17.4-0.2,17.2
		c-1-0.1-1.8-0.5-2.4-1.3c-1.5,2.2,0.5,7.4,0.4,10c-0.1,6.7-1.4,13.4-2.1,20c-4.3-2,1.3-21.6-1.1-26.6c-1.4,2.4-0.2,7.9-2.9,9.1
		C213.2,306.3,221.5,295,217.2,291.2z M116.9,246.3c-2.7,3.8-4.5,7.2-6.1,11.5c8.9,2.6,20-4.5,27.3-8.6
		C136.2,238.7,122.9,242.3,116.9,246.3C115.6,248.2,118,245.5,116.9,246.3z M346.7,430.7c-18.5,10.7,0.8,14.9,12.8,18.8
		C362.7,438,356.8,432.5,346.7,430.7C343.2,432.7,348.1,430.9,346.7,430.7z M387,443.9c-4.5-0.2-11-1.7-14.5,2c-1.5,1.6-7,11-1.3,11
		c6.4-2.5,7.6-4.8,15.2-4.6C392,452.5,389.7,446.1,387,443.9C384.1,443.8,388,444.7,387,443.9z M196.1,159.2c0.5,1,3-23.6,0.3-18
		c-1.6,3.4-6.7,2.7-8.1,7.4C187.2,152.4,191,160.6,196.1,159.2C195.5,158.1,195,159.5,196.1,159.2z M371.4,465.2
		c-2.4-3.6-8.6-7-7.4,0.3C365.3,467.4,372.1,469.7,371.4,465.2C370.6,464.2,371.6,466.5,371.4,465.2z M359.4,464.6
		c-2.6-2.9-3.4-8-8.6-2.5C353.1,463.6,357.2,467.4,359.4,464.6C358.2,463.3,358.9,465.1,359.4,464.6z M250.5,368.4
		c5.4-0.7-0.5-7.1-3.2-7.7C248.2,363.4,249.3,365.9,250.5,368.4C252.8,368.2,249.3,365.8,250.5,368.4z M247.8,221.9
		c-0.8,1.8,0.1,10.9,3.8,8.6C250.4,227.4,248.2,225.4,247.8,221.9C247.2,223.2,248.1,224.4,247.8,221.9z M137.9,180.7
		c-1.5-2.1-3.2-3.9-5.2-5.4C129.8,175.5,134.8,182,137.9,180.7C135.9,178.9,136.5,181.3,137.9,180.7z M250.6,159.8
		c1.8,1.2,3.7,1.6,5.7,1.1C255.6,156.6,252.9,159.5,250.6,159.8C252.5,160.4,252.1,159.6,250.6,159.8z M266,382c-1.5,0-2.9,0-4.4,0
		C262.6,383.4,266.6,385.9,266,382C264.6,381.3,266.2,383.5,266,382z M221.9,289.2c-0.7,1.4-1,2.9-0.7,4.4
		C224,292.3,224.2,290.8,221.9,289.2C221.9,290.8,222.9,289.8,221.9,289.2z M70.4,181.7c1.1,0.1,1.9-0.3,2.3-1.3
		C71.5,178.8,70.7,179.2,70.4,181.7C71.7,181.9,70.3,180.4,70.4,181.7z M158.3,192c0.6-2.7,0.6-2.7-1.2-4.6
		C157.2,189.3,157.7,190.6,158.3,192z M74.6,185.5c0.2-1.8,0.2-1.8-0.2-2.9C74.1,183.6,72.1,185.9,74.6,185.5
		C74.8,183.7,74.3,185.6,74.6,185.5z M318,404.5c1.4,1.8,1.6,1.8,3.4,1C320.3,405,319.4,404.1,318,404.5z M218,349.2
		c0.7,1.5,1,2.1,1.3,2.9C219.8,350.5,219.8,350.5,218,349.2z M376.3,467.8c0.2-0.7,1.5-1.5,0.2-2.1C376.1,466.3,376,467,376.3,467.8
		C376.5,467.1,376.2,467.4,376.3,467.8z M219.4,295.4C218.8,297.3,220.2,295.7,219.4,295.4C219.4,295.6,219.5,295.4,219.4,295.4z
		 M344.7,453.6C343.3,451.8,343.3,455.5,344.7,453.6C344.3,453.2,344.4,454,344.7,453.6z M351.2,401.7
		C350.5,402.4,352,403.7,351.2,401.7C350.8,402.1,351.3,402,351.2,401.7z M233.6,250.1C232,249.5,232.6,250.9,233.6,250.1
		C233.3,250,233.4,250.2,233.6,250.1z M216,248.4C215.4,247.2,213.8,249.1,216,248.4C215.9,248.3,215.7,248.5,216,248.4z
		 M60.7,180.6c-0.4-0.2-0.9-0.7-1.1,0.1C59.6,180.8,60.3,180.9,60.7,180.6z M340.8,455.7C340.9,455.4,340.9,455.4,340.8,455.7
		L340.8,455.7z M248.6,294.7C248.6,294.3,248.6,294.3,248.6,294.7L248.6,294.7z M156.7,185.3C156.2,185.2,156.2,185.2,156.7,185.3
		L156.7,185.3z M62.5,181.5C62,181.4,62,181.4,62.5,181.5L62.5,181.5z M222.4,282.3C222,282.2,222,282.2,222.4,282.3L222.4,282.3z"
		/>
	<path class="st0" d="M120.1,360.9c5.5-11,18.8-17.4,25.2-28.4c4.2-7.2,9.2-28.7,15.9-29.6c-0.1,22.8-18.7,38.1-33,53.5
		c-7.9,8.5-17.6,19.3-19.7,31.1c-1.7,9.3-0.1,24.7-3.8,32.5c-2.5-1.1-0.9-5.3-1.9-7.2c-0.4,3.1-0.5,6.2-0.3,9.3
		c9.6-2.3,18.3-13.1,28.6-13.1c6.1,0,12.3,4.4,17,7.8c5,3.6,11.2,4.8,16.4,7.2c-10.6,1.7-18.6-8.6-27.8-11.6c-8-2.6-6.1,2.8-6.3,2.8
		c0.6-0.2,7.5,0.1,8.3,0.5c1.5,0.8-10.7,4.4-13.4,3.2c1.4-1,2.5-2.4,3.3-3.9c-4.5,0.4-9.3,5.9-12.5,8.6c-6.6-3.9-7.7,8.5-13,9.7
		c-3-2.9-2.8-9.4-2.1-13.2c1.3-6.5-7.7-3.4-12.1-4.8c-3.7-4.6-7.9,3-11.6,0c-0.6-7.3,0.2-16.9-2.5-23.8c-2.8-7.2,2.1-12.1,7.6-16.8
		c0.3-3.2,4.5-10.8,6.6-13.4c2.2-2.8,5.2-29.3,7-28.5c5.2,4.3-8.3,31.7-6.5,38c1.4,1.7,6.5-1.5,8.3-1.6c4-0.2,3.2-9.6,3.5-12.1
		c1.3-9.1,1.8-19,4.3-27.9c1.7-0.2-3.5,32.8-3,35.8c0.5,3.3,6.5-1.4,7.6-2c5.7-3.2,4.6,6.2,1.1,8.2c-6-4.9-8.8,1.6-15.2,2.2
		c-1.9,2-5.6,4.4-8.1,6c-3.9-4.6-8.7,2.2-9.2,6.5c-0.8,6.1-2.4,20.3,1.2,25.5c2.6,1.9,10.5-2.2,13.4-2.5c1.8-0.4,3.5-0.8,5.2-1.4
		c5.5-0.5,0.6,2.2,4.1,4c0.7-3.1-0.5-8,0-12.4c0.7-5.5,5.6-14.1,4.1-19.5c5.6-4.4,9.8-15.8,13.8-18.3
		C120.6,361.2,120.4,361.1,120.1,360.9C121.1,359,120.4,361.1,120.1,360.9z M88,370.8C87.4,370,87.3,371.5,88,370.8
		C87.9,370.7,87.9,370.9,88,370.8z M117.6,419.7C118,419.8,118,419.8,117.6,419.7L117.6,419.7z"/>
	<path class="st0" d="M142.8,300.7c-2.9-5.4-17.5,3.7-20.2,6.3c-0.9-1.9-0.2-3.6,2-5.1c-1.5-0.9-8,0-9.3-0.1
		c-2.7-0.5-5.5-0.9-8.2-1.2c-1.5,1.4-3.2,2.4-5.2,3c-1,2.9-14.7,12.1-11.4,13.8c2.3-1.3,8.8-6,7.9-9.3c5.7-0.2-1.4,6.2,1.5,11
		c1.4-4,3.4-7.1,4.9-11.2c2.4-1.5,12.4,2.9,12.3,3.5c-4.7,5.6-8.3-5.4-12.6,3.4c-3.1,6.5-1.2,11.2-7.2,3.3c-1.2-0.3-1.7,1.7-3.9,0.6
		c-10.8,5.7-2.8-5.2-0.8-8.6c1.9-3.3,7.7-7.3,10.7-9.8c5.4-4.4,11,2.1,15.4-3c0,2,1,3,3,3.1c0.7-1.2,3.1-5.2,5-4.1
		c4.9,2.9,12.3-4.9,17-5c6.7-0.1,24.6-17.7,28.9-14.9c3,2,3.2,8,4.1,11.5c1.6,6.5,4.9,8.6-3.7,8.8
		C163.1,296.9,152.4,300.1,142.8,300.7z M171.6,282c-3.5,2.2-32.5,16.6-33,15.8c4.7,0,36-3.1,37-5.6
		C173.9,288.9,172.6,285.5,171.6,282C169.6,283.3,172.6,285.6,171.6,282z M125.9,301.1c1.5,0.2,1.5,0.2,1.3-1.1
		C126.6,300.1,126.2,300.5,125.9,301.1z"/>
	<path class="st0" d="M36.7,25C36.3,28.1,41,48,34.7,42.3c-3.1-2.8-7.8-2.5-11.3-5.3c-3.8,0.7-5.2,5-9.2,5.2
		c-1.2-2.7-0.3-8.1-0.3-10.6c1.5-4.4,0.1-7.1-4.2-8.1c-3-0.2-4.5-1.5-4.3-3.9c0.8-2.4,5.7-3.2,7.6-3.3c7-0.3,8.6-4.4,10.7-10.5
		c5.3-15.4,4.1,4.1,10.3,7.5C34.6,17.6,53,18.9,36.7,25C36,31.1,39,24.1,36.7,25z M16.8,30.3c-0.3,5.9-1.4,7.7,4.3,4.8
		c4-2.1,8-0.8,12.6,1.5c-0.7-3.7-1-6.4-3.1-9.6c2.2-4.4,5.4-3.1,7.6-6.7c-0.4-2.8-5-0.9-6.7-0.6c-5.6-1.9-3.1-7.9-5-12.6
		c-5.1,7.6-3.3,11.7-14.6,13.2c2.2,2.6,5.6,2.6,8.2,4.5C20.1,25.5,16.7,30.5,16.8,30.3C16.7,32.1,17.5,29,16.8,30.3z"/>
	<path class="st0" d="M260.3,447.4c3.7-1,4.7-5.1,8.8-0.9c1.9,2,10,4.8,8.6,8c-1.7,3.7,13.7,8.1,14.4,12.4
		c-4.9,8.7-18.3-20.6-19.6,1.6c-0.6,9.3,6.1,26.8-5.1,31.5c-1.5-1.5,2.5-9,2.6-11c0.1-4.1-2.1-9.7-4.4-13.1
		c-4.8-7.2-4.3-15.4-7.2-23.3c-4.5-1.9-35-23.6-32.4-27.4c2,1,16.2,16.5,19.1,14.3c-1.3-1.4-13.1-12.4-10-13.7
		c4.2,1.7,7.1,8.1,10.6,11.1c3.1,2.8,15,6.3,14.9,10.7c-2-1.1-11.9-7.7-13.9-6.2C248.2,443.5,260.2,453.5,260.3,447.4
		C261.6,447.1,260.3,448.5,260.3,447.4z M265.1,471.2c0.7,1.2,4.2,10.9,5.9,11.1c0.2-0.3-0.1-11.7-0.6-13.2c-0.9-3,0.1-12.9,2-15
		c0.3,0.4,1.1,2.4,1.8,2.5c4.3-2.9-1.2-4.4-2.4-5c-5.8-3.2-4.2-7.2-10.2-0.9C261.6,457.4,265.4,464.8,265.1,471.2
		C266.1,472.7,265.2,469,265.1,471.2z"/>
	<path class="st0" d="M236,416.4c-4.2-0.6-9.7-5.8-13.2-8.2c-8.2-5.7-14.8-9.5-18.8-19c-1.3-3.2-8.5-36.3-0.3-36.4
		c1.7,4.2-4.6,24.4,0.8,25.6c1.5-2.8-0.5-11.1-0.5-14.3c2.8-0.4,1.3,21.7,5,23.9c1.8-1.5-1.1-11.9,0-15.5c6.2,2.7-0.6,17.2,4.5,22.2
		c5.8,5.6,7,4.5,14.5,9.1c-2.6,1.6-3.9-1-6.2-1.4C218.5,403.1,234.7,414.5,236,416.4z M209.5,392.9c0.1-0.6,0.1-1.2-0.5-1.6
		c-0.8,1.1,2.6,7.7,4,6.8C211.6,396.4,211.4,394.2,209.5,392.9C209.6,392.3,210.8,393.8,209.5,392.9z M205.3,383.2
		C205.9,382,204.8,381.6,205.3,383.2C205.4,382.9,205.2,382.9,205.3,383.2z"/>
	<path class="st0" d="M194.6,347.7c5.5-7.9,17.5-15.6,15.8-26.7c-2.5-15.7,8.7-7.3,7.7,1.9c-1,9.3-13.7,21.6-20.4,27.7
		c-9,8.2-13.4,20.4-20.9,29.1c0.5-9.8,12.7-19.3,15.9-27.3c1.4-0.2,4-2.9,4.2-4.6C194.6,347.2,193.8,347.1,194.6,347.7z"/>
	<path class="st0" d="M118.1,487.8c-2.2,0.8-4.2,0.4-6-1c0.7-5.1,14.4-2.9,17.9-5.7c6.6-5.4,14.2-11.7,18-19.4
		c7.3,5.7-13.9,14.8-14.4,19c0.1,0.2,18.3-12,22.9-9.5c1.7,4.6-7.2,13-3.6,18.9c2.1,3.3-2.7,3.8-3.9-1.8c-0.6-2.7-2-11.5,0.9-13.2
		c0.4,1,0.7,2.1,0.8,3.1c2.8-1,1.6-4-1-4.4c-4.5,2.3-8.8,4.6-13.1,7.3c-1.8,1.1-9.4,4.6-10.1,6.7c-3.5,0-5.4-3.7-9.1-2.1
		C117.6,486.5,117.9,487.2,118.1,487.8C116,488.1,117.8,487.1,118.1,487.8z"/>
	<path class="st0" d="M164.4,424c8,0.3,7.2,1.2,12.6-3.1c4.1-3.3,12.6-9.8,17.4-6.4c7.1,1.4,15.7,0,22.8,3.7
		c-3.6-0.1-7.5-0.6-11-1.2c-3.4-0.6-3.6,4.1-6.9,4.2c0.6-0.8,1.1-1.7,1.8-2.6c-1.4-0.3-6.2,2-1.7,2.5c-2.7,3.1-8.6,4.9-12.2,3.2
		c1.4-1.4,8.9-3.7,9.2-5.6c-5.9,1.4-10.5,7.1-15.9,7.1C175,425.8,169,426.5,164.4,424z M193.5,423c0.8-0.2,1.4-0.7,1.8-1.3
		C193.7,421.3,192.7,424.6,193.5,423C194.3,422.8,193.4,423.2,193.5,423z"/>
	<path class="st0" d="M16.8,75.1c2.9-0.7,5.1,12.9,6.3,15.9c3.9,9.4-3.5,15.1-6.2,23.2c-1.9,5.7,3,10.5,6.6,13.9
		c3.1,2.9,4,18.9-1.4,16.3c-1-0.6,2.3-8.8,1.8-10.7c-4.4-6.6-9.8-8.8-10.2-17.7c-0.4-8.3,5.8-9.7,7.3-17.1
		C22.6,91.7,18.6,81.9,16.8,75.1C17.5,74.9,17.3,77.1,16.8,75.1z"/>
	<path class="st0" d="M27.6,49.3c-0.5-0.1,6.3,28.4,7.7,31.5c2,4.5,3.1,9.2,3.8,14c0.6,4.3-1,7.2-3.4,10.5
		c-0.8,1.1-7.3,12.7-5.9,12.4c-5.7,1.2,2.9-12.8,3.5-13.5c2.7-3.8,3.8-8.3,2.5-12.9C32.5,78.6,21.5,62.9,27.6,49.3
		C27.9,49.4,27.5,49.6,27.6,49.3z"/>
	<path class="st0" d="M159.6,427.8c2.5,1.4-2.6,18.8-2.8,22.5c-0.4,8.9-0.6,13.4,2.8,21.7c0.1-0.4-5.5-5.1-6.8-6
		c-5.2-6.5-0.4-21.5-1.5-29.3c-0.4-2.9-4-7.6-0.7-9.5c4.6-0.9,2.6,10.1,2.7,11.9c0.1,7.2-2,17.5,0.4,24.1
		C157.3,462.4,154.6,433.5,159.6,427.8C160.1,428.1,158.7,428.8,159.6,427.8z"/>
	<path class="st0" d="M6.6,109.2c-4.3,10.8-3,19.7,4.3,28.8c9.4,11.8-7.6,13-8.6,23.5c-5,2-0.7-7.7,1.5-9c5.4-3.2,9.1-6.6,4.8-12.3
		C4.3,134.4-4.5,114,6.6,109.2C5.3,112.6,4.7,110,6.6,109.2z"/>
	<path class="st0" d="M213.4,198.2c-6.2,6.5-17,15.4-25.4,18.7c-4.8,1.9-10.7,1.2-15.1,4.2c-2.9,1.9-9.8,10.8-12.7,11.3
		c-7-5.8,19.1-16,22-16.7C192.7,213.4,203.7,197.7,213.4,198.2C212.7,199,212.5,198.1,213.4,198.2z"/>
	<path class="st0" d="M91.2,189.3c-0.8,0.6-1.7,1.2-2.5,1.7c-0.4-1.4-0.3-2.7,0.4-3.9c-0.7-0.9-1.4,0.7-2.5-0.1
		c-1.7-7.9,5.8-11.1,5.8-4.4c6.7,2.7,9.6-1.4,9.6,8C99.7,193.2,93.6,190,91.2,189.3C90.3,190,93.7,190.1,91.2,189.3z"/>
	<path class="st0" d="M84.6,398.8c1-3.9,1.2-8,0.1-11.9c0.7-1.1,3.6-1.4,4.8-3c0.9-0.3,10.7-1.6,11.7-0.7c-0.3-1.3-7.7,11-5,9.8
		c-2.1,0.9-5.4,2.9-7.8,2.8c-2.9-0.1,0.4,5.1-2.6,5.5C85.4,400.5,85,399.6,84.6,398.8C85.7,394.6,85,399.7,84.6,398.8z M93.5,392.4
		C101.6,382.5,82.1,392.4,93.5,392.4C94.4,391.3,92.8,392.4,93.5,392.4z M88.6,388.5C86.7,389.7,90.5,390.4,88.6,388.5
		C88.2,388.8,89,388.9,88.6,388.5z M87.8,391.2C85.3,392.1,90.1,393.1,87.8,391.2C87.4,391.4,88.2,391.5,87.8,391.2z"/>
	<path class="st0" d="M157.5,108.7c1.4,4.3-6.4,10.6-8,14.7c-1.2,3,1.6,12.9-2,13.1C138.1,129.8,151.4,112.9,157.5,108.7
		C157.7,109.4,156.2,109.6,157.5,108.7z"/>
	<path class="st0" d="M217.1,208.3c-2.7,5.3-9.5,11-15.8,10.4c-7.4-0.7-13.9,11.8-19.4,10.1c-1.4-3.1,15.2-11.9,17.7-12.3
		C207.4,215.1,210.2,210.7,217.1,208.3z"/>
	<path class="st0" d="M176.6,379.7c0.7,3.3-5.5,29.6-8.1,30C165.3,402.9,171.8,384.3,176.6,379.7z"/>
	<path class="st0" d="M288.9,331.1c5.1,1.9-7.1,26.1,1.2,32.2C284.5,368.4,283.7,335.2,288.9,331.1
		C290.3,331.6,287.7,332.1,288.9,331.1z"/>
	<path class="st0" d="M228.9,355.1c-2.5-6.8,23.3-11.2,26.5-1.2c1.4-1.3-14-3.3-15.2-3.1C239.3,351.5,229.8,355,228.9,355.1
		C228.4,353.6,229.2,355.1,228.9,355.1z"/>
	<path class="st0" d="M202.7,231c-1.9,3.1-1.4,4.7-4.2,4.1c1-5.6,19.6-20,25.5-20C224.4,215.3,204.8,229.6,202.7,231
		C201.7,232.7,204.2,230,202.7,231z"/>
	<path class="st0" d="M243,196.8c2.4,0.9,12.9-29.1,11.4-29.5C256.4,177,251.3,191.1,243,196.8C242.5,196.6,247.5,193.8,243,196.8z"
		/>
	<path class="st0" d="M229.4,344.9c3.9-8.1,26-8.8,23.2-3.6c0.2-0.3-9.2-2.6-10.6-2.4C240.2,339.3,229.7,345.4,229.4,344.9
		C230.4,343.1,229.9,345.6,229.4,344.9z"/>
	<path class="st0" d="M226.3,274.9c4.6-4.4,5.7-18.3,12-20C239.8,259,230.3,275.2,226.3,274.9C228.1,273.2,228.7,275.1,226.3,274.9z
		"/>
	<path class="st0" d="M281.8,357.2c-2.8,5-6.2-22.2-1.9-23.4C282.5,341.2,277.7,349.9,281.8,357.2
		C281.1,358.5,280.2,354.4,281.8,357.2z"/>
	<path class="st0" d="M329.9,397c-4.7,5.7-11.9-0.8-15.3-2.8c-0.4,1-0.7,2.1-0.9,3.2c-0.7-0.4-2.6-9.1-3.8-8.3
		c3.1,0.7,5.9,4.2,8.6,5.6C320.9,396,328.5,395.4,329.9,397C328.4,398.8,329.2,396.3,329.9,397z"/>
	<path class="st0" d="M220.9,138.5c-1.1,2.2-2.2,4.9-5.3,3.5c1-4.1,4.8-1.2,1.8-7.4c-1.2-2.3-7-7.3-4.8-9.7
		C215.9,125.9,220.9,134.9,220.9,138.5C220.6,139.2,220.9,135.8,220.9,138.5z"/>
	<path class="st0" d="M229.1,333.5c-1.7-0.5,8-9.1,15.1-3.2C244.1,329.6,230.6,333.3,229.1,333.5
		C228.5,333.3,229.2,333.5,229.1,333.5z"/>
	<path class="st0" d="M243.5,170.6c9.3,1-5,22.2-6.4,20.1C241.8,184.9,244.1,178.1,243.5,170.6z"/>
	<path class="st0" d="M258.7,294.4c2.3,0,8.8,21,7.9,24.1C262.6,317.5,259.6,298.4,258.7,294.4C259.3,294.4,260.6,302.7,258.7,294.4
		z"/>
	<path class="st0" d="M160.7,336.4c-0.1-2.5,3.1-6.4,4.3-8.5c2.8-5,3-11.4,3.4-16.9C174.4,316.5,164.7,332.2,160.7,336.4z"/>
	<path class="st0" d="M216.2,263c-1,1.1-2,1.1-2.8,0c1.8-2.7,3.5-5.4,5.2-8.1c4.4,1.6,0.4,8.6-1.8,10.6c-1.9-1.4,0.9-5.1,0.9-5.1
		C217.7,260.4,216.2,263,216.2,263C215.7,263.3,216.3,262.4,216.2,263z"/>
	<path class="st0" d="M274.1,354.9c-4.5,0.8-3.2-18.6-0.9-18.2C274.3,342.8,272.6,348.9,274.1,354.9
		C273.7,355,272.6,348.9,274.1,354.9z"/>
	<path class="st0" d="M193,256.4c3.2,1.9,0.9,14.9-0.6,15.7C190.7,273.1,191.6,258.5,193,256.4C195.5,257.9,191.4,258.8,193,256.4z"
		/>
	<path class="st0" d="M176,399.6c1.3-5.7,5-11.6,7.6-16.8C186,386,178.3,398.7,176,399.6C176.5,397.4,176.7,399.3,176,399.6z"/>
	<path class="st0" d="M233.1,185.7c-0.1-1.6,0.4-13.2,1.2-13.7C237.5,172.6,235.9,186.2,233.1,185.7z"/>
	<path class="st0" d="M147.3,245.3c-9.2-4.6,2.3-3.5,5.6-3.6C153.7,244.8,148.5,245.1,147.3,245.3
		C146,244.6,148.6,245.1,147.3,245.3z"/>
	<path class="st0" d="M228.5,319.9c2.8-1.9,7.4-3.7,9.1,0.1C235.7,320.8,228.1,323.7,228.5,319.9
		C230.9,318.3,228.4,320.9,228.5,319.9z"/>
	<path class="st0" d="M227.6,157.2c3.6-2.9,5.4,4.9,7.5,6.3C234.4,168,228.2,157.7,227.6,157.2C228.4,156.5,230,159.4,227.6,157.2z"
		/>
	<path class="st0" d="M157.9,120.7c-2.7,1.1-1.6,3.8-4.7,3.6c0.1-2.7,4.4-7.2,6-9.2C161.8,115.9,158.3,119.9,157.9,120.7z"/>
	<path class="st0" d="M253.3,296.2c2.3,1.5,3.1,10,3.3,12.7C253.9,308.7,252,298.1,253.3,296.2C253.5,296.4,252.6,297.2,253.3,296.2
		z"/>
	<path class="st0" d="M209,131.2c3.2,2.9,2.6,7.2,0.1,9.9C208.4,140,208.7,132,209,131.2C209.4,131.5,208.9,131.5,209,131.2z"/>
	<path class="st0" d="M227.2,418c-2.6,1.1-8.4-0.6-10.6-1.8C216.1,413.4,226.3,417.3,227.2,418C224.3,419.2,224.2,415.6,227.2,418z"
		/>
	<path class="st0" d="M184.7,398.4c-4.5,0.7,1.4-8.5,2-9C187,392.6,186.3,395.6,184.7,398.4C183.8,398.6,184.9,396.8,184.7,398.4z"
		/>
	<path class="st0" d="M195.4,261.1c4.9,0.8-0.3,9.6-1.7,7.6C194.7,266.3,195.3,263.8,195.4,261.1
		C196.3,261.3,195.6,264.1,195.4,261.1z"/>
	<path class="st0" d="M301.4,394.6c-0.9-1.1-1.2-6-1.4-7.5C301.9,385.7,304.6,394.5,301.4,394.6
		C301.3,394.5,302.1,394.6,301.4,394.6z"/>
	<path class="st0" d="M225.9,161.1c0.6,0.8,6.7,3.8,4.7,5.7C228.1,166.4,224.7,163.9,225.9,161.1
		C227.3,162.9,225.3,162.5,225.9,161.1z"/>
	<path class="st0" d="M236.5,123.5c-2.9-2.5,0.4-3.5,2.8-4.4C239.8,121.5,238.9,122.9,236.5,123.5
		C235.8,123,238.8,122.6,236.5,123.5z"/>
	<path class="st0" d="M234.6,107.3c-1.4-0.2-2.4-0.9-3.1-2.2c0.7-1.5,6.5-0.9,6.4-0.1C237.1,106.2,236,107,234.6,107.3
		C233.3,106.6,235.6,106.7,234.6,107.3z"/>
	<path class="st0" d="M343.4,404.1c0.6-4.6,7.6,1.3,4.5,2.9C346.6,405.7,345.1,404.8,343.4,404.1
		C343.6,402.4,345.7,403.9,343.4,404.1z"/>
	<path class="st0" d="M227.7,177.8c0.3-0.6,1.1-4.6,1.9-5.2C233,173.3,230.5,180.8,227.7,177.8C228.1,176.9,228.7,178.9,227.7,177.8
		z"/>
	<path class="st0" d="M192.7,352.3c-1.7,0.9-3,2-4.2,3.5c-1.7-2.8,4.1-5.5,5.1-6.2C194,348.7,192.2,353.4,192.7,352.3z"/>
	<path class="st0" d="M268.5,142.9c-0.3,1.7-1.3,2.8-3,3.2c-0.6-1.5-0.6-3,0-4.6C266.5,142,267.5,142.4,268.5,142.9
		C267.9,144.2,267.6,142.3,268.5,142.9z"/>
	<path class="st0" d="M281.3,148.9c3,1.6,3.4,3.3,1,4.8C281.2,152.7,277.5,150,281.3,148.9C282.2,150,279.8,149.3,281.3,148.9z"/>
	<path class="st0" d="M229.5,307.4c1.4-1.4,2.8-1.5,4.1-0.3c1.5,2-3.7,3-4.6,2.6C229,308.9,229.1,308.2,229.5,307.4
		C230.6,307,229.4,308.4,229.5,307.4z"/>
	<path class="st0" d="M310.3,393.7c0,2.6-0.8,3.5-2.4,2.7c0.2-1.7-1.7-5-0.8-6.4C308.5,391,309.5,392.2,310.3,393.7
		C309.8,394.8,309.3,392.4,310.3,393.7z"/>
	<path class="st0" d="M275.4,207.7c-1.2,1.6-4.8,2.6-4.5-0.7C273.1,205.7,274.6,205.9,275.4,207.7
		C274.7,208.6,275.2,207.3,275.4,207.7z"/>
	<path class="st0" d="M232.5,278.6c-0.1-2.8,1.1-3.9,2.9-6.1C237.6,273.8,233.1,278.1,232.5,278.6
		C232.4,276.1,234,277.3,232.5,278.6z"/>
	<path class="st0" d="M282,179c1.5,1.1,3.4,4,2.4,5.8C281.6,184.2,281.9,181.2,282,179C284,180.5,281.9,181.2,282,179z"/>
	<path class="st0" d="M222.1,167.4c-0.4-3.8,4.3,0.5,5,1.6C225.2,169.9,223.6,169.4,222.1,167.4C222,167,223.2,168.1,222.1,167.4z"
		/>
	<path class="st0" d="M224.7,95.8c-0.2,2.3-2.7,5.1-4.7,3.2C221.1,97.8,222.6,95.3,224.7,95.8C224.5,98,223.3,95.4,224.7,95.8z"/>
	<path class="st0" d="M266.8,238.9c1.1,2.5,0.4,3.6-2.1,3.2C262.5,239.5,265.5,238.7,266.8,238.9
		C267.1,240.1,265.3,238.7,266.8,238.9z"/>
	<path class="st0" d="M157.8,120.8c1.1-1,2.4-1.8,3.8-2.4C162.2,122.2,159.1,122.7,157.8,120.8z"/>
	<path class="st0" d="M231.3,407.2c2.4,0.8,4.5,2.2,6.2,4.1C236.8,413.7,231.4,407.2,231.3,407.2
		C233.2,407.7,232.8,409.5,231.3,407.2z"/>
	<path class="st0" d="M239.8,233.2c0.4-1.6,1.5-2.6,3.1-3C243.6,232.1,242,235.4,239.8,233.2C239.7,231.1,240.8,234.3,239.8,233.2z"
		/>
	<path class="st0" d="M271.6,143.8c0.5-1.3,1-2.7,1.6-4C274,141.5,275.3,146.5,271.6,143.8C272.2,142.3,272.2,144.3,271.6,143.8z"/>
	<path class="st0" d="M257,268.6c-1.2,0.3-1.8-0.3-2-1.8c0.8-1.2,1.9-1.5,3.3-0.8C257.8,266.8,257.4,267.7,257,268.6
		C256.6,268.6,257.4,267.8,257,268.6z"/>
	<path class="st0" d="M277.4,126.1c1.3-0.9,2.5-0.6,3.4,0.8C279.9,128.7,277.1,128.9,277.4,126.1
		C279.1,125.2,277.3,126.9,277.4,126.1z"/>
	<path class="st0" d="M280.4,215.4c-1,1.3-2.2,1.6-3.6,1C274.8,213.1,279.9,215.2,280.4,215.4C278.7,216.9,279.2,214.9,280.4,215.4z
		"/>
	<path class="st0" d="M142.7,300.5c-0.2,2-6.2,2.8-7.5,2.8C136.7,302.2,140.7,300.8,142.7,300.5z"/>
	<path class="st0" d="M247.8,142.6c0.6,1.4,0.3,2.5-1,3.3C244.6,143.7,245,142.5,247.8,142.6C248.6,144.3,246.7,142.4,247.8,142.6z"
		/>
	<path class="st0" d="M210.3,102.3c-0.8,2.1-2.2,1.4-3.3,0.1C208.4,100.5,209.5,100.5,210.3,102.3
		C210,103.2,210.3,101.5,210.3,102.3z"/>
	<path class="st0" d="M271.4,196.3c0.6,0.1,1.2,0.3,1.8,0.4c0.1,0.7-1.7,2.9-1.9,3.7C270.6,199.4,270.6,197.3,271.4,196.3
		C272.3,195.9,270.5,197.3,271.4,196.3z"/>
	<path class="st0" d="M260.7,213.6C259,207.9,267.1,214,260.7,213.6C260.4,212.7,263.3,213.8,260.7,213.6z"/>
	<path class="st0" d="M235.7,395.1c0.4,2.4-0.7,3.1-3.3,2.1C232,395.2,233.2,395.8,235.7,395.1C235.9,396.2,234.5,395.5,235.7,395.1
		z"/>
	<path class="st0" d="M251.5,123.5c-1.7,0.1-2.1-3,0.2-2.8C253.3,121.6,253.2,122.5,251.5,123.5
		C250.8,123.5,252.3,123.5,251.5,123.5z"/>
	<path class="st0" d="M276.2,192.6c0.2,0.7,0.4,1.4,0.6,2.2c-1.7,1-2.7,0.4-3-1.8C274.7,192.8,275.4,192.7,276.2,192.6
		C276.5,193.4,275.1,192.1,276.2,192.6z"/>
	<path class="st0" d="M278.6,137.5c-2.3-0.7-2.5-1.9-0.8-3.3C279.4,135,279.6,136.1,278.6,137.5
		C277.3,137.3,279.5,135.6,278.6,137.5z"/>
	<path class="st0" d="M285.7,145c0.2,1.6-0.4,2.2-2,1.9C282.6,144.7,283.3,144,285.7,145C285.6,146.9,284.9,144.1,285.7,145z"/>
	<path class="st0" d="M174.1,332.2c1-1.6,2-3.2,3.1-5C177.2,327,176.2,335.2,174.1,332.2C175.1,330.5,174.4,332.6,174.1,332.2z"/>
	<path class="st0" d="M200.7,266.4c-2.1,1.1-2.2-4.4,1.1-3C201.4,264.4,201.1,265.4,200.7,266.4
		C200.3,266.6,201.2,265.5,200.7,266.4z"/>
	<path class="st0" d="M305.7,348.7c1.3,1.1-0.2,5-0.8,4.1C304.4,351.9,303.1,348,305.7,348.7C306.5,349.3,304.7,348.4,305.7,348.7z"
		/>
	<path class="st0" d="M239.2,129.2c1,2.3-2.2,2.5-3,0.7C237.1,129.3,238.1,129.1,239.2,129.2C239.8,130.5,237.6,129.2,239.2,129.2z"
		/>
	<path class="st0" d="M227.2,384c-1.1-0.1-2.1-0.1-3.2-0.2C223.9,381.9,227.4,381.8,227.2,384C225.9,384.6,227.3,382.8,227.2,384z"
		/>
	<path class="st0" d="M257.7,145.1c-2.3-1-0.6-3.7,1.3-2.2C259.3,144,258.8,144.7,257.7,145.1C256.5,144.5,258.6,144.5,257.7,145.1z
		"/>
	<path class="st0" d="M233.8,293.2c0.1,1-0.3,1.7-1,2.2c-1.2-0.5-1.6-1.4-1.3-2.8C232.3,292.8,233.1,293,233.8,293.2
		C233.7,294.7,232.8,293.6,233.8,293.2z"/>
	<path class="st0" d="M277.2,155c-2.2,0.9-2.9,0.3-2-2.1C276.6,153,277.3,153.6,277.2,155C276.6,155.7,277.3,153.7,277.2,155z"/>
	<path class="st0" d="M284.2,171.1c0.7-0.7,1.5-1.4,2.2-2.1C286.6,170,285.8,174.9,284.2,171.1C284.7,170.2,284.5,171.7,284.2,171.1
		z"/>
	<path class="st0" d="M232.8,300c0.3,1,0.3,2.1-0.1,3.1C229,301.8,230.6,300.8,232.8,300C232.9,300.6,231.8,300.4,232.8,300z"/>
	<path class="st0" d="M266.9,118.9c1-1,3.5-1.9,2.8,1.3C268.5,121.1,267.5,120.7,266.9,118.9C267.3,118.4,268.4,120.9,266.9,118.9z"
		/>
	<path class="st0" d="M191.5,394c0.2,2.5-0.6,3.6-2.4,3.3C186.9,396.2,191.1,394.1,191.5,394C191,395.3,189.3,394.4,191.5,394z"/>
	<path class="st0" d="M252.5,393.7c-0.4-0.5-0.9-1-1.3-1.5c0.8-1.3,1.8-1.2,3.2,0.1C253.8,392.7,253.1,393.2,252.5,393.7
		C252,393.5,253.6,393.7,252.5,393.7z"/>
	<path class="st0" d="M173.3,324.3c2.6,0,0.5,3.6-0.9,4.3C171.5,327.3,171.8,325.8,173.3,324.3C173.7,324.3,172.8,325.4,173.3,324.3
		z"/>
	<path class="st0" d="M309.7,348.3c-1.8,0.1-2.1-3.2,0-3.2C309.7,346.1,309.7,347.2,309.7,348.3
		C309.4,348.3,310.5,347.2,309.7,348.3z"/>
	<path class="st0" d="M284,193.7c1.3-0.7,2.2-0.4,2.7,0.9c-0.3,1-1,1.4-2.1,1.3C284.4,195.1,284.2,194.4,284,193.7
		C285.3,193.3,283.8,194.6,284,193.7z"/>
	<path class="st0" d="M301.2,149.7c-2.1,0.8-2.4-3,0.1-2.4C301.2,148.1,301.2,148.9,301.2,149.7C300.2,150,301.9,148.9,301.2,149.7z
		"/>
	<path class="st0" d="M257.2,254.6c2.6,0.4,1,3.8,0.3,3.1C256.4,256.8,256.3,255.8,257.2,254.6C259,254.9,256.3,256.3,257.2,254.6z"
		/>
	<path class="st0" d="M311.6,358.6c-0.7-0.3-1.4-0.5-2.1-0.8C311.4,355,314,357.4,311.6,358.6C310.9,358.4,312.1,358.4,311.6,358.6z
		"/>
	<path class="st0" d="M216.7,391.6c-2.3,0.5-2.6,0.4-3.3-1.9C215.8,390.3,215.8,390.3,216.7,391.6z"/>
	<path class="st0" d="M124.9,309.1c0.8-1.7,2.7-2.9,4.7-2.8C128.6,307.8,126.6,308.4,124.9,309.1z"/>
	<path class="st0" d="M308.7,366c1.4-3.4,3.4,1.1,1.5,1.3C309.7,366.8,309.2,366.4,308.7,366C308.9,365.4,308.9,366.7,308.7,366z"/>
	<path class="st0" d="M315.1,369c1.4-0.7,2.3-0.1,2.5,1.6C316.4,371.5,315.6,370.9,315.1,369C315.6,368.5,315.1,370,315.1,369z"/>
	<path class="st0" d="M233.1,185.7c-0.2,2.9-0.4,3.2-2.6,3.4C230.9,187.6,231.7,186.5,233.1,185.7z"/>
	<path class="st0" d="M245.4,133.2c0.4-0.6,0.9-1.1,1.3-1.7c0.6,0.8,0.9,1.7,1,2.7C246.7,134.8,245.9,134.5,245.4,133.2
		C245.7,132.2,246.6,134.7,245.4,133.2z"/>
	<path class="st0" d="M84,183.9c1.2,2.5,0.9,3.7-0.9,3.5C82.3,185.9,82.6,184.8,84,183.9C84.8,185.1,82.4,184.8,84,183.9z"/>
	<path class="st0" d="M217.5,112c-1.4-0.9-1.5-1.8-0.4-2.5C219.5,109.2,218.2,111.5,217.5,112C216.9,111.4,217.8,111.8,217.5,112z"
		/>
	<path class="st0" d="M236.5,112.9c-0.7-0.7-1.4-1.3-2.1-2C235.2,108.9,237.4,111,236.5,112.9C235.3,112.5,237,111.9,236.5,112.9z"
		/>
	<path class="st0" d="M310.7,323.6c-0.7,0.7-1.3,1.5-2,2.2C308.1,323.4,308.8,322.6,310.7,323.6C310.6,324.7,310.2,323,310.7,323.6z
		"/>
	<path class="st0" d="M238.2,400.5c0.4,0.5,0.8,1.1,1.1,1.6C237.6,403.7,235.8,400.7,238.2,400.5
		C238.8,400.8,237.6,400.6,238.2,400.5z"/>
	<path class="st0" d="M239,369.2c-1.5-0.8-1.7-1.6-0.5-2.5C240,367.2,240.1,368,239,369.2C238,369.2,239.6,368.9,239,369.2z"/>
	<path class="st0" d="M256,136.3c0-1.5,0.8-2.2,2.2-2.1C259.5,135.2,257.2,137.1,256,136.3C256.3,135.6,257.1,137,256,136.3z"/>
	<path class="st0" d="M240.8,379.5c-1.7,0.2-1.3-2.7,0.1-2.4C241.9,377.8,241.8,378.6,240.8,379.5
		C240.3,379.6,241.4,379.5,240.8,379.5z"/>
	<path class="st0" d="M217,418.4c1.8-0.5,3.4-0.1,4.6,1.2C219.9,420.8,218,418.9,217,418.4z"/>
	<path class="st0" d="M158.7,338.2c-0.1,1.5-0.8,2.6-2.1,3.4C155.2,340,157.9,339.1,158.7,338.2z"/>
	<path class="st0" d="M311.2,338.1c-0.2,2.8-1,1.5-2.5-0.3C309.5,337.8,310.4,337.9,311.2,338.1
		C311.1,338.6,310.4,337.1,311.2,338.1z"/>
	<path class="st0" d="M226,387.5c0.4,0.6,0.9,1.3,1.3,1.9C226.1,390.9,223.7,388.9,226,387.5C226.9,388,225.3,387.9,226,387.5z"/>
	<path class="st0" d="M273.9,269.5c-1.5-0.8-1.4-1.6,0.1-2.5C275.4,267.6,275.4,268.5,273.9,269.5
		C272.4,268.5,274.5,269.1,273.9,269.5z"/>
	<path class="st0" d="M269.5,235.5c-0.9-2.2,1.3-2.2,2.2-0.4C270.9,235.2,270.2,235.3,269.5,235.5
		C269.4,235.1,270.4,235.9,269.5,235.5z"/>
	<path class="st0" d="M281.7,389.6c-0.6,0.3-3.5,0.6-2-1C281,387.9,281.7,388.2,281.7,389.6C281.5,389.7,281.9,389,281.7,389.6z"/>
	<path class="st0" d="M277,224.5c1.4,0.2,1.5,1.1,1.1,2.2C276.4,226.9,276.1,226.4,277,224.5z"/>
	<path class="st0" d="M318.5,351.2c-0.4,2.1-1.1,2.4-2.2,0.9C316.8,350.9,317.5,350.6,318.5,351.2
		C318.7,352,317.3,350.7,318.5,351.2z"/>
	<path class="st0" d="M256.2,101.3c-0.5,1.6-1.3,1.9-2.2,0.8C254.1,100.8,254.9,100.5,256.2,101.3
		C256.3,102.2,255.7,100.8,256.2,101.3z"/>
	<path class="st0" d="M275,242.8c-1-1.4-0.7-2.2,1-2.3C276.7,241.5,276.4,242.3,275,242.8C274.5,242.3,275.6,242.6,275,242.8z"/>
	<path class="st0" d="M260,126.6c0.7,1.6,0.4,2.3-1.1,2.2C258.3,127.8,258.6,127,260,126.6C260.7,127.3,259.4,126.8,260,126.6z"/>
	<path class="st0" d="M268.2,128.8c0.7-0.1,1.4-0.2,2-0.3C269.6,130.5,268.9,130.6,268.2,128.8C268.8,128.3,268.1,129.6,268.2,128.8
		z"/>
	<path class="st0" d="M233.8,370.7c-0.4,1.3-1.2,1.7-2.2,1C231.5,370.3,232.2,369.9,233.8,370.7
		C233.6,371.3,233.2,370.2,233.8,370.7z"/>
	<path class="st0" d="M87.6,200.8c-0.4-1.8-0.7-3.2,0.1-4.8C88.5,197.7,88.2,199,87.6,200.8z"/>
	<path class="st0" d="M135.2,303.4c-0.4,2-2.3,1.9-3.7,1.6C129.5,305.9,137.1,302.3,135.2,303.4z"/>
	<path class="st0" d="M248.1,392.6c-0.8,0.3-1.6,0.5-2.3,0.8C245.2,391.9,247.2,390,248.1,392.6
		C247.3,392.9,247.8,391.9,248.1,392.6z"/>
	<path class="st0" d="M249.6,403.5c1.1,1.2-0.9,2.8-2,2.3C248.3,405,249,404.2,249.6,403.5C250.1,404,248.6,403.8,249.6,403.5z"/>
	<path class="st0" d="M287.3,166.9c-0.3-2,0.3-2.1,1.9-0.3C288.5,166.7,287.9,166.8,287.3,166.9C286.9,166.1,288,166.9,287.3,166.9z
		"/>
	<path class="st0" d="M263.3,250.1c0.8-1.5,1.6-1.6,2.3-0.3C265.1,251.4,264.3,251.5,263.3,250.1
		C263.9,249.6,264.8,251.4,263.3,250.1z"/>
	<path class="st0" d="M250.3,383c0.2-1.7,1-1.7,2.4,0.1C251.9,383,251.1,383,250.3,383C250.2,382.5,251,383.6,250.3,383z"/>
	<path class="st0" d="M217.1,208.3c0.1-1.4,0.8-2.2,2.2-2.5C222,206.3,214.8,210.6,217.1,208.3z"/>
	<path class="st0" d="M271.3,278.2c1.3,0.7,1.5,1.5,0.7,2.5C270.5,280.6,270.3,279.8,271.3,278.2C271.7,278.7,270.7,279,271.3,278.2
		z"/>
	<path class="st0" d="M275.1,392.5c-0.1-0.7-0.1-1.3-0.2-2C276.7,391.2,276.7,391.8,275.1,392.5C274.5,392,275.9,392.7,275.1,392.5z
		"/>
	<path class="st0" d="M288.9,175c0.7-0.1,1.5-0.1,2.2-0.2C289.8,176.7,289.1,176.7,288.9,175C289.6,174.2,288.8,175.5,288.9,175z"/>
	<path class="st0" d="M286.5,395.3c-0.6,1.4-1.4,1.6-2.4,0.7C283.9,394.6,285.9,394.1,286.5,395.3
		C286.3,395.9,286.1,394.4,286.5,395.3z"/>
	<path class="st0" d="M211,363.1c1.4,0.7,1.3,1.5-0.2,2.3C209.8,364.4,209.9,363.9,211,363.1C211.4,363.4,210.5,363.4,211,363.1z"/>
	<path class="st0" d="M303.6,315.2c-2.3,1.1-1.8-1-0.5-2.1C303.3,313.8,303.5,314.5,303.6,315.2C303.4,315.3,304,314.4,303.6,315.2z
		"/>
	<path class="st0" d="M222.2,114.8c0.5-1.8,1.2-1.8,2-0.1C223.6,114.7,222.9,114.8,222.2,114.8C222.1,114.1,223,115.5,222.2,114.8z"
		/>
	<path class="st0" d="M291.9,316.4c-0.8-1.4,0.1-1.8,0.7-2.5C293.4,315.2,293.4,315.2,291.9,316.4z"/>
	<path class="st0" d="M256.7,388.1c-1.1,0-2.1,0.1-2.5-1.3C255.5,386.6,256.4,387.3,256.7,388.1z"/>
	<path class="st0" d="M287.2,210.8C283.1,208.7,291.5,209.2,287.2,210.8C286.7,210.5,287.8,210.6,287.2,210.8z"/>
	<path class="st0" d="M305.1,155.5c-0.4-0.2-2.1-2.2-0.1-1.9C307,153.9,305.8,155,305.1,155.5C304.8,155.3,305.5,155.2,305.1,155.5z
		"/>
	<path class="st0" d="M298.9,165.5c-1.1,0.5-2.3-0.8-1.3-1.1C298.5,164.2,298.9,164.6,298.9,165.5
		C298.2,165.8,298.9,164.6,298.9,165.5z"/>
	<path class="st0" d="M270.7,393.8c-0.5,1-1.3,1.5-2.4,1.6C266.3,393.7,271.8,393.2,270.7,393.8z"/>
	<path class="st0" d="M269.2,214.7c-0.8,0-2-1-0.7-1.6C269.6,212.9,269.9,213.5,269.2,214.7C268.6,214.7,269.6,214.3,269.2,214.7z"
		/>
	<path class="st0" d="M211.3,359.7c-0.8,0.4-1.6,0.3-2.3-0.2C209.7,357.7,210.5,357.8,211.3,359.7
		C210.6,359.8,211,358.7,211.3,359.7z"/>
	<path class="st0" d="M311.2,309.8c-0.8,0.3-1.4,0-1.8-1C309.9,306.3,311.2,309.6,311.2,309.8C311.2,309.5,311.1,308.4,311.2,309.8z
		"/>
	<path class="st0" d="M160.6,336.4c0.1,1.4-0.5,2.1-1.9,1.8C158.7,336.2,159.7,337.3,160.6,336.4z"/>
	<path class="st0" d="M266.5,273c-0.4-1.2-0.4-1.2,1-2.3C267.8,272,267.8,272,266.5,273z"/>
	<path class="st0" d="M218,383c-0.1,0.7-1.1,2-1.7,0.6C216.2,382.6,216.8,382.4,218,383C217.9,383.7,217.5,382.5,218,383z"/>
	<path class="st0" d="M236.8,417.4c1.3-0.3,2.2,0.2,2.8,1.5C238.3,418.8,237.4,418.4,236.8,417.4z"/>
	<path class="st0" d="M269.5,260.7c-0.7,0-1.4,0.1-2.1,0.1C268,259.1,268.7,259,269.5,260.7C268.9,261.2,269.4,260,269.5,260.7z"/>
	<path class="st0" d="M285.3,311.3c-0.5,1.7-1.1,1.8-2,0.1C284,311.4,284.7,311.3,285.3,311.3C285.4,312,284.6,310.7,285.3,311.3z"
		/>
	<path class="st0" d="M241.4,384.7c1,0.2,1.2,0.6,0.7,1.3C240.9,386.1,240.7,385.7,241.4,384.7C241.9,384.6,240.9,384.9,241.4,384.7
		z"/>
	<path class="st0" d="M243,374.3C247.6,375.5,240.6,376.8,243,374.3C243.6,374.5,242.5,374.9,243,374.3z"/>
	<path class="st0" d="M217,291.1c0.3,1-0.2,1.5-1.3,1.6C217.2,292.1,217.7,291.6,217,291.1z"/>
	<path class="st0" d="M233.6,379.1C236.5,380.6,231.9,381,233.6,379.1C233.7,379.2,233.5,379.2,233.6,379.1z"/>
	<path class="st0" d="M294,138.3C291.8,139.7,292.9,135.3,294,138.3C293.9,138.3,293.9,138,294,138.3z"/>
	<path class="st0" d="M214,378.4C212.7,377.2,214.8,376.6,214,378.4C213.8,378.2,214.1,378.1,214,378.4z"/>
	<path class="st0" d="M213.4,161.3c0-0.9,0.3-1.6,0.8-2C214,160.8,213.9,160.2,213.4,161.3z"/>
	<path class="st0" d="M193.6,349.6c0.3-0.6,0.6-1.3,0.9-1.9C194.6,348,193.8,349.3,193.6,349.6z"/>
	<path class="st0" d="M233.7,386.8c-0.5,0.4-0.9,0.5-1.4-0.1C232.9,386.1,233.3,386.2,233.7,386.8z"/>
	<path class="st0" d="M256.5,388.3c0.6,0,1.2-0.2,1.7,0.3C257.4,389.3,256.7,388.5,256.5,388.3z"/>
	<path class="st0" d="M306.9,330.2C308.1,330.5,306.4,332.5,306.9,330.2C307,330.3,306.8,330.5,306.9,330.2z"/>
	<path class="st0" d="M241.5,421.2c0.6,0.1,1.1,0.1,1.9,0.2C242.5,422.2,241.8,421.7,241.5,421.2z"/>
	<path class="st0" d="M122.1,311c0.4-0.8,1-1.2,1.9-0.9C123.8,310.3,122.1,311,122.1,311z"/>
	<path class="st0" d="M275,285.7C277.8,287.3,272.2,287.1,275,285.7C275.4,285.9,274.6,285.9,275,285.7z"/>
	<path class="st0" d="M274.1,235.3C273,234,274.9,233.4,274.1,235.3C274,235.1,274.3,235,274.1,235.3z"/>
	<path class="st0" d="M241.5,212c-0.3,0.8-0.7,1.2-1.5,0.6C241.5,212.7,242,212.5,241.5,212z"/>
	<path class="st0" d="M77,208.3c-0.8-0.3-1.2-0.7-0.6-1.5C76.3,208.3,76.5,208.8,77,208.3z"/>
	<path class="st0" d="M365.3,414.9C366,415.7,364.6,416.8,365.3,414.9C365.7,415.3,365.2,415.2,365.3,414.9z"/>
	<path class="st0" d="M213.3,161.2c0.1,0.6,0.1,1.2-0.5,1.6C212.1,161.8,212.7,161.3,213.3,161.2z"/>
	<path class="st0" d="M315.7,357.4C314.1,359.5,314.9,355.7,315.7,357.4C315.5,357.6,315.5,357.1,315.7,357.4z"/>
	<path class="st0" d="M307,359.3C306.9,360.6,304.7,358.8,307,359.3C307,359.4,306.8,359.3,307,359.3z"/>
	<path class="st0" d="M129.6,306.3C130.1,305,130,305.7,129.6,306.3C129.7,306.1,129.6,306.3,129.6,306.3z"/>
	<path class="st0" d="M236.9,417.3C236.6,417.3,234.5,415.1,236.9,417.3C236.3,417.3,236.9,417.3,236.9,417.3z"/>
	<path class="st0" d="M243.5,170.6c-0.2-0.1-0.5-0.3-0.7-0.4C243.3,169.8,243.5,170.2,243.5,170.6z"/>
	<path class="st0" d="M219.6,394.4C219.2,394.3,219.3,394.3,219.6,394.4L219.6,394.4z"/>
	<path class="st0" d="M270.8,393.9C271.4,392.5,271,393.7,270.8,393.9C270.9,393.7,270.8,393.9,270.8,393.9z"/>
	<path class="st0" d="M241.7,421.1C240.2,420.5,241.3,420.9,241.7,421.1C241.4,421,241.7,421.1,241.7,421.1z"/>
	<path class="st0" d="M124.6,420.6C124.3,420.6,124.2,420.6,124.6,420.6L124.6,420.6z"/>
	<path class="st0" d="M122,310.9C121.6,312.1,121.7,311.4,122,310.9C121.9,311.1,122,310.9,122,310.9z"/>
	<path class="st0" d="M124.8,309C124.9,309.2,122.5,311.6,124.8,309C124.9,309.7,124.8,309,124.8,309z"/>
	<path class="st0" d="M350.3,442.8c-1.9-1-3.4-3.6-1.1-4.8C353.2,435.9,354.7,441.8,350.3,442.8
		C348.6,441.8,352.4,442.3,350.3,442.8z"/>
	<path class="st0" d="M377.2,448.7c-0.4-3.4,3.1-3.8,3.7-1.3C381.4,449.8,378.6,451.1,377.2,448.7
		C377.1,447.5,377.6,449.4,377.2,448.7z"/>
	<path class="st0" d="M194.3,151.2c1.3,1.2,1.3,2.1-0.1,2.5C193.3,152.9,193.4,152,194.3,151.2C194.6,151.8,193.5,151.5,194.3,151.2
		z"/>
	<path class="st0" d="M190.7,149.9C190.3,151,190.3,150.5,190.7,149.9C190.6,150.1,190.7,149.9,190.7,149.9z"/>
	<path class="st0" d="M191.7,148.9C191.7,149.1,189.4,151.5,191.7,148.9C191.7,149.7,191.7,148.9,191.7,148.9z"/>
	<path class="st0" d="M191.7,149c0.1-0.2,0.2-0.5,0.3-0.7C192.5,148.9,191.6,149,191.7,149z"/>
	<g>
		<path class="st0" d="M160.9,157.1c18.8-1.4-18.2-15.3-2.2-2.2C162.6,154.7,165.2,153.5,160.9,157.1z"/>
		<path class="st0" d="M175.4,155.6c18.8-1.4-18.4-15.4-2.3-2.3C176.9,153,178.5,153,175.4,155.6z"/>
		<path class="st0" d="M188.6,178.8c-2,4.2-6.6,4.9-10.2,3.1C179.3,180.8,187.7,178.7,188.6,178.8
			C188.4,179.3,188.2,178.8,188.6,178.8z"/>
		<path class="st0" d="M167.5,158.8c5,3.8,2.8,12.3,2.5,16.1c0.8,0.3,1.6,0.4,2.3,0.3c-0.1,0.8-5.3,4.4-4.4,5.4
			c-0.4-3.3,1.1-6.8,1.3-9.8C169.4,168.2,166.9,160.5,167.5,158.8C169.1,160,167.2,159.6,167.5,158.8z"/>
	</g>
</g>
</svg>
