<?xml version="1.0" encoding="utf-8"?>
<!DOCTYPE svg PUBLIC "-//W3C//DTD SVG 1.1//EN" "http://www.w3.org/Graphics/SVG/1.1/DTD/svg11.dtd">
<svg version="1.1" id="SVGCloseIcon" xmlns="http://www.w3.org/2000/svg" xmlns:xlink="http://www.w3.org/1999/xlink" x="0px" y="0px"
	 width="113.4px" height="113.4px" viewBox="0 0 113.4 113.4" enable-background="new 0 0 113.4 113.4" xml:space="preserve">
<path fill-rule="evenodd" clip-rule="evenodd" fill="#000000" d="M74.6,54.2c13.2,16.5,25.7,32,38.7,48.3c-3.1,3.1-6.2,6.1-11,10.8
	c-7.9-7.8-14.9-14.5-21.7-21.4c-7-7-13.9-14.1-22.4-22.7c-18.6,13.4-36.9,26.5-57,41c-5.7-16.8,9.4-23.8,16.2-33.3
	c7.4-10.4,16.4-19.9,24.8-29.9C29,36.9,16.3,27.1,3.4,17c4.4-5.5,6.5-9.5,10-12.3c8.7-6.7,15-6.4,22.1,1.7
	c8.1,9.3,15.1,19.3,22.7,29.2c18.7-1.3,21.1-18,36.3-24.1c2.8,2,6.3,4,9.1,6.5c11.3,10.1,10.5,15.3-3.5,23.2
	C92.3,45.5,84.1,49.4,74.6,54.2z"/>
</svg>
