<?xml version="1.0" encoding="utf-8"?>
<!-- Generator: Adobe Illustrator 16.0.0, SVG Export Plug-In . SVG Version: 6.00 Build 0)  -->
<!DOCTYPE svg PUBLIC "-//W3C//DTD SVG 1.1//EN" "http://www.w3.org/Graphics/SVG/1.1/DTD/svg11.dtd">
<svg version="1.1" id="SheepLui" xmlns="http://www.w3.org/2000/svg" xmlns:xlink="http://www.w3.org/1999/xlink" x="0px" y="0px"
	 width="500px" height="402px" viewBox="0 0 500 402" style="enable-background:new 0 0 500 402;" xml:space="preserve">
<style type="text/css">
<![CDATA[
	.st0{fill-rule:evenodd;clip-rule:evenodd;}
	.st1{fill-rule:evenodd;clip-rule:evenodd;fill:#FFFFFF;}
]]>
</style>
<path class="st0" d="M79.1,170c-8.5,0-17.3-1.5-25.4,0.4c-8.8,2.1-16.8,7.3-25.1,11.3c-3,1.4-5.9,3.2-8.9,4.5
	C9.5,190.7,2.2,186.1,0.4,175c-3.1-19.6,11.5-37.1,23.6-44c17.7-10,43.7-3,55.4,13.9c6.9,9.9,15.2,13.1,26.6,9.8
	c2.9-0.8,4.5-2,4.4-6.5c-0.4-15.7-2.1-32.2,1.8-47.1c4.8-18.2,13.7-36.1,34.1-42.9c5.3-1.8,11.4-1.2,16.9-2.8c4-1.1,8.8-3,11-6.2
	c18.8-26.9,44.7-43.2,76.5-48.7c15.2-2.6,30.2,3.3,43.8,10.9c5.6,3.1,10.4,7.6,15.8,11.1c3.2,2.1,6.2,3.2,10.9,1.6
	c11.6-4,23.8-8.8,35.7-8.8c12.5,0,25.3,4,37.3,8.2c16,5.6,30.7,14.3,43.4,25.8c9.5,8.5,14,19.9,17.1,31.7c1.7,6.7,1.6,13.8,3.3,20.5
	c0.9,3.5,3.3,7.5,6.2,9.5c12.8,8.8,23.4,19.2,27.4,34.6c2.9,11.3,5.3,22.7,7,34.2c2.2,15.4-5.8,28.2-12.5,41.2
	c-1,1.9-2.2,5.1-1.3,6.4c14.2,21.7,4.9,40.9-8.1,57.7c-13.8,17.9-32,32.4-54.2,38.1c-14,3.6-16.7,13.5-19.8,23.5
	c-5,15.8-8,32.1-12.2,48.1c-0.6,2.1-3.3,3.7-5,5.5c-1.2-2-3.4-4-3.4-6c-0.3-12.7-0.1-25.4-0.2-38.1c0-2.7-1-5.5-1.5-8.1
	c-14.5,3.2-18,14.1-20.3,25.9c-0.8,4.2-0.5,8.7-1.7,12.8c-0.7,2.4-3.5,4.2-5.3,6.3c-0.6-1.9-1.3-3.7-1.7-5.6
	c-1.6-7.2-3.1-14.4-4.9-22.6c-19.5,3.4-37.3-3.4-55.4-9c-1.4-0.4-4.8,1.7-5.3,3.3c-3.4,11.1-8.4,21.8-7.8,34
	c0.1,2.8-3.3,8.1-5.3,8.2c-4.7,0.2-5.9-4.1-6.1-8.7c-1-17-5.3-33.3-11.6-48.5c-10.7-0.9-14.4,5.1-16.2,13.7c-2.1,10-5,19.7-7.1,29.7
	c-1.4,6.6-2.2,8-7.7,8.2c-1.8-12.1-4.1-24.1-5.4-36.2c-1.2-11-5.1-19.1-16-23.4c-13.2-5.3-22.3-15.3-30-27.1c-1.3-2-5.2-3.2-8-3.4
	c-10.6-0.9-21.2,1.5-32-1.4c-26.7-7.2-48.2-21.3-64.8-43.6C59,249,53.2,236.5,53.2,221.9c0-14.7,5.9-27.3,15.7-38
	c3.4-3.7,7.6-6.8,11.4-10.1C79.9,172.5,79.5,171.3,79.1,170z"/>
<path class="st1" d="M133.5,228.6c0,28.6,26.8,51.4,49.9,47.6c11.7-1.9,22.1-5.9,28.6-16.4c10.3-16.6,20.7-32.3,14.1-54.4
	c-7-23.3-21.5-31.6-45.3-29.7c-8.9,0.7-18.8,1.1-26,8.3C141.2,197.8,134.3,214.3,133.5,228.6z"/>
<path class="st1" d="M58.7,219.9c1.4,15,6.2,18,10.3,25.9c7.3,14.2,26.6,22.9,38.2,18.6c7-2.6,14.1-6,19.6-10.9
	c1.8-1.6-1.2-8.7-2-13.4c-0.2-0.9-0.1-1.9,0-2.9c0.7-21.8,8.8-40.3,24-55.8c5-5.1,4.5-6.9-1.5-10.8c-9.6-6.2-19.5-5.8-30.4-4.3
	C98,169,82.5,177.6,71.3,192.2C65.3,200,59.9,204.7,58.7,219.9z"/>
<circle class="st0" cx="115.8" cy="183.5" r="7.3"/>
<circle class="st0" cx="177.1" cy="193.1" r="7.6"/>
<path class="st1" d="M225.4,184.3c2,5.7,3.5,9.8,4.9,14c5.2,14.5,5.3,28.7,0.1,43.4c-8.8,24.9-28,40.5-48.5,54.6
	c-5.7,3.9-4.8,6.5-2.2,10.7c0.9,1.4,2.4,2.4,3.4,3.8c12.1,18.8,44.5,33.5,68.7,25.7c0.5-5.2-8.3-8.6-3-15.1
	c4.9,4.2,9.4,8.6,14.4,12.2c10.7,7.6,21.2,15.2,35.6,14.6c8.7-0.4,17.6,1.4,26.3,2.9c16.6,3,32.4-1.3,45.7-9.7
	c11.4-7.2,19.8-19.1,29.6-28.8c1.6-1.6,3.5-2.9,5.2-4.3c0.4,0.4,0.9,0.8,1.3,1.2c-1,2.8-2,5.6-3,8.6c10.2,2.8,19.4-1,27.7-4.9
	c18.1-8.6,33-21.6,44.9-37.8c2.9-3.9,4.6-8.6,0.3-12.9c-5.1-5.2-10.4-10.2-15.4-15.4c-4.7-4.9-8.7-2.5-12.5,0.9
	c-3.8,3.4-6.9,7.7-10.9,10.7c-7,5.3-12.9,13.1-25.2,11.5c1.5-2.3,2.2-4.6,3.6-5.3c27.1-14.1,44.6-35.6,51.5-65.6
	c1.1-5,2.4-9.9,3.6-14.8c0.7,0.2,1.4,0.4,2.1,0.6c0.8,17.4-5.7,33.1-12.7,49.1c8.8-0.6,11.8-7.7,16-12.9
	c7.7-9.3,13.4-20.4,13.2-32.2c-0.2-13.4-2.2-26.8-6.7-40c-8.2-24.1-24.9-36.2-48.9-40.6c-1.5-0.3-4-1.1-4.1-2.1
	c-0.3-1.6,0.6-3.7,1.6-5c1.3-1.6,3.7-2.3,5-3.9c1.8-2.2,4.5-5,4.2-7.3c-2.2-20-8.9-37.8-27-49c-4.9-3-10-5.6-15.2-8
	c-22.8-10.4-46-16.4-70.3-5c-5.6,2.6-10.9,6-17,9.3c12.9,5.3,24.1,9.8,35.2,14.4c-0.3,0.8-0.6,1.6-0.9,2.4c-1.1-0.1-2.3-0.1-3.4-0.3
	c-9.5-2.3-18.8-5.5-28.4-6.6c-18.3-2.2-35.6,2.9-52.5,9.4c-5,1.9-10.1,3.7-15.2,5.5c-0.4-1-0.8-2-1.1-3.1
	c15.5-13.3,36-14.7,54.7-20.1c-6.4-18.4-23.4-31-41.3-31.4c-25.6-0.5-46.2,10.9-64.2,27.5c-11.6,10.7-20.7,23.7-24.3,42
	c-2.4-3.2-3.7-4.8-4.8-6.5c-0.9-1.3-1.4-3.9-2.3-4c-5.6-0.7-11.8-2.4-16.8-0.8c-15.6,5-22.8,18.4-27.5,32.7
	c-5.1,15.6-3.1,31.9-2.7,48.1c0.2,6.1,2.1,5.5,6.7,5.3c13.3-0.7,27.1-2.5,40-0.2c13,2.3,25.9,7.9,37.7,14.2
	c10.4,5.5,18.4,3,27.3-2.2c9.7-5.7,19.1-12.3,29.5-16c14.6-5.2,30.2,1.5,37.8,19c2.1,4.9,3,10.4,4.5,15.6c2.9,10.5,6.1,21,8.7,31.6
	c1.3,5.4-3.9,13.7-8.7,16.8c-7.1,4.6-22.1,0.6-28.9-10.4C260.6,203.1,246.8,190.4,225.4,184.3z"/>
</svg>
