<?xml version="1.0" encoding="utf-8"?>
<!DOCTYPE svg PUBLIC "-//W3C//DTD SVG 1.1//EN" "http://www.w3.org/Graphics/SVG/1.1/DTD/svg11.dtd">
<svg version="1.1" id="PrimarySheep" xmlns="http://www.w3.org/2000/svg" xmlns:xlink="http://www.w3.org/1999/xlink" x="0px"
	 y="0px" width="500px" height="402px" viewBox="-558 -105.1 500 402" style="enable-background:new -558 -105.1 500 402;"
	 xml:space="preserve">
<style type="text/css">
<![CDATA[
	.st0{fill:#FFFFFF;}
]]>
</style>
<path d="M-138.1,65c8.5,0,17.3-1.5,25.4,0.4c8.8,2.1,16.8,7.3,25.1,11.3c3,1.4,5.9,3.2,8.9,4.5c10.2,4.5,17.5-0.1,19.3-11.2
	c3.1-19.6-11.5-37.1-23.6-44c-17.7-10-43.7-3-55.4,13.9c-6.9,9.9-15.2,13.1-26.6,9.8c-2.9-0.8-4.5-2-4.4-6.5
	c0.4-15.7,2.1-32.2-1.8-47.1c-4.8-18.2-13.7-36.1-34.1-42.9c-5.3-1.8-11.4-1.2-16.9-2.8c-4-1.1-8.8-3-11-6.2
	c-18.8-26.9-44.7-43.2-76.5-48.7c-15.2-2.6-30.2,3.3-43.8,10.9c-5.6,3.1-10.4,7.6-15.8,11.1c-3.2,2.1-6.2,3.2-10.9,1.6
	c-11.6-4-23.8-8.8-35.7-8.8c-12.5,0-25.3,4-37.3,8.2c-16,5.6-30.7,14.3-43.4,25.8c-9.5,8.5-14,19.9-17.1,31.7
	c-1.7,6.7-1.6,13.8-3.3,20.5c-0.9,3.5-3.3,7.5-6.2,9.5c-12.8,8.8-23.4,19.2-27.4,34.6c-2.9,11.3-5.3,22.7-7,34.2
	c-2.2,15.4,5.8,28.2,12.5,41.2c1,1.9,2.2,5.1,1.3,6.4c-14.2,21.7-4.9,40.9,8.1,57.7c13.8,17.9,32,32.4,54.2,38.1
	c14,3.6,16.7,13.5,19.8,23.5c5,15.8,8,32.1,12.2,48.1c0.6,2.1,3.3,3.7,5,5.5c1.2-2,3.4-4,3.4-6c0.3-12.7,0.1-25.4,0.2-38.1
	c0-2.7,1-5.5,1.5-8.1c14.5,3.2,18,14.1,20.3,25.9c0.8,4.2,0.5,8.7,1.7,12.8c0.7,2.4,3.5,4.2,5.3,6.3c0.6-1.9,1.3-3.7,1.7-5.6
	c1.6-7.2,3.1-14.4,4.9-22.6c19.5,3.4,37.3-3.4,55.4-9c1.4-0.4,4.8,1.7,5.3,3.3c3.4,11.1,8.4,21.8,7.8,34c-0.1,2.8,3.3,8.1,5.3,8.2
	c4.7,0.2,5.9-4.1,6.1-8.7c1-17,5.3-33.3,11.6-48.5c10.7-0.9,14.4,5.1,16.2,13.7c2.1,10,5,19.7,7.1,29.7c1.4,6.6,2.2,8,7.7,8.2
	c1.8-12.1,4.1-24.1,5.4-36.2c1.2-11,5.1-19.1,16-23.4c13.2-5.3,22.3-15.3,30-27.1c1.3-2,5.2-3.2,8-3.4c10.6-0.9,21.2,1.5,32-1.4
	c26.7-7.2,48.2-21.3,64.8-43.6c8.7-11.7,14.5-24.1,14.5-38.7c0-14.7-5.9-27.3-15.7-38c-3.4-3.7-7.6-6.8-11.4-10.1
	C-138.9,67.5-138.5,66.3-138.1,65z"/>
<path class="st0" d="M-192.5,123.6c0,28.6-26.8,51.4-49.9,47.6c-11.7-1.9-22.1-5.9-28.6-16.4c-10.3-16.6-20.7-32.3-14.1-54.4
	c7-23.3,21.5-31.6,45.3-29.7c8.9,0.7,18.8,1.1,26,8.3C-200.2,92.8-193.3,109.3-192.5,123.6z"/>
<path class="st0" d="M-117.7,114.9c-1.4,15-6.2,18-10.3,25.9c-7.3,14.2-26.6,22.9-38.2,18.6c-7-2.6-14.1-6-19.6-10.9
	c-1.8-1.6,1.2-8.7,2-13.4c0.2-0.9,0.1-1.9,0-2.9c-0.7-21.8-8.8-40.3-24-55.8c-5-5.1-4.5-6.9,1.5-10.8c9.6-6.2,19.5-5.8,30.4-4.3
	c18.9,2.6,34.3,11.2,45.5,25.8C-124.3,95-118.9,99.7-117.7,114.9z"/>
<path d="M-171.7,103c0,6.6,5.3,11.9,11.9,11.9c6.6,0,11.9-5.3,11.9-11.9c0-6.6-5.3-11.9-11.9-11.9C-166.4,91-171.7,96.4-171.7,103z"
	/>
<path d="M-245.2,110.5c0,6.6,5.3,11.9,11.9,11.9c6.6,0,11.9-5.3,11.9-11.9c0-6.6-5.3-11.9-11.9-11.9
	C-239.9,98.5-245.2,103.9-245.2,110.5z"/>
<path class="st0" d="M-284.4,79.3c-2,5.7-3.5,9.8-4.9,14c-5.2,14.5-5.3,28.7-0.1,43.4c8.8,24.9,28,40.5,48.5,54.6
	c5.7,3.9,4.8,6.5,2.2,10.7c-0.9,1.4-2.4,2.4-3.4,3.8c-12.1,18.8-44.5,33.5-68.7,25.7c-0.5-5.2,8.3-8.6,3-15.1
	c-4.9,4.2-9.4,8.6-14.4,12.2c-10.7,7.6-21.2,15.2-35.6,14.6c-8.7-0.4-17.6,1.4-26.3,2.9c-16.6,3-32.4-1.3-45.7-9.7
	c-11.4-7.2-19.8-19.1-29.6-28.8c-1.6-1.6-3.5-2.9-5.2-4.3c-0.4,0.4-0.9,0.8-1.3,1.2c1,2.8,2,5.6,3,8.6c-10.2,2.8-19.4-1-27.7-4.9
	c-18.1-8.6-33-21.6-44.9-37.8c-2.9-3.9-4.6-8.6-0.3-12.9c5.1-5.2,10.4-10.2,15.4-15.4c4.7-4.9,8.7-2.5,12.5,0.9
	c3.8,3.4,6.9,7.7,10.9,10.7c7,5.3,12.9,13.1,25.2,11.5c-1.5-2.3-2.2-4.6-3.6-5.3c-27.1-14.1-44.6-35.6-51.5-65.6
	c-1.1-5-2.4-9.9-3.6-14.8c-0.7,0.2-1.4,0.4-2.1,0.6c-0.8,17.4,5.7,33.1,12.7,49.1c-8.8-0.6-11.8-7.7-16-12.9
	c-7.7-9.3-13.4-20.4-13.2-32.2c0.2-13.4,2.2-26.8,6.7-40c8.2-24.1,24.9-36.2,48.9-40.6c1.5-0.3,4-1.1,4.1-2.1c0.3-1.6-0.6-3.7-1.6-5
	c-1.3-1.6-3.7-2.3-5-3.9c-1.8-2.2-4.5-5-4.2-7.3c2.2-20,8.9-37.8,27-49c4.9-3,10-5.6,15.2-8c22.8-10.4,46-16.4,70.3-5
	c5.6,2.6,10.9,6,17,9.3c-12.9,5.3-24.1,9.8-35.2,14.4c0.3,0.8,0.6,1.6,0.9,2.4c1.1-0.1,2.3-0.1,3.4-0.3c9.5-2.3,18.8-5.5,28.4-6.6
	c18.3-2.2,35.6,2.9,52.5,9.4c5,1.9,10.1,3.7,15.2,5.5c0.4-1,0.8-2,1.1-3.1c-15.5-13.3-36-14.7-54.7-20.1c6.4-18.4,23.4-31,41.3-31.4
	c25.6-0.5,46.2,10.9,64.2,27.5c11.6,10.7,20.7,23.7,24.3,42c2.4-3.2,3.7-4.8,4.8-6.5c0.9-1.3,1.4-3.9,2.3-4
	c5.6-0.7,11.8-2.4,16.8-0.8c15.6,5,22.8,18.4,27.5,32.7c5.1,15.6,3.1,31.9,2.7,48.1c-0.2,6.1-2.1,5.5-6.7,5.3
	c-13.3-0.7-27.1-2.5-40-0.2c-13,2.3-25.9,7.9-37.7,14.2c-10.4,5.5-18.4,3-27.3-2.2c-9.7-5.7-19.1-12.3-29.5-16
	c-14.6-5.2-30.2,1.5-37.8,19c-2.1,4.9-3,10.4-4.5,15.6c-2.9,10.5-6.1,21-8.7,31.6c-1.3,5.4,3.9,13.7,8.7,16.8
	c7.1,4.6,22.1,0.6,28.9-10.4C-319.6,98.1-305.8,85.4-284.4,79.3z"/>
</svg>
