<?xml version="1.0" encoding="utf-8"?>
<!DOCTYPE svg PUBLIC "-//W3C//DTD SVG 1.1//EN" "http://www.w3.org/Graphics/SVG/1.1/DTD/svg11.dtd">
<svg version="1.1" id="TacticSheep" xmlns="http://www.w3.org/2000/svg" xmlns:xlink="http://www.w3.org/1999/xlink" x="0px" y="0px"
	 width="1000px" height="842px" viewBox="0 0 1000 842" enable-background="new 0 0 1000 842" xml:space="preserve">
<path fill-rule="evenodd" clip-rule="evenodd" fill="#FFFFFF" d="M530.3,295.9c-34.8,6.3-52.6,20.6-82.4,37.4
	c-21.5,12-44,29.6-70.2,20.7c-69.2-23.5,1.7-104.4,46-108.5c35.9-3.3,60.9,16.2,93.6,24.8c35.3,9.3,63.9-8.5,97.9-13.6
	c37-5.6,77.9-9.7,115.2-6.4c-1.5-42.8-24.4-93.5-60-118.4c-18.2-12.8-89.7-42.4-105.4-6.1c-20.1-12.8-26.1-52.7-46.6-70.1
	c-25.7-21.9-52.4-29.8-84.8-36.7c-33.3-7.1-67.6-4.1-95.6,16.8c-10.3,7.7-18,17.8-25.4,28.2c-6.3,8.7-6.9,30.1-12,34.9
	c-39.5-32-85.9-31.2-133.8-17.4c-30.6,8.8-61.4,32.4-82.4,55.9c-12.2,13.7-22.2,31.6-21,50.5c1.3,19.1,26.2,4.5,26.5,13.2
	c0.1,5.7-30.3,21.2-34.9,26.7c-17.9,21.4-35.2,49.8-40.2,77.6c-5,28,3.5,55.7,20.5,78.2c14.7,19.5,47,31.8,58.5,48.9
	c4.8,7.1-9.7,22.7-13,28.3c-13.3,22.8-20.2,42.6-23.4,68.7c-6.5,52,50.2,127.1,105.5,121.3c0.7,3.4-0.7-28.2,3.3-22.3
	c24.3,35.7,45.3,79.8,86,99.5c40.8,19.7,106.9,10.8,144.1-12.9c21.2-13.5,18.6-12.8,30.2,6.1c9.3,15.2,21.8,19.2,38.7,20.6
	c26,2.1,87.8-30.4,80.9-64.5c-2.9-14.3-31.5-34.6-41.2-45.4c-12.9-14.3-21.8-30.7-30.5-47.8c-16.4-32.6-27.5-78.8-23.1-115.2
	c3.5-28.4,5.7-59.9,16.6-86.6C481.7,348.3,508.3,324.1,530.3,295.9C512.4,299.2,527.6,299.4,530.3,295.9z"/>
<path fill-rule="evenodd" clip-rule="evenodd" d="M805.8,273.6c92.7,132.2-11.3,321.9-129.5,401.4c-21.9,14.7-45.8,16.4-71.3,19.6
	c-16.1,2-30-5-44-11.6c-11,25-27.2,44-46.6,62.8c-8.4,8.1-39,13.3-42.9,21.3c-8.1,16.8-15.1,34-22.4,51.1
	c-20.1,47.3-29.1-24.7-32.9-44.1c-14.1,10.2-28.6,72.6-43.4,67.3c-17.4-6.3,0.3-63.6-11.9-75.9c-6.2-6.3-30.7-3.4-38.6-3.8
	c-22.6-1.1-23.8,4.4-27.7,26.2c-11.2,61.7-20.4-18-29.9-18.4c-13.7,42.2-21.7,74.7-36.8,11.9c-5.9-24.7-9.6-50.1-23.6-71.7
	c-18.2-28-29.4-30.4-59.1-40.7c-46.9-16.4-68.2-41.6-91.9-82.8c-27.1-47-10.4-96.8-0.9-145.6c2.7-13.9-31.3-49.8-37.5-64.2
	C3.4,350.3-4.6,317.2,4.3,289.1c6.8-21.4,20.4-41.4,29.2-62.2c9.7-23.1,7.6-49.7,18.9-71.6c23.4-45.3,75.8-79.3,122.3-97.4
	c17.6-6.9,33.5-9.6,52.2-8.6c13,0.7,38.7,11.2,50.2,8.2c18.6-4.9,39.1-29,56.8-38.4c22.2-11.9,47-20.4,72.5-18.6
	c62.4,4.4,119.2,29.9,161.5,76.8c13.6,15.1,43.5,14.5,62.6,19.7c25.5,7,49.5,21.9,68.7,39.9c16.8,15.8,30.3,34.8,40.7,55.4
	c14.9,29.4,10.1,62.4,46.4,63.4c21.1,0.6,35.4-8.6,54.7-14.8c30.5-9.8,57.5-1.9,87,6.8c31.9,9.4,97.9,32.7,60.5,76.8
	c-26.5,31.3-76.3,27.7-104.2,1.9C854.4,298.9,854.9,274.6,805.8,273.6C812.5,283.3,833.5,274.2,805.8,273.6z M530.3,295.9
	c-34.8,6.3-52.6,20.6-82.4,37.4c-21.5,12-44,29.6-70.2,20.7c-69.2-23.5,1.7-104.4,46-108.5c35.9-3.3,60.9,16.2,93.6,24.8
	c35.3,9.3,63.9-8.5,97.9-13.6c37-5.6,77.9-9.7,115.2-6.4c-1.5-42.8-24.4-93.5-60-118.4c-18.2-12.8-89.7-42.4-105.4-6.1
	c-20.1-12.8-26.1-52.7-46.6-70.1c-25.7-21.9-52.4-29.8-84.8-36.7c-33.3-7.1-67.6-4.1-95.6,16.8c-10.3,7.7-18,17.8-25.4,28.2
	c-6.3,8.7-6.9,30.1-12,34.9c-39.5-32-85.9-31.2-133.8-17.4c-30.6,8.8-61.4,32.4-82.4,55.9c-12.2,13.7-22.2,31.6-21,50.5
	c1.3,19.1,26.2,4.5,26.5,13.2c0.1,5.7-30.3,21.2-34.9,26.7c-17.9,21.4-35.2,49.8-40.2,77.6c-5,28,3.5,55.7,20.5,78.2
	c14.7,19.5,47,31.8,58.5,48.9c4.8,7.1-9.7,22.7-13,28.3c-13.3,22.8-20.2,42.6-23.4,68.7c-6.5,52,50.2,127.1,105.5,121.3
	c0.7,3.4-0.7-28.2,3.3-22.3c24.3,35.7,45.3,79.8,86,99.5c40.8,19.7,106.9,10.8,144.1-12.9c21.2-13.5,18.6-12.8,30.2,6.1
	c9.3,15.2,21.8,19.2,38.7,20.6c26,2.1,87.8-30.4,80.9-64.5c-2.9-14.3-31.5-34.6-41.2-45.4c-12.9-14.3-21.8-30.7-30.5-47.8
	c-16.4-32.6-27.5-78.8-23.1-115.2c3.5-28.4,5.7-59.9,16.6-86.6C481.7,348.3,508.3,324.1,530.3,295.9
	C512.4,299.2,527.6,299.4,530.3,295.9z"/>
<path fill-rule="evenodd" clip-rule="evenodd" fill="#FFFFFF" d="M685.1,370.1c-0.2-60.8-45.8-115.5-110-86.6
	c-50.1,22.5-91.3,84.4-104,136.7c-18.3,75.4,27.5,107.5,96.9,99.2C644.3,510.3,685.4,445.1,685.1,370.1z"/>
<path fill-rule="evenodd" clip-rule="evenodd" fill="#FFFFFF" d="M773.7,515.5c44.2-25.1,63.8-110.1,51-156.2
	c-8.2-29.4-13.1-53.9-43.3-68.2c-22.1-10.4-64-16.8-85.1-0.2c-19.1,15.1,10.1,59.9,8.9,81.4c-1.9,32.8-18.3,63.6-31.6,93
	c-7.3,16.2-36,51.9-7.7,61.9C699.7,539.2,743.2,532.8,773.7,515.5z"/>
<path fill-rule="evenodd" clip-rule="evenodd" d="M523.6,388.8c38.6,0,38.6,60,0,60S485,388.8,523.6,388.8z"/>
<path fill-rule="evenodd" clip-rule="evenodd" d="M739.1,395.5c38.6,0,38.5,60,0,60C700.5,455.5,700.6,395.5,739.1,395.5z"/>
</svg>
