<?xml version="1.0" encoding="utf-8"?>
<!DOCTYPE svg PUBLIC "-//W3C//DTD SVG 1.1//EN" "http://www.w3.org/Graphics/SVG/1.1/DTD/svg11.dtd">
<svg artist="zl2017" version="1.1" id="zlIcon-zl" xmlns="http://www.w3.org/2000/svg" xmlns:xlink="http://www.w3.org/1999/xlink" x="0px" y="0px"
	 width="100px" height="60px" viewBox="-28.4 -19.4 100 60" enable-background="new -28.4 -19.4 100 60" xml:space="preserve">
<path d="M29.3,28.1c-4.2,5.8-8.7,6-12.5,6c-8.9,0.2-18.1-0.4-27-0.9c-5.4-0.2-10.7-0.4-16.1-0.7c-0.7-4,1.8-5.4,3.6-6.9
	c7.1-5.8,14.3-11.2,21.2-17.2c4-3.3,8.3-6.9,10.5-13.6C2-4.8-4-4.5-10-3.9c-3.6,0.2-7.1,1.3-10.7,1.6c-1.3,0.2-2.7-1.3-4-2.2
	c1.1-1.1,2.2-2.9,3.6-3.1C-14.5-8.8-8-9.9-1.3-10.6c8.9-0.9,17.9-1.6,27.5-2.2C27-8.6,25-6.1,21.4-3.6C17-0.7,12.7,2.2,8.9,5.7
	C1.1,12.7-6.5,20.3-14.7,28.1C0,28.1,13.9,28.1,29.3,28.1z"/>
<path d="M34.8-13c4.2,2,3.6,5.1,3.6,7.8c0,8,0,16.1,0,25c10.5,0.2,20.8-2.2,31-3.4c0.4,3.4-0.7,4.5-3.6,4.9
	c-8,1.1-16.5,1.6-24.1,4.9c-3.6,1.6-8-0.9-8.9-4.9c-0.7-2.2-1.3-4.7-1.1-7.1C32.6,5.5,33.7-3.4,34.8-13z"/>
</svg>
