<?xml version="1.0" standalone="no"?><!-- Generator: Gravit.io --><svg xmlns="http://www.w3.org/2000/svg" xmlns:xlink="http://www.w3.org/1999/xlink" style="isolation:isolate" viewBox="0 0 999 1364" width="999" height="1364"><defs><clipPath id="_clipPath_U3D424X6dfUqRvprqHvfphTsRqcEZBms"><rect width="999" height="1364"/></clipPath></defs><g clip-path="url(#_clipPath_U3D424X6dfUqRvprqHvfphTsRqcEZBms)"><g id="Group" style="opacity:0.1;"><linearGradient id="_lgradient_24" x1="0%" y1="50%" x2="93.95148425875918%" y2="15.749180950287833%"><stop offset="0%" stop-opacity="1" style="stop-color:rgb(141,141,141)"/><stop offset="100%" stop-opacity="1" style="stop-color:rgb(96,96,96)"/></linearGradient><path d=" M 327.972 1361.761 C 324.06 1360.644 241.928 1325.444 226.284 1246.105 C 213.433 1181.293 247.515 1108.1 327.972 1027.085 C 393.342 961.714 419.044 902.489 406.193 851.087 C 383.844 762.808 253.661 723.697 251.426 723.697 L 257.013 705.259 C 263.159 706.936 400.047 747.164 425.748 846.058 C 440.275 904.724 412.898 970.095 342.498 1040.494 C 267.07 1117.04 234.106 1184.645 245.839 1242.194 C 259.248 1311.476 334.676 1343.882 335.235 1343.882 L 327.972 1361.761 L 327.972 1361.761 Z " fill="url(#_lgradient_24)"/><linearGradient id="_lgradient_25" x1="0%" y1="50%" x2="93.93732222531432%" y2="15.710358807105196%"><stop offset="0%" stop-opacity="1" style="stop-color:rgb(144,144,144)"/><stop offset="100%" stop-opacity="1" style="stop-color:rgb(91,91,91)"/></linearGradient><path d=" M 331.883 1362.879 C 309.534 1362.879 227.96 1316.504 208.963 1238.283 C 198.163 1176.463 220.15 1113.459 267.07 1071.783 C 296.683 1043.847 324.06 1021.498 360.378 995.796 C 406.143 966.949 439.891 922.481 455.361 870.642 C 467.653 818.681 452.008 770.63 410.663 737.665 C 359.566 700.285 299.741 676.625 236.899 668.942 L 238.576 649.387 C 244.163 649.387 348.644 661.12 422.955 722.58 C 468.854 758.693 488.664 818.782 473.24 875.112 C 462.065 925.397 424.631 974.006 370.993 1012.558 C 335.794 1036.583 309.534 1059.491 281.039 1086.869 C 238.785 1123.863 218.701 1180.098 227.96 1235.489 C 243.336 1286.124 281.94 1326.388 331.883 1343.882 L 331.883 1362.32 L 331.883 1362.879 Z " fill="url(#_lgradient_25)"/><linearGradient id="_lgradient_26" x1="0%" y1="50%" x2="93.97568934662205%" y2="15.815649606476539%"><stop offset="0%" stop-opacity="1" style="stop-color:rgb(146,146,146)"/><stop offset="100%" stop-opacity="1" style="stop-color:rgb(88,88,88)"/></linearGradient><path d=" M 331.883 1362.879 C 292.772 1362.879 205.611 1305.889 187.732 1217.61 C 179.133 1144.807 212.455 1073.405 273.775 1033.231 C 308.975 1010.882 340.822 990.768 390.549 964.508 C 449.572 937.69 492.596 884.737 506.763 821.474 C 519.166 760.959 491.786 699.243 438.599 667.825 C 342.498 608.041 222.373 611.394 220.696 611.394 L 220.696 591.838 C 225.166 591.838 348.644 587.927 449.215 651.622 C 509.965 686.399 541.514 756.256 527.436 824.827 C 511.395 893.632 464.929 951.405 401.164 981.828 C 352.555 1007.53 320.708 1026.526 286.626 1049.434 C 231.979 1085.335 201.831 1148.646 208.404 1213.699 C 224.049 1291.921 304.505 1342.206 333.559 1342.206 L 331.883 1362.32 L 331.883 1362.879 Z " fill="url(#_lgradient_26)"/><linearGradient id="_lgradient_27" x1="0%" y1="50%" x2="93.95148145026647%" y2="15.749173246471337%"><stop offset="0%" stop-opacity="1" style="stop-color:rgb(148,148,148)"/><stop offset="100%" stop-opacity="1" style="stop-color:rgb(85,85,85)"/></linearGradient><path d=" M 331.883 1362.879 C 277.128 1362.879 183.262 1295.832 166.5 1196.937 C 160.048 1112.797 205.384 1033.181 281.039 995.796 C 331.324 971.212 368.2 955.568 421.837 934.895 C 493.392 909.605 546.006 848.044 559.842 773.424 C 570.295 701.285 532.122 630.847 465.977 600.219 C 345.292 537.642 205.611 556.639 204.493 556.639 L 201.7 537.083 C 207.287 535.966 348.644 517.528 474.357 582.899 C 548.415 617.161 591.143 696.027 579.398 776.776 C 565.268 858.587 507.98 926.349 429.659 953.892 C 376.022 974.006 341.381 989.092 290.537 1013.117 C 224.049 1045.523 178.792 1122.627 187.173 1195.261 C 201.7 1287.451 289.419 1343.882 332.441 1343.882 L 331.883 1362.32 L 331.883 1362.879 Z " fill="url(#_lgradient_27)"/><linearGradient id="_lgradient_28" x1="0%" y1="50%" x2="93.94074513204885%" y2="15.719737398388572%"><stop offset="0%" stop-opacity="1" style="stop-color:rgb(149,149,149)"/><stop offset="100%" stop-opacity="1" style="stop-color:rgb(83,83,83)"/></linearGradient><path d=" M 331.883 1362.879 C 256.455 1362.879 159.795 1281.305 145.827 1176.823 C 141.687 1081.05 198.638 993.157 287.743 957.803 C 349.203 936.013 387.755 923.162 452.008 904.724 C 536.098 881.687 598.592 811.08 611.245 724.815 C 620.185 641.006 576.045 568.372 492.237 530.937 C 346.968 466.684 188.849 499.649 187.173 499.649 L 183.82 480.093 C 191.084 478.417 349.203 444.894 501.176 512.499 C 592.807 553.286 641.975 632.625 631.918 725.932 C 618.375 819.956 550.342 896.986 458.713 922.045 C 403.818 938.123 349.412 955.824 295.565 975.124 C 214.66 1006.966 162.841 1086.602 166.5 1173.471 C 175.44 1240.518 245.839 1342.206 332.441 1342.206 L 331.883 1362.32 L 331.883 1362.879 Z " fill="url(#_lgradient_28)"/><linearGradient id="_lgradient_29" x1="0%" y1="50%" x2="93.96760893324247%" y2="15.79344402940851%"><stop offset="0%" stop-opacity="1" style="stop-color:rgb(150,150,150)"/><stop offset="100%" stop-opacity="1" style="stop-color:rgb(81,81,81)"/></linearGradient><path d=" M 331.883 1362.879 C 243.604 1362.879 136.888 1273.483 125.154 1156.15 C 122.556 1048.556 191.668 952.3 294.448 920.369 C 356.997 903.489 419.967 888.212 483.297 874.553 C 580.49 854.701 653.687 774.275 664.324 675.647 C 672.146 581.781 616.273 500.766 519.055 462.773 C 349.203 395.167 173.205 443.776 171.529 443.776 L 165.941 425.338 C 174.322 423.662 351.438 375.053 527.436 443.776 C 631.918 486.239 692.819 575.077 683.879 677.882 C 671.747 784.799 592.5 871.926 487.208 894.108 C 424.389 907.972 361.803 922.874 299.477 938.806 C 206.686 969.449 144.048 1056.196 144.151 1153.916 C 152.532 1241.077 235.782 1342.206 330.765 1342.764 L 331.883 1362.32 L 331.883 1362.879 Z " fill="url(#_lgradient_29)"/><linearGradient id="_lgradient_30" x1="0%" y1="50%" x2="93.95401230341689%" y2="15.756116282036759%"><stop offset="0%" stop-opacity="1" style="stop-color:rgb(150,150,150)"/><stop offset="100%" stop-opacity="1" style="stop-color:rgb(80,80,80)"/></linearGradient><path d=" M 331.883 1362.879 C 232.988 1362.879 113.98 1267.895 105.04 1134.919 C 99.453 1023.174 193.878 903.048 301.153 881.816 C 387.755 865.055 431.336 857.233 513.468 843.264 C 623.249 826.119 707.046 736.088 716.285 625.362 C 722.99 520.88 657.619 431.484 545.874 391.815 C 351.438 321.415 155.884 386.228 153.649 386.228 L 148.062 367.231 C 155.884 364.437 351.438 300.184 552.579 372.818 C 673.263 415.84 743.663 513.617 736.958 627.597 C 727.369 747.526 636.366 845.013 517.379 862.82 C 435.247 876.788 392.225 884.61 305.064 901.372 C 199.509 929.364 125.793 1024.6 125.154 1133.801 C 132.977 1231.578 222.931 1342.206 331.883 1342.206 L 331.883 1361.761 L 331.883 1362.879 Z " fill="url(#_lgradient_30)"/><linearGradient id="_lgradient_31" x1="0%" y1="50%" x2="93.95418552670488%" y2="15.756591553796484%"><stop offset="0%" stop-opacity="1" style="stop-color:rgb(151,151,151)"/><stop offset="100%" stop-opacity="1" style="stop-color:rgb(79,79,79)"/></linearGradient><path d=" M 331.883 1362.879 C 207.287 1362.879 91.631 1246.105 83.25 1114.805 C 85.539 983.489 178.644 871.345 307.299 844.941 L 544.198 813.652 C 666.902 800.191 761.895 700 768.805 576.753 C 774.393 461.655 699.524 364.437 573.252 322.533 C 430.608 280.463 278.488 283.194 137.446 330.355 L 129.624 312.476 C 131.859 311.358 351.997 229.226 578.839 304.654 C 712.933 348.793 792.831 454.392 787.802 578.429 C 781.131 711.336 678.756 819.636 546.433 833.766 C 467.763 843.617 389.167 854.047 310.651 865.055 C 192.109 890.344 106.382 993.633 103.364 1114.805 C 110.069 1236.048 216.785 1342.764 332.441 1343.882 L 331.324 1362.879 L 331.883 1362.879 Z " fill="url(#_lgradient_31)"/><linearGradient id="_lgradient_32" x1="0%" y1="50%" x2="93.97154378386234%" y2="15.804255251893661%"><stop offset="0%" stop-opacity="1" style="stop-color:rgb(151,151,151)"/><stop offset="100%" stop-opacity="1" style="stop-color:rgb(78,78,78)"/></linearGradient><path d=" M 331.883 1362.879 C 192.201 1361.761 68.723 1239.4 62.577 1094.691 C 59.784 959.479 182.144 820.915 314.003 808.065 C 427.425 796.89 477.71 792.42 575.487 784.598 C 710.856 773.884 816.635 663.296 821.326 527.585 C 824.678 429.249 768.247 305.212 600.629 253.251 C 442.614 209.75 274.927 216.981 121.243 273.924 L 113.98 256.045 C 116.215 254.927 354.79 157.15 607.334 235.372 C 755.955 281.746 845.909 394.05 841.998 529.261 C 836.725 674.806 722.946 793.156 577.721 804.154 C 481.062 811.976 431.336 816.446 317.356 827.62 C 185.272 848.963 86.865 960.959 82.691 1094.691 C 87.72 1226.55 205.611 1342.764 332.441 1342.764 L 332.441 1362.32 L 331.883 1362.879 Z " fill="url(#_lgradient_32)"/><linearGradient id="_lgradient_33" x1="0%" y1="50%" x2="93.98812075310813%" y2="15.849843963765492%"><stop offset="0%" stop-opacity="1" style="stop-color:rgb(152,152,152)"/><stop offset="100%" stop-opacity="1" style="stop-color:rgb(78,78,78)"/></linearGradient><path d=" M 331.883 1362.879 C 174.755 1357.99 48.264 1232.232 42.463 1075.135 C 40.228 929.308 178.233 779.011 320.708 770.63 L 412.898 765.043 L 605.658 753.868 C 753.342 746.615 870.491 626.786 874.404 478.976 C 877.757 344.323 780.539 228.667 628.565 184.528 C 454.929 139.785 271.552 151.528 105.04 218.051 L 96.101 200.172 C 98.894 199.613 356.466 86.192 633.035 166.649 C 793.389 213.023 895.636 336.501 893.401 480.093 C 889.214 637.757 764.3 765.593 606.775 773.424 L 415.133 784.598 C 388.314 786.275 358.143 787.392 322.943 790.186 C 189.966 798.008 60.342 938.806 62.577 1074.018 C 68.068 1220.538 185.899 1337.882 332.441 1342.764 L 331.883 1362.32 L 331.883 1362.879 Z " fill="url(#_lgradient_33)"/><linearGradient id="_lgradient_34" x1="0%" y1="50%" x2="93.97477438573117%" y2="15.813134405872692%"><stop offset="0%" stop-opacity="1" style="stop-color:rgb(152,152,152)"/><stop offset="100%" stop-opacity="1" style="stop-color:rgb(77,77,77)"/></linearGradient><path d=" M 331.883 1362.879 C 162.752 1359.357 26.229 1223.572 21.79 1054.462 C 20.673 895.785 171.529 737.665 326.854 733.754 C 387.755 731.519 433.012 730.402 473.799 729.843 L 634.711 724.256 C 794.775 721.245 923.464 591.566 925.248 431.484 C 927.483 284.54 820.767 161.061 653.708 115.246 C 358.143 34.231 89.396 159.944 86.044 161.061 L 77.663 143.741 C 80.456 142.623 356.466 12.441 658.737 95.691 C 834.735 144.858 946.48 275.6 945.362 430.367 C 944.17 601.588 806.473 740.525 635.27 743.253 C 571.575 745.488 525.76 746.046 473.799 748.281 L 327.413 752.192 C 181.586 757.221 39.669 905.842 40.787 1053.904 C 42.463 1210.347 175.44 1342.206 331.324 1342.764 L 331.324 1362.32 L 331.883 1362.879 Z " fill="url(#_lgradient_34)"/><linearGradient id="_lgradient_35" x1="0%" y1="50%" x2="93.96715615278858%" y2="15.792200237994724%"><stop offset="0%" stop-opacity="1" style="stop-color:rgb(152,152,152)"/><stop offset="100%" stop-opacity="1" style="stop-color:rgb(76,76,76)"/></linearGradient><path d=" M 331.883 1362.879 C 150.326 1360.794 3.311 1214.769 0 1033.231 C 0 862.82 164.265 695.761 332.441 695.761 C 410.104 695.761 462.624 695.761 514.586 694.644 L 665.441 694.085 C 838.243 694.085 978.327 554.001 978.327 381.199 C 978.327 191.233 817.973 81.722 679.968 45.405 C 360.378 -37.286 72.634 104.63 69.841 105.748 L 60.901 87.868 C 63.695 86.192 358.143 -59.076 686.114 27.526 C 876.081 77.253 999 215.816 999 381.199 C 999 564.892 850.251 713.891 666.559 714.199 L 515.703 714.758 L 333.559 715.875 C 179.351 715.875 20.673 876.229 20.673 1034.348 C 20.673 1200.848 163.706 1342.764 332.441 1342.764 L 331.883 1362.32 L 331.883 1362.879 Z " fill="url(#_lgradient_35)"/></g></g></svg>