<?xml version="1.0" standalone="no"?>
<svg xmlns="http://www.w3.org/2000/svg" style="isolation:isolate" viewBox="0 0 1000 730">
  <g>
    <path d="M808.4 434.5c-8.2-2.4-4.7-.2-6 .4-1.1.6-2 2.4-2 4 0 1.8-2.5 4-5.4 5.2-4.8 1.8-5.4 1.6-5.4-1.7 0-2-1.6-5.2-3.7-7.1-3-2.8-3.1-3.4-.5-3 5.5.6 8.5 0 8.5-1.9 0-1-1.7-1.8-3.7-1.8-2.9 0-2.5-.7 1.6-2.6l5.3-2.5-5-1.6c-4.5-1.3-4.6-1.8-1.6-3.9 5.6-3.8 4-5-5.1-3.7-9.7 1.5-11.3-.2-3.3-3.2 3-1.1 5.4-2.7 5.4-3.5 0-.8-6.3-4.1-14-7.4-9.1-4-13.8-7-13.8-9.1 0-6.4-22.5-10-26.4-4.3-1 1.4-2.7 2.1-3.8 1.5-1.2-.6-6.1-1.5-11-2-11.8-1-15.8-3-17.6-8.8-1-3.6-2-4.3-3.8-2.7-4.4 3.6-5.6 2.2-5.2-6 .2-5.6-.7-8.7-2.8-9.8-4-2-5.2-1-5.3 4.8-.1 6.3-5 7.3-6.7 1.5-.8-2.6-3.2-5.5-5.5-6.5-2.2-1-3.5-2.6-2.7-3.6 1.7-2.4-5.3-8.7-9.7-8.7-2 0-4.7-1-6-2.1-1.4-1.2-6-3-10-4.3-6.5-1.8-7.7-1.7-8.7.8a29.5 29.5 0 0 1-18.4 13.9c-6.4 1-6.6 1-4.2-2.8a13 13 0 0 0 1.2-9c-.9-3.4-.2-6 2-7.8 3.3-2.8 4.8-12.8 1.7-11.7-8.9 3.3-20 10.4-23.7 15.2-4 5-5.9 6-11.6 5.5-5.4-.3-7.4.5-9 3.6-2.4 4.4-6.8 6.4-10.3 4.6-6-3.1-18.5-1-37.1 6.6-11.1 4.4-13 4.7-15.8 2.4-2.9-2.3-2.4-3.3 4.7-8.7 12.1-9.4 16.4-17.3 11.9-22-3-3 2.4-6.6 5.7-3.8 2.8 2.3 9.2 2.1 11-.3.8-1 .2-2.6-1.4-3.5-2.3-1.2-2.2-2 .6-4.7 3-2.8 3.1-3.6.5-6.6-2.1-2.5-2.4-4.1-.7-5.7 1.7-1.8.8-2.1-4.3-1.6-3.6.4-7 0-7.8-1-.7-1-3.5-1.2-6.3-.7-3.4.8-5.6.1-7-1.9-1.8-2.7-2.3-2.7-5.4-.1-4.6 3.8-6 3.6-11.2-1.9-3.7-3.9-5.2-4.4-8.7-2.8-9.2 4.3-32 9.4-45.4 10.2l-14.4.8-4.8-7c-2.6-3.9-4.8-8-4.8-9 0-2.4 8.6-8.8 11.9-8.9 4.7-.1 26.6-15.7 26.6-19 0-3 7.5-6.4 13.5-5.9 6.9.6 16.5-3.8 16.5-7.5 0-1.7-1.8-4.2-4-5.5a25.5 25.5 0 0 1-7.5-9.1c-4.9-9.8-12-15.3-12-9.2 0 2-1 2.3-4 1-2.7-1.3-4.7-1.2-6.4.2-3.8 3.1-3 6.2 1.8 7.3 2.4.5 4.3 2.3 4.3 4 0 2.3-1.2 2.7-5.6 1.8-4.3-.9-6.4-.3-8.7 2.5-4 4.7-6.6 4.6-11.4-.4l-4-4-2.3 5.4-3.5 7.8c-.8 2-1.6 2-3.5.5-3.6-3-11-2.7-9.6.4 1 2 0 2.1-5 .5a15.7 15.7 0 0 0-11 0c-3.8 1.4-5.7 1.3-7.8-.6-1.9-1.7-5.3-2-11.2-1.3-7.3 1-8.5.7-8.5-2.2 0-2.8-.4-3-2-.7-3.2 4-2.7 5.4 1.8 5.4a20 20 0 0 1 9 3.3c4.2 2.8 4.6 3.9 2.3 6.1a7.7 7.7 0 0 1-6.3 2c-2.4-.6-5 1-7.6 4.6-2 3-5.1 5.4-6.8 5.4-4.7 0-9.3 5-11.9 12.8-3.2 10.2-1 11.3 21.2 11.3 18.2 0 18.6.1 19.3 4.5.4 2.4 1.6 5.4 2.8 6.5 1.3 1.4.5 3.3-2.5 5.6-4.2 3.3-4.3 3.6-.6 5 2 .7 5.7 1 8.1.8 4.1-.4 4.1-.3.5 3-5 4.6-4.8 11.3.3 12.5 4.7 1 3.8 7.7-1 7.7-3.2 0-9.4 10.8-9.4 16.3 0 2.4-1.6 3.3-6 3.3-7.7 0-11 2-12.2 7.2-1.3 5.7 4 10.4 10.7 9.3 4-.6 6.9.6 11.5 4.7 3.4 3.1 8.4 5.6 11 5.6 4 0 4.5.7 3.3 4.8-1 3-.5 5.2 1.1 6 1.5.8 2 2.7 1.1 4.5-1 2.2-2 2.6-3.7 1.3-2.8-2.4-10.9-.8-9.8 2 .5 1 3.1 2 5.9 2 4.5 0 5 .8 5.3 7.7.2 9-3.9 11.8-8.8 6-2.1-2.6-5.1-3.7-9.5-3.4-3.5.2-6.4.8-6.5 1.3l-1 3.5c-3.7 11.2-3.5 11.9 4.4 19.3 12 11.2 15.9 18.6 10 19.3-.8 0-3.2.8-5.2 1.5-2 .8-5.5.8-7.5 0-6-2.2-15.5-2.9-15.5-1.1 0 .8 1.9 3 4.2 4.8 4.6 3.4 5 11.6.6 11.6-5.8 0-2.8 9.8 4.8 15.6a29 29 0 0 1 7.8 7.6c.3 2.7.8 4 3.8 9.8 2 4 2 7 .4 11.5-2 5.6-1.5 6.7 5.8 14.6 4.3 4.8 8.9 8.7 10 8.7 1.2 0 4 2 6 4.3 2.8 3.1 6.8 4.6 15 5.5 8.8 1 10.3 1.6 7.4 3-4.5 2.1-5.2 7.7-.7 6.3 1.7-.5 4.2.2 5.6 1.6 1.4 1.4 3.7 2.6 5 2.6 1.3 0 4.4 2.2 6.7 4.9 2.3 2.6 6.5 6.5 9.2 8.4 2.7 2 8.5 6.7 13 10.4 4.5 3.6 9 6.7 10.2 6.7 1.1 0 5.7 2.8 10.2 6.2a29.8 29.8 0 0 0 13 6.3c2.7 0 6 1.1 7.4 2.6 1.5 1.4 4.6 3 7 3.7a85 85 0 0 1 13.6 6.5c6.8 3.8 9.5 6.5 9.5 9.6 0 3 1.2 4.3 4 4.3 2.2 0 4.5 1.5 5 3.4.7 2 3.8 3.7 8.3 4.5A362.2 362.2 0 0 1 582 655c6.5 1.3 7.4 2.1 6.9 6.3-1 7.9 5.7 12.2 19.7 12.5 6.5.2 12 1 12 1.6 0 .8 3.6 1.4 8 1.4 5.9 0 8.8 1 10.9 3.7 2 2.7 4.3 3.6 7.9 3 3-.5 6.7.4 9.2 2.4 2.3 1.7 4.7 2.8 5.3 2.2.6-.5 3 .7 5.3 2.6 5.8 4.8 18.9 6.7 23 3.3 1.7-1.5 3.1-3.5 3.1-4.5s2-1.7 4.4-1.5c2.5.2 3.9 1.2 3.2 2.6-.6 1.5.8 2.3 4.3 2.3 2.9 0 7.2 1.6 9.5 3.5 2.4 2 5 3.6 6 3.6.9 0 3.3 1.6 5.3 3.6s5.4 3.6 7.4 3.7l11.8.5c4.4.2 8-.3 8-1 0-2.4 8.2-1.6 9.1.8.7 1.5 5 2 14 1.7 8-.4 15.8.4 20.6 2.1l11.7 3.3 8 5.7a54.7 54.7 0 0 0 12.7 4.6c1.5 0 3.1.9 3.5 1.9 1.1 2.7 47.7 2.8 58.8.2 4.8-1.2 10-3.3 11.5-4.8 1.4-1.4 3.3-2.3 4-1.9 2.1 1.1 5.2-1 8.3-5.7 2-3 2-4 .1-4-1.4 0 .2-2.4 3.6-5.3l6.1-5.4-4.8-4.3c-5.1-4.5-15.2-7.2-15.2-4 0 1 2.5 4 5.5 6.7 8.9 7.7 2.4 7.6-9.3-.2-11.5-7.6-14.5-8.7-12.5-4.4 2.4 5.3-3.2 2.5-6-3-3.5-7-2.7-9.3 4.3-12 4.5-1.7 5-2.6 3-5.6-1.2-2-3.7-3.6-5.4-3.6-3.4 0-4-1.5-1.5-4.6 2.1-2.7 22-5.1 22-2.7 0 1 2.2 3.2 5 4.7 4.4 2.4 6 2.5 9.7.5 4.7-2.4 6-6.8 2.2-6.8-1.3 0-1.7-1.5-1-3.4s.3-4-1-4.6c-2.9-1.5-2.8-11.1.2-12.6 2.6-1.4 17 9.4 17 12.7 0 1.1 1.8 4 4 6.5 2.6 2.7 3.8 5.9 3 8.3-.8 2.5 0 4.2 2.3 4.9 2 .7 3.5 3.2 3.5 6.3 0 2.8.8 6.6 1.9 8.3a79 79 0 0 1 3.7 7c2 4.6 5.9 3.4 8-2.4 1.1-2.8.4-4-2.9-4.7-2.4-.5-4.3-1.8-4.3-2.7 0-1 1.8-1.4 4-1 2.8.7 4.6-.6 6.6-4.7 2.5-4.8 2.3-5.8-.9-7.8-3.4-2-3.5-2.8-.4-8.9 3.3-6.5 3.3-6.5-2-6.5-4.1 0-5.2-1-5.2-4.5 0-2.9 1.2-4.5 3.4-4.5 2.4 0 3-1 1.9-3.8-1-2.4-.4-4.3 1.4-5.3 4.7-2.5 7.6-1.9 14.2 2.8 4.5 3.1 7 3.8 8.6 2.5 2.7-2.3 1-6.9-2.4-6.9-1.4 0-3.7-1.6-5.2-3.6-2.8-3.7-.6-10 4.5-12.8 3-1.6-8.3-4-11.3-2.4-2.9 1.5-7.5-6.9-5.8-10.6.7-1.5 3.1-2.7 5.4-2.7 2.3 0 4.7-1.3 5.4-2.7.6-1.5 3.1-2.7 5.5-2.7 2.5 0 4.4-1.2 4.4-2.7 0-1.5 3.1-4.3 7-6.3 3.8-2 5.4-3.5 3.5-3.5-1.8 0-5.7-2-8.5-4.6-3.6-3.2-6.4-4.2-9.5-3.4-10.3 2.6-16 2.6-14.7 0 .7-1.5 3-2.7 5.2-2.7 2.1 0 4.5-.8 5.2-1.8.7-1 5.6-1.8 10.8-1.8 9.2 0 12.8-2.6 6.4-4.7-1.7-.5-3.8-2.7-4.5-4.8-1.9-5-19.2-20.8-27.6-25-3.6-2-12-8.2-18.6-14a59.4 59.4 0 0 0-14.8-10.4c-1.4 0-5.6-2.6-9.2-5.8-9.1-8-16-11-19.8-8.3-2 1.3-3 1.4-3 .1 0-1-2.1-2.4-4.8-3-2.6-.8-6.3-2.5-8.3-3.9-1.9-1.4-4.3-2.3-5.3-2-1 .2-4-.6-6.7-1.8-5.8-2.7-6-1.5-.9 4.7 7.7 9.4 7.9 9.9 2 8.6-2.9-.6-5.8-.6-6.5 0-1.6 1.3 2.9 9.6 5.2 9.6 1 0 1.8 1.1 1.8 2.5 0 2.2-.8 2.2-6 0a40.6 40.6 0 0 1-10-6c-2.2-2-5-3.6-6.3-3.6-1.3 0-.6 1.1 1.4 2.4 2.1 1.3 3.8 3.3 3.8 4.5 0 1 1.1 3.6 2.6 5.5 3.9 5.2-.4 7-4.5 1.9-5-6.4-11.1-11.3-12.6-10-.6.5 1.4 5 4.5 9.7 4.9 7.5 5.4 9.8 3.9 15.7l-1.9 6.8-1.7-5.3a49.6 49.6 0 0 0-8.9-15c-1-1.3-14.2 4-19.2 8-2.8 2-5 5.5-5 7.6 0 2.1-1.3 3.9-2.9 3.9-2 0-3-2.6-3-8-.1-5 .8-8.1 2.3-8.1 3.5 0 20.7-13.7 20.7-16.5 0-2.4 13.8-12.5 19.5-14.3 1.9-.6 4-3.3 4.7-6.1a55 55 0 0 1 2.6-8.2c1-2.3.4-3.1-2.3-3.1-2 0-5 1.4-6.6 3-2.3 2.6-3.2 2.7-4.7.8-1.6-2-2.7-2-6.5 0-2.5 1.3-4.6 3-4.6 3.7 0 .8-1.7 1.4-3.8 1.4a33 33 0 0 0-12.7 7.1l-9 7.1.1-10.6c.1-10.5.1-10.5 5.3-8.6 4.2 1.6 6 1.4 9.4-1.3 5.7-4.2 2-8-7.7-8-5.8 0-7.2-.7-7.2-3.5 0-2.3 1.9-4 5.3-4.7 5.7-1.2 7.1-.8 17.1 4.5 7.2 3.9 14 4.7 14 1.8 0-2.8-13.3-14.2-16.5-14.2-1.4 0-2.2-1.5-1.8-3.5 1-4.3-8.2-13.2-16.5-15.6zM622.7 325c0-1 1.5-1.8 3.3-1.8 1.9 0 2.8.8 2 1.8-.7 1-2.2 1.8-3.3 1.8-1.1 0-2-.8-2-1.8zm-75-12.2c0-1.8 7.8-5 15.6-6.4 3.4-.6 5.9-.3 5.9.7s-2.3 1.8-5.1 1.8-6.3 1.3-7.8 2.7c-2.8 2.9-8.5 3.7-8.5 1.2zm419.6 335.4c0-1 1-1.4 2.1-.8 1.2.6 2.2 1.5 2.2 2 0 .3-1 .7-2.2.7-1.2 0-2.1-.9-2.1-1.9zM804.6 535.4c0-2.3-7-1-8 1.6-.5 1.3.8 1.7 3.6 1.1 2.4-.5 4.4-1.7 4.4-2.7zm0-10.3c0-1-1-1.8-2.1-1.8-1.2 0-2.2.8-2.2 1.8s1 1.8 2.2 1.8c1.2 0 2.1-.9 2.1-1.8zm0-31.5c0-3.2-1.1-4.2-4.8-4.2-2.6 0-6.3.8-8 1.7-2.6 1.4-2.3 1.8 1.6 1.8 3.3 0 4.8 1 4.8 3.5 0 2.4 1 3.2 3.2 2.5 1.8-.5 3.2-3 3.2-5.3zm-18.2 1.1c.8-1 .3-1.8-1-1.8-1.2 0-2.2.8-2.2 1.8s.4 1.8 1 1.8c.5 0 1.5-.8 2.2-1.8zm18.2-15.1c0-1.5-2-3.5-4.3-4.5-3.5-1.6-4.2-1.4-4.2 1.4 0 1.8.6 3.9 1.4 4.5 2.6 2.2 7.1 1.3 7.1-1.4zm-.3-12.7c.7-2.9.3-3-2.6-1-4.1 2.9-4.6 6.2-.8 5.1 1.4-.4 3-2.2 3.4-4zM365.6 203.4c3.9-2.6 5.4-6.3 4.8-12.1-.2-1.8-1-2-3-.5-2.2 1.5-3.7.6-6.7-3.5-2-3-3.2-6.5-2.6-7.9.6-1.4.2-3-.9-3.6-3.5-1.8-2.2-6 1.7-5.8 2 0 5.4-.5 7.5-1.2 3-1 3.8-.4 3.8 2.9v4.2l4-4.4c3.7-3.9 4.7-4.1 9.7-2.3 3 1.2 5.5 3 5.5 4 0 4 4 1.4 4.7-3.1l.7-5 3.2 5.3c2 3.2 5.7 5.9 9.6 6.7 3.8 1 8.7 4.3 12 8.3 5 6.2 5.3 7.3 2.8 11.4-2.3 3.5-5.2 4.9-13.1 5.9a410.7 410.7 0 0 1-37.7 3.1c-9.6.4-10 .3-6-2.4zm-171.2-20a15 15 0 0 1 0-3.5c.2-1.3-4.5-2-9.6-1.5-1.3.1-3.6-1-5.1-2.5-1.5-1.5-2-2.7-1.2-2.7s.1-1.1-1.6-2.5c-3.3-2.8-23.4-6.4-35.6-6.4-4.2 0-10.5-1.3-14-3-7-3-18.4-3.5-31.9-1.4-7.7 1.2-8.1 1-6.8-2.6.9-2.2.5-3.8-.8-4-1.3 0-3.2-.3-4.3-.4-1-.1-4-2.4-6.5-5.1-3.8-4-4-5-1.3-5 1.9 0 3.4-1.2 3.4-2.6 0-1.5-1-2.7-2.2-2.7-1.1 0-2.1-1.2-2.1-2.7 0-1.5-2-2.7-4.4-2.7-2.3 0-4.9-1.2-5.5-2.7-.7-1.4-3.9-2.6-7-2.6-3.2 0-6.9-1-8.2-2-1.4-1.2-4.1-1.5-6.3-.8a53.2 53.2 0 0 1-27.9 0c-8.2-2.8-8-2.3-4-9 1.7-2.9 3.5-8 4.1-11.3.7-3.4 2.7-6.8 4.5-7.7 4.8-2.3 4-6.7-1-6.7-3.2 0-4.3-1-3.8-3.3.3-1.8-.7-4.7-2.3-6.3-3.4-3.4-.6-7.4 6.5-9.3 3-.8 3.8-2 2.7-4a28 28 0 0 1-1.7-9.3c-.2-6.6-3.2-9.8-12.2-12.6-3.9-1.3-5.4-3-5.2-5.8.2-2.1-.6-4.5-2-5.2-1.6-1-1.5-1.3.3-1.4 1.8 0 2.2-1.7 1.4-5.1-1.4-6 2.1-8.8 6.8-5.5 2 1.3 4.1 1.5 5.8.5 1.5-1 7.3-1.6 12.8-1.6 5.6.1 10.2-.4 10.2-1.2 0-.8 1.5-1.4 3.3-1.4 1.8 0 4-1.9 5.1-4.1 1.6-3.4 4.8-4.7 17.6-7a112 112 0 0 1 26-2c8.4 1 10 .6 10-1.8 0-3.3 3.4-4 5.4-1.2 1.7 2.4 11.8 2.4 11.8 0 0-2.3 8-2.3 9.7.1 1 1.3 2.2 1.3 4.1 0 2-1.3 4.4-1.2 8.6.7 3.3 1.4 7.2 2.1 8.7 1.7 1.5-.5 5.7.4 9.4 2 3.6 1.5 6.6 2.1 6.6 1.3s2-1.5 4.3-1.7c2.4-.1 4.2.7 4 1.9-1 6.6.3 7.8 8.3 7.6 7.8-.2 8 0 8.7 6.5.7 7.2 2.5 8.3 6.8 4 6.3-6.3 27.8 2.4 27.8 11.4 0 3.9 3.2 6.4 10.2 8.2 2.7.7 7.3 3.3 10.3 5.8 3.2 2.6 6.7 4 8.7 3.4a24 24 0 0 1 6-1c1.4 0 3.7-2 5-4.5 3.3-5.9 8-5.7 12.7.4 2 2.7 5.2 5.7 7 6.6 1.8 1 5.8 4 8.9 6.7 5.1 4.5 6.3 4.8 12.3 3 3.7-1 6.7-2.6 6.7-3.5 0-.9 2.3-1.6 5.2-1.6 6.3 0 9.7 4.5 9.7 12.8 0 7.3 8.9 14.4 16 13 3.6-.8 6 .4 10.3 4.9a336 336 0 0 0 17.3 16.4c11 9.7 18.5 19.5 18.5 24.1 0 1-5.5 4-12.3 6.7a53.7 53.7 0 0 1-20.2 5.8 15 15 0 0 0-7 3c-2.5 2.1-5 2.6-9.2 1.6a268 268 0 0 0-48.1-1.5c-4.2 1-5.1 5.4-1.4 6.4 7.4 2-11 13.1-20.2 12.3-2.2-.2-5.8 1-8 2.6-2.8 2.1-6 2.8-10.3 2-4.2-.7-7.2-.1-9 1.6-2.9 3-9.4 2-15.2-2.2-3.2-2.4-3.6-2.2-4.3 1.4-.5 2.9-3.3 4.7-10.3 6.8a52.7 52.7 0 0 0-12.5 5 10.2 10.2 0 0 1-4.8 2.3c-1 0-2-1-2.2-2.2zm146.6.2c-1.5-2-1-2.5 5-4 3.3-.9 5.2-.3 6.7 2 1.7 2.7 1.1 3.2-4.2 3.4-3.5.1-6.9-.5-7.5-1.4z"/>
  </g>
</svg>
